<svg width="47" height="43" viewBox="0 0 47 43" fill="none" xmlns="http://www.w3.org/2000/svg">
<path d="M40.0114 0.728516H2.77001C1.45591 0.728516 0.390625 1.7938 0.390625 3.10789V40.3491C0.390625 41.6632 1.45591 42.7285 2.77001 42.7285H40.0114C41.3255 42.7285 42.3908 41.6632 42.3908 40.3491V3.10789C42.3908 1.7938 41.3255 0.728516 40.0114 0.728516Z" fill="#67747D"/>
<path d="M40.9456 3.72251V39.7336C40.9456 40.5913 40.2526 41.2843 39.395 41.2843H3.38369C2.52896 41.2843 1.83594 40.5913 1.83594 39.7336V3.72251C1.83594 2.86778 2.52896 2.17188 3.38369 2.17188H39.395C40.2526 2.17188 40.9456 2.86778 40.9456 3.72251Z" fill="#B3B9BE"/>
<path d="M39.2148 39.5516V3.9043L3.56742 3.9043V39.5516H39.2148Z" fill="#F0F0F0"/>
<path d="M3.56641 35.0996L17.5973 22.2325C18.4895 21.4153 19.8582 21.424 20.739 22.2498L39.2138 39.5523H3.56641V35.0996Z" fill="#67747D"/>
<path d="M40.9436 31.6998V39.5512H17.043L32.3877 25.9766C33.0865 25.3385 34.1607 25.3442 34.8508 25.9911L40.9465 31.6998H40.9436Z" fill="#CCD1D4"/>
<path d="M31.728 14.5927C33.4503 14.5927 34.8466 13.1964 34.8466 11.4741C34.8466 9.75171 33.4503 8.35547 31.728 8.35547C30.0056 8.35547 28.6094 9.75171 28.6094 11.4741C28.6094 13.1964 30.0056 14.5927 31.728 14.5927Z" fill="#B3B9BE"/>
<path d="M15.9771 9.25857C15.9771 9.25857 15.9569 9.25857 15.9453 9.25857C15.7461 7.77723 14.4784 6.63086 12.9422 6.63086C11.406 6.63086 10.1037 7.80322 9.93048 9.31343C9.79187 9.27878 9.64749 9.25568 9.49734 9.25568C8.54731 9.25568 7.77344 10.0267 7.77344 10.9796C7.77344 11.9325 8.54443 12.7035 9.49734 12.7035H15.9771C16.9271 12.7035 17.701 11.9325 17.701 10.9796C17.701 10.0267 16.93 9.25568 15.9771 9.25568V9.25857Z" fill="#B3B9BE"/>
<path d="M45.6966 5.46289H32.7325C32.2697 5.46289 31.8945 5.83805 31.8945 6.30083V13.0313C31.8945 13.4941 32.2697 13.8693 32.7325 13.8693H45.6966C46.1594 13.8693 46.5346 13.4941 46.5346 13.0313V6.30083C46.5346 5.83805 46.1594 5.46289 45.6966 5.46289Z" fill="#67747D"/>
<path d="M37.0759 9.16058C37.0759 9.76916 36.5844 10.2606 35.9529 10.2606H35.4716V11.269H34.7383V8.06055H35.9529C36.5869 8.06055 37.0759 8.552 37.0759 9.16058ZM36.3425 9.16058C36.3425 8.92631 36.177 8.74807 35.9529 8.74807H35.4716V9.57309H35.9529C36.177 9.57309 36.3425 9.39484 36.3425 9.16058Z" fill="white"/>
<path d="M39.9623 8.06055V11.2715H39.4123L38.1748 9.5298V11.2715H37.4414V8.06055H37.9914L39.229 9.80226V8.06055H39.9623Z" fill="white"/>
<path d="M43.6904 9.75759C43.6904 10.7379 43.008 11.3338 42.1091 11.3338C41.1007 11.3338 40.375 10.5902 40.375 9.66846C40.375 8.74668 41.1134 7.99805 42.0582 7.99805C42.6718 7.99805 43.1913 8.30106 43.4612 8.7314L42.8373 9.08789C42.7049 8.87654 42.4146 8.71103 42.0531 8.71103C41.5132 8.71103 41.1084 9.11081 41.1084 9.67356C41.1084 10.2363 41.4929 10.6183 42.1167 10.6183C42.542 10.6183 42.8221 10.4298 42.9367 10.1243H42.0785V9.48258H43.6878V9.75759H43.6904Z" fill="white"/>
</svg>
