<svg width="18" height="19" viewBox="0 0 18 19" fill="none" xmlns="http://www.w3.org/2000/svg">
<path d="M9 18.5C13.9706 18.5 18 14.4706 18 9.5C18 4.52944 13.9706 0.5 9 0.5C4.02944 0.5 0 4.52944 0 9.5C0 14.4706 4.02944 18.5 9 18.5Z" fill="#25D12C"/>
<path d="M14.3899 7.40031L7.6688 13.6277C7.41037 13.8673 7.07243 14 6.72057 14C6.68876 14 6.65497 13.998 6.62316 13.996C6.2395 13.9683 5.88168 13.7842 5.63915 13.4872L3.4783 10.8318C2.99325 10.2378 3.0847 9.36457 3.68107 8.88143C4.27744 8.39828 5.1541 8.48937 5.63915 9.0834L6.8637 10.5863L12.4934 5.3707C13.056 4.84994 13.9367 4.88162 14.4595 5.44199C14.9843 6.00038 14.9525 6.87756 14.3899 7.40031Z" fill="white"/>
</svg>
