<svg width="350" height="312" viewBox="0 0 350 312" fill="none" xmlns="http://www.w3.org/2000/svg">
<circle opacity="0.2" cx="247.312" cy="102.35" r="101.852" fill="#FFF5F9"/>
<circle opacity="0.1" cx="134.497" cy="186.966" r="124.368" fill="#0D99FF"/>
<path d="M119.713 179.181L120.896 174.674C119.385 174.268 117.837 173.876 116.272 173.475C100.47 169.419 82.5537 164.816 64.7469 150.392L61.8225 154.017C80.4259 169.073 98.8582 173.808 115.118 177.986C116.683 178.387 118.206 178.788 119.713 179.181Z" fill="#011727"/>
<path d="M25.9871 136.873C25.719 137.394 25.7465 138.009 26.052 138.503L43.3505 165.878C43.6978 166.413 44.331 166.727 44.9999 166.612C45.2242 166.577 45.4275 166.481 45.6224 166.36L50.7559 163.113C50.7559 163.113 50.7808 163.104 50.8057 163.096C51.552 162.594 51.7516 161.583 51.2496 160.836C50.7519 160.103 49.7243 159.936 48.9697 160.413L45.9178 162.347C45.5529 162.581 45.0702 162.466 44.8359 162.102L28.8262 136.774C28.6755 136.534 28.4543 136.331 28.2044 136.207C27.4086 135.782 26.4162 136.09 26.008 136.894L25.9871 136.873Z" fill="#1A2E3D"/>
<path d="M10.3891 88.2061L17.9295 82.8829L8.60867 76.7766L6.22817 75.1525C4.74817 74.14 2.77025 75.3912 3.05192 77.1693L5.26603 90.9502L10.3891 88.2061Z" fill="#A18FFE"/>
<path d="M38.8045 128.852L43.265 122.668L18.3089 83.184C18.0912 82.8274 17.6789 82.6337 17.2551 82.6936C15.8133 82.9033 12.4153 83.5657 10.5758 85.1032C8.79008 86.5946 6.5924 89.0024 5.5868 90.1332C5.2682 90.5045 5.22464 91.0327 5.48823 91.4431L30.3649 130.815L38.8045 128.852Z" fill="#1A2E3D"/>
<path d="M57.5144 167.715C59.1184 168.561 61.0346 168.482 62.5689 167.52C64.9242 166.03 65.6223 162.921 64.1327 160.566L61.4797 156.37L56.7429 157.998L52.9502 161.764L55.6031 165.96C56.101 166.735 56.7603 167.331 57.5186 167.727L57.5144 167.715Z" fill="#9FF3E9"/>
<path d="M62.2509 155.858C63.0305 155.373 63.255 154.353 62.7695 153.574L43.2365 122.665L30.3364 130.812L50.7565 163.114L62.2467 155.846L62.2509 155.858Z" fill="#0FE2C9"/>
<path d="M56.8825 155.619L44.2825 135.537C43.7971 134.757 44.0298 133.721 44.8094 133.235C45.589 132.75 46.6251 132.983 47.1106 133.762L59.7106 153.845C60.196 154.624 59.9633 155.66 59.1837 156.146C59.0676 156.213 58.9515 156.28 58.8269 156.322C58.1045 156.566 57.2928 156.299 56.8701 155.623L56.8825 155.619ZM42.1179 131.8L40.1928 128.69C39.7073 127.91 39.9525 126.87 40.7321 126.384C41.5117 125.899 42.552 126.144 43.0375 126.923L44.9626 130.034C45.448 130.813 45.2029 131.854 44.4233 132.339C44.3071 132.406 44.1992 132.456 44.0747 132.498C43.3523 132.742 42.5363 132.463 42.1179 131.8Z" fill="#CFF2F3"/>
<path d="M61.7756 155.521C57.8283 157.063 53.3802 155.111 51.8383 151.163C51.8341 151.151 51.8257 151.126 51.8215 151.114C50.3045 147.158 52.286 142.714 56.2459 141.209C60.2016 139.692 64.6456 141.674 66.1502 145.634C67.6588 149.565 65.698 153.988 61.7756 155.521Z" fill="black"/>
<path d="M55.7196 155.833C53.733 154.964 52.1924 153.361 51.3815 151.29C50.6 149.264 50.6699 147.048 51.5514 145.057C52.4329 143.067 54.0439 141.551 56.0695 140.769C58.0993 140 60.3112 140.058 62.302 140.939C64.2804 141.825 65.8085 143.432 66.5901 145.457C68.1787 149.625 66.1026 154.323 61.9478 155.949C61.8232 155.991 61.6987 156.033 61.5741 156.075C59.6561 156.723 57.5854 156.632 55.7154 155.82L55.7196 155.833ZM65.7184 145.793C65.0293 144 63.6848 142.567 61.923 141.789C60.1613 141.01 58.2237 140.943 56.4056 141.641C54.6125 142.33 53.1796 143.675 52.401 145.436C51.6225 147.198 51.5598 149.148 52.27 151.004C52.9716 152.792 54.3244 154.209 56.0986 154.983C57.8603 155.762 59.8311 155.803 61.6158 155.089C65.2933 153.652 67.1346 149.492 65.7226 145.806L65.7184 145.793Z" fill="#011727"/>
<path d="M258.47 232.084L263.006 230.993C257.405 207.724 245.652 192.75 235.293 179.55C234.294 178.288 233.321 177.039 232.361 175.804L228.68 178.657C229.64 179.892 230.626 181.154 231.625 182.43C241.695 195.261 253.106 209.814 258.47 232.097V232.084Z" fill="#011727"/>
<path fill-rule="evenodd" clip-rule="evenodd" d="M298.002 111.739C298.002 108.439 295.333 105.771 292.033 105.771C288.734 105.771 286.065 108.439 286.065 111.739C286.065 115.039 288.734 117.708 292.033 117.708C295.333 117.708 298.002 115.039 298.002 111.739ZM288.944 111.739C288.997 110.096 290.311 108.781 291.955 108.728C293.664 108.676 295.097 110.03 295.149 111.739C295.149 111.805 295.149 111.857 295.149 111.923C295.097 113.632 293.664 114.986 291.955 114.934C290.246 114.881 288.891 113.448 288.944 111.739Z" fill="#FEC603"/>
<path d="M262.835 66.6357V72.6043H268.804V75.5885H262.835V81.5571H259.851V75.5885H253.882V72.6043H259.851V66.6357H262.835Z" fill="#FEC603"/>
<path d="M258.497 160.95V166.918H264.465V169.903H258.497V175.871H255.512V169.903H249.544V166.918H255.512V160.95H258.497ZM294.781 63.7443L291.495 66.9915C290.877 67.5962 289.891 67.5962 289.286 66.9915C289.286 66.9915 289.286 66.9915 289.273 66.9783C288.681 66.3736 288.681 65.4007 289.286 64.8091L292.573 61.562C293.19 60.9572 294.176 60.9572 294.781 61.562C294.781 61.562 294.794 61.5751 294.807 61.5882C295.399 62.193 295.386 63.1527 294.781 63.7443ZM287.077 71.343L283.791 74.5902C283.173 75.1949 282.187 75.1949 281.582 74.5902C281.582 74.5902 281.582 74.5902 281.569 74.577C280.977 73.9723 280.977 72.9994 281.582 72.4078L284.869 69.1607C285.487 68.5559 286.473 68.5559 287.077 69.1607C287.077 69.1607 287.09 69.1738 287.104 69.1869C287.695 69.7917 287.682 70.7514 287.077 71.343ZM294.781 74.5902C294.781 74.5902 294.794 74.577 294.807 74.5639C295.399 73.9591 295.386 72.9994 294.781 72.4078L291.495 69.1607C290.877 68.5559 289.891 68.5559 289.286 69.1607C289.286 69.1607 289.286 69.1607 289.273 69.1738C288.681 69.7785 288.681 70.7514 289.286 71.343L292.573 74.5902C293.19 75.1949 294.176 75.1949 294.781 74.5902ZM284.856 66.9915L281.569 63.7443C281.569 63.7443 281.569 63.7443 281.556 63.7311C280.964 63.1264 280.964 62.1535 281.569 61.562C282.187 60.9572 283.173 60.9572 283.778 61.562L287.064 64.8091C287.064 64.8091 287.077 64.8223 287.09 64.8354C287.682 65.4402 287.669 66.3999 287.064 66.9915C286.446 67.5962 285.46 67.5962 284.856 66.9915Z" fill="#B078DB"/>
<path d="M239.21 91.6777H97.3387C92.3326 91.6777 88.2744 95.736 88.2744 100.742V242.613C88.2744 247.62 92.3326 251.678 97.3387 251.678H239.21C244.217 251.678 248.275 247.62 248.275 242.613V100.742C248.275 95.736 244.217 91.6777 239.21 91.6777Z" fill="#0D99FF"/>
<path d="M242.763 103.085V240.27C242.763 243.537 240.123 246.177 236.856 246.177H99.6701C96.414 246.177 93.7739 243.537 93.7739 240.27V103.085C93.7739 99.8288 96.414 97.1777 99.6701 97.1777H236.856C240.123 97.1777 242.763 99.8288 242.763 103.085Z" fill="#85CDFF"/>
<path d="M236.174 239.577V103.778L100.375 103.778V239.577H236.174Z" fill="white"/>
<path d="M100.375 222.612L153.826 173.594C157.225 170.481 162.439 170.514 165.794 173.66L236.175 239.574H100.375V222.612Z" fill="#0D99FF"/>
<path d="M242.763 209.666V239.576H151.713L210.169 187.863C212.831 185.432 216.923 185.454 219.552 187.918L242.774 209.666H242.763Z" fill="#85CDFF"/>
<path d="M207.649 144.493C214.211 144.493 219.53 139.174 219.53 132.612C219.53 126.051 214.211 120.732 207.649 120.732C201.088 120.732 195.769 126.051 195.769 132.612C195.769 139.174 201.088 144.493 207.649 144.493Z" fill="#85CDFF"/>
<path d="M147.654 124.169C147.654 124.169 147.577 124.169 147.533 124.169C146.774 118.526 141.945 114.159 136.093 114.159C130.24 114.159 125.279 118.625 124.619 124.378C124.091 124.246 123.541 124.158 122.969 124.158C119.35 124.158 116.402 127.096 116.402 130.726C116.402 134.356 119.339 137.293 122.969 137.293H147.654C151.273 137.293 154.221 134.356 154.221 130.726C154.221 127.096 151.284 124.158 147.654 124.158V124.169Z" fill="#85CDFF"/>
<path d="M260.869 109.715H211.482C209.719 109.715 208.29 111.145 208.29 112.907V138.548C208.29 140.311 209.719 141.74 211.482 141.74H260.869C262.632 141.74 264.061 140.311 264.061 138.548V112.907C264.061 111.145 262.632 109.715 260.869 109.715Z" fill="#EA1A71"/>
<path d="M229.127 124.06C229.127 126.065 227.507 127.685 225.426 127.685H223.84V131.007H221.424V120.435H225.426C227.516 120.435 229.127 122.054 229.127 124.06ZM226.71 124.06C226.71 123.288 226.165 122.701 225.426 122.701H223.84V125.419H225.426C226.165 125.419 226.71 124.832 226.71 124.06Z" fill="white"/>
<path d="M238.642 120.435V131.016H236.83L232.752 125.277V131.016H230.335V120.435H232.148L236.226 126.174V120.435H238.642Z" fill="white"/>
<path d="M250.926 126.023C250.926 129.253 248.677 131.217 245.715 131.217C242.392 131.217 240.001 128.766 240.001 125.729C240.001 122.692 242.434 120.225 245.547 120.225C247.569 120.225 249.281 121.223 250.171 122.641L248.115 123.816C247.679 123.119 246.722 122.574 245.531 122.574C243.752 122.574 242.418 123.891 242.418 125.746C242.418 127.6 243.685 128.859 245.74 128.859C247.142 128.859 248.065 128.238 248.442 127.231H245.614V125.116H250.917V126.023H250.926Z" fill="white"/>
<path d="M263.992 229.813C268.054 231.009 270.395 235.269 269.198 239.331C268.002 243.393 263.742 245.733 259.68 244.537C255.618 243.341 253.278 239.081 254.474 235.019C255.67 230.957 259.93 228.617 263.992 229.813Z" fill="#011727"/>
<path d="M259.535 244.982C255.223 243.72 252.752 239.184 254.014 234.885C255.276 230.573 259.811 228.102 264.11 229.364C266.201 229.969 267.923 231.362 268.961 233.268C270 235.175 270.237 237.37 269.632 239.46C268.593 243.01 265.333 245.311 261.823 245.311C261.074 245.311 260.298 245.206 259.535 244.982ZM254.908 235.148C253.79 238.961 255.986 242.971 259.798 244.088C263.611 245.192 267.62 243.01 268.738 239.198C269.277 237.344 269.067 235.398 268.146 233.715C267.226 232.033 265.701 230.797 263.847 230.258C263.177 230.061 262.493 229.969 261.823 229.969C258.707 229.969 255.828 232.006 254.908 235.148Z" fill="black"/>
<path d="M173.162 182.481L153.574 178.419C152.154 178.116 150.695 178.971 150.537 180.417C148.881 194.917 172.374 199.716 175.213 185.32C175.476 183.979 174.503 182.757 173.162 182.481Z" fill="#011727"/>
<path d="M161.699 194.76C154.981 193.709 148.67 188.424 149.591 180.326C149.696 179.432 150.156 178.643 150.892 178.104C151.694 177.525 152.733 177.302 153.745 177.512L173.333 181.574C175.213 181.969 176.462 183.731 176.107 185.505C174.793 192.184 169.495 194.945 164.144 194.945C163.329 194.945 162.501 194.879 161.685 194.747L161.699 194.76ZM151.996 179.616C151.773 179.773 151.497 180.063 151.444 180.536C150.656 187.464 156.151 192.013 161.988 192.92C167.194 193.735 173.005 191.645 174.28 185.15C174.438 184.375 173.846 183.586 172.965 183.402L153.377 179.34C153.259 179.313 153.127 179.3 153.009 179.3C152.641 179.3 152.286 179.405 151.996 179.616Z" fill="#011727"/>
<path d="M130.923 178.065C146.671 178.065 159.437 165.299 159.437 149.55C159.437 133.802 146.671 121.036 130.923 121.036C115.174 121.036 102.408 133.802 102.408 149.55C102.408 165.299 115.174 178.065 130.923 178.065Z" fill="white"/>
<path d="M125.782 179.972C117.658 178.592 110.559 174.135 105.787 167.418C101.014 160.7 99.1475 152.522 100.528 144.398C103.368 127.623 119.327 116.291 136.102 119.13C152.877 121.97 164.21 137.93 161.37 154.705C159.99 162.829 155.533 169.929 148.815 174.701C143.543 178.447 137.365 180.406 131.015 180.406C129.279 180.406 127.531 180.262 125.796 179.959L125.782 179.972ZM115.765 128.201C110.059 132.251 106.273 138.285 105.103 145.174C103.933 152.076 105.524 159.017 109.573 164.709C113.622 170.415 119.656 174.201 126.545 175.371C133.447 176.541 140.388 174.95 146.081 170.901C151.786 166.852 155.572 160.818 156.743 153.929C159.148 139.691 149.538 126.137 135.301 123.732C133.815 123.482 132.343 123.363 130.87 123.363C125.48 123.363 120.235 125.02 115.765 128.201Z" fill="#011727"/>
<path d="M203.452 190.41C219.2 190.41 231.967 177.643 231.967 161.895C231.967 146.146 219.2 133.38 203.452 133.38C187.704 133.38 174.937 146.146 174.937 161.895C174.937 177.643 187.704 190.41 203.452 190.41Z" fill="white"/>
<path d="M198.299 192.303C190.174 190.922 183.075 186.466 178.303 179.748C173.53 173.03 171.664 164.853 173.044 156.728C174.424 148.604 178.881 141.505 185.599 136.732C192.317 131.96 200.494 130.093 208.619 131.474C216.743 132.854 223.842 137.311 228.614 144.029C233.387 150.747 235.253 158.924 233.873 167.048C231.323 182.088 218.242 192.75 203.478 192.75C201.769 192.75 200.047 192.605 198.312 192.316L198.299 192.303ZM188.281 140.532C182.575 144.581 178.789 150.615 177.619 157.517C176.449 164.419 178.04 171.36 182.089 177.053C186.138 182.758 192.172 186.545 199.061 187.715C213.299 190.134 226.84 180.51 229.259 166.273C230.429 159.371 228.838 152.429 224.789 146.737C220.74 141.031 214.705 137.245 207.817 136.075C206.331 135.825 204.859 135.694 203.386 135.694C197.996 135.694 192.751 137.35 188.281 140.532Z" fill="#011727"/>
<path d="M159.732 154.463L158.955 159.052L174.082 161.613L174.859 157.024L159.732 154.463Z" fill="#011727"/>
<path fill-rule="evenodd" clip-rule="evenodd" d="M144.069 151.444C144.766 147.159 143.609 143.044 140.349 142.518C137.088 141.992 134.696 145.528 133.999 149.814C133.302 154.1 134.459 158.215 137.719 158.741C140.98 159.266 143.372 155.73 144.069 151.444ZM195.63 159.372C196.327 155.086 195.17 150.971 191.91 150.445C188.649 149.919 186.257 153.456 185.56 157.742C184.863 162.027 186.02 166.142 189.28 166.668C192.541 167.194 194.933 163.657 195.63 159.385V159.372Z" fill="#011727"/>
<path d="M64.2041 90.1945C64.2829 88.6432 65.6107 87.4601 67.1489 87.5389L78.7178 88.1568C80.2691 88.2357 81.4523 89.5635 81.3734 91.1016C81.2946 92.6529 79.9668 93.8361 78.4286 93.7572L66.8597 93.1394C66.4916 93.1262 66.1498 93.0342 65.8342 92.8896C64.822 92.4294 64.1383 91.3777 64.2041 90.1945ZM85.5803 80.1243L77.8239 71.5133C76.7853 70.3564 76.8773 68.5816 78.0342 67.5562C79.1911 66.5176 80.9659 66.6096 81.9913 67.7665L89.7478 76.3775C90.7864 77.5344 90.6943 79.3092 89.5375 80.3346C88.6829 81.1103 87.4734 81.2549 86.4875 80.7948C86.1456 80.637 85.8433 80.4135 85.5803 80.1243ZM97.4648 71.2898L98.0696 59.7208C98.1484 58.1696 99.4762 56.9864 101.014 57.0652C102.566 57.1441 103.749 58.4719 103.67 60.0101L103.065 71.579C102.986 73.1303 101.659 74.3135 100.12 74.2346C99.7523 74.2215 99.4105 74.1295 99.095 73.9848C98.0827 73.5247 97.3991 72.473 97.4648 71.2898Z" fill="#FEC603"/>
</svg>
