<svg width="20" height="17" viewBox="0 0 20 17" fill="none" xmlns="http://www.w3.org/2000/svg">
<path d="M17.2749 0.78125H2.66652L0.470703 4.4705V7.57583C0.470703 12.6585 4.72539 16.7812 9.9707 16.7812C15.216 16.7812 19.4707 12.6585 19.4707 7.57583V4.4705L17.2749 0.78125ZM12.2943 12.4816L9.9707 14.7331L7.64706 12.4816V10.5706L9.28594 12.1586V8.78346H10.6555V12.1586L12.2943 10.5706V12.4816ZM11.6644 4.4528C11.6644 5.35963 10.9066 6.09394 9.9707 6.09394C9.03485 6.09394 8.27705 5.35963 8.27705 4.4528H1.84024L3.45629 1.73231H16.4806L18.0966 4.44838H11.6598L11.6644 4.4528Z" fill="white"/>
</svg>
