<svg width="618" height="266" viewBox="0 0 618 266" fill="none" xmlns="http://www.w3.org/2000/svg">
<path d="M43.167 208.924C42.9886 208.581 42.5768 208.457 42.2474 208.636L31.4052 214.304C30.568 212.973 29.3191 211.971 27.7957 211.49C26.1076 210.955 24.3097 211.12 22.7451 211.943C21.7158 212.479 20.906 213.275 20.3022 214.194L19.3277 212.89C19.0944 212.588 18.669 212.52 18.367 212.753C18.0651 212.973 17.9965 213.412 18.2298 213.714L19.616 215.567C18.9984 217.255 19.0533 219.176 19.9453 220.892C20.7688 222.456 22.1412 223.623 23.8293 224.144C24.4881 224.35 25.1469 224.446 25.8194 224.446C26.8761 224.446 27.9192 224.185 28.8799 223.691C30.4445 222.868 31.6111 221.495 32.1326 219.807C32.5718 218.394 32.5031 216.912 32.0091 215.553L42.8788 209.871C43.2081 209.665 43.3317 209.253 43.167 208.924ZM30.815 219.382C30.3896 220.727 29.4838 221.811 28.2349 222.47C26.9859 223.115 25.5723 223.252 24.2273 222.827C22.8824 222.401 21.7981 221.496 21.1394 220.247C20.5767 219.162 20.4394 217.982 20.659 216.87C20.7551 216.349 20.9198 215.827 21.1668 215.361C21.6472 214.455 22.3883 213.673 23.3764 213.165C24.145 212.767 24.9685 212.561 25.8057 212.561C26.3272 212.561 26.8624 212.643 27.3839 212.808C28.5505 213.179 29.5249 213.933 30.1837 214.949C30.2798 215.1 30.3896 215.223 30.4719 215.388C30.6092 215.649 30.7052 215.91 30.7876 216.184C31.117 217.2 31.1444 218.311 30.815 219.382Z" fill="#808B93"/>
<path d="M44.8966 208.691C45.0064 208.691 45.1162 208.663 45.2123 208.608L50.4276 205.877C50.7707 205.699 50.8942 205.287 50.7158 204.958C50.5373 204.615 50.1256 204.491 49.7962 204.669L44.581 207.401C44.2379 207.579 44.1143 207.991 44.2928 208.32C44.4163 208.567 44.6496 208.691 44.8966 208.691Z" fill="#808B93"/>
<path d="M54.6271 202.089C54.4761 202.213 54.2977 202.336 54.1055 202.432C53.7624 202.611 53.6389 203.022 53.8173 203.352C53.9408 203.585 54.1741 203.722 54.4212 203.722C54.531 203.722 54.6408 203.695 54.7368 203.64C55.8485 203.064 56.6583 202.089 57.0288 200.895C57.3994 199.701 57.2896 198.439 56.7132 197.327L52.8978 190.039C52.7194 189.696 52.3076 189.573 51.9782 189.751C51.6351 189.929 51.5116 190.341 51.69 190.671L53.337 193.827L42.9476 179.869C41.4242 177.825 38.3637 177.111 36.1266 178.291L17.0497 188.269C16.7066 188.447 16.5831 188.859 16.7615 189.188C16.9399 189.531 17.3517 189.655 17.681 189.477L36.7579 179.499C38.4186 178.634 40.6968 179.156 41.8359 180.679L54.9976 198.356C55.5191 199.07 55.7113 199.88 55.5466 200.648C55.4231 201.211 55.0937 201.705 54.6271 202.089Z" fill="#808B93"/>
<path d="M12.0541 189.257L20.8789 184.646C21.222 184.467 21.3455 184.055 21.1671 183.726C20.9886 183.397 20.5769 183.259 20.2475 183.438L11.4228 188.049C9.76211 188.914 8.81514 190.671 8.93866 192.51L8.52692 192.729C7.40152 193.319 6.64668 194.266 6.38592 195.419C6.12516 196.586 6.39965 197.793 7.16821 198.823L16.1577 210.9C16.2949 211.079 16.5008 211.175 16.7066 211.175C16.8439 211.175 16.9949 211.134 17.1184 211.038C17.4203 210.818 17.4889 210.379 17.2556 210.077L8.26615 197.999C7.74463 197.286 7.55249 196.476 7.71719 195.707C7.8956 194.953 8.4034 194.321 9.15824 193.923L13.701 191.549C14.0441 191.37 14.1676 190.959 13.9892 190.629C13.8108 190.3 13.3991 190.163 13.0697 190.341L10.3248 191.782C10.4483 190.712 11.0797 189.765 12.0541 189.257Z" fill="#808B93"/>
<path d="M22.8417 182.848C23.0201 183.191 23.4318 183.314 23.7612 183.136L27.1786 181.352C27.4256 181.214 27.5766 180.954 27.5491 180.665L27.2609 178.03C27.2335 177.811 27.3433 177.605 27.5491 177.495L36.5798 172.774C36.7856 172.664 37.0052 172.705 37.1699 172.843L39.1874 174.599C39.3795 174.778 39.6678 174.819 39.9148 174.709C41.5068 174.023 43.3596 174.668 44.1556 176.191L50.4826 188.296C50.6061 188.53 50.8394 188.667 51.0864 188.667C51.1962 188.667 51.306 188.639 51.4021 188.584C51.7452 188.406 51.8687 187.994 51.6903 187.665L45.3634 175.546C44.3066 173.529 41.9186 172.582 39.7776 173.282L38.0757 171.786C37.4856 171.264 36.6484 171.168 35.9485 171.539L26.9178 176.26C26.2179 176.631 25.8199 177.372 25.9022 178.154L26.1355 180.322L23.1436 181.887C22.7868 182.093 22.6633 182.505 22.8417 182.848Z" fill="#808B93"/>
<path d="M26.3414 219.671C26.314 219.643 26.3002 219.602 26.2728 219.561C26.1493 219.314 26.1493 219.012 26.314 218.367C26.3277 218.326 26.3277 218.298 26.3414 218.243C26.5061 217.667 26.5747 217.2 26.561 216.802C26.5473 216.404 26.4512 216.075 26.2728 215.745C25.8473 214.949 25.216 214.689 24.4337 215.1C23.6652 215.498 23.5005 216.171 23.9122 216.981L24.022 217.2L24.1592 217.461L24.5573 217.255L24.9004 217.077L24.6259 216.541C24.4337 216.185 24.5298 215.965 24.7768 215.828C25.0239 215.691 25.2435 215.732 25.4905 216.185C25.6415 216.487 25.7101 216.775 25.7101 217.118C25.7101 217.406 25.6552 217.722 25.5317 218.147C25.4905 218.284 25.4631 218.408 25.4356 218.532C25.2846 219.218 25.3258 219.684 25.5729 220.151L25.8885 220.769L28.1668 219.575L27.7962 218.861L26.3414 219.671Z" fill="#808B93"/>
<path d="M581.073 212.824C581.251 212.481 581.663 212.358 581.993 212.536L592.835 218.204C593.672 216.873 594.921 215.871 596.444 215.391C598.132 214.856 599.93 215.02 601.495 215.844C602.524 216.379 603.334 217.175 603.938 218.095L604.912 216.791C605.146 216.489 605.571 216.42 605.873 216.653C606.175 216.873 606.244 217.312 606.01 217.614L604.624 219.467C605.242 221.155 605.187 223.076 604.295 224.792C603.471 226.357 602.099 227.523 600.411 228.045C599.752 228.251 599.093 228.347 598.421 228.347C597.364 228.347 596.321 228.086 595.36 227.592C593.796 226.768 592.629 225.396 592.107 223.708C591.668 222.294 591.737 220.812 592.231 219.453L581.361 213.771C581.032 213.565 580.908 213.154 581.073 212.824ZM593.425 223.282C593.85 224.627 594.756 225.712 596.005 226.37C597.254 227.015 598.668 227.153 600.013 226.727C601.358 226.302 602.442 225.396 603.101 224.147C603.663 223.063 603.801 221.882 603.581 220.771C603.485 220.249 603.32 219.728 603.073 219.261C602.593 218.355 601.852 217.573 600.864 217.065C600.095 216.667 599.272 216.461 598.434 216.461C597.913 216.461 597.378 216.544 596.856 216.708C595.689 217.079 594.715 217.834 594.056 218.849C593.96 219 593.85 219.124 593.768 219.289C593.631 219.549 593.535 219.81 593.452 220.085C593.123 221.1 593.096 222.212 593.425 223.282Z" fill="#0D99FF"/>
<path d="M579.344 212.591C579.234 212.591 579.124 212.564 579.028 212.509L573.813 209.778C573.47 209.599 573.346 209.187 573.524 208.858C573.703 208.515 574.115 208.391 574.444 208.57L579.659 211.301C580.002 211.479 580.126 211.891 579.947 212.221C579.824 212.468 579.591 212.591 579.344 212.591Z" fill="#0D99FF"/>
<path d="M569.613 205.99C569.764 206.113 569.942 206.237 570.134 206.333C570.478 206.511 570.601 206.923 570.423 207.252C570.299 207.486 570.066 207.623 569.819 207.623C569.709 207.623 569.599 207.595 569.503 207.54C568.391 206.964 567.582 205.99 567.211 204.796C566.841 203.602 566.95 202.339 567.527 201.227L571.342 193.94C571.521 193.597 571.932 193.473 572.262 193.651C572.605 193.83 572.728 194.242 572.55 194.571L570.903 197.728L581.292 183.77C582.816 181.725 585.876 181.011 588.113 182.192L607.19 192.169C607.533 192.348 607.657 192.759 607.478 193.089C607.3 193.432 606.888 193.555 606.559 193.377L587.482 183.399C585.821 182.535 583.543 183.056 582.404 184.58L569.242 202.257C568.721 202.97 568.529 203.78 568.693 204.549C568.817 205.111 569.146 205.605 569.613 205.99Z" fill="#0D99FF"/>
<path d="M612.186 193.157L603.361 188.546C603.018 188.368 602.895 187.956 603.073 187.626C603.251 187.297 603.663 187.16 603.992 187.338L612.817 191.95C614.478 192.814 615.425 194.571 615.301 196.41L615.713 196.63C616.838 197.22 617.593 198.167 617.854 199.32C618.115 200.486 617.84 201.694 617.072 202.723L608.082 214.801C607.945 214.979 607.739 215.075 607.533 215.075C607.396 215.075 607.245 215.034 607.122 214.938C606.82 214.718 606.751 214.279 606.984 213.977L615.974 201.9C616.495 201.186 616.687 200.376 616.523 199.608C616.344 198.853 615.837 198.222 615.082 197.824L610.539 195.449C610.196 195.271 610.072 194.859 610.251 194.53C610.429 194.2 610.841 194.063 611.17 194.242L613.915 195.683C613.792 194.612 613.16 193.665 612.186 193.157Z" fill="#0D99FF"/>
<path d="M601.399 186.748C601.22 187.091 600.808 187.215 600.479 187.036L597.062 185.252C596.815 185.115 596.664 184.854 596.691 184.566L596.979 181.931C597.007 181.711 596.897 181.505 596.691 181.396L587.66 176.674C587.455 176.565 587.235 176.606 587.07 176.743L585.053 178.5C584.861 178.678 584.572 178.719 584.325 178.61C582.733 177.923 580.881 178.568 580.085 180.092L573.758 192.197C573.634 192.43 573.401 192.567 573.154 192.567C573.044 192.567 572.934 192.54 572.838 192.485C572.495 192.306 572.372 191.895 572.55 191.565L578.877 179.447C579.934 177.429 582.322 176.482 584.463 177.182L586.165 175.686C586.755 175.165 587.592 175.069 588.292 175.439L597.322 180.16C598.022 180.531 598.42 181.272 598.338 182.054L598.105 184.223L601.097 185.787C601.453 185.993 601.577 186.405 601.399 186.748Z" fill="#0D99FF"/>
<path d="M597.899 223.571C597.926 223.544 597.94 223.502 597.967 223.461C598.091 223.214 598.091 222.912 597.926 222.267C597.913 222.226 597.913 222.199 597.899 222.144C597.734 221.567 597.666 221.101 597.679 220.703C597.693 220.305 597.789 219.975 597.967 219.646C598.393 218.85 599.024 218.589 599.806 219.001C600.575 219.399 600.74 220.071 600.328 220.881L600.218 221.101L600.081 221.361L599.683 221.156L599.34 220.977L599.614 220.442C599.806 220.085 599.71 219.865 599.463 219.728C599.216 219.591 598.997 219.632 598.75 220.085C598.599 220.387 598.53 220.675 598.53 221.018C598.53 221.307 598.585 221.622 598.709 222.048C598.75 222.185 598.777 222.308 598.805 222.432C598.956 223.118 598.914 223.585 598.667 224.051L598.352 224.669L596.073 223.475L596.444 222.761L597.899 223.571Z" fill="#0D99FF"/>
<path d="M486.259 11.1107C486.161 11.1107 486.062 11.0779 485.989 11.0041L477.704 3.68724C477.195 3.2443 476.588 3.03923 475.989 3.12946C475.399 3.21148 474.882 3.5642 474.529 4.12198L472.511 7.30463C472.388 7.4933 472.134 7.55072 471.945 7.42768C471.757 7.30464 471.699 7.05036 471.822 6.86169L473.135 4.79461C472.257 4.77 471.42 5.19654 470.937 5.95939L467.016 12.136C466.942 12.2591 466.802 12.3247 466.671 12.3247C466.597 12.3247 466.523 12.3083 466.45 12.2591C466.261 12.136 466.204 11.8818 466.327 11.6931L470.248 5.51644C470.969 4.37627 472.315 3.80208 473.627 4.02355L473.848 3.67904C474.332 2.91619 475.054 2.43223 475.883 2.31739C476.728 2.19435 477.564 2.46504 478.253 3.07204L486.538 10.3889C486.71 10.5365 486.727 10.799 486.571 10.9712C486.489 11.0615 486.374 11.1107 486.259 11.1107Z" fill="#0D99FF"/>
<path d="M482.937 30.8467C483.126 30.9698 483.183 31.2241 483.06 31.4127L480.739 35.0629C480.665 35.186 480.525 35.2516 480.394 35.2516C480.32 35.2516 480.246 35.2352 480.173 35.186C479.984 35.0629 479.927 34.8086 480.05 34.62L482.371 30.9698C482.494 30.7893 482.748 30.7319 482.937 30.8467Z" fill="#0D99FF"/>
<path d="M461.569 22.9965L470.042 9.6507C470.165 9.46204 470.42 9.40463 470.608 9.52767C470.797 9.65071 470.854 9.90499 470.731 10.0936L462.258 23.4395C461.495 24.6453 461.749 26.4006 462.832 27.3522L474.964 38.0731C475.473 38.5243 476.08 38.7211 476.678 38.6309C477.121 38.5653 477.523 38.352 477.843 38.0239C477.95 37.909 478.048 37.786 478.138 37.6466C478.237 37.4907 478.426 37.4251 478.598 37.4743C478.639 37.4825 478.672 37.4907 478.704 37.5153C478.852 37.6055 478.918 37.7696 478.893 37.9255C478.885 37.9747 478.869 38.0321 478.836 38.0813C478.36 38.836 477.614 39.3609 476.744 39.5496C476.498 39.607 476.252 39.6316 476.006 39.6316C475.382 39.6316 474.767 39.4512 474.218 39.1066L469.116 35.8666C468.927 35.7435 468.869 35.4893 468.992 35.3006C469.116 35.1119 469.37 35.0545 469.558 35.1775L472.766 37.2118L462.299 27.9592C460.929 26.7534 460.601 24.5304 461.569 22.9965Z" fill="#0D99FF"/>
<path d="M456.68 22.4306L460.691 16.1146C460.978 15.6634 461.52 15.4337 462.045 15.5322L463.677 15.8521L465.047 13.703C465.17 13.5143 465.424 13.4569 465.613 13.5799C465.802 13.703 465.859 13.9572 465.736 14.1459L464.218 16.5329C464.128 16.6723 463.956 16.7462 463.792 16.7133L461.881 16.336C461.684 16.295 461.487 16.3852 461.38 16.5493L457.369 22.8654C457.263 23.0294 457.271 23.2509 457.386 23.415L458.55 24.9981C458.649 25.1293 458.657 25.2934 458.583 25.4328C457.96 26.5894 458.337 28.0495 459.444 28.7549L467.918 34.1359C468.107 34.259 468.164 34.5132 468.041 34.7019C467.967 34.8249 467.828 34.8906 467.696 34.8906C467.623 34.8906 467.549 34.8742 467.475 34.8249L459.002 29.444C457.607 28.5581 457.09 26.7699 457.747 25.277L456.729 23.8907C456.409 23.4724 456.385 22.89 456.68 22.4306Z" fill="#0D99FF"/>
<path d="M491.058 22.5947C490.352 22.5947 489.639 22.4307 488.974 22.1026L484.11 29.7721C484.036 29.8952 483.897 29.9608 483.766 29.9608C483.692 29.9608 483.618 29.9444 483.544 29.8952C483.355 29.7721 483.298 29.5178 483.421 29.3292L488.277 21.6842C486.251 20.216 485.685 17.4024 487.038 15.2615C487.514 14.5151 488.162 13.9491 488.901 13.5718L487.916 12.7023C487.744 12.5546 487.728 12.2921 487.883 12.1199C488.031 11.9476 488.294 11.9312 488.466 12.0871L489.77 13.2354C491.033 12.8745 492.436 13.0304 493.633 13.785C495.856 15.1959 496.513 18.1489 495.102 20.3718C494.183 21.8073 492.633 22.5947 491.058 22.5947ZM493.182 14.4823C492.526 14.0639 491.796 13.867 491.066 13.867C490.877 13.867 490.68 13.8835 490.492 13.9163C490.172 13.9655 489.86 14.0475 489.565 14.1706C488.827 14.4658 488.179 14.9908 487.719 15.7045C486.604 17.4598 487.063 19.7566 488.712 20.9788C488.786 21.0362 488.859 21.1018 488.942 21.1593C489.097 21.2577 489.261 21.3233 489.417 21.3971C491.181 22.2092 493.322 21.6268 494.396 19.9371C495.569 18.0997 495.02 15.6552 493.182 14.4823Z" fill="#0D99FF"/>
<path d="M491.73 19.3707L492.395 18.329C492.37 18.3044 492.346 18.2962 492.321 18.2798C492.132 18.1649 491.911 18.1485 491.353 18.2469C490.968 18.3208 490.664 18.3372 490.402 18.3208C490.065 18.2962 489.795 18.2141 489.532 18.0501C488.974 17.6974 488.827 17.2134 489.171 16.672C489.516 16.1306 490.016 16.0568 490.574 16.4095L490.828 16.5654L490.918 16.6228L490.845 16.7458L490.59 17.1478L490.213 16.9099C489.967 16.7541 489.795 16.8033 489.688 16.9755C489.573 17.1478 489.589 17.3118 489.909 17.5169C490.139 17.6646 490.377 17.7302 490.68 17.7384C490.869 17.7384 491.074 17.722 491.353 17.6728C491.427 17.6564 491.493 17.6564 491.558 17.6399C492.116 17.5579 492.469 17.6071 492.821 17.8286L493.256 18.0993L492.247 19.6906L491.73 19.3707Z" fill="#0D99FF"/>
<path d="M106.078 102.558C107.426 101.115 108.227 99.2701 108.349 97.2789C108.387 96.7284 108.368 96.1851 108.301 95.6561C108.089 93.9715 107.379 92.3992 106.239 91.0958L73.2486 53.6392C70.3746 50.3799 65.4457 49.843 61.9104 52.3632L57.3024 49.9753C56.2407 49.4228 54.9711 49.5826 54.0704 50.374L38.516 64.0721C37.6305 64.8532 37.3101 66.1171 37.715 67.2319L39.4672 72.0213L13.6204 94.7867C10.904 97.179 9.99781 101.013 11.3468 104.374L10.1492 105.434C8.43724 106.939 7.51417 108.932 7.54757 111.036C7.57796 113.182 8.589 115.171 10.3871 116.648L44.9437 145.202C48.5795 148.208 54.391 148.138 57.8963 145.051L105.475 103.147C105.682 102.955 105.888 102.756 106.078 102.558ZM14.1602 95.3966L40.2072 72.449C40.3333 72.334 40.3769 72.1548 40.3238 71.9962L38.4717 66.9382C38.1821 66.1479 38.4142 65.234 39.0466 64.6749L54.601 50.9768C55.2486 50.4075 56.153 50.3019 56.9134 50.694L61.7514 53.2017C61.8929 53.2748 62.0648 53.2615 62.1848 53.1637C65.3916 50.7261 69.9775 51.1657 72.6214 54.1729L105.612 91.6295C106.238 92.3361 106.703 93.1374 107.034 93.9968C106.575 93.2362 105.973 92.5266 105.227 91.9178L70.6699 63.3639C67.0341 60.3576 61.2226 60.4279 57.7173 63.5148L12.0005 103.787C10.9418 100.828 11.7793 97.4987 14.1602 95.3966ZM45.4671 144.565L10.9023 116.012C9.48201 114.844 8.62094 113.323 8.41499 111.688C8.38733 111.468 8.3678 111.247 8.36455 111.024C8.33645 109.159 9.15594 107.394 10.6809 106.045L58.2591 64.1411C61.4737 61.3057 66.8069 61.246 70.1476 64.0084L104.704 92.5623C106.31 93.8896 107.212 95.6693 107.243 97.5586C107.267 99.1926 106.643 100.743 105.463 102.007C105.296 102.186 105.112 102.366 104.917 102.531L57.3555 144.433C54.1409 147.268 48.8077 147.328 45.4671 144.565Z" fill="#0D99FF"/>
<path d="M126.872 163.597L132.573 166.748C132.771 166.861 133.018 166.786 133.13 166.587C133.243 166.388 133.168 166.142 132.969 166.029L126.909 162.686C126.71 162.573 126.464 162.648 126.351 162.847L116.685 180.347C116.6 180.502 116.622 180.685 116.721 180.805C116.753 180.843 116.79 180.876 116.84 180.898C117.039 181.011 117.286 180.936 117.398 180.737L126.872 163.597Z" fill="#0D99FF"/>
<path d="M94.6042 220.853C94.6354 220.891 94.673 220.924 94.7233 220.947L99.8932 223.801C100.092 223.913 100.338 223.838 100.451 223.64C100.564 223.441 100.489 223.195 100.29 223.082L95.4799 220.42L115.661 183.895C115.774 183.696 115.699 183.45 115.5 183.337C115.301 183.225 115.055 183.3 114.943 183.498L94.5633 220.377C94.4771 220.544 94.5 220.727 94.6042 220.853Z" fill="#0D99FF"/>
<path d="M109.733 228.306L103.225 224.715C103.026 224.602 102.78 224.677 102.667 224.876C102.582 225.031 102.605 225.214 102.704 225.334C102.735 225.372 102.773 225.405 102.823 225.427L109.331 229.019C109.53 229.131 109.776 229.056 109.889 228.858C110 228.67 109.932 228.419 109.733 228.306Z" fill="#0D99FF"/>
<path d="M115.948 232.213C115.863 232.368 115.886 232.55 115.985 232.671C116.016 232.709 116.054 232.742 116.104 232.764L143.606 247.96C143.805 248.073 144.051 247.998 144.163 247.799L144.674 246.87C144.787 246.671 144.712 246.425 144.513 246.312C144.314 246.2 144.068 246.275 143.955 246.473L143.644 247.037L116.496 232.039C116.307 231.939 116.056 232.008 115.948 232.213Z" fill="#0D99FF"/>
<path d="M107.15 216.765C107.065 216.92 107.088 217.103 107.187 217.223C107.218 217.261 107.255 217.294 107.306 217.316L147.735 239.651L145.888 242.985C145.803 243.14 145.826 243.322 145.924 243.443C145.956 243.481 145.993 243.514 146.044 243.536C146.242 243.649 146.489 243.574 146.601 243.375L148.448 240.041L156.194 244.325C156.393 244.438 156.639 244.363 156.752 244.164L181.578 199.234C181.586 199.218 181.588 199.195 181.596 199.178C181.603 199.161 181.611 199.144 181.612 199.133C181.63 199.065 181.637 198.995 181.615 198.918L175.966 179.331C175.95 179.26 175.903 179.203 175.85 179.151C175.839 179.138 175.823 179.131 175.812 179.118C175.795 179.111 175.791 179.093 175.769 179.079L139.493 159.033C139.399 158.983 139.284 158.971 139.182 159.002C139.079 159.033 138.991 159.106 138.936 159.194L107.15 216.765ZM178.01 189.363L180.56 198.202L169.165 191.907L175.46 180.511L178.01 189.363ZM175.023 179.618L168.247 191.876C168.197 191.97 168.181 192.079 168.217 192.187C168.229 192.241 168.259 192.29 168.296 192.335C168.327 192.373 168.37 192.412 168.415 192.428L180.672 199.204L156.243 243.415L148.85 239.329L148.131 238.932L108.068 216.796L139.472 159.963L175.023 179.618Z" fill="#0D99FF"/>
<path d="M141.386 198.556C141.417 198.594 141.454 198.627 141.505 198.649L147.294 201.844L144.1 207.633C144.014 207.788 144.037 207.971 144.136 208.091C144.168 208.129 144.205 208.162 144.255 208.184C144.454 208.297 144.7 208.222 144.813 208.023L148.008 202.234L153.797 205.429C153.996 205.541 154.242 205.466 154.355 205.267C154.467 205.069 154.392 204.822 154.194 204.71L148.404 201.515L151.599 195.726C151.712 195.527 151.637 195.281 151.438 195.168C151.239 195.055 150.993 195.13 150.88 195.329L147.686 201.118L141.896 197.924C141.697 197.811 141.451 197.886 141.338 198.085C141.264 198.253 141.281 198.429 141.386 198.556Z" fill="#0D99FF"/>
<path d="M576.956 131.98L572.937 124.785C572.794 124.534 572.887 124.222 573.138 124.079C573.389 123.935 573.701 124.028 573.845 124.279L578.109 131.928C578.252 132.179 578.159 132.491 577.908 132.635L555.822 144.963C555.626 145.071 555.395 145.043 555.242 144.919C555.193 144.879 555.152 144.832 555.123 144.769C554.979 144.518 555.073 144.206 555.324 144.062L576.956 131.98Z" fill="#808B93"/>
<path d="M504.697 173.125C504.649 173.086 504.607 173.038 504.579 172.975L500.938 166.45C500.795 166.199 500.888 165.887 501.139 165.744C501.39 165.6 501.702 165.693 501.846 165.944L505.24 172.015L551.338 146.277C551.589 146.133 551.901 146.226 552.045 146.477C552.188 146.728 552.095 147.04 551.844 147.184L505.3 173.174C505.09 173.284 504.858 173.256 504.697 173.125Z" fill="#808B93"/>
<path d="M495.183 154.026L499.763 162.24C499.907 162.491 499.813 162.803 499.562 162.947C499.367 163.055 499.135 163.027 498.983 162.903C498.934 162.864 498.893 162.816 498.864 162.753L494.284 154.539C494.14 154.288 494.234 153.976 494.485 153.832C494.721 153.69 495.039 153.776 495.183 154.026Z" fill="#808B93"/>
<path d="M490.206 146.185C490.01 146.293 489.779 146.265 489.626 146.141C489.578 146.101 489.536 146.054 489.507 145.99L470.127 111.281C469.983 111.03 470.077 110.718 470.328 110.574L471.5 109.923C471.751 109.78 472.063 109.873 472.207 110.124C472.351 110.375 472.257 110.687 472.006 110.831L471.295 111.228L490.423 145.491C490.55 145.729 490.465 146.047 490.206 146.185Z" fill="#808B93"/>
<path d="M509.8 157.23C509.604 157.339 509.373 157.311 509.22 157.186C509.172 157.147 509.13 157.1 509.101 157.036L480.617 106.011L476.41 108.367C476.214 108.475 475.983 108.447 475.83 108.323C475.781 108.283 475.74 108.236 475.711 108.172C475.567 107.922 475.661 107.61 475.912 107.466L480.119 105.11L474.656 95.3343C474.512 95.0834 474.606 94.7714 474.857 94.6277L531.562 62.9657C531.583 62.9561 531.612 62.9531 531.633 62.9436C531.654 62.9341 531.675 62.9245 531.69 62.923C531.776 62.8995 531.864 62.8905 531.962 62.9173L556.774 69.9546C556.865 69.9749 556.937 70.0339 557.003 70.1009C557.019 70.114 557.029 70.1352 557.045 70.1483C557.054 70.1694 557.077 70.1745 557.095 70.2022L582.661 115.986C582.724 116.105 582.739 116.251 582.701 116.38C582.662 116.509 582.571 116.622 582.46 116.692L509.8 157.23ZM544.071 67.4253L532.873 64.2479L540.902 78.6301L555.284 70.6013L544.071 67.4253ZM556.417 71.1493L540.947 79.791C540.828 79.8548 540.69 79.8763 540.553 79.8313C540.485 79.8161 540.422 79.7783 540.365 79.7324C540.317 79.6931 540.267 79.6392 540.247 79.5823L531.605 64.112L475.808 95.2681L481.018 104.598L481.524 105.505L509.755 156.069L581.484 116.018L556.417 71.1493Z" fill="#808B93"/>
<path d="M532.645 113.813C532.597 113.774 532.555 113.726 532.527 113.663L528.452 106.356L521.146 110.43C520.95 110.539 520.719 110.511 520.566 110.386C520.518 110.347 520.476 110.3 520.447 110.236C520.303 109.985 520.397 109.673 520.648 109.53L527.955 105.455L523.88 98.1487C523.737 97.8979 523.83 97.5859 524.081 97.4422C524.332 97.2985 524.644 97.392 524.788 97.6429L528.862 104.95L536.169 100.875C536.419 100.732 536.731 100.825 536.875 101.076C537.019 101.327 536.925 101.639 536.674 101.783L529.368 105.857L533.442 113.164C533.586 113.414 533.492 113.726 533.241 113.87C533.03 113.965 532.806 113.944 532.645 113.813Z" fill="#808B93"/>
<path d="M108.026 21.1657C108.092 21.3297 108.248 21.4282 108.404 21.4282C108.453 21.4282 108.502 21.42 108.551 21.3954C108.765 21.3133 108.863 21.0755 108.781 20.8622L105.689 13.0778L108.133 12.1017C108.346 12.0197 108.445 11.7818 108.363 11.5685C108.281 11.3553 108.043 11.2568 107.83 11.3388L105 12.4626C104.786 12.5446 104.688 12.7825 104.77 12.9958L108.026 21.1657Z" fill="#808B93"/>
<path d="M118.099 38.3748L116.065 39.1787L109.372 22.3385C109.29 22.1253 109.052 22.0268 108.839 22.1089C108.625 22.1909 108.527 22.4288 108.609 22.642L115.45 39.8677C115.491 39.9662 115.573 40.0482 115.671 40.0892C115.721 40.1138 115.778 40.122 115.835 40.122C115.885 40.122 115.942 40.1138 115.983 40.0892L118.395 39.1295C118.608 39.0475 118.706 38.8096 118.624 38.5963C118.551 38.3912 118.304 38.2928 118.099 38.3748Z" fill="#808B93"/>
<path d="M122.504 36.6196L119.469 37.8253C119.256 37.9074 119.157 38.1453 119.239 38.3585C119.305 38.5226 119.461 38.621 119.617 38.621C119.666 38.621 119.715 38.6128 119.764 38.5882L122.799 37.3824C123.012 37.3004 123.111 37.0625 123.029 36.8492C122.955 36.6442 122.717 36.5375 122.504 36.6196Z" fill="#808B93"/>
<path d="M125.441 35.8974C125.507 36.0614 125.662 36.1599 125.818 36.1599C125.867 36.1599 125.917 36.1517 125.966 36.1271L138.811 31.025C138.91 30.984 138.992 30.9019 139.033 30.8035C139.074 30.7051 139.074 30.5902 139.041 30.4918L138.869 30.057C138.787 29.8438 138.549 29.7453 138.336 29.8274C138.122 29.9094 138.024 30.1473 138.106 30.3605L138.122 30.4098L125.671 35.3642C125.457 35.4544 125.359 35.6923 125.441 35.8974Z" fill="#808B93"/>
<path d="M117.738 34.5769C117.78 34.6753 117.862 34.7574 117.96 34.7984C118.009 34.823 118.067 34.8312 118.124 34.8312C118.173 34.8312 118.231 34.823 118.272 34.7984L136.933 27.3831L137.466 28.7284C137.532 28.8924 137.688 28.9908 137.843 28.9908C137.893 28.9908 137.942 28.9826 137.991 28.958C138.204 28.876 138.303 28.6381 138.221 28.4249L137.687 27.0796L141.092 25.7262C141.19 25.6852 141.272 25.6031 141.313 25.5047C141.354 25.4063 141.354 25.2914 141.321 25.193L132.996 4.22686C132.987 4.21045 132.971 4.19405 132.963 4.17764C132.955 4.16124 132.946 4.14483 132.938 4.13663C132.897 4.07921 132.848 4.02999 132.774 3.99718L124.539 0.445409C124.473 0.420801 124.399 0.412598 124.333 0.420801C124.317 0.420801 124.301 0.429003 124.284 0.429003C124.268 0.437206 124.251 0.429003 124.227 0.437206L107.288 7.16343C107.075 7.24546 106.977 7.48334 107.059 7.69661L117.738 34.5769ZM125.129 1.59379L128.336 2.98005L131.544 4.3663L126.95 6.18731L125.129 1.59379ZM124.153 1.35591L126.343 6.86813C126.384 6.96656 126.458 7.04859 126.565 7.08961C126.614 7.11421 126.671 7.12242 126.729 7.12242C126.778 7.12242 126.835 7.11421 126.876 7.08961L132.389 4.89948L140.419 25.1192L137.392 26.3168L136.629 26.6203L118.345 33.8797L107.977 7.78684L124.153 1.35591Z" fill="#808B93"/>
<path d="M121.323 18.0075C121.372 18.0075 121.421 17.9992 121.471 17.9746L123.964 16.9821L124.957 19.4757C125.022 19.6398 125.178 19.7382 125.334 19.7382C125.383 19.7382 125.433 19.73 125.482 19.7054C125.695 19.6234 125.793 19.3855 125.711 19.1722L124.719 16.6786L127.213 15.6861C127.426 15.6041 127.524 15.3662 127.442 15.1529C127.36 14.9396 127.122 14.8412 126.909 14.9232L124.415 15.9158L123.423 13.4303C123.341 13.2171 123.103 13.1186 122.89 13.2007C122.676 13.2827 122.578 13.5206 122.66 13.7338L123.653 16.2193L121.167 17.2118C120.954 17.2938 120.855 17.5317 120.937 17.745C121.003 17.909 121.159 18.0075 121.323 18.0075Z" fill="#808B93"/>
<path d="M428.318 90.8151C428.253 90.9792 428.097 91.0776 427.941 91.0776C427.892 91.0776 427.842 91.0694 427.793 91.0448C427.58 90.9628 427.482 90.7249 427.564 90.5116L430.656 82.7272L428.212 81.7511C427.998 81.6691 427.9 81.4312 427.982 81.2179C428.064 81.0047 428.302 80.9062 428.515 80.9883L431.345 82.112C431.558 82.1941 431.657 82.4319 431.575 82.6452L428.318 90.8151Z" fill="#0D99FF"/>
<path d="M418.245 108.024L420.28 108.828L426.973 91.988C427.055 91.7747 427.293 91.6763 427.506 91.7583C427.719 91.8403 427.818 92.0782 427.736 92.2915L420.895 109.517C420.854 109.616 420.772 109.698 420.673 109.739C420.624 109.763 420.567 109.771 420.509 109.771C420.46 109.771 420.403 109.763 420.362 109.739L417.95 108.779C417.737 108.697 417.638 108.459 417.72 108.246C417.794 108.041 418.04 107.942 418.245 108.024Z" fill="#0D99FF"/>
<path d="M413.841 106.269L416.876 107.475C417.089 107.557 417.187 107.795 417.105 108.008C417.04 108.172 416.884 108.27 416.728 108.27C416.679 108.27 416.629 108.262 416.58 108.238L413.545 107.032C413.332 106.95 413.234 106.712 413.316 106.499C413.389 106.294 413.627 106.187 413.841 106.269Z" fill="#0D99FF"/>
<path d="M410.904 105.547C410.838 105.711 410.683 105.809 410.527 105.809C410.478 105.809 410.428 105.801 410.379 105.776L397.534 100.674C397.435 100.633 397.353 100.551 397.312 100.453C397.271 100.354 397.271 100.24 397.304 100.141L397.476 99.7065C397.558 99.4932 397.796 99.3948 398.009 99.4768C398.223 99.5588 398.321 99.7967 398.239 100.01L398.223 100.059L410.674 105.014C410.888 105.104 410.986 105.342 410.904 105.547Z" fill="#0D99FF"/>
<path d="M418.606 104.226C418.565 104.325 418.483 104.407 418.385 104.448C418.336 104.472 418.278 104.481 418.221 104.481C418.172 104.481 418.114 104.472 418.073 104.448L399.412 97.0325L398.879 98.3778C398.813 98.5418 398.657 98.6403 398.502 98.6403C398.452 98.6403 398.403 98.6321 398.354 98.6075C398.141 98.5254 398.042 98.2875 398.124 98.0743L398.657 96.729L395.253 95.3756C395.155 95.3346 395.073 95.2525 395.032 95.1541C394.991 95.0557 394.991 94.9408 395.024 94.8424L403.349 73.8763C403.358 73.8599 403.374 73.8435 403.382 73.8271C403.39 73.8107 403.399 73.7942 403.407 73.786C403.448 73.7286 403.497 73.6794 403.571 73.6466L411.806 70.0948C411.872 70.0702 411.946 70.062 412.011 70.0702C412.028 70.0702 412.044 70.0784 412.061 70.0784C412.077 70.0866 412.094 70.0784 412.118 70.0866L429.057 76.8128C429.27 76.8949 429.368 77.1327 429.286 77.346L418.606 104.226ZM411.216 71.2432L408.009 72.6295L404.801 74.0157L409.395 75.8367L411.216 71.2432ZM412.192 71.0053L410.002 76.5175C409.961 76.616 409.887 76.698 409.78 76.739C409.731 76.7636 409.674 76.7718 409.616 76.7718C409.567 76.7718 409.51 76.7636 409.469 76.739L403.956 74.5489L395.926 94.7686L398.953 95.9662L399.716 96.2697L417.999 103.529L428.368 77.4362L412.192 71.0053Z" fill="#0D99FF"/>
<path d="M415.022 87.6569C414.973 87.6569 414.923 87.6487 414.874 87.6241L412.38 86.6315L411.388 89.1251C411.322 89.2892 411.166 89.3876 411.011 89.3876C410.961 89.3876 410.912 89.3794 410.863 89.3548C410.65 89.2728 410.551 89.0349 410.633 88.8217L411.626 86.328L409.132 85.3355C408.919 85.2535 408.82 85.0156 408.903 84.8023C408.985 84.589 409.222 84.4906 409.436 84.5726L411.929 85.5652L412.922 83.0798C413.004 82.8665 413.242 82.768 413.455 82.8501C413.668 82.9321 413.767 83.17 413.685 83.3833L412.692 85.8687L415.178 86.8612C415.391 86.9432 415.489 87.1811 415.407 87.3944C415.342 87.5584 415.186 87.6569 415.022 87.6569Z" fill="#0D99FF"/>
<path d="M450.318 199.309C450.253 199.473 450.097 199.571 449.941 199.571C449.892 199.571 449.843 199.563 449.794 199.538C449.58 199.456 449.482 199.219 449.564 199.005L452.656 191.221L450.212 190.245C449.999 190.163 449.9 189.925 449.982 189.712C450.064 189.498 450.302 189.4 450.515 189.482L453.345 190.606C453.559 190.688 453.657 190.926 453.575 191.139L450.318 199.309Z" fill="#0D99FF"/>
<path d="M440.246 216.518L442.28 217.322L448.973 200.482C449.055 200.268 449.293 200.17 449.506 200.252C449.72 200.334 449.818 200.572 449.736 200.785L442.895 218.011C442.854 218.109 442.772 218.191 442.674 218.232C442.624 218.257 442.567 218.265 442.51 218.265C442.46 218.265 442.403 218.257 442.362 218.232L439.95 217.273C439.737 217.191 439.639 216.953 439.721 216.739C439.794 216.534 440.041 216.436 440.246 216.518Z" fill="#0D99FF"/>
<path d="M435.841 214.763L438.876 215.968C439.089 216.05 439.188 216.288 439.105 216.502C439.04 216.666 438.884 216.764 438.728 216.764C438.679 216.764 438.63 216.756 438.581 216.731L435.546 215.525C435.332 215.443 435.234 215.206 435.316 214.992C435.39 214.787 435.628 214.681 435.841 214.763Z" fill="#0D99FF"/>
<path d="M432.904 214.04C432.839 214.204 432.683 214.303 432.527 214.303C432.478 214.303 432.429 214.295 432.379 214.27L419.534 209.168C419.435 209.127 419.353 209.045 419.312 208.947C419.271 208.848 419.271 208.733 419.304 208.635L419.476 208.2C419.559 207.987 419.796 207.888 420.01 207.97C420.223 208.052 420.321 208.29 420.239 208.504L420.223 208.553L432.675 213.507C432.888 213.597 432.986 213.835 432.904 214.04Z" fill="#0D99FF"/>
<path d="M440.607 212.72C440.566 212.818 440.484 212.9 440.385 212.941C440.336 212.966 440.279 212.974 440.221 212.974C440.172 212.974 440.115 212.966 440.074 212.941L421.412 205.526L420.879 206.871C420.814 207.035 420.658 207.134 420.502 207.134C420.453 207.134 420.403 207.126 420.354 207.101C420.141 207.019 420.043 206.781 420.125 206.568L420.658 205.223L417.254 203.869C417.155 203.828 417.073 203.746 417.032 203.648C416.991 203.549 416.991 203.434 417.024 203.336L425.35 182.37C425.358 182.354 425.374 182.337 425.382 182.321C425.391 182.304 425.399 182.288 425.407 182.28C425.448 182.222 425.497 182.173 425.571 182.14L433.807 178.588C433.872 178.564 433.946 178.556 434.012 178.564C434.028 178.564 434.045 178.572 434.061 178.572C434.077 178.58 434.094 178.572 434.118 178.58L451.057 185.306C451.27 185.389 451.369 185.626 451.287 185.84L440.607 212.72ZM433.216 179.737L430.009 181.123L426.802 182.509L431.395 184.33L433.216 179.737ZM434.192 179.499L432.002 185.011C431.961 185.11 431.887 185.192 431.781 185.233C431.731 185.257 431.674 185.265 431.617 185.265C431.567 185.265 431.51 185.257 431.469 185.233L425.957 183.043L417.926 203.262L420.953 204.46L421.716 204.763L440 212.023L450.368 185.93L434.192 179.499Z" fill="#0D99FF"/>
<path d="M437.022 196.151C436.973 196.151 436.924 196.142 436.874 196.118L434.381 195.125L433.388 197.619C433.323 197.783 433.167 197.881 433.011 197.881C432.962 197.881 432.912 197.873 432.863 197.848C432.65 197.766 432.551 197.529 432.634 197.315L433.626 194.822L431.132 193.829C430.919 193.747 430.821 193.509 430.903 193.296C430.985 193.083 431.223 192.984 431.436 193.066L433.93 194.059L434.922 191.573C435.004 191.36 435.242 191.262 435.455 191.344C435.669 191.426 435.767 191.664 435.685 191.877L434.692 194.362L437.178 195.355C437.391 195.437 437.49 195.675 437.407 195.888C437.342 196.052 437.186 196.151 437.022 196.151Z" fill="#0D99FF"/>
</svg>
