<svg width="242" height="638" viewBox="0 0 242 638" fill="none" xmlns="http://www.w3.org/2000/svg">
<path d="M143.05 145.72C143.537 146.375 143.716 147.13 143.557 147.845C143.398 148.55 142.921 149.136 142.216 149.504L138.174 151.619C137.925 151.748 137.836 152.046 137.965 152.285C138.094 152.533 138.392 152.623 138.63 152.493L141.263 151.123C141.203 152.185 140.607 153.149 139.634 153.655L131.777 157.758C131.529 157.887 131.439 158.185 131.569 158.423C131.698 158.671 131.996 158.761 132.234 158.632L140.091 154.53C141.541 153.765 142.375 152.215 142.236 150.596L142.673 150.368C143.636 149.861 144.292 149.037 144.52 148.054C144.749 147.05 144.51 146.008 143.845 145.114L135.85 134.377C135.75 134.248 135.601 134.178 135.452 134.178C135.353 134.178 135.244 134.208 135.154 134.277C134.936 134.446 134.886 134.754 135.055 134.973L143.05 145.72Z" fill="#0D99FF"/>
<path d="M112.012 136.016C111.883 135.777 111.982 135.469 112.221 135.35L121.964 130.255C120.911 127.553 122.044 124.415 124.676 123.044C125.51 122.607 126.424 122.379 127.348 122.379C127.924 122.379 128.51 122.468 129.086 122.647C130.556 123.104 131.767 124.117 132.483 125.487C133.277 127.007 133.317 128.715 132.761 130.205L134.012 131.894C134.181 132.112 134.131 132.43 133.913 132.589C133.694 132.748 133.386 132.708 133.218 132.49L132.264 131.209C131.738 132.063 130.983 132.788 130.039 133.284C127.318 134.705 123.98 133.741 122.421 131.139L112.697 136.224C112.439 136.353 112.141 136.264 112.012 136.016ZM122.868 129.788C122.938 129.987 123.007 130.195 123.106 130.384C123.166 130.493 123.226 130.583 123.295 130.682C124.189 132.122 125.748 132.957 127.357 132.957C128.102 132.957 128.857 132.778 129.562 132.41C130.476 131.934 131.162 131.199 131.599 130.334C131.777 129.977 131.897 129.609 131.986 129.222C132.234 128.149 132.135 126.997 131.579 125.954C130.983 124.822 129.99 123.988 128.768 123.6C127.546 123.213 126.255 123.332 125.123 123.928C122.997 125.05 122.073 127.573 122.868 129.788Z" fill="#0D99FF"/>
<path d="M105.953 139.75L110.591 137.327C110.84 137.198 110.929 136.9 110.8 136.661C110.71 136.492 110.542 136.393 110.363 136.393C110.283 136.393 110.204 136.413 110.134 136.453L105.496 138.876C105.248 139.005 105.158 139.303 105.287 139.542C105.417 139.78 105.705 139.869 105.953 139.75Z" fill="#0D99FF"/>
<path d="M125.868 164.104L117.833 168.306C117.624 168.415 117.356 168.385 117.177 168.226L115.389 166.657C115.24 166.528 115.042 166.498 114.863 166.577C113.403 167.213 111.674 166.607 110.939 165.207L105.308 154.44C105.219 154.271 105.05 154.172 104.871 154.172C104.791 154.172 104.712 154.192 104.642 154.231C104.394 154.361 104.305 154.659 104.434 154.897L110.066 165.664C110.989 167.431 113.095 168.246 114.962 167.6L116.531 168.971C117.018 169.398 117.733 169.478 118.299 169.18L126.335 164.978C126.911 164.67 127.239 164.055 127.169 163.409L126.951 161.403L129.682 159.972C129.93 159.843 130.02 159.545 129.89 159.307C129.761 159.059 129.463 158.969 129.225 159.098L126.186 160.687C126.007 160.787 125.898 160.975 125.918 161.184L126.176 163.518C126.206 163.766 126.086 163.995 125.868 164.104Z" fill="#0D99FF"/>
<path d="M103.35 152.811C103.479 153.06 103.777 153.149 104.016 153.02C104.264 152.891 104.354 152.593 104.224 152.354L102.099 148.282L112.2 161.85C113.521 163.628 116.173 164.243 118.12 163.22L135.084 154.351C135.332 154.222 135.422 153.924 135.293 153.685C135.164 153.437 134.866 153.348 134.627 153.477L117.663 162.346C116.133 163.151 114.038 162.654 113.005 161.254L101.304 145.531C100.818 144.875 100.639 144.12 100.798 143.405C100.917 142.879 101.215 142.412 101.652 142.064C101.801 141.945 101.96 141.836 102.139 141.747C102.387 141.617 102.476 141.319 102.347 141.081C102.258 140.912 102.089 140.813 101.91 140.813C101.831 140.813 101.751 140.833 101.682 140.873C100.728 141.369 100.013 142.213 99.6952 143.246C99.3774 144.279 99.4668 145.372 99.9734 146.335L103.35 152.811Z" fill="#0D99FF"/>
<path d="M126.872 126.51C126.891 126.54 126.911 126.57 126.931 126.6C127.05 126.838 127.05 127.106 126.872 127.762C126.742 128.219 126.693 128.586 126.683 128.904C126.673 129.311 126.752 129.649 126.921 129.977C127.299 130.692 127.865 130.91 128.55 130.553C129.235 130.195 129.384 129.599 129.007 128.884L128.838 128.566L128.779 128.457L128.62 128.537L128.113 128.805L128.361 129.281C128.53 129.599 128.451 129.798 128.232 129.907C128.014 130.026 127.815 129.987 127.606 129.589C127.448 129.291 127.398 129.003 127.418 128.636C127.438 128.407 127.477 128.159 127.567 127.831C127.597 127.742 127.607 127.662 127.626 127.583C127.785 126.918 127.756 126.49 127.527 126.043L127.239 125.497L125.213 126.56L125.551 127.196L126.872 126.51Z" fill="#0D99FF"/>
<path d="M244.619 256.098C244.956 254.598 244.599 253.039 243.605 251.708L231.041 234.823C230.942 234.694 230.793 234.624 230.644 234.624C230.544 234.624 230.435 234.654 230.346 234.723C230.127 234.892 230.078 235.2 230.246 235.419L242.811 252.304C243.625 253.406 243.923 254.668 243.655 255.879C243.387 257.071 242.582 258.064 241.4 258.68L235.034 262.008C234.785 262.137 234.696 262.435 234.825 262.673C234.954 262.921 235.252 263.011 235.491 262.882L240.04 260.498C240.119 262.445 239.086 264.292 237.328 265.206L224.982 271.662C224.734 271.791 224.645 272.089 224.774 272.327C224.903 272.576 225.201 272.665 225.439 272.536L237.785 266.08C240.03 264.908 241.281 262.484 240.993 259.991L241.847 259.544C243.307 258.799 244.291 257.568 244.619 256.098Z" fill="#0D99FF"/>
<path d="M194.252 236.422L209.797 228.297C208.982 226.38 208.873 224.255 209.509 222.248C210.214 220.004 211.743 218.166 213.829 217.084C215.11 216.418 216.491 216.08 217.901 216.08C218.785 216.08 219.679 216.219 220.544 216.488C222.788 217.193 224.626 218.722 225.708 220.808C226.801 222.894 227.009 225.278 226.304 227.522C226.235 227.741 226.155 227.94 226.076 228.148L228.142 230.919C228.311 231.138 228.261 231.456 228.042 231.615C227.824 231.774 227.516 231.734 227.347 231.515L225.609 229.171C224.785 230.661 223.543 231.883 221.994 232.687C219.908 233.78 217.524 233.988 215.279 233.283C213.124 232.608 211.346 231.158 210.244 229.191L194.719 237.306C194.471 237.435 194.173 237.336 194.054 237.097C193.915 236.849 194.004 236.541 194.252 236.422ZM210.671 227.83C210.76 228.049 210.859 228.277 210.979 228.496C211.018 228.575 211.068 228.645 211.118 228.724C212.101 230.453 213.66 231.734 215.567 232.33C216.342 232.568 217.127 232.687 217.911 232.687C219.153 232.687 220.385 232.389 221.517 231.793C223.027 231.009 224.199 229.767 224.924 228.257C225.083 227.92 225.232 227.572 225.351 227.205C225.351 227.195 225.351 227.185 225.361 227.175C225.976 225.188 225.788 223.093 224.824 221.255C223.861 219.408 222.232 218.047 220.236 217.421C218.249 216.796 216.133 216.984 214.286 217.958C212.439 218.921 211.078 220.55 210.452 222.546C209.896 224.294 209.985 226.152 210.671 227.83Z" fill="#0D99FF"/>
<path d="M184.121 242.828L191.421 239.014C191.669 238.885 191.759 238.587 191.63 238.348C191.54 238.18 191.371 238.08 191.193 238.08C191.113 238.08 191.034 238.1 190.964 238.14L183.664 241.954C183.416 242.083 183.326 242.381 183.455 242.619C183.584 242.868 183.882 242.957 184.121 242.828Z" fill="#0D99FF"/>
<path d="M177.297 246.513C177.545 246.315 177.814 246.136 178.112 245.977C178.36 245.848 178.449 245.55 178.32 245.311C178.231 245.143 178.062 245.043 177.883 245.043C177.804 245.043 177.724 245.063 177.655 245.103C177.476 245.202 177.297 245.301 177.128 245.411C177.019 245.49 176.91 245.57 176.801 245.649C176.751 245.689 176.701 245.719 176.661 245.758C176.433 245.947 176.224 246.146 176.036 246.364C174.327 248.202 173.861 250.973 175.082 253.317L180.416 263.507C180.545 263.756 180.843 263.845 181.081 263.716C181.33 263.587 181.419 263.289 181.29 263.051L176.274 253.466L194.301 277.681C196.298 280.363 200.31 281.296 203.25 279.757L229.929 265.812C230.177 265.683 230.266 265.385 230.137 265.146C230.008 264.898 229.71 264.809 229.472 264.938L202.794 278.883C200.271 280.204 196.824 279.399 195.106 277.085L176.711 252.363C175.897 251.261 175.599 249.999 175.867 248.788C176.056 247.884 176.562 247.109 177.297 246.513Z" fill="#0D99FF"/>
<path d="M221.636 273.976C221.507 273.727 221.209 273.638 220.971 273.767L216.203 276.26C216.024 276.36 215.915 276.548 215.935 276.757L216.342 280.432C216.402 280.928 216.143 281.405 215.706 281.634L203.082 288.239C202.645 288.467 202.099 288.407 201.732 288.08L198.911 285.616C198.772 285.487 198.563 285.458 198.384 285.537C195.951 286.6 193.081 285.587 191.859 283.253L183.009 266.318C182.92 266.149 182.751 266.05 182.572 266.05C182.493 266.05 182.413 266.07 182.344 266.109C182.095 266.238 182.006 266.536 182.135 266.775L190.985 283.709C192.395 286.411 195.643 287.633 198.494 286.57L201.086 288.835C201.761 289.43 202.755 289.54 203.549 289.123L216.173 282.518C216.978 282.09 217.445 281.236 217.335 280.323L216.968 276.985L221.437 274.651C221.666 274.522 221.765 274.224 221.636 273.976Z" fill="#0D99FF"/>
<path d="M217.145 222.268C217.185 222.318 217.205 222.368 217.235 222.417C217.423 222.785 217.423 223.212 217.135 224.255C217.106 224.364 217.086 224.463 217.056 224.573C216.947 225.01 216.877 225.397 216.847 225.745C216.778 226.529 216.907 227.135 217.225 227.741C217.811 228.863 218.705 229.211 219.787 228.645C220.87 228.079 221.098 227.145 220.512 226.023L220.155 225.337L219.112 225.884L219.509 226.638C219.767 227.135 219.648 227.443 219.301 227.632C218.953 227.81 218.645 227.761 218.307 227.125C218.019 226.579 217.92 226.072 218.029 225.337C218.069 225.049 218.138 224.741 218.238 224.374C218.248 224.334 218.248 224.314 218.258 224.275C218.595 223.053 218.566 222.318 218.168 221.563L217.721 220.699L214.543 222.368L215.069 223.371L217.145 222.268Z" fill="#0D99FF"/>
<path d="M182.164 378.186L190.03 374.074C189.663 373.081 189.613 372.018 189.941 370.995C190.328 369.774 191.163 368.77 192.295 368.184C192.99 367.817 193.745 367.638 194.51 367.638C194.997 367.638 195.473 367.708 195.95 367.857C197.172 368.244 198.175 369.078 198.761 370.211C199.407 371.452 199.446 372.843 198.999 374.064L200.002 375.405C200.171 375.624 200.122 375.942 199.903 376.101C199.685 376.269 199.377 376.22 199.208 376.001L198.503 375.058C198.066 375.723 197.49 376.289 196.735 376.687C195.602 377.283 194.301 377.392 193.08 377.014C191.977 376.667 191.073 375.942 190.467 374.978L182.621 379.08C182.382 379.209 182.075 379.11 181.955 378.872C181.826 378.613 181.926 378.315 182.164 378.186ZM190.914 373.608C190.984 373.806 191.053 373.995 191.143 374.184C191.202 374.293 191.282 374.392 191.351 374.501C191.828 375.236 192.533 375.783 193.378 376.051C193.755 376.17 194.132 376.23 194.52 376.23C195.126 376.23 195.722 376.081 196.278 375.793C196.983 375.425 197.529 374.859 197.877 374.203C198.056 373.866 198.175 373.488 198.244 373.111C198.393 372.306 198.304 371.442 197.897 370.668C197.43 369.764 196.635 369.108 195.662 368.8C194.699 368.492 193.666 368.592 192.762 369.059C191.858 369.525 191.202 370.32 190.894 371.293C190.646 372.058 190.666 372.863 190.914 373.608Z" fill="#0D99FF"/>
<path d="M180.694 379.02C180.615 379.02 180.535 379.04 180.465 379.08L176.691 381.056C176.443 381.185 176.354 381.483 176.483 381.722C176.612 381.97 176.91 382.06 177.148 381.93L180.922 379.954C181.171 379.825 181.26 379.527 181.131 379.288C181.052 379.11 180.873 379.02 180.694 379.02Z" fill="#0D99FF"/>
<path d="M173.661 383.798C173.771 383.709 173.9 383.619 174.039 383.55C174.287 383.42 174.377 383.123 174.248 382.884C174.158 382.715 173.989 382.616 173.81 382.616C173.731 382.616 173.652 382.636 173.582 382.676C172.778 383.093 172.191 383.798 171.923 384.662C171.655 385.526 171.735 386.44 172.152 387.244L174.913 392.519C175.042 392.767 175.34 392.856 175.578 392.727C175.827 392.598 175.916 392.3 175.787 392.062L174.595 389.777L182.114 399.878C183.216 401.358 185.431 401.875 187.05 401.021L200.856 393.8C201.105 393.671 201.194 393.373 201.065 393.134C200.936 392.886 200.638 392.797 200.399 392.926L186.593 400.147C185.392 400.772 183.743 400.395 182.918 399.292L173.393 386.5C173.016 385.983 172.877 385.397 172.996 384.841C173.085 384.434 173.314 384.076 173.661 383.798Z" fill="#0D99FF"/>
<path d="M204.463 393.085L198.076 396.422C197.828 396.551 197.738 396.849 197.867 397.088C197.997 397.326 198.295 397.425 198.533 397.296L204.92 393.959C206.121 393.333 206.807 392.062 206.717 390.731L207.015 390.572C207.83 390.145 208.376 389.459 208.565 388.625C208.753 387.781 208.555 386.907 207.999 386.162L201.493 377.421C201.393 377.292 201.244 377.223 201.095 377.223C200.996 377.223 200.887 377.253 200.798 377.322C200.579 377.481 200.529 377.799 200.698 378.017L207.204 386.758C207.581 387.274 207.72 387.86 207.601 388.417C207.472 388.963 207.105 389.42 206.558 389.708L203.271 391.426C203.022 391.555 202.933 391.853 203.062 392.092C203.191 392.33 203.489 392.429 203.728 392.3L205.714 391.257C205.635 392.032 205.178 392.717 204.463 393.085Z" fill="#0D99FF"/>
<path d="M196.665 397.723C196.536 397.475 196.238 397.385 196 397.514L193.527 398.806C193.348 398.905 193.238 399.094 193.258 399.302L193.467 401.209C193.487 401.368 193.407 401.517 193.258 401.597L186.723 405.013C186.574 405.093 186.415 405.063 186.296 404.964L184.836 403.692C184.697 403.563 184.488 403.533 184.309 403.613C183.157 404.109 181.816 403.643 181.24 402.54L176.661 393.78C176.572 393.611 176.403 393.512 176.224 393.512C176.145 393.512 176.065 393.531 175.996 393.571C175.748 393.7 175.658 393.998 175.787 394.237L180.366 403.007C181.131 404.467 182.859 405.152 184.409 404.646L185.64 405.728C186.067 406.106 186.673 406.175 187.18 405.907L193.715 402.49C194.222 402.222 194.51 401.686 194.45 401.12L194.281 399.551L196.447 398.418C196.695 398.269 196.794 397.971 196.665 397.723Z" fill="#0D99FF"/>
<path d="M194.133 371.075C194.153 371.095 194.163 371.124 194.183 371.154C194.273 371.333 194.273 371.551 194.153 372.018C194.143 372.048 194.143 372.068 194.133 372.108C194.014 372.525 193.965 372.863 193.975 373.151C193.985 373.439 194.054 373.677 194.183 373.915C194.491 374.491 194.948 374.68 195.514 374.382C196.07 374.094 196.189 373.607 195.892 373.021L195.812 372.863L195.713 372.674L195.425 372.823L195.176 372.952L195.375 373.339C195.514 373.598 195.445 373.756 195.266 373.856C195.087 373.955 194.928 373.925 194.749 373.597C194.64 373.379 194.59 373.17 194.59 372.922C194.59 372.714 194.63 372.485 194.72 372.177C194.749 372.078 194.769 371.988 194.789 371.899C194.898 371.402 194.869 371.065 194.69 370.727L194.461 370.28L192.812 371.144L193.081 371.661L194.133 371.075Z" fill="#0D99FF"/>
<path d="M36.1382 557.257C36.019 557.257 35.8999 557.297 35.8105 557.386L25.7787 566.246C25.1629 566.782 24.4279 567.03 23.7029 566.921C22.9878 566.822 22.362 566.395 21.9349 565.719L19.4916 561.865C19.3426 561.637 19.0347 561.567 18.8063 561.716C18.5779 561.865 18.5083 562.173 18.6573 562.402L20.2464 564.905C19.1837 564.934 18.1705 564.418 17.5845 563.494L12.837 556.015C12.7476 555.866 12.5787 555.787 12.4198 555.787C12.3304 555.787 12.241 555.807 12.1516 555.866C11.9231 556.015 11.8536 556.323 12.0025 556.552L16.7502 564.031C17.6243 565.411 19.2532 566.107 20.8424 565.838L21.1106 566.255C21.6966 567.179 22.5706 567.765 23.5738 567.904C24.5968 568.053 25.6099 567.725 26.4442 566.99L36.4759 558.131C36.6845 557.952 36.7044 557.634 36.5156 557.426C36.4064 557.316 36.2673 557.257 36.1382 557.257Z" fill="#0D99FF"/>
<path d="M32.1061 533.359C32.3345 533.21 32.4041 532.902 32.2551 532.674L29.4443 528.254C29.3549 528.105 29.186 528.026 29.0271 528.026C28.9377 528.026 28.8483 528.045 28.7589 528.105C28.5305 528.254 28.461 528.562 28.61 528.79L31.4208 533.21C31.5698 533.429 31.8776 533.498 32.1061 533.359Z" fill="#0D99FF"/>
<path d="M6.24262 542.864L16.5027 559.024C16.6517 559.253 16.9596 559.322 17.1881 559.173C17.4165 559.024 17.486 558.716 17.337 558.488L7.0769 542.328C6.15319 540.868 6.46105 538.742 7.77212 537.59L22.4621 524.609C23.0779 524.062 23.8129 523.824 24.5379 523.933C25.0743 524.013 25.561 524.271 25.9484 524.668C26.0775 524.807 26.1967 524.956 26.3059 525.125C26.4251 525.314 26.6536 525.393 26.8622 525.334C26.9118 525.324 26.9516 525.314 26.9913 525.284C27.1701 525.175 27.2495 524.976 27.2197 524.787C27.2098 524.728 27.1899 524.658 27.1501 524.599C26.5741 523.685 25.6703 523.049 24.6175 522.821C24.3195 522.751 24.0215 522.722 23.7235 522.722C22.9687 522.722 22.2237 522.94 21.5582 523.357L15.3803 527.28C15.1519 527.429 15.0823 527.737 15.2313 527.966C15.3803 528.194 15.6883 528.264 15.9167 528.115L19.8003 525.652L7.12661 536.855C5.45797 538.315 5.0706 541.007 6.24262 542.864Z" fill="#0D99FF"/>
<path d="M0.313066 543.55L5.16988 551.198C5.51751 551.744 6.17307 552.022 6.80874 551.903L8.78527 551.516L10.444 554.118C10.593 554.346 10.9008 554.416 11.1293 554.267C11.3577 554.118 11.4273 553.81 11.2783 553.582L9.44084 550.691C9.33158 550.522 9.12298 550.433 8.92433 550.473L6.61014 550.93C6.37177 550.979 6.1334 550.87 6.00428 550.671L1.14735 543.024C1.01823 542.825 1.02818 542.557 1.16723 542.358L2.57755 540.441C2.69674 540.282 2.70671 540.084 2.61732 539.915C1.86246 538.514 2.3194 536.746 3.66026 535.892L13.9203 529.377C14.1488 529.228 14.2183 528.92 14.0693 528.691C13.98 528.542 13.8111 528.463 13.6521 528.463C13.5628 528.463 13.4733 528.483 13.3839 528.542L3.12388 535.058C1.43538 536.131 0.809611 538.296 1.6042 540.103L0.372597 541.782C-0.0147644 542.289 -0.034566 542.994 0.313066 543.55Z" fill="#0D99FF"/>
<path d="M46.8259 546.033C48.5343 548.724 47.7396 552.3 45.048 554.008C43.5978 554.922 41.8994 555.111 40.3699 554.674L38.7907 556.064C38.592 556.243 38.2741 556.223 38.0854 556.025C37.9066 555.816 37.9265 555.508 38.1251 555.32L39.317 554.267C38.4231 553.81 37.6286 553.124 37.0624 552.221C35.4137 549.628 36.1088 546.222 38.5621 544.444L32.6822 535.187C32.5333 534.958 32.6028 534.65 32.8312 534.501C32.9107 534.452 33.0099 534.422 33.0993 534.422C33.2682 534.422 33.4271 534.501 33.5165 534.65L39.4065 543.937C40.211 543.54 41.075 543.341 41.9292 543.341C43.8561 543.351 45.7333 544.305 46.8259 546.033ZM45.9916 546.569C44.6905 544.523 42.108 543.818 39.9626 544.801C39.764 544.891 39.5654 544.97 39.3866 545.089C39.2872 545.149 39.2078 545.238 39.1084 545.308C37.122 546.788 36.5559 549.569 37.9067 551.694C38.4629 552.568 39.2475 553.194 40.1414 553.552C40.499 553.701 40.8764 553.8 41.2638 553.859C41.4922 553.889 41.7206 553.919 41.959 553.919C42.8331 553.919 43.7269 553.681 44.5215 553.174C46.7464 551.754 47.402 548.794 45.9916 546.569Z" fill="#0D99FF"/>
<path d="M42.7638 547.255L43.5682 548.516C43.5384 548.546 43.5087 548.556 43.4789 548.576C43.2504 548.715 42.9822 548.734 42.3068 548.615C41.84 548.526 41.4726 548.506 41.1547 548.526C40.7475 548.556 40.4197 548.655 40.1019 548.854C39.4265 549.281 39.2477 549.867 39.6649 550.522C40.082 551.178 40.6879 551.267 41.3633 550.84L41.6711 550.651L41.7805 550.582L41.691 550.433L41.3832 549.946L40.9262 550.234C40.6282 550.423 40.4198 550.363 40.2906 550.155C40.1516 549.946 40.1713 549.748 40.5587 549.499C40.8368 549.32 41.1249 549.241 41.4924 549.231C41.7209 549.231 41.9691 549.251 42.3068 549.311C42.3962 549.33 42.4757 549.33 42.5551 549.35C43.2305 549.45 43.6576 549.39 44.0847 549.122L44.6112 548.794L43.3895 546.867L42.7638 547.255Z" fill="#0D99FF"/>
<path d="M226.621 495.189L269.767 558.687C272.945 563.365 272.151 570.357 267.989 574.27L228.458 611.477C226.402 613.414 223.859 614.318 221.287 614.04C218.744 613.761 216.5 612.351 214.95 610.067L213.858 608.467C209.616 609.58 205.147 607.911 202.684 604.286L179.253 569.801L173.234 571.181C171.834 571.499 170.364 570.923 169.559 569.741L155.455 548.983C154.641 547.781 154.641 546.231 155.465 545.04L159.031 539.865C156.538 535.236 157.928 529.396 162.279 526.436L212.268 492.468C214.006 491.286 216.003 490.68 218.059 490.68C218.705 490.68 219.36 490.739 220.016 490.868C222.389 491.325 224.485 492.557 226.015 494.394C226.223 494.633 226.422 494.911 226.621 495.189ZM213.262 607.584L171.804 546.569C168.626 541.891 169.42 534.899 173.582 530.985L213.113 493.789C213.967 492.984 214.9 492.368 215.884 491.931C214.811 492.189 213.768 492.636 212.825 493.282L162.835 527.251C158.822 529.972 157.601 535.415 160.044 539.636C160.143 539.805 160.133 540.014 160.024 540.163L156.28 545.596C155.694 546.45 155.684 547.562 156.27 548.417L170.374 569.175C170.95 570.019 172.003 570.437 173.006 570.208L179.362 568.748C179.561 568.698 179.77 568.788 179.889 568.957L203.518 603.72C205.673 606.898 209.537 608.408 213.262 607.584ZM268.952 559.243L225.806 495.755C225.637 495.497 225.449 495.259 225.26 495.02C223.919 493.411 222.141 492.428 220.184 492.209C217.91 491.961 215.635 492.775 213.798 494.504L174.267 531.7C170.453 535.296 169.718 541.712 172.628 546.003L215.774 609.5C217.155 611.537 219.161 612.798 221.406 613.036C221.674 613.066 221.942 613.076 222.211 613.076C224.217 613.076 226.164 612.262 227.783 610.742L267.313 573.535C271.137 569.95 271.862 563.534 268.952 559.243Z" fill="#0D99FF"/>
<path d="M15.6079 283.054C12.8268 280.392 12.4097 276.171 14.4061 273.042C14.5154 272.874 14.6246 272.715 14.7438 272.556C14.7736 272.516 14.8035 272.466 14.8333 272.427C14.9922 272.218 15.1709 272.009 15.3596 271.811L55.6254 229.847C57.3536 228.049 59.8566 227.115 62.3595 227.115C64.2169 227.115 66.0742 227.632 67.6137 228.695L101.404 252.135C103.191 253.376 104.284 255.154 104.483 257.141C104.681 259.097 103.976 261.024 102.506 262.564L101.543 263.567C103.003 266.557 102.466 270.142 100.152 272.556L78.3407 295.291L80.2774 299.462C80.7641 300.505 80.5656 301.717 79.771 302.542L66.6106 316.268C65.826 317.082 64.6042 317.341 63.5514 316.904L59.2209 315.106C56.1418 317.668 51.5531 317.549 48.6528 314.758L15.6079 283.054ZM14.3862 277.135C14.5551 278.823 15.4987 280.353 17.0382 281.415L50.8281 304.856C52.1988 305.809 53.8574 306.266 55.5261 306.266C57.7608 306.266 59.9956 305.432 61.5351 303.823L101.791 261.859C103.052 260.538 103.658 258.889 103.499 257.22C103.33 255.532 102.387 254.002 100.847 252.939L67.0575 229.499C63.8394 227.264 59.0421 227.721 56.3504 230.522L16.0946 272.486C16.0846 272.496 16.0748 272.506 16.0649 272.516C15.9159 272.675 15.7768 272.834 15.6377 273.003C15.5185 273.152 15.4193 273.301 15.31 273.46C15.2901 273.479 15.2802 273.509 15.2603 273.529C14.565 274.651 14.2571 275.883 14.3862 277.135ZM15.5185 281.445C15.747 281.753 16.0053 282.061 16.2933 282.339L49.3382 314.033C51.9504 316.536 56.1021 316.586 58.7937 314.152C58.9328 314.023 59.1414 313.994 59.3202 314.063L63.9387 315.98C64.6141 316.258 65.3988 316.099 65.8954 315.573L79.0557 301.846C79.5623 301.31 79.6915 300.535 79.3836 299.87L77.2977 295.39C77.2083 295.202 77.2481 294.983 77.3872 294.834L99.427 271.86C101.364 269.834 101.87 266.874 100.788 264.332L62.2403 304.518C59.2308 307.657 53.8574 308.173 50.2519 305.67L16.4621 282.23C16.1244 281.991 15.8165 281.723 15.5185 281.445Z" fill="#0D99FF"/>
<path d="M33.546 68.0982C32.0363 66.6481 31.6886 64.4531 32.4932 62.6454C32.5826 62.4368 32.6919 62.2282 32.8111 62.0296C32.9203 61.8508 33.0693 61.6919 33.2084 61.523C33.2779 61.4436 33.3275 61.3542 33.397 61.2747L56.7579 36.9206C57.8008 35.838 59.3105 35.2718 60.8202 35.2718C61.9426 35.2718 63.0551 35.5798 63.9887 36.2254L83.5952 49.8327C84.6778 50.5876 85.3433 51.6702 85.4724 52.8819C85.5916 54.0838 85.1644 55.2557 84.2705 56.1894L83.8037 56.676C84.6082 58.4639 84.2705 60.5696 82.8998 61.9899L70.3453 75.0807L71.4082 77.3751C71.726 78.0505 71.587 78.855 71.0705 79.3913L63.4325 87.3571C62.916 87.9034 62.1313 88.0722 61.4261 87.7742L59.0325 86.781C57.1652 88.251 54.4536 88.1517 52.7254 86.493L33.546 68.0982ZM83.0588 57.4607L60.9096 80.5534C59.1019 82.4406 55.8541 82.7584 53.6889 81.2487L35.6418 68.724L53.4207 85.7779C54.8509 87.1485 57.1354 87.1783 58.6252 85.8375C58.7643 85.7083 58.9729 85.6785 59.1517 85.748L61.8334 86.8605C62.1512 86.9896 62.5088 86.9201 62.7372 86.6717L70.3752 78.706C70.6036 78.4577 70.6632 78.1001 70.5242 77.7922L69.3125 75.19C69.2231 75.0012 69.2628 74.7827 69.4018 74.6337L82.1947 61.3046C83.178 60.2716 83.4958 58.7917 83.0588 57.4607ZM33.1885 64.4928C33.2779 65.4165 33.7943 66.2409 34.6386 66.8269L54.245 80.4343C55.0098 80.9607 55.9335 81.2189 56.8572 81.2189C58.0988 81.2189 59.3403 80.7521 60.1945 79.8681L83.5554 55.514C84.2507 54.7889 84.5785 53.895 84.4891 52.9912C84.3997 52.0675 83.8832 51.243 83.0389 50.657L63.4325 37.0498C61.6446 35.8082 58.9828 36.0664 57.4929 37.6159L34.132 61.97C33.9532 62.1488 33.8043 62.3475 33.6752 62.556C33.5758 62.705 33.5063 62.8639 33.4368 63.0228C33.2183 63.4896 33.1388 63.9862 33.1885 64.4928Z" fill="#0D99FF"/>
<path d="M213.063 107.371L229.332 89.0953C229.511 88.8867 229.501 88.5789 229.293 88.3901C229.203 88.3107 229.084 88.261 228.965 88.261C228.826 88.261 228.697 88.3206 228.597 88.4299L212.656 106.338L206.696 101.034C206.488 100.855 206.18 100.865 205.991 101.074C205.803 101.282 205.822 101.59 206.031 101.779L212.368 107.411C212.567 107.599 212.884 107.579 213.063 107.371Z" fill="#0D99FF"/>
<path d="M265.516 46.9521L231.548 85.1121C231.369 85.3207 231.379 85.6286 231.588 85.8174C231.796 85.9961 232.104 85.9862 232.293 85.7776L266.599 47.2401C266.689 47.1408 266.728 47.0117 266.728 46.8825C266.718 46.7534 266.659 46.6243 266.559 46.5449L261.156 41.7376C261.067 41.6581 260.948 41.6085 260.828 41.6085C260.689 41.6085 260.56 41.668 260.461 41.7773C260.282 41.9859 260.292 42.2938 260.501 42.4825L265.516 46.9521Z" fill="#0D99FF"/>
<path d="M214.642 2.74338L215.169 2.14747L243.535 27.3955C243.744 27.5743 244.052 27.5644 244.241 27.3558C244.419 27.1472 244.409 26.8393 244.201 26.6506L215.467 1.07476C215.377 0.995298 215.258 0.945631 215.139 0.945631C215 0.945631 214.871 1.00521 214.771 1.11446L213.907 2.07793C213.728 2.28651 213.738 2.59444 213.947 2.78315C214.156 2.96194 214.463 2.95196 214.642 2.74338Z" fill="#0D99FF"/>
<path d="M158.286 74.2665L156.836 49.3462C156.826 49.2568 156.856 49.1774 156.895 49.0979C156.905 49.0781 156.915 49.0582 156.925 49.0383C156.935 49.0185 156.945 48.9986 156.955 48.9787L198.74 2.03851C198.84 1.92925 198.979 1.86961 199.108 1.86961C199.227 1.86961 199.346 1.90935 199.436 1.99874L207.54 9.20963L210.649 5.72337C210.749 5.61411 210.888 5.55453 211.017 5.55453C211.136 5.55453 211.255 5.59427 211.345 5.68366C211.553 5.86244 211.563 6.18024 211.384 6.38882L208.275 9.87508L250.518 47.4691C250.617 47.5584 250.677 47.6776 250.687 47.8067C250.697 47.9358 250.647 48.065 250.558 48.1643L197.032 108.295C196.943 108.394 196.824 108.454 196.694 108.464C196.565 108.474 196.436 108.424 196.337 108.334L158.435 74.6042C158.415 74.5943 158.415 74.5744 158.395 74.5545C158.385 74.5347 158.366 74.5247 158.356 74.5049C158.326 74.4354 158.296 74.3559 158.286 74.2665ZM158.038 49.2768L170.85 60.6791C171.059 60.8579 171.069 61.1757 170.89 61.3843L159.488 74.197L196.645 107.272L249.505 47.8862L207.64 10.62L206.895 9.9645L199.168 3.08139L158.038 49.2768ZM157.899 50.4885L158.584 62.3477L159.2 73.015L169.807 61.0962L157.899 50.4885Z" fill="#0D99FF"/>
<path d="M197.202 55.2157L191.819 61.2645C191.64 61.4731 191.65 61.781 191.859 61.9697C192.067 62.1485 192.375 62.1386 192.564 61.93L197.947 55.8812L203.996 61.2645C204.205 61.4433 204.513 61.4334 204.701 61.2248C204.88 61.0162 204.87 60.7083 204.662 60.5196L198.613 55.1362L203.996 49.0875C204.175 48.8789 204.165 48.571 203.956 48.3823C203.867 48.3028 203.748 48.2531 203.629 48.2531C203.49 48.2531 203.361 48.3127 203.261 48.422L197.878 54.4708L191.829 49.0875C191.74 49.008 191.621 48.9583 191.501 48.9583C191.362 48.9583 191.233 49.0179 191.134 49.1272C190.955 49.3358 190.965 49.6437 191.173 49.8324L197.202 55.2157Z" fill="#0D99FF"/>
<path d="M156.668 456.423L149.338 459.333C149.08 459.433 148.96 459.721 149.06 459.979C149.159 460.237 149.447 460.356 149.705 460.257L157.492 457.158C157.751 457.059 157.87 456.771 157.77 456.513L148.831 434.016C148.752 433.817 148.563 433.698 148.375 433.698C148.315 433.698 148.255 433.708 148.196 433.738C147.937 433.837 147.818 434.125 147.918 434.383L156.668 456.423Z" fill="#0D99FF"/>
<path d="M127.924 382.219C127.864 382.219 127.804 382.229 127.745 382.259L121.1 384.901C120.842 385 120.723 385.288 120.822 385.546C120.921 385.804 121.209 385.924 121.468 385.824L127.655 383.371L146.308 430.331C146.408 430.589 146.696 430.709 146.954 430.609C147.212 430.51 147.331 430.222 147.232 429.964L128.4 382.547C128.301 382.338 128.122 382.219 127.924 382.219Z" fill="#0D99FF"/>
<path d="M109.321 390.641L117.684 387.314C117.942 387.215 118.061 386.926 117.962 386.668C117.883 386.47 117.694 386.35 117.505 386.35C117.446 386.35 117.386 386.36 117.326 386.39L108.963 389.717C108.705 389.817 108.586 390.105 108.685 390.363C108.775 390.611 109.063 390.741 109.321 390.641Z" fill="#0D99FF"/>
<path d="M100.888 393.452C100.808 393.254 100.62 393.135 100.431 393.135C100.371 393.135 100.312 393.145 100.252 393.174L64.893 407.219C64.6347 407.318 64.5156 407.606 64.6149 407.864L65.0917 409.056C65.191 409.314 65.4791 409.434 65.7373 409.334C65.9955 409.235 66.1146 408.947 66.0153 408.689L65.7274 407.964L100.63 394.098C100.868 393.999 100.987 393.711 100.888 393.452Z" fill="#0D99FF"/>
<path d="M151.494 471.084C151.543 471.203 151.543 471.342 151.484 471.461C151.434 471.58 151.335 471.679 151.216 471.729L104.573 490.253C104.553 490.263 104.533 490.263 104.504 490.263C104.484 490.273 104.464 490.273 104.444 490.273C104.355 490.283 104.275 490.283 104.186 490.243L81.5202 480.47C81.4407 480.43 81.3712 480.37 81.3216 480.301C81.3117 480.281 81.3017 480.271 81.2918 480.251C81.2818 480.231 81.262 480.221 81.2521 480.191L58.3083 422.425C58.209 422.167 58.3282 421.879 58.5864 421.779L68.5486 417.826L66.8502 413.535C66.7509 413.277 66.87 412.989 67.1282 412.89C67.1878 412.87 67.2475 412.85 67.3071 412.85C67.5057 412.85 67.6944 412.969 67.7639 413.168L69.4624 417.459L121.438 396.809C121.498 396.79 121.557 396.77 121.617 396.77C121.816 396.77 122.005 396.889 122.074 397.088L151.494 471.084ZM103.491 488.862L97.6702 474.212L83.02 480.033L93.2503 484.443L103.491 488.862ZM150.381 470.994L121.359 397.922L69.8497 418.382L68.926 418.75L59.4207 422.524L81.997 479.367L97.7597 473.11C97.8193 473.09 97.8788 473.07 97.9384 473.07C98.0079 473.07 98.0676 473.08 98.1371 473.11C98.2563 473.159 98.3555 473.259 98.4052 473.378L104.663 489.141L150.381 470.994Z" fill="#0D99FF"/>
<path d="M112.808 443.124C112.748 443.124 112.688 443.134 112.629 443.164L105.19 446.123L102.23 438.684C102.15 438.486 101.961 438.366 101.773 438.366C101.713 438.366 101.654 438.376 101.594 438.406C101.336 438.505 101.217 438.793 101.316 439.052L104.276 446.491L96.8364 449.451C96.5782 449.55 96.459 449.838 96.5583 450.096C96.6576 450.355 96.9457 450.474 97.2039 450.375L104.643 447.415L107.603 454.854C107.702 455.112 107.99 455.231 108.249 455.132C108.507 455.033 108.626 454.745 108.527 454.487L105.567 447.047L113.006 444.087C113.265 443.988 113.384 443.7 113.284 443.442C113.195 443.243 113.006 443.124 112.808 443.124Z" fill="#0D99FF"/>
<path d="M115.201 612.5C115.121 612.302 114.932 612.182 114.744 612.182C114.684 612.182 114.624 612.192 114.565 612.222C114.307 612.321 114.187 612.61 114.287 612.868L118.031 622.294L115.071 623.476C114.813 623.575 114.694 623.863 114.793 624.121C114.893 624.379 115.181 624.499 115.439 624.399L118.866 623.038C119.124 622.939 119.243 622.651 119.144 622.393L115.201 612.5Z" fill="#0D99FF"/>
<path d="M103.002 591.662L105.466 590.689L113.57 611.08C113.67 611.338 113.958 611.457 114.216 611.358C114.474 611.258 114.594 610.97 114.494 610.712L106.211 589.854C106.161 589.735 106.062 589.636 105.943 589.586C105.883 589.556 105.813 589.546 105.744 589.546C105.684 589.546 105.615 589.556 105.565 589.586L102.645 590.748C102.387 590.847 102.268 591.135 102.367 591.394C102.456 591.642 102.744 591.761 103.002 591.662Z" fill="#0D99FF"/>
<path d="M97.6607 593.788L101.336 592.328C101.594 592.228 101.713 591.94 101.614 591.682C101.534 591.483 101.346 591.364 101.157 591.364C101.097 591.364 101.038 591.374 100.978 591.404L97.3031 592.864C97.0449 592.963 96.9258 593.251 97.0251 593.51C97.1145 593.758 97.4024 593.887 97.6607 593.788Z" fill="#0D99FF"/>
<path d="M94.1136 594.662C94.0342 594.463 93.8455 594.344 93.6568 594.344C93.5972 594.344 93.5375 594.354 93.4779 594.383L77.9239 600.561C77.8047 600.611 77.7054 600.71 77.6558 600.83C77.6061 600.949 77.6061 601.088 77.6458 601.207L77.8544 601.733C77.9537 601.992 78.2418 602.111 78.5 602.012C78.7583 601.912 78.8775 601.624 78.7781 601.366L78.7583 601.306L93.8454 595.307C94.0838 595.198 94.213 594.91 94.1136 594.662Z" fill="#0D99FF"/>
<path d="M116.362 628.799C116.461 629.057 116.342 629.346 116.084 629.445L95.5733 637.589C95.5534 637.599 95.5336 637.599 95.5038 637.599C95.484 637.599 95.4641 637.609 95.4442 637.609C95.3548 637.619 95.2753 637.619 95.1859 637.579L85.2139 633.279C85.1345 633.239 85.0649 633.179 85.0152 633.11C85.0053 633.09 84.9954 633.08 84.9855 633.06C84.9756 633.04 84.9557 633.03 84.9457 633.001L74.8544 607.594C74.8048 607.474 74.8048 607.335 74.8644 607.216C74.914 607.097 75.0134 606.998 75.1326 606.948L79.2545 605.309L78.6089 603.68C78.5096 603.422 78.6288 603.134 78.887 603.035C78.9466 603.015 79.0062 602.995 79.0658 602.995C79.2644 602.995 79.4532 603.114 79.5227 603.313L80.1682 604.942L102.764 595.963C102.824 595.943 102.884 595.923 102.943 595.923C103.013 595.923 103.072 595.933 103.142 595.963C103.261 596.013 103.36 596.112 103.41 596.231L116.362 628.799ZM94.4907 636.199L92.2858 630.637L86.7237 632.842L90.6071 634.52L94.4907 636.199ZM115.259 628.7L102.705 597.085L80.5655 605.875L79.6419 606.243L75.9768 607.693L85.7006 632.176L92.3751 629.524C92.4347 629.504 92.4944 629.485 92.554 629.485C92.6235 629.485 92.683 629.494 92.7526 629.524C92.8717 629.574 92.9711 629.673 93.0208 629.792L95.6726 636.467L115.259 628.7Z" fill="#0D99FF"/>
<path d="M99.0908 616.324C99.0313 616.324 98.9716 616.334 98.912 616.364L95.8927 617.566L94.6908 614.547C94.6113 614.348 94.4226 614.229 94.2339 614.229C94.1743 614.229 94.1147 614.239 94.0551 614.268C93.7968 614.368 93.6777 614.656 93.7771 614.914L94.9788 617.934L91.9594 619.135C91.7011 619.235 91.582 619.523 91.6814 619.781C91.7807 620.039 92.0686 620.158 92.3269 620.059L95.3463 618.857L96.5481 621.867C96.6474 622.125 96.9355 622.244 97.1937 622.145C97.452 622.046 97.5712 621.757 97.4719 621.499L96.2701 618.49L99.2795 617.288C99.5377 617.189 99.657 616.901 99.5576 616.642C99.4782 616.444 99.2895 616.324 99.0908 616.324Z" fill="#0D99FF"/>
</svg>
