<svg width="115" height="96" viewBox="0 0 115 96" fill="none" xmlns="http://www.w3.org/2000/svg">
<path d="M3.05563 69.4217L3.03906 69.4051V9.32163C3.03906 5.6772 5.98769 2.72852 9.63206 2.72852H105.148C108.792 2.72852 111.741 5.6772 111.741 9.32163V42.0387" stroke="#1A2E3D" stroke-width="5" stroke-miterlimit="10"/>
<path d="M3.0696 69.4035H3.05469V23.3842C5.3904 21.5454 8.33903 20.4355 11.5527 20.4355C17.6322 20.4355 22.7674 24.3782 24.5896 29.8448C26.7928 28.5527 29.3439 27.8238 32.0771 27.8238C39.6475 27.8238 45.8926 33.5058 46.7871 40.8444C53.2311 41.5402 58.3 46.8577 58.5817 53.4343" stroke="#1A2E3D" stroke-width="5" stroke-miterlimit="10"/>
<path d="M24.2997 69.2349C17.8376 76.2836 12.6344 84.7437 9.63112 92.7117L9.64769 92.7283C6.00332 92.7283 3.05469 89.7796 3.05469 86.1352V69.4205C3.05469 69.4205 3.06463 69.4089 3.0696 69.4039C15.4969 55.0978 32.4184 61.2255 32.8474 61.3828" stroke="#1A2E3D" stroke-width="5" stroke-miterlimit="10"/>
<path d="M9.62891 92.7125H41.7193L41.7391 92.6992" stroke="#1A2E3D" stroke-width="5" stroke-miterlimit="10"/>
<path d="M68.602 57.5999L68.6086 57.5767C65.3403 55.3619 61.9759 54.0267 58.5866 53.4353C49.7838 51.8914 40.8054 55.3486 32.8524 61.3835C29.8342 63.6745 26.9618 66.3349 24.3047 69.2356" stroke="#1A2E3D" stroke-width="5" stroke-miterlimit="10"/>
<path d="M111.743 86.1198V42.0387C67.8618 37.6819 41.7383 92.7129 41.7383 92.7129H105.15C108.795 92.7129 111.743 89.7642 111.743 86.1198Z" stroke="#1A2E3D" stroke-width="5" stroke-miterlimit="10"/>
<path d="M79.3058 36.4869C84.4474 36.4869 88.6155 32.3188 88.6155 27.1771C88.6155 22.0354 84.4474 17.8672 79.3058 17.8672C74.1642 17.8672 69.9961 22.0354 69.9961 27.1771C69.9961 32.3188 74.1642 36.4869 79.3058 36.4869Z" stroke="#1A2E3D" stroke-width="5" stroke-miterlimit="10"/>
</svg>
