<svg width="242" height="638" viewBox="0 0 242 638" fill="none" xmlns="http://www.w3.org/2000/svg">
<path d="M98.6989 492.841C98.2123 492.186 98.0335 491.431 98.1924 490.715C98.3513 490.01 98.8281 489.424 99.5333 489.057L103.576 486.941C103.824 486.812 103.913 486.514 103.784 486.276C103.655 486.027 103.357 485.938 103.119 486.067L100.487 487.438C100.546 486.375 101.142 485.412 102.116 484.905L109.972 480.803C110.22 480.674 110.31 480.376 110.181 480.138C110.052 479.889 109.754 479.8 109.515 479.929L101.659 484.031C100.209 484.796 99.3744 486.345 99.5134 487.964L99.0764 488.193C98.1129 488.699 97.4574 489.524 97.229 490.507C97.0005 491.51 97.2389 492.553 97.9044 493.447L105.9 504.184C105.999 504.313 106.148 504.382 106.297 504.382C106.397 504.382 106.506 504.353 106.595 504.283C106.814 504.114 106.863 503.806 106.694 503.588L98.6989 492.841Z" fill="#0D99FF"/>
<path d="M129.072 502.336L119.348 507.422C117.789 504.829 114.442 503.856 111.73 505.276C110.777 505.773 110.032 506.498 109.505 507.352L108.552 506.071C108.383 505.852 108.075 505.803 107.856 505.971C107.638 506.14 107.588 506.448 107.757 506.667L109.009 508.355C108.443 509.845 108.492 511.553 109.287 513.073C110.002 514.444 111.204 515.447 112.684 515.914C113.25 516.092 113.836 516.182 114.422 516.182C115.345 516.182 116.249 515.963 117.094 515.516C119.726 514.136 120.858 511.007 119.805 508.306L129.549 503.21C129.797 503.081 129.886 502.783 129.757 502.545C129.608 502.296 129.31 502.207 129.072 502.336ZM116.617 514.632C115.485 515.228 114.183 515.338 112.972 514.96C111.75 514.583 110.757 513.739 110.161 512.606C109.615 511.563 109.515 510.401 109.754 509.339C109.843 508.951 109.962 508.574 110.141 508.226C110.578 507.372 111.263 506.627 112.177 506.15C112.882 505.783 113.637 505.604 114.382 505.604C116.001 505.604 117.55 506.428 118.444 507.878C118.504 507.978 118.574 508.067 118.633 508.176C118.732 508.375 118.802 508.574 118.871 508.772C119.686 510.987 118.762 513.51 116.617 514.632Z" fill="#0D99FF"/>
<path d="M135.796 498.81L131.158 501.234C130.91 501.363 130.82 501.661 130.949 501.899C131.039 502.068 131.208 502.168 131.387 502.168C131.466 502.168 131.545 502.148 131.615 502.108L136.253 499.684C136.502 499.555 136.591 499.257 136.462 499.019C136.343 498.781 136.045 498.691 135.796 498.81Z" fill="#0D99FF"/>
<path d="M115.882 474.456L123.918 470.255C124.126 470.145 124.394 470.175 124.573 470.334L126.361 471.903C126.51 472.032 126.709 472.062 126.887 471.983C128.347 471.347 130.076 471.953 130.811 473.353L136.442 484.12C136.532 484.289 136.7 484.388 136.879 484.388C136.959 484.388 137.038 484.368 137.108 484.329C137.356 484.2 137.445 483.902 137.316 483.663L131.685 472.897C130.761 471.129 128.655 470.314 126.788 470.96L125.219 469.589C124.732 469.162 124.017 469.082 123.451 469.38L115.415 473.582C114.839 473.89 114.512 474.506 114.581 475.151L114.8 477.157L112.068 478.588C111.82 478.717 111.731 479.015 111.86 479.253C111.989 479.502 112.287 479.591 112.525 479.462L115.564 477.873C115.743 477.773 115.852 477.585 115.833 477.376L115.574 475.042C115.545 474.794 115.674 474.565 115.882 474.456Z" fill="#0D99FF"/>
<path d="M138.41 485.749C138.28 485.501 137.982 485.412 137.744 485.541C137.496 485.67 137.406 485.968 137.535 486.206L139.661 490.279L129.56 476.711C128.239 474.933 125.587 474.317 123.64 475.34L106.676 484.21C106.427 484.339 106.338 484.637 106.467 484.875C106.596 485.124 106.894 485.213 107.133 485.084L124.097 476.214C125.627 475.41 127.722 475.906 128.755 477.307L140.456 493.03C140.942 493.685 141.121 494.44 140.962 495.155C140.843 495.682 140.545 496.149 140.108 496.496C139.959 496.615 139.8 496.725 139.621 496.814C139.373 496.943 139.284 497.241 139.413 497.479C139.502 497.648 139.671 497.748 139.85 497.748C139.929 497.748 140.009 497.728 140.078 497.688C141.032 497.191 141.747 496.347 142.065 495.314C142.382 494.281 142.293 493.189 141.786 492.225L138.41 485.749Z" fill="#0D99FF"/>
<path d="M114.879 512.05C114.859 512.02 114.839 511.991 114.819 511.961C114.7 511.722 114.7 511.454 114.879 510.799C115.008 510.342 115.058 509.974 115.068 509.657C115.078 509.249 114.998 508.912 114.829 508.584C114.452 507.869 113.886 507.65 113.2 508.008C112.515 508.365 112.366 508.961 112.744 509.676L112.912 509.994L112.972 510.104L113.131 510.024L113.637 509.756L113.389 509.279C113.22 508.961 113.3 508.763 113.518 508.653C113.737 508.534 113.935 508.574 114.144 508.971C114.303 509.269 114.353 509.557 114.333 509.925C114.313 510.153 114.273 510.401 114.184 510.729C114.154 510.819 114.144 510.898 114.124 510.978C113.965 511.643 113.995 512.07 114.223 512.517L114.511 513.063L116.538 512.001L116.2 511.365L114.879 512.05Z" fill="#0D99FF"/>
<path d="M-2.8683 382.463C-3.206 383.962 -2.84844 385.522 -1.8552 386.853L10.7092 403.738C10.8085 403.867 10.9575 403.936 11.1065 403.936C11.2058 403.936 11.3151 403.907 11.4045 403.837C11.623 403.668 11.6727 403.36 11.5038 403.142L-1.06061 386.257C-1.87507 385.154 -2.17304 383.893 -1.90486 382.681C-1.63669 381.489 -0.832169 380.496 0.34978 379.88L6.71642 376.553C6.96472 376.424 7.05411 376.126 6.92499 375.887C6.79587 375.639 6.4979 375.55 6.25953 375.679L1.70058 378.063C1.62112 376.116 2.65409 374.269 4.41211 373.355L16.758 366.899C17.0063 366.77 17.0957 366.472 16.9666 366.233C16.8375 365.985 16.5395 365.896 16.3011 366.025L3.95522 372.481C1.71051 373.653 0.459036 376.076 0.747074 378.569L-0.107109 379.016C-1.5473 379.761 -2.5306 380.993 -2.8683 382.463Z" fill="#0D99FF"/>
<path d="M47.7161 401.473C47.587 401.225 47.289 401.135 47.0506 401.264L31.5264 409.379C30.4239 407.413 28.646 405.962 26.4907 405.287C24.246 404.582 21.8622 404.8 19.7764 405.883C18.227 406.688 16.9854 407.909 16.161 409.399L14.4229 407.055C14.254 406.836 13.9461 406.787 13.7276 406.956C13.5091 407.125 13.4594 407.432 13.6283 407.651L15.6942 410.422C15.6147 410.631 15.5353 410.839 15.4658 411.048C14.7606 413.293 14.9791 415.676 16.0617 417.762C17.1543 419.848 18.9917 421.377 21.2265 422.083C22.0906 422.351 22.9845 422.49 23.8685 422.49C25.269 422.49 26.6595 422.152 27.9408 421.487C30.0266 420.394 31.5562 418.557 32.2614 416.322C32.8871 414.316 32.7778 412.19 31.9733 410.273L47.5075 402.138C47.7558 402.019 47.8452 401.711 47.7161 401.473ZM31.3079 416.024C30.6821 418.01 29.3214 419.639 27.474 420.613C25.6266 421.576 23.511 421.765 21.5245 421.149C19.538 420.523 17.9091 419.163 16.9357 417.315C15.9723 415.478 15.7836 413.372 16.3994 411.395C16.3994 411.385 16.3994 411.376 16.4093 411.366C16.5285 410.998 16.6676 410.651 16.8364 410.313C17.5615 408.803 18.7335 407.571 20.2432 406.777C21.3755 406.181 22.6071 405.883 23.8487 405.883C24.6333 405.883 25.418 406.002 26.1927 406.241C28.0997 406.836 29.669 408.118 30.6424 409.846C30.6821 409.925 30.7318 409.995 30.7814 410.074C30.8907 410.293 31 410.511 31.0893 410.74C31.7747 412.409 31.8541 414.266 31.3079 416.024Z" fill="#0D99FF"/>
<path d="M57.6302 395.732L50.3299 399.546C50.0816 399.675 49.9922 399.973 50.1214 400.212C50.2108 400.381 50.3796 400.48 50.5584 400.48C50.6378 400.48 50.7173 400.46 50.7868 400.42L58.0871 396.606C58.3354 396.477 58.4248 396.179 58.2957 395.941C58.1765 395.692 57.8785 395.603 57.6302 395.732Z" fill="#0D99FF"/>
<path d="M64.4634 392.047C64.2151 392.246 63.9469 392.425 63.649 392.584C63.4007 392.713 63.3113 393.011 63.4404 393.249C63.5298 393.418 63.6986 393.517 63.8774 393.517C63.9569 393.517 64.0363 393.497 64.1058 393.458C64.2846 393.358 64.4634 393.259 64.6323 393.15C64.7415 393.07 64.8508 392.991 64.96 392.911C65.0097 392.872 65.0593 392.842 65.0991 392.802C65.3275 392.614 65.5361 392.415 65.7248 392.196C67.4332 390.359 67.9 387.588 66.6783 385.244L61.3447 375.053C61.2155 374.805 60.9176 374.715 60.6792 374.845C60.4309 374.974 60.3415 375.272 60.4706 375.51L65.4864 385.095L47.4592 360.88C45.4628 358.198 41.4502 357.264 38.5102 358.804L11.8319 372.749C11.5836 372.878 11.4942 373.176 11.6233 373.414C11.7524 373.663 12.0504 373.752 12.2888 373.623L38.9671 359.678C41.4899 358.357 44.9364 359.161 46.6547 361.476L65.0494 386.197C65.8639 387.3 66.1618 388.561 65.8937 389.773C65.695 390.677 65.1984 391.451 64.4634 392.047Z" fill="#0D99FF"/>
<path d="M20.1153 364.584C20.2445 364.833 20.5424 364.922 20.7808 364.793L25.5483 362.3C25.7271 362.201 25.8364 362.012 25.8165 361.803L25.4093 358.128C25.3497 357.632 25.6079 357.155 26.0449 356.926L38.669 350.321C39.106 350.093 39.6523 350.153 40.0198 350.48L42.8405 352.944C42.9796 353.073 43.1882 353.103 43.367 353.023C45.8004 351.96 48.6708 352.973 49.8925 355.307L58.7422 372.242C58.8316 372.411 59.0005 372.51 59.1793 372.51C59.2587 372.51 59.3382 372.49 59.4077 372.451C59.656 372.322 59.7454 372.024 59.6163 371.785L50.7666 354.851C49.3562 352.149 46.1083 350.927 43.2577 351.99L40.6654 349.726C39.99 349.13 38.9967 349.02 38.2021 349.437L25.5781 356.042C24.7736 356.47 24.3068 357.324 24.416 358.238L24.7835 361.575L20.314 363.909C20.0855 364.038 19.9961 364.336 20.1153 364.584Z" fill="#0D99FF"/>
<path d="M24.6053 416.292C24.5656 416.243 24.5457 416.193 24.5159 416.143C24.3272 415.776 24.3272 415.349 24.6152 414.306C24.645 414.197 24.6649 414.097 24.6947 413.988C24.8039 413.551 24.8735 413.164 24.9033 412.816C24.9728 412.031 24.8437 411.426 24.5258 410.82C23.9398 409.697 23.0459 409.35 21.9633 409.916C20.8807 410.482 20.6522 411.416 21.2382 412.538L21.5958 413.223L22.6387 412.677L22.2414 411.922C21.9832 411.426 22.1023 411.118 22.45 410.929C22.7976 410.75 23.1055 410.8 23.4432 411.435C23.7313 411.982 23.8306 412.488 23.7213 413.223C23.6816 413.511 23.6121 413.819 23.5127 414.187C23.5028 414.226 23.5028 414.246 23.4929 414.286C23.1552 415.508 23.185 416.243 23.5823 416.998L24.0292 417.862L27.2076 416.193L26.6812 415.19L24.6053 416.292Z" fill="#0D99FF"/>
<path d="M59.8043 259.709C59.6751 259.461 59.3772 259.371 59.1388 259.5L51.2922 263.602C50.6864 262.639 49.7825 261.914 48.68 261.566C47.4583 261.179 46.1572 261.298 45.0249 261.894C44.28 262.281 43.694 262.857 43.257 263.523L42.5518 262.579C42.3829 262.361 42.075 262.311 41.8565 262.48C41.638 262.639 41.5883 262.957 41.7572 263.175L42.7603 264.516C42.3134 265.738 42.3531 267.128 42.9987 268.37C43.5947 269.502 44.5879 270.346 45.8096 270.724C46.2863 270.873 46.7631 270.942 47.2498 270.942C48.0146 270.942 48.7694 270.754 49.4647 270.396C50.597 269.8 51.4412 268.807 51.8186 267.585C52.1365 266.562 52.0868 265.489 51.7293 264.506L59.5957 260.394C59.8341 260.245 59.9234 259.947 59.8043 259.709ZM50.8651 267.277C50.5572 268.251 49.9017 269.035 48.9979 269.512C48.094 269.979 47.071 270.078 46.0976 269.77C45.1242 269.462 44.3396 268.807 43.8628 267.903C43.4556 267.118 43.3563 266.264 43.5152 265.46C43.5847 265.082 43.7039 264.705 43.8827 264.367C44.2303 263.712 44.7667 263.145 45.4818 262.778C46.038 262.49 46.634 262.341 47.2398 262.341C47.6173 262.341 48.0046 262.4 48.3821 262.52C49.2263 262.788 49.9315 263.334 50.4083 264.069C50.4778 264.178 50.5572 264.268 50.6168 264.387C50.7162 264.576 50.7857 264.764 50.8453 264.963C51.0837 265.698 51.1035 266.503 50.8651 267.277Z" fill="#0D99FF"/>
<path d="M61.0564 259.54C61.1359 259.54 61.2154 259.52 61.2849 259.48L65.0592 257.504C65.3075 257.375 65.3969 257.077 65.2677 256.838C65.1386 256.59 64.8407 256.501 64.6023 256.63L60.828 258.606C60.5797 258.735 60.4903 259.033 60.6194 259.272C60.7088 259.45 60.8777 259.54 61.0564 259.54Z" fill="#0D99FF"/>
<path d="M68.0989 254.763C67.9897 254.852 67.8606 254.941 67.7215 255.011C67.4732 255.14 67.3838 255.438 67.5129 255.676C67.6023 255.845 67.7712 255.945 67.9499 255.945C68.0294 255.945 68.1089 255.925 68.1784 255.885C68.9829 255.468 69.5689 254.763 69.8371 253.899C70.1053 253.034 70.0258 252.121 69.6087 251.316L66.8475 246.042C66.7183 245.794 66.4204 245.704 66.182 245.833C65.9337 245.963 65.8443 246.261 65.9734 246.499L67.1653 248.783L59.6465 238.682C58.544 237.202 56.3291 236.686 54.7101 237.54L40.9042 244.761C40.6559 244.89 40.5665 245.188 40.6956 245.426C40.8247 245.675 41.1227 245.764 41.361 245.635L55.167 238.414C56.3688 237.788 58.0176 238.166 58.842 239.268L68.3671 252.061C68.7445 252.578 68.8836 253.164 68.7644 253.72C68.675 254.127 68.4366 254.485 68.0989 254.763Z" fill="#0D99FF"/>
<path d="M37.2886 245.476L43.6751 242.138C43.9234 242.009 44.0128 241.711 43.8837 241.473C43.7546 241.235 43.4566 241.135 43.2182 241.264L36.8317 244.602C35.6299 245.227 34.9446 246.499 35.034 247.83L34.736 247.989C33.9216 248.416 33.3753 249.101 33.1866 249.935C32.9979 250.78 33.1965 251.654 33.7527 252.399L40.2584 261.139C40.3577 261.268 40.5067 261.338 40.6557 261.338C40.755 261.338 40.8643 261.308 40.9537 261.238C41.1722 261.08 41.2218 260.762 41.053 260.543L34.5473 251.803C34.1699 251.286 34.0308 250.7 34.15 250.144C34.2791 249.598 34.6466 249.141 35.1929 248.853L38.4805 247.134C38.7288 247.005 38.8182 246.707 38.6891 246.469C38.56 246.231 38.262 246.131 38.0236 246.26L36.0372 247.303C36.1265 246.529 36.5834 245.843 37.2886 245.476Z" fill="#0D99FF"/>
<path d="M45.0957 240.837C45.2248 241.085 45.5228 241.175 45.7611 241.046L48.2343 239.754C48.4131 239.655 48.5223 239.466 48.5025 239.258L48.2939 237.351C48.274 237.192 48.3535 237.043 48.5025 236.963L55.038 233.547C55.187 233.467 55.3459 233.497 55.4651 233.596L56.9251 234.868C57.0642 234.997 57.2727 235.027 57.4515 234.947C58.6037 234.451 59.9445 234.917 60.5206 236.02L65.0994 244.78C65.1888 244.949 65.3577 245.048 65.5365 245.048C65.6159 245.048 65.6954 245.029 65.7649 244.989C66.0132 244.86 66.1026 244.562 65.9735 244.323L61.3947 235.553C60.6299 234.093 58.9017 233.408 57.3522 233.914L56.1206 232.832C55.6935 232.454 55.0876 232.385 54.5811 232.653L48.0456 236.07C47.539 236.338 47.251 236.874 47.3106 237.44L47.4794 239.01L45.3142 240.142C45.056 240.291 44.9666 240.589 45.0957 240.837Z" fill="#0D99FF"/>
<path d="M47.6277 267.486C47.6078 267.466 47.5979 267.436 47.578 267.406C47.4886 267.228 47.4886 267.009 47.6078 266.542C47.6178 266.512 47.6178 266.493 47.6277 266.453C47.7469 266.036 47.7965 265.698 47.7866 265.41C47.7767 265.122 47.7072 264.884 47.578 264.645C47.2701 264.069 46.8132 263.88 46.2471 264.178C45.6909 264.466 45.5717 264.953 45.8697 265.539L45.9491 265.698L46.0485 265.887L46.3365 265.738L46.5848 265.609L46.3862 265.221C46.2471 264.963 46.3166 264.804 46.4954 264.705C46.6742 264.605 46.8331 264.635 47.0119 264.963C47.1211 265.182 47.1708 265.39 47.1708 265.638C47.1708 265.847 47.1311 266.075 47.0417 266.383C47.0119 266.483 46.992 266.572 46.9722 266.661C46.8629 267.158 46.8927 267.496 47.0715 267.833L47.2999 268.28L48.9487 267.416L48.6805 266.9L47.6277 267.486Z" fill="#0D99FF"/>
<path d="M205.621 81.3038C205.74 81.3038 205.859 81.264 205.948 81.1746L215.98 72.315C216.596 71.7786 217.331 71.5303 218.056 71.6396C218.771 71.7389 219.397 72.166 219.824 72.8414L222.267 76.6951C222.416 76.9236 222.724 76.9931 222.953 76.8441C223.181 76.6951 223.251 76.3872 223.102 76.1588L221.512 73.6558C222.575 73.6261 223.588 74.1425 224.174 75.0662L228.922 82.5453C229.011 82.6943 229.18 82.7737 229.339 82.7737C229.429 82.7737 229.518 82.7539 229.607 82.6943C229.836 82.5453 229.905 82.2374 229.756 82.009L225.009 74.5299C224.135 73.1493 222.506 72.454 220.916 72.7222L220.648 72.305C220.062 71.3813 219.188 70.7953 218.185 70.6563C217.162 70.5073 216.149 70.8351 215.315 71.5701L205.283 80.4297C205.074 80.6085 205.055 80.9263 205.243 81.1349C205.343 81.2442 205.482 81.3038 205.621 81.3038Z" fill="#0D99FF"/>
<path d="M209.644 105.201C209.415 105.35 209.346 105.658 209.495 105.887L212.306 110.307C212.395 110.456 212.564 110.535 212.723 110.535C212.812 110.535 212.902 110.515 212.991 110.456C213.219 110.307 213.289 109.999 213.14 109.77L210.329 105.35C210.18 105.132 209.872 105.062 209.644 105.201Z" fill="#0D99FF"/>
<path d="M235.518 95.6958L225.258 79.5358C225.109 79.3074 224.801 79.2379 224.573 79.3868C224.344 79.5358 224.275 79.8437 224.424 80.0722L234.684 96.2321C235.608 97.6922 235.3 99.8177 233.989 100.97L219.299 113.951C218.683 114.498 217.948 114.736 217.223 114.627C216.687 114.547 216.2 114.289 215.813 113.892C215.683 113.753 215.564 113.604 215.455 113.435C215.336 113.246 215.107 113.167 214.899 113.226C214.849 113.236 214.809 113.246 214.77 113.276C214.591 113.385 214.511 113.584 214.541 113.773C214.551 113.832 214.571 113.902 214.611 113.961C215.187 114.875 216.091 115.511 217.144 115.739C217.442 115.809 217.739 115.839 218.037 115.839C218.792 115.839 219.537 115.62 220.203 115.203L226.381 111.28C226.609 111.131 226.679 110.823 226.53 110.594C226.381 110.366 226.073 110.296 225.844 110.445L221.961 112.909L234.634 101.705C236.293 100.245 236.69 97.5531 235.518 95.6958Z" fill="#0D99FF"/>
<path d="M241.437 95.0106L236.58 87.3627C236.232 86.8164 235.577 86.5383 234.941 86.6575L232.964 87.0448L231.306 84.4426C231.157 84.2141 230.849 84.1446 230.62 84.2936C230.392 84.4426 230.322 84.7505 230.471 84.9789L232.309 87.8692C232.418 88.0381 232.627 88.1275 232.825 88.0877L235.139 87.6308C235.378 87.5812 235.616 87.6904 235.745 87.8891L240.602 95.537C240.731 95.7356 240.721 96.0038 240.582 96.2025L239.172 98.1194C239.053 98.2783 239.043 98.477 239.132 98.6458C239.887 100.046 239.43 101.814 238.089 102.668L227.829 109.184C227.601 109.333 227.531 109.641 227.68 109.869C227.77 110.018 227.939 110.098 228.097 110.098C228.187 110.098 228.276 110.078 228.366 110.018L238.626 103.503C240.314 102.43 240.94 100.265 240.145 98.4571L241.377 96.7785C241.764 96.272 241.794 95.5668 241.437 95.0106Z" fill="#0D99FF"/>
<path d="M199.811 95.2093C200.665 95.2093 201.529 95.0106 202.333 94.6133L208.223 103.9C208.313 104.049 208.481 104.129 208.64 104.129C208.73 104.129 208.819 104.109 208.909 104.049C209.137 103.9 209.207 103.592 209.058 103.364L203.178 94.1068C205.631 92.3289 206.316 88.9221 204.677 86.3297C204.101 85.4259 203.317 84.7406 202.423 84.2837L203.615 83.2308C203.823 83.0521 203.843 82.7342 203.654 82.5256C203.476 82.3171 203.158 82.2972 202.949 82.4859L201.37 83.8764C199.84 83.4394 198.142 83.6281 196.692 84.5419C194 86.2503 193.206 89.8259 194.914 92.5176C196.026 94.2557 197.904 95.2093 199.811 95.2093ZM197.238 85.3862C198.033 84.8796 198.917 84.6412 199.801 84.6412C200.029 84.6412 200.267 84.6611 200.496 84.7008C200.883 84.7604 201.261 84.8597 201.618 85.0087C202.512 85.3663 203.297 86.002 203.853 86.8661C205.204 88.9916 204.648 91.7727 202.651 93.2526C202.562 93.3221 202.472 93.4016 202.373 93.4711C202.184 93.5903 201.986 93.6697 201.797 93.7591C199.662 94.7424 197.069 94.0372 195.768 91.9912C194.348 89.7663 195.013 86.8065 197.238 85.3862Z" fill="#0D99FF"/>
<path d="M198.996 91.306L198.191 90.0446C198.221 90.0148 198.251 90.0049 198.281 89.985C198.509 89.846 198.777 89.8261 199.453 89.9453C199.92 90.0347 200.287 90.0546 200.605 90.0347C201.012 90.0049 201.34 89.9056 201.658 89.7069C202.333 89.2798 202.512 88.6938 202.095 88.0383C201.678 87.3828 201.072 87.2934 200.396 87.7205L200.088 87.9092L199.979 87.9787L200.069 88.1277L200.376 88.6144L200.833 88.3263C201.131 88.1376 201.34 88.1972 201.469 88.4058C201.608 88.6144 201.588 88.813 201.201 89.0613C200.923 89.2401 200.635 89.3196 200.267 89.3295C200.039 89.3295 199.79 89.3096 199.453 89.25C199.363 89.2302 199.284 89.2302 199.204 89.2103C198.529 89.111 198.102 89.1706 197.675 89.4387L197.148 89.7665L198.37 91.6934L198.996 91.306Z" fill="#0D99FF"/>
<path d="M15.7448 144.186C17.2743 146.023 19.3701 147.265 21.7439 147.712C22.3994 147.841 23.055 147.9 23.7006 147.9C25.7566 147.9 27.753 147.285 29.4911 146.112L79.4807 112.144C83.831 109.184 85.2215 103.344 82.7285 98.7153L86.2942 93.5406C87.1186 92.3487 87.1186 90.7992 86.3042 89.5974L72.2002 68.8388C71.3957 67.6569 69.9257 67.0808 68.5253 67.3986L62.5063 68.7792L39.0659 34.2842C36.6027 30.6589 32.1331 28.9902 27.892 30.1027L26.7995 28.5035C25.25 26.2191 22.9954 24.8087 20.4626 24.5306C17.8802 24.2426 15.3375 25.1563 13.2915 27.0931L-26.2393 64.2898C-30.4009 68.2031 -31.1955 75.1955 -28.0172 79.8737L15.129 143.371C15.3276 143.649 15.5362 143.927 15.7448 144.186ZM38.2515 34.8404L61.8805 69.6036C61.9997 69.7724 62.2083 69.8519 62.4069 69.8122L68.7636 68.3521C69.7569 68.1237 70.8196 68.5408 71.3957 69.3851L85.4996 90.1437C86.0857 91.0078 86.0757 92.1103 85.4897 92.9645L81.7452 98.3975C81.636 98.5564 81.626 98.765 81.7254 98.9239C84.1687 103.145 82.947 108.588 78.9344 111.31L28.9449 145.278C28.0013 145.924 26.9683 146.361 25.8857 146.629C26.869 146.192 27.8126 145.576 28.6568 144.772L68.1876 107.575C72.3492 103.662 73.1438 96.6693 69.9655 91.9911L28.4979 30.9767C32.2126 30.1523 36.0862 31.662 38.2515 34.8404ZM-25.5539 65.0149L13.9768 27.8083C15.5958 26.2787 17.5524 25.4742 19.5488 25.4742C19.817 25.4742 20.0852 25.4841 20.3534 25.5139C22.5981 25.7622 24.5945 27.0137 25.985 29.0498L69.1311 92.5473C72.0512 96.8381 71.3163 103.254 67.4923 106.85L27.9615 144.047C26.1241 145.775 23.8496 146.589 21.5751 146.341C19.6084 146.122 17.8405 145.139 16.4996 143.53C16.3109 143.302 16.1222 143.053 15.9533 142.795L-27.1928 79.3174C-30.1129 75.0267 -29.3779 68.6104 -25.5539 65.0149Z" fill="#0D99FF"/>
<path d="M193.107 323.812C190.207 321.031 185.618 320.902 182.539 323.464L178.208 321.667C177.155 321.23 175.934 321.488 175.149 322.302L161.989 336.029C161.194 336.863 160.996 338.065 161.482 339.108L163.419 343.279L141.608 366.015C139.293 368.428 138.747 372.014 140.217 375.003L139.254 376.006C137.784 377.536 137.078 379.463 137.277 381.43C137.476 383.416 138.568 385.194 140.356 386.435L174.146 409.876C175.685 410.939 177.543 411.455 179.4 411.455C181.903 411.455 184.406 410.521 186.134 408.724L226.4 366.759C226.589 366.561 226.768 366.352 226.926 366.144C226.956 366.104 226.986 366.054 227.016 366.015C227.135 365.856 227.254 365.697 227.354 365.528C229.35 362.399 228.933 358.178 226.152 355.516L193.107 323.812ZM226.489 365.011C226.47 365.031 226.46 365.061 226.44 365.081C226.34 365.24 226.231 365.389 226.112 365.538C225.983 365.707 225.834 365.866 225.685 366.024C225.675 366.034 225.665 366.044 225.655 366.054L185.399 408.018C182.718 410.819 177.91 411.276 174.692 409.041L140.902 385.601C139.363 384.528 138.419 383.009 138.25 381.32C138.082 379.652 138.687 378.013 139.959 376.682L180.215 334.718C181.754 333.119 183.989 332.274 186.224 332.274C187.882 332.274 189.551 332.741 190.922 333.685L224.712 357.125C226.251 358.198 227.195 359.717 227.363 361.406C227.493 362.677 227.185 363.909 226.489 365.011ZM225.278 356.331L191.488 332.89C187.882 330.387 182.509 330.904 179.499 334.042L140.952 374.229C139.869 371.686 140.376 368.726 142.313 366.7L164.353 343.726C164.492 343.577 164.531 343.359 164.442 343.17L162.356 338.691C162.048 338.025 162.177 337.25 162.684 336.714L175.844 322.988C176.351 322.461 177.136 322.292 177.801 322.58L182.42 324.497C182.598 324.567 182.797 324.537 182.946 324.408C185.638 321.975 189.789 322.024 192.402 324.527L225.447 356.221C225.735 356.499 225.993 356.797 226.221 357.115C225.943 356.837 225.625 356.569 225.278 356.331Z" fill="#0D99FF"/>
<path d="M189.034 552.068C187.306 550.409 184.584 550.3 182.727 551.78L180.333 550.786C179.628 550.498 178.844 550.657 178.327 551.203L170.689 559.169C170.173 559.706 170.043 560.52 170.351 561.185L171.414 563.48L158.86 576.571C157.489 578.001 157.151 580.097 157.956 581.884L157.489 582.371C156.595 583.305 156.168 584.477 156.287 585.679C156.406 586.89 157.072 587.973 158.164 588.728L177.771 602.335C178.695 602.981 179.817 603.289 180.939 603.289C182.449 603.289 183.959 602.723 185.002 601.64L208.362 577.286C208.432 577.206 208.492 577.117 208.551 577.037C208.69 576.869 208.829 576.71 208.948 576.531C209.078 576.332 209.177 576.124 209.266 575.915C210.081 574.107 209.723 571.912 208.214 570.462L189.034 552.068ZM159.565 577.246L172.358 563.917C172.497 563.768 172.536 563.549 172.447 563.361L171.235 560.758C171.096 560.45 171.156 560.093 171.384 559.845L179.022 551.879C179.261 551.631 179.608 551.561 179.926 551.69L182.608 552.803C182.787 552.872 182.985 552.842 183.134 552.713C184.624 551.372 186.899 551.402 188.339 552.773L206.118 569.827L188.071 557.302C185.896 555.792 182.658 556.11 180.85 557.997L158.701 581.09C158.254 579.769 158.572 578.289 159.565 577.246ZM208.333 575.538C208.263 575.697 208.184 575.856 208.094 576.004C207.965 576.213 207.816 576.412 207.637 576.591L184.277 600.945C182.787 602.494 180.125 602.752 178.337 601.511L158.731 587.903C157.886 587.317 157.37 586.493 157.28 585.569C157.191 584.666 157.519 583.772 158.214 583.047L181.575 558.692C182.429 557.799 183.671 557.342 184.912 557.342C185.836 557.342 186.76 557.6 187.524 558.126L207.131 571.734C207.975 572.32 208.492 573.144 208.581 574.068C208.621 574.574 208.531 575.071 208.333 575.538Z" fill="#0D99FF"/>
<path d="M28.6862 531.19L12.417 549.465C12.2382 549.674 12.2482 549.982 12.4567 550.17C12.5461 550.25 12.6653 550.3 12.7845 550.3C12.9236 550.3 13.0527 550.24 13.152 550.131L29.0934 532.223L35.0528 537.527C35.2614 537.705 35.5693 537.695 35.758 537.487C35.9467 537.278 35.9269 536.97 35.7183 536.782L29.3815 531.15C29.1828 530.961 28.8749 530.981 28.6862 531.19Z" fill="#0D99FF"/>
<path d="M-23.7572 591.608L10.2115 553.448C10.3902 553.24 10.3803 552.932 10.1717 552.743C9.96315 552.564 9.65525 552.574 9.46654 552.783L-24.8299 591.32C-24.9193 591.42 -24.959 591.549 -24.959 591.678C-24.9491 591.807 -24.8895 591.936 -24.7901 592.016L-19.3869 596.823C-19.2975 596.902 -19.1784 596.952 -19.0592 596.952C-18.9201 596.952 -18.791 596.893 -18.6917 596.783C-18.5129 596.575 -18.5228 596.267 -18.7314 596.078L-23.7572 591.608Z" fill="#0D99FF"/>
<path d="M27.1072 635.817L26.5808 636.413L-1.786 611.165C-1.99458 610.986 -2.30248 610.996 -2.49119 611.205C-2.66998 611.413 -2.66004 611.721 -2.45146 611.91L26.2828 637.486C26.3722 637.565 26.4914 637.615 26.6106 637.615C26.7496 637.615 26.8788 637.555 26.9781 637.446L27.8422 636.483C28.021 636.274 28.011 635.966 27.8025 635.777C27.6038 635.599 27.286 635.609 27.1072 635.817Z" fill="#0D99FF"/>
<path d="M83.3741 564.056C83.3642 564.036 83.3443 564.016 83.3344 564.006C83.3244 563.986 83.3145 563.966 83.2946 563.956L45.3928 530.226C45.2935 530.137 45.1643 530.087 45.0352 530.097C44.9061 530.107 44.777 530.166 44.6975 530.266L-8.82791 590.396C-8.9173 590.496 -8.95703 590.625 -8.95703 590.754C-8.9471 590.883 -8.8875 591.012 -8.78818 591.091L33.4541 628.685L30.3453 632.172C30.1665 632.38 30.1764 632.688 30.385 632.877C30.4744 632.956 30.5936 633.006 30.7128 633.006C30.8518 633.006 30.9809 632.946 31.0803 632.837L34.1891 629.351L42.2939 636.562C42.3833 636.641 42.5025 636.691 42.6217 636.691C42.7607 636.691 42.8898 636.631 42.9892 636.522L84.7745 589.582C84.7845 589.562 84.7944 589.542 84.8043 589.522C84.8143 589.502 84.8242 589.482 84.8341 589.463C84.8739 589.383 84.9037 589.304 84.8937 589.214L83.4436 564.294C83.4635 564.205 83.4238 564.125 83.3741 564.056ZM42.5919 635.479L34.8645 628.596L34.1196 627.941L-7.74528 590.674L45.1147 531.289L82.2716 564.364L70.8693 577.176C70.6905 577.385 70.7004 577.693 70.909 577.881L83.7217 589.284L42.5919 635.479ZM71.9419 577.464L82.5497 565.546L83.1655 576.213L83.8508 588.072L71.9419 577.464Z" fill="#0D99FF"/>
<path d="M44.5487 583.344L49.9321 577.296C50.1109 577.087 50.1009 576.779 49.8923 576.59C49.6838 576.412 49.3759 576.421 49.1872 576.63L43.8038 582.679L37.755 577.296C37.5464 577.117 37.2385 577.127 37.0498 577.335C36.871 577.544 36.881 577.852 37.0896 578.041L43.1383 583.424L37.755 589.473C37.5762 589.681 37.5862 589.989 37.7947 590.178C37.8841 590.257 38.0033 590.307 38.1225 590.307C38.2616 590.307 38.3907 590.247 38.49 590.138L43.8733 584.089L49.9221 589.473C50.0115 589.552 50.1307 589.602 50.2499 589.602C50.389 589.602 50.5181 589.542 50.6174 589.433C50.7962 589.224 50.7863 588.916 50.5777 588.728L44.5487 583.344Z" fill="#0D99FF"/>
<path d="M85.0827 182.137L92.4127 179.227C92.671 179.128 92.7902 178.84 92.6908 178.582C92.5915 178.323 92.3035 178.204 92.0452 178.303L84.2583 181.402C84 181.502 83.8808 181.79 83.9802 182.048L92.9193 204.545C92.9987 204.743 93.1875 204.863 93.3762 204.863C93.4358 204.863 93.4954 204.853 93.555 204.823C93.8132 204.723 93.9324 204.435 93.8331 204.177L85.0827 182.137Z" fill="#0D99FF"/>
<path d="M113.837 256.342C113.897 256.342 113.957 256.332 114.016 256.302L120.661 253.66C120.919 253.561 121.038 253.273 120.939 253.014C120.84 252.756 120.552 252.637 120.294 252.736L114.106 255.19L95.4527 208.229C95.3534 207.971 95.0653 207.852 94.8071 207.951C94.5489 208.051 94.4297 208.339 94.529 208.597L113.361 256.014C113.45 256.223 113.639 256.342 113.837 256.342Z" fill="#0D99FF"/>
<path d="M132.44 247.919L124.077 251.247C123.818 251.346 123.699 251.634 123.799 251.892C123.878 252.091 124.067 252.21 124.255 252.21C124.315 252.21 124.375 252.2 124.434 252.17L132.797 248.843C133.055 248.744 133.175 248.456 133.075 248.197C132.986 247.949 132.698 247.82 132.44 247.919Z" fill="#0D99FF"/>
<path d="M140.873 245.108C140.953 245.307 141.141 245.426 141.33 245.426C141.39 245.426 141.449 245.416 141.509 245.386L176.868 231.342C177.126 231.243 177.246 230.955 177.146 230.696L176.669 229.504C176.57 229.246 176.282 229.127 176.024 229.226C175.766 229.326 175.646 229.614 175.746 229.872L176.034 230.597L141.131 244.462C140.893 244.562 140.764 244.85 140.873 245.108Z" fill="#0D99FF"/>
<path d="M119.657 241.463C119.737 241.662 119.925 241.781 120.114 241.781C120.174 241.781 120.233 241.771 120.293 241.741L172.269 221.092L173.967 225.383C174.047 225.581 174.236 225.701 174.424 225.701C174.484 225.701 174.543 225.691 174.603 225.661C174.861 225.562 174.98 225.274 174.881 225.015L173.183 220.725L183.145 216.771C183.403 216.672 183.522 216.384 183.423 216.126L160.479 158.359C160.469 158.339 160.449 158.32 160.439 158.3C160.43 158.28 160.42 158.26 160.41 158.25C160.36 158.181 160.3 158.121 160.211 158.081L137.545 148.308C137.466 148.268 137.377 148.268 137.287 148.278C137.267 148.278 137.247 148.288 137.228 148.288C137.208 148.298 137.188 148.288 137.158 148.298L90.5158 166.822C90.3966 166.871 90.2972 166.971 90.2476 167.09C90.1979 167.209 90.1979 167.348 90.2376 167.467L119.657 241.463ZM148.501 154.108L158.731 158.518L144.081 164.339L138.261 149.688L148.501 154.108ZM137.089 149.41L143.346 165.173C143.396 165.292 143.485 165.391 143.614 165.441C143.674 165.471 143.743 165.481 143.813 165.481C143.872 165.481 143.942 165.471 143.992 165.441L159.754 159.184L182.33 216.027L172.825 219.801L171.901 220.168L120.392 240.629L91.3699 167.557L137.089 149.41Z" fill="#0D99FF"/>
<path d="M128.943 195.437C129.003 195.437 129.062 195.427 129.122 195.397L136.561 192.437L139.521 199.876C139.601 200.075 139.789 200.194 139.978 200.194C140.038 200.194 140.097 200.184 140.157 200.154C140.415 200.055 140.534 199.767 140.435 199.509L137.475 192.07L144.914 189.11C145.173 189.01 145.292 188.722 145.193 188.464C145.093 188.206 144.805 188.087 144.547 188.186L137.108 191.146L134.148 183.707C134.048 183.448 133.76 183.329 133.502 183.428C133.244 183.528 133.125 183.816 133.224 184.074L136.184 191.513L128.745 194.473C128.486 194.573 128.367 194.861 128.466 195.119C128.566 195.317 128.745 195.437 128.943 195.437Z" fill="#0D99FF"/>
<path d="M126.56 26.0603C126.639 26.2589 126.828 26.3781 127.017 26.3781C127.077 26.3781 127.136 26.3682 127.196 26.3384C127.454 26.2391 127.573 25.951 127.474 25.6928L123.729 16.267L126.689 15.085C126.947 14.9857 127.067 14.6977 126.967 14.4394C126.868 14.1812 126.58 14.062 126.322 14.1613L122.895 15.5221C122.637 15.6214 122.518 15.9094 122.617 16.1677L126.56 26.0603Z" fill="#0D99FF"/>
<path d="M138.757 46.8982L136.294 47.8716L128.189 27.4804C128.09 27.2222 127.802 27.103 127.543 27.2023C127.285 27.3017 127.166 27.5897 127.265 27.8479L135.549 48.7059C135.599 48.8251 135.698 48.9244 135.817 48.974C135.877 49.0038 135.946 49.0138 136.016 49.0138C136.075 49.0138 136.145 49.0038 136.194 48.974L139.115 47.812C139.373 47.7126 139.492 47.4246 139.393 47.1664C139.303 46.9181 139.005 46.7989 138.757 46.8982Z" fill="#0D99FF"/>
<path d="M144.091 44.7729L140.416 46.2329C140.158 46.3322 140.039 46.6203 140.138 46.8785C140.218 47.0772 140.407 47.1964 140.595 47.1964C140.655 47.1964 140.714 47.1864 140.774 47.1566L144.449 45.6966C144.707 45.5973 144.826 45.3092 144.727 45.051C144.638 44.8027 144.35 44.6735 144.091 44.7729Z" fill="#0D99FF"/>
<path d="M147.646 43.8985C147.726 44.0971 147.914 44.2163 148.103 44.2163C148.163 44.2163 148.222 44.2064 148.282 44.1766L163.836 37.9987C163.955 37.949 164.054 37.8497 164.104 37.7305C164.154 37.6113 164.154 37.4722 164.114 37.353L163.905 36.8266C163.806 36.5684 163.518 36.4492 163.26 36.5485C163.002 36.6479 162.882 36.9359 162.982 37.1941L163.002 37.2537L147.924 43.2529C147.666 43.3621 147.547 43.6502 147.646 43.8985Z" fill="#0D99FF"/>
<path d="M138.32 42.2995C138.37 42.4187 138.469 42.518 138.588 42.5677C138.648 42.5975 138.718 42.6074 138.787 42.6074C138.847 42.6074 138.916 42.5975 138.966 42.5677L161.562 33.5889L162.208 35.2178C162.287 35.4164 162.476 35.5356 162.664 35.5356C162.724 35.5356 162.784 35.5257 162.843 35.4959C163.101 35.3965 163.221 35.1085 163.121 34.8503L162.476 33.2214L166.598 31.5825C166.717 31.5329 166.816 31.4335 166.866 31.3143C166.916 31.1952 166.916 31.0561 166.876 30.9369L156.794 5.54983C156.785 5.52997 156.765 5.51011 156.755 5.49024C156.745 5.47038 156.735 5.45051 156.725 5.44058C156.675 5.37105 156.616 5.31146 156.526 5.27173L146.554 0.971022C146.475 0.941225 146.385 0.931292 146.306 0.941225C146.286 0.941225 146.266 0.951157 146.246 0.951157C146.226 0.961089 146.207 0.951157 146.177 0.961089L125.666 9.10562C125.408 9.20494 125.289 9.49298 125.388 9.75122L138.32 42.2995ZM147.269 2.36155L151.153 4.04012L155.036 5.71868L149.474 7.92367L147.269 2.36155ZM146.087 2.07351L148.739 8.74805C148.789 8.86724 148.878 8.96656 149.007 9.01622C149.067 9.04602 149.137 9.05595 149.206 9.05595C149.266 9.05595 149.335 9.04602 149.385 9.01622L156.059 6.36429L165.783 30.8475L162.118 32.2977L161.194 32.6651L139.055 41.4553L126.501 9.86047L146.087 2.07351Z" fill="#0D99FF"/>
<path d="M142.66 22.2361C142.719 22.2361 142.779 22.2261 142.839 22.1963L145.858 20.9945L147.06 24.014C147.139 24.2126 147.328 24.3318 147.517 24.3318C147.576 24.3318 147.636 24.3219 147.696 24.2921C147.954 24.1927 148.073 23.9047 147.974 23.6465L146.772 20.627L149.791 19.4252C150.05 19.3259 150.169 19.0379 150.069 18.7796C149.97 18.5214 149.682 18.4022 149.424 18.5015L146.404 19.7033L145.203 16.6938C145.103 16.4356 144.815 16.3164 144.557 16.4157C144.299 16.515 144.18 16.8031 144.279 17.0613L145.481 20.0708L142.471 21.2726C142.213 21.372 142.094 21.66 142.193 21.9182C142.273 22.1169 142.461 22.2361 142.66 22.2361Z" fill="#0D99FF"/>
</svg>
