<svg width="73" height="66" viewBox="0 0 73 66" fill="none" xmlns="http://www.w3.org/2000/svg">
<path d="M70.0293 36.4609H56.0997C55.5757 36.4609 55.3137 36.4609 55.0926 36.5793C54.8715 36.6976 54.7262 36.9156 54.4356 37.3515L48.123 46.8203C47.8324 47.2563 47.6871 47.4743 47.466 47.5926C47.2449 47.7109 46.9829 47.7109 46.4589 47.7109H26.0997C25.5757 47.7109 25.3137 47.7109 25.0926 47.5926C24.8715 47.4743 24.7262 47.2563 24.4356 46.8203L18.123 37.3515C17.8324 36.9156 17.6871 36.6976 17.466 36.5793C17.2449 36.4609 16.9829 36.4609 16.4589 36.4609H2.5293" stroke="#4D4D4D" stroke-width="5" stroke-linecap="round" stroke-linejoin="round"/>
<path d="M10.0293 25.2109L2.82219 32.418C2.63465 32.6056 2.5293 32.8599 2.5293 33.1252V60.7109C2.5293 61.8155 3.42473 62.7109 4.5293 62.7109H68.0293C69.1339 62.7109 70.0293 61.8155 70.0293 60.7109V33.1252C70.0293 32.8599 69.9239 32.6056 69.7364 32.418L62.5293 25.2109" stroke="#4D4D4D" stroke-width="5" stroke-linecap="round" stroke-linejoin="round"/>
<path d="M23.1543 17.7109L36.2793 28.9609M36.2793 28.9609L49.4043 17.7109M36.2793 28.9609L36.2793 2.71094" stroke="#4D4D4D" stroke-width="5" stroke-linecap="round" stroke-linejoin="round"/>
</svg>
