<svg width="12" height="12" viewBox="0 0 12 12" fill="none" xmlns="http://www.w3.org/2000/svg">
<path d="M3.64844 0L0 2.35156L2.5 4.25L6 2.02344L3.64844 0ZM6 2.02344L9.67188 4.14844L12 2.25L8.45312 0L6 2.02344ZM9.67188 4.14844L6 6.45312L8.39844 8.27344L12 6.125L9.67188 4.14844ZM6 6.45312L2.5 4.25L0 6.125L3.64844 8.27344L6 6.45312ZM6 7.07812L3.95312 8.67188C3.86523 8.73926 3.75879 8.77344 3.64844 8.77344C3.55957 8.77344 3.47559 8.74805 3.39844 8.70312L2 7.88281V9.27344C2 9.35742 2.03906 9.4375 2.10938 9.48438L5.85938 11.9609C5.90137 11.9883 5.95215 12 6 12C6.04785 12 6.09961 11.9883 6.14062 11.9609L9.89062 9.50781C9.96094 9.46191 10 9.38184 10 9.29688V7.89844L8.65625 8.70312C8.5791 8.75 8.48828 8.77344 8.39844 8.77344C8.28906 8.77344 8.18066 8.7373 8.09375 8.67188L6 7.07812Z" fill="white"/>
</svg>
