<svg width="12" height="25" viewBox="0 0 12 25" fill="none" xmlns="http://www.w3.org/2000/svg">
<path fill-rule="evenodd" clip-rule="evenodd" d="M2.926 12.5949V24.1962C2.926 24.3608 3.05694 24.5 3.22529 24.5H7.47151C7.63363 24.5 7.77081 24.3671 7.77081 24.1962V12.4114H10.851C11.0069 12.4114 11.1316 12.2911 11.1503 12.1329L11.4434 8.58228C11.4559 8.40506 11.3187 8.25316 11.1441 8.25316H7.77081V5.73418C7.77081 5.14557 8.24469 4.66456 8.82457 4.66456H11.194C11.3561 4.66456 11.4933 4.53165 11.4933 4.36076V0.803797C11.4933 0.63924 11.3623 0.5 11.194 0.5H7.18469C4.83399 0.5 2.926 2.43671 2.926 4.82278V8.24684H0.806007C0.637655 8.25316 0.506714 8.38608 0.506714 8.55063V12.1013C0.506714 12.2658 0.637655 12.4051 0.806007 12.4051H2.926V12.5949Z" fill="#011727"/>
</svg>
