<svg width="206" height="481" viewBox="0 0 206 481" fill="none" xmlns="http://www.w3.org/2000/svg">
<path d="M108.374 109.938C108.741 110.432 108.876 111.001 108.756 111.54C108.637 112.072 108.277 112.514 107.746 112.791L104.698 114.386C104.511 114.483 104.443 114.708 104.541 114.888C104.638 115.075 104.863 115.142 105.042 115.045L107.027 114.011C106.982 114.813 106.532 115.539 105.799 115.921L99.8755 119.013C99.6883 119.111 99.6208 119.335 99.7182 119.515C99.8155 119.702 100.04 119.77 100.22 119.672L106.143 116.58C107.236 116.003 107.865 114.835 107.76 113.615L108.09 113.442C108.816 113.06 109.31 112.439 109.483 111.698C109.655 110.941 109.475 110.155 108.973 109.481L102.946 101.386C102.871 101.289 102.758 101.237 102.646 101.237C102.571 101.237 102.489 101.259 102.421 101.312C102.257 101.439 102.219 101.671 102.347 101.836L108.374 109.938Z" fill="#0D99FF"/>
<path d="M84.9726 102.621C84.8753 102.441 84.9501 102.209 85.1298 102.119L92.4757 98.278C91.682 96.2413 92.5356 93.875 94.5199 92.8417C95.149 92.5122 95.8378 92.34 96.5342 92.34C96.9685 92.34 97.4103 92.4074 97.8446 92.5422C98.9529 92.8866 99.8664 93.6504 100.406 94.6837C101.005 95.8294 101.035 97.1174 100.615 98.2406L101.559 99.5136C101.686 99.6783 101.649 99.9179 101.484 100.038C101.319 100.158 101.087 100.128 100.96 99.9628L100.241 98.9969C99.844 99.6409 99.2749 100.187 98.5635 100.562C96.5118 101.633 93.9958 100.906 92.8201 98.9445L85.4893 102.778C85.2946 102.876 85.07 102.808 84.9726 102.621ZM93.1571 97.9261C93.2095 98.0758 93.2619 98.2331 93.3368 98.3754C93.3817 98.4577 93.4267 98.5251 93.4791 98.6C94.153 99.6858 95.3286 100.315 96.5417 100.315C97.1033 100.315 97.6724 100.18 98.204 99.9029C98.8929 99.5435 99.4097 98.9894 99.7391 98.3379C99.8739 98.0684 99.9638 97.7913 100.031 97.4993C100.218 96.6906 100.143 95.8219 99.7241 95.0357C99.2749 94.182 98.5261 93.553 97.605 93.261C96.684 92.9689 95.7105 93.0588 94.8569 93.5081C93.2544 94.3543 92.558 96.2562 93.1571 97.9261Z" fill="#0D99FF"/>
<path d="M80.4055 105.436L83.9024 103.609C84.0896 103.512 84.157 103.287 84.0597 103.107C83.9923 102.98 83.865 102.905 83.7302 102.905C83.6703 102.905 83.6104 102.92 83.558 102.95L80.061 104.777C79.8738 104.874 79.8064 105.099 79.9038 105.279C80.0011 105.458 80.2183 105.526 80.4055 105.436Z" fill="#0D99FF"/>
<path d="M95.4185 123.797L89.3607 126.965C89.2034 127.047 89.0012 127.025 88.8664 126.905L87.5186 125.722C87.4063 125.625 87.2565 125.602 87.1217 125.662C86.021 126.141 84.718 125.684 84.1639 124.629L79.9182 116.512C79.8508 116.384 79.7234 116.309 79.5887 116.309C79.5288 116.309 79.4689 116.324 79.4164 116.354C79.2292 116.452 79.1619 116.676 79.2592 116.856L83.505 124.973C84.2014 126.306 85.7888 126.92 87.1966 126.433L88.3797 127.467C88.7466 127.789 89.2858 127.849 89.7126 127.624L95.7704 124.456C96.2047 124.224 96.4519 123.76 96.3995 123.273L96.2348 121.761L98.294 120.682C98.4812 120.585 98.5486 120.36 98.4512 120.181C98.3539 119.993 98.1292 119.926 97.9495 120.023L95.6582 121.222C95.5234 121.296 95.441 121.439 95.456 121.596L95.6507 123.356C95.6732 123.543 95.5833 123.715 95.4185 123.797Z" fill="#0D99FF"/>
<path d="M78.4443 115.283C78.5417 115.47 78.7662 115.538 78.9459 115.44C79.1332 115.343 79.2006 115.118 79.1033 114.939L77.5008 111.868L85.1161 122.097C86.1121 123.438 88.1114 123.902 89.5791 123.131L102.369 116.444C102.556 116.346 102.623 116.122 102.526 115.942C102.429 115.755 102.204 115.687 102.024 115.785L89.2346 122.472C88.0814 123.078 86.5015 122.704 85.7227 121.648L76.9017 109.794C76.5348 109.3 76.4 108.731 76.5198 108.192C76.6097 107.795 76.8343 107.443 77.1638 107.181C77.2761 107.091 77.3959 107.009 77.5307 106.941C77.7179 106.844 77.7853 106.619 77.688 106.44C77.6206 106.312 77.4933 106.237 77.3585 106.237C77.2986 106.237 77.2387 106.252 77.1863 106.282C76.4674 106.657 75.9283 107.293 75.6886 108.072C75.449 108.851 75.5164 109.674 75.8983 110.401L78.4443 115.283Z" fill="#0D99FF"/>
<path d="M96.1762 95.4558C96.1912 95.4783 96.2062 95.5008 96.2212 95.5232C96.3111 95.703 96.311 95.9051 96.1762 96.3993C96.0789 96.7438 96.0415 97.0209 96.034 97.2605C96.0265 97.5675 96.0864 97.8221 96.2137 98.0692C96.4983 98.6083 96.9251 98.7731 97.4418 98.5035C97.9585 98.2339 98.0707 97.7846 97.7862 97.2455L97.6589 97.0059L97.614 96.9235L97.4941 96.9834L97.1122 97.1856L97.2995 97.545C97.4267 97.7847 97.3668 97.9344 97.2021 98.0168C97.0374 98.1066 96.8876 98.0767 96.7303 97.7772C96.6105 97.5525 96.5731 97.3354 96.5881 97.0583C96.6031 96.8861 96.6331 96.6989 96.7005 96.4518C96.7229 96.3844 96.7304 96.3245 96.7453 96.2646C96.8651 95.7629 96.8427 95.4409 96.6705 95.1039L96.4533 94.6921L94.9258 95.4933L95.1804 95.9725L96.1762 95.4558Z" fill="#0D99FF"/>
<path d="M184.947 193.153C185.202 192.022 184.932 190.846 184.183 189.843L174.711 177.113C174.636 177.016 174.524 176.963 174.411 176.963C174.336 176.963 174.254 176.986 174.187 177.038C174.022 177.166 173.984 177.398 174.112 177.562L183.584 190.292C184.198 191.123 184.423 192.074 184.221 192.988C184.018 193.887 183.412 194.635 182.521 195.1L177.721 197.608C177.534 197.705 177.466 197.93 177.564 198.11C177.661 198.297 177.886 198.364 178.065 198.267L181.495 196.47C181.555 197.938 180.776 199.33 179.451 200.019L170.143 204.887C169.956 204.984 169.888 205.209 169.986 205.388C170.083 205.575 170.308 205.643 170.487 205.545L179.795 200.678C181.487 199.795 182.431 197.968 182.214 196.088L182.858 195.751C183.959 195.189 184.7 194.261 184.947 193.153Z" fill="#0D99FF"/>
<path d="M146.975 178.319L158.693 172.194C158.079 170.748 157.997 169.146 158.476 167.633C159.008 165.941 160.161 164.556 161.734 163.74C162.7 163.238 163.74 162.983 164.804 162.983C165.47 162.983 166.144 163.088 166.796 163.29C168.488 163.822 169.873 164.975 170.689 166.548C171.513 168.12 171.67 169.917 171.139 171.61C171.086 171.774 171.026 171.924 170.966 172.081L172.524 174.171C172.651 174.335 172.614 174.575 172.449 174.695C172.284 174.815 172.052 174.785 171.925 174.62L170.615 172.853C169.993 173.976 169.057 174.897 167.889 175.503C166.316 176.327 164.519 176.484 162.827 175.953C161.202 175.444 159.862 174.35 159.03 172.868L147.327 178.985C147.139 179.083 146.915 179.008 146.825 178.828C146.72 178.641 146.787 178.409 146.975 178.319ZM159.352 171.842C159.42 172.006 159.495 172.179 159.585 172.343C159.615 172.403 159.652 172.456 159.689 172.516C160.431 173.819 161.606 174.785 163.044 175.234C163.628 175.414 164.22 175.503 164.811 175.503C165.747 175.503 166.676 175.279 167.529 174.83C168.668 174.238 169.551 173.302 170.098 172.164C170.218 171.909 170.33 171.647 170.42 171.37C170.42 171.363 170.42 171.355 170.427 171.348C170.892 169.85 170.749 168.27 170.023 166.885C169.297 165.492 168.069 164.466 166.563 163.994C165.066 163.522 163.471 163.665 162.078 164.399C160.685 165.125 159.659 166.353 159.188 167.858C158.768 169.176 158.836 170.576 159.352 171.842Z" fill="#0D99FF"/>
<path d="M139.337 183.148L144.841 180.273C145.028 180.175 145.096 179.951 144.998 179.771C144.931 179.644 144.803 179.569 144.669 179.569C144.609 179.569 144.549 179.584 144.496 179.614L138.993 182.489C138.805 182.586 138.738 182.811 138.835 182.991C138.933 183.178 139.157 183.245 139.337 183.148Z" fill="#0D99FF"/>
<path d="M134.193 185.926C134.38 185.776 134.582 185.642 134.807 185.522C134.994 185.424 135.061 185.2 134.964 185.02C134.897 184.893 134.769 184.818 134.634 184.818C134.575 184.818 134.515 184.833 134.462 184.863C134.327 184.938 134.193 185.013 134.065 185.095C133.983 185.155 133.901 185.215 133.818 185.275C133.781 185.305 133.743 185.327 133.713 185.357C133.541 185.499 133.384 185.649 133.242 185.814C131.954 187.199 131.602 189.288 132.523 191.055L136.544 198.738C136.641 198.925 136.866 198.993 137.046 198.895C137.233 198.798 137.3 198.573 137.203 198.394L133.421 191.168L147.012 209.424C148.517 211.446 151.543 212.149 153.759 210.989L173.872 200.475C174.059 200.378 174.127 200.153 174.029 199.974C173.932 199.787 173.707 199.719 173.528 199.816L153.415 210.33C151.513 211.326 148.914 210.719 147.619 208.974L133.751 190.337C133.137 189.505 132.912 188.554 133.114 187.641C133.257 186.959 133.639 186.375 134.193 185.926Z" fill="#0D99FF"/>
<path d="M167.619 206.631C167.522 206.443 167.297 206.376 167.118 206.473L163.524 208.353C163.389 208.428 163.306 208.57 163.321 208.727L163.628 211.498C163.673 211.872 163.479 212.232 163.149 212.404L153.632 217.383C153.302 217.556 152.89 217.511 152.613 217.264L150.487 215.407C150.382 215.309 150.225 215.287 150.09 215.347C148.255 216.148 146.091 215.384 145.17 213.624L138.498 200.857C138.431 200.73 138.304 200.655 138.169 200.655C138.109 200.655 138.049 200.67 137.997 200.7C137.809 200.797 137.742 201.022 137.839 201.202L144.511 213.969C145.575 216.006 148.023 216.927 150.172 216.125L152.127 217.833C152.636 218.282 153.385 218.364 153.984 218.05L163.501 213.07C164.108 212.748 164.46 212.104 164.377 211.415L164.1 208.899L167.47 207.14C167.642 207.042 167.717 206.818 167.619 206.631Z" fill="#0D99FF"/>
<path d="M164.235 167.647C164.265 167.685 164.28 167.722 164.303 167.76C164.445 168.037 164.445 168.359 164.228 169.145C164.205 169.227 164.19 169.302 164.168 169.385C164.086 169.714 164.033 170.006 164.011 170.268C163.958 170.86 164.056 171.316 164.295 171.773C164.737 172.619 165.411 172.882 166.227 172.455C167.043 172.028 167.216 171.324 166.774 170.478L166.504 169.961L165.718 170.373L166.017 170.942C166.212 171.317 166.122 171.549 165.86 171.691C165.598 171.826 165.366 171.788 165.111 171.309C164.894 170.897 164.819 170.515 164.902 169.961C164.932 169.744 164.984 169.512 165.059 169.235C165.066 169.205 165.066 169.19 165.074 169.16C165.329 168.239 165.306 167.685 165.007 167.116L164.67 166.464L162.273 167.722L162.67 168.479L164.235 167.647Z" fill="#0D99FF"/>
<path d="M137.862 285.195L143.793 282.095C143.516 281.346 143.478 280.545 143.725 279.774C144.018 278.853 144.647 278.097 145.5 277.655C146.024 277.378 146.593 277.243 147.17 277.243C147.537 277.243 147.896 277.295 148.256 277.408C149.177 277.7 149.933 278.329 150.375 279.182C150.862 280.118 150.892 281.167 150.555 282.088L151.311 283.099C151.438 283.263 151.401 283.503 151.236 283.623C151.071 283.75 150.839 283.713 150.712 283.548L150.18 282.836C149.851 283.338 149.416 283.765 148.847 284.065C147.994 284.514 147.013 284.596 146.092 284.312C145.261 284.05 144.579 283.503 144.122 282.777L138.207 285.869C138.027 285.967 137.795 285.892 137.705 285.712C137.608 285.517 137.683 285.293 137.862 285.195ZM144.459 281.743C144.512 281.893 144.564 282.035 144.632 282.178C144.676 282.26 144.736 282.335 144.789 282.417C145.148 282.971 145.68 283.383 146.316 283.585C146.601 283.675 146.885 283.72 147.177 283.72C147.634 283.72 148.084 283.608 148.503 283.391C149.035 283.114 149.446 282.687 149.708 282.193C149.843 281.938 149.933 281.653 149.986 281.369C150.098 280.762 150.03 280.111 149.723 279.527C149.372 278.845 148.772 278.351 148.039 278.119C147.312 277.887 146.533 277.962 145.852 278.314C145.171 278.666 144.676 279.265 144.444 279.998C144.257 280.575 144.272 281.182 144.459 281.743Z" fill="#0D99FF"/>
<path d="M136.753 285.826C136.693 285.826 136.633 285.841 136.58 285.871L133.735 287.361C133.548 287.458 133.48 287.683 133.578 287.863C133.675 288.05 133.9 288.117 134.079 288.02L136.925 286.53C137.112 286.433 137.179 286.208 137.082 286.028C137.022 285.893 136.887 285.826 136.753 285.826Z" fill="#0D99FF"/>
<path d="M131.451 289.426C131.534 289.358 131.631 289.291 131.736 289.239C131.923 289.141 131.99 288.917 131.893 288.737C131.826 288.61 131.698 288.535 131.564 288.535C131.504 288.535 131.444 288.55 131.391 288.58C130.785 288.894 130.343 289.426 130.141 290.077C129.939 290.729 129.999 291.418 130.313 292.024L132.395 296C132.492 296.188 132.717 296.255 132.897 296.158C133.084 296.06 133.151 295.836 133.054 295.656L132.155 293.934L137.824 301.549C138.655 302.665 140.325 303.054 141.545 302.41L151.954 296.966C152.141 296.869 152.208 296.644 152.111 296.465C152.014 296.277 151.789 296.21 151.609 296.307L141.201 301.751C140.295 302.223 139.052 301.938 138.43 301.107L131.249 291.463C130.965 291.073 130.86 290.631 130.95 290.212C131.017 289.905 131.189 289.636 131.451 289.426Z" fill="#0D99FF"/>
<path d="M154.673 296.429L149.858 298.945C149.671 299.042 149.603 299.267 149.701 299.447C149.798 299.627 150.023 299.701 150.202 299.604L155.017 297.088C155.923 296.616 156.44 295.658 156.373 294.654L156.597 294.535C157.211 294.213 157.623 293.696 157.765 293.067C157.908 292.43 157.758 291.771 157.339 291.21L152.434 284.62C152.359 284.523 152.247 284.471 152.134 284.471C152.059 284.471 151.977 284.493 151.91 284.545C151.745 284.665 151.707 284.905 151.835 285.07L156.739 291.659C157.024 292.049 157.129 292.49 157.039 292.91C156.942 293.322 156.665 293.666 156.253 293.883L153.774 295.179C153.587 295.276 153.52 295.501 153.617 295.68C153.714 295.86 153.939 295.935 154.119 295.838L155.616 295.051C155.556 295.635 155.212 296.152 154.673 296.429Z" fill="#0D99FF"/>
<path d="M148.794 299.927C148.697 299.739 148.472 299.672 148.292 299.769L146.428 300.743C146.293 300.818 146.211 300.96 146.226 301.117L146.383 302.555C146.398 302.675 146.338 302.787 146.226 302.847L141.299 305.423C141.186 305.483 141.066 305.46 140.977 305.386L139.876 304.427C139.771 304.33 139.614 304.307 139.479 304.367C138.61 304.742 137.599 304.39 137.165 303.558L133.713 296.954C133.646 296.827 133.518 296.752 133.384 296.752C133.324 296.752 133.264 296.767 133.211 296.797C133.024 296.894 132.957 297.119 133.054 297.298L136.506 303.91C137.083 305.011 138.386 305.528 139.554 305.146L140.482 305.962C140.804 306.247 141.261 306.299 141.643 306.097L146.57 303.521C146.952 303.319 147.169 302.914 147.124 302.488L146.997 301.305L148.629 300.451C148.817 300.339 148.891 300.114 148.794 299.927Z" fill="#0D99FF"/>
<path d="M146.885 279.836C146.9 279.851 146.907 279.873 146.922 279.896C146.989 280.03 146.989 280.195 146.9 280.547C146.892 280.569 146.892 280.584 146.885 280.614C146.795 280.929 146.757 281.183 146.765 281.401C146.772 281.618 146.825 281.798 146.922 281.977C147.154 282.412 147.499 282.554 147.925 282.329C148.345 282.112 148.435 281.745 148.21 281.303L148.15 281.183L148.075 281.041L147.858 281.154L147.671 281.251L147.821 281.543C147.925 281.738 147.873 281.857 147.738 281.932C147.603 282.007 147.484 281.985 147.349 281.738C147.266 281.573 147.229 281.416 147.229 281.228C147.229 281.071 147.259 280.899 147.326 280.667C147.349 280.592 147.364 280.525 147.379 280.457C147.461 280.083 147.439 279.828 147.304 279.574L147.132 279.237L145.889 279.888L146.091 280.277L146.885 279.836Z" fill="#0D99FF"/>
<path d="M27.7711 420.198C27.6812 420.198 27.5914 420.228 27.524 420.296L19.961 426.975C19.4967 427.379 18.9426 427.566 18.396 427.484C17.8568 427.409 17.3851 427.087 17.0631 426.578L15.221 423.673C15.1087 423.5 14.8766 423.448 14.7044 423.56C14.5322 423.673 14.4797 423.905 14.5921 424.077L15.7901 425.964C14.9889 425.986 14.2251 425.597 13.7833 424.901L10.204 419.262C10.1366 419.15 10.0093 419.09 9.88951 419.09C9.82211 419.09 9.75471 419.105 9.68731 419.15C9.51509 419.262 9.46265 419.494 9.57497 419.667L13.1543 425.305C13.8133 426.346 15.0413 426.87 16.2394 426.668L16.4416 426.982C16.8834 427.679 17.5423 428.121 18.2986 428.225C19.0699 428.338 19.8337 428.091 20.4627 427.537L28.0257 420.857C28.1829 420.722 28.1979 420.483 28.0556 420.325C27.9733 420.243 27.8684 420.198 27.7711 420.198Z" fill="#0D99FF"/>
<path d="M24.7322 402.182C24.9044 402.069 24.9569 401.837 24.8446 401.665L22.7255 398.333C22.6581 398.22 22.5307 398.161 22.4109 398.161C22.3435 398.161 22.2761 398.175 22.2087 398.22C22.0365 398.333 21.9842 398.565 22.0965 398.737L24.2156 402.069C24.3279 402.234 24.56 402.286 24.7322 402.182Z" fill="#0D99FF"/>
<path d="M5.23246 409.349L12.9676 421.532C13.08 421.704 13.3121 421.757 13.4844 421.644C13.6566 421.532 13.7089 421.3 13.5966 421.128L5.86143 408.944C5.16504 407.844 5.39713 406.241 6.38556 405.373L17.4605 395.586C17.9248 395.174 18.4788 394.994 19.0255 395.076C19.4298 395.136 19.7968 395.331 20.0888 395.631C20.1862 395.735 20.276 395.848 20.3584 395.975C20.4482 396.117 20.6205 396.177 20.7778 396.132C20.8152 396.125 20.8452 396.117 20.8751 396.095C21.0099 396.012 21.0698 395.863 21.0473 395.72C21.0398 395.676 21.0248 395.623 20.9949 395.578C20.5605 394.889 19.8792 394.41 19.0854 394.238C18.8608 394.185 18.6361 394.163 18.4115 394.163C17.8424 394.163 17.2808 394.328 16.779 394.642L12.1215 397.6C11.9492 397.712 11.8968 397.944 12.0091 398.117C12.1215 398.289 12.3536 398.341 12.5259 398.229L15.4537 396.372L5.89891 404.819C4.64091 405.919 4.34886 407.949 5.23246 409.349Z" fill="#0D99FF"/>
<path d="M0.762131 409.865L4.42373 415.631C4.68582 416.043 5.18005 416.253 5.65929 416.163L7.14941 415.871L8.39996 417.833C8.51228 418.005 8.74436 418.057 8.91659 417.945C9.08882 417.833 9.14125 417.601 9.02893 417.428L7.64365 415.249C7.56128 415.122 7.40402 415.055 7.25426 415.085L5.50956 415.429C5.32985 415.466 5.15014 415.384 5.0528 415.234L1.39111 409.469C1.29376 409.319 1.30126 409.117 1.4061 408.967L2.46935 407.522C2.55921 407.402 2.56672 407.252 2.49933 407.125C1.93023 406.069 2.27472 404.736 3.28562 404.092L11.0208 399.18C11.193 399.068 11.2455 398.835 11.1331 398.663C11.0657 398.551 10.9384 398.491 10.8186 398.491C10.7512 398.491 10.6838 398.506 10.6164 398.551L2.88123 403.463C1.60825 404.272 1.13648 405.904 1.73553 407.267L0.807012 408.532C0.514977 408.914 0.500048 409.446 0.762131 409.865Z" fill="#0D99FF"/>
<path d="M35.8279 411.738C37.1158 413.767 36.5167 416.463 34.4875 417.751C33.3942 418.44 32.1138 418.582 30.9606 418.252L29.77 419.301C29.6203 419.435 29.3806 419.42 29.2383 419.271C29.1035 419.113 29.1185 418.881 29.2683 418.739L30.1668 417.945C29.4929 417.601 28.8939 417.084 28.4671 416.403C27.2241 414.448 27.7482 411.88 29.5977 410.54L25.1648 403.561C25.0525 403.388 25.1049 403.156 25.2772 403.044C25.3371 403.007 25.4119 402.984 25.4793 402.984C25.6066 402.984 25.7264 403.044 25.7938 403.156L30.2343 410.158C30.8408 409.858 31.4922 409.708 32.1362 409.708C33.5889 409.716 35.0042 410.435 35.8279 411.738ZM35.1989 412.142C34.2179 410.6 32.271 410.068 30.6536 410.809C30.5038 410.877 30.3541 410.936 30.2193 411.026C30.1444 411.071 30.0845 411.139 30.0096 411.191C28.512 412.307 28.0852 414.403 29.1036 416.006C29.5229 416.665 30.1145 417.137 30.7884 417.406C31.058 417.519 31.3425 417.593 31.6345 417.638C31.8068 417.661 31.979 417.683 32.1587 417.683C32.8176 417.683 33.4915 417.504 34.0906 417.122C35.7679 416.051 36.2622 413.819 35.1989 412.142Z" fill="#0D99FF"/>
<path d="M32.7665 412.657L33.373 413.608C33.3505 413.631 33.3281 413.638 33.3056 413.653C33.1334 413.758 32.9312 413.773 32.422 413.683C32.07 413.616 31.793 413.601 31.5534 413.616C31.2464 413.638 30.9993 413.713 30.7596 413.863C30.2504 414.185 30.1157 414.627 30.4302 415.121C30.7447 415.615 31.2014 415.682 31.7106 415.36L31.9427 415.218L32.0252 415.166L31.9577 415.053L31.7256 414.687L31.3811 414.904C31.1565 415.046 30.9993 415.001 30.902 414.844C30.7971 414.687 30.812 414.537 31.1041 414.35C31.3137 414.215 31.5309 414.155 31.808 414.147C31.9802 414.147 32.1674 414.162 32.422 414.207C32.4894 414.222 32.5493 414.222 32.6092 414.237C33.1184 414.312 33.4404 414.267 33.7624 414.065L34.1593 413.818L33.2382 412.365L32.7665 412.657Z" fill="#0D99FF"/>
<path d="M171.377 373.405L203.906 421.277C206.302 424.803 205.703 430.075 202.565 433.025L172.763 461.076C171.213 462.536 169.296 463.217 167.356 463.008C165.439 462.798 163.747 461.735 162.579 460.012L161.755 458.807C158.558 459.646 155.188 458.388 153.331 455.654L135.667 429.656L131.129 430.697C130.073 430.936 128.965 430.502 128.358 429.611L117.725 413.961C117.111 413.055 117.111 411.886 117.733 410.988L120.421 407.087C118.541 403.597 119.59 399.194 122.87 396.963L160.557 371.353C161.868 370.462 163.373 370.006 164.923 370.006C165.409 370.006 165.904 370.05 166.398 370.148C168.188 370.492 169.768 371.421 170.921 372.806C171.078 372.986 171.228 373.195 171.377 373.405ZM161.306 458.14L130.051 412.141C127.654 408.614 128.253 403.343 131.391 400.392L161.194 372.349C161.838 371.743 162.541 371.279 163.283 370.949C162.474 371.144 161.688 371.481 160.976 371.967L123.289 397.577C120.264 399.628 119.343 403.732 121.185 406.914C121.26 407.042 121.252 407.199 121.17 407.311L118.347 411.407C117.905 412.051 117.897 412.89 118.339 413.534L128.972 429.184C129.407 429.82 130.2 430.135 130.957 429.963L135.749 428.862C135.899 428.825 136.056 428.892 136.146 429.019L153.96 455.228C155.585 457.624 158.498 458.762 161.306 458.14ZM203.292 421.696L170.763 373.832C170.636 373.637 170.494 373.458 170.352 373.278C169.341 372.065 168 371.323 166.525 371.159C164.81 370.972 163.096 371.586 161.71 372.888L131.908 400.931C129.032 403.642 128.478 408.479 130.672 411.714L163.2 459.586C164.241 461.121 165.754 462.072 167.446 462.251C167.648 462.274 167.851 462.281 168.053 462.281C169.565 462.281 171.033 461.667 172.254 460.522L202.056 432.471C204.939 429.768 205.486 424.931 203.292 421.696Z" fill="#0D99FF"/>
<path d="M12.2936 213.475C10.1969 211.468 9.88246 208.285 11.3876 205.927C11.4699 205.799 11.5523 205.68 11.6421 205.56C11.6646 205.53 11.6871 205.492 11.7096 205.462C11.8294 205.305 11.9641 205.148 12.1064 204.998L42.4632 173.361C43.7661 172.006 45.6531 171.302 47.5401 171.302C48.9404 171.302 50.3406 171.691 51.5013 172.492L76.9758 190.164C78.3237 191.1 79.1473 192.441 79.2971 193.938C79.4469 195.413 78.9152 196.866 77.807 198.027L77.0807 198.783C78.1814 201.037 77.777 203.74 76.0323 205.56L59.5885 222.7L61.0486 225.845C61.4155 226.631 61.2659 227.545 60.6668 228.166L50.7451 238.515C50.1535 239.129 49.2324 239.324 48.4387 238.994L45.1739 237.639C42.8526 239.571 39.3931 239.481 37.2065 237.377L12.2936 213.475ZM11.3726 209.012C11.4999 210.285 12.2113 211.438 13.3719 212.239L38.8465 229.911C39.8798 230.63 41.1303 230.974 42.3883 230.974C44.0731 230.974 45.7579 230.345 46.9186 229.132L77.2679 197.495C78.2188 196.499 78.6756 195.256 78.5558 193.998C78.4285 192.725 77.7172 191.572 76.5565 190.771L51.082 173.099C48.6559 171.414 45.0391 171.758 43.0098 173.87L12.6605 205.507C12.653 205.515 12.6456 205.522 12.6381 205.53C12.5258 205.65 12.4209 205.769 12.3161 205.897C12.2262 206.009 12.1514 206.121 12.069 206.241C12.054 206.256 12.0465 206.279 12.0315 206.294C11.5074 207.14 11.2752 208.068 11.3726 209.012ZM12.2262 212.262C12.3985 212.494 12.5932 212.726 12.8103 212.935L37.7233 236.83C39.6926 238.717 42.8226 238.754 44.8518 236.92C44.9567 236.823 45.114 236.8 45.2487 236.852L48.7307 238.298C49.2399 238.507 49.8315 238.388 50.2059 237.991L60.1276 227.642C60.5095 227.238 60.6069 226.654 60.3748 226.152L58.8022 222.775C58.7348 222.633 58.7648 222.468 58.8696 222.356L75.4857 205.036C76.9459 203.508 77.3278 201.277 76.5116 199.36L47.4503 229.656C45.1814 232.023 41.1303 232.412 38.4121 230.525L12.9376 212.853C12.683 212.673 12.4509 212.471 12.2262 212.262Z" fill="#0D99FF"/>
<path d="M25.8181 51.4161C24.6799 50.3228 24.4178 48.668 25.0243 47.3051C25.0917 47.1479 25.1742 46.9906 25.264 46.8409C25.3464 46.7061 25.4587 46.5863 25.5636 46.459C25.616 46.3991 25.6534 46.3317 25.7058 46.2718L43.3178 27.911C44.1041 27.0948 45.2422 26.6679 46.3804 26.6679C47.2266 26.6679 48.0653 26.9001 48.7692 27.3868L63.5507 37.6455C64.3669 38.2146 64.8686 39.0308 64.9659 39.9444C65.0558 40.8504 64.7337 41.734 64.0598 42.4379L63.7079 42.8048C64.3144 44.1526 64.0598 45.7401 63.0265 46.8109L53.5615 56.6803L54.3628 58.41C54.6024 58.9192 54.4976 59.5257 54.1082 59.9301L48.3498 65.9355C47.9604 66.3474 47.3688 66.4747 46.8372 66.25L45.0326 65.5012C43.6249 66.6094 41.5805 66.5346 40.2776 65.2841L25.8181 51.4161ZM63.1463 43.3964L46.4478 60.8062C45.085 62.2289 42.6364 62.4686 41.004 61.3304L27.3981 51.8878L40.8018 64.745C41.8801 65.7783 43.6024 65.8008 44.7256 64.7899C44.8304 64.6925 44.9877 64.67 45.1225 64.7225L47.1442 65.5611C47.3838 65.6585 47.6534 65.6061 47.8257 65.4189L53.584 59.4134C53.7562 59.2262 53.8011 58.9566 53.6963 58.7245L52.7828 56.7626C52.7154 56.6203 52.7453 56.4556 52.8502 56.3433L62.4948 46.2943C63.2362 45.5155 63.4758 44.3998 63.1463 43.3964ZM25.5486 48.6979C25.616 49.3943 26.0053 50.0158 26.6418 50.4576L41.4233 60.7163C41.9999 61.1132 42.6963 61.3079 43.3927 61.3079C44.3287 61.3079 45.2647 60.956 45.9087 60.2895L63.5207 41.9287C64.0449 41.3821 64.292 40.7081 64.2246 40.0267C64.1572 39.3303 63.7678 38.7088 63.1313 38.267L48.3498 28.0083C47.0019 27.0723 44.9951 27.267 43.8719 28.4351L26.2599 46.7959C26.1251 46.9307 26.0128 47.0805 25.9155 47.2378C25.8406 47.3501 25.7882 47.4699 25.7358 47.5897C25.571 47.9416 25.5111 48.316 25.5486 48.6979Z" fill="#0D99FF"/>
<path d="M161.158 81.0254L173.424 67.2473C173.558 67.09 173.551 66.8579 173.394 66.7157C173.326 66.6557 173.236 66.6183 173.146 66.6183C173.042 66.6183 172.944 66.6632 172.869 66.7456L160.851 80.2466L156.358 76.248C156.201 76.1132 155.969 76.1207 155.826 76.2779C155.684 76.4352 155.699 76.6673 155.856 76.8096L160.634 81.0553C160.784 81.1976 161.023 81.1827 161.158 81.0254Z" fill="#0D99FF"/>
<path d="M200.702 35.4747L175.093 64.2439C174.958 64.4012 174.966 64.6333 175.123 64.7756C175.28 64.9104 175.512 64.9029 175.655 64.7457L201.519 35.6918C201.586 35.6169 201.616 35.5196 201.616 35.4223C201.608 35.3249 201.563 35.2276 201.489 35.1677L197.415 31.5434C197.348 31.4835 197.258 31.4461 197.168 31.4461C197.063 31.4461 196.966 31.491 196.891 31.5734C196.756 31.7306 196.764 31.9628 196.921 32.105L200.702 35.4747Z" fill="#0D99FF"/>
<path d="M194.591 30.0378C194.748 30.1726 194.98 30.1651 195.123 30.0079C195.257 29.8506 195.25 29.6185 195.093 29.4762L189.971 24.916C189.903 24.8561 189.813 24.8186 189.724 24.8186C189.619 24.8186 189.521 24.8635 189.447 24.9459C189.312 25.1032 189.319 25.3353 189.476 25.4776L194.591 30.0378Z" fill="#0D99FF"/>
<path d="M162.348 2.14473L162.745 1.69546L184.131 20.7302C184.288 20.865 184.521 20.8575 184.663 20.7003C184.798 20.543 184.79 20.3109 184.633 20.1686L162.97 0.886736C162.902 0.82683 162.813 0.789387 162.723 0.789387C162.618 0.789387 162.521 0.834303 162.446 0.916672L161.794 1.64304C161.659 1.80029 161.667 2.03244 161.824 2.17471C161.981 2.3095 162.214 2.30198 162.348 2.14473Z" fill="#0D99FF"/>
<path d="M119.86 56.0671L118.767 37.2795C118.76 37.2121 118.782 37.1522 118.812 37.0923C118.819 37.0773 118.827 37.0623 118.834 37.0473C118.842 37.0324 118.849 37.0174 118.857 37.0024L150.359 1.6137C150.434 1.53133 150.539 1.48637 150.636 1.48637C150.726 1.48637 150.816 1.51633 150.884 1.58372L156.994 7.02009L159.338 4.39176C159.412 4.30939 159.517 4.26447 159.615 4.26447C159.704 4.26447 159.794 4.29443 159.862 4.36182C160.019 4.49661 160.026 4.7362 159.892 4.89345L157.548 7.52178L189.395 35.8643C189.47 35.9317 189.515 36.0215 189.522 36.1188C189.53 36.2162 189.492 36.3136 189.425 36.3884L149.071 81.7214C149.004 81.7963 148.914 81.8412 148.817 81.8487C148.719 81.8562 148.622 81.8187 148.547 81.7513L119.973 56.3218C119.958 56.3143 119.958 56.2993 119.943 56.2843C119.935 56.2693 119.92 56.2618 119.913 56.2468C119.89 56.1944 119.868 56.1345 119.86 56.0671ZM119.673 37.2271L129.333 45.8234C129.49 45.9582 129.498 46.1978 129.363 46.3551L120.766 56.0147L148.779 80.9501L188.631 36.1787L157.069 8.08339L156.507 7.5892L150.681 2.39995L119.673 37.2271ZM119.568 38.1406L120.085 47.0814L120.549 55.1236L128.546 46.1379L119.568 38.1406Z" fill="#0D99FF"/>
<path d="M149.2 41.7052L145.141 46.2654C145.006 46.4227 145.014 46.6548 145.171 46.7971C145.328 46.9319 145.56 46.9244 145.703 46.7672L149.761 42.2069L154.321 46.2654C154.479 46.4002 154.711 46.3927 154.853 46.2355C154.988 46.0782 154.98 45.8461 154.823 45.7038L150.263 41.6453L154.321 37.0851C154.456 36.9278 154.449 36.6957 154.291 36.5534C154.224 36.4935 154.134 36.456 154.044 36.456C153.939 36.456 153.842 36.5009 153.767 36.5833L149.709 41.1436L145.148 37.0851C145.081 37.0251 144.991 36.9877 144.901 36.9877C144.797 36.9877 144.699 37.0326 144.624 37.115C144.49 37.2722 144.497 37.5044 144.654 37.6467L149.2 41.7052Z" fill="#0D99FF"/>
<path d="M118.639 344.18L113.113 346.374C112.918 346.449 112.828 346.666 112.903 346.861C112.978 347.055 113.195 347.145 113.39 347.07L119.26 344.734C119.455 344.659 119.545 344.442 119.47 344.247L112.731 327.287C112.671 327.137 112.529 327.047 112.386 327.047C112.341 327.047 112.296 327.055 112.252 327.077C112.057 327.152 111.967 327.369 112.042 327.564L118.639 344.18Z" fill="#0D99FF"/>
<path d="M96.9701 288.236C96.9252 288.236 96.8802 288.244 96.8353 288.266L91.8258 290.258C91.6311 290.333 91.5412 290.55 91.6161 290.745C91.691 290.94 91.9082 291.029 92.1029 290.955L96.7679 289.105L110.831 324.509C110.905 324.703 111.123 324.793 111.317 324.718C111.512 324.643 111.602 324.426 111.527 324.232L97.3295 288.483C97.2547 288.326 97.1199 288.236 96.9701 288.236Z" fill="#0D99FF"/>
<path d="M82.943 294.587L89.248 292.078C89.4426 292.004 89.5325 291.786 89.4576 291.592C89.3977 291.442 89.2555 291.352 89.1132 291.352C89.0683 291.352 89.0233 291.36 88.9784 291.382L82.6734 293.891C82.4787 293.965 82.3889 294.183 82.4638 294.377C82.5312 294.565 82.7483 294.662 82.943 294.587Z" fill="#0D99FF"/>
<path d="M76.5856 296.705C76.5257 296.556 76.3835 296.466 76.2412 296.466C76.1963 296.466 76.1514 296.473 76.1065 296.496L49.4488 307.084C49.2541 307.159 49.1643 307.376 49.2392 307.571L49.5986 308.469C49.6735 308.664 49.8906 308.754 50.0853 308.679C50.28 308.604 50.3698 308.387 50.2949 308.192L50.0778 307.645L76.391 297.192C76.5708 297.117 76.6605 296.9 76.5856 296.705Z" fill="#0D99FF"/>
<path d="M114.739 355.233C114.776 355.323 114.776 355.428 114.731 355.517C114.694 355.607 114.619 355.682 114.529 355.72L79.3649 369.685C79.3499 369.692 79.3349 369.692 79.3124 369.692C79.2974 369.7 79.2825 369.7 79.2675 369.7C79.2001 369.707 79.1402 369.707 79.0728 369.677L61.9849 362.309C61.925 362.279 61.8727 362.234 61.8352 362.182C61.8277 362.167 61.8202 362.159 61.8127 362.144C61.8052 362.129 61.7903 362.122 61.7828 362.1L44.4853 318.549C44.4104 318.354 44.5003 318.137 44.6949 318.062L52.2055 315.082L50.9251 311.847C50.8502 311.652 50.94 311.435 51.1347 311.36C51.1796 311.345 51.2246 311.33 51.2695 311.33C51.4193 311.33 51.5615 311.42 51.6139 311.57L52.8945 314.805L92.0797 299.237C92.1246 299.222 92.1695 299.207 92.2144 299.207C92.3642 299.207 92.5065 299.297 92.5589 299.447L114.739 355.233ZM78.5486 368.637L74.1606 357.592L63.1157 361.98L70.8284 365.304L78.5486 368.637ZM113.9 355.166L92.0198 300.076L53.1864 315.501L52.4901 315.778L45.3239 318.624L62.3445 361.478L74.2281 356.761C74.273 356.746 74.3179 356.731 74.3628 356.731C74.4152 356.731 74.4602 356.738 74.5126 356.761C74.6025 356.798 74.6773 356.873 74.7147 356.963L79.4323 368.846L113.9 355.166Z" fill="#0D99FF"/>
<path d="M85.5717 334.154C85.5268 334.154 85.4819 334.161 85.437 334.184L79.8284 336.415L77.597 330.807C77.5371 330.657 77.3947 330.567 77.2524 330.567C77.2075 330.567 77.1626 330.575 77.1177 330.597C76.923 330.672 76.8331 330.889 76.908 331.084L79.1395 336.692L73.5309 338.924C73.3362 338.999 73.2463 339.216 73.3212 339.411C73.3961 339.605 73.6133 339.695 73.8079 339.62L79.4165 337.389L81.648 342.997C81.7228 343.192 81.94 343.282 82.1347 343.207C82.3294 343.132 82.4193 342.915 82.3444 342.72L80.113 337.112L85.7215 334.88C85.9162 334.805 86.0061 334.588 85.9312 334.394C85.8638 334.244 85.7215 334.154 85.5717 334.154Z" fill="#0D99FF"/>
<path d="M87.3772 461.846C87.3173 461.696 87.1751 461.607 87.0328 461.607C86.9879 461.607 86.9429 461.614 86.898 461.637C86.7033 461.711 86.6135 461.929 86.6884 462.123L89.5113 469.23L87.2799 470.121C87.0852 470.195 86.9953 470.413 87.0702 470.607C87.1451 470.802 87.3623 470.892 87.557 470.817L90.1404 469.791C90.3351 469.716 90.4249 469.499 90.35 469.304L87.3772 461.846Z" fill="#0D99FF"/>
<path d="M78.1812 446.136L80.0384 445.402L86.1486 460.775C86.2235 460.97 86.4406 461.06 86.6353 460.985C86.83 460.91 86.9199 460.693 86.845 460.498L80.6 444.773C80.5625 444.683 80.4876 444.608 80.3978 444.571C80.3528 444.549 80.3004 444.541 80.248 444.541C80.203 444.541 80.1507 444.549 80.1132 444.571L77.9117 445.447C77.717 445.522 77.6272 445.739 77.7021 445.934C77.7695 446.121 77.9865 446.211 78.1812 446.136Z" fill="#0D99FF"/>
<path d="M74.1539 447.74L76.9245 446.639C77.1192 446.564 77.2091 446.347 77.1342 446.152C77.0743 446.003 76.932 445.913 76.7897 445.913C76.7448 445.913 76.6999 445.92 76.655 445.943L73.8843 447.043C73.6896 447.118 73.5998 447.335 73.6747 447.53C73.7421 447.717 73.9592 447.815 74.1539 447.74Z" fill="#0D99FF"/>
<path d="M71.4798 448.399C71.4199 448.25 71.2777 448.16 71.1354 448.16C71.0905 448.16 71.0455 448.167 71.0006 448.19L59.2742 452.847C59.1843 452.885 59.1095 452.96 59.0721 453.049C59.0346 453.139 59.0346 453.244 59.0646 453.334L59.2218 453.731C59.2967 453.926 59.5138 454.015 59.7085 453.941C59.9032 453.866 59.9931 453.648 59.9182 453.454L59.9032 453.409L71.2776 448.886C71.4573 448.804 71.5547 448.587 71.4798 448.399Z" fill="#0D99FF"/>
<path d="M88.2536 474.136C88.3285 474.33 88.2386 474.547 88.0439 474.622L72.581 480.763C72.566 480.77 72.5511 480.77 72.5286 480.77C72.5136 480.77 72.4986 480.778 72.4836 480.778C72.4162 480.785 72.3563 480.785 72.2889 480.755L64.7709 477.513C64.711 477.483 64.6586 477.438 64.6211 477.385C64.6136 477.37 64.6062 477.363 64.5987 477.348C64.5912 477.333 64.5762 477.326 64.5687 477.303L56.9608 458.149C56.9234 458.059 56.9234 457.954 56.9683 457.864C57.0057 457.774 57.0806 457.699 57.1705 457.662L60.2781 456.426L59.7913 455.198C59.7164 455.004 59.8063 454.786 60.001 454.712C60.0459 454.697 60.0908 454.682 60.1357 454.682C60.2855 454.682 60.4278 454.771 60.4803 454.921L60.9669 456.149L78.0023 449.38C78.0473 449.365 78.0922 449.35 78.1372 449.35C78.1896 449.35 78.2345 449.358 78.2869 449.38C78.3768 449.417 78.4516 449.492 78.4891 449.582L88.2536 474.136ZM71.7648 479.714L70.1025 475.521L65.9091 477.183L68.8369 478.449L71.7648 479.714ZM87.4224 474.061L77.9575 450.226L61.2665 456.853L60.5701 457.13L57.807 458.223L65.1378 476.682L70.1698 474.682C70.2147 474.667 70.2597 474.652 70.3046 474.652C70.3571 474.652 70.402 474.66 70.4544 474.682C70.5442 474.72 70.6191 474.795 70.6566 474.884L72.6558 479.916L87.4224 474.061Z" fill="#0D99FF"/>
<path d="M75.2315 464.729C75.1866 464.729 75.1416 464.737 75.0967 464.759L72.8204 465.665L71.9143 463.389C71.8543 463.239 71.7121 463.149 71.5698 463.149C71.5249 463.149 71.4799 463.157 71.435 463.179C71.2403 463.254 71.1505 463.471 71.2254 463.666L72.1314 465.942L69.855 466.848C69.6603 466.923 69.5705 467.14 69.6454 467.335C69.7203 467.53 69.9374 467.62 70.1321 467.545L72.4085 466.639L73.3145 468.908C73.3894 469.102 73.6066 469.192 73.8013 469.117C73.996 469.042 74.0858 468.825 74.011 468.631L73.1049 466.362L75.3738 465.456C75.5684 465.381 75.6583 465.164 75.5834 464.969C75.5235 464.819 75.3813 464.729 75.2315 464.729Z" fill="#0D99FF"/>
</svg>
