<svg width="206" height="481" viewBox="0 0 206 481" fill="none" xmlns="http://www.w3.org/2000/svg">
<path d="M97.3755 109.938C97.0086 110.432 96.8738 111.001 96.9936 111.54C97.1134 112.072 97.4728 112.514 98.0045 112.791L101.052 114.386C101.239 114.483 101.307 114.708 101.209 114.888C101.112 115.075 100.887 115.142 100.708 115.045L98.7234 114.011C98.7683 114.813 99.2176 115.539 99.9515 115.921L105.874 119.013C106.062 119.111 106.129 119.335 106.032 119.515C105.934 119.702 105.71 119.77 105.53 119.672L99.607 116.58C98.5137 116.003 97.8848 114.835 97.9896 113.615L97.6601 113.442C96.9337 113.06 96.4395 112.439 96.2673 111.698C96.0951 110.941 96.2748 110.155 96.7765 109.481L102.804 101.386C102.879 101.289 102.992 101.237 103.104 101.237C103.179 101.237 103.261 101.259 103.329 101.312C103.493 101.439 103.531 101.671 103.403 101.836L97.3755 109.938Z" fill="#0D99FF"/>
<path d="M120.777 102.621C120.875 102.441 120.8 102.209 120.62 102.119L113.274 98.278C114.068 96.2413 113.214 93.875 111.23 92.8417C110.601 92.5122 109.912 92.34 109.216 92.34C108.781 92.34 108.34 92.4074 107.905 92.5422C106.797 92.8866 105.884 93.6504 105.344 94.6837C104.745 95.8294 104.715 97.1174 105.135 98.2406L104.191 99.5136C104.064 99.6783 104.101 99.9179 104.266 100.038C104.431 100.158 104.663 100.128 104.79 99.9628L105.509 98.9969C105.906 99.6409 106.475 100.187 107.186 100.562C109.238 101.633 111.754 100.906 112.93 98.9445L120.261 102.778C120.455 102.876 120.68 102.808 120.777 102.621ZM112.593 97.9261C112.541 98.0758 112.488 98.2331 112.413 98.3754C112.368 98.4577 112.323 98.5251 112.271 98.6C111.597 99.6858 110.421 100.315 109.208 100.315C108.647 100.315 108.078 100.18 107.546 99.9029C106.857 99.5435 106.34 98.9894 106.011 98.3379C105.876 98.0684 105.786 97.7913 105.719 97.4993C105.532 96.6906 105.607 95.8219 106.026 95.0357C106.475 94.182 107.224 93.553 108.145 93.261C109.066 92.9689 110.039 93.0588 110.893 93.5081C112.496 94.3543 113.192 96.2562 112.593 97.9261Z" fill="#0D99FF"/>
<path d="M125.345 105.436L121.848 103.609C121.66 103.512 121.593 103.287 121.69 103.107C121.758 102.98 121.885 102.905 122.02 102.905C122.08 102.905 122.14 102.92 122.192 102.95L125.689 104.777C125.876 104.874 125.944 105.099 125.846 105.279C125.749 105.458 125.532 105.526 125.345 105.436Z" fill="#0D99FF"/>
<path d="M110.331 123.797L116.389 126.965C116.547 127.047 116.749 127.025 116.884 126.905L118.231 125.722C118.344 125.625 118.493 125.602 118.628 125.662C119.729 126.141 121.032 125.684 121.586 124.629L125.832 116.512C125.899 116.384 126.027 116.309 126.161 116.309C126.221 116.309 126.281 116.324 126.334 116.354C126.521 116.452 126.588 116.676 126.491 116.856L122.245 124.973C121.549 126.306 119.961 126.92 118.553 126.433L117.37 127.467C117.003 127.789 116.464 127.849 116.037 127.624L109.98 124.456C109.545 124.224 109.298 123.76 109.351 123.273L109.515 121.761L107.456 120.682C107.269 120.585 107.201 120.36 107.299 120.181C107.396 119.993 107.621 119.926 107.801 120.023L110.092 121.222C110.227 121.296 110.309 121.439 110.294 121.596L110.099 123.356C110.077 123.543 110.167 123.715 110.331 123.797Z" fill="#0D99FF"/>
<path d="M127.306 115.283C127.208 115.47 126.984 115.538 126.804 115.44C126.617 115.343 126.549 115.118 126.647 114.939L128.249 111.868L120.634 122.097C119.638 123.438 117.639 123.902 116.171 123.131L103.381 116.444C103.194 116.346 103.127 116.122 103.224 115.942C103.321 115.755 103.546 115.687 103.726 115.785L116.515 122.472C117.669 123.078 119.249 122.704 120.027 121.648L128.848 109.794C129.215 109.3 129.35 108.731 129.23 108.192C129.14 107.795 128.916 107.443 128.586 107.181C128.474 107.091 128.354 107.009 128.219 106.941C128.032 106.844 127.965 106.619 128.062 106.44C128.129 106.312 128.257 106.237 128.392 106.237C128.451 106.237 128.511 106.252 128.564 106.282C129.283 106.657 129.822 107.293 130.061 108.072C130.301 108.851 130.234 109.674 129.852 110.401L127.306 115.283Z" fill="#0D99FF"/>
<path d="M109.574 95.4558C109.559 95.4783 109.544 95.5008 109.529 95.5232C109.439 95.703 109.439 95.9051 109.574 96.3993C109.671 96.7438 109.709 97.0209 109.716 97.2605C109.723 97.5675 109.664 97.8221 109.536 98.0692C109.252 98.6083 108.825 98.7731 108.308 98.5035C107.792 98.2339 107.679 97.7846 107.964 97.2455L108.091 97.0059L108.136 96.9235L108.256 96.9834L108.638 97.1856L108.451 97.545C108.323 97.7847 108.383 97.9344 108.548 98.0168C108.713 98.1066 108.862 98.0767 109.02 97.7772C109.139 97.5525 109.177 97.3354 109.162 97.0583C109.147 96.8861 109.117 96.6989 109.05 96.4518C109.027 96.3844 109.02 96.3245 109.005 96.2646C108.885 95.7629 108.907 95.4409 109.08 95.1039L109.297 94.6921L110.824 95.4933L110.57 95.9725L109.574 95.4558Z" fill="#0D99FF"/>
<path d="M20.803 193.153C20.5484 192.022 20.818 190.846 21.5668 189.843L31.0393 177.113C31.1141 177.016 31.2265 176.963 31.3388 176.963C31.4137 176.963 31.496 176.986 31.5634 177.038C31.7281 177.166 31.7656 177.398 31.6383 177.562L22.1659 190.292C21.5519 191.123 21.3271 192.074 21.5293 192.988C21.7315 193.887 22.3381 194.635 23.2291 195.1L28.029 197.608C28.2162 197.705 28.2836 197.93 28.1863 198.11C28.0889 198.297 27.8643 198.364 27.6846 198.267L24.255 196.47C24.1951 197.938 24.9739 199.33 26.2993 200.019L35.607 204.887C35.7942 204.984 35.8616 205.209 35.7642 205.388C35.6669 205.575 35.4423 205.643 35.2626 205.545L25.9548 200.678C24.2625 199.795 23.319 197.968 23.5362 196.088L22.8922 195.751C21.7915 195.189 21.0501 194.261 20.803 193.153Z" fill="#0D99FF"/>
<path d="M58.7754 178.319L47.0565 172.194C47.6706 170.748 47.7529 169.146 47.2736 167.633C46.742 165.941 45.5888 164.556 44.0163 163.74C43.0504 163.238 42.0095 162.983 40.9462 162.983C40.2798 162.983 39.6058 163.088 38.9544 163.29C37.262 163.822 35.8768 164.975 35.0606 166.548C34.2369 168.12 34.0797 169.917 34.6113 171.61C34.6637 171.774 34.7236 171.924 34.7835 172.081L33.226 174.171C33.0987 174.335 33.1362 174.575 33.3009 174.695C33.4656 174.815 33.6977 174.785 33.825 174.62L35.1354 172.853C35.757 173.976 36.693 174.897 37.8611 175.503C39.4336 176.327 41.2308 176.484 42.9231 175.953C44.548 175.444 45.8883 174.35 46.7195 172.868L58.4234 178.985C58.6106 179.083 58.8353 179.008 58.9252 178.828C59.03 178.641 58.9626 178.409 58.7754 178.319ZM46.3976 171.842C46.3302 172.006 46.2553 172.179 46.1654 172.343C46.1354 172.403 46.098 172.456 46.0606 172.516C45.3192 173.819 44.1436 174.785 42.7059 175.234C42.1218 175.414 41.5303 175.503 40.9387 175.503C40.0027 175.503 39.0742 175.279 38.2205 174.83C37.0823 174.238 36.1988 173.302 35.6522 172.164C35.5324 171.909 35.42 171.647 35.3301 171.37C35.3301 171.363 35.3301 171.355 35.3226 171.348C34.8584 169.85 35.0007 168.27 35.727 166.885C36.4534 165.492 37.6814 164.466 39.1865 163.994C40.6841 163.522 42.2791 163.665 43.6719 164.399C45.0647 165.125 46.0905 166.353 46.5623 167.858C46.9816 169.176 46.9143 170.576 46.3976 171.842Z" fill="#0D99FF"/>
<path d="M66.4129 183.148L60.9092 180.273C60.7219 180.175 60.6545 179.951 60.7518 179.771C60.8192 179.644 60.9466 179.569 61.0814 179.569C61.1413 179.569 61.2012 179.584 61.2536 179.614L66.7573 182.489C66.9445 182.586 67.012 182.811 66.9146 182.991C66.8173 183.178 66.5926 183.245 66.4129 183.148Z" fill="#0D99FF"/>
<path d="M71.5573 185.926C71.3701 185.776 71.1679 185.642 70.9433 185.522C70.7561 185.424 70.6886 185.2 70.786 185.02C70.8534 184.893 70.9807 184.818 71.1155 184.818C71.1754 184.818 71.2353 184.833 71.2877 184.863C71.4225 184.938 71.5573 185.013 71.6846 185.095C71.767 185.155 71.8493 185.215 71.9317 185.275C71.9691 185.305 72.0066 185.327 72.0365 185.357C72.2088 185.499 72.366 185.649 72.5083 185.814C73.7962 187.199 74.1481 189.288 73.2271 191.055L69.206 198.738C69.1087 198.925 68.884 198.993 68.7043 198.895C68.5171 198.798 68.4497 198.573 68.547 198.394L72.3286 191.168L58.7377 209.424C57.2325 211.446 54.2073 212.149 51.9909 210.989L31.8778 200.475C31.6906 200.378 31.6233 200.153 31.7206 199.974C31.818 199.787 32.0426 199.719 32.2223 199.816L52.3353 210.33C54.2373 211.326 56.8356 210.719 58.1311 208.974L71.9991 190.337C72.6131 189.505 72.8377 188.554 72.6355 187.641C72.4932 186.959 72.1114 186.375 71.5573 185.926Z" fill="#0D99FF"/>
<path d="M38.1305 206.631C38.2278 206.443 38.4525 206.376 38.6322 206.473L42.2265 208.353C42.3613 208.428 42.4436 208.57 42.4287 208.727L42.1216 211.498C42.0767 211.872 42.2714 212.232 42.6009 212.404L52.1183 217.383C52.4478 217.556 52.8596 217.511 53.1367 217.264L55.2633 215.407C55.3681 215.309 55.5254 215.287 55.6602 215.347C57.4948 216.148 59.6588 215.384 60.5798 213.624L67.2517 200.857C67.3191 200.73 67.4464 200.655 67.5812 200.655C67.6411 200.655 67.7011 200.67 67.7535 200.7C67.9407 200.797 68.008 201.022 67.9107 201.202L61.2388 213.969C60.1755 216.006 57.7269 216.927 55.5778 216.125L53.6234 217.833C53.1142 218.282 52.3654 218.364 51.7663 218.05L42.249 213.07C41.6424 212.748 41.2904 212.104 41.3728 211.415L41.65 208.899L38.2803 207.14C38.1081 207.042 38.0332 206.818 38.1305 206.631Z" fill="#0D99FF"/>
<path d="M41.5147 167.647C41.4847 167.685 41.4698 167.722 41.4473 167.76C41.305 168.037 41.305 168.359 41.5222 169.145C41.5446 169.227 41.5596 169.302 41.5821 169.385C41.6644 169.714 41.7169 170.006 41.7394 170.268C41.7918 170.86 41.6944 171.316 41.4548 171.773C41.013 172.619 40.339 172.882 39.5228 172.455C38.7066 172.028 38.5344 171.324 38.9762 170.478L39.2458 169.961L40.0321 170.373L39.7325 170.942C39.5378 171.317 39.6276 171.549 39.8897 171.691C40.1518 171.826 40.3839 171.788 40.6385 171.309C40.8557 170.897 40.9306 170.515 40.8482 169.961C40.8183 169.744 40.7659 169.512 40.691 169.235C40.6835 169.205 40.6835 169.19 40.676 169.16C40.4214 168.239 40.4439 167.685 40.7434 167.116L41.0804 166.464L43.4766 167.722L43.0797 168.479L41.5147 167.647Z" fill="#0D99FF"/>
<path d="M67.8877 285.195L61.9571 282.095C62.2342 281.346 62.2716 280.545 62.0245 279.774C61.7325 278.853 61.1035 278.097 60.2498 277.655C59.7257 277.378 59.1566 277.243 58.58 277.243C58.2131 277.243 57.8536 277.295 57.4942 277.408C56.5731 277.7 55.8169 278.329 55.3751 279.182C54.8884 280.118 54.8584 281.167 55.1954 282.088L54.4391 283.099C54.3118 283.263 54.3492 283.503 54.5139 283.623C54.6787 283.75 54.9108 283.713 55.0381 283.548L55.5698 282.836C55.8993 283.338 56.3336 283.765 56.9027 284.065C57.7563 284.514 58.7372 284.596 59.6582 284.312C60.4894 284.05 61.1708 283.503 61.6276 282.777L67.5432 285.869C67.723 285.967 67.9551 285.892 68.045 285.712C68.1423 285.517 68.0674 285.293 67.8877 285.195ZM61.2907 281.743C61.2383 281.893 61.1859 282.035 61.1185 282.178C61.0736 282.26 61.0136 282.335 60.9612 282.417C60.6017 282.971 60.0701 283.383 59.4337 283.585C59.1491 283.675 58.8645 283.72 58.5725 283.72C58.1157 283.72 57.6664 283.608 57.2471 283.391C56.7154 283.114 56.3036 282.687 56.0415 282.193C55.9067 281.938 55.8169 281.653 55.7645 281.369C55.6522 280.762 55.7195 280.111 56.0265 279.527C56.3785 278.845 56.9775 278.351 57.7114 278.119C58.4377 277.887 59.2165 277.962 59.8979 278.314C60.5793 278.666 61.0736 279.265 61.3057 279.998C61.4929 280.575 61.4779 281.182 61.2907 281.743Z" fill="#0D99FF"/>
<path d="M68.9975 285.826C69.0574 285.826 69.1174 285.841 69.1698 285.871L72.0152 287.361C72.2024 287.458 72.2698 287.683 72.1724 287.863C72.0751 288.05 71.8505 288.117 71.6708 288.02L68.8253 286.53C68.6381 286.433 68.5707 286.208 68.668 286.028C68.7279 285.893 68.8627 285.826 68.9975 285.826Z" fill="#0D99FF"/>
<path d="M74.2987 289.426C74.2164 289.358 74.119 289.291 74.0142 289.239C73.827 289.141 73.7595 288.917 73.8569 288.737C73.9243 288.61 74.0516 288.535 74.1864 288.535C74.2463 288.535 74.3062 288.55 74.3586 288.58C74.9651 288.894 75.407 289.426 75.6091 290.077C75.8113 290.729 75.7514 291.418 75.4369 292.024L73.3552 296C73.2579 296.188 73.0332 296.255 72.8535 296.158C72.6663 296.06 72.5989 295.836 72.6963 295.656L73.5948 293.934L67.9264 301.549C67.0952 302.665 65.4253 303.054 64.2048 302.41L53.7963 296.966C53.6091 296.869 53.5417 296.644 53.639 296.465C53.7363 296.277 53.961 296.21 54.1407 296.307L64.5492 301.751C65.4553 302.223 66.6983 301.938 67.3198 301.107L74.5009 291.463C74.7855 291.073 74.8902 290.631 74.8004 290.212C74.733 289.905 74.5608 289.636 74.2987 289.426Z" fill="#0D99FF"/>
<path d="M51.0773 296.429L55.8921 298.945C56.0793 299.042 56.1467 299.267 56.0494 299.447C55.952 299.627 55.7274 299.701 55.5477 299.604L50.7328 297.088C49.8267 296.616 49.3101 295.658 49.3775 294.654L49.1528 294.535C48.5388 294.213 48.127 293.696 47.9847 293.067C47.8424 292.43 47.9921 291.771 48.4115 291.21L53.3162 284.62C53.3911 284.523 53.5034 284.471 53.6158 284.471C53.6906 284.471 53.773 284.493 53.8403 284.545C54.0051 284.665 54.0425 284.905 53.9152 285.07L49.0106 291.659C48.726 292.049 48.6212 292.49 48.711 292.91C48.8084 293.322 49.0855 293.666 49.4973 293.883L51.9758 295.179C52.163 295.276 52.2305 295.501 52.1331 295.68C52.0358 295.86 51.8111 295.935 51.6314 295.838L50.1338 295.051C50.1937 295.635 50.5381 296.152 51.0773 296.429Z" fill="#0D99FF"/>
<path d="M56.9559 299.927C57.0532 299.739 57.2779 299.672 57.4576 299.769L59.3221 300.743C59.4569 300.818 59.5393 300.96 59.5243 301.117L59.367 302.555C59.352 302.675 59.412 302.787 59.5243 302.847L64.4514 305.423C64.5638 305.483 64.6835 305.46 64.7734 305.386L65.8742 304.427C65.979 304.33 66.1362 304.307 66.271 304.367C67.1396 304.742 68.1506 304.39 68.5849 303.558L72.0369 296.954C72.1043 296.827 72.2315 296.752 72.3663 296.752C72.4262 296.752 72.4862 296.767 72.5386 296.797C72.7258 296.894 72.7932 297.119 72.6959 297.298L69.2438 303.91C68.6673 305.011 67.3643 305.528 66.1961 305.146L65.2676 305.962C64.9456 306.247 64.4889 306.299 64.107 306.097L59.1798 303.521C58.7979 303.319 58.5808 302.914 58.6257 302.488L58.753 301.305L57.1206 300.451C56.9334 300.339 56.8585 300.114 56.9559 299.927Z" fill="#0D99FF"/>
<path d="M58.8654 279.836C58.8505 279.851 58.8429 279.873 58.828 279.896C58.7606 280.03 58.7606 280.195 58.8505 280.547C58.8579 280.569 58.858 280.584 58.8654 280.614C58.9553 280.929 58.9927 281.183 58.9852 281.401C58.9777 281.618 58.9253 281.798 58.828 281.977C58.5958 282.412 58.2514 282.554 57.8246 282.329C57.4053 282.112 57.3154 281.745 57.54 281.303L57.5999 281.183L57.6748 281.041L57.892 281.154L58.0792 281.251L57.9294 281.543C57.8246 281.738 57.877 281.857 58.0118 281.932C58.1466 282.007 58.2664 281.985 58.4012 281.738C58.4836 281.573 58.5209 281.416 58.5209 281.228C58.5209 281.071 58.491 280.899 58.4236 280.667C58.4011 280.592 58.3862 280.525 58.3712 280.457C58.2888 280.083 58.3113 279.828 58.4461 279.574L58.6183 279.237L59.8613 279.888L59.6591 280.277L58.8654 279.836Z" fill="#0D99FF"/>
<path d="M177.979 420.198C178.069 420.198 178.159 420.228 178.226 420.296L185.789 426.975C186.253 427.379 186.807 427.566 187.354 427.484C187.893 427.409 188.365 427.087 188.687 426.578L190.529 423.673C190.641 423.5 190.873 423.448 191.046 423.56C191.218 423.673 191.27 423.905 191.158 424.077L189.96 425.964C190.761 425.986 191.525 425.597 191.967 424.901L195.546 419.262C195.613 419.15 195.741 419.09 195.86 419.09C195.928 419.09 195.995 419.105 196.063 419.15C196.235 419.262 196.287 419.494 196.175 419.667L192.596 425.305C191.937 426.346 190.709 426.87 189.511 426.668L189.308 426.982C188.867 427.679 188.208 428.121 187.451 428.225C186.68 428.338 185.916 428.091 185.287 427.537L177.724 420.857C177.567 420.722 177.552 420.483 177.694 420.325C177.777 420.243 177.882 420.198 177.979 420.198Z" fill="#0D99FF"/>
<path d="M181.018 402.182C180.846 402.069 180.793 401.837 180.905 401.665L183.025 398.333C183.092 398.22 183.219 398.161 183.339 398.161C183.406 398.161 183.474 398.175 183.541 398.22C183.713 398.333 183.766 398.565 183.654 398.737L181.534 402.069C181.422 402.234 181.19 402.286 181.018 402.182Z" fill="#0D99FF"/>
<path d="M200.518 409.349L192.782 421.532C192.67 421.704 192.438 421.757 192.266 421.644C192.093 421.532 192.041 421.3 192.153 421.128L199.889 408.944C200.585 407.844 200.353 406.241 199.364 405.373L188.29 395.586C187.825 395.174 187.271 394.994 186.725 395.076C186.32 395.136 185.953 395.331 185.661 395.631C185.564 395.735 185.474 395.848 185.392 395.975C185.302 396.117 185.129 396.177 184.972 396.132C184.935 396.125 184.905 396.117 184.875 396.095C184.74 396.012 184.68 395.863 184.703 395.72C184.71 395.676 184.725 395.623 184.755 395.578C185.189 394.889 185.871 394.41 186.665 394.238C186.889 394.185 187.114 394.163 187.339 394.163C187.908 394.163 188.469 394.328 188.971 394.642L193.629 397.6C193.801 397.712 193.853 397.944 193.741 398.117C193.629 398.289 193.396 398.341 193.224 398.229L190.296 396.372L199.851 404.819C201.109 405.919 201.401 407.949 200.518 409.349Z" fill="#0D99FF"/>
<path d="M204.988 409.865L201.326 415.631C201.064 416.043 200.57 416.253 200.091 416.163L198.601 415.871L197.35 417.833C197.238 418.005 197.006 418.057 196.833 417.945C196.661 417.833 196.609 417.601 196.721 417.428L198.106 415.249C198.189 415.122 198.346 415.055 198.496 415.085L200.24 415.429C200.42 415.466 200.6 415.384 200.697 415.234L204.359 409.469C204.456 409.319 204.449 409.117 204.344 408.967L203.281 407.522C203.191 407.402 203.183 407.252 203.251 407.125C203.82 406.069 203.475 404.736 202.464 404.092L194.729 399.18C194.557 399.068 194.505 398.835 194.617 398.663C194.684 398.551 194.812 398.491 194.931 398.491C194.999 398.491 195.066 398.506 195.134 398.551L202.869 403.463C204.142 404.272 204.614 405.904 204.014 407.267L204.943 408.532C205.235 408.914 205.25 409.446 204.988 409.865Z" fill="#0D99FF"/>
<path d="M169.922 411.738C168.634 413.767 169.233 416.463 171.263 417.751C172.356 418.44 173.636 418.582 174.789 418.252L175.98 419.301C176.13 419.435 176.369 419.42 176.512 419.271C176.646 419.113 176.631 418.881 176.482 418.739L175.583 417.945C176.257 417.601 176.856 417.084 177.283 416.403C178.526 414.448 178.002 411.88 176.152 410.54L180.585 403.561C180.698 403.388 180.645 403.156 180.473 403.044C180.413 403.007 180.338 402.984 180.271 402.984C180.143 402.984 180.024 403.044 179.956 403.156L175.516 410.158C174.909 409.858 174.258 409.708 173.614 409.708C172.161 409.716 170.746 410.435 169.922 411.738ZM170.551 412.142C171.532 410.6 173.479 410.068 175.096 410.809C175.246 410.877 175.396 410.936 175.531 411.026C175.606 411.071 175.666 411.139 175.74 411.191C177.238 412.307 177.665 414.403 176.646 416.006C176.227 416.665 175.636 417.137 174.962 417.406C174.692 417.519 174.407 417.593 174.115 417.638C173.943 417.661 173.771 417.683 173.591 417.683C172.932 417.683 172.258 417.504 171.659 417.122C169.982 416.051 169.488 413.819 170.551 412.142Z" fill="#0D99FF"/>
<path d="M172.984 412.657L172.377 413.608C172.399 413.631 172.422 413.638 172.444 413.653C172.617 413.758 172.819 413.773 173.328 413.683C173.68 413.616 173.957 413.601 174.197 413.616C174.504 413.638 174.751 413.713 174.99 413.863C175.5 414.185 175.634 414.627 175.32 415.121C175.005 415.615 174.549 415.682 174.039 415.36L173.807 415.218L173.725 415.166L173.792 415.053L174.024 414.687L174.369 414.904C174.594 415.046 174.751 415.001 174.848 414.844C174.953 414.687 174.938 414.537 174.646 414.35C174.436 414.215 174.219 414.155 173.942 414.147C173.77 414.147 173.583 414.162 173.328 414.207C173.261 414.222 173.201 414.222 173.141 414.237C172.632 414.312 172.31 414.267 171.988 414.065L171.591 413.818L172.512 412.365L172.984 412.657Z" fill="#0D99FF"/>
<path d="M34.3725 373.405L1.84428 421.277C-0.55191 424.803 0.0470734 430.075 3.18459 433.025L32.9873 461.076C34.5373 462.536 36.4542 463.217 38.3936 463.008C40.3106 462.798 42.0029 461.735 43.1711 460.012L43.9947 458.807C47.1922 459.646 50.5618 458.388 52.4188 455.654L70.0833 429.656L74.6211 430.697C75.6769 430.936 76.7852 430.502 77.3917 429.611L88.0248 413.961C88.6388 413.055 88.6388 411.886 88.0173 410.988L85.3291 407.087C87.2086 403.597 86.1603 399.194 82.8805 396.963L45.1929 371.353C43.8825 370.462 42.3773 370.006 40.8273 370.006C40.3406 370.006 39.8464 370.05 39.3521 370.148C37.5625 370.492 35.9825 371.421 34.8293 372.806C34.6721 372.986 34.5223 373.195 34.3725 373.405ZM44.4441 458.14L75.6994 412.141C78.0956 408.614 77.4965 403.343 74.359 400.392L44.5563 372.349C43.9124 371.743 43.2085 371.279 42.4672 370.949C43.2759 371.144 44.0622 371.481 44.7735 371.967L82.4612 397.577C85.4864 399.628 86.4074 403.732 84.5653 406.914C84.4904 407.042 84.4979 407.199 84.5803 407.311L87.4033 411.407C87.8451 412.051 87.8526 412.89 87.4108 413.534L76.7777 429.184C76.3433 429.82 75.5496 430.135 74.7933 429.963L70.001 428.862C69.8512 428.825 69.6939 428.892 69.6041 429.019L51.7899 455.228C50.165 457.624 47.2521 458.762 44.4441 458.14ZM2.45827 421.696L34.9866 373.832C35.1139 373.637 35.2561 373.458 35.3984 373.278C36.4093 372.065 37.7497 371.323 39.2248 371.159C40.9396 370.972 42.6544 371.586 44.0397 372.888L73.8424 400.931C76.7178 403.642 77.2719 408.479 75.0778 411.714L42.5496 459.586C41.5087 461.121 39.9961 462.072 38.3038 462.251C38.1016 462.274 37.8995 462.281 37.6973 462.281C36.1847 462.281 34.7171 461.667 33.4965 460.522L3.69382 432.471C0.810898 429.768 0.264252 424.931 2.45827 421.696Z" fill="#0D99FF"/>
<path d="M193.456 213.475C195.553 211.468 195.868 208.285 194.362 205.927C194.28 205.799 194.198 205.68 194.108 205.56C194.085 205.53 194.063 205.492 194.04 205.462C193.921 205.305 193.786 205.148 193.644 204.998L163.287 173.361C161.984 172.006 160.097 171.302 158.21 171.302C156.81 171.302 155.409 171.691 154.249 172.492L128.774 190.164C127.426 191.1 126.603 192.441 126.453 193.938C126.303 195.413 126.835 196.866 127.943 198.027L128.669 198.783C127.569 201.037 127.973 203.74 129.718 205.56L146.162 222.7L144.701 225.845C144.334 226.631 144.484 227.545 145.083 228.166L155.005 238.515C155.596 239.129 156.518 239.324 157.311 238.994L160.576 237.639C162.897 239.571 166.357 239.481 168.543 237.377L193.456 213.475ZM194.377 209.012C194.25 210.285 193.539 211.438 192.378 212.239L166.904 229.911C165.87 230.63 164.62 230.974 163.362 230.974C161.677 230.974 159.992 230.345 158.831 229.132L128.482 197.495C127.531 196.499 127.074 195.256 127.194 193.998C127.322 192.725 128.033 191.572 129.193 190.771L154.668 173.099C157.094 171.414 160.711 171.758 162.74 173.87L193.089 205.507C193.097 205.515 193.104 205.522 193.112 205.53C193.224 205.65 193.329 205.769 193.434 205.897C193.524 206.009 193.599 206.121 193.681 206.241C193.696 206.256 193.703 206.279 193.718 206.294C194.243 207.14 194.475 208.068 194.377 209.012ZM193.524 212.262C193.352 212.494 193.157 212.726 192.94 212.935L168.027 236.83C166.057 238.717 162.927 238.754 160.898 236.92C160.793 236.823 160.636 236.8 160.501 236.852L157.019 238.298C156.51 238.507 155.919 238.388 155.544 237.991L145.622 227.642C145.241 227.238 145.143 226.654 145.375 226.152L146.948 222.775C147.015 222.633 146.985 222.468 146.88 222.356L130.264 205.036C128.804 203.508 128.422 201.277 129.238 199.36L158.3 229.656C160.569 232.023 164.62 232.412 167.338 230.525L192.812 212.853C193.067 212.673 193.299 212.471 193.524 212.262Z" fill="#0D99FF"/>
<path d="M179.932 51.4161C181.07 50.3228 181.332 48.668 180.726 47.3051C180.658 47.1479 180.576 46.9906 180.486 46.8409C180.404 46.7061 180.291 46.5863 180.186 46.459C180.134 46.3991 180.097 46.3317 180.044 46.2718L162.432 27.911C161.646 27.0948 160.508 26.6679 159.37 26.6679C158.523 26.6679 157.685 26.9001 156.981 27.3868L142.199 37.6455C141.383 38.2146 140.881 39.0308 140.784 39.9444C140.694 40.8504 141.016 41.734 141.69 42.4379L142.042 42.8048C141.436 44.1526 141.69 45.7401 142.724 46.8109L152.189 56.6803L151.387 58.41C151.148 58.9192 151.252 59.5257 151.642 59.9301L157.4 65.9355C157.79 66.3474 158.381 66.4747 158.913 66.25L160.717 65.5012C162.125 66.6094 164.169 66.5346 165.472 65.2841L179.932 51.4161ZM142.604 43.3964L159.302 60.8062C160.665 62.2289 163.114 62.4686 164.746 61.3304L178.352 51.8878L164.948 64.745C163.87 65.7783 162.148 65.8008 161.024 64.7899C160.92 64.6925 160.762 64.67 160.628 64.7225L158.606 65.5611C158.366 65.6585 158.097 65.6061 157.924 65.4189L152.166 59.4134C151.994 59.2262 151.949 58.9566 152.054 58.7245L152.967 56.7626C153.035 56.6203 153.005 56.4556 152.9 56.3433L143.255 46.2943C142.514 45.5155 142.274 44.3998 142.604 43.3964ZM180.201 48.6979C180.134 49.3943 179.745 50.0158 179.108 50.4576L164.327 60.7163C163.75 61.1132 163.054 61.3079 162.357 61.3079C161.421 61.3079 160.485 60.956 159.841 60.2895L142.229 41.9287C141.705 41.3821 141.458 40.7081 141.525 40.0267C141.593 39.3303 141.982 38.7088 142.619 38.267L157.4 28.0083C158.748 27.0723 160.755 27.267 161.878 28.4351L179.49 46.7959C179.625 46.9307 179.737 47.0805 179.835 47.2378C179.909 47.3501 179.962 47.4699 180.014 47.5897C180.179 47.9416 180.239 48.316 180.201 48.6979Z" fill="#0D99FF"/>
<path d="M44.592 81.0254L32.3265 67.2473C32.1917 67.09 32.1992 66.8579 32.3565 66.7157C32.4239 66.6557 32.5137 66.6183 32.6035 66.6183C32.7084 66.6183 32.8057 66.6632 32.8806 66.7456L44.899 80.2466L49.3919 76.248C49.5491 76.1132 49.7812 76.1207 49.9235 76.2779C50.0658 76.4352 50.0508 76.6673 49.8935 76.8096L45.1161 81.0553C44.9664 81.1976 44.7268 81.1827 44.592 81.0254Z" fill="#0D99FF"/>
<path d="M5.04771 35.4747L30.657 64.2439C30.7918 64.4012 30.7842 64.6333 30.627 64.7756C30.4697 64.9104 30.2376 64.9029 30.0954 64.7457L4.23144 35.6918C4.16405 35.6169 4.13409 35.5196 4.13409 35.4223C4.14158 35.3249 4.18654 35.2276 4.26143 35.1677L8.33491 31.5434C8.4023 31.4835 8.49222 31.4461 8.58208 31.4461C8.68691 31.4461 8.78425 31.491 8.85913 31.5734C8.99392 31.7306 8.9864 31.9628 8.82915 32.105L5.04771 35.4747Z" fill="#0D99FF"/>
<path d="M11.1591 30.0378C11.0019 30.1726 10.7697 30.1651 10.6275 30.0079C10.4927 29.8506 10.5002 29.6185 10.6575 29.4762L15.7793 24.916C15.8467 24.8561 15.9365 24.8186 16.0264 24.8186C16.1312 24.8186 16.2285 24.8635 16.3034 24.9459C16.4382 25.1032 16.4308 25.3353 16.2735 25.4776L11.1591 30.0378Z" fill="#0D99FF"/>
<path d="M43.4017 2.14473L43.0048 1.69546L21.6188 20.7302C21.4616 20.865 21.2294 20.8575 21.0871 20.7003C20.9523 20.543 20.9599 20.3109 21.1171 20.1686L42.7801 0.886736C42.8475 0.82683 42.9374 0.789387 43.0273 0.789387C43.1321 0.789387 43.2295 0.834303 43.3043 0.916672L43.9558 1.64304C44.0906 1.80029 44.0831 2.03244 43.9258 2.17471C43.7686 2.3095 43.5365 2.30198 43.4017 2.14473Z" fill="#0D99FF"/>
<path d="M85.8897 56.0671L86.9829 37.2795C86.9904 37.2121 86.968 37.1522 86.938 37.0923C86.9306 37.0773 86.923 37.0623 86.9156 37.0473C86.9081 37.0324 86.9006 37.0174 86.8931 37.0024L55.3907 1.6137C55.3158 1.53133 55.211 1.48637 55.1136 1.48637C55.0238 1.48637 54.9338 1.51633 54.8664 1.58372L48.7562 7.02009L46.4124 4.39176C46.3376 4.30939 46.2327 4.26447 46.1354 4.26447C46.0455 4.26447 45.9556 4.29443 45.8882 4.36182C45.731 4.49661 45.7235 4.7362 45.8583 4.89345L48.2021 7.52178L16.3552 35.8643C16.2803 35.9317 16.2354 36.0215 16.2279 36.1188C16.2204 36.2162 16.2578 36.3136 16.3252 36.3884L56.6786 81.7214C56.746 81.7963 56.8358 81.8412 56.9332 81.8487C57.0305 81.8562 57.1278 81.8187 57.2027 81.7513L85.7773 56.3218C85.7923 56.3143 85.7924 56.2993 85.8073 56.2843C85.8148 56.2693 85.8297 56.2618 85.8372 56.2468C85.8597 56.1944 85.8822 56.1345 85.8897 56.0671ZM86.0769 37.2271L76.4172 45.8234C76.26 45.9582 76.2525 46.1978 76.3872 46.3551L84.9837 56.0147L56.9706 80.9501L17.119 36.1787L48.6813 8.08339L49.2429 7.5892L55.0686 2.39995L86.0769 37.2271ZM86.1817 38.1406L85.665 47.0814L85.2007 55.1236L77.2035 46.1379L86.1817 38.1406Z" fill="#0D99FF"/>
<path d="M56.5505 41.7052L60.6091 46.2654C60.7438 46.4227 60.7363 46.6548 60.5791 46.7971C60.4218 46.9319 60.1897 46.9244 60.0474 46.7672L55.9889 42.2069L51.4286 46.2654C51.2714 46.4002 51.0393 46.3927 50.897 46.2355C50.7622 46.0782 50.7696 45.8461 50.9269 45.7038L55.4872 41.6453L51.4286 37.0851C51.2938 36.9278 51.3014 36.6957 51.4586 36.5534C51.526 36.4935 51.6158 36.456 51.7057 36.456C51.8105 36.456 51.9079 36.5009 51.9827 36.5833L56.0413 41.1436L60.6016 37.0851C60.6689 37.0251 60.7588 36.9877 60.8486 36.9877C60.9535 36.9877 61.0508 37.0326 61.1257 37.115C61.2605 37.2722 61.253 37.5044 61.0958 37.6467L56.5505 41.7052Z" fill="#0D99FF"/>
<path d="M87.1111 344.18L92.6373 346.374C92.832 346.449 92.9219 346.666 92.847 346.861C92.7721 347.055 92.555 347.145 92.3603 347.07L86.4895 344.734C86.2949 344.659 86.2051 344.442 86.28 344.247L93.0192 327.287C93.0791 327.137 93.2214 327.047 93.3637 327.047C93.4086 327.047 93.4536 327.055 93.4985 327.077C93.6932 327.152 93.783 327.369 93.7081 327.564L87.1111 344.18Z" fill="#0D99FF"/>
<path d="M108.78 288.236C108.825 288.236 108.87 288.244 108.915 288.266L113.924 290.258C114.119 290.333 114.209 290.55 114.134 290.745C114.059 290.94 113.842 291.029 113.647 290.955L108.982 289.105L94.9194 324.509C94.8445 324.703 94.6274 324.793 94.4327 324.718C94.238 324.643 94.1482 324.426 94.223 324.232L108.42 288.483C108.495 288.326 108.63 288.236 108.78 288.236Z" fill="#0D99FF"/>
<path d="M122.807 294.587L116.502 292.078C116.307 292.004 116.217 291.786 116.292 291.592C116.352 291.442 116.495 291.352 116.637 291.352C116.682 291.352 116.727 291.36 116.772 291.382L123.077 293.891C123.271 293.965 123.361 294.183 123.286 294.377C123.219 294.565 123.002 294.662 122.807 294.587Z" fill="#0D99FF"/>
<path d="M129.164 296.705C129.224 296.556 129.367 296.466 129.509 296.466C129.554 296.466 129.599 296.473 129.644 296.496L156.301 307.084C156.496 307.159 156.586 307.376 156.511 307.571L156.151 308.469C156.077 308.664 155.859 308.754 155.665 308.679C155.47 308.604 155.38 308.387 155.455 308.192L155.672 307.645L129.359 297.192C129.179 297.117 129.089 296.9 129.164 296.705Z" fill="#0D99FF"/>
<path d="M91.0113 355.233C90.9739 355.323 90.9739 355.428 91.0188 355.517C91.0563 355.607 91.1312 355.682 91.221 355.72L126.385 369.685C126.4 369.692 126.415 369.692 126.438 369.692C126.453 369.7 126.467 369.7 126.482 369.7C126.55 369.707 126.61 369.707 126.677 369.677L143.765 362.309C143.825 362.279 143.877 362.234 143.915 362.182C143.922 362.167 143.93 362.159 143.937 362.144C143.945 362.129 143.96 362.122 143.967 362.1L161.265 318.549C161.34 318.354 161.25 318.137 161.055 318.062L153.544 315.082L154.825 311.847C154.9 311.652 154.81 311.435 154.615 311.36C154.57 311.345 154.525 311.33 154.48 311.33C154.331 311.33 154.188 311.42 154.136 311.57L152.856 314.805L113.67 299.237C113.625 299.222 113.581 299.207 113.536 299.207C113.386 299.207 113.244 299.297 113.191 299.447L91.0113 355.233ZM127.201 368.637L131.589 357.592L142.634 361.98L134.922 365.304L127.201 368.637ZM91.85 355.166L113.73 300.076L152.564 315.501L153.26 315.778L160.426 318.624L143.406 361.478L131.522 356.761C131.477 356.746 131.432 356.731 131.387 356.731C131.335 356.731 131.29 356.738 131.237 356.761C131.148 356.798 131.073 356.873 131.035 356.963L126.318 368.846L91.85 355.166Z" fill="#0D99FF"/>
<path d="M120.178 334.154C120.223 334.154 120.268 334.161 120.313 334.184L125.922 336.415L128.153 330.807C128.213 330.657 128.355 330.567 128.498 330.567C128.542 330.567 128.587 330.575 128.632 330.597C128.827 330.672 128.917 330.889 128.842 331.084L126.611 336.692L132.219 338.924C132.414 338.999 132.504 339.216 132.429 339.411C132.354 339.605 132.137 339.695 131.942 339.62L126.333 337.389L124.102 342.997C124.027 343.192 123.81 343.282 123.615 343.207C123.421 343.132 123.331 342.915 123.406 342.72L125.637 337.112L120.028 334.88C119.834 334.805 119.744 334.588 119.819 334.394C119.886 334.244 120.029 334.154 120.178 334.154Z" fill="#0D99FF"/>
<path d="M118.373 461.846C118.433 461.696 118.575 461.607 118.717 461.607C118.762 461.607 118.807 461.614 118.852 461.637C119.047 461.711 119.136 461.929 119.062 462.123L116.239 469.23L118.47 470.121C118.665 470.195 118.755 470.413 118.68 470.607C118.605 470.802 118.388 470.892 118.193 470.817L115.61 469.791C115.415 469.716 115.325 469.499 115.4 469.304L118.373 461.846Z" fill="#0D99FF"/>
<path d="M127.569 446.136L125.712 445.402L119.601 460.775C119.527 460.97 119.309 461.06 119.115 460.985C118.92 460.91 118.83 460.693 118.905 460.498L125.15 444.773C125.187 444.683 125.262 444.608 125.352 444.571C125.397 444.549 125.45 444.541 125.502 444.541C125.547 444.541 125.599 444.549 125.637 444.571L127.838 445.447C128.033 445.522 128.123 445.739 128.048 445.934C127.981 446.121 127.763 446.211 127.569 446.136Z" fill="#0D99FF"/>
<path d="M131.596 447.74L128.825 446.639C128.631 446.564 128.541 446.347 128.616 446.152C128.676 446.003 128.818 445.913 128.96 445.913C129.005 445.913 129.05 445.92 129.095 445.943L131.866 447.043C132.06 447.118 132.15 447.335 132.075 447.53C132.008 447.717 131.791 447.815 131.596 447.74Z" fill="#0D99FF"/>
<path d="M134.27 448.399C134.33 448.25 134.472 448.16 134.615 448.16C134.66 448.16 134.705 448.167 134.749 448.19L146.476 452.847C146.566 452.885 146.64 452.96 146.678 453.049C146.715 453.139 146.715 453.244 146.685 453.334L146.528 453.731C146.453 453.926 146.236 454.015 146.041 453.941C145.847 453.866 145.757 453.648 145.832 453.454L145.847 453.409L134.472 448.886C134.293 448.804 134.195 448.587 134.27 448.399Z" fill="#0D99FF"/>
<path d="M117.496 474.136C117.422 474.33 117.511 474.547 117.706 474.622L133.169 480.763C133.184 480.77 133.199 480.77 133.221 480.77C133.236 480.77 133.251 480.778 133.266 480.778C133.334 480.785 133.394 480.785 133.461 480.755L140.979 477.513C141.039 477.483 141.091 477.438 141.129 477.385C141.136 477.37 141.144 477.363 141.151 477.348C141.159 477.333 141.174 477.326 141.181 477.303L148.789 458.149C148.827 458.059 148.827 457.954 148.782 457.864C148.744 457.774 148.669 457.699 148.58 457.662L145.472 456.426L145.959 455.198C146.034 455.004 145.944 454.786 145.749 454.712C145.704 454.697 145.659 454.682 145.614 454.682C145.464 454.682 145.322 454.771 145.27 454.921L144.783 456.149L127.748 449.38C127.703 449.365 127.658 449.35 127.613 449.35C127.56 449.35 127.516 449.358 127.463 449.38C127.373 449.417 127.298 449.492 127.261 449.582L117.496 474.136ZM133.985 479.714L135.648 475.521L139.841 477.183L136.913 478.449L133.985 479.714ZM118.328 474.061L127.793 450.226L144.484 456.853L145.18 457.13L147.943 458.223L140.612 476.682L135.58 474.682C135.535 474.667 135.49 474.652 135.445 474.652C135.393 474.652 135.348 474.66 135.296 474.682C135.206 474.72 135.131 474.795 135.093 474.884L133.094 479.916L118.328 474.061Z" fill="#0D99FF"/>
<path d="M130.518 464.729C130.563 464.729 130.608 464.737 130.653 464.759L132.93 465.665L133.836 463.389C133.896 463.239 134.038 463.149 134.18 463.149C134.225 463.149 134.27 463.157 134.315 463.179C134.51 463.254 134.599 463.471 134.525 463.666L133.619 465.942L135.895 466.848C136.09 466.923 136.179 467.14 136.105 467.335C136.03 467.53 135.813 467.62 135.618 467.545L133.342 466.639L132.435 468.908C132.361 469.102 132.143 469.192 131.949 469.117C131.754 469.042 131.664 468.825 131.739 468.631L132.645 466.362L130.376 465.456C130.182 465.381 130.092 465.164 130.167 464.969C130.226 464.819 130.369 464.729 130.518 464.729Z" fill="#0D99FF"/>
</svg>
