<svg width="44" height="45" viewBox="0 0 44 45" fill="none" xmlns="http://www.w3.org/2000/svg">
<path d="M22 0.5C9.86976 0.5 0 10.3698 0 22.5C0 34.6302 9.86976 44.5 22 44.5C34.1302 44.5 44 34.6302 44 22.5C44 10.3698 34.1302 0.5 22 0.5Z" fill="white"/>
<path d="M10.5415 18.6166H15.4597V34.6444H10.5415V18.6166ZM13.004 10.6514C14.5748 10.6514 15.8506 11.9464 15.8506 13.5408C15.8506 15.1353 14.5748 16.4303 13.004 16.4303C11.4264 16.4303 10.1574 15.1353 10.1574 13.5408C10.1505 11.9464 11.4264 10.6514 13.004 10.6514ZM18.5395 34.6514H23.4439V26.721C23.4439 24.6322 23.8349 22.6061 26.3866 22.6061C28.904 22.6061 28.9383 24.9943 28.9383 26.8602V34.6514H33.8427V25.8576C33.8427 21.5408 32.9235 18.2197 27.9574 18.2197C25.5635 18.2197 23.9652 19.5495 23.3067 20.8098H23.245V18.6166H18.5326V34.6514H18.5395Z" fill="#0D99FF"/>
</svg>
