<svg width="24" height="25" viewBox="0 0 24 25" fill="none" xmlns="http://www.w3.org/2000/svg">
<path d="M0.541498 8.46519H5.45966V24.493H0.541498V8.46519ZM3.00401 0.5C4.5748 0.5 5.85063 1.79504 5.85063 3.38947C5.85063 4.9839 4.5748 6.27894 3.00401 6.27894C1.42636 6.27894 0.157376 4.9839 0.157376 3.38947C0.150517 1.79504 1.42636 0.5 3.00401 0.5ZM8.53949 24.5H13.4439V16.5696C13.4439 14.4809 13.8349 12.4547 16.3866 12.4547C18.904 12.4547 18.9383 14.8429 18.9383 16.7089V24.5H23.8427V15.7063C23.8427 11.3895 22.9235 8.06832 17.9574 8.06832C15.5635 8.06832 13.9652 9.39817 13.3067 10.6584H13.245V8.46519H8.53264V24.5H8.53949Z" fill="#011727"/>
</svg>
