<svg width="32" height="27" viewBox="0 0 32 27" fill="none" xmlns="http://www.w3.org/2000/svg">
<path d="M1.39504 19.5134L1.39062 19.509V3.48668C1.39062 2.51483 2.17692 1.72852 3.14874 1.72852H28.6193C29.5912 1.72852 30.3774 2.51483 30.3774 3.48668V12.2112" stroke="#1A2E3D" stroke-width="2" stroke-miterlimit="10"/>
<path d="M1.39851 19.5093H1.39453V7.23749C2.01738 6.74714 2.80367 6.45117 3.66065 6.45117C5.28182 6.45117 6.65121 7.50254 7.13712 8.96031C7.72463 8.61575 8.40491 8.42138 9.13377 8.42138C11.1525 8.42138 12.8179 9.93658 13.0564 11.8935C14.7748 12.0791 16.1265 13.4971 16.2016 15.2508" stroke="#1A2E3D" stroke-width="2" stroke-miterlimit="10"/>
<path d="M7.05982 19.4636C5.3366 21.3432 3.9491 23.5992 3.14823 25.724L3.15265 25.7285C2.18082 25.7285 1.39453 24.9421 1.39453 23.9703V19.513C1.39453 19.513 1.39718 19.5099 1.39851 19.5086C4.71242 15.6937 9.22477 17.3277 9.33918 17.3697" stroke="#1A2E3D" stroke-width="2" stroke-miterlimit="10"/>
<path d="M3.14844 25.7242H11.7058L11.7111 25.7207" stroke="#1A2E3D" stroke-width="2" stroke-miterlimit="10"/>
<path d="M18.875 16.3607L18.8768 16.3546C18.0052 15.7639 17.1081 15.4079 16.2043 15.2502C13.8569 14.8385 11.4626 15.7604 9.34187 17.3697C8.53702 17.9806 7.77105 18.6901 7.0625 19.4636" stroke="#1A2E3D" stroke-width="2" stroke-miterlimit="10"/>
<path d="M30.3788 23.967V12.212C18.6771 11.0502 11.7109 25.7251 11.7109 25.7251H28.6207C29.5925 25.7251 30.3788 24.9388 30.3788 23.967Z" stroke="#1A2E3D" stroke-width="2" stroke-miterlimit="10"/>
<path d="M21.7287 10.7309C23.0997 10.7309 24.2112 9.61938 24.2112 8.24826C24.2112 6.87714 23.0997 5.76562 21.7287 5.76562C20.3576 5.76562 19.2461 6.87714 19.2461 8.24826C19.2461 9.61938 20.3576 10.7309 21.7287 10.7309Z" stroke="#1A2E3D" stroke-width="2" stroke-miterlimit="10"/>
</svg>
