<svg width="357" height="326" viewBox="0 0 357 326" fill="none" xmlns="http://www.w3.org/2000/svg">
<g style="mix-blend-mode:multiply">
<ellipse cx="254.47" cy="102.21" rx="101.908" ry="101.929" fill="#E3F2FD"/>
</g>
<g style="mix-blend-mode:multiply">
<ellipse cx="133.857" cy="192.006" rx="133.248" ry="133.276" fill="#FFF5F9"/>
</g>
<path d="M258.802 62.1494H103.087C97.6055 62.1494 93.1287 66.5958 93.1287 72.1081V227.823C93.1287 233.305 97.575 237.782 103.087 237.782H258.802C264.284 237.782 268.761 233.335 268.761 227.823V72.1081C268.761 66.5958 264.284 62.1494 258.802 62.1494Z" fill="#0D99FF"/>
<path d="M262.694 74.668V225.236C262.694 228.83 259.8 231.723 256.207 231.723H105.639C102.076 231.723 99.1824 228.83 99.1824 225.236V74.668C99.1824 71.1048 102.076 68.1812 105.639 68.1812H256.237C259.8 68.1812 262.694 71.1048 262.694 74.668Z" fill="#85CDFF"/>
<path d="M255.484 224.501V75.4253H106.408V224.501H255.484Z" fill="white"/>
<path d="M106.408 205.863L165.064 152.05C168.81 148.639 174.505 148.669 178.19 152.11L255.484 224.501H106.408V205.863Z" fill="#0D99FF"/>
<path d="M262.701 191.639V224.47H162.749L226.917 167.702C229.84 165.022 234.317 165.053 237.21 167.763L262.701 191.639Z" fill="#85CDFF"/>
<path d="M224.141 120.106C231.328 120.106 237.176 114.259 237.176 107.071C237.176 99.8839 231.328 94.0366 224.141 94.0366C216.954 94.0366 211.106 99.8839 211.106 107.071C211.106 114.289 216.954 120.106 224.141 120.106Z" fill="#85CDFF"/>
<path d="M158.305 97.8105C158.305 97.8105 158.214 97.8105 158.184 97.8105C157.361 91.6282 152.062 86.8164 145.636 86.8164C139.21 86.8164 133.759 91.7196 133.028 98.0237C132.449 97.8715 131.84 97.7801 131.231 97.7801C127.272 97.7801 124.013 101.008 124.013 104.998C124.013 108.987 127.242 112.216 131.231 112.216H158.336C162.295 112.216 165.554 108.987 165.554 104.998C165.523 101.008 162.295 97.8105 158.305 97.8105Z" fill="#85CDFF"/>
<path d="M282.594 81.9448H228.385C226.436 81.9448 224.882 83.5285 224.882 85.4471V113.587C224.882 115.536 226.436 117.09 228.385 117.09H282.594C284.543 117.09 286.096 115.506 286.096 113.587V85.4471C286.096 83.5285 284.513 81.9448 282.594 81.9448Z" fill="#EA1A71"/>
<path d="M235.505 103.291L237.82 101.951C238.185 102.591 238.551 102.956 239.464 102.956C240.622 102.956 240.987 102.286 240.987 101.586V93.6982H243.637V101.556C243.637 104.114 241.84 105.515 239.464 105.515C237.576 105.545 236.267 104.753 235.505 103.291Z" fill="white"/>
<path d="M253.952 97.6876C253.952 99.8804 252.186 101.677 249.902 101.677H248.166V105.332H245.516V93.7285H249.902C252.186 93.7285 253.952 95.4949 253.952 97.6876ZM251.303 97.6876C251.303 96.8349 250.693 96.1953 249.902 96.1953H248.166V99.1799H249.902C250.693 99.1799 251.303 98.5404 251.303 97.6876Z" fill="white"/>
<path d="M262.577 102.774V105.332H255.299V93.7285H262.517V96.2867H257.948V98.2054H262.09V100.733H257.918V102.774H262.577Z" fill="white"/>
<path d="M275.456 99.8475C275.456 103.38 272.989 105.542 269.731 105.542C266.076 105.542 263.457 102.862 263.457 99.5125C263.457 96.1929 266.137 93.4824 269.548 93.4824C271.771 93.4824 273.629 94.5788 274.603 96.132L272.35 97.4111C271.863 96.6497 270.827 96.0406 269.518 96.0406C267.568 96.0406 266.107 97.472 266.107 99.5125C266.107 101.553 267.508 102.923 269.761 102.923C271.284 102.923 272.319 102.253 272.715 101.127H269.609V98.812H275.426L275.456 99.8475Z" fill="white"/>
<path d="M250.624 207.631L237.096 217.914L260.555 248.778L274.083 238.495L250.624 207.631Z" fill="#BC0658"/>
<path d="M297.577 283.043L297.181 283.347C291.578 287.611 283.538 286.515 279.274 280.911L262.25 258.527C257.986 252.923 259.083 244.883 264.686 240.619L265.082 240.315C270.686 236.051 278.726 237.148 282.99 242.751L300.014 265.135C304.277 270.739 303.211 278.779 297.577 283.043Z" fill="#EA1A71"/>
<path d="M228.563 246.836C258.502 246.836 282.773 222.565 282.773 192.626C282.773 162.687 258.502 138.417 228.563 138.417C198.624 138.417 174.354 162.687 174.354 192.626C174.354 222.565 198.624 246.836 228.563 246.836Z" fill="#4D5D68"/>
<path d="M228.564 239.346C254.365 239.346 275.281 218.43 275.281 192.629C275.281 166.827 254.365 145.911 228.564 145.911C202.762 145.911 181.846 166.827 181.846 192.629C181.846 218.43 202.762 239.346 228.564 239.346Z" fill="#AEDDFF"/>
<path d="M223.194 187.937C222.494 187.937 221.794 187.632 221.337 187.023L207.053 168.233C206.262 167.197 206.475 165.735 207.51 164.974C208.546 164.182 210.008 164.395 210.769 165.431L225.052 184.221C225.844 185.257 225.631 186.719 224.595 187.48C224.199 187.784 223.712 187.937 223.194 187.937Z" fill="#0D99FF"/>
<path d="M211.326 183.007L222.381 184.529L223.904 173.444L227.954 178.804L226.432 189.859L215.377 188.367L211.326 183.007Z" fill="#0D99FF"/>
<path d="M248.666 221.402C247.965 221.402 247.265 221.097 246.808 220.488L232.525 201.698C231.733 200.662 231.946 199.201 232.981 198.439C234.017 197.647 235.479 197.861 236.24 198.896L250.523 217.687C251.315 218.722 251.102 220.184 250.067 220.945C249.64 221.25 249.153 221.402 248.666 221.402Z" fill="#0D99FF"/>
<path d="M246.308 202.914L235.222 201.392L233.73 212.477L229.68 207.117L231.172 196.062L242.227 197.554L246.308 202.914Z" fill="#0D99FF"/>
<path d="M236.14 189.706C235.439 189.706 234.739 189.402 234.282 188.793C233.49 187.757 233.703 186.295 234.739 185.534L253.529 171.251C254.565 170.459 256.027 170.672 256.788 171.708C257.58 172.743 257.367 174.205 256.331 174.966L237.541 189.249C237.114 189.554 236.627 189.706 236.14 189.706Z" fill="#0D99FF"/>
<path d="M238.729 175.48L237.237 186.535L248.292 188.058L242.962 192.108L231.907 190.616L233.399 179.53L238.729 175.48Z" fill="#0D99FF"/>
<path d="M202.67 215.134C201.97 215.134 201.27 214.83 200.813 214.221C200.021 213.185 200.234 211.724 201.27 210.962L220.06 196.679C221.096 195.887 222.557 196.1 223.319 197.136C224.111 198.171 223.897 199.633 222.862 200.394L204.071 214.678C203.675 214.982 203.158 215.134 202.67 215.134Z" fill="#0D99FF"/>
<path d="M218.849 210.441L220.372 199.386L209.287 197.863L214.616 193.813L225.702 195.305L224.179 206.391L218.849 210.441Z" fill="#0D99FF"/>
<path d="M73.5379 105.717V99.1305H66.9021V94.5837H73.5379V87.9971H77.9618V94.5837H84.6222V99.1305H77.9618V105.717H73.5379Z" fill="#EA1A71"/>
<path d="M92.9069 49.7074L97.552 45.0623L92.8823 40.368L96.1019 37.1484L100.796 41.8427L105.441 37.1976L108.563 40.3189L103.917 44.964L108.612 49.6582L105.392 52.8778L100.698 48.1836L96.0528 52.8287L92.9069 49.7074Z" fill="#FEC603"/>
<path d="M65.6738 65.9047C60.0702 65.9047 55.5234 61.358 55.5234 55.7544C55.5234 50.1508 60.0702 45.604 65.6738 45.604C71.2774 45.604 75.8242 50.1508 75.8242 55.7544C75.8487 61.358 71.2774 65.9047 65.6738 65.9047ZM65.6738 50.0033C62.5033 50.0033 59.9227 52.5839 59.9227 55.7298C59.9227 58.9002 62.5033 61.4808 65.6738 61.4808C68.8443 61.4808 71.4249 58.9002 71.4249 55.7298C71.4249 52.5839 68.8443 50.0033 65.6738 50.0033Z" fill="#0D99FF"/>
</svg>
