<svg width="356" height="327" viewBox="0 0 356 327" fill="none" xmlns="http://www.w3.org/2000/svg">
<path fill-rule="evenodd" clip-rule="evenodd" d="M269.353 132.769C269.353 135.889 266.829 138.413 263.709 138.413C260.59 138.413 258.065 135.889 258.065 132.769C258.065 129.65 260.59 127.125 263.709 127.125C266.829 127.125 269.353 129.65 269.353 132.769ZM260.777 132.769C260.777 134.393 262.086 135.702 263.709 135.702C265.333 135.702 266.642 134.384 266.642 132.769C266.642 131.146 265.333 129.837 263.709 129.837C262.086 129.837 260.777 131.154 260.777 132.769Z" fill="#FEC603"/>
<g style="mix-blend-mode:multiply">
<circle cx="255.084" cy="99.944" r="99.9186" fill="#FFF5F9"/>
</g>
<g style="mix-blend-mode:multiply">
<circle cx="129.145" cy="197.988" r="128.922" fill="#E3F2FD"/>
</g>
<path d="M224.657 76.2921C225.303 75.6546 225.32 74.6091 224.682 73.9631C224.682 73.9631 224.665 73.9461 224.657 73.9376C223.994 73.2916 222.931 73.2916 222.277 73.9376L218.732 77.4396C218.086 78.0771 218.069 79.1141 218.707 79.7685C218.707 79.7685 218.724 79.7855 218.732 79.794C219.395 80.44 220.458 80.44 221.112 79.794L224.657 76.2921ZM216.361 84.4775C217.007 83.84 217.024 82.7945 216.386 82.1485C216.386 82.1485 216.369 82.1315 216.361 82.123C215.698 81.477 214.635 81.477 213.981 82.123L210.436 85.625C209.79 86.2625 209.773 87.308 210.419 87.9539L210.436 87.9709C211.091 88.6169 212.162 88.6169 212.816 87.9709L216.361 84.469V84.4775ZM224.657 87.9794C223.994 88.6254 222.931 88.6254 222.277 87.9794L218.732 84.4775C218.086 83.84 218.069 82.803 218.707 82.1485C218.707 82.1485 218.724 82.1315 218.732 82.123C219.395 81.477 220.458 81.477 221.112 82.123L224.657 85.625C225.303 86.2625 225.32 87.308 224.674 87.9539L224.657 87.9709V87.9794ZM213.972 79.794C214.635 80.44 215.698 80.44 216.352 79.794C216.998 79.1566 217.015 78.1111 216.378 77.4651C216.378 77.4651 216.361 77.4481 216.352 77.4396L212.808 73.9376C212.145 73.2916 211.082 73.2916 210.428 73.9376C209.782 74.5751 209.765 75.6206 210.402 76.2666C210.402 76.2666 210.419 76.2836 210.428 76.2921L213.972 79.794Z" fill="#FEC603"/>
<g clip-path="url(#clip0_3883_3549)">
<path d="M19.6118 128.427V122.216H13.3506V117.926H19.6118V111.715H23.7859V117.926H30.0749V122.216H23.7859V128.427H19.6118Z" fill="#EA1A71"/>
<path d="M37.8945 75.5068L42.2913 71.1061L37.8667 66.6775L40.8999 63.6416L45.3244 68.0702L49.7212 63.6695L52.6709 66.6218L48.2742 71.0226L52.7265 75.4511L49.6934 78.4871L45.241 74.0306L40.8442 78.4314L37.8945 75.5068Z" fill="#FEC603"/>
<path d="M12.2098 90.7979C6.92263 90.7979 2.60938 86.4808 2.60938 81.1888C2.60938 75.8967 6.92263 71.5796 12.2098 71.5796C17.497 71.5796 21.8103 75.8967 21.8103 81.1888C21.7825 86.5086 17.497 90.7979 12.2098 90.7979ZM12.2098 75.7853C9.2323 75.7853 6.78349 78.2085 6.78349 81.2166C6.78349 84.1968 9.20447 86.6479 12.2098 86.6479C15.1874 86.6479 17.6362 84.2247 17.6362 81.2166C17.6084 78.2085 15.1874 75.7853 12.2098 75.7853Z" fill="#0D99FF"/>
<path d="M81.9731 232.958V243.347V253.43H87.0656V243.347V232.958V222.959H81.9731V232.958Z" fill="#99A2A9"/>
<path d="M87.0656 202.571V191.987V182.183H81.9731V191.987V202.571V212.486H87.0656V202.571Z" fill="#99A2A9"/>
<path d="M87.0656 120.99V109.988V100.602H81.9731V109.988V120.99V130.488H87.0656V120.99Z" fill="#99A2A9"/>
<path d="M89.9318 281.589C89.4865 281.06 89.0691 280.503 88.7074 279.918V279.89C88.3735 279.305 88.0674 278.692 87.8169 278.079C87.8169 278.052 87.7891 278.024 87.7891 277.968C87.5665 277.355 87.3717 276.715 87.2604 276.074C87.2604 276.046 87.2604 276.018 87.2604 275.963C87.149 275.322 87.0934 274.681 87.0934 274.013C87.0934 273.985 87.0934 273.957 87.0934 273.929V263.708H82.001V273.957C82.001 274.459 82.0288 274.988 82.0566 275.489C82.0845 275.879 82.1679 276.241 82.2236 276.631C82.2514 276.743 82.2514 276.854 82.2792 276.965C82.3627 277.439 82.474 277.912 82.6132 278.358C82.6132 278.386 82.6132 278.386 82.6132 278.414C84.3941 284.764 89.8483 289.666 96.6939 290.418L97.2504 285.349C94.3285 285.043 91.7684 283.622 89.9318 281.589Z" fill="#99A2A9"/>
<path d="M87.0656 161.767V150.988V141.378H81.9731V150.988V161.767V171.459H87.0656V161.767Z" fill="#99A2A9"/>
<path d="M117.425 285.46H107.018V290.557H117.425H127.415H137.906V285.46H127.415H117.425Z" fill="#99A2A9"/>
<path d="M199.349 285.46H188.552V290.557H199.349H208.922H219.83V285.46H208.922H199.349Z" fill="#99A2A9"/>
<path d="M281.217 285.46H270.031V290.557H281.245H290.428H301.726V285.46H290.428H281.217Z" fill="#99A2A9"/>
<path d="M158.387 285.46H147.785V290.557H158.387H168.155H178.868V285.46H168.155H158.387Z" fill="#99A2A9"/>
<path d="M240.283 285.46H229.292V290.557H240.283H249.661H260.764V285.46H249.661H240.283Z" fill="#99A2A9"/>
<path d="M315.556 42.9473H95.8868C88.123 42.9473 81.8618 49.242 81.8618 56.985V276.882C81.8618 284.653 88.1508 290.919 95.8868 290.919H315.584C323.348 290.919 329.609 284.625 329.609 276.882V56.985C329.609 49.242 323.32 42.9473 315.556 42.9473Z" fill="#E6E7E8"/>
<path d="M321.066 60.6337V273.261C321.066 278.33 316.976 282.424 311.911 282.424H99.4765C94.4398 282.424 90.3491 278.33 90.3491 273.261V60.6337C90.3491 55.5924 94.4398 51.4702 99.4765 51.4702H311.911C316.976 51.4702 321.066 55.5924 321.066 60.6337Z" fill="#F1F2F2"/>
<path d="M310.854 272.174V61.6919H100.59V272.174H310.854Z" fill="white"/>
<path d="M100.59 245.882L183.349 169.9C188.608 165.081 196.678 165.137 201.882 170.011L310.854 272.175H100.59V245.882Z" fill="#0D99FF"/>
<path d="M321.066 225.828V272.175H180.093L270.588 192.015C274.706 188.255 281.051 188.282 285.113 192.098L321.066 225.828Z" fill="#F1F2F2"/>
<path d="M266.692 124.806C276.849 124.806 285.086 116.562 285.086 106.395C285.086 96.2292 276.849 87.9849 266.692 87.9849C256.535 87.9849 248.298 96.2292 248.298 106.395C248.298 116.562 256.535 124.806 266.692 124.806Z" fill="#F1F2F2"/>
<path d="M173.803 93.3049C173.803 93.3049 173.692 93.3049 173.609 93.3049C172.44 84.5592 164.954 77.791 155.883 77.791C146.811 77.791 139.131 84.7263 138.129 93.6392C137.322 93.4442 136.459 93.3049 135.569 93.3049C129.975 93.3049 125.412 97.8449 125.412 103.471C125.412 109.097 129.947 113.637 135.569 113.637H173.803C179.397 113.637 183.96 109.097 183.96 103.471C183.96 97.8449 179.425 93.2771 173.803 93.3049Z" fill="#F1F2F2"/>
<path d="M58.9043 241.453V250.338V258.945H63.2454V250.338V241.453V232.93H58.9043V241.453Z" fill="#99A2A9"/>
<path d="M63.2732 215.55V206.526V198.17H58.9321V206.526V215.55V223.989H63.2732V215.55Z" fill="#99A2A9"/>
<path d="M63.2732 145.946V136.56V128.539H58.9321V136.56V145.946V154.052H63.2732V145.946Z" fill="#99A2A9"/>
<path d="M65.722 282.954C65.3324 282.508 64.9707 282.035 64.6646 281.533C64.6646 281.533 64.6646 281.533 64.6646 281.505C64.3863 281.004 64.108 280.475 63.9132 279.973C63.9132 279.946 63.8854 279.918 63.8854 279.89C63.6906 279.361 63.5237 278.831 63.4402 278.274C63.4402 278.247 63.4402 278.219 63.4402 278.191C63.3289 277.634 63.301 277.077 63.301 276.52C63.301 276.492 63.301 276.464 63.301 276.436V267.718H58.96V276.464C58.96 276.91 58.9878 277.327 59.0156 277.773C59.0434 278.107 59.0991 278.414 59.1548 278.748C59.1826 278.859 59.1826 278.943 59.2104 279.026C59.2939 279.444 59.3774 279.834 59.4887 280.224C59.4887 280.224 59.4887 280.252 59.4887 280.28C60.9914 285.711 65.6664 289.889 71.5101 290.53L71.9832 286.212C69.4509 285.906 67.2804 284.708 65.722 282.954Z" fill="#99A2A9"/>
<path d="M63.2732 180.734V171.543V163.354H58.9321V171.543V180.734V189.006H63.2732V180.734Z" fill="#99A2A9"/>
<path d="M89.1807 286.268H80.3037V290.613H89.1807H97.6958H106.656V286.268H97.6958H89.1807Z" fill="#99A2A9"/>
<path d="M159.055 286.268H149.844V290.613H159.055H167.209H176.503V286.268H167.209H159.055Z" fill="#99A2A9"/>
<path d="M228.93 286.268H219.357V290.613H228.93H236.75H246.406V286.268H236.75H228.93Z" fill="#99A2A9"/>
<path d="M124.104 286.268H115.06V290.613H124.104H132.452H141.58V286.268H132.452H124.104Z" fill="#99A2A9"/>
<path d="M193.978 286.268H184.601V290.613H193.978H201.965H211.426V286.268H201.965H193.978Z" fill="#99A2A9"/>
<path d="M258.204 79.3506H70.7866C64.1637 79.3506 58.8208 84.7262 58.8208 91.3272V278.943C58.8208 285.572 64.1915 290.919 70.7866 290.919H258.232C264.855 290.919 270.198 285.544 270.198 278.943V91.3272C270.198 84.7262 264.827 79.3506 258.204 79.3506Z" fill="#BCBEC0"/>
<path d="M262.907 94.4469V275.851C262.907 280.168 259.429 283.65 255.116 283.65H73.8478C69.5346 283.65 66.0562 280.168 66.0562 275.851V94.4469C66.0562 90.1297 69.5346 86.6481 73.8478 86.6481H255.088C259.429 86.6203 262.907 90.1297 262.907 94.4469Z" fill="#E6E7E8"/>
<path d="M254.197 274.932V95.3657H74.7939V274.932H254.197Z" fill="white"/>
<path d="M74.7939 252.51L145.42 187.697C149.9 183.575 156.774 183.603 161.226 187.781L254.197 274.932H74.7939V252.51Z" fill="#E6E7E8"/>
<path d="M262.907 235.381V274.932H142.609L219.83 206.553C223.337 203.35 228.763 203.378 232.214 206.637L262.907 235.381Z" fill="#E6E7E8"/>
<path d="M216.519 149.205C225.201 149.205 232.214 142.158 232.214 133.496C232.214 124.806 225.173 117.787 216.519 117.787C207.865 117.787 200.824 124.834 200.824 133.496C200.824 142.158 207.865 149.205 216.519 149.205Z" fill="#E6E7E8"/>
<path d="M137.266 122.327C137.266 122.327 137.155 122.327 137.099 122.327C136.097 114.863 129.725 109.097 121.989 109.097C114.253 109.097 107.713 115.002 106.823 122.606C106.127 122.439 105.404 122.327 104.652 122.327C99.8661 122.327 95.9702 126.199 95.9702 131.017C95.9702 135.836 99.8382 139.707 104.652 139.707H137.266C142.052 139.707 145.948 135.836 145.948 131.017C145.948 126.199 142.052 122.299 137.266 122.327Z" fill="#E6E7E8"/>
<path d="M39.2305 248.973V256.493V263.791H42.9315V256.493V248.973V241.731H39.2305V248.973Z" fill="#99A2A9"/>
<path d="M42.9315 226.998V219.338V212.236H39.2305V219.338V226.998V234.156H42.9315V226.998Z" fill="#99A2A9"/>
<path d="M42.9315 167.978V160.012V153.216H39.2305V160.012V167.978V174.857H42.9315V167.978Z" fill="#99A2A9"/>
<path d="M44.9907 284.151C44.6568 283.761 44.3507 283.371 44.1003 282.954C44.1003 282.954 44.1003 282.954 44.1003 282.926C43.8498 282.508 43.6272 282.062 43.4602 281.617C43.4602 281.589 43.4602 281.561 43.4324 281.533C43.2654 281.087 43.1263 280.642 43.0428 280.168C43.0428 280.14 43.0428 280.113 43.0428 280.085C42.9593 279.611 42.9315 279.138 42.9315 278.664C42.9315 278.636 42.9315 278.636 42.9315 278.608V271.228H39.2305V278.636C39.2305 278.998 39.2305 279.388 39.2861 279.75C39.314 280.029 39.3696 280.308 39.3974 280.586C39.3974 280.67 39.4253 280.753 39.4253 280.837C39.4809 281.171 39.5644 281.505 39.6479 281.839V281.867C40.9279 286.463 44.8794 290 49.8605 290.557L50.278 286.881C48.1631 286.686 46.3265 285.655 44.9907 284.151Z" fill="#99A2A9"/>
<path d="M42.9315 197.474V189.675V182.74H39.2305V189.675V197.474V204.493H42.9315V197.474Z" fill="#99A2A9"/>
<path d="M64.8874 286.964H57.3462V290.669H64.8874H72.1225H79.7194V286.964H72.1225H64.8874Z" fill="#99A2A9"/>
<path d="M124.16 286.964H116.34V290.669H124.16H131.089H138.964V286.964H131.089H124.16Z" fill="#99A2A9"/>
<path d="M183.404 286.964H175.307V290.669H183.404H190.055H198.236V286.964H190.055H183.404Z" fill="#99A2A9"/>
<path d="M94.5236 286.964H86.8711V290.669H94.5236H101.592H109.356V286.964H101.592H94.5236Z" fill="#99A2A9"/>
<path d="M153.796 286.964H145.837V290.669H153.796H160.586H168.628V286.964H160.586H153.796Z" fill="#99A2A9"/>
<path d="M208.254 111.493H49.2761C43.655 111.493 39.1191 116.033 39.1191 121.659V280.781C39.1191 286.407 43.655 290.947 49.2761 290.947H208.254C213.875 290.947 218.411 286.407 218.411 280.781V121.659C218.411 116.033 213.875 111.493 208.254 111.493Z" fill="#0D99FF"/>
<path d="M212.234 124.277V278.135C212.234 281.811 209.284 284.764 205.611 284.764H51.892C48.2466 284.764 45.2969 281.811 45.2969 278.135V124.277C45.2969 120.628 48.2466 117.648 51.892 117.648H205.611C209.284 117.648 212.234 120.628 212.234 124.277Z" fill="#85CDFF"/>
<path d="M204.859 277.355V125.057H52.6987V277.355H204.859Z" fill="white"/>
<path d="M52.6987 258.332L112.583 203.351C116.396 199.869 122.239 199.897 125.996 203.434L204.859 277.355H52.6987V258.332Z" fill="#0D99FF"/>
<path d="M212.261 243.82V277.355H110.218L175.724 219.366C178.702 216.636 183.293 216.664 186.243 219.422L212.261 243.82Z" fill="#85CDFF"/>
<path d="M172.913 170.707C180.26 170.707 186.215 164.747 186.215 157.394C186.215 150.041 180.26 144.08 172.913 144.08C165.567 144.08 159.612 150.041 159.612 157.394C159.584 164.747 165.539 170.707 172.913 170.707Z" fill="#85CDFF"/>
<path d="M105.682 147.924C105.682 147.924 105.599 147.924 105.543 147.924C104.68 141.601 99.2819 136.699 92.7146 136.699C86.1473 136.699 80.6097 141.713 79.8583 148.175C79.274 148.035 78.6618 147.924 78.0217 147.924C73.9589 147.924 70.6753 151.21 70.6753 155.277C70.6753 159.343 73.9589 162.63 78.0217 162.63H105.682C109.745 162.63 113.029 159.343 113.029 155.277C113.029 151.21 109.745 147.924 105.682 147.924Z" fill="#85CDFF"/>
<path d="M232.52 131.714H177.199C175.223 131.714 173.609 133.329 173.609 135.307V164.051C173.609 166.028 175.223 167.644 177.199 167.644H232.547C234.523 167.644 236.137 166.028 236.137 164.051V135.307C236.109 133.329 234.495 131.714 232.52 131.714Z" fill="#EA1A71"/>
<path d="M196.956 147.813C196.956 150.069 195.147 151.879 192.81 151.879H191.029V155.611H188.33V143.746H192.81C195.147 143.746 196.956 145.557 196.956 147.813ZM194.257 147.813C194.257 146.949 193.645 146.281 192.81 146.281H191.029V149.317H192.81C193.645 149.317 194.257 148.676 194.257 147.813Z" fill="white"/>
<path d="M207.614 143.746V155.611H205.583L201.019 149.177V155.611H198.32V143.746H200.351L204.915 150.18V143.746H207.614Z" fill="white"/>
<path d="M221.389 150.013C221.389 153.634 218.856 155.834 215.545 155.834C211.816 155.834 209.145 153.077 209.145 149.679C209.145 146.281 211.872 143.496 215.35 143.496C217.604 143.496 219.524 144.61 220.526 146.197L218.216 147.506C217.715 146.727 216.658 146.114 215.322 146.114C213.319 146.114 211.844 147.59 211.844 149.679C211.844 151.768 213.263 153.16 215.573 153.16C217.131 153.16 218.188 152.464 218.606 151.322H215.434V148.955H221.389V150.013Z" fill="white"/>
<path d="M329.609 207.194H235.747V211.372H329.609V207.194Z" fill="#EA1A71"/>
<path d="M244.068 202.208L236.972 209.283L244.068 216.358H238.057L230.989 209.283L238.057 202.208H244.068Z" fill="#EA1A71"/>
<path d="M135.68 42.9473H131.506V97.0093H135.68V42.9473Z" fill="#EA1A71"/>
<path d="M126.525 88.6812L133.593 95.7557L140.689 88.6812V94.6973L133.593 101.772L126.525 94.6973V88.6812Z" fill="#EA1A71"/>
</g>
<defs>
<clipPath id="clip0_3883_3549">
<rect width="327" height="248" fill="white" transform="translate(2.60938 42.9473)"/>
</clipPath>
</defs>
</svg>
