<svg width="341" height="338" viewBox="0 0 341 338" fill="none" xmlns="http://www.w3.org/2000/svg">
<g style="mix-blend-mode:multiply">
<ellipse cx="105.893" cy="105.892" rx="105.893" ry="105.892" transform="matrix(-4.37112e-08 1 -1 1.78736e-06 340.609 125.311)" fill="#E3F2FD"/>
</g>
<g style="mix-blend-mode:multiply">
<ellipse cx="136.631" cy="136.63" rx="136.631" ry="136.63" transform="matrix(-4.37112e-08 1 -1 1.78736e-06 273.869 0.466797)" fill="#FFF5F9"/>
</g>
<g clip-path="url(#clip0_3883_3548)">
<path d="M306.512 236.303H45.6572V102.191C45.6572 93.9236 52.3258 87.2207 60.5513 87.2207H291.618C299.843 87.2207 306.512 93.9236 306.512 102.191V236.303Z" fill="#0D99FF"/>
<path d="M293.552 223.275V100.249L58.6191 100.249L58.6191 223.275L293.552 223.275Z" fill="#E4F4FF"/>
<path d="M223.66 107.695H128.275C124.902 107.695 122.178 110.433 122.178 113.824V209.7C122.178 213.09 124.902 215.829 128.275 215.829H223.66C227.033 215.829 229.758 213.09 229.758 209.7V113.824C229.758 110.433 227.033 107.695 223.66 107.695Z" fill="#0D99FF"/>
<path d="M226.047 115.415V208.135C226.047 210.352 224.283 212.125 222.077 212.125H129.832C127.653 212.125 125.862 210.352 125.862 208.135V115.415C125.862 113.224 127.627 111.425 129.832 111.425H222.077C224.283 111.399 226.047 113.198 226.047 115.415Z" fill="#85CDFF"/>
<path d="M221.636 207.665V115.858H130.299V207.639H221.636V207.665Z" fill="white"/>
<path d="M130.299 196.189L166.237 163.066C168.521 160.953 172.024 160.979 174.281 163.118L221.61 207.665H130.299V196.189Z" fill="#0D99FF"/>
<path d="M226.047 187.426V207.639H164.836L204.147 172.69C205.937 171.047 208.688 171.073 210.452 172.716L226.047 187.426Z" fill="#85CDFF"/>
<path d="M202.435 143.4C206.846 143.4 210.427 139.801 210.427 135.367C210.427 130.933 206.846 127.334 202.435 127.334C198.024 127.334 194.443 130.933 194.443 135.367C194.443 139.801 198.024 143.4 202.435 143.4Z" fill="#85CDFF"/>
<path d="M162.112 129.656C162.112 129.656 162.06 129.656 162.034 129.656C161.515 125.848 158.271 122.9 154.353 122.9C150.409 122.9 147.088 125.926 146.647 129.812C146.283 129.734 145.92 129.656 145.531 129.656C143.092 129.656 141.12 131.638 141.12 134.089C141.12 136.541 143.092 138.523 145.531 138.523H162.137C164.577 138.523 166.549 136.541 166.549 134.089C166.549 131.638 164.551 129.656 162.112 129.656Z" fill="#85CDFF"/>
<path d="M238.217 119.875H205.03C203.836 119.875 202.876 120.84 202.876 122.04V139.358C202.876 140.558 203.836 141.523 205.03 141.523H238.243C239.437 141.523 240.397 140.558 240.397 139.358V122.04C240.371 120.84 239.411 119.875 238.217 119.875Z" fill="#EA1A71"/>
<path d="M209.389 133.046L210.79 132.238C211.023 132.629 211.257 132.838 211.802 132.838C212.502 132.838 212.736 132.42 212.736 132.003V127.152H214.371V132.003C214.371 133.568 213.281 134.429 211.802 134.429C210.66 134.429 209.856 133.933 209.389 133.046Z" fill="white"/>
<path d="M220.702 129.577C220.702 130.933 219.612 132.029 218.211 132.029H217.147V134.272H215.513V127.125H218.211C219.612 127.152 220.702 128.221 220.702 129.577ZM219.068 129.577C219.068 129.056 218.704 128.664 218.211 128.664H217.147V130.49H218.211C218.704 130.516 219.068 130.099 219.068 129.577Z" fill="white"/>
<path d="M225.969 132.707V134.272H221.506V127.125H225.918V128.69H223.115V129.864H225.658V131.429H223.115V132.681H225.969V132.707Z" fill="white"/>
<path d="M233.857 130.908C233.857 133.098 232.352 134.402 230.354 134.402C228.123 134.402 226.514 132.759 226.514 130.699C226.514 128.638 228.149 126.969 230.251 126.969C231.6 126.969 232.768 127.647 233.364 128.612L231.989 129.395C231.704 128.925 231.055 128.56 230.251 128.56C229.057 128.56 228.149 129.447 228.149 130.699C228.149 131.951 229.005 132.811 230.38 132.811C231.315 132.811 231.937 132.394 232.197 131.716H230.303V130.282H233.857V130.908Z" fill="white"/>
<path d="M306.51 250.436V236.3L45.6292 236.3V250.436L306.51 250.436Z" fill="#7948A3"/>
<path d="M29.6473 262.88L27.0006 257.116C25.5735 254.012 27.831 250.439 31.2301 250.439H320.939C324.364 250.439 326.621 253.986 325.168 257.116L322.522 262.88C319.693 269.009 313.57 272.947 306.849 272.947H45.3199C38.5993 272.947 32.4756 269.009 29.6473 262.88Z" fill="#B078DB"/>
<path d="M218.989 261.706H133.179C127.575 261.706 122.229 259.359 118.441 255.238L114.03 250.465H238.113L233.702 255.238C229.913 259.359 224.568 261.706 218.989 261.706Z" fill="#DFC9F1"/>
<path d="M125.862 201.719C143.045 201.719 156.974 187.718 156.974 170.447C156.974 153.176 143.045 139.175 125.862 139.175C108.68 139.175 94.7505 153.176 94.7505 170.447C94.7505 187.718 108.68 201.719 125.862 201.719Z" fill="#E4F4FF"/>
<path d="M125.862 197.05C140.48 197.05 152.329 185.139 152.329 170.447C152.329 155.754 140.48 143.844 125.862 143.844C111.245 143.844 99.3955 155.754 99.3955 170.447C99.3955 185.139 111.245 197.05 125.862 197.05Z" fill="#EA1A71"/>
<path d="M132.972 183.618H118.805C115.898 183.618 113.537 181.558 113.537 179.002V172.977C113.537 172.247 114.108 171.673 114.835 171.673C115.561 171.673 116.132 172.247 116.132 172.977V179.002C116.132 180.097 117.351 181.01 118.805 181.01H132.972C134.425 181.01 135.645 180.097 135.645 179.002V172.977C135.645 172.247 136.216 171.673 136.942 171.673C137.669 171.673 138.24 172.247 138.24 172.977V179.002C138.214 181.558 135.852 183.618 132.972 183.618Z" fill="#FAFCFF"/>
<path d="M125.94 176.211C125.239 176.211 124.643 175.637 124.643 174.907L124.487 156.911C124.487 156.18 125.058 155.606 125.784 155.606C126.485 155.606 127.082 156.18 127.082 156.911L127.237 174.907C127.237 175.637 126.666 176.211 125.94 176.211Z" fill="#FAFCFF"/>
<path d="M121.503 169.769L125.94 174.15L130.299 169.69L130.325 173.446L125.966 177.906L121.529 173.524L121.503 169.769Z" fill="#FAFCFF"/>
<path d="M31.4638 125.587V119.771H25.6255V115.754H31.4638V109.938H35.356V115.754H41.2202V119.771H35.356V125.587H31.4638Z" fill="#EA1A71"/>
<path d="M48.5113 76.058L52.6111 71.9371L48.4854 67.7901L51.3137 64.9473L55.4394 69.0942L59.5392 64.9733L62.2897 67.738L58.1899 71.8589L62.3156 76.0319L59.4873 78.8748L55.3616 74.7017L51.2618 78.8226L48.5113 76.058Z" fill="#FEC603"/>
<path d="M24.5614 90.3769C19.6313 90.3769 15.6094 86.3603 15.6094 81.4049C15.6094 76.4494 19.6313 72.4067 24.5614 72.4067C29.4915 72.4067 33.5135 76.4494 33.5135 81.4049C33.4875 86.3603 29.4915 90.3769 24.5614 90.3769ZM24.5614 76.319C21.785 76.319 19.5016 78.5881 19.5016 81.4049C19.5016 84.1956 21.759 86.4908 24.5614 86.4908C27.3638 86.4908 29.6213 84.2217 29.6213 81.4049C29.5953 78.5881 27.3378 76.319 24.5614 76.319Z" fill="#0D99FF"/>
</g>
<defs>
<clipPath id="clip0_3883_3548">
<rect width="310" height="208" fill="white" transform="translate(15.6094 64.9473)"/>
</clipPath>
</defs>
</svg>
