<svg width="44" height="44" viewBox="0 0 44 44" fill="none" xmlns="http://www.w3.org/2000/svg">
<circle cx="22" cy="22" r="22" fill="#0D99FF"/>
<path fill-rule="evenodd" clip-rule="evenodd" d="M21.9999 9.04834C23.5187 9.04834 24.7499 10.2795 24.7499 11.7983V32.2022C24.7499 33.721 23.5187 34.9522 21.9999 34.9522C20.4812 34.9522 19.25 33.721 19.25 32.2022V11.7983C19.25 10.2795 20.4812 9.04834 21.9999 9.04834Z" fill="white"/>
<path fill-rule="evenodd" clip-rule="evenodd" d="M34.9519 22.0007C34.9519 23.5194 33.7207 24.7506 32.202 24.7506L11.798 24.7506C10.2793 24.7506 9.04809 23.5194 9.04809 22.0007C9.04809 20.4819 10.2793 19.2507 11.798 19.2507L32.202 19.2507C33.7207 19.2507 34.9519 20.4819 34.9519 22.0007Z" fill="white"/>
</svg>
