<svg width="242" height="240" viewBox="0 0 242 240" fill="none" xmlns="http://www.w3.org/2000/svg">
<path d="M68.2454 253.825C68.1362 253.914 68.007 254.003 67.868 254.073C67.6197 254.202 67.5303 254.5 67.6594 254.738C67.7488 254.907 67.9177 255.007 68.0964 255.007C68.1759 255.007 68.2553 254.987 68.3249 254.947C69.1294 254.53 69.7154 253.825 69.9836 252.961C70.2518 252.096 70.1723 251.183 69.7551 250.378L66.9939 245.104C66.8648 244.856 66.5669 244.766 66.3285 244.895C66.0802 245.025 65.9908 245.323 66.1199 245.561L67.3118 247.845L59.793 237.744C58.6905 236.264 56.4756 235.748 54.8566 236.602L41.0506 243.823C40.8023 243.952 40.7129 244.25 40.8421 244.488C40.9712 244.737 41.2692 244.826 41.5075 244.697L55.3135 237.476C56.5153 236.85 58.1641 237.228 58.9885 238.33L68.5136 251.123C68.891 251.64 69.0301 252.226 68.9109 252.782C68.8215 253.189 68.5831 253.547 68.2454 253.825Z" fill="#0D99FF"/>
<path d="M45.2422 239.9C45.3713 240.148 45.6693 240.237 45.9076 240.108L48.3808 238.817C48.5596 238.718 48.6688 238.529 48.649 238.32L48.4404 236.413C48.4205 236.254 48.5 236.105 48.649 236.026L55.1845 232.609C55.3334 232.53 55.4924 232.56 55.6115 232.659L57.0716 233.93C57.2107 234.059 57.4192 234.089 57.598 234.01C58.7502 233.513 60.091 233.98 60.6671 235.082L65.2459 243.843C65.3353 244.012 65.5042 244.111 65.6829 244.111C65.7624 244.111 65.8419 244.091 65.9114 244.051C66.1597 243.922 66.2491 243.624 66.12 243.386L61.5412 234.616C60.7764 233.156 59.0481 232.47 57.4987 232.977L56.2671 231.894C55.84 231.517 55.2341 231.447 54.7276 231.715L48.1921 235.132C47.6855 235.4 47.3975 235.937 47.4571 236.503L47.6259 238.072L45.4607 239.204C45.2024 239.353 45.113 239.651 45.2422 239.9Z" fill="#0D99FF"/>
<path d="M205.767 80.3663C205.886 80.3663 206.006 80.3265 206.095 80.2371L216.127 71.3775C216.742 70.8411 217.477 70.5928 218.202 70.7021C218.918 70.8014 219.543 71.2285 219.97 71.9039L222.414 75.7576C222.563 75.9861 222.871 76.0556 223.099 75.9066C223.328 75.7576 223.397 75.4497 223.248 75.2213L221.659 72.7183C222.722 72.6886 223.735 73.205 224.321 74.1287L229.068 81.6078C229.158 81.7568 229.327 81.8362 229.486 81.8362C229.575 81.8362 229.664 81.8164 229.754 81.7568C229.982 81.6078 230.052 81.2999 229.903 81.0715L225.155 73.5924C224.281 72.2118 222.652 71.5165 221.063 71.7847L220.795 71.3675C220.209 70.4438 219.335 69.8578 218.332 69.7188C217.309 69.5698 216.295 69.8976 215.461 70.6326L205.429 79.4922C205.221 79.671 205.201 79.9888 205.39 80.1974C205.489 80.3067 205.628 80.3663 205.767 80.3663Z" fill="#0D99FF"/>
<path d="M209.79 104.263C209.562 104.412 209.492 104.72 209.641 104.949L212.452 109.369C212.541 109.518 212.71 109.597 212.869 109.597C212.959 109.597 213.048 109.577 213.137 109.518C213.366 109.369 213.435 109.061 213.286 108.832L210.476 104.412C210.327 104.194 210.019 104.124 209.79 104.263Z" fill="#0D99FF"/>
<path d="M235.665 94.7587L225.405 78.5988C225.256 78.3704 224.948 78.3008 224.719 78.4498C224.491 78.5988 224.421 78.9067 224.57 79.1352L234.831 95.2951C235.754 96.7551 235.446 98.8807 234.135 100.033L219.445 113.014C218.83 113.561 218.095 113.799 217.369 113.69C216.833 113.61 216.346 113.352 215.959 112.955C215.83 112.816 215.711 112.667 215.602 112.498C215.482 112.309 215.254 112.23 215.045 112.289C214.996 112.299 214.956 112.309 214.916 112.339C214.737 112.448 214.658 112.647 214.688 112.836C214.698 112.895 214.718 112.965 214.757 113.024C215.333 113.938 216.237 114.574 217.29 114.802C217.588 114.872 217.886 114.902 218.184 114.902C218.939 114.902 219.684 114.683 220.349 114.266L226.527 110.343C226.756 110.194 226.825 109.886 226.676 109.657C226.527 109.429 226.219 109.359 225.991 109.508L222.107 111.972L234.781 100.768C236.44 99.3078 236.837 96.6161 235.665 94.7587Z" fill="#0D99FF"/>
<path d="M241.583 94.0731L236.726 86.4252C236.379 85.8789 235.723 85.6008 235.087 85.72L233.111 86.1073L231.452 83.5051C231.303 83.2766 230.995 83.2071 230.767 83.3561C230.538 83.5051 230.469 83.813 230.618 84.0414L232.455 86.9317C232.565 87.1006 232.773 87.19 232.972 87.1502L235.286 86.6933C235.524 86.6437 235.763 86.7529 235.892 86.9516L240.749 94.5995C240.878 94.7981 240.868 95.0663 240.729 95.265L239.319 97.1819C239.199 97.3408 239.189 97.5395 239.279 97.7083C240.034 99.1088 239.577 100.877 238.236 101.731L227.976 108.247C227.747 108.396 227.678 108.703 227.827 108.932C227.916 109.081 228.085 109.16 228.244 109.16C228.333 109.16 228.423 109.14 228.512 109.081L238.772 102.565C240.461 101.493 241.086 99.3273 240.292 97.5196L241.523 95.841C241.911 95.3345 241.941 94.6293 241.583 94.0731Z" fill="#0D99FF"/>
<path d="M199.957 94.2713C200.811 94.2713 201.675 94.0726 202.48 93.6753L208.37 102.962C208.459 103.111 208.628 103.191 208.787 103.191C208.876 103.191 208.966 103.171 209.055 103.111C209.284 102.962 209.353 102.654 209.204 102.426L203.324 93.1688C205.777 91.3909 206.463 87.9841 204.824 85.3917C204.248 84.4879 203.463 83.8026 202.569 83.3457L203.761 82.2929C203.97 82.1141 203.99 81.7962 203.801 81.5877C203.622 81.3791 203.304 81.3592 203.096 81.5479L201.516 82.9385C199.987 82.5014 198.288 82.6901 196.838 83.6039C194.147 85.3123 193.352 88.8879 195.06 91.5796C196.173 93.3178 198.05 94.2713 199.957 94.2713ZM197.385 84.4482C198.179 83.9416 199.063 83.7032 199.947 83.7032C200.176 83.7032 200.414 83.7231 200.642 83.7628C201.03 83.8224 201.407 83.9218 201.765 84.0707C202.659 84.4283 203.443 85.064 204 85.9281C205.35 88.0536 204.794 90.8347 202.798 92.3146C202.708 92.3841 202.619 92.4636 202.52 92.5331C202.331 92.6523 202.132 92.7317 201.943 92.8211C199.808 93.8044 197.216 93.0992 195.915 91.0532C194.494 88.8283 195.16 85.8685 197.385 84.4482Z" fill="#0D99FF"/>
<path d="M199.142 90.3685L198.338 89.1071C198.368 89.0773 198.397 89.0674 198.427 89.0475C198.656 88.9085 198.924 88.8886 199.599 89.0078C200.066 89.0972 200.434 89.1171 200.751 89.0972C201.159 89.0674 201.486 88.9681 201.804 88.7694C202.48 88.3423 202.658 87.7563 202.241 87.1008C201.824 86.4453 201.218 86.3559 200.543 86.783L200.235 86.9717L200.126 87.0412L200.215 87.1902L200.523 87.6769L200.98 87.3888C201.278 87.2001 201.486 87.2597 201.615 87.4683C201.755 87.6769 201.735 87.8755 201.347 88.1238C201.069 88.3026 200.781 88.3821 200.414 88.392C200.185 88.392 199.937 88.3721 199.599 88.3125C199.51 88.2927 199.43 88.2927 199.351 88.2728C198.676 88.1735 198.248 88.2331 197.821 88.5012L197.295 88.829L198.517 90.7559L199.142 90.3685Z" fill="#0D99FF"/>
<path d="M15.8912 143.248C17.4208 145.086 19.5166 146.327 21.8904 146.774C22.5459 146.903 23.2015 146.963 23.8471 146.963C25.9031 146.963 27.8995 146.347 29.6376 145.175L79.6271 111.206C83.9775 108.247 85.368 102.406 82.875 97.7778L86.4407 92.6031C87.2651 91.4112 87.2651 89.8617 86.4507 88.6599L72.3467 67.9013C71.5422 66.7194 70.0722 66.1433 68.6718 66.4611L62.6527 67.8417L39.2124 33.3467C36.7492 29.7214 32.2796 28.0527 28.0385 29.1652L26.9459 27.566C25.3965 25.2816 23.1419 23.8712 20.6091 23.5931C18.0267 23.3051 15.484 24.2188 13.438 26.1556L-26.0928 63.3523C-30.2544 67.2656 -31.049 74.258 -27.8707 78.9362L15.2754 142.434C15.4741 142.712 15.6827 142.99 15.8912 143.248ZM38.3979 33.9029L62.027 68.6661C62.1462 68.8349 62.3548 68.9144 62.5534 68.8747L68.9101 67.4146C69.9034 67.1862 70.9661 67.6033 71.5422 68.4476L85.6461 89.2062C86.2321 90.0703 86.2222 91.1728 85.6362 92.027L81.8917 97.46C81.7825 97.6189 81.7725 97.8275 81.8718 97.9864C84.3152 102.208 83.0935 107.651 79.0808 110.372L29.0913 144.341C28.1478 144.986 27.1148 145.423 26.0322 145.691C27.0155 145.254 27.959 144.639 28.8033 143.834L68.3341 106.637C72.4957 102.724 73.2903 95.7318 70.1119 91.0536L28.6444 30.0392C32.3591 29.2148 36.2327 30.7245 38.3979 33.9029ZM-25.4075 64.0774L14.1233 26.8708C15.7423 25.3412 17.6989 24.5367 19.6953 24.5367C19.9635 24.5367 20.2317 24.5466 20.4999 24.5764C22.7446 24.8247 24.741 26.0762 26.1315 28.1123L69.2776 91.6098C72.1977 95.9006 71.4627 102.317 67.6388 105.912L28.108 143.109C26.2705 144.837 23.996 145.652 21.7215 145.403C19.7549 145.185 17.987 144.202 16.6461 142.593C16.4574 142.364 16.2687 142.116 16.0998 141.858L-27.0463 78.3799C-29.9664 74.0892 -29.2314 67.6729 -25.4075 64.0774Z" fill="#0D99FF"/>
<path d="M85.2291 181.2L92.5592 178.29C92.8175 178.19 92.9366 177.902 92.8373 177.644C92.738 177.386 92.45 177.267 92.1917 177.366L84.4048 180.465C84.1465 180.564 84.0273 180.852 84.1267 181.11L93.0658 203.607C93.1452 203.806 93.3339 203.925 93.5227 203.925C93.5822 203.925 93.6418 203.915 93.7014 203.885C93.9597 203.786 94.0789 203.498 93.9795 203.24L85.2291 181.2Z" fill="#0D99FF"/>
<path d="M113.984 255.404C114.044 255.404 114.103 255.394 114.163 255.364L120.807 252.722C121.066 252.623 121.185 252.335 121.086 252.076C120.986 251.818 120.698 251.699 120.44 251.798L114.252 254.252L95.5992 207.291C95.4999 207.033 95.2118 206.914 94.9536 207.013C94.6954 207.113 94.5762 207.401 94.6755 207.659L113.507 255.076C113.597 255.285 113.785 255.404 113.984 255.404Z" fill="#0D99FF"/>
<path d="M141.02 244.171C141.099 244.369 141.288 244.488 141.477 244.488C141.536 244.488 141.596 244.478 141.655 244.449L177.015 230.404C177.273 230.305 177.392 230.017 177.293 229.759L176.816 228.567C176.717 228.309 176.429 228.189 176.17 228.289C175.912 228.388 175.793 228.676 175.892 228.934L176.18 229.659L141.278 243.525C141.04 243.624 140.91 243.912 141.02 244.171Z" fill="#0D99FF"/>
<path d="M119.804 240.526C119.883 240.724 120.072 240.844 120.261 240.844C120.32 240.844 120.38 240.834 120.439 240.804L172.415 220.155L174.114 224.445C174.193 224.644 174.382 224.763 174.571 224.763C174.63 224.763 174.69 224.753 174.75 224.723C175.008 224.624 175.127 224.336 175.028 224.078L173.329 219.787L183.291 215.834C183.55 215.735 183.669 215.447 183.569 215.188L160.626 157.422C160.616 157.402 160.596 157.382 160.586 157.362C160.576 157.342 160.566 157.322 160.556 157.313C160.507 157.243 160.447 157.183 160.358 157.144L137.692 147.37C137.612 147.331 137.523 147.331 137.434 147.34C137.414 147.34 137.394 147.35 137.374 147.35C137.354 147.36 137.334 147.35 137.305 147.36L90.6622 165.884C90.5431 165.934 90.4437 166.033 90.3941 166.152C90.3444 166.272 90.3444 166.411 90.3841 166.53L119.804 240.526ZM148.647 153.171L158.878 157.581L144.227 163.401L138.407 148.751L148.647 153.171ZM137.235 148.473L143.492 164.235C143.542 164.355 143.631 164.454 143.761 164.504C143.82 164.533 143.89 164.543 143.959 164.543C144.019 164.543 144.088 164.533 144.138 164.504L159.901 158.246L182.477 215.089L172.972 218.863L172.048 219.231L120.539 239.691L91.5164 166.619L137.235 148.473Z" fill="#0D99FF"/>
<path d="M129.09 194.499C129.149 194.499 129.209 194.489 129.269 194.459L136.708 191.5L139.668 198.939C139.747 199.138 139.936 199.257 140.125 199.257C140.184 199.257 140.244 199.247 140.303 199.217C140.562 199.118 140.681 198.83 140.581 198.571L137.622 191.132L145.061 188.172C145.319 188.073 145.438 187.785 145.339 187.527C145.24 187.268 144.952 187.149 144.693 187.249L137.254 190.208L134.294 182.769C134.195 182.511 133.907 182.392 133.649 182.491C133.39 182.59 133.271 182.878 133.371 183.137L136.33 190.576L128.891 193.536C128.633 193.635 128.514 193.923 128.613 194.181C128.712 194.38 128.891 194.499 129.09 194.499Z" fill="#0D99FF"/>
<path d="M126.707 25.1223C126.786 25.3209 126.975 25.4401 127.163 25.4401C127.223 25.4401 127.283 25.4302 127.342 25.4004C127.6 25.3011 127.72 25.013 127.62 24.7548L123.876 15.329L126.836 14.147C127.094 14.0477 127.213 13.7597 127.114 13.5014C127.014 13.2432 126.726 13.124 126.468 13.2233L123.041 14.5841C122.783 14.6834 122.664 14.9714 122.763 15.2297L126.707 25.1223Z" fill="#0D99FF"/>
<path d="M138.904 45.9602L136.44 46.9336L128.336 26.5425C128.236 26.2842 127.948 26.165 127.69 26.2643C127.432 26.3637 127.312 26.6517 127.412 26.91L135.695 47.7679C135.745 47.8871 135.844 47.9864 135.964 48.0361C136.023 48.0659 136.093 48.0758 136.162 48.0758C136.222 48.0758 136.291 48.0659 136.341 48.0361L139.261 46.874C139.519 46.7746 139.639 46.4866 139.539 46.2284C139.45 45.9801 139.152 45.8609 138.904 45.9602Z" fill="#0D99FF"/>
<path d="M144.238 43.8354L140.563 45.2954C140.305 45.3947 140.186 45.6828 140.285 45.941C140.364 46.1397 140.553 46.2589 140.742 46.2589C140.801 46.2589 140.861 46.2489 140.921 46.2191L144.596 44.7591C144.854 44.6598 144.973 44.3717 144.874 44.1135C144.784 43.8652 144.496 43.736 144.238 43.8354Z" fill="#0D99FF"/>
<path d="M147.793 42.961C147.872 43.1596 148.061 43.2788 148.25 43.2788C148.309 43.2788 148.369 43.2689 148.428 43.2391L163.982 37.0612C164.102 37.0115 164.201 36.9122 164.251 36.793C164.3 36.6738 164.3 36.5347 164.26 36.4155L164.052 35.8891C163.953 35.6309 163.665 35.5117 163.406 35.611C163.148 35.7104 163.029 35.9984 163.128 36.2566L163.148 36.3162L148.071 42.3154C147.813 42.4246 147.693 42.7127 147.793 42.961Z" fill="#0D99FF"/>
<path d="M138.467 41.362C138.516 41.4812 138.616 41.5805 138.735 41.6302C138.795 41.66 138.864 41.6699 138.934 41.6699C138.993 41.6699 139.063 41.66 139.112 41.6302L161.708 32.6514L162.354 34.2803C162.434 34.4789 162.622 34.5981 162.811 34.5981C162.871 34.5981 162.93 34.5882 162.99 34.5584C163.248 34.459 163.367 34.171 163.268 33.9128L162.622 32.2839L166.744 30.645C166.863 30.5954 166.963 30.496 167.012 30.3768C167.062 30.2577 167.062 30.1186 167.022 29.9994L156.941 4.61233C156.931 4.59247 156.911 4.57261 156.901 4.55274C156.891 4.53288 156.881 4.51301 156.871 4.50308C156.822 4.43355 156.762 4.37396 156.673 4.33423L146.701 0.0335217C146.621 0.00372463 146.532 -0.00620772 146.452 0.00372463C146.433 0.00372463 146.413 0.013657 146.393 0.013657C146.373 0.0235893 146.353 0.013657 146.323 0.0235893L125.813 8.16812C125.555 8.26744 125.436 8.55548 125.535 8.81372L138.467 41.362ZM147.416 1.42405L151.299 3.10262L155.183 4.78118L149.621 6.98617L147.416 1.42405ZM146.234 1.13601L148.886 7.81055C148.935 7.92974 149.025 8.02906 149.154 8.07872C149.214 8.10852 149.283 8.11845 149.353 8.11845C149.412 8.11845 149.482 8.10852 149.531 8.07872L156.206 5.42679L165.93 29.91L162.265 31.3602L161.341 31.7276L139.202 40.5178L126.647 8.92297L146.234 1.13601Z" fill="#0D99FF"/>
<path d="M142.806 21.2986C142.866 21.2986 142.926 21.2886 142.985 21.2588L146.005 20.057L147.206 23.0765C147.286 23.2751 147.475 23.3943 147.663 23.3943C147.723 23.3943 147.782 23.3844 147.842 23.3546C148.1 23.2552 148.219 22.9672 148.12 22.709L146.918 19.6895L149.938 18.4877C150.196 18.3884 150.315 18.1004 150.216 17.8421C150.117 17.5839 149.829 17.4647 149.57 17.564L146.551 18.7658L145.349 15.7563C145.25 15.4981 144.962 15.3789 144.703 15.4782C144.445 15.5775 144.326 15.8656 144.425 16.1238L145.627 19.1333L142.618 20.3351C142.359 20.4345 142.24 20.7225 142.34 20.9807C142.419 21.1794 142.608 21.2986 142.806 21.2986Z" fill="#0D99FF"/>
</svg>
