<svg width="242" height="240" viewBox="0 0 242 240" fill="none" xmlns="http://www.w3.org/2000/svg">
<path d="M143.197 144.783C143.684 145.439 143.862 146.193 143.704 146.909C143.545 147.614 143.068 148.2 142.363 148.567L138.32 150.683C138.072 150.812 137.982 151.11 138.112 151.348C138.241 151.597 138.539 151.686 138.777 151.557L141.409 150.186C141.349 151.249 140.754 152.212 139.78 152.719L131.924 156.821C131.675 156.95 131.586 157.248 131.715 157.486C131.844 157.735 132.142 157.824 132.381 157.695L140.237 153.593C141.687 152.828 142.521 151.279 142.382 149.66L142.82 149.431C143.783 148.925 144.438 148.1 144.667 147.117C144.895 146.114 144.657 145.071 143.991 144.177L135.996 133.44C135.897 133.311 135.748 133.242 135.599 133.242C135.499 133.242 135.39 133.271 135.301 133.341C135.082 133.51 135.033 133.818 135.201 134.036L143.197 144.783Z" fill="#0D99FF"/>
<path d="M112.159 135.078C112.029 134.84 112.129 134.532 112.367 134.413L122.111 129.317C121.058 126.616 122.19 123.477 124.822 122.107C125.657 121.67 126.57 121.441 127.494 121.441C128.07 121.441 128.656 121.531 129.232 121.709C130.702 122.166 131.914 123.179 132.629 124.55C133.424 126.07 133.463 127.778 132.907 129.268L134.159 130.956C134.328 131.175 134.278 131.493 134.059 131.652C133.841 131.811 133.533 131.771 133.364 131.552L132.411 130.271C131.884 131.125 131.129 131.85 130.186 132.347C127.464 133.767 124.127 132.804 122.568 130.201L112.844 135.287C112.586 135.416 112.288 135.327 112.159 135.078ZM123.015 128.851C123.084 129.049 123.154 129.258 123.253 129.447C123.312 129.556 123.372 129.645 123.442 129.745C124.336 131.185 125.895 132.019 127.504 132.019C128.249 132.019 129.004 131.84 129.709 131.473C130.623 130.996 131.308 130.261 131.745 129.397C131.924 129.039 132.043 128.672 132.132 128.285C132.381 127.212 132.281 126.06 131.725 125.017C131.129 123.884 130.136 123.05 128.914 122.663C127.693 122.275 126.401 122.395 125.269 122.991C123.144 124.113 122.22 126.636 123.015 128.851Z" fill="#0D99FF"/>
<path d="M106.099 138.814L110.738 136.39C110.986 136.261 111.075 135.963 110.946 135.725C110.857 135.556 110.688 135.457 110.509 135.457C110.43 135.457 110.35 135.476 110.281 135.516L105.642 137.94C105.394 138.069 105.305 138.367 105.434 138.605C105.563 138.843 105.851 138.933 106.099 138.814Z" fill="#0D99FF"/>
<path d="M126.014 163.167L117.979 167.369C117.771 167.478 117.502 167.448 117.324 167.289L115.536 165.72C115.387 165.591 115.188 165.561 115.009 165.64C113.549 166.276 111.821 165.67 111.086 164.27L105.454 153.503C105.365 153.334 105.196 153.235 105.017 153.235C104.938 153.235 104.858 153.255 104.789 153.294C104.541 153.424 104.451 153.721 104.58 153.96L110.212 164.727C111.136 166.494 113.241 167.309 115.109 166.663L116.678 168.034C117.165 168.461 117.88 168.541 118.446 168.243L126.481 164.041C127.057 163.733 127.385 163.117 127.316 162.472L127.097 160.466L129.828 159.035C130.077 158.906 130.166 158.608 130.037 158.37C129.908 158.122 129.61 158.032 129.371 158.161L126.332 159.75C126.153 159.85 126.044 160.038 126.064 160.247L126.322 162.581C126.352 162.829 126.233 163.058 126.014 163.167Z" fill="#0D99FF"/>
<path d="M103.497 151.875C103.626 152.123 103.924 152.212 104.162 152.083C104.411 151.954 104.5 151.656 104.371 151.418L102.245 147.346L112.346 160.913C113.667 162.691 116.32 163.307 118.266 162.284L135.231 153.414C135.479 153.285 135.568 152.987 135.439 152.749C135.31 152.5 135.012 152.411 134.774 152.54L117.809 161.41C116.28 162.214 114.184 161.718 113.151 160.317L101.451 144.594C100.964 143.939 100.785 143.184 100.944 142.469C101.063 141.942 101.361 141.476 101.798 141.128C101.947 141.009 102.106 140.899 102.285 140.81C102.533 140.681 102.623 140.383 102.494 140.145C102.404 139.976 102.235 139.876 102.057 139.876C101.977 139.876 101.898 139.896 101.828 139.936C100.875 140.433 100.16 141.277 99.8417 142.31C99.5239 143.343 99.6133 144.435 100.12 145.399L103.497 151.875Z" fill="#0D99FF"/>
<path d="M127.018 125.574C127.038 125.604 127.058 125.633 127.078 125.663C127.197 125.902 127.197 126.17 127.018 126.825C126.889 127.282 126.839 127.65 126.829 127.967C126.819 128.375 126.899 128.712 127.068 129.04C127.445 129.755 128.011 129.974 128.697 129.616C129.382 129.259 129.531 128.663 129.153 127.948L128.985 127.63L128.925 127.521L128.766 127.6L128.26 127.868L128.508 128.345C128.677 128.663 128.597 128.861 128.379 128.971C128.16 129.09 127.962 129.05 127.753 128.653C127.594 128.355 127.544 128.067 127.564 127.699C127.584 127.471 127.624 127.223 127.713 126.895C127.743 126.805 127.753 126.726 127.773 126.646C127.932 125.981 127.902 125.554 127.674 125.107L127.385 124.561L125.359 125.623L125.697 126.259L127.018 125.574Z" fill="#0D99FF"/>
<path d="M244.765 255.16C245.103 253.661 244.745 252.101 243.752 250.77L231.187 233.885C231.088 233.756 230.939 233.687 230.79 233.687C230.691 233.687 230.582 233.716 230.492 233.786C230.274 233.955 230.224 234.263 230.393 234.481L242.957 251.366C243.772 252.469 244.07 253.73 243.802 254.942C243.533 256.134 242.729 257.127 241.547 257.743L235.18 261.07C234.932 261.199 234.843 261.497 234.972 261.736C235.101 261.984 235.399 262.073 235.637 261.944L240.186 259.56C240.266 261.507 239.233 263.355 237.475 264.268L225.129 270.724C224.88 270.853 224.791 271.151 224.92 271.39C225.049 271.638 225.347 271.727 225.586 271.598L237.932 265.142C240.176 263.97 241.428 261.547 241.14 259.054L241.994 258.607C243.454 257.862 244.437 256.63 244.765 255.16Z" fill="#0D99FF"/>
<path d="M194.399 235.485L209.943 227.36C209.129 225.443 209.019 223.318 209.655 221.311C210.36 219.067 211.89 217.229 213.976 216.147C215.257 215.481 216.638 215.143 218.048 215.143C218.932 215.143 219.826 215.282 220.69 215.551C222.935 216.256 224.772 217.785 225.855 219.871C226.947 221.957 227.156 224.341 226.451 226.585C226.381 226.804 226.302 227.003 226.222 227.211L228.288 229.982C228.457 230.201 228.407 230.519 228.189 230.678C227.97 230.837 227.662 230.797 227.494 230.578L225.755 228.234C224.931 229.724 223.69 230.946 222.14 231.75C220.054 232.843 217.671 233.051 215.426 232.346C213.27 231.671 211.493 230.221 210.39 228.254L194.866 236.369C194.618 236.498 194.32 236.399 194.2 236.16C194.061 235.912 194.151 235.604 194.399 235.485ZM210.817 226.893C210.907 227.112 211.006 227.34 211.125 227.559C211.165 227.638 211.215 227.708 211.264 227.787C212.248 229.516 213.807 230.797 215.714 231.393C216.489 231.631 217.273 231.75 218.058 231.75C219.299 231.75 220.531 231.452 221.663 230.856C223.173 230.072 224.345 228.83 225.07 227.32C225.229 226.983 225.378 226.635 225.497 226.268C225.497 226.258 225.497 226.248 225.507 226.238C226.123 224.251 225.934 222.156 224.971 220.318C224.007 218.471 222.378 217.11 220.382 216.484C218.396 215.859 216.28 216.047 214.433 217.021C212.585 217.984 211.224 219.613 210.599 221.609C210.042 223.357 210.132 225.215 210.817 226.893Z" fill="#0D99FF"/>
<path d="M184.267 241.891L191.568 238.077C191.816 237.948 191.905 237.65 191.776 237.412C191.687 237.243 191.518 237.144 191.339 237.144C191.26 237.144 191.18 237.164 191.111 237.203L183.81 241.017C183.562 241.146 183.473 241.444 183.602 241.683C183.731 241.931 184.029 242.02 184.267 241.891Z" fill="#0D99FF"/>
<path d="M217.292 221.331C217.331 221.38 217.351 221.43 217.381 221.48C217.57 221.847 217.57 222.274 217.282 223.317C217.252 223.426 217.232 223.526 217.202 223.635C217.093 224.072 217.024 224.459 216.994 224.807C216.924 225.592 217.053 226.198 217.371 226.803C217.957 227.926 218.851 228.273 219.934 227.707C221.016 227.141 221.245 226.207 220.659 225.085L220.301 224.4L219.258 224.946L219.656 225.701C219.914 226.198 219.795 226.505 219.447 226.694C219.099 226.873 218.792 226.823 218.454 226.188C218.166 225.641 218.066 225.135 218.176 224.4C218.215 224.112 218.285 223.804 218.384 223.436C218.394 223.397 218.394 223.377 218.404 223.337C218.742 222.115 218.712 221.38 218.315 220.625L217.868 219.761L214.689 221.43L215.216 222.433L217.292 221.331Z" fill="#0D99FF"/>
<path d="M15.7544 282.117C12.9733 279.455 12.5562 275.234 14.5526 272.105C14.6619 271.936 14.7711 271.777 14.8903 271.618C14.9201 271.579 14.95 271.529 14.9798 271.489C15.1387 271.281 15.3174 271.072 15.5061 270.873L55.7719 228.909C57.5001 227.111 60.0031 226.178 62.506 226.178C64.3634 226.178 66.2206 226.694 67.7601 227.757L101.55 251.197C103.338 252.439 104.43 254.217 104.629 256.203C104.828 258.16 104.122 260.087 102.652 261.626L101.689 262.629C103.149 265.619 102.613 269.205 100.299 271.618L78.4871 294.353L80.4239 298.525C80.9106 299.568 80.712 300.78 79.9175 301.604L66.7571 315.331C65.9724 316.145 64.7507 316.403 63.6978 315.966L59.3674 314.168C56.2883 316.731 51.6996 316.612 48.7993 313.821L15.7544 282.117ZM14.5327 276.197C14.7016 277.886 15.6452 279.415 17.1847 280.478L50.9746 303.918C52.3452 304.872 54.0039 305.329 55.6726 305.329C57.9073 305.329 60.142 304.494 61.6816 302.885L101.937 260.921C103.199 259.6 103.805 257.951 103.646 256.283C103.477 254.594 102.533 253.065 100.994 252.002L67.204 228.562C63.9859 226.327 59.1886 226.784 56.4969 229.585L16.2411 271.549C16.2311 271.559 16.2213 271.569 16.2114 271.579C16.0624 271.737 15.9233 271.896 15.7842 272.065C15.665 272.214 15.5657 272.363 15.4565 272.522C15.4366 272.542 15.4266 272.572 15.4068 272.592C14.7115 273.714 14.4036 274.946 14.5327 276.197ZM15.665 280.508C15.8935 280.816 16.1517 281.124 16.4398 281.402L49.4847 313.096C52.0969 315.599 56.2486 315.648 58.9402 313.215C59.0793 313.086 59.2879 313.056 59.4667 313.126L64.0852 315.043C64.7606 315.321 65.5453 315.162 66.0419 314.635L79.2022 300.909C79.7088 300.372 79.838 299.598 79.5301 298.932L77.4442 294.453C77.3548 294.264 77.3946 294.046 77.5337 293.897L99.5735 270.923C101.51 268.897 102.017 265.937 100.934 263.394L62.3868 303.581C59.3773 306.719 54.0039 307.236 50.3984 304.733L16.6085 281.292C16.2708 281.054 15.963 280.786 15.665 280.508Z" fill="#0D99FF"/>
<path d="M33.6925 67.1607C32.1828 65.7106 31.8351 63.5156 32.6396 61.7079C32.729 61.4993 32.8384 61.2907 32.9575 61.0921C33.0668 60.9133 33.2158 60.7544 33.3549 60.5855C33.4244 60.5061 33.474 60.4167 33.5435 60.3372L56.9044 35.9831C57.9473 34.9005 59.457 34.3343 60.9667 34.3343C62.0891 34.3343 63.2016 34.6423 64.1352 35.2879L83.7417 48.8952C84.8243 49.6501 85.4898 50.7327 85.6189 51.9444C85.7381 53.1463 85.3109 54.3182 84.417 55.2519L83.9502 55.7385C84.7547 57.5264 84.417 59.6321 83.0463 61.0524L70.4918 74.1432L71.5546 76.4376C71.8725 77.113 71.7335 77.9175 71.217 78.4538L63.5789 86.4196C63.0625 86.9659 62.2778 87.1347 61.5726 86.8367L59.179 85.8435C57.3117 87.3135 54.6001 87.2142 52.8718 85.5555L33.6925 67.1607ZM83.2053 56.5232L61.0561 79.6159C59.2484 81.5031 56.0006 81.8209 53.8354 80.3112L35.7882 67.7865L53.5672 84.8404C54.9974 86.211 57.2819 86.2408 58.7717 84.9C58.9108 84.7708 59.1194 84.741 59.2982 84.8105L61.9798 85.923C62.2977 86.0521 62.6553 85.9826 62.8837 85.7342L70.5216 77.7685C70.7501 77.5202 70.8097 77.1626 70.6707 76.8547L69.4589 74.2525C69.3695 74.0637 69.4092 73.8452 69.5483 73.6962L82.3412 60.3671C83.3245 59.3341 83.6423 57.8542 83.2053 56.5232ZM33.335 63.5553C33.4244 64.479 33.9408 65.3034 34.7851 65.8894L54.3915 79.4968C55.1563 80.0232 56.08 80.2814 57.0037 80.2814C58.2453 80.2814 59.4868 79.8146 60.341 78.9306L83.7019 54.5765C84.3972 53.8514 84.725 52.9575 84.6356 52.0537C84.5462 51.13 84.0296 50.3055 83.1854 49.7195L63.5789 36.1123C61.7911 34.8707 59.1293 35.1289 57.6394 36.6784L34.2785 61.0325C34.0997 61.2113 33.9508 61.41 33.8217 61.6185C33.7223 61.7675 33.6528 61.9264 33.5833 62.0853C33.3648 62.5521 33.2853 63.0487 33.335 63.5553Z" fill="#0D99FF"/>
<path d="M213.21 106.434L229.479 88.1583C229.658 87.9497 229.648 87.6419 229.439 87.4531C229.35 87.3737 229.23 87.324 229.111 87.324C228.972 87.324 228.843 87.3836 228.744 87.4928L212.802 105.401L206.843 100.097C206.634 99.9182 206.326 99.9281 206.138 100.137C205.949 100.345 205.969 100.653 206.178 100.842L212.514 106.474C212.713 106.662 213.031 106.642 213.21 106.434Z" fill="#0D99FF"/>
<path d="M265.663 46.0155L231.694 84.1756C231.516 84.3842 231.526 84.6921 231.734 84.8808C231.943 85.0596 232.251 85.0497 232.439 84.8411L266.746 46.3036C266.835 46.2042 266.875 46.0751 266.875 45.946C266.865 45.8169 266.805 45.6878 266.706 45.6083L261.303 40.8011C261.213 40.7216 261.094 40.6719 260.975 40.6719C260.836 40.6719 260.707 40.7315 260.607 40.8408C260.429 41.0493 260.439 41.3573 260.647 41.546L265.663 46.0155Z" fill="#0D99FF"/>
<path d="M214.789 1.80588L215.315 1.20997L243.682 26.458C243.89 26.6368 244.198 26.6269 244.387 26.4183C244.566 26.2097 244.556 25.9018 244.347 25.7131L215.613 0.137257C215.524 0.0577984 215.404 0.00813103 215.285 0.00813103C215.146 0.00813103 215.017 0.067709 214.918 0.176964L214.054 1.14043C213.875 1.34901 213.885 1.65694 214.093 1.84565C214.302 2.02444 214.61 2.01446 214.789 1.80588Z" fill="#0D99FF"/>
<path d="M158.432 73.329L156.982 48.4087C156.972 48.3193 157.002 48.2399 157.042 48.1604C157.052 48.1406 157.062 48.1207 157.072 48.1008C157.082 48.081 157.092 48.0611 157.102 48.0412L198.887 1.10101C198.986 0.991753 199.125 0.932114 199.254 0.932114C199.374 0.932114 199.493 0.971848 199.582 1.06124L207.687 8.27213L210.796 4.78587C210.895 4.67661 211.034 4.61703 211.163 4.61703C211.282 4.61703 211.402 4.65677 211.491 4.74616C211.7 4.92494 211.71 5.24274 211.531 5.45132L208.422 8.93758L250.664 46.5316C250.764 46.6209 250.823 46.7401 250.833 46.8692C250.843 46.9983 250.793 47.1275 250.704 47.2268L197.179 107.357C197.089 107.457 196.97 107.516 196.841 107.526C196.712 107.536 196.583 107.486 196.483 107.397L158.581 73.6667C158.562 73.6568 158.562 73.6369 158.542 73.617C158.532 73.5972 158.512 73.5872 158.502 73.5674C158.472 73.4979 158.442 73.4184 158.432 73.329ZM158.184 48.3393L170.997 59.7416C171.206 59.9204 171.215 60.2382 171.037 60.4468L159.634 73.2595L196.791 106.334L249.651 46.9487L207.786 9.68251L207.041 9.027L199.314 2.14389L158.184 48.3393ZM158.045 49.551L158.73 61.4102L159.346 72.0775L169.954 60.1587L158.045 49.551Z" fill="#0D99FF"/>
<path d="M197.349 54.2792L191.966 60.328C191.787 60.5365 191.797 60.8445 192.005 61.0332C192.214 61.212 192.522 61.202 192.711 60.9935L198.094 54.9446L204.143 60.328C204.351 60.5067 204.659 60.4968 204.848 60.2883C205.027 60.0797 205.017 59.7717 204.808 59.583L198.759 54.1997L204.143 48.1509C204.321 47.9424 204.311 47.6344 204.103 47.4457C204.014 47.3663 203.894 47.3166 203.775 47.3166C203.636 47.3166 203.507 47.3762 203.408 47.4854L198.024 53.5343L191.976 48.1509C191.886 48.0715 191.767 48.0218 191.648 48.0218C191.509 48.0218 191.38 48.0814 191.28 48.1907C191.102 48.3992 191.111 48.7072 191.32 48.8959L197.349 54.2792Z" fill="#0D99FF"/>
</svg>
