<svg width="44" height="44" viewBox="0 0 44 44" fill="none" xmlns="http://www.w3.org/2000/svg">
<circle cx="22" cy="22" r="22" fill="#344552"/>
<path fill-rule="evenodd" clip-rule="evenodd" d="M21.9999 9.04834C23.5187 9.04834 24.7499 10.2795 24.7499 11.7983V32.2022C24.7499 33.721 23.5187 34.9522 21.9999 34.9522C20.4812 34.9522 19.25 33.721 19.25 32.2022V11.7983C19.25 10.2795 20.4812 9.04834 21.9999 9.04834Z" fill="#0D99FF"/>
<path fill-rule="evenodd" clip-rule="evenodd" d="M34.9519 22.0007C34.9519 23.5195 33.7207 24.7507 32.202 24.7507L11.798 24.7507C10.2793 24.7507 9.04809 23.5195 9.04809 22.0007C9.04809 20.482 10.2793 19.2508 11.798 19.2508L32.202 19.2508C33.7207 19.2508 34.9519 20.482 34.9519 22.0007Z" fill="#0D99FF"/>
</svg>
