<svg width="24" height="24" viewBox="0 0 24 24" fill="none" xmlns="http://www.w3.org/2000/svg">
<path d="M12 24C18.6274 24 24 18.6274 24 12C24 5.37258 18.6274 0 12 0C5.37258 0 0 5.37258 0 12C0 18.6274 5.37258 24 12 24Z" fill="#E4F4FF"/>
<path fill-rule="evenodd" clip-rule="evenodd" d="M12 6C12.7448 6 13.3486 6.6038 13.3486 7.34864L13.3486 16.6514C13.3486 17.3962 12.7448 18 12 18C11.2552 18 10.6514 17.3962 10.6514 16.6514L10.6514 7.34864C10.6514 6.6038 11.2552 6 12 6Z" fill="#0D99FF"/>
<path fill-rule="evenodd" clip-rule="evenodd" d="M18 12C18 12.7448 17.3962 13.3486 16.6514 13.3486L7.34864 13.3486C6.6038 13.3486 6 12.7448 6 12C6 11.2552 6.6038 10.6514 7.34864 10.6514L16.6514 10.6514C17.3962 10.6514 18 11.2552 18 12Z" fill="#0D99FF"/>
</svg>
