<svg width="19" height="16" viewBox="0 0 19 16" fill="none" xmlns="http://www.w3.org/2000/svg">
<path d="M16.8042 0H2.19582L0 3.68925V6.79458C0 11.8772 4.25469 16 9.5 16C14.7453 16 19 11.8772 19 6.79458V3.68925L16.8042 0ZM11.8236 11.7003L9.5 13.9519L7.17636 11.7003V9.78933L8.81523 11.3774V8.00221H10.1848V11.3774L11.8236 9.78933V11.7003ZM11.1937 3.67155C11.1937 4.57838 10.4358 5.31269 9.5 5.31269C8.56415 5.31269 7.80634 4.57838 7.80634 3.67155H1.36953L2.98558 0.951065H16.0099L17.6259 3.66713H11.1891L11.1937 3.67155Z" fill="white"/>
</svg>
