<svg width="44" height="45" viewBox="0 0 44 45" fill="none" xmlns="http://www.w3.org/2000/svg">
<path d="M22 0.89502C9.86976 0.89502 0 10.7648 0 22.895C0 35.0253 9.86976 44.895 22 44.895C34.1302 44.895 44 35.0253 44 22.895C44 10.7648 34.1302 0.89502 22 0.89502Z" fill="white"/>
<path d="M33.8574 15.3962C33.1009 15.7373 32.2389 15.9481 31.4142 16.0845C31.8048 16.0163 32.3629 15.3156 32.5924 15.0304C32.9396 14.5963 33.2249 14.1002 33.3923 13.5669C33.4109 13.5235 33.4233 13.4739 33.3861 13.4429C33.3365 13.4243 33.2993 13.4305 33.2559 13.4553C32.3443 13.9452 31.3956 14.2986 30.391 14.5529C30.3104 14.5715 30.2484 14.5529 30.1926 14.5033C30.112 14.4103 30.0313 14.3172 29.9445 14.249C29.5229 13.8894 29.0702 13.6041 28.5555 13.3995C27.8858 13.1266 27.1479 13.0088 26.4224 13.0584C25.7154 13.1018 25.0271 13.3003 24.4008 13.6289C23.7745 13.9576 23.2164 14.4103 22.7699 14.9621C22.3111 15.5326 21.97 16.2023 21.7964 16.9155C21.629 17.6038 21.6414 18.2797 21.7468 18.9742C21.7592 19.092 21.753 19.1044 21.6476 19.092C17.7099 18.5029 14.442 17.0953 11.7941 14.0754C11.6763 13.9452 11.6143 13.9452 11.5213 14.0878C10.3617 15.8241 10.926 18.6207 12.3708 19.9912C12.5631 20.1772 12.7615 20.357 12.9785 20.5245C12.8979 20.5431 11.9368 20.4376 11.0748 19.9912C10.957 19.9168 10.9012 19.9602 10.8888 20.0904C10.8764 20.2764 10.895 20.45 10.9198 20.6547C11.143 22.4158 12.3646 24.0466 14.0327 24.6853C14.2311 24.766 14.4482 24.8404 14.6652 24.8776C14.287 24.9644 13.8901 25.0202 12.7987 24.9334C12.6623 24.9086 12.6127 24.9768 12.6623 25.107C13.4808 27.3456 15.2543 28.0091 16.5813 28.3874C16.7612 28.4184 16.9348 28.4184 17.1146 28.4618C17.1022 28.4804 17.096 28.4804 17.0836 28.4928C16.6433 29.1625 15.1179 29.6648 14.411 29.9128C13.1212 30.3655 11.7135 30.5701 10.3493 30.4337C10.1323 30.4027 10.0827 30.4027 10.0268 30.4337C9.96484 30.4709 10.0206 30.5205 10.0889 30.5825C10.3679 30.7685 10.647 30.9298 10.9322 31.0848C11.8003 31.5437 12.7057 31.9095 13.6482 32.17C18.5285 33.5156 24.0288 32.5296 27.6936 28.8834C30.5708 26.0248 31.5816 22.0809 31.5816 18.1309C31.5816 17.9758 31.7614 17.889 31.873 17.8084C32.6234 17.2441 33.2683 16.5744 33.8264 15.8179C33.9504 15.6505 34 15.5016 34 15.4396C34 15.4272 34 15.421 34 15.421C34 15.3342 33.9566 15.3528 33.8574 15.3962Z" fill="#0D99FF"/>
</svg>
