<svg width="24" height="20" viewBox="0 0 24 20" fill="none" xmlns="http://www.w3.org/2000/svg">
<path d="M23.8574 2.54636C23.1009 2.88742 22.2389 3.09825 21.4142 3.23467C21.8048 3.16646 22.3629 2.46575 22.5924 2.1805C22.9396 1.74643 23.2249 1.25035 23.3923 0.717059C23.4109 0.673652 23.4233 0.624043 23.3861 0.593038C23.3365 0.574435 23.2993 0.580637 23.2559 0.605441C22.3443 1.09532 21.3956 1.44878 20.391 1.70302C20.3104 1.72162 20.2484 1.70302 20.1926 1.65341C20.112 1.5604 20.0313 1.46738 19.9445 1.39917C19.5229 1.03951 19.0702 0.754265 18.5555 0.549631C17.8858 0.276786 17.1479 0.158966 16.4224 0.208574C15.7154 0.251982 15.0271 0.450414 14.4008 0.779068C13.7745 1.10772 13.2164 1.5604 12.7699 2.11229C12.3111 2.68278 11.97 3.35249 11.7964 4.06561C11.629 4.75392 11.6414 5.42984 11.7468 6.12435C11.7592 6.24217 11.753 6.25457 11.6476 6.24217C7.70992 5.65307 4.44198 4.24544 1.79414 1.22554C1.67632 1.09532 1.61431 1.09532 1.5213 1.23795C0.361705 2.97423 0.925998 5.77089 2.37084 7.14132C2.56307 7.32735 2.7615 7.50718 2.97854 7.6746C2.89792 7.69321 1.93676 7.58779 1.07482 7.14132C0.957003 7.06691 0.901194 7.11031 0.888791 7.24053C0.876389 7.42656 0.894993 7.60019 0.919797 7.80483C1.14303 9.56592 2.36464 11.1968 4.03271 11.8355C4.23114 11.9161 4.44818 11.9905 4.66521 12.0277C4.28695 12.1145 3.89009 12.1703 2.79871 12.0835C2.66228 12.0587 2.61268 12.1269 2.66228 12.2572C3.48082 14.4957 5.25431 15.1592 6.58133 15.5375C6.76116 15.5685 6.93479 15.5685 7.11462 15.6119C7.10222 15.6305 7.09601 15.6305 7.08361 15.6429C6.64334 16.3126 5.11789 16.8149 4.41097 17.063C3.12116 17.5156 1.71353 17.7203 0.349303 17.5838C0.132268 17.5528 0.082659 17.5528 0.0268498 17.5838C-0.0351604 17.621 0.020649 17.6707 0.0888603 17.7327C0.367906 17.9187 0.646953 18.0799 0.9322 18.2349C1.80034 18.6938 2.70569 19.0597 3.64825 19.3201C8.52845 20.6657 14.0288 19.6798 17.6936 16.0336C20.5708 13.1749 21.5816 9.23106 21.5816 5.28101C21.5816 5.12598 21.7614 5.03917 21.873 4.95856C22.6234 4.39427 23.2683 3.72455 23.8264 2.96803C23.9504 2.8006 24 2.65178 24 2.58977C24 2.57736 24 2.57116 24 2.57116C24 2.48435 23.9566 2.50295 23.8574 2.54636Z" fill="#011727"/>
</svg>
