<svg width="151" height="126" viewBox="0 0 151 126" fill="none" xmlns="http://www.w3.org/2000/svg">
<path d="M2.94396 91.6519L2.92188 91.6298V11.5193C2.92188 6.66005 6.85339 2.72852 11.7126 2.72852H139.067C143.926 2.72852 147.858 6.66005 147.858 11.5193V55.1416" stroke="#1A2E3D" stroke-width="5" stroke-miterlimit="10"/>
<path d="M2.96519 91.6298H2.94531V30.2714C6.0596 27.8197 9.99112 26.3398 14.276 26.3398C22.382 26.3398 29.2291 31.5966 31.6586 38.8854C34.5962 37.1626 37.9977 36.1908 41.642 36.1908C51.7359 36.1908 60.0628 43.7667 61.2555 53.5514C69.8474 54.479 76.606 61.5691 76.9815 70.3377" stroke="#1A2E3D" stroke-width="5" stroke-miterlimit="10"/>
<path d="M31.2721 91.4036C22.6559 100.802 15.7183 112.082 11.7139 122.706L11.736 122.728C6.87683 122.728 2.94531 118.796 2.94531 113.937V91.651C2.94531 91.651 2.95856 91.6355 2.96519 91.6289C19.535 72.5543 42.097 80.7244 42.6691 80.9342" stroke="#1A2E3D" stroke-width="5" stroke-miterlimit="10"/>
<path d="M11.7109 122.707H54.4982L54.5247 122.689" stroke="#1A2E3D" stroke-width="5" stroke-miterlimit="10"/>
<path d="M90.3329 75.8896L90.3417 75.8587C85.9839 72.9056 81.498 71.1254 76.9789 70.3369C65.2418 68.2783 53.2706 72.888 42.6665 80.9344C38.6422 83.989 34.8123 87.5362 31.2695 91.4037" stroke="#1A2E3D" stroke-width="5" stroke-miterlimit="10"/>
<path d="M147.856 113.916V55.142C89.3471 49.3331 54.5156 122.707 54.5156 122.707H139.065C143.925 122.707 147.856 118.775 147.856 113.916Z" stroke="#1A2E3D" stroke-width="5" stroke-miterlimit="10"/>
<path d="M104.612 47.7421C111.468 47.7421 117.025 42.1846 117.025 35.3291C117.025 28.4735 111.468 22.916 104.612 22.916C97.7567 22.916 92.1992 28.4735 92.1992 35.3291C92.1992 42.1846 97.7567 47.7421 104.612 47.7421Z" stroke="#1A2E3D" stroke-width="5" stroke-miterlimit="10"/>
</svg>
