<svg width="129" height="40" viewBox="0 0 129 40" fill="none" xmlns="http://www.w3.org/2000/svg">
<path d="M67.5484 10.0506C67.5484 11.4922 66.3868 12.653 64.9452 12.653C63.5037 12.653 62.3429 11.4922 62.3429 10.0506C62.3429 8.60903 63.4641 7.44825 64.9452 7.44825C66.4276 7.48825 67.5484 8.64943 67.5484 10.0506ZM56.8174 15.2961V15.9369C56.8174 15.9369 55.5766 14.3345 52.9339 14.3345C48.57 14.3345 45.166 17.658 45.166 22.2624C45.166 26.8271 48.53 30.1902 52.9339 30.1902C55.6166 30.1902 56.8174 28.5486 56.8174 28.5486V29.229C56.8174 29.5494 57.0582 29.789 57.3782 29.789H60.6209V14.7337H57.3782C57.0582 14.7349 56.8174 15.0157 56.8174 15.2961ZM56.8174 24.9451C56.2174 25.8263 55.0158 26.5871 53.5747 26.5871C51.0123 26.5871 49.05 24.9855 49.05 22.2624C49.05 19.5396 51.0123 17.938 53.5747 17.938C54.9762 17.938 56.2574 18.7388 56.8174 19.5796V24.9451ZM63.0237 14.7349H66.8672V29.7902H63.0237V14.7349ZM120.441 14.3341C117.798 14.3341 116.556 15.9365 116.556 15.9365V7.48825H112.713V29.7902H115.956C116.277 29.7902 116.516 29.5098 116.516 29.2294V28.549C116.516 28.549 117.758 30.1906 120.4 30.1906C124.764 30.1906 128.168 26.8283 128.168 22.2636C128.168 17.6988 124.764 14.3341 120.441 14.3341ZM119.8 26.5467C118.318 26.5467 117.157 25.7867 116.556 24.9051V19.5396C117.157 18.7388 118.438 17.898 119.8 17.898C122.362 17.898 124.324 19.4996 124.324 22.2224C124.324 24.9451 122.362 26.5467 119.8 26.5467ZM110.711 20.8616V29.8302H106.867V21.3016C106.867 18.8196 106.066 17.818 103.905 17.818C102.744 17.818 101.543 18.4188 100.781 19.3V29.7906H96.9382V14.7353H99.9801C100.301 14.7353 100.541 15.0157 100.541 15.2961V15.9369C101.662 14.7753 103.143 14.3345 104.624 14.3345C106.306 14.3345 107.708 14.8157 108.829 15.7765C110.19 16.8977 110.711 18.3388 110.711 20.8616ZM87.6076 14.3341C84.9657 14.3341 83.7241 15.9365 83.7241 15.9365V7.48825H79.8806V29.7902H83.1233C83.4437 29.7902 83.6841 29.5098 83.6841 29.2294V28.549C83.6841 28.549 84.9256 30.1906 87.5676 30.1906C91.9323 30.1906 95.3354 26.8283 95.3354 22.2636C95.3754 17.6984 91.9723 14.3341 87.6076 14.3341ZM86.9668 26.5467C85.4856 26.5467 84.3249 25.7867 83.7241 24.9051V19.5396C84.3249 18.7388 85.606 17.898 86.9668 17.898C89.53 17.898 91.4915 19.4996 91.4915 22.2224C91.4915 24.9451 89.53 26.5467 86.9668 26.5467ZM76.557 14.3341C77.7178 14.3341 78.3186 14.5349 78.3186 14.5349V18.098C78.3186 18.098 75.1155 17.0169 73.1139 19.2996V29.8298H69.2696V14.7349H72.5131C72.8335 14.7349 73.0731 15.0153 73.0731 15.2957V15.9365C73.7947 15.0953 75.3562 14.3341 76.557 14.3341ZM36.6382 28.4286C36.4382 27.9482 36.2378 27.4279 36.0378 26.9871C35.717 26.2667 35.3966 25.5855 35.117 24.9451L35.077 24.9051C32.3139 18.8988 29.3515 12.8133 26.228 6.80787L26.108 6.56707C25.7795 5.94407 25.4593 5.3167 25.1476 4.68511C24.7468 3.96393 24.3469 3.20394 23.7061 2.48275C22.4249 0.881182 20.5829 0 18.6214 0C16.619 0 14.8174 0.881187 13.4967 2.40236C12.8959 3.12274 12.4551 3.88353 12.0551 4.60472C11.7426 5.23591 11.4225 5.86327 11.0947 6.48667L10.9743 6.72746C7.89119 12.7329 4.88844 18.8188 2.1257 24.8247L2.08531 24.9043C1.80531 25.5459 1.48452 26.2263 1.16412 26.9463C0.964126 27.387 0.76413 27.8674 0.564134 28.3878C0.0433448 29.869 -0.11706 31.2706 0.0837363 32.7125C0.524127 35.7157 2.52569 38.2372 5.28883 39.3592C6.33001 39.8 7.41119 40 8.53197 40C8.85236 40 9.25236 39.96 9.57316 39.9196C10.8947 39.7596 12.2559 39.3196 13.5775 38.5588C15.219 37.6376 16.7806 36.3169 18.5422 34.3949C20.3037 36.3169 21.9053 37.6376 23.5069 38.5588C24.8288 39.3196 26.1896 39.7596 27.5108 39.9196C27.8312 39.9604 28.232 40 28.5524 40C29.6735 40 30.7943 39.8 31.7951 39.3592C34.5983 38.2372 36.5598 35.6757 37.0006 32.7125C37.3186 31.3114 37.1586 29.9106 36.6382 28.4286ZM18.581 30.5106C16.4186 27.7878 15.017 25.2255 14.537 23.0639C14.3371 22.1428 14.2967 21.342 14.4171 20.6212C14.4967 19.9804 14.7374 19.4196 15.0578 18.9392C15.8186 17.8588 17.0998 17.1777 18.5814 17.1777C20.0633 17.1777 21.3845 17.8184 22.1053 18.9392C22.4257 19.4196 22.6657 19.9808 22.7465 20.6212C22.8661 21.3424 22.8261 22.1828 22.6261 23.0639C22.1441 25.1855 20.7425 27.7482 18.581 30.5106ZM34.5558 32.3926C34.2759 34.4745 32.8743 36.2769 30.9127 37.0776C29.9519 37.4776 28.9104 37.598 27.87 37.4776C26.8692 37.3572 25.8676 37.0368 24.8272 36.4369C23.3857 35.6353 21.9445 34.3949 20.2625 32.5525C22.9049 29.3098 24.5065 26.3463 25.1072 23.7043C25.3876 22.4628 25.428 21.342 25.3072 20.3004C25.1476 19.2996 24.7868 18.3784 24.2265 17.5776C22.9845 15.7753 20.9021 14.7349 18.5806 14.7349C16.259 14.7349 14.1767 15.8161 12.9355 17.5776C12.3751 18.3784 12.0143 19.2996 11.8543 20.3004C11.6943 21.342 11.7339 22.5028 12.0543 23.7043C12.6547 26.3463 14.2963 29.3494 16.8986 32.5926C15.257 34.4345 13.7755 35.6761 12.3339 36.4769C11.2927 37.0777 10.2923 37.3981 9.29156 37.5177C8.21078 37.6381 7.1692 37.4777 6.24842 37.1177C4.28686 36.3169 2.88529 34.5145 2.60529 32.4325C2.48529 31.4318 2.56489 30.431 2.96569 29.3098C3.08528 28.909 3.28608 28.509 3.48607 28.0286C3.76647 27.3879 4.08606 26.7067 4.40686 26.0263L4.44726 25.9467C7.2096 19.9804 10.1723 13.8945 13.2555 7.96904L13.3755 7.72825C13.6963 7.12826 14.0167 6.48747 14.3367 5.88669C14.6571 5.2459 15.017 4.64511 15.4578 4.12432C16.2986 3.16434 17.4194 2.64315 18.661 2.64315C19.9025 2.64315 21.0233 3.16434 21.8641 4.12432C22.3049 4.64631 22.6649 5.2471 22.9853 5.88669C23.3061 6.48747 23.6265 7.12826 23.9461 7.72825L24.0665 7.96904C27.1026 13.9191 30.026 19.9261 32.8351 25.9867V26.0267C33.1559 26.6683 33.4359 27.3883 33.7563 28.0298C33.9563 28.5094 34.1567 28.9094 34.2767 29.3102C34.5962 30.3502 34.7162 31.3518 34.5558 32.3926Z" fill="#808B93"/>
</svg>
