<svg width="133" height="40" viewBox="0 0 133 40" fill="none" xmlns="http://www.w3.org/2000/svg">
<path fill-rule="evenodd" clip-rule="evenodd" d="M82.3459 31.2813C74.6325 36.9667 63.4524 40.0001 53.8265 40.0001C40.3295 40.0001 28.1787 35.008 18.9861 26.7053C18.2639 26.0524 18.911 25.1626 19.7777 25.671C29.6983 31.4431 41.9646 34.9156 54.6354 34.9156C63.1808 34.9156 72.5814 33.1475 81.225 29.4786C82.5308 28.9239 83.6228 30.3337 82.3459 31.2813Z" fill="#808B93"/>
<path fill-rule="evenodd" clip-rule="evenodd" d="M85.5525 27.612C84.5702 26.3525 79.0351 27.0169 76.5506 27.3116C75.7937 27.404 75.6781 26.7454 76.3599 26.2716C80.7684 23.1689 88.0023 24.0644 88.8458 25.1045C89.6894 26.1502 88.6263 33.4014 84.4836 36.8624C83.848 37.3939 83.2413 37.1108 83.5245 36.4059C84.4547 34.0832 86.5405 28.8774 85.5525 27.612Z" fill="#808B93"/>
<path fill-rule="evenodd" clip-rule="evenodd" d="M76.724 4.36757V1.35154C76.724 0.895095 77.0707 0.588867 77.4867 0.588867H90.9895C91.4228 0.588867 91.7695 0.900873 91.7695 1.35154V3.93424C91.7637 4.36758 91.3997 4.9338 90.7526 5.82937L83.7556 15.8193C86.3557 15.7557 89.1002 16.1428 91.4575 17.4717C91.9891 17.7722 92.1335 18.2113 92.174 18.6446V21.8629C92.174 22.302 91.6886 22.8162 91.1802 22.5504C87.0259 20.3722 81.5081 20.1353 76.9147 22.5736C76.4467 22.8278 75.9556 22.3193 75.9556 21.8802V18.8237C75.9556 18.3326 75.9613 17.4948 76.4525 16.7495L84.5588 5.12448H77.504C77.0707 5.12448 76.724 4.81825 76.724 4.36757Z" fill="#808B93"/>
<path fill-rule="evenodd" clip-rule="evenodd" d="M27.4683 23.1864H23.3603C22.9674 23.1575 22.6554 22.8628 22.6265 22.4873V1.40394C22.6265 0.982161 22.9789 0.647051 23.418 0.647051H27.2487C27.6474 0.664373 27.9652 0.970604 27.9941 1.35194V4.10797H28.0692C29.0688 1.44438 30.9466 0.202148 33.4773 0.202148C36.0484 0.202148 37.6546 1.44438 38.8102 4.10797C39.804 1.44438 42.0631 0.202148 44.484 0.202148C46.2058 0.202148 48.0894 0.91282 49.2392 2.5075C50.5392 4.2813 50.2734 6.85823 50.2734 9.11737L50.2677 22.4237C50.2677 22.8455 49.9152 23.1864 49.4761 23.1864H45.3738C44.9636 23.1575 44.6343 22.8282 44.6343 22.4237V11.2494C44.6343 10.3596 44.7151 8.1409 44.5187 7.29733C44.2125 5.88177 43.2938 5.4831 42.1036 5.4831C41.1098 5.4831 40.0698 6.14756 39.648 7.21068C39.2262 8.2738 39.2666 10.0534 39.2666 11.2494V22.4237C39.2666 22.8455 38.9142 23.1864 38.4751 23.1864H34.3728C33.9568 23.1575 33.6333 22.8282 33.6333 22.4237L33.6275 11.2494C33.6275 8.89781 34.0146 5.43688 31.0968 5.43688C28.1443 5.43688 28.2599 8.81114 28.2599 11.2494V22.4237C28.2599 22.8455 27.9074 23.1864 27.4683 23.1864Z" fill="#808B93"/>
<path fill-rule="evenodd" clip-rule="evenodd" d="M103.394 0.202148C109.49 0.202148 112.789 5.43687 112.789 12.0929C112.789 18.5237 109.143 23.6255 103.394 23.6255C97.4086 23.6255 94.1499 18.3908 94.1499 11.8676C94.1499 5.30398 97.449 0.202148 103.394 0.202148ZM103.429 4.50664C100.402 4.50664 100.211 8.63201 100.211 11.2032C100.211 13.7801 100.17 19.2806 103.394 19.2806C106.578 19.2806 106.728 14.8432 106.728 12.1392C106.728 10.3596 106.653 8.23336 106.116 6.54623C105.654 5.07866 104.735 4.50664 103.429 4.50664Z" fill="#808B93"/>
<path fill-rule="evenodd" clip-rule="evenodd" d="M120.693 23.1864H116.602C116.192 23.1575 115.863 22.8282 115.863 22.4237L115.857 1.3346C115.892 0.947487 116.232 0.647051 116.648 0.647051H120.456C120.814 0.664373 121.109 0.907044 121.19 1.23638V4.46042H121.265C122.415 1.57728 124.027 0.202148 126.864 0.202148C128.707 0.202148 130.504 0.866604 131.659 2.68662C132.734 4.37375 132.734 7.21068 132.734 9.25025V22.5219C132.688 22.8917 132.347 23.1864 131.942 23.1864H127.823C127.447 23.1575 127.135 22.8802 127.095 22.5219V11.0703C127.095 8.76491 127.361 5.39065 124.524 5.39065C123.524 5.39065 122.605 6.06088 122.149 7.07778C121.571 8.36624 121.496 9.64892 121.496 11.0703V22.4237C121.49 22.8455 121.132 23.1864 120.693 23.1864" fill="#808B93"/>
<path fill-rule="evenodd" clip-rule="evenodd" d="M65.96 13.1157C65.96 14.7162 66.0005 16.0508 65.1916 17.4722C64.5387 18.6278 63.4987 19.3384 62.3489 19.3384C60.7715 19.3384 59.8471 18.1367 59.8471 16.3629C59.8471 12.8615 62.9845 12.2259 65.96 12.2259V13.1157ZM70.1028 23.1287C69.8312 23.3714 69.4383 23.3887 69.1321 23.2269C67.7685 22.0945 67.5201 21.5687 66.7747 20.4882C64.5214 22.7878 62.9209 23.4754 60.0031 23.4754C56.5422 23.4754 53.8555 21.3433 53.8555 17.0735C53.8555 13.7397 55.6582 11.469 58.2351 10.3597C60.4653 9.37744 63.5796 9.2041 65.96 8.93254V8.40099C65.96 7.42453 66.0352 6.26897 65.4574 5.42541C64.9605 4.6685 64.0014 4.3565 63.152 4.3565C61.5862 4.3565 60.1938 5.15961 59.8529 6.82363C59.7835 7.19341 59.512 7.55742 59.1364 7.57475L55.1555 7.14719C54.8204 7.07208 54.4448 6.80053 54.543 6.2863C55.4559 1.45603 59.824 0 63.7298 0C65.7289 0 68.3405 0.531562 69.9179 2.04536C71.917 3.9116 71.7263 6.40185 71.7263 9.11166V15.5135C71.7263 17.4375 72.5237 18.2811 73.2748 19.3211C73.5348 19.6909 73.5926 20.1358 73.2574 20.4131C72.4197 21.1122 70.929 22.4122 70.1085 23.1403L70.1027 23.1287" fill="#808B93"/>
<path fill-rule="evenodd" clip-rule="evenodd" d="M12.1046 13.1157C12.1046 14.7162 12.145 16.0508 11.3361 17.4722C10.6832 18.6278 9.64899 19.3384 8.49342 19.3384C6.91607 19.3384 5.9974 18.1367 5.9974 16.3629C5.9974 12.8615 9.13476 12.2259 12.1046 12.2259V13.1157ZM16.2473 23.1287C15.9757 23.3714 15.5828 23.3887 15.2766 23.2269C13.913 22.0945 13.6704 21.5687 12.9192 20.4882C10.6659 22.7878 9.07121 23.4754 6.14762 23.4754C2.69247 23.4754 0 21.3433 0 17.0735C0 13.7397 1.80846 11.469 4.3796 10.3597C6.60985 9.37744 9.7241 9.2041 12.1046 8.93254V8.40099C12.1046 7.42453 12.1797 6.26897 11.6077 5.42541C11.105 4.6685 10.1459 4.3565 9.30232 4.3565C7.73653 4.3565 6.33829 5.15961 5.9974 6.82363C5.92806 7.19341 5.6565 7.55742 5.28672 7.57475L1.30001 7.14719C0.964898 7.07208 0.595116 6.80053 0.687561 6.2863C1.60624 1.45603 5.96851 0 9.87433 0C11.8735 0 14.485 0.531562 16.0624 2.04536C18.0615 3.9116 17.8709 6.40185 17.8709 9.11166V15.5135C17.8709 17.4375 18.6682 18.2811 19.4193 19.3211C19.6851 19.6909 19.7429 20.1358 19.4078 20.4131C18.57 21.1122 17.0793 22.4122 16.2588 23.1403L16.2473 23.1287" fill="#808B93"/>
</svg>
