<svg width="243" height="637" viewBox="0 0 243 637" fill="none" xmlns="http://www.w3.org/2000/svg">
<path d="M143.971 144.835C144.458 145.49 144.637 146.245 144.478 146.96C144.319 147.665 143.842 148.251 143.137 148.619L139.095 150.735C138.846 150.864 138.757 151.162 138.886 151.4C139.015 151.648 139.313 151.738 139.551 151.609L142.183 150.238C142.124 151.301 141.528 152.264 140.555 152.771L132.698 156.873C132.45 157.002 132.36 157.3 132.49 157.538C132.619 157.787 132.917 157.876 133.155 157.747L141.012 153.645C142.462 152.88 143.296 151.331 143.157 149.712L143.594 149.483C144.557 148.977 145.213 148.152 145.441 147.169C145.67 146.166 145.431 145.123 144.766 144.229L136.77 133.492C136.671 133.363 136.522 133.293 136.373 133.293C136.274 133.293 136.164 133.323 136.075 133.393C135.857 133.562 135.807 133.869 135.976 134.088L143.971 144.835Z" fill="#0D99FF"/>
<path d="M112.933 135.131C112.804 134.893 112.903 134.585 113.141 134.466L122.885 129.37C121.832 126.669 122.965 123.53 125.597 122.159C126.431 121.722 127.345 121.494 128.268 121.494C128.844 121.494 129.431 121.583 130.007 121.762C131.477 122.219 132.688 123.232 133.403 124.603C134.198 126.122 134.238 127.831 133.682 129.321L134.933 131.009C135.102 131.228 135.052 131.545 134.834 131.704C134.615 131.863 134.307 131.824 134.138 131.605L133.185 130.324C132.659 131.178 131.904 131.903 130.96 132.4C128.239 133.82 124.901 132.856 123.342 130.254L113.618 135.34C113.36 135.469 113.062 135.379 112.933 135.131ZM123.789 128.903C123.858 129.102 123.928 129.311 124.027 129.499C124.087 129.609 124.147 129.698 124.216 129.797C125.11 131.237 126.669 132.072 128.278 132.072C129.023 132.072 129.778 131.893 130.483 131.526C131.397 131.049 132.082 130.314 132.519 129.45C132.698 129.092 132.817 128.725 132.907 128.337C133.155 127.265 133.056 126.112 132.5 125.069C131.904 123.937 130.91 123.103 129.689 122.716C128.467 122.328 127.176 122.447 126.044 123.043C123.918 124.166 122.994 126.688 123.789 128.903Z" fill="#0D99FF"/>
<path d="M106.875 138.865L111.513 136.442C111.761 136.313 111.851 136.015 111.722 135.776C111.632 135.608 111.463 135.508 111.285 135.508C111.205 135.508 111.126 135.528 111.056 135.568L106.418 137.991C106.169 138.12 106.08 138.418 106.209 138.657C106.338 138.895 106.626 138.985 106.875 138.865Z" fill="#0D99FF"/>
<path d="M126.789 163.219L118.753 167.421C118.545 167.53 118.277 167.5 118.098 167.341L116.31 165.772C116.161 165.643 115.963 165.613 115.784 165.693C114.324 166.328 112.595 165.722 111.86 164.322L106.229 153.555C106.139 153.386 105.971 153.287 105.792 153.287C105.712 153.287 105.633 153.307 105.563 153.347C105.315 153.476 105.226 153.774 105.355 154.012L110.986 164.779C111.91 166.547 114.016 167.361 115.883 166.716L117.452 168.086C117.939 168.513 118.654 168.593 119.22 168.295L127.256 164.093C127.832 163.786 128.159 163.17 128.09 162.524L127.871 160.518L130.603 159.088C130.851 158.958 130.941 158.66 130.811 158.422C130.682 158.174 130.384 158.084 130.146 158.214L127.107 159.803C126.928 159.902 126.819 160.091 126.838 160.299L127.097 162.633C127.126 162.882 127.007 163.11 126.789 163.219Z" fill="#0D99FF"/>
<path d="M104.272 151.926C104.401 152.175 104.699 152.264 104.938 152.135C105.186 152.006 105.275 151.708 105.146 151.47L103.021 147.397L113.122 160.965C114.443 162.743 117.095 163.359 119.042 162.336L136.006 153.466C136.254 153.337 136.344 153.039 136.215 152.8C136.085 152.552 135.788 152.463 135.549 152.592L118.585 161.461C117.055 162.266 114.959 161.769 113.926 160.369L102.226 144.646C101.739 143.99 101.561 143.236 101.72 142.521C101.839 141.994 102.137 141.527 102.574 141.18C102.723 141.06 102.882 140.951 103.06 140.862C103.309 140.733 103.398 140.435 103.269 140.196C103.18 140.027 103.011 139.928 102.832 139.928C102.753 139.928 102.673 139.948 102.604 139.988C101.65 140.484 100.935 141.329 100.617 142.362C100.299 143.395 100.389 144.487 100.895 145.451L104.272 151.926Z" fill="#0D99FF"/>
<path d="M127.791 125.626C127.811 125.655 127.831 125.685 127.851 125.715C127.97 125.953 127.97 126.221 127.791 126.877C127.662 127.334 127.613 127.701 127.603 128.019C127.593 128.426 127.672 128.764 127.841 129.092C128.219 129.807 128.785 130.026 129.47 129.668C130.155 129.31 130.304 128.714 129.927 127.999L129.758 127.682L129.698 127.572L129.54 127.652L129.033 127.92L129.281 128.397C129.45 128.715 129.371 128.913 129.152 129.022C128.934 129.142 128.735 129.102 128.526 128.705C128.368 128.407 128.318 128.119 128.338 127.751C128.358 127.523 128.397 127.274 128.487 126.947C128.517 126.857 128.526 126.778 128.546 126.698C128.705 126.033 128.675 125.606 128.447 125.159L128.159 124.612L126.133 125.675L126.47 126.311L127.791 125.626Z" fill="#0D99FF"/>
<path d="M245.539 255.213C245.877 253.713 245.52 252.154 244.526 250.823L231.962 233.938C231.863 233.809 231.714 233.739 231.565 233.739C231.465 233.739 231.356 233.769 231.267 233.839C231.048 234.007 230.998 234.315 231.167 234.534L243.732 251.419C244.546 252.521 244.844 253.783 244.576 254.995C244.308 256.186 243.503 257.18 242.321 257.795L235.955 261.123C235.706 261.252 235.617 261.55 235.746 261.788C235.875 262.037 236.173 262.126 236.412 261.997L240.961 259.613C241.04 261.56 240.007 263.407 238.249 264.321L225.903 270.777C225.655 270.906 225.565 271.204 225.695 271.443C225.824 271.691 226.122 271.78 226.36 271.651L238.706 265.195C240.951 264.023 242.202 261.6 241.914 259.107L242.768 258.66C244.228 257.915 245.212 256.683 245.539 255.213Z" fill="#0D99FF"/>
<path d="M195.172 235.537L210.717 227.412C209.902 225.496 209.793 223.37 210.429 221.364C211.134 219.119 212.663 217.281 214.749 216.199C216.03 215.533 217.411 215.196 218.821 215.196C219.705 215.196 220.599 215.335 221.463 215.603C223.708 216.308 225.546 217.838 226.628 219.923C227.721 222.009 227.929 224.393 227.224 226.638C227.155 226.856 227.075 227.055 226.996 227.263L229.062 230.035C229.23 230.253 229.181 230.571 228.962 230.73C228.744 230.889 228.436 230.849 228.267 230.631L226.529 228.286C225.705 229.776 224.463 230.998 222.914 231.803C220.828 232.895 218.444 233.104 216.199 232.398C214.044 231.723 212.266 230.273 211.164 228.306L195.639 236.421C195.391 236.55 195.093 236.451 194.974 236.213C194.835 235.964 194.924 235.656 195.172 235.537ZM211.591 226.946C211.68 227.164 211.779 227.393 211.899 227.611C211.938 227.691 211.988 227.76 212.038 227.84C213.021 229.568 214.58 230.849 216.487 231.445C217.262 231.683 218.047 231.803 218.831 231.803C220.073 231.803 221.304 231.505 222.437 230.909C223.946 230.124 225.118 228.882 225.844 227.373C226.002 227.035 226.151 226.687 226.271 226.32C226.271 226.31 226.271 226.3 226.281 226.29C226.896 224.304 226.708 222.208 225.744 220.37C224.781 218.523 223.152 217.162 221.155 216.537C219.169 215.911 217.053 216.1 215.206 217.073C213.359 218.036 211.998 219.665 211.372 221.662C210.816 223.41 210.905 225.267 211.591 226.946Z" fill="#0D99FF"/>
<path d="M185.042 241.944L192.342 238.13C192.59 238 192.68 237.702 192.551 237.464C192.461 237.295 192.292 237.196 192.114 237.196C192.034 237.196 191.955 237.216 191.885 237.256L184.585 241.07C184.337 241.199 184.247 241.497 184.376 241.735C184.505 241.983 184.803 242.073 185.042 241.944Z" fill="#0D99FF"/>
<path d="M178.218 245.628C178.466 245.43 178.735 245.251 179.032 245.092C179.281 244.963 179.37 244.665 179.241 244.427C179.152 244.258 178.983 244.158 178.804 244.158C178.725 244.158 178.645 244.178 178.576 244.218C178.397 244.317 178.218 244.417 178.049 244.526C177.94 244.605 177.831 244.685 177.721 244.764C177.672 244.804 177.622 244.834 177.582 244.874C177.354 245.062 177.145 245.261 176.957 245.479C175.248 247.317 174.782 250.088 176.003 252.432L181.337 262.623C181.466 262.871 181.764 262.96 182.002 262.831C182.251 262.702 182.34 262.404 182.211 262.166L177.195 252.581L195.222 276.796C197.219 279.478 201.231 280.412 204.171 278.872L230.85 264.927C231.098 264.798 231.187 264.5 231.058 264.261C230.929 264.013 230.631 263.924 230.393 264.053L203.714 277.998C201.192 279.319 197.745 278.514 196.027 276.2L177.632 251.479C176.818 250.376 176.52 249.115 176.788 247.903C176.977 246.999 177.483 246.224 178.218 245.628Z" fill="#0D99FF"/>
<path d="M222.556 273.091C222.427 272.843 222.129 272.753 221.89 272.882L217.123 275.375C216.944 275.475 216.835 275.663 216.855 275.872L217.262 279.547C217.322 280.044 217.063 280.52 216.626 280.749L204.002 287.354C203.565 287.582 203.019 287.523 202.651 287.195L199.831 284.732C199.692 284.603 199.483 284.573 199.304 284.652C196.871 285.715 194 284.702 192.779 282.368L183.929 265.433C183.84 265.264 183.671 265.165 183.492 265.165C183.413 265.165 183.333 265.185 183.264 265.225C183.015 265.354 182.926 265.652 183.055 265.89L191.905 282.825C193.315 285.526 196.563 286.748 199.414 285.685L202.006 287.95C202.681 288.546 203.675 288.655 204.469 288.238L217.093 281.633C217.898 281.206 218.365 280.352 218.255 279.438L217.888 276.1L222.357 273.766C222.586 273.637 222.685 273.339 222.556 273.091Z" fill="#0D99FF"/>
<path d="M218.067 221.383C218.107 221.433 218.127 221.483 218.156 221.532C218.345 221.9 218.345 222.327 218.057 223.37C218.027 223.479 218.008 223.578 217.978 223.688C217.869 224.125 217.799 224.512 217.769 224.86C217.7 225.644 217.829 226.25 218.147 226.856C218.733 227.978 219.627 228.326 220.709 227.76C221.792 227.194 222.02 226.26 221.434 225.138L221.077 224.453L220.034 224.999L220.431 225.754C220.689 226.25 220.57 226.558 220.222 226.747C219.875 226.926 219.567 226.876 219.229 226.24C218.941 225.694 218.842 225.188 218.951 224.453C218.991 224.164 219.06 223.857 219.16 223.489C219.17 223.449 219.17 223.429 219.18 223.39C219.517 222.168 219.487 221.433 219.09 220.678L218.643 219.814L215.465 221.483L215.991 222.486L218.067 221.383Z" fill="#0D99FF"/>
<path d="M183.085 377.302L190.951 373.19C190.584 372.196 190.534 371.134 190.862 370.111C191.249 368.889 192.084 367.886 193.216 367.3C193.911 366.932 194.666 366.753 195.431 366.753C195.917 366.753 196.394 366.823 196.871 366.972C198.093 367.359 199.096 368.194 199.682 369.326C200.327 370.567 200.367 371.958 199.92 373.18L200.923 374.521C201.092 374.739 201.043 375.057 200.824 375.216C200.606 375.385 200.298 375.335 200.129 375.116L199.424 374.173C198.987 374.838 198.41 375.405 197.656 375.802C196.523 376.398 195.222 376.507 194.001 376.13C192.898 375.782 191.994 375.057 191.388 374.093L183.542 378.196C183.303 378.325 182.995 378.225 182.876 377.987C182.747 377.729 182.847 377.431 183.085 377.302ZM191.835 372.723C191.905 372.921 191.974 373.11 192.064 373.299C192.123 373.408 192.203 373.507 192.272 373.617C192.749 374.352 193.454 374.898 194.298 375.166C194.676 375.285 195.053 375.345 195.441 375.345C196.047 375.345 196.643 375.196 197.199 374.908C197.904 374.54 198.45 373.974 198.798 373.319C198.977 372.981 199.096 372.604 199.165 372.226C199.314 371.422 199.225 370.558 198.818 369.783C198.351 368.879 197.556 368.223 196.583 367.916C195.62 367.608 194.587 367.707 193.683 368.174C192.779 368.641 192.123 369.435 191.815 370.409C191.567 371.173 191.587 371.978 191.835 372.723Z" fill="#0D99FF"/>
<path d="M181.615 378.136C181.535 378.136 181.456 378.156 181.386 378.196L177.612 380.172C177.364 380.301 177.274 380.599 177.404 380.838C177.533 381.086 177.831 381.175 178.069 381.046L181.843 379.07C182.092 378.94 182.181 378.642 182.052 378.404C181.972 378.225 181.794 378.136 181.615 378.136Z" fill="#0D99FF"/>
<path d="M174.583 382.913C174.693 382.824 174.822 382.734 174.961 382.665C175.209 382.536 175.299 382.238 175.169 381.999C175.08 381.831 174.911 381.731 174.732 381.731C174.653 381.731 174.573 381.751 174.504 381.791C173.699 382.208 173.113 382.913 172.845 383.777C172.577 384.641 172.656 385.555 173.074 386.36L175.835 391.634C175.964 391.882 176.262 391.971 176.5 391.842C176.749 391.713 176.838 391.415 176.709 391.177L175.517 388.892L183.036 398.994C184.138 400.474 186.353 400.99 187.972 400.136L201.778 392.915C202.026 392.786 202.116 392.488 201.987 392.25C201.858 392.001 201.56 391.912 201.321 392.041L187.515 399.262C186.313 399.888 184.665 399.51 183.84 398.408L174.315 385.615C173.938 385.098 173.799 384.512 173.918 383.956C174.007 383.549 174.236 383.191 174.583 382.913Z" fill="#0D99FF"/>
<path d="M205.383 392.2L198.997 395.537C198.749 395.666 198.659 395.964 198.788 396.203C198.917 396.441 199.215 396.54 199.454 396.411L205.84 393.074C207.042 392.448 207.727 391.177 207.638 389.846L207.936 389.687C208.751 389.26 209.297 388.575 209.485 387.74C209.674 386.896 209.476 386.022 208.919 385.277L202.414 376.537C202.314 376.408 202.165 376.338 202.016 376.338C201.917 376.338 201.808 376.368 201.718 376.437C201.5 376.596 201.45 376.914 201.619 377.133L208.125 385.873C208.502 386.39 208.641 386.976 208.522 387.532C208.393 388.078 208.025 388.535 207.479 388.823L204.192 390.541C203.943 390.67 203.854 390.968 203.983 391.207C204.112 391.445 204.41 391.544 204.648 391.415L206.635 390.372C206.555 391.147 206.099 391.833 205.383 392.2Z" fill="#0D99FF"/>
<path d="M197.586 396.838C197.457 396.59 197.159 396.5 196.921 396.63L194.447 397.921C194.269 398.02 194.159 398.209 194.179 398.417L194.388 400.324C194.408 400.483 194.328 400.632 194.179 400.712L187.644 404.129C187.495 404.208 187.336 404.178 187.217 404.079L185.757 402.808C185.618 402.678 185.409 402.649 185.23 402.728C184.078 403.225 182.737 402.758 182.161 401.655L177.582 392.895C177.493 392.726 177.324 392.627 177.145 392.627C177.066 392.627 176.986 392.647 176.917 392.686C176.669 392.816 176.579 393.114 176.708 393.352L181.287 402.122C182.052 403.582 183.78 404.268 185.33 403.761L186.561 404.844C186.988 405.221 187.594 405.291 188.101 405.022L194.636 401.606C195.143 401.338 195.431 400.801 195.371 400.235L195.202 398.666L197.368 397.533C197.616 397.384 197.715 397.086 197.586 396.838Z" fill="#0D99FF"/>
<path d="M195.053 370.19C195.073 370.21 195.083 370.24 195.103 370.269C195.192 370.448 195.192 370.667 195.073 371.133C195.063 371.163 195.063 371.183 195.053 371.223C194.934 371.64 194.885 371.978 194.895 372.266C194.904 372.554 194.974 372.792 195.103 373.031C195.411 373.607 195.868 373.795 196.434 373.497C196.99 373.209 197.109 372.723 196.811 372.137L196.732 371.978L196.633 371.789L196.345 371.938L196.096 372.067L196.295 372.455C196.434 372.713 196.364 372.872 196.186 372.971C196.007 373.07 195.848 373.04 195.669 372.713C195.56 372.494 195.51 372.286 195.51 372.037C195.51 371.829 195.55 371.6 195.639 371.292C195.669 371.193 195.689 371.104 195.709 371.014C195.818 370.518 195.788 370.18 195.61 369.842L195.381 369.395L193.732 370.259L194.001 370.776L195.053 370.19Z" fill="#0D99FF"/>
<path d="M37.0601 556.372C36.9409 556.372 36.8217 556.411 36.7324 556.501L26.7006 565.36C26.0848 565.897 25.3498 566.145 24.6248 566.036C23.9096 565.936 23.2839 565.509 22.8568 564.834L20.4135 560.98C20.2645 560.752 19.9566 560.682 19.7282 560.831C19.4997 560.98 19.4302 561.288 19.5792 561.516L21.1683 564.019C20.1056 564.049 19.0924 563.533 18.5064 562.609L13.7588 555.13C13.6694 554.981 13.5005 554.902 13.3416 554.902C13.2522 554.902 13.1628 554.921 13.0734 554.981C12.845 555.13 12.7754 555.438 12.9244 555.666L17.6721 563.145C18.5462 564.526 20.1751 565.221 21.7642 564.953L22.0324 565.37C22.6184 566.294 23.4925 566.88 24.4956 567.019C25.5187 567.168 26.5318 566.84 27.3661 566.105L37.3977 557.246C37.6063 557.067 37.6262 556.749 37.4375 556.54C37.3283 556.431 37.1892 556.372 37.0601 556.372Z" fill="#0D99FF"/>
<path d="M33.027 532.474C33.2554 532.325 33.325 532.018 33.176 531.789L30.3652 527.369C30.2758 527.22 30.1069 527.141 29.948 527.141C29.8586 527.141 29.7692 527.161 29.6798 527.22C29.4513 527.369 29.3819 527.677 29.5309 527.906L32.3417 532.325C32.4907 532.544 32.7985 532.614 33.027 532.474Z" fill="#0D99FF"/>
<path d="M7.16351 541.98L17.4236 558.139C17.5726 558.368 17.8805 558.437 18.109 558.288C18.3374 558.139 18.4069 557.832 18.2579 557.603L7.9978 541.443C7.07409 539.983 7.38194 537.858 8.69301 536.705L23.383 523.724C23.9988 523.178 24.7338 522.939 25.4588 523.048C25.9952 523.128 26.4819 523.386 26.8693 523.783C26.9984 523.923 27.1176 524.072 27.2268 524.24C27.346 524.429 27.5745 524.509 27.7831 524.449C27.8327 524.439 27.8725 524.429 27.9122 524.399C28.091 524.29 28.1704 524.091 28.1406 523.903C28.1307 523.843 28.1108 523.774 28.071 523.714C27.495 522.8 26.5912 522.165 25.5384 521.936C25.2404 521.867 24.9424 521.837 24.6444 521.837C23.8896 521.837 23.1446 522.055 22.4791 522.472L16.3012 526.396C16.0728 526.545 16.0032 526.853 16.1522 527.081C16.3012 527.309 16.6092 527.379 16.8376 527.23L20.7212 524.767L8.04751 535.97C6.37887 537.431 5.9915 540.122 7.16351 541.98Z" fill="#0D99FF"/>
<path d="M1.23396 542.665L6.09078 550.313C6.43841 550.859 7.09397 551.137 7.72964 551.018L9.70617 550.631L11.3649 553.233C11.5139 553.462 11.8217 553.531 12.0502 553.382C12.2786 553.233 12.3482 552.925 12.1992 552.697L10.3617 549.807C10.2525 549.638 10.0439 549.548 9.84523 549.588L7.53104 550.045C7.29266 550.095 7.0543 549.985 6.92518 549.787L2.06825 542.139C1.93913 541.94 1.94908 541.672 2.08813 541.473L3.49845 539.556C3.61764 539.397 3.62761 539.199 3.53822 539.03C2.78336 537.629 3.24029 535.862 4.58116 535.007L14.8412 528.492C15.0697 528.343 15.1392 528.035 14.9902 527.806C14.9009 527.657 14.732 527.578 14.573 527.578C14.4836 527.578 14.3942 527.598 14.3048 527.657L4.04478 534.173C2.35628 535.246 1.73051 537.411 2.5251 539.219L1.2935 540.897C0.906134 541.404 0.886332 542.109 1.23396 542.665Z" fill="#0D99FF"/>
<path d="M47.7468 545.148C49.4552 547.84 48.6605 551.415 45.9689 553.124C44.5187 554.037 42.8203 554.226 41.2908 553.789L39.7116 555.18C39.5129 555.358 39.195 555.339 39.0063 555.14C38.8275 554.931 38.8474 554.623 39.046 554.435L40.2379 553.382C39.344 552.925 38.5495 552.24 37.9833 551.336C36.3346 548.744 37.0297 545.337 39.483 543.559L33.6031 534.302C33.4542 534.073 33.5237 533.766 33.7521 533.617C33.8316 533.567 33.9308 533.537 34.0202 533.537C34.1891 533.537 34.348 533.617 34.4374 533.766L40.3274 543.052C41.1319 542.655 41.9959 542.456 42.8501 542.456C44.777 542.466 46.6542 543.42 47.7468 545.148ZM46.9125 545.684C45.6114 543.638 43.0289 542.933 40.8835 543.916C40.6849 544.006 40.4863 544.085 40.3075 544.204C40.2081 544.264 40.1287 544.353 40.0293 544.423C38.0429 545.903 37.4768 548.684 38.8276 550.809C39.3838 551.684 40.1684 552.309 41.0623 552.667C41.4199 552.816 41.7973 552.915 42.1847 552.975C42.4131 553.005 42.6415 553.034 42.8799 553.034C43.754 553.034 44.6478 552.796 45.4424 552.289C47.6673 550.869 48.3229 547.909 46.9125 545.684Z" fill="#0D99FF"/>
<path d="M43.6847 546.37L44.4891 547.631C44.4593 547.661 44.4296 547.671 44.3998 547.691C44.1713 547.83 43.9031 547.85 43.2277 547.73C42.7609 547.641 42.3935 547.621 42.0756 547.641C41.6684 547.671 41.3406 547.77 41.0228 547.969C40.3474 548.396 40.1686 548.982 40.5858 549.637C41.0029 550.293 41.6088 550.382 42.2842 549.955L42.592 549.767L42.7014 549.697L42.6119 549.548L42.3041 549.061L41.8471 549.349C41.5491 549.538 41.3407 549.479 41.2115 549.27C41.0725 549.061 41.0922 548.863 41.4796 548.614C41.7577 548.436 42.0458 548.356 42.4133 548.346C42.6417 548.346 42.89 548.366 43.2277 548.426C43.3171 548.446 43.3966 548.446 43.476 548.465C44.1514 548.565 44.5785 548.505 45.0056 548.237L45.5321 547.909L44.3104 545.982L43.6847 546.37Z" fill="#0D99FF"/>
<path d="M227.542 494.304L270.689 557.802C273.867 562.48 273.072 569.472 268.911 573.386L229.38 610.592C227.324 612.529 224.781 613.433 222.209 613.155C219.666 612.877 217.421 611.466 215.872 609.182L214.779 607.583C210.538 608.695 206.069 607.027 203.606 603.401L180.175 568.916L174.156 570.297C172.756 570.615 171.286 570.038 170.481 568.857L156.377 548.098C155.563 546.896 155.563 545.347 156.387 544.155L159.953 538.98C157.46 534.352 158.85 528.511 163.201 525.551L213.19 491.583C214.928 490.401 216.925 489.795 218.981 489.795C219.626 489.795 220.282 489.855 220.937 489.984C223.311 490.441 225.407 491.672 226.937 493.51C227.145 493.748 227.344 494.026 227.542 494.304ZM214.183 606.699L172.726 545.684C169.547 541.006 170.342 534.014 174.504 530.1L214.035 492.904C214.889 492.099 215.822 491.484 216.806 491.046C215.733 491.305 214.69 491.752 213.746 492.397L163.757 526.366C159.744 529.087 158.523 534.53 160.966 538.752C161.065 538.92 161.055 539.129 160.946 539.278L157.202 544.711C156.616 545.565 156.606 546.678 157.192 547.532L171.296 568.29C171.872 569.135 172.925 569.552 173.928 569.323L180.284 567.863C180.483 567.814 180.692 567.903 180.811 568.072L204.44 602.835C206.595 606.013 210.459 607.523 214.183 606.699ZM269.874 558.358L226.728 494.87C226.559 494.612 226.37 494.374 226.182 494.135C224.841 492.526 223.063 491.543 221.106 491.325C218.832 491.076 216.557 491.891 214.72 493.619L175.189 530.816C171.375 534.411 170.64 540.827 173.55 545.118L216.696 608.616C218.077 610.652 220.083 611.913 222.328 612.152C222.596 612.181 222.864 612.191 223.132 612.191C225.139 612.191 227.086 611.377 228.704 609.857L268.235 572.651C272.059 569.065 272.784 562.649 269.874 558.358Z" fill="#0D99FF"/>
<path d="M16.5298 282.169C13.7487 279.508 13.3316 275.286 15.328 272.158C15.4373 271.989 15.5465 271.83 15.6657 271.671C15.6955 271.631 15.7253 271.582 15.7551 271.542C15.9141 271.333 16.0927 271.125 16.2815 270.926L56.5472 228.962C58.2755 227.164 60.7785 226.231 63.2814 226.231C65.1388 226.231 66.996 226.747 68.5355 227.81L102.325 251.25C104.113 252.492 105.206 254.27 105.404 256.256C105.603 258.213 104.898 260.14 103.428 261.679L102.464 262.682C103.925 265.672 103.388 269.257 101.074 271.671L79.2625 294.406L81.1993 298.578C81.686 299.621 81.4874 300.832 80.6928 301.657L67.5325 315.383C66.7478 316.198 65.5261 316.456 64.4732 316.019L60.1428 314.221C57.0637 316.784 52.475 316.665 49.5747 313.874L16.5298 282.169ZM15.3081 276.25C15.477 277.938 16.4206 279.468 17.9601 280.531L51.75 303.971C53.1206 304.924 54.7793 305.381 56.4479 305.381C58.6827 305.381 60.9174 304.547 62.4569 302.938L102.713 260.974C103.974 259.653 104.58 258.004 104.421 256.335C104.252 254.647 103.309 253.117 101.769 252.055L67.9794 228.614C64.7613 226.379 59.964 226.836 57.2723 229.637L17.0164 271.601C17.0065 271.611 16.9967 271.621 16.9867 271.631C16.8378 271.79 16.6987 271.949 16.5596 272.118C16.4404 272.267 16.3411 272.416 16.2319 272.575C16.212 272.595 16.202 272.624 16.1822 272.644C15.4869 273.767 15.179 274.998 15.3081 276.25ZM16.4404 280.56C16.6689 280.868 16.9271 281.176 17.2152 281.454L50.2601 313.148C52.8723 315.651 57.0239 315.701 59.7156 313.268C59.8547 313.139 60.0633 313.109 60.2421 313.178L64.8606 315.095C65.536 315.373 66.3206 315.214 66.8173 314.688L79.9776 300.961C80.4842 300.425 80.6134 299.65 80.3055 298.985L78.2196 294.505C78.1302 294.317 78.17 294.098 78.3091 293.949L100.349 270.976C102.286 268.95 102.792 265.99 101.71 263.447L63.1622 303.633C60.1527 306.772 54.7793 307.288 51.1738 304.785L17.3839 281.345C17.0462 281.107 16.7384 280.839 16.4404 280.56Z" fill="#0D99FF"/>
<path d="M34.4679 67.2135C32.9582 65.7634 32.6105 63.5683 33.415 61.7606C33.5044 61.552 33.6138 61.3435 33.7329 61.1448C33.8422 60.966 33.9912 60.8071 34.1303 60.6383C34.1998 60.5588 34.2494 60.4694 34.3189 60.39L57.6798 36.0359C58.7227 34.9533 60.2324 34.3871 61.7421 34.3871C62.8645 34.3871 63.977 34.695 64.9106 35.3406L84.517 48.9479C85.5997 49.7028 86.2652 50.7854 86.3943 51.9972C86.5135 53.199 86.0863 54.371 85.1924 55.3046L84.7256 55.7913C85.5301 57.5791 85.1924 59.6848 83.8217 61.1051L71.2672 74.1959L72.33 76.4903C72.6479 77.1657 72.5089 77.9702 71.9924 78.5066L64.3543 86.4723C63.8378 87.0186 63.0532 87.1874 62.348 86.8895L59.9544 85.8962C58.0871 87.3662 55.3755 87.2669 53.6472 85.6082L34.4679 67.2135ZM83.9807 56.576L61.8315 79.6687C60.0238 81.5558 56.776 81.8737 54.6108 80.364L36.5636 67.8392L54.3426 84.8931C55.7728 86.2638 58.0573 86.2936 59.5471 84.9527C59.6862 84.8236 59.8948 84.7938 60.0735 84.8633L62.7552 85.9757C63.0731 86.1048 63.4307 86.0353 63.6591 85.787L71.297 77.8213C71.5255 77.573 71.5851 77.2154 71.446 76.9075L70.2343 74.3052C70.1449 74.1165 70.1846 73.898 70.3237 73.749L83.1166 60.4198C84.0999 59.3868 84.4177 57.9069 83.9807 56.576ZM34.1104 63.608C34.1998 64.5317 34.7162 65.3562 35.5605 65.9422L55.1669 79.5495C55.9317 80.0759 56.8554 80.3341 57.7791 80.3341C59.0207 80.3341 60.2622 79.8673 61.1164 78.9833L84.4773 54.6292C85.1725 53.9041 85.5004 53.0103 85.411 52.1064C85.3216 51.1827 84.805 50.3583 83.9608 49.7723L64.3543 36.165C62.5665 34.9235 59.9047 35.1816 58.4148 36.7311L35.0539 61.0852C34.8751 61.264 34.7262 61.4627 34.597 61.6713C34.4977 61.8203 34.4282 61.9791 34.3587 62.1381C34.1402 62.6049 34.0607 63.1015 34.1104 63.608Z" fill="#0D99FF"/>
<path d="M213.985 106.486L230.254 88.2105C230.433 88.002 230.423 87.6941 230.214 87.5054C230.125 87.4259 230.006 87.3763 229.887 87.3763C229.748 87.3763 229.619 87.4358 229.519 87.5451L213.578 105.453L207.618 100.149C207.41 99.9705 207.102 99.9804 206.913 100.189C206.724 100.398 206.744 100.705 206.953 100.894L213.29 106.526C213.488 106.715 213.806 106.695 213.985 106.486Z" fill="#0D99FF"/>
<path d="M266.437 46.0673L232.469 84.2274C232.29 84.436 232.3 84.7439 232.509 84.9326C232.717 85.1114 233.025 85.1015 233.214 84.8929L267.52 46.3553C267.609 46.256 267.649 46.1269 267.649 45.9978C267.639 45.8686 267.58 45.7396 267.48 45.6601L262.077 40.8528C261.988 40.7734 261.868 40.7237 261.749 40.7237C261.61 40.7237 261.481 40.7833 261.382 40.8925C261.203 41.1011 261.213 41.409 261.422 41.5977L266.437 46.0673Z" fill="#0D99FF"/>
<path d="M215.564 1.85862L216.091 1.2627L244.457 26.5107C244.666 26.6895 244.974 26.6796 245.163 26.471C245.341 26.2624 245.331 25.9545 245.123 25.7658L216.389 0.189991C216.299 0.110533 216.18 0.0608654 216.061 0.0608654C215.922 0.0608654 215.793 0.120443 215.693 0.229698L214.829 1.19317C214.65 1.40175 214.66 1.70967 214.869 1.89839C215.077 2.07717 215.385 2.0672 215.564 1.85862Z" fill="#0D99FF"/>
<path d="M159.208 73.3818L157.758 48.4615C157.748 48.3721 157.778 48.2926 157.817 48.2132C157.827 48.1933 157.837 48.1734 157.847 48.1536C157.857 48.1337 157.867 48.1138 157.877 48.094L199.662 1.15374C199.762 1.04449 199.901 0.984848 200.03 0.984848C200.149 0.984848 200.268 1.02458 200.358 1.11398L208.462 8.32487L211.571 4.8386C211.671 4.72935 211.81 4.66977 211.939 4.66977C212.058 4.66977 212.177 4.7095 212.267 4.7989C212.475 4.97768 212.485 5.29548 212.306 5.50405L209.197 8.99032L251.44 46.5843C251.539 46.6737 251.599 46.7928 251.609 46.922C251.618 47.0511 251.569 47.1802 251.479 47.2796L197.954 107.41C197.865 107.509 197.745 107.569 197.616 107.579C197.487 107.589 197.358 107.539 197.259 107.45L159.357 73.7195C159.337 73.7095 159.337 73.6896 159.317 73.6698C159.307 73.6499 159.287 73.64 159.277 73.6201C159.248 73.5506 159.218 73.4711 159.208 73.3818ZM158.96 48.392L171.772 59.7943C171.981 59.9731 171.991 60.2909 171.812 60.4995L160.41 73.3122L197.567 106.387L250.427 47.0014L208.562 9.73524L207.817 9.07973L200.089 2.19662L158.96 48.392ZM158.82 49.6037L159.506 61.4629L160.122 72.1303L170.729 60.2114L158.82 49.6037Z" fill="#0D99FF"/>
<path d="M198.122 54.3309L192.739 60.3797C192.56 60.5883 192.57 60.8962 192.779 61.0849C192.987 61.2637 193.295 61.2538 193.484 61.0452L198.867 54.9964L204.916 60.3797C205.125 60.5585 205.433 60.5486 205.621 60.34C205.8 60.1314 205.79 59.8235 205.582 59.6348L199.533 54.2515L204.916 48.2027C205.095 47.9941 205.085 47.6862 204.876 47.4975C204.787 47.418 204.668 47.3684 204.549 47.3684C204.41 47.3684 204.28 47.4279 204.181 47.5372L198.798 53.586L192.749 48.2027C192.66 48.1232 192.54 48.0736 192.421 48.0736C192.282 48.0736 192.153 48.1332 192.054 48.2424C191.875 48.451 191.885 48.7589 192.093 48.9476L198.122 54.3309Z" fill="#0D99FF"/>
<path d="M157.589 455.538L150.259 458.449C150.001 458.548 149.881 458.836 149.981 459.094C150.08 459.353 150.368 459.472 150.626 459.372L158.413 456.273C158.672 456.174 158.791 455.886 158.691 455.628L149.752 433.131C149.673 432.932 149.484 432.813 149.295 432.813C149.236 432.813 149.176 432.823 149.117 432.853C148.858 432.952 148.739 433.24 148.839 433.499L157.589 455.538Z" fill="#0D99FF"/>
<path d="M128.845 381.334C128.785 381.334 128.725 381.344 128.666 381.374L122.021 384.016C121.763 384.115 121.644 384.403 121.743 384.661C121.842 384.92 122.13 385.039 122.388 384.939L128.576 382.486L147.229 429.446C147.329 429.705 147.617 429.824 147.875 429.724C148.133 429.625 148.252 429.337 148.153 429.079L129.321 381.662C129.222 381.453 129.043 381.334 128.845 381.334Z" fill="#0D99FF"/>
<path d="M110.241 389.756L118.604 386.429C118.862 386.33 118.981 386.042 118.882 385.783C118.803 385.585 118.614 385.466 118.425 385.466C118.366 385.466 118.306 385.476 118.246 385.505L109.883 388.833C109.625 388.932 109.506 389.22 109.605 389.478C109.695 389.727 109.983 389.856 110.241 389.756Z" fill="#0D99FF"/>
<path d="M101.809 392.568C101.729 392.369 101.541 392.25 101.352 392.25C101.292 392.25 101.233 392.26 101.173 392.29L65.8139 406.334C65.5556 406.433 65.4365 406.721 65.5358 406.98L66.0126 408.171C66.1119 408.43 66.4 408.549 66.6582 408.45C66.9164 408.35 67.0355 408.062 66.9362 407.804L66.6483 407.079L101.551 393.213C101.789 393.114 101.908 392.826 101.809 392.568Z" fill="#0D99FF"/>
<path d="M152.415 470.199C152.464 470.318 152.464 470.457 152.405 470.576C152.355 470.695 152.256 470.795 152.136 470.844L105.494 489.368C105.474 489.378 105.454 489.378 105.425 489.378C105.405 489.388 105.385 489.388 105.365 489.388C105.276 489.398 105.196 489.398 105.107 489.358L82.4411 479.585C82.3616 479.545 82.2921 479.485 82.2425 479.416C82.2326 479.396 82.2226 479.386 82.2127 479.366C82.2027 479.346 82.1829 479.337 82.173 479.307L59.2292 421.54C59.1299 421.282 59.2491 420.994 59.5073 420.895L69.4695 416.941L67.7711 412.651C67.6718 412.392 67.7909 412.104 68.0491 412.005C68.1087 411.985 68.1684 411.965 68.228 411.965C68.4266 411.965 68.6153 412.085 68.6848 412.283L70.3833 416.574L122.359 395.925C122.419 395.905 122.478 395.885 122.538 395.885C122.737 395.885 122.925 396.004 122.995 396.203L152.415 470.199ZM104.411 487.978L98.5911 473.327L83.9409 479.148L94.1712 483.558L104.411 487.978ZM151.302 470.109L122.28 397.037L70.7706 417.498L69.8469 417.865L60.3416 421.639L82.9179 478.482L98.6806 472.225C98.7402 472.205 98.7997 472.185 98.8593 472.185C98.9288 472.185 98.9885 472.195 99.058 472.225C99.1772 472.275 99.2764 472.374 99.3261 472.493L105.583 488.256L151.302 470.109Z" fill="#0D99FF"/>
<path d="M113.728 442.239C113.668 442.239 113.608 442.249 113.549 442.279L106.109 445.239L103.15 437.799C103.07 437.601 102.881 437.482 102.693 437.482C102.633 437.482 102.574 437.491 102.514 437.521C102.256 437.621 102.137 437.909 102.236 438.167L105.196 445.606L97.7563 448.566C97.4981 448.665 97.3789 448.953 97.4782 449.212C97.5775 449.47 97.8656 449.589 98.1238 449.49L105.563 446.53L108.523 453.969C108.622 454.228 108.91 454.347 109.169 454.247C109.427 454.148 109.546 453.86 109.447 453.602L106.487 446.162L113.926 443.203C114.184 443.103 114.304 442.815 114.204 442.557C114.115 442.358 113.926 442.239 113.728 442.239Z" fill="#0D99FF"/>
<path d="M116.121 611.616C116.042 611.417 115.853 611.298 115.665 611.298C115.605 611.298 115.545 611.308 115.486 611.337C115.227 611.437 115.108 611.725 115.208 611.983L118.952 621.409L115.992 622.591C115.734 622.69 115.615 622.978 115.714 623.236C115.813 623.495 116.102 623.614 116.36 623.514L119.787 622.154C120.045 622.054 120.164 621.766 120.065 621.508L116.121 611.616Z" fill="#0D99FF"/>
<path d="M103.924 590.778L106.388 589.804L114.492 610.195C114.592 610.454 114.88 610.573 115.138 610.473C115.396 610.374 115.515 610.086 115.416 609.828L107.133 588.97C107.083 588.851 106.984 588.751 106.864 588.702C106.805 588.672 106.735 588.662 106.666 588.662C106.606 588.662 106.537 588.672 106.487 588.702L103.567 589.864C103.309 589.963 103.189 590.251 103.289 590.509C103.378 590.758 103.666 590.877 103.924 590.778Z" fill="#0D99FF"/>
<path d="M98.5806 592.903L102.256 591.443C102.514 591.344 102.633 591.055 102.534 590.797C102.454 590.599 102.266 590.479 102.077 590.479C102.017 590.479 101.958 590.489 101.898 590.519L98.223 591.979C97.9648 592.079 97.8457 592.367 97.945 592.625C98.0344 592.873 98.3223 593.002 98.5806 592.903Z" fill="#0D99FF"/>
<path d="M95.0345 593.777C94.9551 593.578 94.7664 593.459 94.5777 593.459C94.5181 593.459 94.4584 593.469 94.3988 593.499L78.8448 599.677C78.7256 599.726 78.6263 599.826 78.5767 599.945C78.527 600.064 78.527 600.203 78.5667 600.322L78.7753 600.849C78.8746 601.107 79.1627 601.226 79.4209 601.127C79.6791 601.027 79.7984 600.739 79.699 600.481L79.6792 600.422L94.7663 594.422C95.0047 594.313 95.1339 594.025 95.0345 593.777Z" fill="#0D99FF"/>
<path d="M117.284 627.914C117.383 628.173 117.264 628.461 117.006 628.56L96.4952 636.705C96.4753 636.715 96.4555 636.715 96.4257 636.715C96.4058 636.715 96.3859 636.724 96.3661 636.724C96.2767 636.734 96.1972 636.734 96.1078 636.695L86.1358 632.394C86.0564 632.354 85.9868 632.295 85.9371 632.225C85.9272 632.205 85.9173 632.195 85.9074 632.175C85.8975 632.156 85.8776 632.146 85.8676 632.116L75.7763 606.709C75.7267 606.59 75.7267 606.451 75.7863 606.331C75.8359 606.212 75.9353 606.113 76.0545 606.063L80.1764 604.424L79.5308 602.796C79.4315 602.537 79.5507 602.249 79.8089 602.15C79.8685 602.13 79.928 602.11 79.9876 602.11C80.1863 602.11 80.3751 602.229 80.4446 602.428L81.0901 604.057L103.686 595.078C103.746 595.058 103.805 595.038 103.865 595.038C103.935 595.038 103.994 595.048 104.064 595.078C104.183 595.128 104.282 595.227 104.332 595.346L117.284 627.914ZM95.4126 635.314L93.2076 629.752L87.6455 631.957L91.529 633.636L95.4126 635.314ZM116.181 627.815L103.627 596.2L81.4874 604.991L80.5638 605.358L76.8987 606.808L86.6225 631.291L93.297 628.64C93.3566 628.62 93.4162 628.6 93.4758 628.6C93.5454 628.6 93.6049 628.61 93.6744 628.64C93.7936 628.689 93.893 628.789 93.9426 628.908L96.5945 635.582L116.181 627.815Z" fill="#0D99FF"/>
<path d="M100.011 615.439C99.9512 615.439 99.8915 615.449 99.8319 615.479L96.8126 616.681L95.6107 613.661C95.5312 613.463 95.3426 613.343 95.1538 613.343C95.0942 613.343 95.0346 613.353 94.975 613.383C94.7168 613.483 94.5977 613.771 94.697 614.029L95.8988 617.048L92.8793 618.25C92.621 618.349 92.502 618.637 92.6013 618.896C92.7006 619.154 92.9885 619.273 93.2468 619.174L96.2663 617.972L97.468 620.981C97.5674 621.24 97.8554 621.359 98.1137 621.26C98.3719 621.16 98.4911 620.872 98.3918 620.614L97.19 617.604L100.199 616.403C100.458 616.303 100.577 616.015 100.478 615.757C100.398 615.558 100.209 615.439 100.011 615.439Z" fill="#0D99FF"/>
</svg>
