<svg width="242" height="637" viewBox="0 0 242 637" fill="none" xmlns="http://www.w3.org/2000/svg">
<path d="M98.6198 491.956C98.1332 491.301 97.9544 490.546 98.1133 489.831C98.2722 489.126 98.749 488.54 99.4542 488.172L103.497 486.056C103.745 485.927 103.834 485.629 103.705 485.391C103.576 485.143 103.278 485.053 103.04 485.182L100.408 486.553C100.467 485.49 101.063 484.527 102.037 484.02L109.893 479.918C110.141 479.789 110.231 479.491 110.102 479.253C109.973 479.004 109.675 478.915 109.436 479.044L101.58 483.146C100.13 483.911 99.2953 485.461 99.4343 487.079L98.9973 487.308C98.0338 487.814 97.3783 488.639 97.1499 489.622C96.9214 490.625 97.1598 491.668 97.8253 492.562L105.821 503.299C105.92 503.428 106.069 503.498 106.218 503.498C106.317 503.498 106.427 503.468 106.516 503.398C106.735 503.229 106.784 502.922 106.615 502.703L98.6198 491.956Z" fill="#0D99FF"/>
<path d="M128.993 501.451L119.269 506.537C117.71 503.944 114.363 502.971 111.651 504.391C110.698 504.888 109.953 505.613 109.426 506.467L108.473 505.186C108.304 504.968 107.996 504.918 107.777 505.087C107.559 505.256 107.509 505.563 107.678 505.782L108.93 507.47C108.363 508.96 108.413 510.669 109.208 512.188C109.923 513.559 111.125 514.562 112.605 515.029C113.171 515.208 113.757 515.297 114.343 515.297C115.266 515.297 116.17 515.079 117.014 514.632C119.647 513.251 120.779 510.122 119.726 507.421L129.47 502.325C129.718 502.196 129.807 501.898 129.678 501.66C129.529 501.412 129.231 501.322 128.993 501.451ZM116.538 513.748C115.405 514.344 114.104 514.453 112.893 514.075C111.671 513.698 110.678 512.854 110.082 511.722C109.535 510.679 109.436 509.516 109.674 508.454C109.764 508.066 109.883 507.689 110.062 507.341C110.499 506.487 111.184 505.742 112.098 505.265C112.803 504.898 113.558 504.719 114.303 504.719C115.922 504.719 117.471 505.544 118.365 506.994C118.425 507.093 118.494 507.182 118.554 507.292C118.653 507.49 118.723 507.689 118.792 507.888C119.607 510.103 118.683 512.625 116.538 513.748Z" fill="#0D99FF"/>
<path d="M135.717 497.926L131.079 500.349C130.831 500.478 130.741 500.776 130.87 501.015C130.96 501.183 131.129 501.283 131.307 501.283C131.387 501.283 131.466 501.263 131.536 501.223L136.174 498.8C136.423 498.671 136.512 498.373 136.383 498.134C136.264 497.896 135.966 497.806 135.717 497.926Z" fill="#0D99FF"/>
<path d="M115.803 473.571L123.838 469.37C124.047 469.26 124.315 469.29 124.494 469.449L126.282 471.019C126.431 471.148 126.629 471.177 126.808 471.098C128.268 470.462 129.996 471.068 130.731 472.469L136.363 483.235C136.452 483.404 136.621 483.503 136.8 483.503C136.88 483.503 136.959 483.484 137.029 483.444C137.277 483.315 137.366 483.017 137.237 482.778L131.606 472.012C130.682 470.244 128.576 469.429 126.709 470.075L125.14 468.704C124.653 468.277 123.938 468.198 123.372 468.496L115.336 472.697C114.76 473.005 114.432 473.621 114.502 474.266L114.721 476.273L111.989 477.703C111.741 477.832 111.651 478.13 111.781 478.368C111.91 478.617 112.208 478.706 112.446 478.577L115.485 476.988C115.664 476.889 115.773 476.7 115.753 476.491L115.495 474.157C115.465 473.909 115.595 473.68 115.803 473.571Z" fill="#0D99FF"/>
<path d="M138.329 484.865C138.2 484.616 137.902 484.527 137.664 484.656C137.416 484.785 137.326 485.083 137.455 485.321L139.581 489.394L129.48 475.826C128.159 474.048 125.507 473.432 123.56 474.455L106.596 483.325C106.347 483.454 106.258 483.752 106.387 483.991C106.516 484.239 106.814 484.328 107.052 484.199L124.017 475.33C125.546 474.525 127.642 475.022 128.675 476.422L140.375 492.145C140.862 492.801 141.041 493.555 140.882 494.271C140.763 494.797 140.465 495.264 140.028 495.611C139.879 495.731 139.72 495.84 139.541 495.929C139.293 496.058 139.203 496.356 139.333 496.595C139.422 496.764 139.591 496.863 139.77 496.863C139.849 496.863 139.929 496.843 139.998 496.803C140.952 496.307 141.667 495.462 141.985 494.429C142.302 493.396 142.213 492.304 141.706 491.34L138.329 484.865Z" fill="#0D99FF"/>
<path d="M114.8 511.165C114.78 511.135 114.76 511.105 114.74 511.076C114.621 510.837 114.621 510.569 114.8 509.914C114.929 509.457 114.979 509.089 114.989 508.771C114.999 508.364 114.919 508.026 114.75 507.699C114.373 506.983 113.807 506.765 113.121 507.123C112.436 507.48 112.287 508.076 112.664 508.791L112.833 509.109L112.893 509.218L113.052 509.139L113.558 508.871L113.31 508.394C113.141 508.076 113.221 507.877 113.439 507.768C113.658 507.649 113.856 507.689 114.065 508.086C114.224 508.384 114.273 508.672 114.254 509.039C114.234 509.268 114.194 509.516 114.105 509.844C114.075 509.933 114.065 510.013 114.045 510.092C113.886 510.758 113.916 511.185 114.144 511.632L114.432 512.178L116.459 511.115L116.121 510.48L114.8 511.165Z" fill="#0D99FF"/>
<path d="M-2.94789 381.578C-3.28559 383.078 -2.92803 384.637 -1.93479 385.968L10.6296 402.853C10.729 402.982 10.8779 403.052 11.0269 403.052C11.1262 403.052 11.2355 403.022 11.3249 402.952C11.5434 402.784 11.5931 402.476 11.4242 402.257L-1.1402 385.372C-1.95466 384.27 -2.25263 383.008 -1.98445 381.796C-1.71628 380.605 -0.911759 379.611 0.27019 378.996L6.63683 375.668C6.88513 375.539 6.97452 375.241 6.8454 375.003C6.71628 374.754 6.41831 374.665 6.17994 374.794L1.62099 377.178C1.54153 375.231 2.5745 373.384 4.33252 372.47L16.6784 366.014C16.9267 365.885 17.0161 365.587 16.887 365.348C16.7579 365.1 16.4599 365.011 16.2215 365.14L3.87563 371.596C1.63092 372.768 0.379446 375.191 0.667484 377.684L-0.186699 378.131C-1.62689 378.876 -2.61019 380.108 -2.94789 381.578Z" fill="#0D99FF"/>
<path d="M47.637 400.588C47.5079 400.34 47.2099 400.251 46.9715 400.38L31.4473 408.494C30.3448 406.528 28.5669 405.078 26.4116 404.402C24.1669 403.697 21.7831 403.916 19.6973 404.998C18.1478 405.803 16.9063 407.024 16.0819 408.514L14.3438 406.17C14.1749 405.952 13.867 405.902 13.6485 406.071C13.43 406.24 13.3803 406.548 13.5492 406.766L15.6151 409.537C15.5356 409.746 15.4562 409.954 15.3867 410.163C14.6815 412.408 14.9 414.792 15.9826 416.877C17.0752 418.963 18.9126 420.493 21.1474 421.198C22.0115 421.466 22.9054 421.605 23.7894 421.605C25.1899 421.605 26.5804 421.267 27.8617 420.602C29.9475 419.509 31.4771 417.672 32.1823 415.437C32.808 413.431 32.6987 411.305 31.8942 409.388L47.4284 401.254C47.6767 401.135 47.7661 400.827 47.637 400.588ZM31.2288 415.139C30.603 417.126 29.2423 418.755 27.3949 419.728C25.5474 420.691 23.4319 420.88 21.4454 420.264C19.4589 419.639 17.83 418.278 16.8566 416.43C15.8932 414.593 15.7045 412.487 16.3203 410.511C16.3203 410.501 16.3203 410.491 16.3302 410.481C16.4494 410.113 16.5885 409.766 16.7573 409.428C17.4824 407.918 18.6544 406.687 20.1641 405.892C21.2964 405.296 22.528 404.998 23.7696 404.998C24.5542 404.998 25.3389 405.117 26.1136 405.356C28.0206 405.952 29.5899 407.233 30.5633 408.961C30.603 409.041 30.6527 409.11 30.7023 409.19C30.8116 409.408 30.9208 409.627 31.0102 409.855C31.6956 411.524 31.775 413.381 31.2288 415.139Z" fill="#0D99FF"/>
<path d="M57.5501 394.847L50.2499 398.661C50.0016 398.791 49.9122 399.089 50.0413 399.327C50.1307 399.496 50.2995 399.595 50.4783 399.595C50.5578 399.595 50.6372 399.575 50.7068 399.536L58.007 395.721C58.2553 395.592 58.3447 395.294 58.2156 395.056C58.0964 394.808 57.7985 394.718 57.5501 394.847Z" fill="#0D99FF"/>
<path d="M64.3833 391.163C64.135 391.361 63.8668 391.54 63.5689 391.699C63.3206 391.828 63.2312 392.126 63.3603 392.364C63.4497 392.533 63.6185 392.633 63.7973 392.633C63.8768 392.633 63.9562 392.613 64.0258 392.573C64.2045 392.474 64.3833 392.374 64.5522 392.265C64.6614 392.186 64.7707 392.106 64.8799 392.027C64.9296 391.987 64.9793 391.957 65.019 391.917C65.2474 391.729 65.456 391.53 65.6447 391.312C67.3531 389.474 67.8199 386.703 66.5982 384.359L61.2646 374.168C61.1355 373.92 60.8375 373.831 60.5991 373.96C60.3508 374.089 60.2614 374.387 60.3905 374.625L65.4064 384.21L47.3791 359.995C45.3827 357.313 41.3701 356.379 38.4301 357.919L11.7518 371.864C11.5035 371.993 11.4141 372.291 11.5432 372.53C11.6724 372.778 11.9703 372.867 12.2087 372.738L38.887 358.793C41.4098 357.472 44.8563 358.277 46.5746 360.591L64.9693 385.312C65.7838 386.415 66.0818 387.676 65.8136 388.888C65.6149 389.792 65.1183 390.567 64.3833 391.163Z" fill="#0D99FF"/>
<path d="M20.0353 363.7C20.1644 363.948 20.4623 364.037 20.7007 363.908L25.4682 361.415C25.647 361.316 25.7563 361.127 25.7364 360.918L25.3292 357.244C25.2696 356.747 25.5278 356.27 25.9649 356.042L38.5889 349.437C39.0259 349.208 39.5722 349.268 39.9397 349.596L42.7605 352.059C42.8995 352.188 43.1081 352.218 43.2869 352.138C45.7203 351.076 48.5908 352.089 49.8124 354.423L58.6622 371.357C58.7515 371.526 58.9204 371.626 59.0992 371.626C59.1786 371.626 59.2581 371.606 59.3276 371.566C59.5759 371.437 59.6653 371.139 59.5362 370.9L50.6865 353.966C49.2761 351.264 46.0282 350.043 43.1776 351.105L40.5853 348.841C39.9099 348.245 38.9166 348.136 38.1221 348.553L25.498 355.158C24.6935 355.585 24.2267 356.439 24.336 357.353L24.7035 360.69L20.2339 363.024C20.0055 363.153 19.9161 363.451 20.0353 363.7Z" fill="#0D99FF"/>
<path d="M24.5252 415.408C24.4855 415.358 24.4656 415.308 24.4358 415.259C24.2471 414.891 24.2471 414.464 24.5352 413.421C24.565 413.312 24.5848 413.213 24.6146 413.103C24.7239 412.666 24.7934 412.279 24.8232 411.931C24.8927 411.147 24.7636 410.541 24.4458 409.935C23.8598 408.813 22.9658 408.465 21.8832 409.031C20.8006 409.597 20.5721 410.531 21.1582 411.653L21.5157 412.338L22.5586 411.792L22.1613 411.037C21.9031 410.541 22.0223 410.233 22.3699 410.044C22.7175 409.865 23.0254 409.915 23.3631 410.551C23.6512 411.097 23.7505 411.603 23.6412 412.338C23.6015 412.627 23.532 412.934 23.4327 413.302C23.4227 413.342 23.4227 413.362 23.4128 413.401C23.0751 414.623 23.1049 415.358 23.5022 416.113L23.9491 416.977L27.1275 415.308L26.6011 414.305L24.5252 415.408Z" fill="#0D99FF"/>
<path d="M59.7252 258.824C59.596 258.576 59.2981 258.486 59.0597 258.616L51.2131 262.718C50.6073 261.754 49.7034 261.029 48.6009 260.681C47.3792 260.294 46.0781 260.413 44.9458 261.009C44.2009 261.397 43.6149 261.973 43.1779 262.638L42.4727 261.695C42.3038 261.476 41.9959 261.426 41.7774 261.595C41.5589 261.754 41.5092 262.072 41.6781 262.29L42.6812 263.631C42.2343 264.853 42.274 266.244 42.9196 267.485C43.5156 268.617 44.5088 269.462 45.7305 269.839C46.2072 269.988 46.684 270.058 47.1707 270.058C47.9355 270.058 48.6903 269.869 49.3856 269.511C50.5179 268.915 51.3621 267.922 51.7395 266.7C52.0574 265.677 52.0077 264.605 51.6502 263.621L59.5166 259.509C59.755 259.36 59.8443 259.062 59.7252 258.824ZM50.786 266.393C50.4781 267.366 49.8226 268.151 48.9188 268.627C48.0149 269.094 46.9919 269.193 46.0185 268.886C45.0451 268.578 44.2605 267.922 43.7837 267.018C43.3765 266.234 43.2772 265.379 43.4361 264.575C43.5056 264.197 43.6248 263.82 43.8036 263.482C44.1512 262.827 44.6876 262.261 45.4027 261.893C45.9589 261.605 46.5549 261.456 47.1607 261.456C47.5382 261.456 47.9255 261.516 48.303 261.635C49.1472 261.903 49.8524 262.449 50.3292 263.184C50.3987 263.294 50.4781 263.383 50.5377 263.502C50.6371 263.691 50.7066 263.88 50.7662 264.078C51.0046 264.813 51.0244 265.618 50.786 266.393Z" fill="#0D99FF"/>
<path d="M60.9764 258.655C61.0558 258.655 61.1353 258.635 61.2048 258.595L64.9791 256.619C65.2274 256.49 65.3168 256.192 65.1877 255.953C65.0585 255.705 64.7606 255.616 64.5222 255.745L60.7479 257.721C60.4996 257.851 60.4102 258.149 60.5393 258.387C60.6287 258.566 60.7976 258.655 60.9764 258.655Z" fill="#0D99FF"/>
<path d="M68.0189 253.878C67.9096 253.967 67.7805 254.057 67.6414 254.126C67.3931 254.255 67.3037 254.553 67.4328 254.792C67.5222 254.96 67.6911 255.06 67.8699 255.06C67.9493 255.06 68.0288 255.04 68.0983 255C68.9028 254.583 69.4888 253.878 69.757 253.014C70.0252 252.15 69.9457 251.236 69.5286 250.431L66.7674 245.157C66.6383 244.909 66.3403 244.82 66.1019 244.949C65.8536 245.078 65.7642 245.376 65.8933 245.614L67.0852 247.899L59.5664 237.797C58.4639 236.317 56.249 235.801 54.63 236.655L40.8241 243.876C40.5758 244.005 40.4864 244.303 40.6155 244.541C40.7446 244.79 41.0426 244.879 41.281 244.75L55.0869 237.529C56.2887 236.903 57.9375 237.281 58.7619 238.383L68.287 251.176C68.6645 251.693 68.8035 252.279 68.6843 252.835C68.5949 253.242 68.3566 253.6 68.0189 253.878Z" fill="#0D99FF"/>
<path d="M37.2086 244.591L43.5951 241.254C43.8434 241.125 43.9328 240.827 43.8036 240.588C43.6745 240.35 43.3765 240.251 43.1382 240.38L36.7517 243.717C35.5499 244.343 34.8645 245.614 34.9539 246.945L34.6559 247.104C33.8415 247.531 33.2952 248.216 33.1065 249.051C32.9178 249.895 33.1164 250.769 33.6726 251.514L40.1783 260.254C40.2777 260.383 40.4266 260.453 40.5756 260.453C40.6749 260.453 40.7842 260.423 40.8736 260.354C41.0921 260.195 41.1418 259.877 40.9729 259.658L34.4672 250.918C34.0898 250.401 33.9508 249.815 34.0699 249.259C34.1991 248.713 34.5666 248.256 35.1128 247.968L38.4004 246.25C38.6488 246.121 38.7381 245.823 38.609 245.584C38.4799 245.346 38.1819 245.247 37.9435 245.376L35.9571 246.419C36.0465 245.644 36.5034 244.959 37.2086 244.591Z" fill="#0D99FF"/>
<path d="M45.0156 239.952C45.1447 240.201 45.4427 240.29 45.6811 240.161L48.1542 238.87C48.333 238.77 48.4423 238.582 48.4224 238.373L48.2138 236.466C48.194 236.307 48.2734 236.158 48.4224 236.079L54.9579 232.662C55.1069 232.583 55.2658 232.612 55.385 232.712L56.845 233.983C56.9841 234.112 57.1927 234.142 57.3714 234.062C58.5236 233.566 59.8645 234.033 60.4405 235.135L65.0194 243.895C65.1087 244.064 65.2776 244.164 65.4564 244.164C65.5358 244.164 65.6153 244.144 65.6848 244.104C65.9331 243.975 66.0225 243.677 65.8934 243.439L61.3146 234.668C60.5498 233.208 58.8216 232.523 57.2721 233.029L56.0405 231.947C55.6134 231.569 55.0076 231.5 54.501 231.768L47.9655 235.185C47.459 235.453 47.1709 235.989 47.2305 236.555L47.3994 238.125L45.2341 239.257C44.9759 239.406 44.8865 239.704 45.0156 239.952Z" fill="#0D99FF"/>
<path d="M47.5476 266.601C47.5278 266.581 47.5178 266.551 47.498 266.522C47.4086 266.343 47.4086 266.124 47.5278 265.658C47.5377 265.628 47.5377 265.608 47.5476 265.568C47.6668 265.151 47.7165 264.813 47.7065 264.525C47.6966 264.237 47.6271 263.999 47.498 263.76C47.1901 263.184 46.7332 262.996 46.167 263.294C45.6108 263.582 45.4916 264.068 45.7896 264.654L45.8691 264.813L45.9684 265.002L46.2564 264.853L46.5047 264.724L46.3061 264.337C46.167 264.078 46.2366 263.919 46.4153 263.82C46.5941 263.721 46.753 263.751 46.9318 264.078C47.0411 264.297 47.0907 264.505 47.0907 264.754C47.0907 264.962 47.051 265.191 46.9616 265.499C46.9318 265.598 46.9119 265.687 46.8921 265.777C46.7828 266.273 46.8126 266.611 46.9914 266.949L47.2199 267.396L48.8686 266.532L48.6004 266.015L47.5476 266.601Z" fill="#0D99FF"/>
<path d="M205.542 80.419C205.661 80.419 205.78 80.3793 205.869 80.2899L215.901 71.4302C216.517 70.8939 217.252 70.6456 217.977 70.7548C218.692 70.8541 219.318 71.2812 219.745 71.9566L222.188 75.8104C222.337 76.0388 222.645 76.1084 222.874 75.9594C223.102 75.8104 223.171 75.5025 223.022 75.274L221.433 72.7711C222.496 72.7413 223.509 73.2578 224.095 74.1815L228.843 81.6605C228.932 81.8095 229.101 81.889 229.26 81.889C229.349 81.889 229.439 81.8691 229.528 81.8095C229.757 81.6605 229.826 81.3526 229.677 81.1242L224.93 73.6451C224.055 72.2645 222.427 71.5693 220.837 71.8374L220.569 71.4203C219.983 70.4966 219.109 69.9106 218.106 69.7715C217.083 69.6225 216.07 69.9503 215.236 70.6853L205.204 79.5449C204.995 79.7237 204.975 80.0416 205.164 80.2501C205.263 80.3594 205.403 80.419 205.542 80.419Z" fill="#0D99FF"/>
<path d="M209.565 104.317C209.336 104.466 209.267 104.773 209.416 105.002L212.226 109.422C212.316 109.571 212.485 109.65 212.644 109.65C212.733 109.65 212.822 109.63 212.912 109.571C213.14 109.422 213.21 109.114 213.061 108.885L210.25 104.466C210.101 104.247 209.793 104.177 209.565 104.317Z" fill="#0D99FF"/>
<path d="M235.438 94.811L225.178 78.651C225.029 78.4226 224.721 78.3531 224.493 78.5021C224.264 78.6511 224.195 78.959 224.344 79.1874L234.604 95.3473C235.528 96.8074 235.22 98.9329 233.909 100.085L219.219 113.067C218.603 113.613 217.868 113.851 217.143 113.742C216.607 113.663 216.12 113.404 215.733 113.007C215.603 112.868 215.484 112.719 215.375 112.55C215.256 112.361 215.027 112.282 214.819 112.342C214.769 112.352 214.729 112.361 214.69 112.391C214.511 112.5 214.431 112.699 214.461 112.888C214.471 112.947 214.491 113.017 214.531 113.077C215.107 113.99 216.011 114.626 217.063 114.854C217.361 114.924 217.659 114.954 217.957 114.954C218.712 114.954 219.457 114.735 220.123 114.318L226.301 110.395C226.529 110.246 226.599 109.938 226.45 109.71C226.301 109.481 225.993 109.412 225.764 109.561L221.881 112.024L234.554 100.82C236.213 99.36 236.61 96.6683 235.438 94.811Z" fill="#0D99FF"/>
<path d="M241.358 94.1258L236.501 86.4779C236.153 85.9316 235.497 85.6535 234.862 85.7727L232.885 86.1601L231.226 83.5578C231.078 83.3293 230.77 83.2598 230.541 83.4088C230.313 83.5578 230.243 83.8657 230.392 84.0941L232.23 86.9845C232.339 87.1533 232.547 87.2427 232.746 87.203L235.06 86.7461C235.299 86.6964 235.537 86.8057 235.666 87.0043L240.523 94.6522C240.652 94.8509 240.642 95.1191 240.503 95.3177L239.093 97.2346C238.974 97.3936 238.964 97.5922 239.053 97.7611C239.808 99.1615 239.351 100.929 238.01 101.784L227.75 108.299C227.522 108.448 227.452 108.756 227.601 108.985C227.691 109.134 227.859 109.213 228.018 109.213C228.108 109.213 228.197 109.193 228.287 109.134L238.547 102.618C240.235 101.545 240.861 99.38 240.066 97.5723L241.298 95.8938C241.685 95.3872 241.715 94.682 241.358 94.1258Z" fill="#0D99FF"/>
<path d="M199.731 94.3245C200.586 94.3245 201.45 94.1258 202.254 93.7285L208.144 103.015C208.234 103.164 208.402 103.244 208.561 103.244C208.651 103.244 208.74 103.224 208.829 103.164C209.058 103.015 209.127 102.707 208.978 102.479L203.099 93.222C205.552 91.4441 206.237 88.0373 204.598 85.445C204.022 84.5411 203.238 83.8558 202.344 83.3989L203.536 82.3461C203.744 82.1673 203.764 81.8495 203.575 81.6409C203.396 81.4323 203.079 81.4124 202.87 81.6011L201.291 82.9917C199.761 82.5547 198.063 82.7434 196.613 83.6571C193.921 85.3655 193.126 88.9412 194.835 91.6328C195.947 93.371 197.824 94.3245 199.731 94.3245ZM197.159 84.5014C197.954 83.9948 198.838 83.7565 199.722 83.7565C199.95 83.7565 200.188 83.7763 200.417 83.8161C200.804 83.8757 201.182 83.975 201.539 84.124C202.433 84.4815 203.218 85.1172 203.774 85.9813C205.125 88.1068 204.568 90.8879 202.572 92.3678C202.483 92.4373 202.393 92.5168 202.294 92.5863C202.105 92.7055 201.907 92.785 201.718 92.8744C199.582 93.8577 196.99 93.1525 195.689 91.1064C194.269 88.8816 194.934 85.9217 197.159 84.5014Z" fill="#0D99FF"/>
<path d="M198.917 90.4208L198.112 89.1594C198.142 89.1296 198.172 89.1196 198.202 89.0998C198.43 88.9607 198.698 88.9409 199.374 89.06C199.84 89.1494 200.208 89.1693 200.526 89.1494C200.933 89.1196 201.261 89.0203 201.579 88.8217C202.254 88.3946 202.433 87.8086 202.016 87.153C201.598 86.4975 200.993 86.4081 200.317 86.8352L200.009 87.0239L199.9 87.0934L199.989 87.2424L200.297 87.7291L200.754 87.4411C201.052 87.2524 201.261 87.3119 201.39 87.5205C201.529 87.7291 201.509 87.9278 201.122 88.1761C200.844 88.3548 200.556 88.4343 200.188 88.4442C199.96 88.4442 199.711 88.4244 199.374 88.3648C199.284 88.3449 199.205 88.3449 199.125 88.3251C198.45 88.2257 198.023 88.2853 197.596 88.5535L197.069 88.8813L198.291 90.8081L198.917 90.4208Z" fill="#0D99FF"/>
<path d="M15.6652 143.301C17.1948 145.138 19.2905 146.38 21.6643 146.827C22.3198 146.956 22.9754 147.016 23.621 147.016C25.677 147.016 27.6734 146.4 29.4115 145.228L79.4011 111.259C83.7514 108.299 85.142 102.459 82.6489 97.8306L86.2147 92.6558C87.039 91.4639 87.039 89.9145 86.2246 88.7127L72.1206 67.954C71.3161 66.7721 69.8461 66.196 68.4457 66.5139L62.4267 67.8945L38.9863 33.3994C36.5231 29.7741 32.0535 28.1055 27.8124 29.2179L26.7199 27.6188C25.1704 25.3343 22.9158 23.9239 20.383 23.6458C17.8006 23.3578 15.2579 24.2716 13.2119 26.2084L-26.3189 63.405C-30.4805 67.3184 -31.2751 74.3107 -28.0968 78.9889L15.0494 142.486C15.248 142.764 15.4566 143.043 15.6652 143.301ZM38.1719 33.9556L61.8009 68.7188C61.9201 68.8877 62.1287 68.9671 62.3273 68.9274L68.6841 67.4674C69.6773 67.2389 70.7401 67.6561 71.3161 68.5003L85.4201 89.2589C86.0061 90.1231 85.9961 91.2255 85.4101 92.0797L81.6656 97.5127C81.5564 97.6716 81.5464 97.8802 81.6458 98.0391C84.0891 102.26 82.8674 107.703 78.8548 110.425L28.8653 144.393C27.9217 145.039 26.8887 145.476 25.8061 145.744C26.7894 145.307 27.733 144.691 28.5772 143.887L68.108 106.69C72.2696 102.777 73.0642 95.7845 69.8859 91.1064L28.4183 30.0919C32.133 29.2675 36.0066 30.7773 38.1719 33.9556ZM-25.6335 64.1301L13.8972 26.9235C15.5162 25.3939 17.4729 24.5894 19.4693 24.5894C19.7374 24.5894 20.0056 24.5993 20.2738 24.6291C22.5185 24.8774 24.5149 26.1289 25.9054 28.1651L69.0515 91.6626C71.9717 95.9533 71.2367 102.37 67.4127 105.965L27.882 143.162C26.0445 144.89 23.77 145.704 21.4955 145.456C19.5289 145.238 17.7609 144.254 16.42 142.645C16.2313 142.417 16.0426 142.169 15.8737 141.91L-27.2724 78.4327C-30.1925 74.1419 -29.4575 67.7256 -25.6335 64.1301Z" fill="#0D99FF"/>
<path d="M193.027 322.927C190.126 320.146 185.538 320.017 182.459 322.58L178.128 320.782C177.075 320.345 175.854 320.603 175.069 321.418L161.909 335.144C161.114 335.978 160.915 337.18 161.402 338.223L163.339 342.395L141.527 365.13C139.213 367.543 138.667 371.129 140.137 374.119L139.174 375.122C137.704 376.651 136.998 378.578 137.197 380.545C137.396 382.531 138.488 384.309 140.276 385.551L174.066 408.991C175.605 410.054 177.463 410.57 179.32 410.57C181.823 410.57 184.326 409.637 186.054 407.839L226.32 365.875C226.509 365.676 226.687 365.467 226.846 365.259C226.876 365.219 226.906 365.17 226.936 365.13C227.055 364.971 227.174 364.812 227.273 364.643C229.27 361.514 228.853 357.293 226.072 354.631L193.027 322.927ZM226.409 364.127C226.39 364.146 226.38 364.176 226.36 364.196C226.26 364.355 226.151 364.504 226.032 364.653C225.903 364.822 225.754 364.981 225.605 365.14C225.595 365.15 225.585 365.16 225.575 365.17L185.319 407.134C182.637 409.935 177.83 410.392 174.612 408.157L140.822 384.716C139.283 383.644 138.339 382.124 138.17 380.436C138.002 378.767 138.607 377.128 139.879 375.797L180.135 333.833C181.674 332.234 183.909 331.39 186.144 331.39C187.802 331.39 189.471 331.856 190.842 332.8L224.631 356.24C226.171 357.313 227.115 358.833 227.283 360.521C227.413 361.793 227.105 363.024 226.409 364.127ZM225.198 355.446L191.408 332.005C187.802 329.502 182.429 330.019 179.419 333.158L140.872 373.344C139.789 370.801 140.296 367.841 142.233 365.815L164.273 342.842C164.412 342.693 164.451 342.474 164.362 342.285L162.276 337.806C161.968 337.14 162.097 336.366 162.604 335.829L175.764 322.103C176.271 321.576 177.056 321.408 177.721 321.696L182.34 323.613C182.518 323.682 182.717 323.652 182.866 323.523C185.558 321.09 189.709 321.139 192.322 323.642L225.366 355.337C225.654 355.615 225.913 355.913 226.141 356.23C225.863 355.952 225.545 355.684 225.198 355.446Z" fill="#0D99FF"/>
<path d="M188.955 551.183C187.227 549.524 184.505 549.415 182.648 550.895L180.254 549.902C179.549 549.613 178.764 549.772 178.248 550.319L170.61 558.284C170.094 558.821 169.964 559.635 170.272 560.301L171.335 562.595L158.781 575.686C157.41 577.116 157.072 579.212 157.877 581L157.41 581.486C156.516 582.42 156.089 583.592 156.208 584.794C156.327 586.006 156.993 587.088 158.085 587.843L177.692 601.45C178.615 602.096 179.738 602.404 180.86 602.404C182.37 602.404 183.88 601.838 184.922 600.755L208.283 576.401C208.353 576.322 208.413 576.232 208.472 576.153C208.611 575.984 208.75 575.825 208.869 575.646C208.999 575.448 209.098 575.239 209.187 575.03C210.002 573.223 209.644 571.028 208.134 569.578L188.955 551.183ZM159.486 576.361L172.279 563.032C172.418 562.883 172.457 562.665 172.368 562.476L171.156 559.874C171.017 559.566 171.077 559.208 171.305 558.96L178.943 550.994C179.182 550.746 179.529 550.676 179.847 550.805L182.529 551.918C182.708 551.987 182.906 551.958 183.055 551.828C184.545 550.488 186.82 550.517 188.26 551.888L206.039 568.942L187.992 556.417C185.816 554.907 182.578 555.225 180.771 557.112L158.622 580.205C158.175 578.884 158.493 577.404 159.486 576.361ZM208.254 574.653C208.184 574.812 208.105 574.971 208.015 575.12C207.886 575.328 207.737 575.527 207.558 575.706L184.197 600.06C182.708 601.609 180.046 601.868 178.258 600.626L158.651 587.019C157.807 586.433 157.291 585.608 157.201 584.685C157.112 583.781 157.44 582.887 158.135 582.162L181.496 557.808C182.35 556.914 183.592 556.457 184.833 556.457C185.757 556.457 186.681 556.715 187.445 557.241L207.052 570.849C207.896 571.435 208.413 572.259 208.502 573.183C208.542 573.69 208.452 574.186 208.254 574.653Z" fill="#0D99FF"/>
<path d="M28.6071 530.305L12.3379 548.58C12.1591 548.789 12.1691 549.097 12.3776 549.286C12.467 549.365 12.5862 549.415 12.7054 549.415C12.8445 549.415 12.9736 549.355 13.0729 549.246L29.0143 531.338L34.9737 536.642C35.1823 536.821 35.4902 536.811 35.6789 536.602C35.8676 536.393 35.8478 536.086 35.6392 535.897L29.3024 530.265C29.1037 530.077 28.7958 530.096 28.6071 530.305Z" fill="#0D99FF"/>
<path d="M-23.8358 590.723L10.1329 552.563C10.3116 552.355 10.3017 552.047 10.0931 551.858C9.88454 551.679 9.57664 551.689 9.38792 551.898L-24.9085 590.435C-24.9979 590.535 -25.0376 590.664 -25.0376 590.793C-25.0277 590.922 -24.9681 591.051 -24.8687 591.13L-19.4655 595.938C-19.3762 596.017 -19.257 596.067 -19.1378 596.067C-18.9987 596.067 -18.8696 596.007 -18.7703 595.898C-18.5915 595.689 -18.6014 595.381 -18.81 595.193L-23.8358 590.723Z" fill="#0D99FF"/>
<path d="M27.0276 634.932L26.5012 635.528L-1.86559 610.28C-2.07417 610.102 -2.38207 610.111 -2.57078 610.32C-2.74957 610.529 -2.73963 610.837 -2.53105 611.025L26.2032 636.601C26.2926 636.68 26.4118 636.73 26.531 636.73C26.67 636.73 26.7992 636.671 26.8985 636.561L27.7626 635.598C27.9414 635.389 27.9315 635.081 27.7229 634.893C27.5242 634.714 27.2064 634.724 27.0276 634.932Z" fill="#0D99FF"/>
<path d="M83.2945 563.171C83.2846 563.151 83.2647 563.131 83.2548 563.121C83.2448 563.101 83.2349 563.081 83.215 563.072L45.3132 529.341C45.2139 529.252 45.0848 529.202 44.9556 529.212C44.8265 529.222 44.6974 529.282 44.6179 529.381L-8.9075 589.511C-8.99689 589.611 -9.03662 589.74 -9.03662 589.869C-9.02669 589.998 -8.96709 590.127 -8.86777 590.207L33.3745 627.801L30.2657 631.287C30.0869 631.496 30.0968 631.803 30.3054 631.992C30.3948 632.072 30.514 632.121 30.6332 632.121C30.7722 632.121 30.9014 632.062 31.0007 631.952L34.1095 628.466L42.2143 635.677C42.3037 635.757 42.4229 635.806 42.5421 635.806C42.6811 635.806 42.8102 635.747 42.9096 635.637L84.695 588.697C84.7049 588.677 84.7148 588.657 84.7248 588.637C84.7347 588.618 84.7446 588.598 84.7546 588.578C84.7943 588.498 84.8241 588.419 84.8141 588.33L83.364 563.409C83.3839 563.32 83.3442 563.24 83.2945 563.171ZM42.5123 634.594L34.7849 627.711L34.04 627.056L-7.82487 589.79L45.0351 530.404L82.192 563.479L70.7897 576.291C70.6109 576.5 70.6208 576.808 70.8294 576.997L83.6421 588.399L42.5123 634.594ZM71.8624 576.58L82.4701 564.661L83.0859 575.328L83.7712 587.187L71.8624 576.58Z" fill="#0D99FF"/>
<path d="M44.4687 582.46L49.852 576.411C50.0308 576.202 50.0208 575.894 49.8123 575.706C49.6037 575.527 49.2958 575.537 49.1071 575.745L43.7237 581.794L37.6749 576.411C37.4664 576.232 37.1585 576.242 36.9697 576.451C36.791 576.659 36.8009 576.967 37.0095 577.156L43.0583 582.539L37.6749 588.588C37.4962 588.796 37.5061 589.104 37.7147 589.293C37.8041 589.372 37.9232 589.422 38.0424 589.422C38.1815 589.422 38.3106 589.363 38.4099 589.253L43.7933 583.205L49.8421 588.588C49.9315 588.667 50.0506 588.717 50.1698 588.717C50.3089 588.717 50.438 588.657 50.5373 588.548C50.7161 588.34 50.7062 588.032 50.4976 587.843L44.4687 582.46Z" fill="#0D99FF"/>
<path d="M85.0026 181.253L92.3327 178.342C92.5909 178.243 92.7101 177.955 92.6108 177.697C92.5114 177.439 92.2234 177.319 91.9652 177.419L84.1782 180.518C83.92 180.617 83.8008 180.905 83.9001 181.163L92.8392 203.66C92.9187 203.859 93.1074 203.978 93.2961 203.978C93.3557 203.978 93.4153 203.968 93.4749 203.938C93.7331 203.839 93.8523 203.551 93.753 203.292L85.0026 181.253Z" fill="#0D99FF"/>
<path d="M113.757 255.457C113.817 255.457 113.877 255.447 113.936 255.417L120.581 252.775C120.839 252.676 120.958 252.388 120.859 252.13C120.76 251.871 120.472 251.752 120.213 251.852L114.026 254.305L95.3726 207.345C95.2733 207.086 94.9853 206.967 94.727 207.067C94.4688 207.166 94.3496 207.454 94.4489 207.712L113.281 255.129C113.37 255.338 113.559 255.457 113.757 255.457Z" fill="#0D99FF"/>
<path d="M132.361 247.034L123.998 250.361C123.739 250.461 123.62 250.749 123.719 251.007C123.799 251.206 123.988 251.325 124.176 251.325C124.236 251.325 124.296 251.315 124.355 251.285L132.718 247.958C132.976 247.858 133.096 247.57 132.996 247.312C132.907 247.064 132.619 246.935 132.361 247.034Z" fill="#0D99FF"/>
<path d="M140.793 244.223C140.873 244.422 141.061 244.541 141.25 244.541C141.31 244.541 141.369 244.531 141.429 244.501L176.788 230.457C177.046 230.358 177.165 230.07 177.066 229.811L176.589 228.62C176.49 228.361 176.202 228.242 175.944 228.341C175.686 228.441 175.566 228.729 175.666 228.987L175.954 229.712L141.051 243.578C140.813 243.677 140.684 243.965 140.793 244.223Z" fill="#0D99FF"/>
<path d="M119.577 240.578C119.657 240.777 119.845 240.896 120.034 240.896C120.094 240.896 120.153 240.886 120.213 240.856L172.189 220.207L173.887 224.498C173.967 224.696 174.155 224.815 174.344 224.815C174.404 224.815 174.463 224.805 174.523 224.776C174.781 224.676 174.9 224.388 174.801 224.13L173.103 219.839L183.065 215.886C183.323 215.787 183.442 215.499 183.343 215.241L160.399 157.474C160.389 157.454 160.369 157.434 160.359 157.414C160.349 157.395 160.34 157.375 160.33 157.365C160.28 157.295 160.22 157.236 160.131 157.196L137.465 147.423C137.386 147.383 137.296 147.383 137.207 147.393C137.187 147.393 137.167 147.403 137.148 147.403C137.128 147.413 137.108 147.403 137.078 147.413L90.4357 165.936C90.3165 165.986 90.2172 166.085 90.1675 166.205C90.1178 166.324 90.1178 166.463 90.1576 166.582L119.577 240.578ZM148.421 153.223L158.651 157.633L144.001 163.453L138.18 148.803L148.421 153.223ZM137.008 148.525L143.266 164.288C143.316 164.407 143.405 164.506 143.534 164.556C143.594 164.586 143.663 164.596 143.733 164.596C143.792 164.596 143.862 164.586 143.911 164.556L159.674 158.298L182.25 215.141L172.745 218.916L171.821 219.283L120.312 239.744L91.2899 166.671L137.008 148.525Z" fill="#0D99FF"/>
<path d="M128.864 194.552C128.924 194.552 128.983 194.542 129.043 194.512L136.482 191.552L139.442 198.992C139.522 199.19 139.71 199.309 139.899 199.309C139.959 199.309 140.018 199.3 140.078 199.27C140.336 199.17 140.455 198.882 140.356 198.624L137.396 191.185L144.835 188.225C145.094 188.126 145.213 187.838 145.113 187.579C145.014 187.321 144.726 187.202 144.468 187.301L137.029 190.261L134.069 182.822C133.969 182.564 133.681 182.444 133.423 182.544C133.165 182.643 133.046 182.931 133.145 183.189L136.105 190.629L128.665 193.588C128.407 193.688 128.288 193.976 128.387 194.234C128.487 194.433 128.666 194.552 128.864 194.552Z" fill="#0D99FF"/>
<path d="M126.48 25.1755C126.559 25.3742 126.748 25.4933 126.937 25.4933C126.996 25.4933 127.056 25.4834 127.116 25.4536C127.374 25.3543 127.493 25.0663 127.394 24.808L123.649 15.3822L126.609 14.2003C126.867 14.1009 126.987 13.8129 126.887 13.5547C126.788 13.2964 126.5 13.1772 126.242 13.2766L122.815 14.6373C122.557 14.7366 122.437 15.0246 122.537 15.2829L126.48 25.1755Z" fill="#0D99FF"/>
<path d="M138.677 46.0134L136.214 46.9868L128.109 26.5957C128.01 26.3374 127.722 26.2182 127.463 26.3176C127.205 26.4169 127.086 26.7049 127.185 26.9632L135.469 47.8211C135.518 47.9403 135.618 48.0396 135.737 48.0893C135.797 48.1191 135.866 48.129 135.936 48.129C135.995 48.129 136.065 48.1191 136.114 48.0893L139.035 46.9272C139.293 46.8279 139.412 46.5398 139.313 46.2816C139.223 46.0333 138.925 45.9141 138.677 46.0134Z" fill="#0D99FF"/>
<path d="M144.011 43.8881L140.336 45.3482C140.078 45.4475 139.959 45.7355 140.058 45.9938C140.138 46.1924 140.326 46.3116 140.515 46.3116C140.575 46.3116 140.634 46.3017 140.694 46.2719L144.369 44.8118C144.627 44.7125 144.746 44.4244 144.647 44.1662C144.558 43.9179 144.27 43.7888 144.011 43.8881Z" fill="#0D99FF"/>
<path d="M147.567 43.0137C147.647 43.2123 147.835 43.3315 148.024 43.3315C148.084 43.3315 148.143 43.3216 148.203 43.2918L163.757 37.1139C163.876 37.0642 163.975 36.9649 164.025 36.8457C164.075 36.7265 164.075 36.5875 164.035 36.4683L163.826 35.9419C163.727 35.6836 163.439 35.5644 163.181 35.6638C162.922 35.7631 162.803 36.0511 162.903 36.3094L162.922 36.369L147.845 42.3681C147.587 42.4774 147.468 42.7654 147.567 43.0137Z" fill="#0D99FF"/>
<path d="M138.24 41.4148C138.29 41.534 138.389 41.6333 138.508 41.6829C138.568 41.7127 138.637 41.7227 138.707 41.7227C138.767 41.7227 138.836 41.7127 138.886 41.6829L161.482 32.7041L162.128 34.333C162.207 34.5316 162.396 34.6508 162.584 34.6508C162.644 34.6508 162.704 34.6409 162.763 34.6111C163.021 34.5118 163.141 34.2237 163.041 33.9655L162.396 32.3366L166.518 30.6978C166.637 30.6481 166.736 30.5488 166.786 30.4296C166.835 30.3104 166.835 30.1713 166.796 30.0522L156.714 4.66507C156.704 4.6452 156.685 4.62534 156.675 4.60547C156.665 4.58561 156.655 4.56575 156.645 4.55581C156.595 4.48629 156.536 4.42669 156.446 4.38696L146.474 0.0862561C146.395 0.056459 146.305 0.0465267 146.226 0.056459C146.206 0.056459 146.186 0.0663914 146.166 0.0663914C146.146 0.0763237 146.126 0.0663914 146.097 0.0763237L125.586 8.22085C125.328 8.32017 125.209 8.60821 125.308 8.86645L138.24 41.4148ZM147.189 1.47678L151.073 3.15535L154.956 4.83392L149.394 7.0389L147.189 1.47678ZM146.007 1.18875L148.659 7.86329C148.709 7.98247 148.798 8.0818 148.927 8.13146C148.987 8.16126 149.057 8.17119 149.126 8.17119C149.186 8.17119 149.255 8.16126 149.305 8.13146L155.979 5.47952L165.703 29.9628L162.038 31.4129L161.114 31.7804L138.975 40.5705L126.421 8.97571L146.007 1.18875Z" fill="#0D99FF"/>
<path d="M142.581 21.3513C142.64 21.3513 142.7 21.3414 142.76 21.3116L145.779 20.1098L146.981 23.1292C147.06 23.3278 147.249 23.447 147.438 23.447C147.497 23.447 147.557 23.4371 147.616 23.4073C147.875 23.308 147.994 23.0199 147.895 22.7617L146.693 19.7423L149.712 18.5405C149.97 18.4411 150.09 18.1531 149.99 17.8948C149.891 17.6366 149.603 17.5174 149.345 17.6167L146.325 18.8186L145.123 15.8091C145.024 15.5508 144.736 15.4316 144.478 15.5309C144.22 15.6303 144.1 15.9183 144.2 16.1766L145.402 19.1861L142.392 20.3879C142.134 20.4872 142.015 20.7752 142.114 21.0335C142.193 21.2321 142.382 21.3513 142.581 21.3513Z" fill="#0D99FF"/>
</svg>
