<svg width="42" height="16" viewBox="0 0 42 16" fill="none" xmlns="http://www.w3.org/2000/svg">
<path d="M40.7617 9.25085C41.314 9.25085 41.7617 8.80314 41.7617 8.25085C41.7617 7.69857 41.314 7.25085 40.7617 7.25085L40.7617 9.25085ZM0.293106 7.54374C-0.0974159 7.93427 -0.097416 8.56743 0.293106 8.95796L6.65707 15.3219C7.04759 15.7124 7.68075 15.7124 8.07128 15.3219C8.46181 14.9314 8.46181 14.2982 8.07128 13.9077L2.41443 8.25085L8.07128 2.594C8.46181 2.20347 8.46181 1.57031 8.07128 1.17978C7.68076 0.789259 7.04759 0.789259 6.65707 1.17978L0.293106 7.54374ZM40.7617 7.25085L1.00021 7.25085L1.00021 9.25085L40.7617 9.25085L40.7617 7.25085Z" fill="#99A2A9"/>
</svg>
