<svg width="43" height="16" viewBox="0 0 43 16" fill="none" xmlns="http://www.w3.org/2000/svg">
<path d="M1.27954 6.79395C0.727256 6.79395 0.279541 7.24166 0.279541 7.79395C0.279541 8.34623 0.727256 8.79395 1.27954 8.79395L1.27954 6.79395ZM41.7482 8.50105C42.1387 8.11053 42.1387 7.47736 41.7482 7.08684L35.3842 0.722878C34.9937 0.332353 34.3605 0.332353 33.97 0.722878C33.5795 1.1134 33.5795 1.74657 33.97 2.13709L39.6268 7.79395L33.97 13.4508C33.5795 13.8413 33.5795 14.4745 33.97 14.865C34.3605 15.2555 34.9937 15.2555 35.3842 14.865L41.7482 8.50105ZM1.27954 8.79395L41.041 8.79395V6.79395L1.27954 6.79395L1.27954 8.79395Z" fill="#99A2A9"/>
</svg>
