<svg width="49" height="33" viewBox="0 0 49 33" fill="none" xmlns="http://www.w3.org/2000/svg">
<path d="M9.34118 29.2187C8.17916 29.8593 7.01715 30.4999 5.70707 31.2209C3.7693 27.4612 1.87339 23.7692 0 20.1254C5.61694 15.2263 11.7038 13.295 18.7886 16.6683C21.6405 18.0267 24.8368 17.9237 27.8658 18.5385C29.0697 18.7831 30.2993 18.9119 31.5096 19.1404C32.9452 19.414 33.8819 20.5728 33.737 21.8153C33.5793 23.164 32.5493 24.0911 31.0621 24.0492C27.634 23.9527 24.2092 23.7885 20.7811 23.6533C20.2081 23.6308 19.6062 23.4634 19.1169 23.9205C18.9045 24.8153 19.4645 24.9183 20.1051 24.9956C24.3669 25.5009 28.6416 25.7874 32.9355 25.5943C34.1845 25.5363 35.3433 25.134 36.4538 24.5675C39.3153 23.0997 42.2992 21.9183 45.3668 20.9623C47.1984 20.3926 48.296 20.8078 48.737 22.0889C49.1812 23.3797 48.5793 24.487 46.9312 25.1951C41.8228 27.3969 36.692 29.5342 31.5933 31.7584C28.4066 33.149 25.2746 32.2638 22.133 31.6812C17.8744 30.8861 13.6287 30.046 9.34118 29.2187Z" fill="white"/>
<path d="M32.7617 0.5L35.1437 5.32509L40.4677 6.09762L36.6147 9.85405L37.5256 15.1588L32.7617 12.6545L28.001 15.1588L28.9087 9.85405L25.0557 6.09762L30.3797 5.32509L32.7617 0.5Z" fill="white"/>
<path d="M22.368 7.82935L23.4463 10.015L25.8572 10.3658L24.1126 12.0654L24.5246 14.4699L22.368 13.3336L20.2081 14.4699L20.6233 12.0654L18.8755 10.3658L21.2896 10.015L22.368 7.82935Z" fill="white"/>
<path d="M42.6211 7.82935L43.6994 10.015L46.1136 10.3658L44.369 12.0654L44.781 14.4699L42.6211 13.3336L40.4645 14.4699L40.8765 12.0654L39.1319 10.3658L41.5428 10.015L42.6211 7.82935Z" fill="white"/>
</svg>
