<svg width="24" height="25" viewBox="0 0 24 25" fill="none" xmlns="http://www.w3.org/2000/svg">
<path d="M12 24.5C18.6274 24.5 24 19.1274 24 12.5C24 5.87258 18.6274 0.5 12 0.5C5.37258 0.5 0 5.87258 0 12.5C0 19.1274 5.37258 24.5 12 24.5Z" fill="#A8EDAB"/>
<path d="M19.1865 9.70041L10.2251 18.0037C9.88049 18.3231 9.4299 18.5 8.96075 18.5C8.91834 18.5 8.87328 18.4974 8.83088 18.4947C8.31932 18.4578 7.84223 18.2122 7.51886 17.8162L4.63773 14.2758C3.991 13.4837 4.11292 12.3194 4.90808 11.6752C5.70324 11.031 6.87213 11.1525 7.51886 11.9445L9.15159 13.9484L16.6579 6.99427C17.408 6.29991 18.5822 6.34216 19.2793 7.08932C19.979 7.83384 19.9366 9.00342 19.1865 9.70041Z" fill="#25D12C"/>
</svg>
