<svg width="58" height="49" viewBox="0 0 58 49" fill="none" xmlns="http://www.w3.org/2000/svg">
<path d="M5.57114 9.92738H8.98077L8.70079 8.52527L8.24856 6.2627H0.927246L3.66843 17.7258H7.43647L5.57114 9.92738Z" fill="#B078DB"/>
<path d="M48.9707 9.92738H52.4382L51.6569 13.1963H55.425L57.0821 6.2627H49.7608L49.2998 8.56998L48.9707 9.92738Z" fill="#B078DB"/>
<path d="M10.8576 8.09503L12.7793 17.7258H36.3492L37.6904 13.1963H45.9162L47.1527 8.09503L47.5191 6.26269L48.7651 0.0253906H9.24512L10.4911 6.26269L10.8576 8.09503ZM34.5234 3.0341H39.7551V4.6253H36.4584V6.58591H39.5389V8.16466H36.4584V11.6146H34.5234V3.0341ZM25.6512 3.16163C26.3644 3.0341 27.293 2.97107 28.2605 2.97107C29.9022 2.97107 30.9716 3.2767 31.7866 3.88724C32.6779 4.54908 33.2378 5.59278 33.2378 7.12022C33.2378 8.762 32.6398 9.89512 31.8247 10.5951C30.921 11.3463 29.5336 11.7025 27.8529 11.7025C26.8474 11.7025 26.1218 11.6388 25.6512 11.575V3.16163ZM18.2551 3.14917C18.8532 3.04729 19.6932 2.97107 20.8776 2.97107C22.062 2.97107 22.9269 3.20047 23.5 3.67102C24.06 4.09099 24.4162 4.80414 24.4162 5.64409C24.4162 6.48403 24.1487 7.20964 23.6268 7.68092C22.965 8.29219 21.985 8.58463 20.8395 8.58463C20.5851 8.58463 20.3557 8.57217 20.1776 8.53406V11.6146H18.2559V3.14844L18.2551 3.14917ZM28.2605 10.1883C28.0311 10.1883 27.7511 10.1883 27.5862 10.1502V4.53589C27.7518 4.49777 28.0442 4.45966 28.4642 4.45966C30.1441 4.45966 31.1886 5.40149 31.1886 7.18399C31.1886 9.23328 30.0305 10.2008 28.2612 10.1883H28.2605ZM20.8263 7.0953C20.5338 7.0953 20.3425 7.08284 20.1769 7.04473V4.51097C20.3169 4.47285 20.5844 4.4472 20.9663 4.4472C21.9462 4.4472 22.4937 4.91848 22.4937 5.70712C22.4937 6.57272 21.8575 7.09457 20.8263 7.09457V7.0953Z" fill="#B078DB"/>
<path d="M54.8995 15.395H53.0159H47.6449H45.383H39.3319L37.9906 19.9246H13.2173H10.9753H6.0785H4.19485H0.691406L7.41245 48.0254H50.5898L57.3109 15.395H54.8995Z" fill="#FF8720"/>
</svg>
