<svg width="32" height="49" viewBox="0 0 32 49" fill="none" xmlns="http://www.w3.org/2000/svg">
<path d="M8.00005 48.0255C12.416 48.0255 16.0001 44.4415 16.0001 40.0255V32.0254H8.00005C3.58406 32.0254 0 35.6095 0 40.0255C0 44.4415 3.58406 48.0255 8.00005 48.0255Z" fill="#0ACF83"/>
<path d="M0 24.0255C0 19.6095 3.58406 16.0254 8.00005 16.0254H16.0001V32.0253H8.00005C3.58406 32.0255 0 28.4415 0 24.0255Z" fill="#A259FF"/>
<path d="M0 8.02545C0 3.60945 3.58406 0.0253906 8.00005 0.0253906H16.0001V16.0253H8.00005C3.58406 16.0253 0 12.4415 0 8.02545Z" fill="#F24E1E"/>
<path d="M16 0.0253906H24C28.416 0.0253906 32.0001 3.60945 32.0001 8.02545C32.0001 12.4415 28.416 16.0253 24 16.0253H16V0.0253906Z" fill="#FF7262"/>
<path d="M32.0001 24.0255C32.0001 28.4415 28.416 32.0255 24 32.0255C19.5841 32.0255 16 28.4415 16 24.0255C16 19.6095 19.5841 16.0254 24 16.0254C28.416 16.0254 32.0001 19.6095 32.0001 24.0255Z" fill="#1ABCFE"/>
</svg>
