<svg width="64" height="49" viewBox="0 0 64 49" fill="none" xmlns="http://www.w3.org/2000/svg">
<path d="M61.2538 0.0253906H2.74683C1.61359 0.0253906 0.695312 0.943651 0.695312 2.07687V41.8C0.695312 42.9332 1.61359 43.8515 2.74683 43.8515H24.9191L22.8321 48.0254H41.1664L39.0794 43.8515H61.2538C62.387 43.8515 63.3053 42.9332 63.3053 41.8V2.07687C63.3053 0.943651 62.387 0.0253906 61.2538 0.0253906ZM61.2183 36.1673H2.78231V2.11235H61.2183V36.1673Z" fill="#EA1A71"/>
<path d="M33.9573 29.6261L42.5557 21.727C40.9967 20.0303 38.3546 19.9176 36.6578 21.4787L34.12 23.8119V8.48735C34.12 7.33535 33.1851 6.40039 32.033 6.40039C30.881 6.40039 29.946 7.33535 29.946 8.48735V23.8098L27.4062 21.4766C25.7094 19.9176 23.0673 20.0282 21.5083 21.7249L30.1067 29.624C31.1962 30.6237 32.8699 30.6237 33.9593 29.624L33.9573 29.6261Z" fill="#FF8720"/>
</svg>
