<svg width="50" height="50" viewBox="0 0 50 50" fill="none" xmlns="http://www.w3.org/2000/svg">
<path d="M3.53785 24.6661C3.53785 33.0419 8.44928 40.2802 15.5712 43.7104L5.38639 16.0543C4.16546 18.7639 3.53554 21.6985 3.53785 24.6661ZM39.3029 23.5982C39.3029 20.9831 38.355 19.172 37.5421 17.7623C36.4598 16.0192 35.4453 14.5431 35.4453 12.8001C35.4453 10.8549 36.9339 9.04421 39.0307 9.04421C39.1253 9.04421 39.2151 9.05589 39.3073 9.06112C35.5087 5.61206 30.4477 3.50623 24.8891 3.50623C17.4299 3.50623 10.8674 7.29915 7.04967 13.0441C7.55061 13.059 8.02269 13.0695 8.42369 13.0695C10.657 13.0695 14.1139 12.8009 14.1139 12.8009C15.2649 12.7337 15.4006 14.4091 14.2509 14.5439C14.2509 14.5439 13.0942 14.6788 11.8071 14.7457L19.5824 37.6663L24.2549 23.7778L20.9284 14.7449C19.7786 14.678 18.6894 14.5431 18.6894 14.5431C17.5388 14.4763 17.6737 12.7328 18.8243 12.8001C18.8243 12.8001 22.3503 13.0687 24.4483 13.0687C26.6812 13.0687 30.1386 12.8001 30.1386 12.8001C31.2903 12.7328 31.4256 14.4083 30.2755 14.5431C30.2755 14.5431 29.1164 14.678 27.8317 14.7449L35.5477 37.4919L37.6774 30.4388C38.6004 27.512 39.3029 25.4097 39.3029 23.5982Z" fill="#21759B"/>
<path d="M25.2637 26.5171L18.8575 44.9659C20.8161 45.5376 22.8473 45.8279 24.8891 45.8279C27.3755 45.8279 29.7599 45.4019 31.9793 44.6285C31.9201 44.5359 31.8693 44.4384 31.8274 44.3369L25.2637 26.5171ZM43.6239 14.5138C43.7158 15.1878 43.7678 15.9114 43.7678 16.6897C43.7678 18.837 43.3631 21.2509 42.1443 24.2691L35.6224 42.9571C41.97 39.2886 46.2395 32.473 46.2395 24.6665C46.2399 20.9875 45.2917 17.528 43.6239 14.5138Z" fill="#21759B"/>
<path d="M24.8891 0C11.1656 0 0 11.0651 0 24.6661C0 38.2686 11.1656 49.3333 24.8891 49.3333C38.6122 49.3333 49.7794 38.2686 49.7794 24.6661C49.779 11.0651 38.6122 0 24.8891 0ZM24.8891 48.2027C11.7949 48.2027 1.14122 37.6441 1.14122 24.6661C1.14122 11.6888 11.7945 1.13103 24.8891 1.13103C37.9829 1.13103 48.6357 11.6888 48.6357 24.6661C48.6357 37.6441 37.9829 48.2027 24.8891 48.2027Z" fill="#21759B"/>
</svg>
