<svg width="25" height="15" viewBox="0 0 25 15" fill="none" xmlns="http://www.w3.org/2000/svg">
<path d="M24.1634 1.96033C24.1634 0.940947 23.3377 0.115234 22.3183 0.115234H2.22986C1.21048 0.115234 0.384766 0.940947 0.384766 1.96033V3.73468H24.1634V1.96033ZM19.6672 2.84287C19.2799 2.84287 18.9668 2.52859 18.9668 2.1424C18.9668 1.75622 19.2811 1.44194 19.6672 1.44194C20.0534 1.44194 20.3677 1.75622 20.3677 2.1424C20.3677 2.52859 20.0534 2.84287 19.6672 2.84287ZM21.9785 2.84287C21.5912 2.84287 21.2781 2.52859 21.2781 2.1424C21.2781 1.75622 21.5924 1.44194 21.9785 1.44194C22.3647 1.44194 22.679 1.75622 22.679 2.1424C22.679 2.52859 22.3647 2.84287 21.9785 2.84287ZM0.384766 12.2701C0.384766 13.2895 1.21048 14.1152 2.22986 14.1152H22.3183C23.3377 14.1152 24.1634 13.2895 24.1634 12.2701V5.72242H0.384766V12.2701ZM1.78221 10.3427H10.5079V11.0524H1.78221V10.3427ZM1.78221 11.536H8.25919V12.2458H1.78221V11.536Z" fill="#808B93"/>
</svg>
