<svg width="24" height="25" viewBox="0 0 24 25" fill="none" xmlns="http://www.w3.org/2000/svg">
<g clip-path="url(#clip0_198_226)">
<path d="M12 24.5C18.6274 24.5 24 19.1274 24 12.5C24 5.87258 18.6274 0.5 12 0.5C5.37258 0.5 0 5.87258 0 12.5C0 19.1274 5.37258 24.5 12 24.5Z" fill="#F0F0F0"/>
<path d="M14.7429 12.5001L17.785 9.669C18.5408 8.96658 18.5836 7.7834 17.8811 7.02756C17.1787 6.27172 15.9955 6.22899 15.2397 6.93141L12 9.94677L8.75762 6.93141C8.00178 6.22899 6.81861 6.27172 6.11618 7.02756C5.41375 7.7834 5.45649 8.96658 6.21233 9.669L9.25707 12.5001L6.21233 15.3311C5.45649 16.0336 5.41375 17.2167 6.11618 17.9726C6.48475 18.3679 6.9842 18.5682 7.48631 18.5682C7.94302 18.5682 8.39973 18.4026 8.76029 18.0661L12.0027 15.0507L15.2424 18.0661C15.6029 18.3999 16.0596 18.5682 16.5164 18.5682C17.0185 18.5682 17.5179 18.3679 17.8865 17.9726C18.5889 17.2167 18.5462 16.0336 17.7903 15.3311L14.7429 12.5001Z" fill="#B3B9BE"/>
</g>
<defs>
<clipPath id="clip0_198_226">
<rect width="24" height="24" fill="white" transform="translate(0 0.5)"/>
</clipPath>
</defs>
</svg>
