<svg width="100" height="41" viewBox="0 0 100 41" fill="none" xmlns="http://www.w3.org/2000/svg">
<path d="M12.9089 8.7915C5.86756 8.7915 0 11.7784 0 20.791C0 27.9309 3.94556 32.4269 13.0904 32.4269C23.8545 32.4269 24.5444 25.3363 24.5444 25.3363H19.3289C19.3289 25.3363 18.2107 29.1543 12.7724 29.1543C8.34298 29.1543 5.15729 26.1621 5.15729 21.9684H25.0902V19.3365C25.0902 15.1875 22.4563 8.7915 12.9089 8.7915ZM12.7267 12.155C16.943 12.155 19.8174 14.738 19.8174 18.6093H5.27251C5.27251 14.4992 9.0246 12.155 12.7267 12.155Z" fill="#808B93"/>
<path d="M25.0865 0.0644531V27.9011C25.0865 29.4811 24.9736 31.6998 24.9736 31.6998H29.9481C29.9481 31.6998 30.1269 30.1065 30.1269 28.65C30.1269 28.65 32.5847 32.4953 39.2677 32.4953C46.3051 32.4953 51.0854 27.6091 51.0854 20.6094C51.0854 14.0972 46.6947 8.85962 39.2791 8.85962C32.335 8.85962 30.1772 12.6094 30.1772 12.6094V0.0644531H25.0865ZM37.9951 12.3027C42.7741 12.3027 45.8133 15.8497 45.8133 20.6094C45.8133 25.7134 42.3032 29.0523 38.0294 29.0523C32.9287 29.0523 30.1772 25.0694 30.1772 20.6547C30.1772 16.541 32.646 12.3027 37.9951 12.3027Z" fill="#808B93"/>
<path d="M63.4491 8.7915C52.8561 8.7915 52.1768 14.5915 52.1768 15.5185H57.4493C57.4493 15.5185 57.7257 12.1324 63.0855 12.1324C66.5682 12.1324 69.267 13.7267 69.267 16.7912V17.882H63.0855C54.879 17.882 50.5405 20.2829 50.5405 25.1548C50.5405 29.9491 54.549 32.5577 59.9664 32.5577C67.3494 32.5577 69.7275 28.4783 69.7275 28.4783C69.7275 30.101 69.8524 31.7 69.8524 31.7H74.5395C74.5395 31.7 74.3581 29.718 74.3581 28.45V17.4901C74.3581 10.3036 68.5614 8.7915 63.4491 8.7915ZM69.267 21.1546V22.6091C69.267 24.5061 68.0962 29.2226 61.2048 29.2226C57.431 29.2226 55.813 27.3392 55.813 25.1545C55.813 21.1803 61.2617 21.1546 69.267 21.1546Z" fill="#808B93"/>
<path d="M71.5186 9.70117H77.45L85.9628 26.7561L94.456 9.70117H99.8294L84.3592 40.0642H78.7227L83.1867 31.6L71.5186 9.70117Z" fill="#808B93"/>
</svg>
