<svg width="14" height="20" viewBox="0 0 14 20" fill="none" xmlns="http://www.w3.org/2000/svg">
<path d="M3.33336 20C5.17336 20 6.66672 18.5066 6.66672 16.6666V13.3333H3.33336C1.49336 13.3333 0 14.8266 0 16.6666C0 18.5066 1.49336 20 3.33336 20Z" fill="#0ACF83"/>
<path d="M0 10.0001C0 8.16011 1.49336 6.66675 3.33336 6.66675H6.66672V13.3334H3.33336C1.49336 13.3335 0 11.8401 0 10.0001Z" fill="#A259FF"/>
<path d="M0 3.33336C0 1.49336 1.49336 0 3.33336 0H6.66672V6.66664H3.33336C1.49336 6.66664 0 5.17336 0 3.33336Z" fill="#F24E1E"/>
<path d="M6.6665 0H9.99986C11.8399 0 13.3332 1.49336 13.3332 3.33336C13.3332 5.17336 11.8399 6.66664 9.99986 6.66664H6.6665V0Z" fill="#FF7262"/>
<path d="M13.3332 10.0001C13.3332 11.8401 11.8399 13.3335 9.99986 13.3335C8.15986 13.3335 6.6665 11.8401 6.6665 10.0001C6.6665 8.16011 8.15986 6.66675 9.99986 6.66675C11.8399 6.66675 13.3332 8.16011 13.3332 10.0001Z" fill="#1ABCFE"/>
</svg>
