<svg width="44" height="45" viewBox="0 0 44 45" fill="none" xmlns="http://www.w3.org/2000/svg">
<path d="M22 0.5C9.86976 0.5 0 10.3698 0 22.5C0 34.6302 9.86976 44.5 22 44.5C34.1302 44.5 44 34.6302 44 22.5C44 10.3698 34.1302 0.5 22 0.5Z" fill="#344552"/>
<path fill-rule="evenodd" clip-rule="evenodd" d="M18.926 22.7463V34.3476C18.926 34.5121 19.0569 34.6514 19.2253 34.6514H23.4715C23.6336 34.6514 23.7708 34.5185 23.7708 34.3476V22.5628H26.851C27.0069 22.5628 27.1316 22.4425 27.1503 22.2843L27.4434 18.7336C27.4559 18.5564 27.3187 18.4045 27.1441 18.4045H23.7708V15.8855C23.7708 15.2969 24.2447 14.8159 24.8246 14.8159H27.194C27.3561 14.8159 27.4933 14.683 27.4933 14.5121V10.9552C27.4933 10.7906 27.3623 10.6514 27.194 10.6514H23.1847C20.834 10.6514 18.926 12.5881 18.926 14.9742V18.3982H16.806C16.6377 18.4045 16.5067 18.5374 16.5067 18.702V22.2526C16.5067 22.4172 16.6377 22.5564 16.806 22.5564H18.926V22.7463Z" fill="#0D99FF"/>
</svg>
