<svg width="44" height="45" viewBox="0 0 44 45" fill="none" xmlns="http://www.w3.org/2000/svg">
<path d="M22 0.348633C9.86976 0.348633 0 10.2184 0 22.3486C0 34.4789 9.86976 44.3486 22 44.3486C34.1302 44.3486 44 34.4789 44 22.3486C44 10.2184 34.1302 0.348633 22 0.348633Z" fill="#344552"/>
<path d="M22 10.5C15.471 10.5 10.1779 15.8727 10.1779 22.5C10.1779 29.1273 15.471 34.5 22 34.5C28.529 34.5 33.8221 29.1273 33.8221 22.5C33.8221 15.8727 28.529 10.5 22 10.5ZM22 12.5891C24.2408 12.5891 26.3043 13.3691 27.954 14.6618C26.7664 16.2164 25.1275 17.4436 23.0425 18.3436C22.043 16.4836 20.8984 14.6673 19.6087 12.9055C20.3718 12.7036 21.1724 12.5891 22 12.5891ZM17.5936 13.6636C18.9048 15.4036 20.0655 17.2036 21.0757 19.0473C18.6791 19.7618 15.8257 20.1327 12.5208 20.1545C13.2033 17.3182 15.0841 14.9618 17.5936 13.6636ZM12.236 22.5C12.236 22.4127 12.2468 22.3309 12.2468 22.2436C16.0352 22.2382 19.3078 21.7964 22.0484 20.9182C22.2794 21.3927 22.4997 21.8727 22.7093 22.3527C19.3776 23.4109 16.6371 25.5764 14.4984 28.8327C13.0851 27.1145 12.236 24.9109 12.236 22.5ZM22 32.4164C19.7431 32.4164 17.6634 31.6255 16.0084 30.3164C17.9482 27.2291 20.4255 25.2164 23.4939 24.2891C24.4074 26.7109 25.0791 29.1982 25.509 31.7509C24.4128 32.1709 23.2359 32.4164 22 32.4164ZM27.422 30.7418C26.9921 28.3909 26.358 26.0891 25.5305 23.8473C27.379 23.58 29.4103 23.6509 31.635 24.0436C31.2051 26.8255 29.6414 29.2364 27.422 30.7418ZM24.7406 21.8673C24.4988 21.3055 24.2516 20.7436 23.9829 20.1873C26.2559 19.1891 28.0884 17.8309 29.4479 16.1073C30.7752 17.7 31.6135 19.7236 31.7371 21.9436C29.2007 21.5182 26.8685 21.4964 24.7406 21.8673Z" fill="#0D99FF"/>
</svg>
