<svg width="44" height="45" viewBox="0 0 44 45" fill="none" xmlns="http://www.w3.org/2000/svg">
<path d="M22.0001 10.3025C15.471 10.3025 10.178 15.6752 10.178 22.3025C10.178 28.9298 15.471 34.3025 22.0001 34.3025C28.5291 34.3025 33.8221 28.9298 33.8221 22.3025C33.8221 15.6752 28.5291 10.3025 22.0001 10.3025ZM22.0001 12.3916C24.2409 12.3916 26.3044 13.1716 27.9541 14.4643C26.7665 16.0189 25.1275 17.2461 23.0425 18.1461C22.043 16.2861 20.8985 14.4698 19.6088 12.7079C20.3718 12.5061 21.1725 12.3916 22.0001 12.3916ZM17.5937 13.4661C18.9048 15.2061 20.0655 17.0061 21.0758 18.8498C18.6791 19.5643 15.8257 19.9352 12.5209 19.957C13.2034 17.1207 15.0841 14.7643 17.5937 13.4661ZM12.2361 22.3025C12.2361 22.2152 12.2468 22.1334 12.2468 22.0461C16.0353 22.0407 19.3078 21.5989 22.0484 20.7207C22.2795 21.1952 22.4998 21.6752 22.7094 22.1552C19.3777 23.2134 16.6371 25.3789 14.4984 28.6352C13.0851 26.917 12.2361 24.7134 12.2361 22.3025ZM22.0001 32.2189C19.7431 32.2189 17.6635 31.4279 16.0084 30.1189C17.9483 27.0316 20.4256 25.0189 23.4939 24.0916C24.4075 26.5134 25.0792 29.0007 25.5091 31.5534C24.4128 31.9734 23.236 32.2189 22.0001 32.2189ZM27.4221 30.5443C26.9922 28.1934 26.3581 25.8916 25.5306 23.6498C27.3791 23.3825 29.4104 23.4534 31.6351 23.8461C31.2052 26.6279 29.6414 29.0389 27.4221 30.5443ZM24.7406 21.6698C24.4988 21.1079 24.2516 20.5461 23.9829 19.9898C26.256 18.9916 28.0884 17.6334 29.448 15.9098C30.7753 17.5025 31.6136 19.5261 31.7372 21.7461C29.2008 21.3207 26.8686 21.2989 24.7406 21.6698Z" fill="#CCD1D4"/>
</svg>
