<svg width="44" height="45" viewBox="0 0 44 45" fill="none" xmlns="http://www.w3.org/2000/svg">
<path d="M18.5946 29.2244C19.2423 29.0867 19.8037 28.8362 20.2787 28.4667C20.6982 28.1474 21.0498 27.7466 21.3336 27.277C21.7778 26.5632 21.9999 25.7616 21.9999 24.8662C21.9999 23.9958 21.8086 23.2569 21.42 22.6495C21.0314 22.0421 20.4576 21.5975 19.6988 21.3157C20.1985 21.059 20.581 20.771 20.8339 20.4516C21.2904 19.888 21.5249 19.1491 21.5249 18.2224C21.5249 17.327 21.2966 16.5567 20.8401 15.9118C20.0813 14.8661 18.792 14.3275 16.9783 14.3025H9.77295V29.4373H16.491C17.2436 29.4311 17.9468 29.3622 18.5946 29.2244ZM12.7402 16.9262H15.9851C16.7007 16.9262 17.2868 17.0076 17.7494 17.1641C18.2861 17.3896 18.5514 17.8529 18.5514 18.5605C18.5514 19.1992 18.3478 19.6376 17.9469 19.888C17.5459 20.1385 17.0153 20.2638 16.3676 20.2638H12.7464V16.9262H12.7402ZM12.7402 26.8074V22.7747H16.4108C17.0524 22.781 17.5459 22.8687 17.9037 23.0315C18.5391 23.3258 18.8537 23.8643 18.8537 24.6533C18.8537 25.5863 18.5267 26.2125 17.8728 26.5444C17.515 26.7197 17.0092 26.8136 16.3614 26.8136H12.7402V26.8074Z" fill="#CCD1D4"/>
<path d="M24.523 28.4344C25.6457 29.3549 26.9412 29.812 28.4033 29.812C30.18 29.812 31.5618 29.2672 32.5488 28.1776C33.1842 27.4951 33.542 26.8188 33.6161 26.1551H30.6735C30.5007 26.4807 30.3033 26.7374 30.0812 26.9253C29.6679 27.2697 29.1374 27.4387 28.4835 27.4387C27.8666 27.4387 27.336 27.301 26.8919 27.0192C26.1701 26.5683 25.7815 25.7794 25.7383 24.6585H33.7703C33.7826 23.6942 33.7518 22.9553 33.6778 22.4355C33.542 21.5589 33.2521 20.7887 32.8018 20.1249C32.3021 19.3735 31.6667 18.8162 30.8955 18.4718C30.1306 18.1211 29.2608 17.9458 28.3046 17.9458C26.6883 17.9458 25.3743 18.4655 24.3626 19.4987C23.3509 20.5319 22.845 22.016 22.845 23.9572C22.8389 26.0236 23.4002 27.5139 24.523 28.4344ZM26.5834 20.9953C26.9906 20.5695 27.5643 20.3566 28.3046 20.3566C28.9832 20.3566 29.5569 20.557 30.0134 20.9577C30.4699 21.3585 30.729 21.9471 30.7783 22.7236H25.8123C25.9172 21.9972 26.1763 21.4211 26.5834 20.9953Z" fill="#CCD1D4"/>
<path d="M31.3522 15.1721H24.8748V16.7H31.3522V15.1721Z" fill="#CCD1D4"/>
</svg>
