<svg width="44" height="45" viewBox="0 0 44 45" fill="none" xmlns="http://www.w3.org/2000/svg">
<path d="M22 0.348633C9.86976 0.348633 0 10.2184 0 22.3486C0 34.4789 9.86976 44.3486 22 44.3486C34.1302 44.3486 44 34.4789 44 22.3486C44 10.2184 34.1302 0.348633 22 0.348633Z" fill="#344552"/>
<path d="M18.5947 29.4219C19.2425 29.2842 19.8038 29.0337 20.2789 28.6643C20.6983 28.3449 21.05 27.9441 21.3337 27.4745C21.7779 26.7607 22 25.9591 22 25.0637C22 24.1933 21.8088 23.4544 21.4201 22.847C21.0315 22.2396 20.4578 21.795 19.699 21.5132C20.1987 21.2565 20.5811 20.9685 20.8341 20.6491C21.2906 20.0856 21.525 19.3467 21.525 18.4199C21.525 17.5245 21.2967 16.7543 20.8402 16.1093C20.0814 15.0636 18.7921 14.525 16.9784 14.5H9.77307V29.6348H16.4911C17.2437 29.6286 17.947 29.5597 18.5947 29.4219ZM12.7404 17.1237H15.9852C16.7008 17.1237 17.2869 17.2051 17.7496 17.3617C18.2863 17.5871 18.5515 18.0505 18.5515 18.758C18.5515 19.3967 18.348 19.8351 17.947 20.0856C17.546 20.336 17.0155 20.4613 16.3677 20.4613H12.7465V17.1237H12.7404ZM12.7404 27.0049V22.9723H16.4109C17.0525 22.9785 17.546 23.0662 17.9038 23.229C18.5392 23.5233 18.8538 24.0618 18.8538 24.8508C18.8538 25.7838 18.5269 26.41 17.873 26.7419C17.5152 26.9172 17.0093 27.0111 16.3615 27.0111H12.7404V27.0049Z" fill="#0D99FF"/>
<path d="M24.5231 28.6319C25.6459 29.5524 26.9414 30.0095 28.4034 30.0095C30.1801 30.0095 31.5619 29.4647 32.549 28.3751C33.1844 27.6926 33.5422 27.0163 33.6162 26.3526H30.6736C30.5009 26.6782 30.3035 26.9349 30.0814 27.1228C29.668 27.4672 29.1375 27.6362 28.4836 27.6362C27.8667 27.6362 27.3362 27.4985 26.892 27.2167C26.1702 26.7659 25.7816 25.9769 25.7384 24.856H33.7704C33.7828 23.8917 33.7519 23.1528 33.6779 22.633C33.5422 21.7564 33.2522 20.9862 32.8019 20.3224C32.3022 19.571 31.6668 19.0137 30.8957 18.6693C30.1307 18.3186 29.2609 18.1433 28.3047 18.1433C26.6884 18.1433 25.3744 18.663 24.3627 19.6962C23.351 20.7294 22.8451 22.2135 22.8451 24.1547C22.839 26.2211 23.4004 27.7114 24.5231 28.6319ZM26.5835 21.1928C26.9907 20.767 27.5644 20.5541 28.3047 20.5541C28.9833 20.5541 29.557 20.7545 30.0135 21.1553C30.47 21.556 30.7291 22.1446 30.7784 22.9211H25.8124C25.9173 22.1947 26.1764 21.6186 26.5835 21.1928Z" fill="#0D99FF"/>
<path d="M31.3523 15.3696H24.8748V16.8975H31.3523V15.3696Z" fill="#0D99FF"/>
</svg>
