<svg width="44" height="45" viewBox="0 0 44 45" fill="none" xmlns="http://www.w3.org/2000/svg">
<path fill-rule="evenodd" clip-rule="evenodd" d="M18.9261 22.5488V34.1501C18.9261 34.3146 19.0571 34.4539 19.2254 34.4539H23.4716C23.6338 34.4539 23.7709 34.3209 23.7709 34.1501V22.3652H26.8512C27.007 22.3652 27.1317 22.245 27.1504 22.0868L27.4435 18.5361C27.456 18.3589 27.3188 18.207 27.1442 18.207H23.7709V15.688C23.7709 15.0994 24.2448 14.6184 24.8247 14.6184H27.1941C27.3562 14.6184 27.4934 14.4855 27.4934 14.3146V10.7577C27.4934 10.5931 27.3624 10.4539 27.1941 10.4539H23.1848C20.8341 10.4539 18.9261 12.3906 18.9261 14.7766V18.2007H16.8061C16.6378 18.207 16.5068 18.3399 16.5068 18.5045V22.0551C16.5068 22.2197 16.6378 22.3589 16.8061 22.3589H18.9261V22.5488Z" fill="#CCD1D4"/>
</svg>
