<svg width="42" height="29" viewBox="0 0 42 29" fill="none" xmlns="http://www.w3.org/2000/svg">
<path d="M42.0003 0.899651C41.8246 1.68909 41.6209 2.61586 41.4125 3.54076C40.0781 9.46013 38.7419 15.3786 37.4065 21.297C37.372 21.4483 37.343 21.6016 37.3009 21.752C37.0926 22.4872 36.4599 22.817 35.7348 22.5517C32.4165 21.3353 29.0235 20.3497 25.6679 19.2482C25.3324 19.138 25.1325 19.2164 24.9026 19.4649C22.245 22.3284 19.5771 25.1825 16.9102 28.0385C15.9767 29.0381 14.476 29.0755 13.4864 28.1282C13.1967 27.8507 13.0042 27.52 12.9434 27.1192C12.38 23.3495 11.8118 19.5799 11.2596 15.8093C11.1979 15.3898 11.0652 15.1768 10.5961 15.0964C7.43671 14.5564 4.27451 14.0314 1.13848 13.3606C0.849736 13.2989 0.556317 13.2438 0.300277 13.085C-0.0978012 12.8365 -0.104342 12.4927 0.298408 12.2498C0.468478 12.147 0.667517 12.0882 0.860015 12.0302C14.1433 8.05876 27.4266 4.08916 40.7108 0.120491C40.8593 0.0756476 41.0098 0.0280012 41.163 0.0093163C41.6845 -0.0551465 41.9994 0.232601 42.0003 0.899651ZM15.2787 24.9434C15.3347 24.8004 15.3927 24.6584 15.4459 24.5145C16.2673 22.2808 17.0943 20.0498 17.9045 17.8123C18.0708 17.3536 18.339 17.0088 18.7389 16.7285C21.4769 14.8059 24.2074 12.8739 26.936 10.939C31.0485 8.02326 35.1573 5.10281 39.267 2.18237C39.4773 2.03289 39.6717 1.86286 39.8735 1.70217C39.6483 1.68628 39.4922 1.75262 39.3409 1.82829C30.9597 6.00623 22.5805 10.1907 14.1919 14.3528C13.7228 14.5854 13.6321 14.8367 13.7088 15.3188C14.0695 17.5759 14.3947 19.8396 14.7348 22.1005C14.8778 23.0506 15.0254 23.9998 15.1712 24.949C15.2067 24.9471 15.2422 24.9452 15.2787 24.9434Z" fill="#CCD1D4"/>
</svg>
