<svg width="44" height="45" viewBox="0 0 44 45" fill="none" xmlns="http://www.w3.org/2000/svg">
<path d="M22 0.19751C9.86976 0.19751 0 10.0673 0 22.1975C0 34.3277 9.86976 44.1975 22 44.1975C34.1302 44.1975 44 34.3277 44 22.1975C44 10.0673 34.1302 0.19751 22 0.19751Z" fill="#344552"/>
<path d="M33.8574 14.6987C33.1009 15.0398 32.2389 15.2506 31.4142 15.387C31.8048 15.3188 32.3629 14.6181 32.5924 14.3328C32.9396 13.8988 33.2249 13.4027 33.3923 12.8694C33.4109 12.826 33.4233 12.7764 33.3861 12.7454C33.3365 12.7268 33.2993 12.733 33.2559 12.7578C32.3443 13.2477 31.3956 13.6011 30.391 13.8554C30.3104 13.874 30.2484 13.8554 30.1926 13.8058C30.112 13.7127 30.0313 13.6197 29.9445 13.5515C29.5229 13.1919 29.0702 12.9066 28.5555 12.702C27.8858 12.4291 27.1479 12.3113 26.4223 12.3609C25.7154 12.4043 25.0271 12.6028 24.4008 12.9314C23.7745 13.2601 23.2164 13.7127 22.7699 14.2646C22.3111 14.8351 21.97 15.5048 21.7964 16.218C21.629 16.9063 21.6414 17.5822 21.7468 18.2767C21.7592 18.3945 21.753 18.4069 21.6476 18.3945C17.7099 17.8054 14.442 16.3978 11.7941 13.3779C11.6763 13.2477 11.6143 13.2477 11.5213 13.3903C10.3617 15.1266 10.926 17.9232 12.3708 19.2937C12.5631 19.4797 12.7615 19.6595 12.9785 19.8269C12.8979 19.8456 11.9368 19.7401 11.0748 19.2937C10.957 19.2192 10.9012 19.2627 10.8888 19.3929C10.8764 19.5789 10.895 19.7525 10.9198 19.9572C11.143 21.7183 12.3646 23.3491 14.0327 23.9878C14.2311 24.0684 14.4482 24.1429 14.6652 24.1801C14.287 24.2669 13.8901 24.3227 12.7987 24.2359C12.6623 24.2111 12.6127 24.2793 12.6623 24.4095C13.4808 26.6481 15.2543 27.3116 16.5813 27.6898C16.7612 27.7208 16.9348 27.7208 17.1146 27.7643C17.1022 27.7829 17.096 27.7829 17.0836 27.7953C16.6433 28.465 15.1179 28.9673 14.411 29.2153C13.1212 29.668 11.7135 29.8726 10.3493 29.7362C10.1323 29.7052 10.0827 29.7052 10.0268 29.7362C9.96484 29.7734 10.0206 29.823 10.0889 29.885C10.3679 30.071 10.647 30.2323 10.9322 30.3873C11.8003 30.8462 12.7057 31.212 13.6482 31.4725C18.5285 32.8181 24.0288 31.8321 27.6936 28.1859C30.5708 25.3273 31.5816 21.3834 31.5816 17.4334C31.5816 17.2783 31.7614 17.1915 31.8731 17.1109C32.6234 16.5466 33.2683 15.8769 33.8264 15.1204C33.9504 14.9529 34 14.8041 34 14.7421C34 14.7297 34 14.7235 34 14.7235C34 14.6367 33.9566 14.6553 33.8574 14.6987Z" fill="#0D99FF"/>
</svg>
