<svg width="44" height="44" viewBox="0 0 44 44" fill="none" xmlns="http://www.w3.org/2000/svg">
<path d="M22 44C34.1503 44 44 34.1503 44 22C44 9.84974 34.1503 0 22 0C9.84974 0 0 9.84974 0 22C0 34.1503 9.84974 44 22 44Z" fill="#CCD1D4"/>
<path d="M27.5184 24.7885C27.1535 26.1626 26.4944 27.2574 25.5336 28.0692C24.5729 28.8847 23.452 29.2906 22.1711 29.2906C21.3407 29.2906 20.5587 29.1007 19.8363 28.7171C19.1101 28.3373 18.4771 27.8122 17.9334 27.1531C17.3897 26.4903 16.9615 25.7158 16.6524 24.8258C16.3434 23.9358 16.187 22.9825 16.187 21.9622C16.187 20.968 16.3434 20.0333 16.6524 19.1582C16.9615 18.2794 17.3897 17.5123 17.9334 16.8495C18.4771 16.1866 19.1139 15.6653 19.8363 15.2855C20.5624 14.9057 21.3407 14.712 22.1711 14.712C23.452 14.712 24.5729 15.1179 25.5336 15.9334C26.4944 16.7489 27.1535 17.8437 27.5184 19.2178H30.0021C30.2107 18.0411 30.5123 16.9202 30.8772 15.859C31.2124 14.8871 31.0299 13.8072 30.408 12.9917C30.0654 12.5411 29.6968 12.124 29.2946 11.7368C28.3451 10.8207 27.2614 10.1095 26.0475 9.59931C24.8298 9.08915 23.5302 8.83594 22.1413 8.83594C20.6034 8.83594 19.1585 9.17852 17.8031 9.86742C16.4476 10.5563 15.2709 11.4947 14.2655 12.69C14.0384 12.9619 13.8187 13.2486 13.6139 13.5428C13.0739 14.3173 12.9398 15.3116 13.234 16.2053C14.3623 19.6572 14.8055 23.7496 13.4463 28.1139C13.1558 29.0485 13.3122 30.0837 13.9043 30.862C14.0197 31.0147 14.1426 31.1673 14.2655 31.3126C15.2672 32.5079 16.4476 33.45 17.8031 34.1389C19.1585 34.8241 20.6034 35.1704 22.1413 35.1704C23.5265 35.1704 24.8298 34.9172 26.0475 34.407C27.2652 33.8969 28.3451 33.1856 29.2946 32.2696C29.5739 31.9978 29.842 31.7147 30.0952 31.4131C30.7804 30.5976 30.9964 29.4805 30.6575 28.4713C30.2405 27.2202 29.9761 25.9913 29.8308 24.7885H27.5184Z" fill="#1A2E3D"/>
<path d="M35.1786 15.7847L34.5418 15.5054C34.2886 16.0788 34.0577 16.6709 33.8604 17.263L34.5195 17.4864C34.7094 16.913 34.9328 16.3395 35.1786 15.7847Z" fill="#1A2E3D"/>
<path d="M35.3794 13.8148L35.9864 14.15C36.5226 13.1818 36.9397 12.6232 36.9434 12.6158L36.3885 12.1987C36.3699 12.2248 35.938 12.802 35.3794 13.8148Z" fill="#1A2E3D"/>
<path d="M34.4634 30.1436C34.7315 30.7022 35.0368 31.2607 35.372 31.8007L35.9641 31.4357C35.6438 30.9144 35.3496 30.3819 35.0927 29.8457L34.4634 30.1436Z" fill="#1A2E3D"/>
<path d="M34.0163 19.2331L33.7296 19.166L33.3423 19.0767C33.3311 19.1251 33.3237 19.1698 33.3125 19.2182C33.1822 19.7916 33.0779 20.3688 33.0034 20.9348L33.6923 21.0242C33.7668 20.4321 33.8748 19.8289 34.0163 19.2331Z" fill="#1A2E3D"/>
<path d="M33.3501 26.5506L33.231 26.5767C33.2459 26.6512 33.2682 26.7219 33.2868 26.7964C33.4134 27.3363 33.5624 27.8726 33.7448 28.3976L34.4002 28.1705C34.2029 27.6007 34.0353 27.0124 33.9087 26.4277L33.3501 26.5506Z" fill="#1A2E3D"/>
<path d="M33.5547 23.1279C33.5547 23.0274 33.5547 22.9268 33.5585 22.83L32.8621 22.8188C32.8621 22.9231 32.8584 23.0237 32.8584 23.1316C32.8584 23.6604 32.8845 24.1892 32.9329 24.7105L33.6255 24.6435C33.5771 24.1408 33.5547 23.6344 33.5547 23.1279Z" fill="#1A2E3D"/>
<path d="M8.03564 31.4356L8.62772 31.8005C8.96286 31.2606 9.26821 30.702 9.53632 30.1434L8.91073 29.8418C8.65007 30.3817 8.35589 30.918 8.03564 31.4356Z" fill="#1A2E3D"/>
<path d="M9.59619 28.1705L10.2516 28.3976C10.4601 27.8018 10.6314 27.1874 10.7655 26.5767L10.0877 26.4277C9.96112 27.0124 9.79727 27.6007 9.59619 28.1705Z" fill="#1A2E3D"/>
<path d="M10.1395 17.2596C9.93842 16.6712 9.71127 16.0791 9.45805 15.502L8.82129 15.7812C9.06706 16.3361 9.29048 16.9095 9.4804 17.4793L10.1395 17.2596Z" fill="#1A2E3D"/>
<path d="M7.60757 12.2021L7.05273 12.6192C7.05646 12.6267 7.47724 13.1852 8.00974 14.1534L8.61672 13.8183C8.05815 12.8017 7.62619 12.2245 7.60757 12.2021Z" fill="#1A2E3D"/>
<path d="M10.296 20.957C10.2997 20.9793 10.3035 21.0017 10.3072 21.0203L10.9961 20.9309C10.9179 20.3165 10.8024 19.6909 10.6572 19.0728L10.5306 19.1025L9.97949 19.2329C10.1173 19.8063 10.2215 20.3872 10.296 20.957Z" fill="#1A2E3D"/>
<path d="M10.4414 22.83C10.4414 22.9306 10.4451 23.0274 10.4451 23.1279C10.4451 23.4668 10.4302 23.8094 10.4078 24.1482C10.3967 24.3121 10.3892 24.4796 10.3706 24.6398L10.4823 24.6509L11.0632 24.7068C11.1154 24.1855 11.1377 23.6567 11.1377 23.1279C11.1377 23.0237 11.1377 22.9194 11.134 22.8188L10.4414 22.83Z" fill="#1A2E3D"/>
</svg>
