<svg width="44" height="44" viewBox="0 0 44 44" fill="none" xmlns="http://www.w3.org/2000/svg">
<path d="M33.8574 14.5012C33.1009 14.8423 32.2389 15.0531 31.4142 15.1895C31.8048 15.1213 32.3629 14.4206 32.5924 14.1353C32.9396 13.7013 33.2249 13.2052 33.3923 12.6719C33.4109 12.6285 33.4233 12.5789 33.3861 12.5479C33.3365 12.5293 33.2993 12.5355 33.2559 12.5603C32.3443 13.0502 31.3956 13.4036 30.391 13.6579C30.3104 13.6765 30.2484 13.6579 30.1926 13.6082C30.112 13.5152 30.0313 13.4222 29.9445 13.354C29.5229 12.9943 29.0702 12.7091 28.5555 12.5045C27.8858 12.2316 27.1479 12.1138 26.4224 12.1634C25.7154 12.2068 25.0271 12.4052 24.4008 12.7339C23.7745 13.0626 23.2164 13.5152 22.7699 14.0671C22.3111 14.6376 21.97 15.3073 21.7964 16.0204C21.629 16.7088 21.6414 17.3847 21.7468 18.0792C21.7592 18.197 21.753 18.2094 21.6476 18.197C17.7099 17.6079 14.442 16.2003 11.7941 13.1804C11.6763 13.0502 11.6143 13.0502 11.5213 13.1928C10.3617 14.9291 10.926 17.7257 12.3708 19.0962C12.5631 19.2822 12.7615 19.462 12.9785 19.6294C12.8979 19.648 11.9368 19.5426 11.0748 19.0962C10.957 19.0217 10.9012 19.0651 10.8888 19.1954C10.8764 19.3814 10.895 19.555 10.9198 19.7597C11.143 21.5208 12.3646 23.1516 14.0327 23.7903C14.2311 23.8709 14.4482 23.9453 14.6652 23.9826C14.287 24.0694 13.8901 24.1252 12.7987 24.0384C12.6623 24.0136 12.6127 24.0818 12.6623 24.212C13.4808 26.4506 15.2543 27.1141 16.5813 27.4923C16.7612 27.5233 16.9348 27.5233 17.1146 27.5667C17.1022 27.5854 17.096 27.5854 17.0836 27.5978C16.6433 28.2675 15.1179 28.7697 14.411 29.0178C13.1212 29.4705 11.7135 29.6751 10.3493 29.5387C10.1323 29.5077 10.0827 29.5077 10.0268 29.5387C9.96484 29.5759 10.0206 29.6255 10.0889 29.6875C10.3679 29.8735 10.647 30.0348 10.9322 30.1898C11.8003 30.6487 12.7057 31.0145 13.6482 31.275C18.5285 32.6206 24.0288 31.6346 27.6936 27.9884C30.5708 25.1297 31.5816 21.1859 31.5816 17.2358C31.5816 17.0808 31.7614 16.994 31.873 16.9134C32.6234 16.3491 33.2683 15.6794 33.8264 14.9229C33.9504 14.7554 34 14.6066 34 14.5446C34 14.5322 34 14.526 34 14.526C34 14.4392 33.9566 14.4578 33.8574 14.5012Z" fill="#CCD1D4"/>
</svg>
