<svg width="44" height="45" viewBox="0 0 44 45" fill="none" xmlns="http://www.w3.org/2000/svg">
<path d="M10.5414 18.419H15.4595V34.4469H10.5414V18.419ZM13.0039 10.4539C14.5747 10.4539 15.8505 11.7489 15.8505 13.3433C15.8505 14.9378 14.5747 16.2328 13.0039 16.2328C11.4262 16.2328 10.1573 14.9378 10.1573 13.3433C10.1504 11.7489 11.4262 10.4539 13.0039 10.4539ZM18.5394 34.4539H23.4438V26.5235C23.4438 24.4347 23.8348 22.4086 26.3865 22.4086C28.9038 22.4086 28.9381 24.7968 28.9381 26.6627V34.4539H33.8426V25.6601C33.8426 21.3433 32.9234 18.0222 27.9572 18.0222C25.5633 18.0222 23.9651 19.352 23.3066 20.6123H23.2449V18.419H18.5325V34.4539H18.5394Z" fill="#CCD1D4"/>
</svg>
