<svg width="148" height="40" viewBox="0 0 148 40" fill="none" xmlns="http://www.w3.org/2000/svg">
<path d="M28.4907 17.121H16.0619C15.9078 17.1211 15.7601 17.1823 15.6512 17.2912C15.5423 17.4001 15.4811 17.5478 15.481 17.7019V23.7786C15.4811 23.9328 15.5423 24.0805 15.6512 24.1896C15.76 24.2987 15.9077 24.3601 16.0619 24.3604H20.9104V31.91C20.9104 31.91 19.8217 32.2814 16.8118 32.2814C13.2608 32.2814 8.30012 30.9835 8.30012 20.0755C8.30012 9.16526 13.4656 7.72945 18.315 7.72945C22.5128 7.72945 24.3213 8.46891 25.4719 8.82463C25.8335 8.9355 26.1679 8.57578 26.1679 8.25456L27.5545 2.38352C27.5545 2.23353 27.5037 2.05244 27.3324 1.92956C26.8652 1.59632 24.0142 0.000976562 16.8118 0.000976562C8.51447 0.000976562 0.00341797 3.53136 0.00341797 20.5008C0.00341797 37.4715 9.74794 40 17.9593 40C24.7583 40 28.8828 37.0945 28.8828 37.0945C29.0528 37.0003 29.0713 36.7628 29.0713 36.6538V17.7016C29.0713 17.3813 28.8113 17.121 28.4907 17.121ZM92.5443 2.03427C92.5449 1.958 92.5305 1.88235 92.5019 1.81168C92.4732 1.741 92.4308 1.67669 92.3772 1.62243C92.3236 1.56817 92.2598 1.52503 92.1895 1.4955C92.1192 1.46597 92.0437 1.45062 91.9674 1.45034H84.9689C84.8925 1.45062 84.8169 1.46595 84.7464 1.49545C84.6759 1.52495 84.612 1.56803 84.5581 1.62226C84.5043 1.67648 84.4617 1.74078 84.4327 1.81147C84.4038 1.88216 84.389 1.95787 84.3893 2.03427L84.3911 15.5586H73.4827V2.03427C73.4833 1.95797 73.4688 1.88231 73.4401 1.81163C73.4113 1.74095 73.3689 1.67664 73.3153 1.62239C73.2616 1.56814 73.1978 1.52501 73.1274 1.49548C73.0571 1.46596 72.9816 1.45062 72.9053 1.45034H65.9073C65.7533 1.45115 65.6058 1.51312 65.4974 1.62262C65.389 1.73212 65.3285 1.88019 65.3293 2.03427V38.6544C65.3293 38.9772 65.5889 39.2399 65.9073 39.2399H72.9053C73.2253 39.2399 73.4827 38.9769 73.4827 38.6544V22.9905H84.3911L84.372 38.6544C84.372 38.9772 84.632 39.2399 84.952 39.2399H91.9668C92.2874 39.2399 92.5437 38.9769 92.5443 38.6544V2.03427ZM41.6966 6.84C41.6966 4.3198 39.6763 2.28343 37.1838 2.28343C34.6938 2.28343 32.6719 4.3198 32.6719 6.84C32.6719 9.35713 34.6938 11.3987 37.1838 11.3987C39.6763 11.3987 41.6966 9.35713 41.6966 6.84ZM41.1962 30.9296V14.0258C41.1966 13.8717 41.1359 13.7237 41.0273 13.6143C40.9188 13.5049 40.7713 13.443 40.6172 13.4422H33.6411C33.3211 13.4422 33.0347 13.7723 33.0347 14.0936V38.3113C33.0347 39.0234 33.4782 39.2347 34.0522 39.2347H40.3375C41.0271 39.2347 41.1962 38.8959 41.1962 38.3003V30.9296ZM119.14 13.4973H112.196C111.877 13.4973 111.618 13.7597 111.618 14.0828V32.0387C111.618 32.0387 109.853 33.3297 107.35 33.3297C104.846 33.3297 104.181 32.1936 104.181 29.7418V14.0828C104.181 13.7597 103.922 13.4973 103.604 13.4973H96.5554C96.2376 13.4973 95.9767 13.7597 95.9767 14.0828V30.9272C95.9767 38.2097 100.036 39.9914 105.62 39.9914C110.2 39.9914 113.893 37.461 113.893 37.461C113.893 37.461 114.069 38.7943 114.149 38.9526C114.228 39.1102 114.436 39.2695 114.659 39.2695L119.144 39.2498C119.462 39.2498 119.722 38.9867 119.722 38.6652L119.72 14.0831C119.72 13.7597 119.46 13.4973 119.14 13.4973ZM135.382 33.3076C132.973 33.2343 131.339 32.1409 131.339 32.1409V20.5445C131.339 20.5445 132.951 19.5565 134.928 19.3797C137.429 19.1558 139.839 19.9113 139.839 25.8766C139.839 32.1674 138.752 33.4089 135.382 33.3076ZM138.121 12.675C134.177 12.675 131.494 14.4348 131.494 14.4348V2.03457C131.494 1.71119 131.235 1.45034 130.916 1.45034H123.898C123.822 1.4507 123.746 1.4661 123.676 1.49566C123.606 1.52522 123.542 1.56837 123.488 1.62262C123.434 1.67688 123.392 1.74118 123.363 1.81187C123.334 1.88255 123.32 1.95823 123.32 2.03457V38.6544C123.32 38.9772 123.579 39.2399 123.899 39.2399H128.769C128.988 39.2399 129.154 39.1269 129.276 38.9291C129.397 38.7323 129.572 37.2408 129.572 37.2408C129.572 37.2408 132.442 39.9603 137.874 39.9603C144.252 39.9603 147.909 36.7252 147.909 25.4377C147.909 14.1499 142.068 12.675 138.121 12.675ZM61.3095 13.4391H56.06L56.0519 6.50368C56.0519 6.24128 55.9167 6.11009 55.6134 6.11009H48.4596C48.1815 6.11009 48.0321 6.23266 48.0321 6.49968V13.6667C48.0321 13.6667 44.4472 14.5318 44.2048 14.602C44.0839 14.6371 43.9777 14.7105 43.9021 14.8111C43.8265 14.9117 43.7856 15.0342 43.7857 15.1601V19.6637C43.7857 19.9877 44.0444 20.2483 44.3644 20.2483H48.0321V31.0824C48.0321 39.1299 53.6768 39.9205 57.4859 39.9205C59.2263 39.9205 61.3083 39.3619 61.652 39.2344C61.8598 39.158 61.9806 38.9427 61.9806 38.7092L61.9864 33.7551C61.9864 33.4317 61.7136 33.1708 61.4062 33.1708C61.1004 33.1708 60.3178 33.2952 59.5121 33.2952C56.9337 33.2952 56.06 32.0963 56.06 30.5444L56.0596 20.2479H61.3095C61.6295 20.2479 61.8885 19.9871 61.8885 19.6634V14.0221C61.8889 13.9458 61.8742 13.8701 61.8452 13.7995C61.8163 13.7289 61.7737 13.6646 61.72 13.6105C61.6662 13.5563 61.6022 13.5133 61.5318 13.4839C61.4614 13.4545 61.3858 13.4393 61.3095 13.4391Z" fill="#808B93"/>
</svg>
