<svg width="123" height="40" viewBox="0 0 123 40" fill="none" xmlns="http://www.w3.org/2000/svg">
<path d="M30.0044 14.1293H15.7659V18.3543H25.8648C25.3644 24.268 20.4366 26.8064 15.7829 26.8064C14.3087 26.8129 12.8479 26.5256 11.4859 25.9613C10.1238 25.3971 8.88786 24.5671 7.85011 23.5199C6.81236 22.4728 5.99361 21.2294 5.44168 19.8623C4.88974 18.4952 4.61568 17.0319 4.63548 15.5577C4.63548 9.16178 9.58712 4.23744 15.7966 4.23744C20.5867 4.23744 23.4094 7.29099 23.4094 7.29099L26.3663 4.2272C26.3663 4.2272 22.5678 0 15.6419 0C6.82244 0 0 7.44338 0 15.4827C0 23.3605 6.41757 31.0427 15.8648 31.0427C24.1748 31.0427 30.258 25.3496 30.258 16.9316C30.258 15.1552 29.9998 14.1293 29.9998 14.1293H30.0044Z" fill="#808B93"/>
<path d="M41.6693 11.0685C35.8261 11.0685 31.6387 15.6369 31.6387 20.9627C31.6387 26.3692 35.6987 31.0218 41.7376 31.0218C47.2032 31.0218 51.6806 26.8446 51.6806 21.0787C51.6806 14.4826 46.472 11.0674 41.6693 11.0674V11.0685ZM41.7262 14.9875C44.5989 14.9875 47.3215 17.311 47.3215 21.0537C47.3215 24.7157 44.6103 27.1062 41.7125 27.1062C38.5282 27.1062 36.0262 24.5564 36.0262 21.0241C36.0262 17.5668 38.5055 14.9875 41.7353 14.9875H41.7262Z" fill="#808B93"/>
<path d="M63.4833 11.0685C57.64 11.0685 53.4526 15.6369 53.4526 20.9627C53.4526 26.3692 57.5127 31.0218 63.5515 31.0218C69.0172 31.0218 73.4946 26.8446 73.4946 21.0787C73.4946 14.4826 68.2859 11.0674 63.4833 11.0674V11.0685ZM63.5402 14.9875C66.4129 14.9875 69.1355 17.311 69.1355 21.0537C69.1355 24.7157 66.4243 27.1062 63.5265 27.1062C60.3422 27.1062 57.8402 24.5564 57.8402 21.0241C57.8402 17.5668 60.3194 14.9875 63.5493 14.9875H63.5402Z" fill="#808B93"/>
<path d="M84.8783 11.0796C79.515 11.0796 75.3003 15.7765 75.3003 21.0488C75.3003 27.0536 80.1871 31.0363 84.7851 31.0363C87.6282 31.0363 89.1408 29.907 90.2439 28.6116V30.5791C90.2439 34.0216 88.1536 36.0834 84.9989 36.0834C81.951 36.0834 80.4225 33.8169 79.8812 32.5318L76.0463 34.1239C77.4065 37.0012 80.145 40.0002 85.0307 40.0002C90.3758 40.0002 94.4268 36.6418 94.4268 29.5976V11.6789H90.2598V13.3689C88.9747 11.9814 87.2142 11.0796 84.8806 11.0796H84.8783ZM85.265 14.9918C87.8943 14.9918 90.5942 17.2367 90.5942 21.0704C90.5942 24.9678 87.8989 27.115 85.207 27.115C82.3479 27.115 79.6879 24.795 79.6879 21.1068C79.6879 17.2765 82.4514 14.9906 85.265 14.9906V14.9918Z" fill="#808B93"/>
<path d="M113.051 11.0562C107.992 11.0562 103.745 15.0821 103.745 21.0186C103.745 27.3031 108.479 31.0299 113.525 31.0299C117.747 31.0299 120.349 28.7212 121.884 26.6514L118.435 24.3564C117.54 25.7439 116.043 27.1029 113.547 27.1029C110.742 27.1029 109.453 25.5676 108.653 24.0778L122.031 18.528L121.348 16.9017C120.056 13.7173 117.041 11.0562 113.052 11.0562H113.051ZM113.225 14.8933C115.048 14.8933 116.359 15.8622 116.916 17.0245L107.982 20.7581C107.595 17.8672 110.336 14.8933 113.213 14.8933H113.225Z" fill="#808B93"/>
<path d="M97.3564 30.4379H101.751V1.03174H97.3564V30.4379Z" fill="#808B93"/>
</svg>
