<svg width="170" height="32" viewBox="0 0 170 32" fill="none" xmlns="http://www.w3.org/2000/svg">
<path d="M49.7251 13.018H47.6638C47.5845 12.5775 47.4369 12.1899 47.2211 11.8552C47.0053 11.5204 46.741 11.2363 46.4282 11.0029C46.1155 10.7694 45.7653 10.5932 45.3777 10.4743C44.9945 10.3554 44.5871 10.2959 44.1554 10.2959C43.3758 10.2959 42.6776 10.4919 42.061 10.8839C41.4487 11.276 40.9642 11.8508 40.6074 12.6084C40.2551 13.366 40.0789 14.291 40.0789 15.3833C40.0789 16.4845 40.2551 17.4139 40.6074 18.1715C40.9642 18.9291 41.4509 19.5017 42.0676 19.8893C42.6843 20.2769 43.378 20.4707 44.1488 20.4707C44.5761 20.4707 44.9813 20.4135 45.3645 20.299C45.7521 20.18 46.1023 20.006 46.415 19.777C46.7278 19.548 46.992 19.2683 47.2079 18.9379C47.4281 18.6032 47.5801 18.2199 47.6638 17.7883L49.7251 17.7949C49.615 18.46 49.4014 19.0723 49.0843 19.6316C48.7715 20.1866 48.3685 20.6667 47.8752 21.072C47.3863 21.4728 46.8269 21.7833 46.197 22.0036C45.5671 22.2238 44.88 22.3339 44.1356 22.3339C42.9639 22.3339 41.92 22.0564 41.0039 21.5014C40.0877 20.942 39.3653 20.1426 38.8368 19.1031C38.3126 18.0636 38.0505 16.8237 38.0505 15.3833C38.0505 13.9386 38.3148 12.6987 38.8434 11.6636C39.3719 10.6241 40.0943 9.82681 41.0105 9.27182C41.9266 8.71242 42.9684 8.43273 44.1356 8.43273C44.8536 8.43273 45.5231 8.53624 46.1441 8.74326C46.7696 8.94587 47.3312 9.24539 47.8289 9.64181C48.3267 10.0338 48.7385 10.5139 49.0644 11.0821C49.3904 11.6459 49.6106 12.2912 49.7251 13.018ZM56.2843 22.3537C55.3329 22.3537 54.5026 22.1357 53.7934 21.6996C53.0843 21.2636 52.5337 20.6535 52.1417 19.8695C51.7496 19.0855 51.5536 18.1693 51.5536 17.121C51.5536 16.0683 51.7496 15.1477 52.1417 14.3592C52.5337 13.5708 53.0843 12.9585 53.7934 12.5225C54.5026 12.0864 55.3329 11.8684 56.2843 11.8684C57.2357 11.8684 58.066 12.0864 58.7751 12.5225C59.4843 12.9585 60.0349 13.5708 60.4269 14.3592C60.8189 15.1477 61.0149 16.0683 61.0149 17.121C61.0149 18.1693 60.8189 19.0855 60.4269 19.8695C60.0349 20.6535 59.4843 21.2636 58.7751 21.6996C58.066 22.1357 57.2357 22.3537 56.2843 22.3537ZM56.2909 20.6954C56.9075 20.6954 57.4185 20.5324 57.8237 20.2065C58.2289 19.8805 58.5285 19.4466 58.7223 18.9049C58.9205 18.3631 59.0196 17.7663 59.0196 17.1144C59.0196 16.4669 58.9205 15.8722 58.7223 15.3305C58.5285 14.7843 58.2289 14.346 57.8237 14.0157C57.4185 13.6853 56.9075 13.5201 56.2909 13.5201C55.6698 13.5201 55.1545 13.6853 54.7448 14.0157C54.3396 14.346 54.0379 14.7843 53.8397 15.3305C53.6459 15.8722 53.549 16.4669 53.549 17.1144C53.549 17.7663 53.6459 18.3631 53.8397 18.9049C54.0379 19.4466 54.3396 19.8805 54.7448 20.2065C55.1545 20.5324 55.6698 20.6954 56.2909 20.6954ZM63.22 22.1489V12.0005H65.1162V13.6523H65.2418C65.4532 13.0929 65.799 12.6568 66.2791 12.3441C66.7592 12.027 67.334 11.8684 68.0035 11.8684C68.6818 11.8684 69.25 12.027 69.7081 12.3441C70.1706 12.6612 70.512 13.0973 70.7322 13.6523H70.8379C71.0802 13.1105 71.4656 12.6788 71.9941 12.3573C72.5227 12.0314 73.1526 11.8684 73.8838 11.8684C74.8043 11.8684 75.5553 12.1569 76.1368 12.7339C76.7226 13.3109 77.0155 14.1808 77.0155 15.3437V22.1489H75.04V15.5287C75.04 14.8415 74.8528 14.3438 74.4784 14.0355C74.104 13.7272 73.6569 13.573 73.1372 13.573C72.4941 13.573 71.9941 13.7712 71.6374 14.1676C71.2806 14.5596 71.1022 15.064 71.1022 15.6806V22.1489H69.1333V15.4031C69.1333 14.8526 68.9615 14.4099 68.618 14.0751C68.2744 13.7404 67.8273 13.573 67.2767 13.573C66.9023 13.573 66.5566 13.6721 66.2394 13.8703C65.9267 14.0641 65.6734 14.335 65.4796 14.683C65.2902 15.0309 65.1955 15.434 65.1955 15.8921V22.1489H63.22ZM79.6633 25.9546V12.0005H81.5925V13.6457H81.7577C81.8722 13.4342 82.0374 13.1898 82.2532 12.9123C82.469 12.6348 82.7686 12.3925 83.1518 12.1855C83.535 11.9741 84.0415 11.8684 84.6714 11.8684C85.4907 11.8684 86.2218 12.0754 86.8649 12.4894C87.508 12.9035 88.0123 13.5003 88.3779 14.2799C88.7479 15.0596 88.9329 15.9978 88.9329 17.0945C88.9329 18.1913 88.7501 19.1317 88.3845 19.9157C88.019 20.6954 87.5168 21.2966 86.8781 21.7195C86.2395 22.1379 85.5105 22.3471 84.6912 22.3471C84.0746 22.3471 83.5702 22.2436 83.1782 22.0366C82.7906 21.8296 82.4867 21.5873 82.2664 21.3098C82.0462 21.0323 81.8766 20.7857 81.7577 20.5698H81.6388V25.9546H79.6633ZM81.5991 17.0747C81.5991 17.7883 81.7026 18.4137 81.9097 18.9511C82.1167 19.4885 82.4162 19.9091 82.8082 20.2131C83.2002 20.5126 83.6803 20.6623 84.2485 20.6623C84.8388 20.6623 85.3321 20.506 85.7285 20.1932C86.1249 19.8761 86.4245 19.4466 86.6271 18.9049C86.8341 18.3631 86.9376 17.753 86.9376 17.0747C86.9376 16.4052 86.8363 15.804 86.6337 15.271C86.4355 14.738 86.136 14.3174 85.7351 14.0091C85.3387 13.7007 84.8432 13.5466 84.2485 13.5466C83.6759 13.5466 83.1914 13.6941 82.795 13.9892C82.403 14.2844 82.1057 14.6962 81.903 15.2248C81.7004 15.7533 81.5991 16.37 81.5991 17.0747ZM91.1463 22.1489V12.0005H93.0557V13.6126H93.1614C93.3464 13.0665 93.6724 12.637 94.1393 12.3243C94.6106 12.0071 95.1435 11.8486 95.7382 11.8486C95.8615 11.8486 96.0069 11.853 96.1742 11.8618C96.346 11.8706 96.4804 11.8816 96.5773 11.8948V13.7844C96.498 13.7624 96.357 13.7382 96.1544 13.7117C95.9518 13.6809 95.7492 13.6655 95.5466 13.6655C95.0797 13.6655 94.6634 13.7646 94.2978 13.9628C93.9367 14.1566 93.6504 14.4275 93.4389 14.7755C93.2275 15.119 93.1218 15.5111 93.1218 15.9515V22.1489H91.1463ZM102.297 22.3537C101.297 22.3537 100.436 22.1401 99.714 21.7129C98.996 21.2812 98.441 20.6756 98.049 19.8959C97.6614 19.1119 97.4676 18.1935 97.4676 17.1408C97.4676 16.1013 97.6614 15.1851 98.049 14.3923C98.441 13.5994 98.9872 12.9806 99.6875 12.5357C100.392 12.0908 101.216 11.8684 102.159 11.8684C102.731 11.8684 103.286 11.9631 103.824 12.1525C104.361 12.3419 104.843 12.6392 105.27 13.0444C105.698 13.4497 106.035 13.976 106.281 14.6235C106.528 15.2666 106.651 16.0484 106.651 16.969V17.6694H98.5842V16.1894H104.715C104.715 15.6696 104.61 15.2093 104.398 14.8085C104.187 14.4033 103.89 14.0839 103.506 13.8505C103.128 13.617 102.683 13.5003 102.172 13.5003C101.617 13.5003 101.132 13.6369 100.718 13.91C100.309 14.1786 99.9915 14.531 99.7668 14.9671C99.5466 15.3987 99.4365 15.8678 99.4365 16.3744V17.5306C99.4365 18.2089 99.5554 18.7859 99.7932 19.2617C100.035 19.7374 100.372 20.1007 100.804 20.3518C101.236 20.5985 101.74 20.7218 102.317 20.7218C102.692 20.7218 103.033 20.669 103.341 20.5632C103.65 20.4531 103.916 20.2901 104.141 20.0743C104.365 19.8585 104.537 19.592 104.656 19.2749L106.526 19.6118C106.376 20.1624 106.107 20.6447 105.72 21.0588C105.337 21.4684 104.854 21.7877 104.273 22.0168C103.696 22.2414 103.037 22.3537 102.297 22.3537ZM116.448 14.4782L114.657 14.7953C114.583 14.5663 114.464 14.3482 114.301 14.1412C114.142 13.9342 113.926 13.7646 113.653 13.6325C113.38 13.5003 113.039 13.4342 112.629 13.4342C112.07 13.4342 111.603 13.5598 111.228 13.8109C110.854 14.0575 110.667 14.3769 110.667 14.7689C110.667 15.108 110.792 15.3811 111.043 15.5881C111.294 15.7952 111.7 15.9647 112.259 16.0969L113.871 16.4669C114.805 16.6827 115.501 17.0153 115.959 17.4645C116.417 17.9138 116.646 18.4974 116.646 19.2154C116.646 19.8233 116.47 20.365 116.118 20.8407C115.77 21.312 115.283 21.682 114.657 21.9507C114.036 22.2194 113.316 22.3537 112.497 22.3537C111.36 22.3537 110.433 22.1115 109.715 21.627C108.997 21.138 108.557 20.4443 108.394 19.5458L110.303 19.255C110.422 19.7528 110.667 20.1294 111.037 20.3848C111.407 20.6359 111.889 20.7614 112.484 20.7614C113.131 20.7614 113.649 20.6271 114.036 20.3584C114.424 20.0853 114.618 19.7528 114.618 19.3608C114.618 19.0436 114.499 18.7771 114.261 18.5613C114.028 18.3455 113.669 18.1825 113.184 18.0724L111.466 17.6958C110.519 17.48 109.819 17.1364 109.365 16.6651C108.916 16.1938 108.691 15.597 108.691 14.8746C108.691 14.2755 108.859 13.7514 109.193 13.3021C109.528 12.8528 109.991 12.5027 110.581 12.2516C111.171 11.9961 111.847 11.8684 112.609 11.8684C113.706 11.8684 114.569 12.1062 115.199 12.5819C115.829 13.0532 116.245 13.6853 116.448 14.4782ZM126.423 14.4782L124.632 14.7953C124.557 14.5663 124.439 14.3482 124.276 14.1412C124.117 13.9342 123.901 13.7646 123.628 13.6325C123.355 13.5003 123.014 13.4342 122.604 13.4342C122.045 13.4342 121.578 13.5598 121.203 13.8109C120.829 14.0575 120.642 14.3769 120.642 14.7689C120.642 15.108 120.767 15.3811 121.018 15.5881C121.269 15.7952 121.675 15.9647 122.234 16.0969L123.846 16.4669C124.78 16.6827 125.476 17.0153 125.934 17.4645C126.392 17.9138 126.621 18.4974 126.621 19.2154C126.621 19.8233 126.445 20.365 126.093 20.8407C125.745 21.312 125.258 21.682 124.632 21.9507C124.011 22.2194 123.291 22.3537 122.472 22.3537C121.335 22.3537 120.408 22.1115 119.69 21.627C118.972 21.138 118.532 20.4443 118.369 19.5458L120.278 19.255C120.397 19.7528 120.642 20.1294 121.012 20.3848C121.382 20.6359 121.864 20.7614 122.459 20.7614C123.106 20.7614 123.624 20.6271 124.011 20.3584C124.399 20.0853 124.593 19.7528 124.593 19.3608C124.593 19.0436 124.474 18.7771 124.236 18.5613C124.003 18.3455 123.644 18.1825 123.159 18.0724L121.441 17.6958C120.494 17.48 119.794 17.1364 119.34 16.6651C118.891 16.1938 118.666 15.597 118.666 14.8746C118.666 14.2755 118.834 13.7514 119.168 13.3021C119.503 12.8528 119.966 12.5027 120.556 12.2516C121.146 11.9961 121.822 11.8684 122.584 11.8684C123.681 11.8684 124.544 12.1062 125.174 12.5819C125.804 13.0532 126.22 13.6853 126.423 14.4782ZM128.793 22.1489V12.0005H130.769V22.1489H128.793ZM129.791 10.4347C129.447 10.4347 129.152 10.3201 128.905 10.0911C128.663 9.85764 128.542 9.58015 128.542 9.2586C128.542 8.93266 128.663 8.65516 128.905 8.42612C129.152 8.19267 129.447 8.07595 129.791 8.07595C130.134 8.07595 130.427 8.19267 130.67 8.42612C130.916 8.65516 131.04 8.93266 131.04 9.2586C131.04 9.58015 130.916 9.85764 130.67 10.0911C130.427 10.3201 130.134 10.4347 129.791 10.4347ZM138.256 12.0005V13.5862H132.521V12.0005H138.256ZM134.094 22.1489V10.8245C134.094 10.1902 134.232 9.66384 134.51 9.24539C134.787 8.82254 135.155 8.50761 135.613 8.30059C136.071 8.08916 136.569 7.98345 137.106 7.98345C137.503 7.98345 137.842 8.01648 138.124 8.08255C138.406 8.14422 138.615 8.20148 138.752 8.25434L138.289 9.85324C138.197 9.82681 138.078 9.79598 137.932 9.76074C137.787 9.7211 137.611 9.70128 137.404 9.70128C136.924 9.70128 136.58 9.8202 136.373 10.0581C136.17 10.2959 136.069 10.6395 136.069 11.0888V22.1489H134.094ZM141.543 25.9546C141.248 25.9546 140.979 25.9304 140.737 25.8819C140.495 25.8379 140.314 25.7894 140.195 25.7365L140.671 24.1178C141.032 24.2147 141.354 24.2566 141.636 24.2434C141.917 24.2301 142.166 24.1244 142.382 23.9262C142.602 23.728 142.796 23.4043 142.964 22.955L143.208 22.2811L139.495 12.0005H141.609L144.179 19.8761H144.285L146.855 12.0005H148.976L144.794 23.5034C144.6 24.0319 144.353 24.479 144.054 24.8446C143.754 25.2146 143.397 25.4921 142.983 25.6771C142.569 25.8621 142.089 25.9546 141.543 25.9546ZM151.498 22.2745C151.137 22.2745 150.827 22.1467 150.567 21.8913C150.307 21.6314 150.177 21.3186 150.177 20.9531C150.177 20.5919 150.307 20.2835 150.567 20.0281C150.827 19.7682 151.137 19.6383 151.498 19.6383C151.859 19.6383 152.17 19.7682 152.43 20.0281C152.69 20.2835 152.82 20.5919 152.82 20.9531C152.82 21.1953 152.758 21.4177 152.635 21.6204C152.516 21.8186 152.357 21.9771 152.159 22.0961C151.961 22.215 151.74 22.2745 151.498 22.2745ZM155.466 22.1489V12.0005H157.441V22.1489H155.466ZM156.463 10.4347C156.12 10.4347 155.825 10.3201 155.578 10.0911C155.336 9.85764 155.215 9.58015 155.215 9.2586C155.215 8.93266 155.336 8.65516 155.578 8.42612C155.825 8.19267 156.12 8.07595 156.463 8.07595C156.807 8.07595 157.1 8.19267 157.342 8.42612C157.589 8.65516 157.712 8.93266 157.712 9.2586C157.712 9.58015 157.589 9.85764 157.342 10.0911C157.1 10.3201 156.807 10.4347 156.463 10.4347ZM164.374 22.3537C163.422 22.3537 162.592 22.1357 161.883 21.6996C161.174 21.2636 160.623 20.6535 160.231 19.8695C159.839 19.0855 159.643 18.1693 159.643 17.121C159.643 16.0683 159.839 15.1477 160.231 14.3592C160.623 13.5708 161.174 12.9585 161.883 12.5225C162.592 12.0864 163.422 11.8684 164.374 11.8684C165.325 11.8684 166.155 12.0864 166.865 12.5225C167.574 12.9585 168.124 13.5708 168.516 14.3592C168.908 15.1477 169.104 16.0683 169.104 17.121C169.104 18.1693 168.908 19.0855 168.516 19.8695C168.124 20.6535 167.574 21.2636 166.865 21.6996C166.155 22.1357 165.325 22.3537 164.374 22.3537ZM164.38 20.6954C164.997 20.6954 165.508 20.5324 165.913 20.2065C166.318 19.8805 166.618 19.4466 166.812 18.9049C167.01 18.3631 167.109 17.7663 167.109 17.1144C167.109 16.4669 167.01 15.8722 166.812 15.3305C166.618 14.7843 166.318 14.346 165.913 14.0157C165.508 13.6853 164.997 13.5201 164.38 13.5201C163.759 13.5201 163.244 13.6853 162.834 14.0157C162.429 14.346 162.127 14.7843 161.929 15.3305C161.735 15.8722 161.638 16.4669 161.638 17.1144C161.638 17.7663 161.735 18.3631 161.929 18.9049C162.127 19.4466 162.429 19.8805 162.834 20.2065C163.244 20.5324 163.759 20.6954 164.38 20.6954Z" fill="#0D99FF"/>
<path d="M16.3016 31.0613C24.879 31.0613 31.8323 24.108 31.8323 15.5306C31.8323 6.9533 24.879 0 16.3016 0C7.7243 0 0.770996 6.9533 0.770996 15.5306C0.770996 24.108 7.7243 31.0613 16.3016 31.0613Z" fill="#0D99FF"/>
<path d="M13.5412 12.089C13.9039 11.6474 14.3298 11.2978 14.8135 11.0428C15.2972 10.7878 15.8177 10.659 16.375 10.659C17.2293 10.659 17.9785 10.9324 18.6199 11.4739C19.2613 12.018 19.703 12.7488 19.9448 13.6663H21.6035C21.7429 12.8803 21.9426 12.1311 22.1871 11.4213C22.4106 10.772 22.2896 10.0517 21.8743 9.50496C21.6456 9.20528 21.3985 8.92401 21.1304 8.66639C20.4968 8.05389 19.7739 7.57809 18.959 7.23898C18.1467 6.89987 17.2766 6.729 16.3513 6.729C15.3261 6.729 14.3587 6.9577 13.4544 7.41774C12.5501 7.87777 11.7615 8.50604 11.0912 9.30518C10.9387 9.48656 10.7941 9.67846 10.6548 9.87561C10.2947 10.3935 10.2053 11.0559 10.3998 11.6553C11.1543 13.9633 11.4513 16.6972 10.5418 19.6125C10.3472 20.2381 10.4524 20.9269 10.8493 21.45C10.9282 21.5525 11.0071 21.6524 11.0912 21.7523C11.7615 22.5514 12.5475 23.1797 13.4544 23.6397C14.3587 24.0998 15.3261 24.3285 16.3513 24.3285C17.2766 24.3285 18.1467 24.1576 18.959 23.8185C19.7713 23.4794 20.4942 23.0036 21.1304 22.3911C21.317 22.2097 21.4958 22.0204 21.664 21.818C22.1214 21.2739 22.266 20.5273 22.0399 19.8517C21.7613 19.0158 21.5825 18.193 21.4879 17.3912H19.9422C19.7003 18.3086 19.2587 19.0394 18.6173 19.5836C17.9759 20.1277 17.2267 20.3985 16.3723 20.3985C15.8177 20.3985 15.2945 20.2697 14.8109 20.0147C14.3272 19.7597 13.9013 19.4101 13.5385 18.9685C13.1758 18.5268 12.8892 18.009 12.6842 17.4122C12.4765 16.8181 12.374 16.1794 12.374 15.4985C12.374 14.8361 12.4765 14.2104 12.6842 13.6242C12.8919 13.0459 13.1784 12.5306 13.5412 12.089Z" fill="white"/>
<path d="M26.0574 23.2372C25.9101 23.2372 25.7656 23.1715 25.6683 23.0426C25.5448 22.877 25.4265 22.7141 25.3134 22.5484C25.161 22.3276 25.2162 22.0253 25.437 21.8729C25.6578 21.7204 25.9601 21.7756 26.1126 21.9964C26.2177 22.1489 26.3281 22.304 26.4438 22.4591C26.6041 22.6746 26.5621 22.9769 26.3465 23.1399C26.2624 23.2056 26.1599 23.2372 26.0574 23.2372ZM24.6694 20.937C24.4854 20.937 24.3119 20.8319 24.2277 20.6557C23.9912 20.1431 23.7887 19.6121 23.631 19.0785C23.5548 18.8209 23.6994 18.5501 23.957 18.4739C24.2146 18.3977 24.4854 18.5422 24.5616 18.7998C24.7062 19.2888 24.8928 19.7751 25.111 20.2457C25.224 20.4901 25.1189 20.7767 24.8744 20.8897C24.8061 20.9212 24.7377 20.937 24.6694 20.937ZM23.6915 17.3646C23.4444 17.3646 23.2341 17.1779 23.2078 16.9256C23.171 16.5549 23.1526 16.1764 23.1526 15.7978C23.1526 15.6086 23.1578 15.4219 23.1657 15.2379C23.1789 14.9698 23.4102 14.7674 23.6731 14.7752C23.9412 14.7884 24.1489 15.0145 24.1357 15.2826C24.1279 15.4508 24.1226 15.6243 24.1226 15.7952C24.1226 16.1422 24.1384 16.4892 24.1725 16.8283C24.1988 17.0964 24.0043 17.333 23.7362 17.3593C23.723 17.3619 23.7073 17.3646 23.6915 17.3646ZM23.9333 13.6659C23.8992 13.6659 23.8624 13.6633 23.8282 13.6554C23.5653 13.5976 23.4023 13.3373 23.4602 13.0771C23.5784 12.5408 23.7335 11.9993 23.9202 11.4656C24.0096 11.2133 24.2856 11.0792 24.5379 11.1686C24.7903 11.258 24.9244 11.534 24.835 11.7864C24.6615 12.2832 24.5169 12.7879 24.4065 13.2874C24.3566 13.5108 24.1568 13.6659 23.9333 13.6659ZM25.2162 10.1802C25.1399 10.1802 25.0637 10.1618 24.9927 10.125C24.7561 10.0014 24.6641 9.70701 24.7877 9.47043C25.2608 8.56614 25.6552 8.04039 25.6709 8.01936C25.8339 7.80643 26.1362 7.76437 26.3518 7.92472C26.5647 8.08508 26.6094 8.39001 26.449 8.60557C26.4464 8.61083 26.0836 9.09715 25.6499 9.92257C25.5579 10.0856 25.3897 10.1802 25.2162 10.1802Z" fill="white"/>
<path d="M6.25191 23.1394C6.03635 22.979 5.99429 22.6741 6.15465 22.4585C6.27031 22.3034 6.38072 22.151 6.48587 21.9959C6.63834 21.775 6.94064 21.7198 7.16146 21.8723C7.38227 22.0248 7.43748 22.3271 7.28501 22.5479C7.17197 22.7135 7.05368 22.8765 6.93013 23.0421C6.83549 23.1683 6.68828 23.2366 6.54107 23.2366C6.44381 23.2366 6.34129 23.2051 6.25191 23.1394ZM7.72927 20.8918C7.48479 20.7788 7.37965 20.4896 7.49268 20.2477C7.71087 19.7772 7.89488 19.2909 8.04209 18.8019C8.11832 18.5443 8.38908 18.3997 8.6467 18.476C8.90432 18.5522 9.0489 18.823 8.97267 19.0806C8.81494 19.6142 8.61253 20.1426 8.37594 20.6578C8.29445 20.834 8.11832 20.9391 7.93431 20.9391C7.86596 20.9365 7.79499 20.9207 7.72927 20.8918ZM8.86226 17.3614C8.59675 17.3351 8.3996 17.0985 8.42589 16.8304C8.46006 16.4913 8.47583 16.1443 8.47583 15.7973C8.47583 15.6238 8.47057 15.4529 8.46269 15.2847C8.44954 15.0165 8.65722 14.7905 8.92535 14.7773C9.18822 14.7694 9.41955 14.9719 9.4327 15.24C9.44058 15.424 9.44584 15.6106 9.44584 15.7999C9.44584 16.1758 9.42744 16.557 9.39064 16.9276C9.36698 17.1774 9.15405 17.3666 8.90695 17.3666C8.8938 17.364 8.87803 17.3614 8.86226 17.3614ZM8.19456 13.2842C8.08415 12.7847 7.93957 12.28 7.76607 11.7832C7.67669 11.5308 7.81076 11.2522 8.06312 11.1654C8.31548 11.0787 8.59413 11.2101 8.68087 11.4625C8.86752 11.9935 9.02261 12.5376 9.1409 13.0739C9.19874 13.3368 9.03313 13.5944 8.77288 13.6522C8.73871 13.6601 8.7019 13.6627 8.66773 13.6627C8.44691 13.6654 8.2445 13.5103 8.19456 13.2842ZM6.95642 9.9194C6.52267 9.09134 6.15991 8.60503 6.15728 8.6024C5.99692 8.38684 6.03898 8.08453 6.25454 7.92155C6.46747 7.7612 6.7724 7.80326 6.93539 8.01619C6.95116 8.03722 7.34547 8.56559 7.81865 9.46725C7.9422 9.70384 7.85019 9.99826 7.6136 10.1218C7.54263 10.1586 7.46376 10.177 7.39016 10.177C7.2114 10.1796 7.04317 10.085 6.95642 9.9194Z" fill="white"/>
</svg>