<svg width="1280" height="640" viewBox="0 0 1280 640" fill="none" xmlns="http://www.w3.org/2000/svg">
<rect width="1280" height="640" fill="#E4F4FF"/>
<path d="M98.2297 491.903C97.743 491.248 97.5642 490.493 97.7232 489.778C97.8821 489.073 98.3588 488.487 99.064 488.119L103.106 486.003C103.355 485.874 103.444 485.576 103.315 485.338C103.186 485.09 102.888 485 102.65 485.129L100.018 486.5C100.077 485.437 100.673 484.474 101.646 483.967L109.503 479.865C109.751 479.736 109.841 479.438 109.712 479.2C109.582 478.951 109.284 478.862 109.046 478.991L101.19 483.093C99.7394 483.858 98.9051 485.408 99.0442 487.027L98.6071 487.255C97.6437 487.762 96.9882 488.586 96.7597 489.569C96.5313 490.572 96.7697 491.615 97.4351 492.509L105.431 503.246C105.53 503.375 105.679 503.445 105.828 503.445C105.927 503.445 106.037 503.415 106.126 503.345C106.344 503.176 106.394 502.869 106.225 502.65L98.2297 491.903Z" fill="#0D99FF"/>
<path d="M128.603 501.399L118.879 506.484C117.32 503.892 113.972 502.918 111.261 504.339C110.307 504.835 109.562 505.56 109.036 506.415L108.083 505.133C107.914 504.915 107.606 504.865 107.387 505.034C107.169 505.203 107.119 505.511 107.288 505.729L108.539 507.418C107.973 508.908 108.023 510.616 108.818 512.136C109.533 513.506 110.734 514.509 112.214 514.976C112.781 515.155 113.367 515.244 113.953 515.244C114.876 515.244 115.78 515.026 116.624 514.579C119.256 513.198 120.389 510.07 119.336 507.368L129.08 502.273C129.328 502.144 129.417 501.846 129.288 501.607C129.139 501.359 128.841 501.27 128.603 501.399ZM116.148 513.695C115.015 514.291 113.714 514.4 112.502 514.023C111.281 513.645 110.288 512.801 109.692 511.669C109.145 510.626 109.046 509.464 109.284 508.401C109.374 508.014 109.493 507.636 109.672 507.289C110.109 506.434 110.794 505.689 111.708 505.213C112.413 504.845 113.168 504.666 113.913 504.666C115.532 504.666 117.081 505.491 117.975 506.941C118.035 507.04 118.104 507.13 118.164 507.239C118.263 507.438 118.333 507.636 118.402 507.835C119.217 510.05 118.293 512.573 116.148 513.695Z" fill="#0D99FF"/>
<path d="M135.327 497.873L130.688 500.296C130.44 500.425 130.351 500.723 130.48 500.962C130.569 501.13 130.738 501.23 130.917 501.23C130.996 501.23 131.076 501.21 131.145 501.17L135.784 498.747C136.032 498.618 136.121 498.32 135.992 498.081C135.873 497.843 135.575 497.753 135.327 497.873Z" fill="#0D99FF"/>
<path d="M115.413 473.519L123.448 469.317C123.656 469.208 123.925 469.238 124.103 469.397L125.891 470.966C126.04 471.095 126.239 471.125 126.418 471.045C127.878 470.41 129.606 471.016 130.341 472.416L135.972 483.183C136.062 483.352 136.231 483.451 136.41 483.451C136.489 483.451 136.568 483.431 136.638 483.391C136.886 483.262 136.976 482.964 136.847 482.726L131.215 471.959C130.291 470.191 128.186 469.377 126.318 470.022L124.749 468.652C124.262 468.225 123.547 468.145 122.981 468.443L114.946 472.645C114.37 472.952 114.042 473.568 114.111 474.214L114.33 476.22L111.599 477.65C111.35 477.78 111.261 478.078 111.39 478.316C111.519 478.564 111.817 478.654 112.055 478.525L115.095 476.935C115.273 476.836 115.383 476.647 115.363 476.439L115.105 474.105C115.075 473.856 115.204 473.628 115.413 473.519Z" fill="#0D99FF"/>
<path d="M137.939 484.812C137.81 484.563 137.512 484.474 137.273 484.603C137.025 484.732 136.936 485.03 137.065 485.268L139.19 489.341L129.089 475.773C127.768 473.995 125.116 473.379 123.169 474.403L106.205 483.272C105.957 483.401 105.867 483.699 105.996 483.938C106.125 484.186 106.423 484.275 106.662 484.146L123.626 475.277C125.156 474.472 127.252 474.969 128.285 476.369L139.985 492.092C140.472 492.748 140.65 493.502 140.491 494.218C140.372 494.744 140.074 495.211 139.637 495.558C139.488 495.678 139.329 495.787 139.151 495.876C138.902 496.005 138.813 496.303 138.942 496.542C139.031 496.711 139.2 496.81 139.379 496.81C139.458 496.81 139.538 496.79 139.607 496.75C140.561 496.254 141.276 495.409 141.594 494.376C141.912 493.343 141.822 492.251 141.316 491.288L137.939 484.812Z" fill="#0D99FF"/>
<path d="M114.409 511.113C114.389 511.083 114.37 511.053 114.35 511.023C114.23 510.785 114.23 510.517 114.409 509.861C114.538 509.404 114.588 509.037 114.598 508.719C114.608 508.312 114.528 507.974 114.36 507.646C113.982 506.931 113.416 506.712 112.731 507.07C112.045 507.428 111.896 508.024 112.274 508.739L112.443 509.057L112.502 509.166L112.661 509.086L113.168 508.818L112.919 508.341C112.751 508.024 112.83 507.825 113.049 507.716C113.267 507.596 113.466 507.636 113.674 508.033C113.833 508.331 113.883 508.619 113.863 508.987C113.843 509.215 113.803 509.464 113.714 509.792C113.684 509.881 113.674 509.96 113.654 510.04C113.495 510.705 113.525 511.132 113.754 511.579L114.042 512.126L116.068 511.063L115.73 510.427L114.409 511.113Z" fill="#0D99FF"/>
<path d="M-3.33852 381.525C-3.67622 383.025 -3.31865 384.584 -2.32542 385.915L10.239 402.8C10.3383 402.929 10.4873 402.999 10.6363 402.999C10.7356 402.999 10.8449 402.969 10.9343 402.9C11.1528 402.731 11.2024 402.423 11.0336 402.204L-1.53083 385.319C-2.34528 384.217 -2.64325 382.955 -2.37508 381.744C-2.1069 380.552 -1.30238 379.559 -0.120435 378.943L6.2462 375.615C6.49451 375.486 6.5839 375.188 6.45478 374.95C6.32566 374.702 6.02769 374.612 5.78931 374.741L1.23036 377.125C1.1509 375.178 2.18387 373.331 3.9419 372.417L16.2878 365.961C16.5361 365.832 16.6255 365.534 16.4964 365.296C16.3673 365.047 16.0693 364.958 15.8309 365.087L3.48501 371.543C1.2403 372.715 -0.0111792 375.139 0.276859 377.632L-0.577324 378.079C-2.01751 378.824 -3.00082 380.055 -3.33852 381.525Z" fill="#0D99FF"/>
<path d="M47.2469 400.536C47.1177 400.287 46.8198 400.198 46.5814 400.327L31.0571 408.442C29.9546 406.475 28.1767 405.025 26.0214 404.35C23.7767 403.644 21.393 403.863 19.3072 404.945C17.7577 405.75 16.5162 406.972 15.6918 408.462L13.9536 406.117C13.7848 405.899 13.4769 405.849 13.2584 406.018C13.0398 406.187 12.9902 406.495 13.159 406.713L15.225 409.485C15.1455 409.693 15.066 409.902 14.9965 410.11C14.2913 412.355 14.5098 414.739 15.5925 416.825C16.685 418.91 18.5225 420.44 20.7573 421.145C21.6214 421.413 22.5153 421.552 23.3993 421.552C24.7997 421.552 26.1903 421.215 27.4715 420.549C29.5573 419.457 31.0869 417.619 31.7921 415.384C32.4179 413.378 32.3086 411.253 31.5041 409.336L47.0383 401.201C47.2866 401.082 47.376 400.774 47.2469 400.536ZM30.8386 415.086C30.2129 417.073 28.8521 418.702 27.0047 419.675C25.1573 420.639 23.0417 420.827 21.0553 420.212C19.0688 419.586 17.4399 418.225 16.4665 416.378C15.5031 414.54 15.3144 412.434 15.9302 410.458C15.9302 410.448 15.9302 410.438 15.9401 410.428C16.0593 410.061 16.1983 409.713 16.3672 409.375C17.0922 407.866 18.2643 406.634 19.774 405.839C20.9063 405.243 22.1379 404.945 23.3794 404.945C24.1641 404.945 24.9487 405.065 25.7235 405.303C27.6305 405.899 29.1998 407.18 30.1731 408.908C30.2129 408.988 30.2625 409.057 30.3122 409.137C30.4215 409.355 30.5307 409.574 30.6201 409.802C31.3054 411.471 31.3849 413.328 30.8386 415.086Z" fill="#0D99FF"/>
<path d="M57.159 394.795L49.8587 398.609C49.6104 398.738 49.5211 399.036 49.6502 399.274C49.7396 399.443 49.9084 399.542 50.0872 399.542C50.1667 399.542 50.2461 399.523 50.3156 399.483L57.6159 395.669C57.8642 395.54 57.9536 395.242 57.8245 395.003C57.7053 394.755 57.4073 394.666 57.159 394.795Z" fill="#0D99FF"/>
<path d="M63.9927 391.11C63.7444 391.308 63.4762 391.487 63.1783 391.646C62.9299 391.775 62.8406 392.073 62.9697 392.312C63.0591 392.481 63.2279 392.58 63.4067 392.58C63.4862 392.58 63.5656 392.56 63.6351 392.52C63.8139 392.421 63.9927 392.322 64.1616 392.212C64.2708 392.133 64.3801 392.053 64.4893 391.974C64.539 391.934 64.5886 391.904 64.6284 391.865C64.8568 391.676 65.0654 391.477 65.2541 391.259C66.9625 389.421 67.4293 386.65 66.2076 384.306L60.874 374.116C60.7448 373.867 60.4469 373.778 60.2085 373.907C59.9602 374.036 59.8708 374.334 59.9999 374.572L65.0157 384.157L46.9885 359.942C44.9921 357.26 40.9795 356.327 38.0395 357.866L11.3612 371.811C11.1129 371.94 11.0235 372.238 11.1526 372.477C11.2817 372.725 11.5797 372.814 11.8181 372.685L38.4964 358.74C41.0192 357.419 44.4657 358.224 46.184 360.538L64.5787 385.26C65.3932 386.362 65.6911 387.624 65.423 388.835C65.2243 389.739 64.7277 390.514 63.9927 391.11Z" fill="#0D99FF"/>
<path d="M19.6446 363.647C19.7737 363.895 20.0717 363.984 20.3101 363.855L25.0776 361.362C25.2564 361.263 25.3657 361.074 25.3458 360.866L24.9386 357.191C24.879 356.694 25.1372 356.217 25.5742 355.989L38.1983 349.384C38.6353 349.156 39.1816 349.215 39.5491 349.543L42.3698 352.006C42.5089 352.135 42.7175 352.165 42.8963 352.086C45.3297 351.023 48.2001 352.036 49.4218 354.37L58.2715 371.305C58.3609 371.473 58.5298 371.573 58.7086 371.573C58.788 371.573 58.8675 371.553 58.937 371.513C59.1853 371.384 59.2747 371.086 59.1456 370.848L50.2959 353.913C48.8855 351.212 45.6376 349.99 42.787 351.053L40.1947 348.788C39.5193 348.192 38.526 348.083 37.7314 348.5L25.1074 355.105C24.3029 355.532 23.8361 356.386 23.9453 357.3L24.3128 360.637L19.8433 362.971C19.6148 363.101 19.5254 363.398 19.6446 363.647Z" fill="#0D99FF"/>
<path d="M24.1341 415.355C24.0944 415.305 24.0745 415.255 24.0447 415.206C23.856 414.838 23.856 414.411 24.144 413.368C24.1738 413.259 24.1937 413.16 24.2235 413.05C24.3328 412.613 24.4023 412.226 24.4321 411.878C24.5016 411.094 24.3725 410.488 24.0547 409.882C23.4686 408.76 22.5747 408.412 21.4921 408.978C20.4095 409.544 20.181 410.478 20.767 411.6L21.1246 412.286L22.1675 411.739L21.7702 410.984C21.512 410.488 21.6312 410.18 21.9788 409.991C22.3264 409.812 22.6343 409.862 22.972 410.498C23.2601 411.044 23.3594 411.551 23.2501 412.286C23.2104 412.574 23.1409 412.881 23.0416 413.249C23.0316 413.289 23.0316 413.309 23.0217 413.348C22.684 414.57 22.7138 415.305 23.1111 416.06L23.558 416.924L26.7364 415.255L26.21 414.252L24.1341 415.355Z" fill="#0D99FF"/>
<path d="M59.3345 258.771C59.2054 258.523 58.9074 258.434 58.6691 258.563L50.8225 262.665C50.2166 261.701 49.3128 260.976 48.2103 260.629C46.9886 260.241 45.6875 260.361 44.5552 260.956C43.8103 261.344 43.2243 261.92 42.7872 262.585L42.082 261.642C41.9132 261.423 41.6053 261.374 41.3868 261.542C41.1683 261.701 41.1186 262.019 41.2875 262.238L42.2906 263.579C41.8437 264.8 41.8834 266.191 42.529 267.432C43.1249 268.565 44.1182 269.409 45.3399 269.786C45.8166 269.935 46.2934 270.005 46.78 270.005C47.5448 270.005 48.2997 269.816 48.995 269.459C50.1272 268.863 50.9715 267.869 51.3489 266.648C51.6668 265.625 51.6171 264.552 51.2595 263.569L59.1259 259.457C59.3643 259.308 59.4537 259.01 59.3345 258.771ZM50.3954 266.34C50.0875 267.313 49.432 268.098 48.5281 268.575C47.6243 269.041 46.6013 269.141 45.6279 268.833C44.6545 268.525 43.8699 267.869 43.3931 266.966C42.9859 266.181 42.8866 265.327 43.0455 264.522C43.115 264.145 43.2342 263.767 43.413 263.43C43.7606 262.774 44.297 262.208 45.0121 261.84C45.5683 261.552 46.1642 261.403 46.7701 261.403C47.1475 261.403 47.5349 261.463 47.9123 261.582C48.7566 261.85 49.4618 262.397 49.9385 263.132C50.0081 263.241 50.0875 263.33 50.1471 263.449C50.2464 263.638 50.316 263.827 50.3756 264.026C50.6139 264.761 50.6338 265.565 50.3954 266.34Z" fill="#0D99FF"/>
<path d="M60.5857 258.602C60.6652 258.602 60.7447 258.582 60.8142 258.543L64.5885 256.566C64.8368 256.437 64.9262 256.139 64.797 255.901C64.6679 255.652 64.37 255.563 64.1316 255.692L60.3573 257.669C60.109 257.798 60.0196 258.096 60.1487 258.334C60.2381 258.513 60.4069 258.602 60.5857 258.602Z" fill="#0D99FF"/>
<path d="M67.6277 253.825C67.5185 253.914 67.3894 254.004 67.2503 254.073C67.002 254.202 66.9126 254.5 67.0417 254.739C67.1311 254.908 67.3 255.007 67.4788 255.007C67.5582 255.007 67.6377 254.987 67.7072 254.947C68.5117 254.53 69.0977 253.825 69.3659 252.961C69.6341 252.097 69.5546 251.183 69.1375 250.378L66.3763 245.104C66.2471 244.856 65.9492 244.767 65.7108 244.896C65.4625 245.025 65.3731 245.323 65.5022 245.561L66.6941 247.846L59.1753 237.744C58.0728 236.264 55.8579 235.748 54.2389 236.602L40.433 243.823C40.1847 243.952 40.0953 244.25 40.2244 244.488C40.3535 244.737 40.6515 244.826 40.8899 244.697L54.6958 237.476C55.8976 236.85 57.5464 237.228 58.3708 238.33L67.8959 251.123C68.2733 251.64 68.4124 252.226 68.2932 252.782C68.2038 253.189 67.9654 253.547 67.6277 253.825Z" fill="#0D99FF"/>
<path d="M36.8179 244.538L43.2044 241.201C43.4527 241.072 43.5421 240.774 43.413 240.536C43.2839 240.297 42.9859 240.198 42.7475 240.327L36.361 243.664C35.1592 244.29 34.4739 245.561 34.5633 246.892L34.2653 247.051C33.4509 247.478 32.9046 248.164 32.7159 248.998C32.5272 249.842 32.7258 250.716 33.282 251.461L39.7877 260.202C39.887 260.331 40.036 260.4 40.185 260.4C40.2843 260.4 40.3936 260.37 40.483 260.301C40.7015 260.142 40.7511 259.824 40.5823 259.606L34.0766 250.865C33.6992 250.349 33.5601 249.763 33.6793 249.206C33.8084 248.66 34.1759 248.203 34.7222 247.915L38.0098 246.197C38.2581 246.068 38.3475 245.77 38.2184 245.532C38.0893 245.293 37.7913 245.194 37.5529 245.323L35.5665 246.366C35.6558 245.591 36.1127 244.906 36.8179 244.538Z" fill="#0D99FF"/>
<path d="M44.6245 239.9C44.7536 240.148 45.0516 240.238 45.29 240.108L47.7631 238.817C47.9419 238.718 48.0512 238.529 48.0313 238.321L47.8227 236.414C47.8028 236.255 47.8823 236.106 48.0313 236.026L54.5668 232.61C54.7158 232.53 54.8747 232.56 54.9939 232.659L56.4539 233.931C56.593 234.06 56.8016 234.089 56.9803 234.01C58.1325 233.513 59.4734 233.98 60.0494 235.083L64.6282 243.843C64.7176 244.012 64.8865 244.111 65.0653 244.111C65.1447 244.111 65.2242 244.091 65.2937 244.052C65.542 243.922 65.6314 243.624 65.5023 243.386L60.9235 234.616C60.1587 233.156 58.4305 232.47 56.881 232.977L55.6494 231.894C55.2223 231.517 54.6164 231.447 54.1099 231.716L47.5744 235.132C47.0679 235.4 46.7798 235.937 46.8394 236.503L47.0083 238.072L44.843 239.205C44.5848 239.354 44.4954 239.652 44.6245 239.9Z" fill="#0D99FF"/>
<path d="M47.1575 266.548C47.1376 266.528 47.1277 266.499 47.1078 266.469C47.0184 266.29 47.0184 266.072 47.1376 265.605C47.1475 265.575 47.1476 265.555 47.1575 265.515C47.2767 265.098 47.3263 264.761 47.3164 264.472C47.3065 264.184 47.2369 263.946 47.1078 263.708C46.7999 263.132 46.343 262.943 45.7769 263.241C45.2207 263.529 45.1015 264.016 45.3995 264.602L45.4789 264.761L45.5782 264.949L45.8663 264.8L46.1146 264.671L45.9159 264.284C45.7769 264.026 45.8464 263.867 46.0252 263.767C46.204 263.668 46.3629 263.698 46.5417 264.026C46.6509 264.244 46.7006 264.453 46.7006 264.701C46.7006 264.91 46.6609 265.138 46.5715 265.446C46.5417 265.545 46.5218 265.635 46.5019 265.724C46.3927 266.221 46.4225 266.558 46.6013 266.896L46.8297 267.343L48.4785 266.479L48.2103 265.962L47.1575 266.548Z" fill="#0D99FF"/>
<path d="M205.151 80.3663C205.271 80.3663 205.39 80.3265 205.479 80.2371L215.511 71.3775C216.127 70.8411 216.862 70.5928 217.587 70.7021C218.302 70.8014 218.928 71.2285 219.355 71.9039L221.798 75.7576C221.947 75.9861 222.255 76.0556 222.483 75.9066C222.712 75.7576 222.781 75.4497 222.632 75.2213L221.043 72.7183C222.106 72.6886 223.119 73.205 223.705 74.1287L228.453 81.6078C228.542 81.7568 228.711 81.8362 228.87 81.8362C228.959 81.8362 229.049 81.8164 229.138 81.7568C229.366 81.6078 229.436 81.2999 229.287 81.0715L224.539 73.5924C223.665 72.2118 222.036 71.5165 220.447 71.7847L220.179 71.3675C219.593 70.4438 218.719 69.8578 217.716 69.7188C216.693 69.5698 215.68 69.8976 214.845 70.6326L204.814 79.4922C204.605 79.671 204.585 79.9888 204.774 80.1974C204.873 80.3067 205.012 80.3663 205.151 80.3663Z" fill="#0D99FF"/>
<path d="M209.174 104.264C208.946 104.413 208.876 104.72 209.025 104.949L211.836 109.369C211.925 109.518 212.094 109.597 212.253 109.597C212.342 109.597 212.432 109.577 212.521 109.518C212.75 109.369 212.819 109.061 212.67 108.832L209.859 104.413C209.71 104.194 209.402 104.125 209.174 104.264Z" fill="#0D99FF"/>
<path d="M235.048 94.7583L224.788 78.5983C224.639 78.3699 224.331 78.3004 224.102 78.4493C223.874 78.5983 223.804 78.9062 223.953 79.1347L234.213 95.2946C235.137 96.7547 234.829 98.8802 233.518 100.032L218.828 113.014C218.212 113.56 217.477 113.799 216.752 113.689C216.216 113.61 215.729 113.352 215.342 112.954C215.213 112.815 215.094 112.666 214.984 112.497C214.865 112.309 214.637 112.229 214.428 112.289C214.378 112.299 214.339 112.309 214.299 112.339C214.12 112.448 214.041 112.646 214.071 112.835C214.081 112.895 214.1 112.964 214.14 113.024C214.716 113.938 215.62 114.573 216.673 114.802C216.971 114.871 217.269 114.901 217.567 114.901C218.322 114.901 219.067 114.683 219.732 114.265L225.91 110.342C226.138 110.193 226.208 109.885 226.059 109.657C225.91 109.428 225.602 109.359 225.374 109.508L221.49 111.971L234.164 100.767C235.822 99.3073 236.22 96.6156 235.048 94.7583Z" fill="#0D99FF"/>
<path d="M240.967 94.0731L236.11 86.4252C235.763 85.8789 235.107 85.6008 234.472 85.72L232.495 86.1073L230.836 83.5051C230.687 83.2766 230.379 83.2071 230.151 83.3561C229.923 83.5051 229.853 83.813 230.002 84.0414L231.84 86.9317C231.949 87.1006 232.157 87.19 232.356 87.1502L234.67 86.6933C234.909 86.6437 235.147 86.7529 235.276 86.9516L240.133 94.5995C240.262 94.7981 240.252 95.0663 240.113 95.265L238.703 97.1819C238.584 97.3408 238.574 97.5395 238.663 97.7083C239.418 99.1088 238.961 100.877 237.62 101.731L227.36 108.247C227.132 108.396 227.062 108.703 227.211 108.932C227.3 109.081 227.469 109.16 227.628 109.16C227.718 109.16 227.807 109.14 227.896 109.081L238.157 102.565C239.845 101.493 240.471 99.3273 239.676 97.5196L240.908 95.841C241.295 95.3345 241.325 94.6293 240.967 94.0731Z" fill="#0D99FF"/>
<path d="M199.341 94.2718C200.195 94.2718 201.059 94.0731 201.864 93.6758L207.754 102.963C207.843 103.112 208.012 103.191 208.171 103.191C208.26 103.191 208.349 103.171 208.439 103.112C208.667 102.963 208.737 102.655 208.588 102.426L202.708 93.1693C205.161 91.3914 205.847 87.9846 204.208 85.3922C203.632 84.4884 202.847 83.8031 201.953 83.3462L203.145 82.2933C203.353 82.1146 203.373 81.7967 203.185 81.5881C203.006 81.3796 202.688 81.3597 202.479 81.5484L200.9 82.9389C199.371 82.5019 197.672 82.6906 196.222 83.6044C193.53 85.3128 192.736 88.8884 194.444 91.5801C195.557 93.3182 197.434 94.2718 199.341 94.2718ZM196.768 84.4487C197.563 83.9421 198.447 83.7037 199.331 83.7037C199.559 83.7037 199.798 83.7236 200.026 83.7633C200.414 83.8229 200.791 83.9222 201.149 84.0712C202.042 84.4288 202.827 85.0645 203.383 85.9286C204.734 88.0541 204.178 90.8352 202.181 92.3151C202.092 92.3846 202.003 92.4641 201.903 92.5336C201.715 92.6528 201.516 92.7322 201.327 92.8216C199.192 93.8049 196.599 93.0997 195.298 91.0537C193.878 88.8288 194.543 85.869 196.768 84.4487Z" fill="#0D99FF"/>
<path d="M198.526 90.3683L197.722 89.1069C197.751 89.0771 197.781 89.0671 197.811 89.0473C198.039 88.9082 198.308 88.8884 198.983 89.0076C199.45 89.0969 199.817 89.1168 200.135 89.0969C200.542 89.0671 200.87 88.9678 201.188 88.7692C201.863 88.3421 202.042 87.7561 201.625 87.1005C201.208 86.445 200.602 86.3556 199.927 86.7827L199.619 86.9714L199.509 87.0409L199.599 87.1899L199.907 87.6766L200.364 87.3886C200.662 87.1999 200.87 87.2595 200.999 87.468C201.138 87.6766 201.118 87.8753 200.731 88.1236C200.453 88.3024 200.165 88.3818 199.797 88.3917C199.569 88.3917 199.321 88.3719 198.983 88.3123C198.894 88.2924 198.814 88.2924 198.735 88.2726C198.059 88.1732 197.632 88.2328 197.205 88.501L196.679 88.8288L197.9 90.7556L198.526 90.3683Z" fill="#0D99FF"/>
<path d="M15.2745 143.248C16.8041 145.086 18.8999 146.327 21.2737 146.774C21.9292 146.903 22.5848 146.963 23.2304 146.963C25.2864 146.963 27.2828 146.347 29.0209 145.175L79.0104 111.206C83.3608 108.247 84.7513 102.406 82.2583 97.7778L85.824 92.6031C86.6484 91.4112 86.6484 89.8617 85.834 88.6599L71.73 67.9013C70.9255 66.7194 69.4555 66.1433 68.0551 66.4611L62.036 67.8417L38.5957 33.3467C36.1325 29.7214 31.6629 28.0527 27.4218 29.1652L26.3293 27.566C24.7798 25.2816 22.5252 23.8712 19.9924 23.5931C17.41 23.3051 14.8673 24.2188 12.8213 26.1556L-26.7095 63.3523C-30.8711 67.2656 -31.6657 74.258 -28.4874 78.9362L14.6587 142.434C14.8574 142.712 15.066 142.99 15.2745 143.248ZM37.7812 33.9029L61.4103 68.6661C61.5295 68.8349 61.7381 68.9144 61.9367 68.8747L68.2934 67.4146C69.2867 67.1862 70.3494 67.6033 70.9255 68.4476L85.0294 89.2062C85.6154 90.0703 85.6055 91.1728 85.0195 92.027L81.275 97.46C81.1658 97.6189 81.1558 97.8275 81.2551 97.9864C83.6985 102.208 82.4768 107.651 78.4641 110.372L28.4746 144.341C27.5311 144.986 26.4981 145.423 25.4155 145.691C26.3988 145.254 27.3424 144.639 28.1866 143.834L67.7174 106.637C71.879 102.724 72.6736 95.7318 69.4952 91.0536L28.0277 30.0392C31.7424 29.2148 35.616 30.7245 37.7812 33.9029ZM-26.0242 64.0774L13.5066 26.8708C15.1256 25.3412 17.0822 24.5367 19.0786 24.5367C19.3468 24.5367 19.615 24.5466 19.8832 24.5764C22.1279 24.8247 24.1243 26.0762 25.5148 28.1123L68.6609 91.6098C71.581 95.9006 70.846 102.317 67.0221 105.912L27.4913 143.109C25.6539 144.837 23.3793 145.652 21.1048 145.403C19.1382 145.185 17.3703 144.202 16.0294 142.593C15.8407 142.364 15.652 142.116 15.4831 141.858L-27.663 78.3799C-30.5831 74.0892 -29.8481 67.6729 -26.0242 64.0774Z" fill="#0D99FF"/>
<path d="M192.637 322.875C189.736 320.093 185.148 319.964 182.069 322.527L177.738 320.729C176.685 320.292 175.464 320.55 174.679 321.365L161.519 335.091C160.724 335.926 160.525 337.127 161.012 338.17L162.949 342.342L141.137 365.077C138.823 367.491 138.277 371.076 139.747 374.066L138.783 375.069C137.313 376.599 136.608 378.525 136.807 380.492C137.006 382.479 138.098 384.256 139.886 385.498L173.676 408.938C175.215 410.001 177.073 410.518 178.93 410.518C181.433 410.518 183.936 409.584 185.664 407.786L225.93 365.822C226.119 365.623 226.297 365.415 226.456 365.206C226.486 365.166 226.516 365.117 226.546 365.077C226.665 364.918 226.784 364.759 226.883 364.59C228.88 361.462 228.463 357.24 225.682 354.579L192.637 322.875ZM226.019 364.074C225.999 364.094 225.989 364.124 225.97 364.143C225.87 364.302 225.761 364.451 225.642 364.6C225.513 364.769 225.364 364.928 225.215 365.087C225.205 365.097 225.195 365.107 225.185 365.117L184.929 407.081C182.247 409.882 177.44 410.339 174.222 408.104L140.432 384.664C138.893 383.591 137.949 382.071 137.78 380.383C137.611 378.714 138.217 377.075 139.489 375.744L179.744 333.78C181.284 332.181 183.519 331.337 185.753 331.337C187.412 331.337 189.081 331.804 190.451 332.747L224.241 356.188C225.781 357.26 226.724 358.78 226.893 360.468C227.022 361.74 226.714 362.971 226.019 364.074ZM224.807 355.393L191.018 331.953C187.412 329.45 182.039 329.966 179.029 333.105L140.482 373.291C139.399 370.748 139.906 367.789 141.843 365.762L163.882 342.789C164.021 342.64 164.061 342.421 163.972 342.233L161.886 337.753C161.578 337.088 161.707 336.313 162.214 335.777L175.374 322.05C175.881 321.524 176.665 321.355 177.331 321.643L181.949 323.56C182.128 323.629 182.327 323.6 182.476 323.47C185.167 321.037 189.319 321.087 191.931 323.59L224.976 355.284C225.264 355.562 225.523 355.86 225.751 356.178C225.473 355.9 225.155 355.631 224.807 355.393Z" fill="#0D99FF"/>
<path d="M188.564 551.13C186.836 549.471 184.115 549.362 182.257 550.842L179.864 549.849C179.158 549.561 178.374 549.72 177.857 550.266L170.219 558.232C169.703 558.768 169.574 559.582 169.882 560.248L170.944 562.542L158.39 575.633C157.019 577.063 156.682 579.159 157.486 580.947L157.019 581.434C156.125 582.367 155.698 583.539 155.817 584.741C155.937 585.953 156.602 587.035 157.695 587.79L177.301 601.398C178.225 602.043 179.347 602.351 180.47 602.351C181.979 602.351 183.489 601.785 184.532 600.702L207.893 576.348C207.962 576.269 208.022 576.179 208.081 576.1C208.221 575.931 208.36 575.772 208.479 575.593C208.608 575.395 208.707 575.186 208.797 574.978C209.611 573.17 209.253 570.975 207.744 569.525L188.564 551.13ZM159.095 576.309L171.888 562.979C172.027 562.83 172.067 562.612 171.977 562.423L170.766 559.821C170.627 559.513 170.686 559.155 170.915 558.907L178.553 550.941C178.791 550.693 179.139 550.623 179.456 550.753L182.138 551.865C182.317 551.935 182.516 551.905 182.665 551.776C184.154 550.435 186.429 550.465 187.869 551.835L205.648 568.889L187.601 556.364C185.426 554.855 182.188 555.172 180.38 557.06L158.231 580.152C157.784 578.831 158.102 577.351 159.095 576.309ZM207.863 574.6C207.793 574.759 207.714 574.918 207.625 575.067C207.495 575.276 207.346 575.474 207.168 575.653L183.807 600.007C182.317 601.557 179.655 601.815 177.867 600.573L158.261 586.966C157.417 586.38 156.9 585.556 156.811 584.632C156.721 583.728 157.049 582.834 157.744 582.109L181.105 557.755C181.959 556.861 183.201 556.404 184.442 556.404C185.366 556.404 186.29 556.662 187.055 557.189L206.661 570.796C207.505 571.382 208.022 572.207 208.111 573.13C208.151 573.637 208.062 574.133 207.863 574.6Z" fill="#0D99FF"/>
<path d="M28.2165 530.252L11.9473 548.528C11.7685 548.736 11.7784 549.044 11.987 549.233C12.0764 549.312 12.1956 549.362 12.3148 549.362C12.4538 549.362 12.583 549.302 12.6823 549.193L28.6237 531.285L34.5831 536.589C34.7917 536.768 35.0996 536.758 35.2883 536.549C35.477 536.341 35.4572 536.033 35.2486 535.844L28.9117 530.212C28.7131 530.024 28.4052 530.044 28.2165 530.252Z" fill="#0D99FF"/>
<path d="M-24.2264 590.67L9.74223 552.51C9.92101 552.302 9.91108 551.994 9.7025 551.805C9.49392 551.626 9.18602 551.636 8.9973 551.845L-25.2991 590.382C-25.3885 590.482 -25.4282 590.611 -25.4282 590.74C-25.4183 590.869 -25.3587 590.998 -25.2594 591.078L-19.8562 595.885C-19.7668 595.964 -19.6476 596.014 -19.5284 596.014C-19.3894 596.014 -19.2602 595.955 -19.1609 595.845C-18.9821 595.637 -18.9921 595.329 -19.2006 595.14L-24.2264 590.67Z" fill="#0D99FF"/>
<path d="M26.637 634.88L26.1106 635.476L-2.25621 610.228C-2.46479 610.049 -2.7727 610.059 -2.96141 610.267C-3.14019 610.476 -3.13026 610.784 -2.92168 610.972L25.8126 636.548C25.902 636.628 26.0212 636.677 26.1404 636.677C26.2794 636.677 26.4085 636.618 26.5079 636.509L27.372 635.545C27.5508 635.337 27.5408 635.029 27.3323 634.84C27.1336 634.661 26.8158 634.671 26.637 634.88Z" fill="#0D99FF"/>
<path d="M82.9039 563.118C82.8939 563.098 82.8741 563.078 82.8641 563.069C82.8542 563.049 82.8443 563.029 82.8244 563.019L44.9226 529.289C44.8232 529.199 44.6941 529.15 44.565 529.159C44.4359 529.169 44.3068 529.229 44.2273 529.328L-9.29812 589.459C-9.38752 589.558 -9.42725 589.687 -9.42725 589.816C-9.41731 589.945 -9.35772 590.075 -9.2584 590.154L32.9839 627.748L29.8751 631.234C29.6963 631.443 29.7062 631.751 29.9148 631.939C30.0042 632.019 30.1234 632.069 30.2426 632.069C30.3816 632.069 30.5107 632.009 30.6101 631.9L33.7189 628.413L41.8237 635.624C41.9131 635.704 42.0323 635.753 42.1514 635.753C42.2905 635.753 42.4196 635.694 42.5189 635.585L84.3043 588.644C84.3143 588.624 84.3242 588.605 84.3341 588.585C84.3441 588.565 84.354 588.545 84.3639 588.525C84.4037 588.446 84.4335 588.366 84.4235 588.277L82.9734 563.357C82.9933 563.267 82.9535 563.188 82.9039 563.118ZM42.1216 634.542L34.3943 627.659L33.6493 627.003L-8.2155 589.737L44.6445 530.351L81.8014 563.426L70.399 576.239C70.2203 576.447 70.2302 576.755 70.4388 576.944L83.2515 588.346L42.1216 634.542ZM71.4717 576.527L82.0795 564.608L82.6953 575.275L83.3806 587.135L71.4717 576.527Z" fill="#0D99FF"/>
<path d="M44.0785 582.407L49.4619 576.358C49.6406 576.149 49.6307 575.842 49.4221 575.653C49.2136 575.474 48.9057 575.484 48.7169 575.693L43.3336 581.741L37.2848 576.358C37.0762 576.179 36.7683 576.189 36.5796 576.398C36.4008 576.606 36.4108 576.914 36.6193 577.103L42.6681 582.486L37.2848 588.535C37.106 588.744 37.116 589.052 37.3245 589.24C37.4139 589.32 37.5331 589.369 37.6523 589.369C37.7914 589.369 37.9205 589.31 38.0198 589.201L43.4031 583.152L49.4519 588.535C49.5413 588.615 49.6605 588.664 49.7797 588.664C49.9188 588.664 50.0479 588.605 50.1472 588.495C50.326 588.287 50.316 587.979 50.1075 587.79L44.0785 582.407Z" fill="#0D99FF"/>
<path d="M84.6124 181.2L91.9425 178.289C92.2008 178.19 92.3199 177.902 92.2206 177.644C92.1213 177.386 91.8333 177.266 91.575 177.366L83.7881 180.465C83.5298 180.564 83.4106 180.852 83.51 181.11L92.4491 203.607C92.5285 203.806 92.7172 203.925 92.906 203.925C92.9655 203.925 93.0251 203.915 93.0847 203.885C93.343 203.786 93.4622 203.498 93.3628 203.239L84.6124 181.2Z" fill="#0D99FF"/>
<path d="M113.366 255.404C113.426 255.404 113.485 255.394 113.545 255.365L120.19 252.723C120.448 252.623 120.567 252.335 120.468 252.077C120.369 251.819 120.081 251.699 119.822 251.799L113.634 254.252L94.9815 207.292C94.8822 207.034 94.5942 206.915 94.3359 207.014C94.0777 207.113 93.9585 207.401 94.0578 207.659L112.89 255.076C112.979 255.285 113.168 255.404 113.366 255.404Z" fill="#0D99FF"/>
<path d="M131.97 246.982L123.607 250.309C123.349 250.408 123.229 250.696 123.329 250.955C123.408 251.153 123.597 251.272 123.786 251.272C123.845 251.272 123.905 251.262 123.964 251.233L132.328 247.905C132.586 247.806 132.705 247.518 132.606 247.26C132.516 247.011 132.228 246.882 131.97 246.982Z" fill="#0D99FF"/>
<path d="M140.403 244.171C140.482 244.369 140.671 244.488 140.859 244.488C140.919 244.488 140.979 244.478 141.038 244.449L176.397 230.404C176.656 230.305 176.775 230.017 176.675 229.759L176.199 228.567C176.099 228.309 175.811 228.189 175.553 228.289C175.295 228.388 175.176 228.676 175.275 228.934L175.563 229.659L140.661 243.525C140.422 243.624 140.293 243.912 140.403 244.171Z" fill="#0D99FF"/>
<path d="M119.187 240.526C119.266 240.724 119.455 240.843 119.643 240.843C119.703 240.843 119.763 240.833 119.822 240.804L171.798 220.154L173.497 224.445C173.576 224.644 173.765 224.763 173.954 224.763C174.013 224.763 174.073 224.753 174.132 224.723C174.391 224.624 174.51 224.336 174.41 224.078L172.712 219.787L182.674 215.834C182.932 215.734 183.052 215.446 182.952 215.188L160.009 157.422C159.999 157.402 159.979 157.382 159.969 157.362C159.959 157.342 159.949 157.322 159.939 157.312C159.889 157.243 159.83 157.183 159.74 157.143L137.075 147.37C136.995 147.33 136.906 147.33 136.816 147.34C136.797 147.34 136.777 147.35 136.757 147.35C136.737 147.36 136.717 147.35 136.687 147.36L90.0451 165.884C89.9259 165.934 89.8265 166.033 89.7769 166.152C89.7272 166.271 89.7272 166.41 89.7669 166.53L119.187 240.526ZM148.03 153.171L158.26 157.58L143.61 163.401L137.79 148.751L148.03 153.171ZM136.618 148.473L142.875 164.235C142.925 164.354 143.014 164.454 143.143 164.503C143.203 164.533 143.273 164.543 143.342 164.543C143.402 164.543 143.471 164.533 143.521 164.503L159.283 158.246L181.86 215.089L172.354 218.863L171.431 219.231L119.922 239.691L90.8992 166.619L136.618 148.473Z" fill="#0D99FF"/>
<path d="M128.474 194.499C128.533 194.499 128.593 194.489 128.652 194.459L136.092 191.5L139.051 198.939C139.131 199.138 139.32 199.257 139.508 199.257C139.568 199.257 139.628 199.247 139.687 199.217C139.945 199.118 140.065 198.83 139.965 198.571L137.005 191.132L144.445 188.172C144.703 188.073 144.822 187.785 144.723 187.527C144.624 187.268 144.335 187.149 144.077 187.249L136.638 190.208L133.678 182.769C133.579 182.511 133.291 182.392 133.032 182.491C132.774 182.59 132.655 182.878 132.754 183.137L135.714 190.576L128.275 193.536C128.017 193.635 127.897 193.923 127.997 194.181C128.096 194.38 128.275 194.499 128.474 194.499Z" fill="#0D99FF"/>
<path d="M126.09 25.1228C126.169 25.3214 126.358 25.4406 126.547 25.4406C126.606 25.4406 126.666 25.4307 126.725 25.4009C126.984 25.3016 127.103 25.0135 127.004 24.7553L123.259 15.3295L126.219 14.1475C126.477 14.0482 126.596 13.7602 126.497 13.5019C126.398 13.2437 126.11 13.1245 125.851 13.2238L122.425 14.5846C122.167 14.6839 122.047 14.9719 122.147 15.2302L126.09 25.1228Z" fill="#0D99FF"/>
<path d="M138.287 45.9607L135.824 46.9341L127.719 26.5429C127.619 26.2847 127.331 26.1655 127.073 26.2648C126.815 26.3642 126.696 26.6522 126.795 26.9104L135.079 47.7684C135.128 47.8876 135.228 47.9869 135.347 48.0365C135.406 48.0663 135.476 48.0763 135.546 48.0763C135.605 48.0763 135.675 48.0663 135.724 48.0365L138.644 46.8745C138.903 46.7751 139.022 46.4871 138.922 46.2289C138.833 45.9806 138.535 45.8614 138.287 45.9607Z" fill="#0D99FF"/>
<path d="M143.62 43.8351L139.945 45.2952C139.687 45.3945 139.568 45.6825 139.667 45.9408C139.747 46.1394 139.935 46.2586 140.124 46.2586C140.184 46.2586 140.243 46.2487 140.303 46.2189L143.978 44.7588C144.236 44.6595 144.355 44.3715 144.256 44.1132C144.167 43.8649 143.879 43.7358 143.62 43.8351Z" fill="#0D99FF"/>
<path d="M147.176 42.9612C147.255 43.1599 147.444 43.279 147.633 43.279C147.692 43.279 147.752 43.2691 147.812 43.2393L163.366 37.0614C163.485 37.0117 163.584 36.9124 163.634 36.7932C163.684 36.674 163.684 36.535 163.644 36.4158L163.435 35.8894C163.336 35.6311 163.048 35.5119 162.79 35.6113C162.531 35.7106 162.412 35.9986 162.512 36.2569L162.531 36.3165L147.454 42.3156C147.196 42.4249 147.077 42.7129 147.176 42.9612Z" fill="#0D99FF"/>
<path d="M137.85 41.362C137.899 41.4812 137.999 41.5805 138.118 41.6302C138.177 41.66 138.247 41.6699 138.316 41.6699C138.376 41.6699 138.446 41.66 138.495 41.6302L161.091 32.6514L161.737 34.2803C161.816 34.4789 162.005 34.5981 162.194 34.5981C162.253 34.5981 162.313 34.5882 162.373 34.5584C162.631 34.459 162.75 34.171 162.651 33.9128L162.005 32.2839L166.127 30.645C166.246 30.5954 166.345 30.496 166.395 30.3768C166.445 30.2577 166.445 30.1186 166.405 29.9994L156.324 4.61233C156.314 4.59247 156.294 4.57261 156.284 4.55274C156.274 4.53288 156.264 4.51301 156.254 4.50308C156.205 4.43355 156.145 4.37396 156.056 4.33423L146.084 0.0335217C146.004 0.00372463 145.915 -0.00620772 145.835 0.00372463C145.815 0.00372463 145.795 0.013657 145.776 0.013657C145.756 0.0235893 145.736 0.013657 145.706 0.0235893L125.196 8.16812C124.938 8.26744 124.818 8.55548 124.918 8.81372L137.85 41.362ZM146.799 1.42405L150.682 3.10262L154.566 4.78118L149.004 6.98617L146.799 1.42405ZM145.617 1.13601L148.269 7.81055C148.318 7.92974 148.408 8.02906 148.537 8.07872C148.596 8.10852 148.666 8.11845 148.735 8.11845C148.795 8.11845 148.865 8.10852 148.914 8.07872L155.589 5.42679L165.313 29.91L161.647 31.3602L160.724 31.7276L138.585 40.5178L126.03 8.92297L145.617 1.13601Z" fill="#0D99FF"/>
<path d="M142.19 21.2986C142.25 21.2986 142.309 21.2886 142.369 21.2588L145.388 20.057L146.59 23.0765C146.67 23.2751 146.858 23.3943 147.047 23.3943C147.107 23.3943 147.166 23.3844 147.226 23.3546C147.484 23.2552 147.603 22.9672 147.504 22.709L146.302 19.6895L149.322 18.4877C149.58 18.3884 149.699 18.1004 149.6 17.8421C149.5 17.5839 149.212 17.4647 148.954 17.564L145.935 18.7658L144.733 15.7563C144.634 15.4981 144.345 15.3789 144.087 15.4782C143.829 15.5775 143.71 15.8656 143.809 16.1238L145.011 19.1333L142.001 20.3351C141.743 20.4345 141.624 20.7225 141.723 20.9807C141.803 21.1794 141.992 21.2986 142.19 21.2986Z" fill="#0D99FF"/>
<path d="M1181.58 144.782C1182.07 145.438 1182.25 146.192 1182.09 146.908C1181.93 147.613 1181.45 148.199 1180.75 148.566L1176.7 150.682C1176.46 150.811 1176.37 151.109 1176.5 151.347C1176.62 151.596 1176.92 151.685 1177.16 151.556L1179.79 150.185C1179.73 151.248 1179.14 152.211 1178.16 152.718L1170.31 156.82C1170.06 156.949 1169.97 157.247 1170.1 157.485C1170.23 157.734 1170.53 157.823 1170.76 157.694L1178.62 153.592C1180.07 152.827 1180.91 151.278 1180.77 149.659L1181.2 149.43C1182.17 148.924 1182.82 148.099 1183.05 147.116C1183.28 146.113 1183.04 145.07 1182.38 144.176L1174.38 133.439C1174.28 133.31 1174.13 133.241 1173.98 133.241C1173.88 133.241 1173.77 133.27 1173.68 133.34C1173.47 133.509 1173.42 133.817 1173.59 134.035L1181.58 144.782Z" fill="#0D99FF"/>
<path d="M1150.54 135.078C1150.41 134.84 1150.51 134.532 1150.75 134.413L1160.49 129.317C1159.44 126.616 1160.57 123.477 1163.21 122.107C1164.04 121.67 1164.95 121.441 1165.88 121.441C1166.45 121.441 1167.04 121.531 1167.62 121.709C1169.09 122.166 1170.3 123.179 1171.01 124.55C1171.81 126.07 1171.85 127.778 1171.29 129.268L1172.54 130.956C1172.71 131.175 1172.66 131.493 1172.44 131.652C1172.22 131.811 1171.92 131.771 1171.75 131.552L1170.79 130.271C1170.27 131.125 1169.51 131.85 1168.57 132.347C1165.85 133.767 1162.51 132.804 1160.95 130.201L1151.23 135.287C1150.97 135.416 1150.67 135.327 1150.54 135.078ZM1161.4 128.851C1161.47 129.049 1161.54 129.258 1161.64 129.447C1161.7 129.556 1161.76 129.645 1161.82 129.745C1162.72 131.185 1164.28 132.019 1165.89 132.019C1166.63 132.019 1167.39 131.84 1168.09 131.473C1169.01 130.996 1169.69 130.261 1170.13 129.397C1170.31 129.039 1170.43 128.672 1170.52 128.285C1170.76 127.212 1170.66 126.06 1170.11 125.017C1169.51 123.884 1168.52 123.05 1167.3 122.663C1166.08 122.275 1164.78 122.395 1163.65 122.991C1161.53 124.113 1160.6 126.636 1161.4 128.851Z" fill="#0D99FF"/>
<path d="M1144.48 138.813L1149.12 136.389C1149.37 136.26 1149.46 135.962 1149.33 135.724C1149.24 135.555 1149.07 135.456 1148.89 135.456C1148.81 135.456 1148.73 135.475 1148.66 135.515L1144.03 137.939C1143.78 138.068 1143.69 138.366 1143.82 138.604C1143.95 138.842 1144.23 138.932 1144.48 138.813Z" fill="#0D99FF"/>
<path d="M1164.4 163.167L1156.36 167.368C1156.15 167.478 1155.89 167.448 1155.71 167.289L1153.92 165.72C1153.77 165.59 1153.57 165.561 1153.39 165.64C1151.93 166.276 1150.2 165.67 1149.47 164.269L1143.84 153.503C1143.75 153.334 1143.58 153.235 1143.4 153.235C1143.32 153.235 1143.24 153.254 1143.17 153.294C1142.92 153.423 1142.83 153.721 1142.96 153.96L1148.59 164.726C1149.52 166.494 1151.62 167.309 1153.49 166.663L1155.06 168.034C1155.55 168.461 1156.26 168.54 1156.83 168.242L1164.86 164.041C1165.44 163.733 1165.77 163.117 1165.7 162.472L1165.48 160.465L1168.21 159.035C1168.46 158.906 1168.55 158.608 1168.42 158.37C1168.29 158.121 1167.99 158.032 1167.75 158.161L1164.72 159.75C1164.54 159.85 1164.43 160.038 1164.45 160.247L1164.71 162.581C1164.73 162.829 1164.62 163.058 1164.4 163.167Z" fill="#0D99FF"/>
<path d="M1141.88 151.874C1142.01 152.122 1142.31 152.211 1142.55 152.082C1142.79 151.953 1142.88 151.655 1142.75 151.417L1140.63 147.345L1150.73 160.912C1152.05 162.69 1154.7 163.306 1156.65 162.283L1173.61 153.413C1173.86 153.284 1173.95 152.986 1173.82 152.748C1173.69 152.499 1173.4 152.41 1173.16 152.539L1156.19 161.409C1154.66 162.213 1152.57 161.717 1151.53 160.316L1139.83 144.593C1139.35 143.938 1139.17 143.183 1139.33 142.468C1139.45 141.941 1139.75 141.475 1140.18 141.127C1140.33 141.008 1140.49 140.898 1140.67 140.809C1140.92 140.68 1141.01 140.382 1140.88 140.144C1140.79 139.975 1140.62 139.875 1140.44 139.875C1140.36 139.875 1140.28 139.895 1140.21 139.935C1139.26 140.432 1138.54 141.276 1138.23 142.309C1137.91 143.342 1138 144.434 1138.5 145.398L1141.88 151.874Z" fill="#0D99FF"/>
<path d="M1165.4 125.573C1165.42 125.603 1165.44 125.632 1165.46 125.662C1165.58 125.901 1165.58 126.169 1165.4 126.824C1165.27 127.281 1165.22 127.649 1165.21 127.967C1165.2 128.374 1165.28 128.711 1165.45 129.039C1165.83 129.754 1166.39 129.973 1167.08 129.615C1167.76 129.258 1167.91 128.662 1167.54 127.947L1167.37 127.629L1167.31 127.52L1167.15 127.599L1166.64 127.867L1166.89 128.344C1167.06 128.662 1166.98 128.86 1166.76 128.97C1166.54 129.089 1166.34 129.049 1166.14 128.652C1165.98 128.354 1165.93 128.066 1165.95 127.698C1165.97 127.47 1166.01 127.222 1166.1 126.894C1166.13 126.804 1166.14 126.725 1166.16 126.645C1166.31 125.98 1166.28 125.553 1166.06 125.106L1165.77 124.56L1163.74 125.622L1164.08 126.258L1165.4 125.573Z" fill="#0D99FF"/>
<path d="M1283.15 255.16C1283.49 253.661 1283.13 252.101 1282.14 250.77L1269.57 233.885C1269.47 233.756 1269.32 233.687 1269.17 233.687C1269.07 233.687 1268.97 233.716 1268.88 233.786C1268.66 233.955 1268.61 234.263 1268.78 234.481L1281.34 251.366C1282.16 252.469 1282.45 253.73 1282.19 254.942C1281.92 256.134 1281.11 257.127 1279.93 257.743L1273.56 261.07C1273.32 261.199 1273.23 261.497 1273.36 261.736C1273.48 261.984 1273.78 262.073 1274.02 261.944L1278.57 259.56C1278.65 261.507 1277.62 263.355 1275.86 264.268L1263.51 270.724C1263.26 270.853 1263.17 271.151 1263.3 271.39C1263.43 271.638 1263.73 271.727 1263.97 271.598L1276.32 265.142C1278.56 263.97 1279.81 261.547 1279.52 259.054L1280.38 258.607C1281.84 257.862 1282.82 256.63 1283.15 255.16Z" fill="#0D99FF"/>
<path d="M1232.78 235.484L1248.33 227.36C1247.51 225.443 1247.4 223.317 1248.04 221.311C1248.74 219.066 1250.27 217.229 1252.36 216.146C1253.64 215.481 1255.02 215.143 1256.43 215.143C1257.31 215.143 1258.21 215.282 1259.07 215.55C1261.32 216.255 1263.15 217.785 1264.24 219.871C1265.33 221.957 1265.54 224.34 1264.83 226.585C1264.76 226.803 1264.68 227.002 1264.61 227.211L1266.67 229.982C1266.84 230.2 1266.79 230.518 1266.57 230.677C1266.35 230.836 1266.05 230.796 1265.88 230.578L1264.14 228.234C1263.31 229.724 1262.07 230.945 1260.52 231.75C1258.44 232.842 1256.05 233.051 1253.81 232.346C1251.65 231.67 1249.88 230.22 1248.77 228.254L1233.25 236.368C1233 236.497 1232.7 236.398 1232.58 236.16C1232.44 235.911 1232.53 235.604 1232.78 235.484ZM1249.2 226.893C1249.29 227.111 1249.39 227.34 1249.51 227.558C1249.55 227.638 1249.6 227.707 1249.65 227.787C1250.63 229.515 1252.19 230.796 1254.1 231.392C1254.87 231.631 1255.66 231.75 1256.44 231.75C1257.68 231.75 1258.91 231.452 1260.05 230.856C1261.56 230.071 1262.73 228.83 1263.45 227.32C1263.61 226.982 1263.76 226.635 1263.88 226.267C1263.88 226.257 1263.88 226.247 1263.89 226.237C1264.51 224.251 1264.32 222.155 1263.35 220.318C1262.39 218.47 1260.76 217.11 1258.76 216.484C1256.78 215.858 1254.66 216.047 1252.82 217.02C1250.97 217.984 1249.61 219.612 1248.98 221.609C1248.43 223.357 1248.51 225.214 1249.2 226.893Z" fill="#0D99FF"/>
<path d="M1222.65 241.891L1229.95 238.077C1230.2 237.947 1230.29 237.65 1230.16 237.411C1230.07 237.242 1229.9 237.143 1229.72 237.143C1229.64 237.143 1229.56 237.163 1229.49 237.203L1222.19 241.017C1221.95 241.146 1221.86 241.444 1221.99 241.682C1222.11 241.93 1222.41 242.02 1222.65 241.891Z" fill="#0D99FF"/>
<path d="M1215.83 245.576C1216.08 245.377 1216.34 245.198 1216.64 245.039C1216.89 244.91 1216.98 244.612 1216.85 244.374C1216.76 244.205 1216.59 244.106 1216.41 244.106C1216.33 244.106 1216.25 244.126 1216.19 244.165C1216.01 244.265 1215.83 244.364 1215.66 244.473C1215.55 244.553 1215.44 244.632 1215.33 244.712C1215.28 244.751 1215.23 244.781 1215.19 244.821C1214.96 245.01 1214.75 245.208 1214.57 245.427C1212.86 247.264 1212.39 250.035 1213.61 252.379L1218.95 262.57C1219.08 262.818 1219.37 262.908 1219.61 262.779C1219.86 262.649 1219.95 262.351 1219.82 262.113L1214.8 252.528L1232.83 276.743C1234.83 279.425 1238.84 280.359 1241.78 278.819L1268.46 264.874C1268.71 264.745 1268.8 264.447 1268.67 264.209C1268.54 263.96 1268.24 263.871 1268 264L1241.32 277.945C1238.8 279.266 1235.35 278.462 1233.64 276.147L1215.24 251.426C1214.43 250.323 1214.13 249.062 1214.4 247.85C1214.59 246.946 1215.09 246.172 1215.83 245.576Z" fill="#0D99FF"/>
<path d="M1260.17 273.038C1260.04 272.79 1259.74 272.701 1259.5 272.83L1254.73 275.323C1254.55 275.422 1254.44 275.611 1254.46 275.82L1254.87 279.495C1254.93 279.991 1254.67 280.468 1254.24 280.696L1241.61 287.301C1241.17 287.53 1240.63 287.47 1240.26 287.142L1237.44 284.679C1237.3 284.55 1237.09 284.52 1236.91 284.6C1234.48 285.662 1231.61 284.649 1230.39 282.315L1221.54 265.381C1221.45 265.212 1221.28 265.112 1221.1 265.112C1221.02 265.112 1220.94 265.132 1220.87 265.172C1220.62 265.301 1220.54 265.599 1220.66 265.838L1229.51 282.772C1230.92 285.474 1234.17 286.695 1237.02 285.633L1239.62 287.897C1240.29 288.493 1241.28 288.602 1242.08 288.185L1254.7 281.58C1255.51 281.153 1255.97 280.299 1255.86 279.385L1255.5 276.048L1259.97 273.714C1260.2 273.585 1260.29 273.287 1260.17 273.038Z" fill="#0D99FF"/>
<path d="M1255.68 221.331C1255.72 221.38 1255.74 221.43 1255.77 221.48C1255.95 221.847 1255.95 222.274 1255.67 223.317C1255.64 223.426 1255.62 223.526 1255.59 223.635C1255.48 224.072 1255.41 224.459 1255.38 224.807C1255.31 225.592 1255.44 226.198 1255.76 226.803C1256.34 227.926 1257.24 228.273 1258.32 227.707C1259.4 227.141 1259.63 226.207 1259.04 225.085L1258.69 224.4L1257.64 224.946L1258.04 225.701C1258.3 226.198 1258.18 226.505 1257.83 226.694C1257.48 226.873 1257.18 226.823 1256.84 226.188C1256.55 225.641 1256.45 225.135 1256.56 224.4C1256.6 224.112 1256.67 223.804 1256.77 223.436C1256.78 223.397 1256.78 223.377 1256.79 223.337C1257.13 222.115 1257.1 221.38 1256.7 220.625L1256.25 219.761L1253.07 221.43L1253.6 222.433L1255.68 221.331Z" fill="#0D99FF"/>
<path d="M1220.69 377.249L1228.56 373.137C1228.19 372.144 1228.14 371.081 1228.47 370.058C1228.86 368.836 1229.69 367.833 1230.83 367.247C1231.52 366.879 1232.28 366.701 1233.04 366.701C1233.53 366.701 1234 366.77 1234.48 366.919C1235.7 367.307 1236.71 368.141 1237.29 369.273C1237.94 370.515 1237.98 371.905 1237.53 373.127L1238.53 374.468C1238.7 374.686 1238.65 375.004 1238.43 375.163C1238.21 375.332 1237.91 375.282 1237.74 375.064L1237.03 374.12C1236.6 374.786 1236.02 375.352 1235.26 375.749C1234.13 376.345 1232.83 376.454 1231.61 376.077C1230.51 375.729 1229.6 375.004 1229 374.041L1221.15 378.143C1220.91 378.272 1220.6 378.173 1220.49 377.934C1220.36 377.676 1220.46 377.378 1220.69 377.249ZM1229.44 372.67C1229.51 372.869 1229.58 373.057 1229.67 373.246C1229.73 373.355 1229.81 373.455 1229.88 373.564C1230.36 374.299 1231.06 374.845 1231.91 375.113C1232.29 375.233 1232.66 375.292 1233.05 375.292C1233.66 375.292 1234.25 375.143 1234.81 374.855C1235.51 374.488 1236.06 373.922 1236.41 373.266C1236.59 372.928 1236.71 372.551 1236.77 372.173C1236.92 371.369 1236.83 370.505 1236.43 369.73C1235.96 368.826 1235.17 368.171 1234.19 367.863C1233.23 367.555 1232.2 367.654 1231.29 368.121C1230.39 368.588 1229.73 369.382 1229.42 370.356C1229.18 371.121 1229.2 371.925 1229.44 372.67Z" fill="#0D99FF"/>
<path d="M1219.22 378.083C1219.14 378.083 1219.06 378.103 1219 378.143L1215.22 380.119C1214.97 380.248 1214.88 380.546 1215.01 380.785C1215.14 381.033 1215.44 381.122 1215.68 380.993L1219.45 379.017C1219.7 378.887 1219.79 378.59 1219.66 378.351C1219.58 378.172 1219.4 378.083 1219.22 378.083Z" fill="#0D99FF"/>
<path d="M1212.19 382.86C1212.3 382.771 1212.43 382.682 1212.57 382.612C1212.82 382.483 1212.91 382.185 1212.78 381.947C1212.69 381.778 1212.52 381.678 1212.34 381.678C1212.26 381.678 1212.18 381.698 1212.11 381.738C1211.31 382.155 1210.72 382.86 1210.45 383.725C1210.19 384.589 1210.26 385.502 1210.68 386.307L1213.44 391.581C1213.57 391.829 1213.87 391.919 1214.11 391.79C1214.36 391.66 1214.45 391.363 1214.32 391.124L1213.13 388.84L1220.64 398.941C1221.75 400.421 1223.96 400.937 1225.58 400.083L1239.39 392.862C1239.63 392.733 1239.72 392.435 1239.6 392.197C1239.47 391.949 1239.17 391.859 1238.93 391.988L1225.12 399.209C1223.92 399.835 1222.27 399.457 1221.45 398.355L1211.92 385.562C1211.55 385.046 1211.41 384.46 1211.53 383.903C1211.62 383.496 1211.84 383.139 1212.19 382.86Z" fill="#0D99FF"/>
<path d="M1242.99 392.147L1236.61 395.485C1236.36 395.614 1236.27 395.912 1236.4 396.15C1236.53 396.388 1236.82 396.488 1237.06 396.359L1243.45 393.021C1244.65 392.396 1245.34 391.124 1245.25 389.793L1245.54 389.634C1246.36 389.207 1246.91 388.522 1247.09 387.688C1247.28 386.843 1247.08 385.969 1246.53 385.224L1240.02 376.484C1239.92 376.355 1239.77 376.285 1239.63 376.285C1239.53 376.285 1239.42 376.315 1239.33 376.385C1239.11 376.544 1239.06 376.861 1239.23 377.08L1245.73 385.82C1246.11 386.337 1246.25 386.923 1246.13 387.479C1246 388.025 1245.63 388.482 1245.09 388.77L1241.8 390.489C1241.55 390.618 1241.46 390.916 1241.59 391.154C1241.72 391.392 1242.02 391.492 1242.26 391.363L1244.24 390.32C1244.16 391.094 1243.71 391.78 1242.99 392.147Z" fill="#0D99FF"/>
<path d="M1235.2 396.786C1235.07 396.537 1234.77 396.448 1234.53 396.577L1232.06 397.868C1231.88 397.968 1231.77 398.156 1231.79 398.365L1232 400.272C1232.02 400.431 1231.94 400.58 1231.79 400.659L1225.25 404.076C1225.1 404.155 1224.95 404.126 1224.83 404.026L1223.37 402.755C1223.23 402.626 1223.02 402.596 1222.84 402.676C1221.69 403.172 1220.35 402.705 1219.77 401.603L1215.19 392.843C1215.1 392.674 1214.93 392.574 1214.75 392.574C1214.68 392.574 1214.6 392.594 1214.53 392.634C1214.28 392.763 1214.19 393.061 1214.32 393.299L1218.9 402.07C1219.66 403.53 1221.39 404.215 1222.94 403.709L1224.17 404.791C1224.6 405.169 1225.2 405.238 1225.71 404.97L1232.25 401.553C1232.75 401.285 1233.04 400.749 1232.98 400.183L1232.81 398.613L1234.98 397.481C1235.23 397.332 1235.32 397.034 1235.2 396.786Z" fill="#0D99FF"/>
<path d="M1232.66 370.137C1232.68 370.157 1232.69 370.187 1232.71 370.217C1232.8 370.395 1232.8 370.614 1232.68 371.081C1232.67 371.111 1232.67 371.13 1232.66 371.17C1232.54 371.587 1232.49 371.925 1232.5 372.213C1232.51 372.501 1232.58 372.739 1232.71 372.978C1233.02 373.554 1233.48 373.743 1234.04 373.445C1234.6 373.157 1234.72 372.67 1234.42 372.084L1234.34 371.925L1234.24 371.736L1233.95 371.885L1233.71 372.014L1233.9 372.402C1234.04 372.66 1233.97 372.819 1233.8 372.918C1233.62 373.018 1233.46 372.988 1233.28 372.66C1233.17 372.441 1233.12 372.233 1233.12 371.985C1233.12 371.776 1233.16 371.548 1233.25 371.24C1233.28 371.14 1233.3 371.051 1233.32 370.962C1233.43 370.465 1233.4 370.127 1233.22 369.79L1232.99 369.343L1231.34 370.207L1231.61 370.723L1232.66 370.137Z" fill="#0D99FF"/>
<path d="M1074.67 556.319C1074.55 556.319 1074.43 556.359 1074.34 556.448L1064.31 565.308C1063.69 565.844 1062.96 566.092 1062.23 565.983C1061.52 565.884 1060.89 565.457 1060.47 564.781L1058.02 560.928C1057.87 560.699 1057.57 560.63 1057.34 560.779C1057.11 560.928 1057.04 561.236 1057.19 561.464L1058.78 563.967C1057.71 563.997 1056.7 563.48 1056.12 562.557L1051.37 555.077C1051.28 554.929 1051.11 554.849 1050.95 554.849C1050.86 554.849 1050.77 554.869 1050.68 554.929C1050.45 555.078 1050.38 555.385 1050.53 555.614L1055.28 563.093C1056.16 564.474 1057.78 565.169 1059.37 564.901L1059.64 565.318C1060.23 566.241 1061.1 566.827 1062.1 566.967C1063.13 567.116 1064.14 566.788 1064.97 566.053L1075.01 557.193C1075.22 557.014 1075.24 556.696 1075.05 556.488C1074.94 556.379 1074.8 556.319 1074.67 556.319Z" fill="#0D99FF"/>
<path d="M1070.64 532.422C1070.86 532.273 1070.93 531.965 1070.78 531.736L1067.97 527.317C1067.88 527.168 1067.72 527.088 1067.56 527.088C1067.47 527.088 1067.38 527.108 1067.29 527.168C1067.06 527.317 1066.99 527.624 1067.14 527.853L1069.95 532.273C1070.1 532.491 1070.41 532.561 1070.64 532.422Z" fill="#0D99FF"/>
<path d="M1044.77 541.927L1055.03 558.087C1055.18 558.315 1055.49 558.385 1055.72 558.236C1055.95 558.087 1056.02 557.779 1055.87 557.551L1045.61 541.391C1044.68 539.931 1044.99 537.805 1046.3 536.653L1060.99 523.671C1061.61 523.125 1062.34 522.887 1063.07 522.996C1063.6 523.075 1064.09 523.334 1064.48 523.731C1064.61 523.87 1064.73 524.019 1064.84 524.188C1064.95 524.377 1065.18 524.456 1065.39 524.396C1065.44 524.387 1065.48 524.377 1065.52 524.347C1065.7 524.238 1065.78 524.039 1065.75 523.85C1065.74 523.791 1065.72 523.721 1065.68 523.661C1065.1 522.748 1064.2 522.112 1063.15 521.884C1062.85 521.814 1062.55 521.784 1062.25 521.784C1061.5 521.784 1060.75 522.003 1060.09 522.42L1053.91 526.343C1053.68 526.492 1053.61 526.8 1053.76 527.029C1053.91 527.257 1054.22 527.326 1054.45 527.178L1058.33 524.714L1045.66 535.918C1043.99 537.378 1043.6 540.07 1044.77 541.927Z" fill="#0D99FF"/>
<path d="M1038.84 542.612L1043.7 550.26C1044.05 550.807 1044.7 551.085 1045.34 550.966L1047.32 550.578L1048.97 553.18C1049.12 553.409 1049.43 553.478 1049.66 553.329C1049.89 553.18 1049.96 552.873 1049.81 552.644L1047.97 549.754C1047.86 549.585 1047.65 549.496 1047.45 549.535L1045.14 549.992C1044.9 550.042 1044.66 549.933 1044.53 549.734L1039.68 542.086C1039.55 541.887 1039.56 541.619 1039.7 541.421L1041.11 539.504C1041.23 539.345 1041.24 539.146 1041.15 538.977C1040.39 537.577 1040.85 535.809 1042.19 534.955L1052.45 528.439C1052.68 528.29 1052.75 527.982 1052.6 527.754C1052.51 527.605 1052.34 527.525 1052.18 527.525C1052.09 527.525 1052 527.545 1051.91 527.605L1041.65 534.12C1039.97 535.193 1039.34 537.358 1040.13 539.166L1038.9 540.845C1038.52 541.351 1038.5 542.056 1038.84 542.612Z" fill="#0D99FF"/>
<path d="M1085.36 545.096C1087.06 547.787 1086.27 551.363 1083.58 553.071C1082.13 553.985 1080.43 554.174 1078.9 553.737L1077.32 555.127C1077.12 555.306 1076.8 555.286 1076.62 555.087C1076.44 554.879 1076.46 554.571 1076.66 554.382L1077.85 553.329C1076.95 552.873 1076.16 552.187 1075.59 551.283C1073.94 548.691 1074.64 545.284 1077.09 543.506L1071.21 534.249C1071.06 534.021 1071.13 533.713 1071.36 533.564C1071.44 533.514 1071.54 533.485 1071.63 533.485C1071.8 533.485 1071.96 533.564 1072.05 533.713L1077.94 543C1078.74 542.603 1079.61 542.404 1080.46 542.404C1082.39 542.414 1084.26 543.367 1085.36 545.096ZM1084.52 545.632C1083.22 543.586 1080.64 542.881 1078.49 543.864C1078.29 543.953 1078.1 544.033 1077.92 544.152C1077.82 544.212 1077.74 544.301 1077.64 544.37C1075.65 545.85 1075.09 548.631 1076.44 550.757C1076.99 551.631 1077.78 552.257 1078.67 552.614C1079.03 552.763 1079.41 552.863 1079.79 552.922C1080.02 552.952 1080.25 552.982 1080.49 552.982C1081.36 552.982 1082.26 552.743 1083.05 552.237C1085.28 550.817 1085.93 547.857 1084.52 545.632Z" fill="#0D99FF"/>
<path d="M1081.29 546.317L1082.1 547.578C1082.07 547.608 1082.04 547.618 1082.01 547.638C1081.78 547.777 1081.51 547.797 1080.84 547.678C1080.37 547.588 1080 547.568 1079.68 547.588C1079.28 547.618 1078.95 547.717 1078.63 547.916C1077.96 548.343 1077.78 548.929 1078.19 549.585C1078.61 550.24 1079.22 550.33 1079.89 549.903L1080.2 549.714L1080.31 549.644L1080.22 549.495L1079.91 549.009L1079.46 549.297C1079.16 549.485 1078.95 549.426 1078.82 549.217C1078.68 549.009 1078.7 548.81 1079.09 548.562C1079.37 548.383 1079.65 548.303 1080.02 548.294C1080.25 548.294 1080.5 548.313 1080.84 548.373C1080.93 548.393 1081.01 548.393 1081.08 548.413C1081.76 548.512 1082.19 548.452 1082.61 548.184L1083.14 547.857L1081.92 545.93L1081.29 546.317Z" fill="#0D99FF"/>
<path d="M1265.15 494.252L1308.3 557.749C1311.48 562.427 1310.68 569.42 1306.52 573.333L1266.99 610.54C1264.93 612.477 1262.39 613.38 1259.82 613.102C1257.28 612.824 1255.03 611.414 1253.48 609.129L1252.39 607.53C1248.15 608.643 1243.68 606.974 1241.21 603.349L1217.78 568.864L1211.76 570.244C1210.36 570.562 1208.89 569.986 1208.09 568.804L1193.99 548.045C1193.17 546.844 1193.17 545.294 1194 544.102L1197.56 538.928C1195.07 534.299 1196.46 528.459 1200.81 525.499L1250.8 491.53C1252.54 490.348 1254.53 489.743 1256.59 489.743C1257.24 489.743 1257.89 489.802 1258.55 489.931C1260.92 490.388 1263.02 491.62 1264.55 493.457C1264.75 493.696 1264.95 493.974 1265.15 494.252ZM1251.79 606.646L1210.33 545.632C1207.16 540.954 1207.95 533.961 1212.11 530.048L1251.64 492.851C1252.5 492.047 1253.43 491.431 1254.41 490.994C1253.34 491.252 1252.3 491.699 1251.36 492.345L1201.37 526.313C1197.35 529.035 1196.13 534.478 1198.57 538.699C1198.67 538.868 1198.66 539.076 1198.55 539.225L1194.81 544.658C1194.22 545.513 1194.21 546.625 1194.8 547.479L1208.9 568.238C1209.48 569.082 1210.53 569.499 1211.54 569.271L1217.89 567.811C1218.09 567.761 1218.3 567.851 1218.42 568.019L1242.05 602.783C1244.2 605.961 1248.07 607.471 1251.79 606.646ZM1307.48 558.306L1264.34 494.818C1264.17 494.56 1263.98 494.321 1263.79 494.083C1262.45 492.474 1260.67 491.491 1258.72 491.272C1256.44 491.024 1254.17 491.838 1252.33 493.566L1212.8 530.763C1208.98 534.359 1208.25 540.775 1211.16 545.066L1254.31 608.563C1255.69 610.599 1257.69 611.861 1259.94 612.099C1260.21 612.129 1260.47 612.139 1260.74 612.139C1262.75 612.139 1264.69 611.324 1266.31 609.805L1305.84 572.598C1309.67 569.013 1310.39 562.596 1307.48 558.306Z" fill="#0D99FF"/>
<path d="M1054.14 282.117C1051.36 279.455 1050.94 275.234 1052.94 272.105C1053.05 271.936 1053.16 271.777 1053.27 271.618C1053.3 271.579 1053.33 271.529 1053.36 271.489C1053.52 271.281 1053.7 271.072 1053.89 270.873L1094.16 228.909C1095.88 227.111 1098.39 226.178 1100.89 226.178C1102.75 226.178 1104.6 226.694 1106.14 227.757L1139.93 251.197C1141.72 252.439 1142.81 254.217 1143.01 256.203C1143.21 258.16 1142.51 260.087 1141.04 261.626L1140.07 262.629C1141.53 265.619 1141 269.205 1138.68 271.618L1116.87 294.353L1118.81 298.525C1119.29 299.568 1119.1 300.78 1118.3 301.604L1105.14 315.331C1104.36 316.145 1103.13 316.403 1102.08 315.966L1097.75 314.168C1094.67 316.731 1090.08 316.612 1087.18 313.821L1054.14 282.117ZM1052.92 276.197C1053.09 277.886 1054.03 279.415 1055.57 280.478L1089.36 303.918C1090.73 304.872 1092.39 305.329 1094.06 305.329C1096.29 305.329 1098.53 304.494 1100.07 302.885L1140.32 260.921C1141.58 259.6 1142.19 257.951 1142.03 256.283C1141.86 254.594 1140.92 253.065 1139.38 252.002L1105.59 228.562C1102.37 226.327 1097.57 226.784 1094.88 229.585L1054.63 271.549C1054.62 271.559 1054.61 271.569 1054.6 271.579C1054.45 271.737 1054.31 271.896 1054.17 272.065C1054.05 272.214 1053.95 272.363 1053.84 272.522C1053.82 272.542 1053.81 272.572 1053.79 272.592C1053.1 273.714 1052.79 274.946 1052.92 276.197ZM1054.05 280.508C1054.28 280.816 1054.54 281.124 1054.82 281.402L1087.87 313.096C1090.48 315.599 1094.63 315.648 1097.32 313.215C1097.46 313.086 1097.67 313.056 1097.85 313.126L1102.47 315.043C1103.14 315.321 1103.93 315.162 1104.43 314.635L1117.59 300.909C1118.09 300.372 1118.22 299.598 1117.91 298.932L1115.83 294.453C1115.74 294.264 1115.78 294.046 1115.92 293.897L1137.96 270.923C1139.89 268.897 1140.4 265.937 1139.32 263.394L1100.77 303.581C1097.76 306.719 1092.39 307.236 1088.78 304.733L1054.99 281.292C1054.66 281.054 1054.35 280.786 1054.05 280.508Z" fill="#0D99FF"/>
<path d="M1072.08 67.1607C1070.57 65.7106 1070.22 63.5156 1071.02 61.7079C1071.11 61.4993 1071.22 61.2907 1071.34 61.0921C1071.45 60.9133 1071.6 60.7544 1071.74 60.5855C1071.81 60.5061 1071.86 60.4167 1071.93 60.3372L1095.29 35.9831C1096.33 34.9005 1097.84 34.3343 1099.35 34.3343C1100.47 34.3343 1101.59 34.6423 1102.52 35.2879L1122.13 48.8952C1123.21 49.6501 1123.87 50.7327 1124 51.9444C1124.12 53.1463 1123.69 54.3182 1122.8 55.2519L1122.33 55.7385C1123.14 57.5264 1122.8 59.6321 1121.43 61.0524L1108.88 74.1432L1109.94 76.4376C1110.26 77.113 1110.12 77.9175 1109.6 78.4538L1101.96 86.4196C1101.45 86.9659 1100.66 87.1347 1099.96 86.8367L1097.56 85.8435C1095.7 87.3135 1092.98 87.2142 1091.26 85.5555L1072.08 67.1607ZM1121.59 56.5232L1099.44 79.6159C1097.63 81.5031 1094.38 81.8209 1092.22 80.3112L1074.17 67.7865L1091.95 84.8404C1093.38 86.211 1095.67 86.2408 1097.16 84.9C1097.29 84.7708 1097.5 84.741 1097.68 84.8105L1100.36 85.923C1100.68 86.0521 1101.04 85.9826 1101.27 85.7342L1108.91 77.7685C1109.13 77.5202 1109.19 77.1626 1109.05 76.8547L1107.84 74.2525C1107.75 74.0637 1107.79 73.8452 1107.93 73.6962L1120.72 60.3671C1121.71 59.3341 1122.03 57.8542 1121.59 56.5232ZM1071.72 63.5553C1071.81 64.479 1072.32 65.3034 1073.17 65.8894L1092.78 79.4968C1093.54 80.0232 1094.46 80.2814 1095.39 80.2814C1096.63 80.2814 1097.87 79.8146 1098.72 78.9306L1122.09 54.5765C1122.78 53.8514 1123.11 52.9575 1123.02 52.0537C1122.93 51.13 1122.41 50.3055 1121.57 49.7195L1101.96 36.1123C1100.17 34.8707 1097.51 35.1289 1096.02 36.6784L1072.66 61.0325C1072.48 61.2113 1072.33 61.41 1072.21 61.6185C1072.11 61.7675 1072.04 61.9264 1071.97 62.0853C1071.75 62.5521 1071.67 63.0487 1071.72 63.5553Z" fill="#0D99FF"/>
<path d="M1251.59 106.433L1267.86 88.1578C1268.04 87.9492 1268.03 87.6414 1267.82 87.4526C1267.73 87.3732 1267.61 87.3235 1267.5 87.3235C1267.36 87.3235 1267.23 87.3831 1267.13 87.4924L1251.19 105.4L1245.23 100.097C1245.02 99.9177 1244.71 99.9276 1244.52 100.136C1244.33 100.345 1244.35 100.653 1244.56 100.841L1250.9 106.473C1251.1 106.662 1251.42 106.642 1251.59 106.433Z" fill="#0D99FF"/>
<path d="M1304.05 46.0148L1270.08 84.1749C1269.9 84.3835 1269.91 84.6914 1270.12 84.8801C1270.33 85.0589 1270.63 85.049 1270.82 84.8404L1305.13 46.3028C1305.22 46.2035 1305.26 46.0744 1305.26 45.9453C1305.25 45.8162 1305.19 45.6871 1305.09 45.6076L1299.69 40.8003C1299.6 40.7209 1299.48 40.6712 1299.36 40.6712C1299.22 40.6712 1299.09 40.7308 1298.99 40.84C1298.81 41.0486 1298.82 41.3565 1299.03 41.5453L1304.05 46.0148Z" fill="#0D99FF"/>
<path d="M1253.17 1.80588L1253.7 1.20997L1282.07 26.458C1282.27 26.6368 1282.58 26.6269 1282.77 26.4183C1282.95 26.2097 1282.94 25.9018 1282.73 25.7131L1254 0.137257C1253.91 0.0577984 1253.79 0.00813103 1253.67 0.00813103C1253.53 0.00813103 1253.4 0.067709 1253.3 0.176964L1252.44 1.14043C1252.26 1.34901 1252.27 1.65694 1252.48 1.84565C1252.69 2.02444 1252.99 2.01446 1253.17 1.80588Z" fill="#0D99FF"/>
<path d="M1196.82 73.3288L1195.37 48.4085C1195.36 48.3191 1195.39 48.2396 1195.43 48.1602C1195.44 48.1403 1195.45 48.1204 1195.46 48.1006C1195.47 48.0807 1195.48 48.0609 1195.49 48.041L1237.27 1.10076C1237.37 0.991508 1237.51 0.93187 1237.64 0.93187C1237.76 0.93187 1237.88 0.971603 1237.97 1.061L1246.07 8.27189L1249.18 4.78562C1249.28 4.67637 1249.42 4.61679 1249.55 4.61679C1249.67 4.61679 1249.79 4.65652 1249.88 4.74592C1250.08 4.9247 1250.09 5.2425 1249.92 5.45107L1246.81 8.93734L1289.05 46.5313C1289.15 46.6207 1289.21 46.7399 1289.22 46.869C1289.23 46.9981 1289.18 47.1273 1289.09 47.2266L1235.56 107.357C1235.47 107.456 1235.35 107.516 1235.23 107.526C1235.1 107.536 1234.97 107.486 1234.87 107.397L1196.97 73.6665C1196.95 73.6566 1196.95 73.6367 1196.93 73.6168C1196.92 73.5969 1196.9 73.587 1196.89 73.5671C1196.86 73.4976 1196.83 73.4182 1196.82 73.3288ZM1196.57 48.339L1209.38 59.7413C1209.59 59.9201 1209.6 60.238 1209.42 60.4465L1198.02 73.2592L1235.18 106.334L1288.04 46.9485L1246.17 9.68227L1245.43 9.02676L1237.7 2.14365L1196.57 48.339ZM1196.43 49.5507L1197.11 61.41L1197.73 72.0773L1208.34 60.1585L1196.43 49.5507Z" fill="#0D99FF"/>
<path d="M1235.73 54.2785L1230.35 60.3272C1230.17 60.5358 1230.18 60.8437 1230.39 61.0324C1230.6 61.2112 1230.9 61.2013 1231.09 60.9927L1236.48 54.9439L1242.53 60.3272C1242.73 60.506 1243.04 60.4961 1243.23 60.2875C1243.41 60.0789 1243.4 59.771 1243.19 59.5823L1237.14 54.199L1242.53 48.1502C1242.7 47.9416 1242.69 47.6337 1242.49 47.445C1242.4 47.3655 1242.28 47.3159 1242.16 47.3159C1242.02 47.3159 1241.89 47.3754 1241.79 47.4847L1236.41 53.5335L1230.36 48.1502C1230.27 48.0708 1230.15 48.0211 1230.03 48.0211C1229.89 48.0211 1229.76 48.0807 1229.66 48.1899C1229.48 48.3985 1229.49 48.7064 1229.7 48.8951L1235.73 54.2785Z" fill="#0D99FF"/>
<path d="M1195.2 455.486L1187.87 458.396C1187.61 458.495 1187.49 458.783 1187.59 459.042C1187.69 459.3 1187.98 459.419 1188.24 459.32L1196.02 456.221C1196.28 456.121 1196.4 455.833 1196.3 455.575L1187.36 433.078C1187.28 432.88 1187.09 432.761 1186.9 432.761C1186.84 432.761 1186.79 432.77 1186.73 432.8C1186.47 432.9 1186.35 433.188 1186.45 433.446L1195.2 455.486Z" fill="#0D99FF"/>
<path d="M1166.45 381.281C1166.39 381.281 1166.33 381.291 1166.28 381.321L1159.63 383.963C1159.37 384.062 1159.25 384.35 1159.35 384.609C1159.45 384.867 1159.74 384.986 1160 384.887L1166.19 382.433L1184.84 429.394C1184.94 429.652 1185.23 429.771 1185.48 429.672C1185.74 429.572 1185.86 429.284 1185.76 429.026L1166.93 381.609C1166.83 381.4 1166.65 381.281 1166.45 381.281Z" fill="#0D99FF"/>
<path d="M1147.85 389.704L1156.21 386.377C1156.47 386.277 1156.59 385.989 1156.49 385.731C1156.41 385.532 1156.22 385.413 1156.03 385.413C1155.97 385.413 1155.92 385.423 1155.86 385.453L1147.49 388.78C1147.23 388.88 1147.12 389.168 1147.21 389.426C1147.3 389.674 1147.59 389.803 1147.85 389.704Z" fill="#0D99FF"/>
<path d="M1139.42 392.515C1139.34 392.316 1139.15 392.197 1138.96 392.197C1138.9 392.197 1138.84 392.207 1138.78 392.237L1103.42 406.281C1103.16 406.38 1103.05 406.668 1103.14 406.927L1103.62 408.118C1103.72 408.377 1104.01 408.496 1104.27 408.397C1104.53 408.297 1104.64 408.009 1104.55 407.751L1104.26 407.026L1139.16 393.16C1139.4 393.061 1139.52 392.773 1139.42 392.515Z" fill="#0D99FF"/>
<path d="M1190.02 470.146C1190.07 470.265 1190.07 470.404 1190.01 470.523C1189.96 470.643 1189.86 470.742 1189.75 470.792L1143.1 489.315C1143.08 489.325 1143.06 489.325 1143.03 489.325C1143.01 489.335 1142.99 489.335 1142.97 489.335C1142.88 489.345 1142.81 489.345 1142.72 489.306L1120.05 479.532C1119.97 479.492 1119.9 479.433 1119.85 479.363C1119.84 479.343 1119.83 479.333 1119.82 479.314C1119.81 479.294 1119.79 479.284 1119.78 479.254L1096.84 421.487C1096.74 421.229 1096.86 420.941 1097.12 420.842L1107.08 416.889L1105.38 412.598C1105.28 412.34 1105.4 412.052 1105.66 411.952C1105.72 411.933 1105.78 411.913 1105.84 411.913C1106.04 411.913 1106.22 412.032 1106.29 412.23L1107.99 416.521L1159.97 395.872C1160.03 395.852 1160.09 395.832 1160.15 395.832C1160.35 395.832 1160.53 395.951 1160.6 396.15L1190.02 470.146ZM1142.02 487.925L1136.2 473.275L1121.55 479.095L1131.78 483.505L1142.02 487.925ZM1188.91 470.057L1159.89 396.984L1108.38 417.445L1107.46 417.812L1097.95 421.587L1120.53 478.43L1136.29 472.172C1136.35 472.152 1136.41 472.132 1136.47 472.132C1136.54 472.132 1136.6 472.142 1136.67 472.172C1136.79 472.222 1136.89 472.321 1136.93 472.44L1143.19 488.203L1188.91 470.057Z" fill="#0D99FF"/>
<path d="M1151.34 442.186C1151.28 442.186 1151.22 442.196 1151.16 442.226L1143.72 445.186L1140.76 437.747C1140.68 437.548 1140.49 437.429 1140.3 437.429C1140.24 437.429 1140.18 437.439 1140.12 437.469C1139.86 437.568 1139.75 437.856 1139.84 438.114L1142.8 445.553L1135.37 448.513C1135.11 448.613 1134.99 448.901 1135.09 449.159C1135.19 449.417 1135.47 449.536 1135.73 449.437L1143.17 446.477L1146.13 453.917C1146.23 454.175 1146.52 454.294 1146.78 454.195C1147.04 454.095 1147.15 453.807 1147.06 453.549L1144.1 446.11L1151.54 443.15C1151.79 443.051 1151.91 442.762 1151.81 442.504C1151.72 442.306 1151.54 442.186 1151.34 442.186Z" fill="#0D99FF"/>
<path d="M1153.73 611.563C1153.65 611.364 1153.46 611.245 1153.27 611.245C1153.21 611.245 1153.15 611.255 1153.09 611.285C1152.84 611.384 1152.72 611.672 1152.82 611.93L1156.56 621.356L1153.6 622.538C1153.34 622.637 1153.22 622.925 1153.32 623.184C1153.42 623.442 1153.71 623.561 1153.97 623.462L1157.4 622.101C1157.65 622.002 1157.77 621.714 1157.67 621.455L1153.73 611.563Z" fill="#0D99FF"/>
<path d="M1141.53 590.725L1144 589.751L1152.1 610.142C1152.2 610.401 1152.49 610.52 1152.75 610.42C1153.01 610.321 1153.12 610.033 1153.03 609.775L1144.74 588.917C1144.69 588.798 1144.59 588.698 1144.47 588.649C1144.41 588.619 1144.34 588.609 1144.27 588.609C1144.21 588.609 1144.15 588.619 1144.1 588.649L1141.18 589.811C1140.92 589.91 1140.8 590.198 1140.9 590.456C1140.99 590.705 1141.27 590.824 1141.53 590.725Z" fill="#0D99FF"/>
<path d="M1136.19 592.85L1139.87 591.39C1140.12 591.291 1140.24 591.003 1140.14 590.745C1140.06 590.546 1139.87 590.427 1139.69 590.427C1139.63 590.427 1139.57 590.437 1139.51 590.466L1135.83 591.926C1135.57 592.026 1135.46 592.314 1135.55 592.572C1135.64 592.82 1135.93 592.95 1136.19 592.85Z" fill="#0D99FF"/>
<path d="M1132.64 593.724C1132.56 593.525 1132.38 593.406 1132.19 593.406C1132.13 593.406 1132.07 593.416 1132.01 593.446L1116.45 599.624C1116.33 599.674 1116.24 599.773 1116.19 599.892C1116.14 600.011 1116.14 600.15 1116.18 600.27L1116.38 600.796C1116.48 601.054 1116.77 601.173 1117.03 601.074C1117.29 600.975 1117.41 600.687 1117.31 600.428L1117.29 600.369L1132.38 594.37C1132.61 594.26 1132.74 593.972 1132.64 593.724Z" fill="#0D99FF"/>
<path d="M1154.89 627.862C1154.99 628.12 1154.87 628.408 1154.61 628.507L1134.1 636.652C1134.08 636.662 1134.06 636.662 1134.03 636.662C1134.01 636.662 1133.99 636.672 1133.97 636.672C1133.89 636.682 1133.81 636.682 1133.72 636.642L1123.74 632.341C1123.67 632.301 1123.6 632.242 1123.55 632.172C1123.54 632.153 1123.53 632.143 1123.52 632.123C1123.51 632.103 1123.49 632.093 1123.48 632.063L1113.39 606.656C1113.34 606.537 1113.34 606.398 1113.4 606.279C1113.44 606.16 1113.54 606.06 1113.66 606.011L1117.79 604.372L1117.14 602.743C1117.04 602.485 1117.16 602.197 1117.42 602.097C1117.48 602.077 1117.54 602.057 1117.6 602.057C1117.8 602.057 1117.98 602.177 1118.05 602.375L1118.7 604.004L1141.3 595.025C1141.35 595.006 1141.41 594.986 1141.47 594.986C1141.54 594.986 1141.6 594.996 1141.67 595.025C1141.79 595.075 1141.89 595.174 1141.94 595.294L1154.89 627.862ZM1133.02 635.261L1130.82 629.699L1125.25 631.904L1129.14 633.583L1133.02 635.261ZM1153.79 627.762L1141.24 596.148L1119.1 604.938L1118.17 605.305L1114.51 606.755L1124.23 631.239L1130.91 628.587C1130.97 628.567 1131.03 628.547 1131.08 628.547C1131.15 628.547 1131.21 628.557 1131.28 628.587C1131.4 628.636 1131.5 628.736 1131.55 628.855L1134.2 635.53L1153.79 627.762Z" fill="#0D99FF"/>
<path d="M1137.62 615.387C1137.56 615.387 1137.5 615.397 1137.44 615.426L1134.42 616.628L1133.22 613.609C1133.14 613.41 1132.95 613.291 1132.76 613.291C1132.7 613.291 1132.64 613.301 1132.58 613.331C1132.33 613.43 1132.21 613.718 1132.31 613.976L1133.51 616.996L1130.49 618.198C1130.23 618.297 1130.11 618.585 1130.21 618.843C1130.31 619.101 1130.6 619.221 1130.86 619.121L1133.88 617.919L1135.08 620.929C1135.18 621.187 1135.46 621.306 1135.72 621.207C1135.98 621.108 1136.1 620.82 1136 620.561L1134.8 617.552L1137.81 616.35C1138.07 616.251 1138.19 615.963 1138.09 615.705C1138.01 615.506 1137.82 615.387 1137.62 615.387Z" fill="#0D99FF"/>
</svg>
