<svg width="57" height="41" viewBox="0 0 57 41" fill="none" xmlns="http://www.w3.org/2000/svg">
<path d="M1.36361 19.6429L4.47461 21.2457C4.47461 21.2457 5.88721 22.0538 6.6344 20.5394L14.3365 4.4417C14.3365 4.4417 15.0633 3.06956 13.8747 2.41749L10.4788 0.760421C10.4788 0.760421 9.42581 0.169691 8.73995 1.41249C8.71951 1.91521 0.840448 17.8156 0.840448 17.8156C0.840448 17.8156 0.337728 19.1197 1.36361 19.6429ZM52.129 21.2799L55.3009 19.8198C55.3009 19.8198 56.8157 19.2086 56.089 17.68L48.169 1.69074C48.169 1.69074 47.5374 0.271035 46.2875 0.807981L42.8983 2.45171C42.8983 2.45171 41.7844 2.92021 42.3275 4.21768C42.708 4.54393 50.3697 20.5665 50.3697 20.5665C50.3697 20.5665 51.0831 21.7622 52.129 21.2795M8.89597 21.2253L9.94186 19.0041L13.6231 23.65C13.6231 23.65 16.0141 23.0997 16.8564 24.5941C16.8564 24.5941 17.6511 25.5044 17.3044 27.2228C17.3044 27.2228 17.8 27.5828 17.8343 27.8069C17.8343 27.8069 19.4847 27.413 20.4763 28.5745C20.4763 28.5745 21.3866 29.3079 21.2777 30.7143C21.2777 30.7143 21.9298 30.993 22.0658 31.3801C22.0658 31.3801 23.6891 30.9792 24.4705 31.9166C24.4705 31.9166 25.4284 32.8198 25.3604 33.8662L26.8614 34.9596C26.8614 34.9596 28.2607 35.0752 28.4914 36.1753L29.8364 37.167C29.8364 37.167 31.9895 38.0159 32.1118 35.8695L27.0517 32.0184C27.0517 32.0184 26.4538 30.4698 28.3083 30.7076L35.8477 36.0126C35.8477 36.0126 37.0772 36.5358 37.8244 35.3672C37.8244 35.3672 38.5511 34.3551 37.5186 33.2683L29.5039 27.4744C29.5039 27.4744 28.7976 25.8511 30.6178 25.98L40.1269 32.7109C40.1269 32.7109 41.4785 33.2474 42.0488 32.2424C42.0488 32.2424 42.8165 31.2374 42.0488 30.1982L31.541 22.5432C31.541 22.5432 30.9094 20.7092 32.879 21.1777L43.7059 28.8936C43.7059 28.8936 45.343 29.4097 46.0764 28.0718C46.0764 28.0718 47 26.6387 45.7572 25.4568L30.4405 12.0896C30.4405 12.0896 27.5944 10.7246 25.8964 13.5773C25.8964 13.5773 25.5977 18.2165 20.4492 19.0588C20.4492 19.0588 16.9306 18.7872 17.7525 16.4843C17.7525 16.4843 18.785 15.1193 18.6966 12.2461C18.6966 12.2461 18.8121 10.1814 20.2452 8.42212H14.7299L15.9456 5.90897H24.2732C24.2732 5.90897 27.6966 3.96654 30.2774 4.14967C30.2774 4.14967 33.6395 4.33325 34.5431 4.84263C34.5431 4.84263 38.9987 6.26901 40.9958 5.93608L48.4535 21.3884L47.2716 24.0851C47.2716 24.0851 49.4518 26.3267 47.8423 29.0501C47.3938 29.9604 46.2462 30.8432 44.3646 30.9245C44.3646 30.9245 44.65 32.7585 43.3321 33.791C43.3321 33.791 42.3609 35.1223 40.0108 34.7556C40.0108 34.7556 40.1469 36.3722 38.5911 37.4519C38.5911 37.4519 36.7367 39.0414 33.8773 37.0985C33.8773 37.0985 33.4221 38.9187 31.1401 39.2992C31.1401 39.2992 29.4759 39.5574 28.5047 38.62C28.5047 38.62 26.7592 41.9075 24.2732 40.053C24.2732 40.053 22.7041 38.7489 23.8047 36.9083C23.8047 36.9083 21.6853 40.2571 19.1655 37.7368C19.1655 37.7368 17.7729 36.6838 19.0637 34.4902C19.0637 34.4902 17.0666 36.7589 14.8659 34.7009C14.8659 34.7009 13.3649 33.4781 14.5601 31.1961C14.5601 31.1961 12.5155 33.6075 10.1383 31.305C10.1383 31.305 9.14 30.3814 9.71739 28.3367L12.0199 25.1919L8.89553 21.2253H8.89597Z" fill="#EA1A71"/>
</svg>
