<svg width="100" height="40" viewBox="0 0 100 40" fill="none" xmlns="http://www.w3.org/2000/svg">
<path d="M0 -0.000488281V2.73621H19.4648V-0.000488281H0ZM22.2227 -0.000488281V2.73621H49.9609C49.9609 2.73621 47.1276 -0.000488281 43.375 -0.000488281H22.2227ZM55.4023 -0.000488281V2.73621H72.1836L71.1875 -0.000488281H55.4023ZM84.2148 -0.000488281L83.2188 2.73621H99.8477V-0.000488281H84.2148ZM0 5.32173V8.05843H19.4648V5.32173H0ZM22.2227 5.32561V8.05843H53.1797C53.1797 8.05843 52.8181 5.95215 52.1875 5.32561H22.2227ZM55.4023 5.32561V8.05843H74.0234L73.1016 5.32561H55.4023ZM82.2227 5.32561L81.3008 8.05843H99.8477V5.32561H82.2227ZM5.59375 10.644V13.3845H14.0234V10.644H5.59375ZM27.8164 10.644V13.3845H36.2461V10.644H27.8164ZM44.4453 10.644V13.3845H52.875C52.875 13.3845 53.4102 11.9372 53.4102 10.644H44.4453ZM60.9961 10.644V13.3845H75.9414L74.9453 10.644H60.9961ZM80.3867 10.644L79.3867 13.3845H94.4062V10.644H80.3867ZM5.59375 15.9701V18.7067H14.0234V15.9701H5.59375ZM27.8164 15.9701V18.7067H49.3477C49.3477 18.7067 51.1488 17.3025 51.7227 15.9701H27.8164ZM60.9961 15.9701V18.7067H69.4258V17.1833L69.9609 18.7067H85.4023L85.9766 17.1833V18.7067H94.4062V15.9701H78.582L77.7422 18.2881L76.8984 15.9701H60.9961ZM5.59375 21.2923V24.029H14.0234V21.2923H5.59375ZM27.8164 21.2923V24.029H51.7227C51.1487 22.7008 49.3477 21.2923 49.3477 21.2923H27.8164ZM60.9961 21.2923V24.029H69.4258V21.2923H60.9961ZM70.957 21.2923L71.9766 24.029H83.5547L84.5234 21.2923H70.957ZM85.9766 21.2923V24.029H94.4062V21.2923H85.9766ZM5.59375 26.6145V29.3512H14.0234V26.6145H5.59375ZM27.8164 26.6145V29.3512H36.2461V26.6145H27.8164ZM44.4453 26.6145V29.3512H53.4102C53.4102 28.0597 52.875 26.6145 52.875 26.6145H44.4453ZM60.9961 26.6145V29.3512H69.4258V26.6145H60.9961ZM72.8711 26.6145L73.8594 29.3512H81.6211L82.6172 26.6145H72.8711ZM85.9766 26.6145V29.3512H94.4062V26.6145H85.9766ZM0.152343 31.9367V34.6773H19.6172V31.9367H0.152343ZM22.2227 31.9367V34.6773H52.1875C52.8181 34.0498 53.1797 31.9367 53.1797 31.9367H22.2227ZM55.5547 31.9367V34.6773H69.4258V31.9367H55.5547ZM74.7891 31.9367L75.8047 34.6773H79.7539L80.707 31.9367H74.7891ZM85.9766 31.9367V34.6773H100V31.9367H85.9766ZM0.152343 37.2628V39.9995H19.6172V37.2628H0.152343ZM22.2227 37.2628V39.9956H43.375C47.1276 39.9956 49.9609 37.2628 49.9609 37.2628H22.2227ZM55.5547 37.2628V39.9995H69.4258V37.2628H55.5547ZM76.7148 37.2628L77.6914 39.9918L77.8594 39.9956L78.8516 37.2628H76.7148ZM85.9766 37.2628V39.9995H100V37.2628H85.9766Z" fill="#808B93"/>
</svg>
