<svg width="20" height="20" viewBox="0 0 20 20" fill="none" xmlns="http://www.w3.org/2000/svg">
<path id="Vector" fill-rule="evenodd" clip-rule="evenodd" d="M15.9242 0.0574165C15.6442 0.144999 15.4821 0.281894 15.3541 0.53883L15.2385 0.770864V2.58104V4.39117L14.5121 3.67347C13.8227 2.99217 13.7736 2.95314 13.5466 2.90463C13.096 2.80842 12.6862 3.00719 12.4844 3.41993C12.3509 3.69279 12.3504 3.96407 12.4829 4.24283C12.5259 4.33345 13.2344 5.07394 14.1331 5.96756C15.8021 7.62725 15.816 7.63829 16.2295 7.63829C16.5728 7.63829 16.7647 7.47976 18.3526 5.88463C19.8043 4.42622 19.8814 4.34042 19.9505 4.10651C20.0614 3.73088 19.988 3.44287 19.7106 3.16537C19.4341 2.88894 19.1446 2.81441 18.7742 2.92444C18.5587 2.98846 18.46 3.06782 17.8468 3.67007L17.1606 4.34404V2.66263C17.1606 1.59174 17.1424 0.896582 17.1106 0.748062C17.044 0.437701 16.7413 0.122779 16.4355 0.0457924C16.185 -0.017335 16.1614 -0.0167985 15.9242 0.0574165ZM2.106 1.06723C1.32994 1.27061 0.655564 1.82159 0.288004 2.5526C-0.0238617 3.17297 -0.00790405 2.7161 0.00595266 10.6337L0.0184683 17.7646L0.117879 18.0552C0.411731 18.9144 1.14095 19.6354 1.98523 19.9014L2.29812 20H9.51702H16.7359L17.0488 19.9008C17.903 19.6301 18.6199 18.9216 18.9162 18.0552L19.0156 17.7646L19.0277 12.827L19.0398 7.88942L18.469 8.44907C17.8553 9.05061 17.5406 9.26181 17.0265 9.41695C16.623 9.53873 16.2132 9.57289 15.8241 9.51714C15.6422 9.49107 15.4875 9.47565 15.4803 9.48285C15.4731 9.49005 15.8482 9.80662 16.3139 10.1864L17.1606 10.8769V14.0556C17.1606 17.6637 17.17 17.5538 16.8312 17.8662C16.6877 17.9984 16.5722 18.0598 16.3954 18.0977C16.2182 18.1357 14.4099 18.1457 9.52833 18.1358L2.90178 18.1223L7.08477 13.5174C9.38543 10.9847 11.3918 8.78563 11.5434 8.63063C11.7303 8.43946 11.9251 8.29617 12.1488 8.18511C12.4545 8.03338 12.5083 8.02131 12.8863 8.01988C13.1106 8.01903 13.3544 8.03476 13.4282 8.05484C13.5309 8.08278 13.2572 7.78422 12.2602 6.78066C10.9985 5.51065 10.9525 5.45816 10.7785 5.08995C10.5426 4.59061 10.4807 4.31177 10.486 3.77107C10.4894 3.41967 10.5154 3.2462 10.6074 2.96047C10.9161 2.00149 11.7297 1.25451 12.713 1.02717C12.826 1.00102 10.9682 0.985058 7.66201 0.983807C2.65236 0.981839 2.4185 0.985371 2.106 1.06723ZM5.00241 3.90966C3.97796 4.18314 3.19081 4.9772 2.92565 6.00467C2.83867 6.34163 2.83822 6.99477 2.92471 7.36164C3.22384 8.63067 4.37658 9.53386 5.69525 9.53234C6.52357 9.5314 7.11977 9.28224 7.70738 8.69148C8.30103 8.09458 8.54902 7.50171 8.54996 6.67708C8.55148 5.35815 7.64847 4.20518 6.37968 3.906C6.02365 3.82204 5.32367 3.82387 5.00241 3.90966Z" fill="#024573"/>
</svg>
