<svg width="17" height="20" viewBox="0 0 17 20" fill="none" xmlns="http://www.w3.org/2000/svg">
<path id="Vector" fill-rule="evenodd" clip-rule="evenodd" d="M7.72542 0.0379206C6.8351 0.126479 5.86459 0.444502 5.10261 0.897336C3.71648 1.72116 2.61718 3.04353 2.1676 4.42801C1.90698 5.23071 1.855 5.76409 1.85496 7.63637L1.85492 9.08796L1.43705 9.1014C1.08751 9.11261 0.981067 9.13191 0.785995 9.21945C0.511019 9.34282 0.243993 9.59295 0.101918 9.86034L0 10.0521V14.525V18.9979L0.106933 19.2127C0.285331 19.5713 0.616158 19.8383 1.00467 19.9374C1.33187 20.0209 15.6681 20.0209 15.9953 19.9374C16.3838 19.8383 16.7147 19.5713 16.8931 19.2127L17 18.9979V14.525V10.0521L16.8981 9.86034C16.756 9.59295 16.489 9.34282 16.214 9.21945C16.0189 9.13191 15.9125 9.11261 15.563 9.1014L15.1451 9.08796L15.145 7.63637C15.145 5.76409 15.093 5.23071 14.8324 4.42801C14.3832 3.04482 13.2823 1.72038 11.8974 0.897336C10.7047 0.188553 9.24148 -0.112868 7.72542 0.0379206ZM7.75534 2.78946C6.38405 3.02701 5.23539 4.06467 4.81846 5.44255C4.74235 5.69417 4.73444 5.85101 4.71948 7.40554L4.70321 9.09507H8.5H12.2968L12.2805 7.40554C12.2627 5.56018 12.2614 5.54838 11.9927 4.92159C11.6436 4.10737 10.7622 3.28807 9.8878 2.96493C9.27279 2.7377 8.44659 2.66969 7.75534 2.78946Z" fill="#024573"/>
</svg>
