<svg width="77" height="55" viewBox="0 0 77 55" fill="none" xmlns="http://www.w3.org/2000/svg">
<path fill-rule="evenodd" clip-rule="evenodd" d="M0 0.944623H11.6136V32.1129C11.6136 37.0454 13.8699 39.9836 15.6541 41.2431C13.7652 42.9222 7.99317 44.3915 3.6904 40.8232C1.15364 38.7199 0 35.2613 0 32.0078V0.944623ZM72.5806 26.8354V23.5599H76.1227V12.0688H72.2329C70.7397 5.16973 64.5975 0 57.2519 0C48.7897 0 41.93 6.86001 41.93 15.3218V42.1572C44.3409 42.496 47.213 42.1151 49.6566 40.0887C52.193 37.985 53.3466 34.5268 53.3466 31.2734V30.2847H59.1469V18.7936H53.3466V15.3218H53.3606C53.3606 13.1729 55.1026 11.4309 57.2519 11.4309C59.4007 11.4309 61.1497 13.1729 61.1497 15.3218V26.8354C61.1497 35.2972 68.0167 42.1572 76.4785 42.1572V30.7263C74.3296 30.7263 72.5806 28.9843 72.5806 26.8354ZM28.5956 12.0688V28.9333C28.5956 29.8906 27.8013 30.6668 26.8211 30.6668C25.8409 30.6668 25.0466 29.8906 25.0466 28.9333V12.0688H13.555V31.9031C13.555 35.4711 14.7651 39.9836 20.2717 41.4529C25.7841 42.9237 28.982 39.8789 28.982 39.8789C28.6906 41.8848 26.8014 43.3541 23.7581 43.669C21.4555 43.907 18.5107 43.1443 17.0418 42.5146V53.0229C20.7848 54.1267 24.7437 54.4833 28.618 53.7315C35.6492 52.3673 40.0868 46.4905 40.0868 38.672V12.0688H28.5956Z" fill="#808B93"/>
</svg>
