<svg width="188" height="40" viewBox="0 0 188 40" fill="none" xmlns="http://www.w3.org/2000/svg">
<path d="M187.36 18.0952V14.8002H183.269V9.67767L183.131 9.72008L179.288 10.896L179.212 10.919V14.8004H173.146V12.6381C173.146 11.6313 173.371 10.8608 173.815 10.347C174.255 9.83934 174.885 9.58125 175.689 9.58125C176.267 9.58125 176.865 9.71736 177.467 9.98579L177.618 10.0532V6.5831L177.547 6.557C176.986 6.3551 176.222 6.25342 175.275 6.25342C174.081 6.25342 172.997 6.51314 172.051 7.02788C171.105 7.54334 170.36 8.27919 169.839 9.21477C169.319 10.1493 169.056 11.2286 169.056 12.423V14.8002H166.207V18.0952H169.056V31.9765H173.146V18.0952H179.212V26.9166C179.212 30.5496 180.926 32.3907 184.305 32.3907C184.861 32.3907 185.445 32.3256 186.042 32.1982C186.649 32.0673 187.063 31.9367 187.307 31.7971L187.361 31.7652V28.4397L187.194 28.5498C186.972 28.6976 186.696 28.8185 186.372 28.9084C186.046 29 185.774 29.0458 185.564 29.0458C184.772 29.0458 184.186 28.8325 183.823 28.4115C183.455 27.9866 183.269 27.2437 183.269 26.2044V18.0952H187.36ZM157.073 29.0464C155.588 29.0464 154.417 28.5541 153.593 27.5844C152.763 26.6099 152.342 25.2205 152.342 23.4551C152.342 21.6338 152.763 20.2083 153.593 19.2166C154.418 18.2313 155.578 17.7313 157.039 17.7313C158.457 17.7313 159.586 18.2088 160.395 19.1515C161.208 20.099 161.62 21.5131 161.62 23.3556C161.62 25.2208 161.232 26.6536 160.468 27.612C159.708 28.5632 158.566 29.0464 157.073 29.0464ZM157.254 14.3864C154.422 14.3864 152.172 15.2163 150.568 16.8531C148.965 18.4901 148.153 20.7555 148.153 23.5869C148.153 26.2762 148.946 28.4394 150.511 30.0153C152.076 31.5918 154.205 32.3903 156.84 32.3903C159.586 32.3903 161.79 31.5488 163.394 29.8893C164.997 28.2317 165.809 25.9877 165.809 23.2224C165.809 20.4911 165.047 18.3118 163.543 16.7464C162.039 15.1803 159.922 14.3864 157.254 14.3864ZM141.558 14.3864C139.632 14.3864 138.038 14.8792 136.82 15.8509C135.596 16.8283 134.974 18.1103 134.974 19.6615C134.974 20.4679 135.108 21.1842 135.372 21.7917C135.638 22.4012 136.049 22.9379 136.595 23.3883C137.136 23.835 137.973 24.303 139.081 24.7791C140.012 25.1625 140.707 25.4867 141.148 25.7423C141.58 25.9928 141.886 26.2445 142.059 26.4897C142.227 26.7297 142.312 27.0581 142.312 27.4634C142.312 28.6174 141.448 29.1789 139.67 29.1789C139.01 29.1789 138.258 29.0411 137.434 28.7696C136.615 28.5022 135.843 28.1106 135.144 27.6085L134.974 27.4868V31.4247L135.036 31.4537C135.615 31.7208 136.345 31.9461 137.205 32.1233C138.063 32.3008 138.843 32.391 139.52 32.391C141.611 32.391 143.295 31.8959 144.523 30.9184C145.759 29.9343 146.386 28.6221 146.386 27.0171C146.386 25.8594 146.049 24.8665 145.384 24.0658C144.724 23.2715 143.578 22.5424 141.979 21.8979C140.706 21.3868 139.89 20.9625 139.553 20.6368C139.229 20.3222 139.064 19.8772 139.064 19.3137C139.064 18.8142 139.268 18.414 139.685 18.09C140.106 17.7643 140.691 17.5986 141.426 17.5986C142.107 17.5986 142.804 17.7063 143.498 17.9172C144.191 18.1282 144.799 18.4108 145.307 18.7564L145.474 18.8706V15.1351L145.41 15.1076C144.942 14.9066 144.324 14.7346 143.573 14.595C142.826 14.4564 142.148 14.3864 141.558 14.3864ZM124.311 29.0464C122.827 29.0464 121.656 28.5541 120.832 27.5844C120.002 26.6099 119.582 25.2208 119.582 23.4551C119.582 21.6338 120.002 20.2083 120.833 19.2166C121.657 18.2313 122.816 17.7313 124.279 17.7313C125.696 17.7313 126.825 18.2088 127.634 19.1515C128.447 20.099 128.859 21.5131 128.859 23.3556C128.859 25.2208 128.471 26.6536 127.707 27.612C126.947 28.5632 125.805 29.0464 124.311 29.0464ZM124.494 14.3864C121.661 14.3864 119.411 15.2163 117.808 16.8531C116.205 18.4901 115.392 20.7555 115.392 23.5869C115.392 26.2773 116.186 28.4394 117.75 30.0153C119.315 31.5918 121.445 32.3903 124.079 32.3903C126.825 32.3903 129.03 31.5488 130.633 29.8893C132.236 28.2317 133.049 25.9877 133.049 23.2224C133.049 20.4911 132.286 18.3118 130.782 16.7464C129.277 15.1803 127.161 14.3864 124.494 14.3864ZM109.183 17.7748V14.8002H105.143V31.9762H109.183V23.19C109.183 21.696 109.522 20.4686 110.19 19.5415C110.85 18.6255 111.729 18.1614 112.803 18.1614C113.167 18.1614 113.576 18.2214 114.018 18.3401C114.456 18.4581 114.773 18.5862 114.96 18.721L115.13 18.8441V14.7708L115.065 14.7427C114.688 14.5829 114.156 14.5022 113.482 14.5022C112.467 14.5022 111.559 14.8285 110.78 15.4708C110.097 16.0354 109.603 16.8095 109.226 17.7748H109.183ZM97.9072 14.3864C96.0536 14.3864 94.4003 14.7839 92.9941 15.5674C91.5849 16.3527 90.4951 17.4739 89.7536 18.8996C89.0154 20.3218 88.6406 21.9831 88.6406 23.8358C88.6406 25.4586 89.004 26.9479 89.7222 28.2605C90.4409 29.5752 91.458 30.6038 92.7456 31.3172C94.0313 32.0296 95.5174 32.3909 97.1627 32.3909C99.0828 32.3909 100.722 32.007 102.037 31.2499L102.09 31.2195V27.5179L101.92 27.6419C101.324 28.0756 100.659 28.4218 99.9432 28.6712C99.2291 28.9204 98.578 29.0464 98.0071 29.0464C96.4218 29.0464 95.1491 28.5503 94.2253 27.5723C93.2995 26.593 92.83 25.2179 92.83 23.4876C92.83 21.7464 93.3196 20.3359 94.2843 19.2952C95.2462 18.2576 96.5213 17.7313 98.0738 17.7313C99.4018 17.7313 100.696 18.1809 101.92 19.069L102.09 19.1921V15.2919L102.035 15.2611C101.574 15.0032 100.946 14.7902 100.166 14.6287C99.3889 14.4676 98.6291 14.3864 97.9072 14.3864ZM85.8579 14.8004H81.8176V31.9762H85.8579V14.8004ZM83.8791 7.48334C83.2141 7.48334 82.6341 7.70972 82.1576 8.1583C81.6792 8.60815 81.4365 9.17454 81.4365 9.84296C81.4365 10.5009 81.6763 11.0569 82.1502 11.4948C82.6211 11.9314 83.2029 12.1527 83.8793 12.1527C84.5555 12.1527 85.1395 11.9314 85.616 11.4956C86.0955 11.0569 86.3388 10.5011 86.3388 9.84296C86.3388 9.19792 86.1021 8.63733 85.6357 8.17642C85.1697 7.71642 84.5785 7.48334 83.8791 7.48334ZM73.7983 13.5331V31.9762H77.9216V8.00913H72.2147L64.961 25.8111L57.9216 8.00913H51.9824V31.976H55.8572V13.5313H55.9903L63.4237 31.9762H66.3479L73.6652 13.5331H73.7983Z" fill="#808B93"/>
<path d="M19.0067 19.0067H0V0H19.0067V19.0067Z" fill="#808B93"/>
<path d="M39.9922 19.0067H20.9858V0H39.9922V19.0067Z" fill="#808B93"/>
<path d="M19.0062 40.0002H0V20.9937H19.0062V40.0002Z" fill="#808B93"/>
<path d="M39.9922 40.0002H20.9858V20.9937H39.9922V40.0002Z" fill="#808B93"/>
</svg>
