<svg width="236" height="201" viewBox="0 0 236 201" fill="none" xmlns="http://www.w3.org/2000/svg">
<path d="M61.4257 206.955C61.3159 207.045 61.1861 207.135 61.0463 207.205C60.7967 207.334 60.7068 207.634 60.8366 207.874C60.9265 208.043 61.0962 208.143 61.2759 208.143C61.3558 208.143 61.4357 208.123 61.5055 208.083C62.3143 207.664 62.9033 206.955 63.1729 206.086C63.4425 205.218 63.3626 204.299 62.9433 203.491L60.1677 198.189C60.0379 197.939 59.7383 197.849 59.4987 197.979C59.2491 198.109 59.1593 198.409 59.2891 198.648L60.4872 200.945L52.9291 190.791C51.8209 189.303 49.5944 188.784 47.967 189.642L34.0889 196.901C33.8393 197.031 33.7494 197.33 33.8792 197.57C34.009 197.819 34.3086 197.909 34.5482 197.78L48.4262 190.521C49.6343 189.892 51.2917 190.271 52.1204 191.38L61.6952 204.239C62.0746 204.759 62.2144 205.348 62.0946 205.907C62.0048 206.316 61.7651 206.675 61.4257 206.955Z" fill="#0D99FF"/>
<path d="M30.4571 197.62L36.877 194.265C37.1266 194.136 37.2165 193.836 37.0867 193.596C36.9569 193.357 36.6573 193.257 36.4177 193.387L29.9979 196.741C28.7898 197.37 28.1009 198.648 28.1907 199.986L27.8912 200.146C27.0725 200.575 26.5234 201.264 26.3337 202.103C26.144 202.952 26.3437 203.83 26.9028 204.579L33.4424 213.365C33.5423 213.495 33.692 213.565 33.8418 213.565C33.9416 213.565 34.0515 213.535 34.1413 213.465C34.361 213.305 34.4109 212.986 34.2412 212.766L27.7015 203.98C27.3221 203.461 27.1823 202.872 27.3021 202.313C27.4319 201.763 27.8013 201.304 28.3505 201.015L31.6553 199.287C31.9049 199.158 31.9947 198.858 31.8649 198.618C31.7351 198.379 31.4356 198.279 31.196 198.409L29.1991 199.457C29.289 198.678 29.7483 197.989 30.4571 197.62Z" fill="#0D99FF"/>
<path d="M38.302 192.955C38.4318 193.205 38.7314 193.294 38.971 193.165L41.4571 191.867C41.6368 191.767 41.7466 191.577 41.7266 191.368L41.517 189.451C41.497 189.291 41.5769 189.141 41.7266 189.061L48.2962 185.627C48.446 185.547 48.6058 185.577 48.7256 185.677L50.1932 186.955C50.333 187.084 50.5427 187.114 50.7224 187.034C51.8806 186.535 53.2284 187.004 53.8075 188.113L58.4102 196.919C58.5001 197.088 58.6698 197.188 58.8496 197.188C58.9294 197.188 59.0093 197.168 59.0792 197.128C59.3288 196.999 59.4186 196.699 59.2889 196.459L54.6861 187.643C53.9174 186.176 52.1801 185.487 50.6226 185.996L49.3845 184.908C48.9552 184.528 48.3462 184.458 47.837 184.728L41.2674 188.163C40.7582 188.432 40.4686 188.971 40.5285 189.54L40.6983 191.118L38.5217 192.256C38.2621 192.406 38.1722 192.705 38.302 192.955Z" fill="#0D99FF"/>
<path d="M199.669 32.5912C199.789 32.5912 199.908 32.5513 199.998 32.4614L210.082 23.5555C210.701 23.0164 211.44 22.7668 212.169 22.8766C212.888 22.9764 213.517 23.4058 213.946 24.0847L216.402 27.9585C216.552 28.1882 216.862 28.2581 217.091 28.1083C217.321 27.9585 217.391 27.649 217.241 27.4194L215.643 24.9034C216.712 24.8734 217.73 25.3926 218.319 26.3211L223.092 33.8393C223.182 33.989 223.351 34.0689 223.511 34.0689C223.601 34.0689 223.691 34.0489 223.781 33.989C224.01 33.8392 224.08 33.5297 223.93 33.3001L219.158 25.782C218.279 24.3942 216.642 23.6953 215.044 23.9649L214.775 23.5455C214.186 22.617 213.307 22.0279 212.299 21.8882C211.27 21.7384 210.252 22.0679 209.413 22.8067L199.329 31.7126C199.12 31.8923 199.1 32.2118 199.289 32.4215C199.389 32.5313 199.529 32.5912 199.669 32.5912Z" fill="#0D99FF"/>
<path d="M203.712 56.6095C203.482 56.7593 203.412 57.0688 203.562 57.2984L206.388 61.7414C206.477 61.8912 206.647 61.971 206.807 61.971C206.897 61.971 206.987 61.9511 207.076 61.8912C207.306 61.7414 207.376 61.4319 207.226 61.2023L204.401 56.7593C204.251 56.5396 203.941 56.4697 203.712 56.6095Z" fill="#0D99FF"/>
<path d="M229.72 47.0568L219.407 30.8125C219.257 30.5829 218.947 30.513 218.718 30.6628C218.488 30.8125 218.418 31.122 218.568 31.3517L228.882 47.596C229.81 49.0637 229.501 51.2003 228.183 52.3584L213.416 65.4078C212.797 65.9569 212.058 66.1966 211.329 66.0867C210.79 66.0069 210.301 65.7473 209.912 65.3479C209.782 65.2081 209.662 65.0584 209.552 64.8886C209.432 64.6989 209.203 64.6191 208.993 64.679C208.943 64.6889 208.903 64.6989 208.863 64.7289C208.684 64.8387 208.604 65.0384 208.634 65.2281C208.644 65.288 208.664 65.3579 208.703 65.4178C209.283 66.3363 210.191 66.9753 211.249 67.205C211.549 67.2749 211.849 67.3048 212.148 67.3048C212.907 67.3048 213.656 67.0852 214.325 66.6658L220.535 62.722C220.764 62.5723 220.834 62.2628 220.685 62.0331C220.535 61.8035 220.225 61.7336 219.996 61.8834L216.092 64.3595L228.832 53.0973C230.499 51.6296 230.898 48.9239 229.72 47.0568Z" fill="#0D99FF"/>
<path d="M235.668 46.3659L230.786 38.6781C230.437 38.1289 229.778 37.8494 229.139 37.9692L227.152 38.3586L225.484 35.7427C225.335 35.5131 225.025 35.4432 224.795 35.5929C224.566 35.7427 224.496 36.0522 224.646 36.2818L226.493 39.1872C226.603 39.357 226.812 39.4468 227.012 39.4069L229.338 38.9476C229.578 38.8977 229.818 39.0075 229.947 39.2072L234.83 46.8951C234.959 47.0947 234.949 47.3643 234.81 47.564L233.392 49.491C233.272 49.6507 233.262 49.8504 233.352 50.0201C234.111 51.4279 233.651 53.2051 232.304 54.0637L221.99 60.6134C221.76 60.7631 221.69 61.0726 221.84 61.3023C221.93 61.452 222.1 61.5319 222.259 61.5319C222.349 61.5319 222.439 61.5119 222.529 61.452L232.843 54.9024C234.54 53.8241 235.169 51.6475 234.37 49.8304L235.608 48.1431C235.998 47.6339 236.028 46.925 235.668 46.3659Z" fill="#0D99FF"/>
<path d="M193.827 46.5669C194.686 46.5669 195.554 46.3672 196.363 45.9678L202.284 55.3031C202.373 55.4528 202.543 55.5327 202.703 55.5327C202.793 55.5327 202.883 55.5127 202.972 55.4528C203.202 55.3031 203.272 54.9936 203.122 54.7639L197.212 45.4586C199.678 43.6715 200.367 40.2469 198.719 37.641C198.14 36.7324 197.351 36.0435 196.453 35.5843L197.651 34.5259C197.861 34.3462 197.88 34.0267 197.691 33.8171C197.511 33.6074 197.192 33.5874 196.982 33.7771L195.394 35.1749C193.857 34.7356 192.15 34.9253 190.692 35.8439C187.986 37.5611 187.187 41.1554 188.905 43.8612C190.023 45.6084 191.91 46.5669 193.827 46.5669ZM191.241 36.6925C192.04 36.1833 192.928 35.9437 193.817 35.9437C194.047 35.9437 194.286 35.9637 194.516 36.0036C194.905 36.0635 195.285 36.1633 195.644 36.3131C196.543 36.6725 197.331 37.3115 197.89 38.1802C199.248 40.3168 198.689 43.1124 196.682 44.6C196.593 44.6699 196.503 44.7498 196.403 44.8197C196.213 44.9395 196.013 45.0193 195.824 45.1092C193.677 46.0976 191.071 45.3888 189.763 43.332C188.336 41.0955 189.005 38.1202 191.241 36.6925Z" fill="#0D99FF"/>
<path d="M193.006 42.6457L192.198 41.3777C192.227 41.3477 192.257 41.3378 192.287 41.3178C192.517 41.178 192.787 41.158 193.465 41.2779C193.935 41.3677 194.304 41.3877 194.624 41.3677C195.033 41.3378 195.363 41.2379 195.682 41.0382C196.361 40.6089 196.541 40.0199 196.121 39.3609C195.702 38.7019 195.093 38.6121 194.414 39.0414L194.104 39.2311L193.995 39.301L194.085 39.4507L194.394 39.94L194.853 39.6504C195.153 39.4607 195.362 39.5206 195.492 39.7303C195.632 39.94 195.612 40.1397 195.223 40.3893C194.943 40.569 194.654 40.6489 194.284 40.6588C194.055 40.6588 193.805 40.6389 193.465 40.579C193.376 40.559 193.296 40.559 193.216 40.539C192.537 40.4392 192.108 40.4991 191.678 40.7687L191.149 41.0981L192.377 43.0351L193.006 42.6457Z" fill="#0D99FF"/>
<path d="M8.79984 95.8015C10.3374 97.6486 12.4441 98.8966 14.8303 99.3459C15.4893 99.4757 16.1482 99.5356 16.7972 99.5356C18.8639 99.5356 20.8708 98.9166 22.618 97.7384L72.8685 63.5924C77.2416 60.6171 78.6394 54.7464 76.1334 50.0938L79.7177 44.892C80.5464 43.6939 80.5464 42.1364 79.7277 40.9283L65.5501 20.0613C64.7414 18.8732 63.2637 18.2941 61.8559 18.6136L55.8055 20.0014L32.2428 -14.6738C29.7667 -18.318 25.2738 -19.9954 21.0105 -18.8771L19.9123 -20.4846C18.3547 -22.781 16.0883 -24.1987 13.5423 -24.4783C10.9464 -24.7678 8.39049 -23.8493 6.33374 -21.9024L-33.4034 15.4885C-37.5868 19.4223 -38.3855 26.4512 -35.1906 31.1537L8.18082 94.9828C8.3805 95.2623 8.59017 95.5419 8.79984 95.8015ZM31.4241 -14.1147L55.1765 20.8301C55.2963 20.9998 55.506 21.0797 55.7057 21.0397L62.0956 19.5721C63.094 19.3424 64.1623 19.7618 64.7414 20.6104L78.919 41.4774C79.508 42.346 79.498 43.4543 78.909 44.3129L75.1449 49.7743C75.0351 49.934 75.0251 50.1437 75.125 50.3035C77.5811 54.5467 76.353 60.0181 72.3194 62.7538L22.0689 96.8998C21.1204 97.5487 20.082 97.988 18.9937 98.2576C19.9822 97.8183 20.9307 97.1993 21.7793 96.3906L61.5165 58.9997C65.6999 55.0659 66.4986 48.037 63.3036 43.3345L21.6196 -17.9985C25.3537 -18.8272 29.2475 -17.3096 31.4241 -14.1147ZM-32.7145 16.2174L7.02265 -21.1835C8.65008 -22.7211 10.617 -23.5298 12.6238 -23.5298C12.8934 -23.5298 13.1629 -23.5198 13.4325 -23.4898C15.6889 -23.2402 17.6958 -21.9822 19.0936 -19.9355L62.465 43.8936C65.4003 48.2068 64.6615 54.6566 60.8176 58.2708L21.0804 95.6617C19.2333 97.399 16.947 98.2177 14.6606 97.9681C12.6837 97.7484 10.9065 96.76 9.55864 95.1425C9.36894 94.9129 9.17924 94.6633 9.00951 94.4037L-34.3619 30.5946C-37.2973 26.2814 -36.5584 19.8316 -32.7145 16.2174Z" fill="#0D99FF"/>
<path d="M78.4983 133.95L85.8666 131.025C86.1262 130.925 86.246 130.636 86.1462 130.376C86.0463 130.116 85.7568 129.997 85.4972 130.096L77.6696 133.212C77.41 133.311 77.2902 133.601 77.39 133.86L86.3758 156.475C86.4557 156.674 86.6454 156.794 86.8351 156.794C86.895 156.794 86.9549 156.784 87.0148 156.754C87.2744 156.654 87.3942 156.365 87.2944 156.105L78.4983 133.95Z" fill="#0D99FF"/>
<path d="M107.406 208.539C107.466 208.539 107.526 208.529 107.585 208.499L114.265 205.843C114.525 205.743 114.644 205.454 114.544 205.194C114.445 204.935 114.155 204.815 113.896 204.915L107.675 207.381L88.925 160.176C88.8252 159.916 88.5356 159.796 88.276 159.896C88.0164 159.996 87.8966 160.285 87.9965 160.545L106.927 208.21C107.016 208.419 107.206 208.539 107.406 208.539Z" fill="#0D99FF"/>
<path d="M126.103 200.074L117.696 203.419C117.437 203.519 117.317 203.808 117.417 204.068C117.497 204.268 117.686 204.387 117.876 204.387C117.936 204.387 117.996 204.377 118.056 204.347L126.463 201.003C126.722 200.903 126.842 200.613 126.742 200.354C126.652 200.104 126.363 199.974 126.103 200.074Z" fill="#0D99FF"/>
<path d="M134.582 197.251C134.662 197.451 134.852 197.57 135.041 197.57C135.101 197.57 135.161 197.561 135.221 197.531L170.765 183.413C171.025 183.313 171.144 183.024 171.045 182.764L170.565 181.566C170.465 181.306 170.176 181.186 169.916 181.286C169.657 181.386 169.537 181.676 169.637 181.935L169.926 182.664L134.842 196.602C134.602 196.702 134.472 196.991 134.582 197.251Z" fill="#0D99FF"/>
<path d="M113.256 193.585C113.335 193.784 113.525 193.904 113.715 193.904C113.775 193.904 113.835 193.894 113.895 193.864L166.142 173.107L167.849 177.42C167.929 177.62 168.119 177.74 168.309 177.74C168.368 177.74 168.428 177.73 168.488 177.7C168.748 177.6 168.868 177.31 168.768 177.051L167.061 172.738L177.075 168.764C177.334 168.664 177.454 168.374 177.354 168.115L154.291 110.047C154.281 110.027 154.261 110.007 154.251 109.987C154.241 109.967 154.231 109.947 154.221 109.937C154.171 109.867 154.111 109.807 154.021 109.767L131.237 99.9427C131.157 99.9028 131.067 99.9028 130.978 99.9128C130.958 99.9128 130.938 99.9228 130.918 99.9228C130.898 99.9328 130.878 99.9228 130.848 99.9327L83.9619 118.553C83.8421 118.603 83.7423 118.703 83.6924 118.823C83.6424 118.943 83.6424 119.082 83.6824 119.202L113.256 193.585ZM142.25 105.774L152.534 110.206L137.807 116.057L131.956 101.331L142.25 105.774ZM130.778 101.051L137.068 116.896C137.118 117.016 137.208 117.116 137.338 117.165C137.397 117.195 137.467 117.205 137.537 117.205C137.597 117.205 137.667 117.195 137.717 117.165L153.562 110.875L176.256 168.015L166.701 171.809L165.773 172.178L113.994 192.746L84.8206 119.292L130.778 101.051Z" fill="#0D99FF"/>
<path d="M122.591 147.316C122.651 147.316 122.711 147.306 122.771 147.276L130.249 144.301L133.224 151.779C133.304 151.979 133.494 152.098 133.684 152.098C133.744 152.098 133.803 152.088 133.863 152.059C134.123 151.959 134.243 151.669 134.143 151.41L131.168 143.931L138.646 140.956C138.905 140.856 139.025 140.567 138.925 140.307C138.826 140.048 138.536 139.928 138.276 140.028L130.798 143.003L127.823 135.525C127.723 135.265 127.434 135.145 127.174 135.245C126.914 135.345 126.795 135.635 126.894 135.894L129.87 143.372L122.391 146.348C122.132 146.447 122.012 146.737 122.112 146.997C122.212 147.196 122.392 147.316 122.591 147.316Z" fill="#0D99FF"/>
<path d="M132.456 -1.99684L129.98 -1.01839L121.833 -21.516C121.733 -21.7756 121.443 -21.8954 121.184 -21.7955C120.924 -21.6957 120.804 -21.4061 120.904 -21.1466L129.231 -0.179716C129.281 -0.0599041 129.381 0.039938 129.501 0.089859C129.56 0.119812 129.63 0.129797 129.7 0.129797C129.76 0.129797 129.83 0.119812 129.88 0.089859L132.815 -1.07829C133.075 -1.17814 133.195 -1.46768 133.095 -1.72727C133.005 -1.97687 132.706 -2.09668 132.456 -1.99684Z" fill="#0D99FF"/>
</svg>
