<svg width="236" height="201" viewBox="0 0 236 201" fill="none" xmlns="http://www.w3.org/2000/svg">
<path d="M183.378 39.5034L191.284 35.3699C190.914 34.3715 190.865 33.3032 191.194 32.2748C191.583 31.0467 192.422 30.0383 193.56 29.4492C194.258 29.0798 195.017 28.9001 195.786 28.9001C196.275 28.9001 196.754 28.97 197.233 29.1197C198.461 29.5091 199.469 30.3478 200.058 31.486C200.707 32.734 200.747 34.1319 200.297 35.3599L201.306 36.7078C201.475 36.9275 201.425 37.247 201.206 37.4067C200.986 37.5764 200.677 37.5265 200.507 37.3069L199.798 36.3583C199.359 37.0273 198.78 37.5964 198.021 37.9958C196.884 38.5948 195.576 38.7046 194.348 38.3252C193.24 37.9758 192.332 37.247 191.723 36.2785L183.837 40.402C183.598 40.5318 183.288 40.4319 183.169 40.1923C183.039 39.9327 183.139 39.6332 183.378 39.5034ZM192.172 34.9006C192.242 35.1003 192.312 35.29 192.402 35.4797C192.462 35.5896 192.542 35.6894 192.611 35.7992C193.091 36.5381 193.799 37.0872 194.648 37.3568C195.027 37.4766 195.406 37.5365 195.796 37.5365C196.404 37.5365 197.003 37.3867 197.562 37.0972C198.271 36.7278 198.82 36.1587 199.169 35.4997C199.349 35.1602 199.469 34.7808 199.539 34.4014C199.688 33.5927 199.599 32.7241 199.189 31.9453C198.72 31.0367 197.922 30.3778 196.943 30.0683C195.975 29.7588 194.937 29.8586 194.029 30.3278C193.12 30.7971 192.462 31.5958 192.152 32.5743C191.903 33.3431 191.923 34.1518 192.172 34.9006Z" fill="#0D99FF"/>
<path d="M181.901 40.3433C181.821 40.3433 181.741 40.3633 181.671 40.4032L177.878 42.3896C177.629 42.5194 177.539 42.8188 177.669 43.0584C177.798 43.3079 178.098 43.3978 178.337 43.268L182.13 41.2816C182.38 41.1518 182.47 40.8524 182.34 40.6128C182.26 40.4332 182.08 40.3433 181.901 40.3433Z" fill="#0D99FF"/>
<path d="M174.835 45.1437C174.945 45.0538 175.075 44.964 175.214 44.8941C175.464 44.7643 175.554 44.4648 175.424 44.2252C175.334 44.0554 175.164 43.9556 174.985 43.9556C174.905 43.9556 174.825 43.9756 174.755 44.0155C173.947 44.4348 173.358 45.1437 173.088 46.0123C172.819 46.881 172.898 47.7995 173.318 48.6083L176.093 53.9099C176.222 54.1595 176.522 54.2494 176.762 54.1196C177.011 53.9898 177.101 53.6903 176.971 53.4506L175.773 51.1542L183.329 61.3082C184.437 62.7959 186.663 63.3151 188.29 62.4564L202.165 55.1979C202.415 55.0681 202.505 54.7686 202.375 54.5289C202.245 54.2793 201.946 54.1895 201.706 54.3193L187.831 61.5778C186.624 62.2068 184.967 61.8274 184.138 60.7192L174.565 47.8594C174.186 47.3402 174.046 46.7512 174.166 46.1921C174.256 45.7827 174.486 45.4233 174.835 45.1437Z" fill="#0D99FF"/>
<path d="M205.789 54.4798L199.37 57.8345C199.121 57.9643 199.031 58.2639 199.161 58.5035C199.29 58.7431 199.59 58.8429 199.83 58.7131L206.248 55.3584C207.456 54.7294 208.144 53.4514 208.055 52.1135L208.354 51.9538C209.173 51.5245 209.721 50.8356 209.911 49.9969C210.101 49.1482 209.901 48.2696 209.342 47.5208L202.804 38.7346C202.704 38.6048 202.555 38.5349 202.405 38.5349C202.305 38.5349 202.195 38.5649 202.105 38.6348C201.886 38.7945 201.836 39.114 202.006 39.3337L208.544 48.1198C208.923 48.639 209.063 49.2281 208.943 49.7872C208.813 50.3364 208.444 50.7956 207.895 51.0852L204.591 52.8124C204.341 52.9422 204.251 53.2418 204.381 53.4814C204.511 53.721 204.81 53.8209 205.05 53.6911L207.046 52.6427C206.966 53.4215 206.507 54.1104 205.789 54.4798Z" fill="#0D99FF"/>
<path d="M197.953 59.1448C197.823 58.8952 197.524 58.8053 197.284 58.9351L194.799 60.2331C194.619 60.3329 194.509 60.5226 194.529 60.7323L194.739 62.6493C194.759 62.809 194.679 62.9588 194.529 63.0386L187.961 66.4732C187.812 66.5531 187.652 66.5231 187.532 66.4233L186.065 65.1453C185.925 65.0155 185.715 64.9856 185.536 65.0654C184.378 65.5647 183.03 65.0954 182.451 63.9872L177.85 55.181C177.76 55.0113 177.59 54.9114 177.411 54.9114C177.331 54.9114 177.251 54.9314 177.181 54.9713C176.931 55.1011 176.842 55.4007 176.971 55.6403L181.573 64.4564C182.341 65.9241 184.078 66.613 185.636 66.1038L186.873 67.1921C187.302 67.5715 187.911 67.6414 188.42 67.3718L194.988 63.9372C195.498 63.6677 195.787 63.1285 195.727 62.5594L195.557 60.9819L197.733 59.8437C197.983 59.6939 198.083 59.3944 197.953 59.1448Z" fill="#0D99FF"/>
<path d="M195.41 32.3561C195.43 32.3761 195.44 32.406 195.46 32.436C195.549 32.6157 195.549 32.8353 195.43 33.3046C195.42 33.3346 195.42 33.3545 195.41 33.3945C195.29 33.8138 195.24 34.1533 195.25 34.4428C195.26 34.7324 195.33 34.972 195.46 35.2116C195.769 35.7907 196.228 35.9804 196.797 35.6809C197.356 35.3913 197.476 34.9021 197.176 34.313L197.097 34.1533L196.997 33.9636L196.707 34.1133L196.458 34.2431L196.657 34.6325C196.797 34.8921 196.727 35.0519 196.548 35.1517C196.368 35.2515 196.208 35.2216 196.028 34.8921C195.919 34.6724 195.869 34.4628 195.869 34.2132C195.869 34.0035 195.909 33.7739 195.999 33.4644C196.029 33.3645 196.048 33.2747 196.068 33.1848C196.178 32.6856 196.148 32.3461 195.969 32.0067L195.739 31.5574L194.082 32.426L194.352 32.9452L195.41 32.3561Z" fill="#0D99FF"/>
<path d="M32.5731 195.486C32.8027 195.336 32.8726 195.027 32.7229 194.797L29.8981 190.354C29.8082 190.204 29.6385 190.124 29.4788 190.124C29.3889 190.124 29.2991 190.144 29.2092 190.204C28.9797 190.354 28.9099 190.663 29.0596 190.893L31.8844 195.336C32.0342 195.556 32.3435 195.626 32.5731 195.486Z" fill="#0D99FF"/>
<path d="M6.58192 205.042L16.8931 221.287C17.0428 221.516 17.3523 221.586 17.5819 221.437C17.8115 221.287 17.8812 220.977 17.7315 220.748L7.42036 204.503C6.49205 203.036 6.80144 200.899 8.11904 199.741L22.8822 186.691C23.501 186.142 24.2397 185.903 24.9683 186.012C25.5073 186.092 25.9965 186.352 26.3858 186.751C26.5156 186.891 26.6353 187.041 26.7451 187.211C26.8649 187.4 27.0945 187.48 27.3042 187.42C27.3541 187.41 27.394 187.4 27.4339 187.37C27.6136 187.26 27.6934 187.061 27.6635 186.871C27.6535 186.811 27.6335 186.741 27.5935 186.681C27.0146 185.763 26.1063 185.124 25.0483 184.894C24.7488 184.824 24.4493 184.794 24.1499 184.794C23.3913 184.794 22.6426 185.014 21.9738 185.433L15.7651 189.377C15.5356 189.527 15.4657 189.836 15.6154 190.066C15.7651 190.296 16.0746 190.366 16.3042 190.216L20.2071 187.74L7.47032 199.002C5.79337 200.47 5.40407 203.175 6.58192 205.042Z" fill="#0D99FF"/>
<path d="M0.622888 205.731L5.50388 213.419C5.85325 213.968 6.51207 214.247 7.15091 214.127L9.13728 213.738L10.8043 216.354C10.954 216.584 11.2634 216.654 11.493 216.504C11.7225 216.354 11.7924 216.044 11.6427 215.815L9.79611 212.909C9.68631 212.74 9.47667 212.65 9.27704 212.69L6.95132 213.149C6.71176 213.199 6.47221 213.089 6.34244 212.889L1.46133 205.202C1.33156 205.002 1.34156 204.732 1.48131 204.533L2.89865 202.606C3.01843 202.446 3.02845 202.246 2.93861 202.076C2.18 200.669 2.63921 198.891 3.98675 198.033L14.2979 191.483C14.5275 191.333 14.5974 191.024 14.4477 190.794C14.3578 190.644 14.1881 190.565 14.0284 190.565C13.9385 190.565 13.8487 190.585 13.7589 190.644L3.4477 197.194C1.75079 198.272 1.12191 200.449 1.92045 202.266L0.682716 203.954C0.293425 204.463 0.273525 205.172 0.622888 205.731Z" fill="#0D99FF"/>
<path d="M47.3655 208.229C49.0823 210.935 48.2837 214.53 45.5787 216.247C44.1213 217.165 42.4145 217.355 40.8773 216.916L39.2902 218.314C39.0906 218.493 38.7711 218.473 38.5814 218.274C38.4018 218.064 38.4218 217.754 38.6214 217.565L39.8192 216.506C38.9208 216.047 38.1224 215.358 37.5534 214.45C35.8964 211.844 36.595 208.419 39.0605 206.632L33.1514 197.327C33.0017 197.097 33.0715 196.787 33.3011 196.638C33.381 196.588 33.4807 196.558 33.5705 196.558C33.7402 196.558 33.9 196.638 33.9898 196.787L39.9091 206.123C40.7176 205.723 41.5859 205.524 42.4444 205.524C44.3808 205.534 46.2675 206.492 47.3655 208.229ZM46.527 208.769C45.2194 206.712 42.6241 206.003 40.468 206.991C40.2684 207.081 40.0688 207.161 39.8891 207.281C39.7893 207.341 39.7094 207.431 39.6096 207.501C37.6132 208.988 37.0443 211.784 38.4018 213.92C38.9608 214.799 39.7494 215.428 40.6477 215.788C41.0071 215.937 41.3864 216.037 41.7757 216.097C42.0053 216.127 42.2348 216.157 42.4744 216.157C43.3528 216.157 44.2511 215.917 45.0496 215.408C47.2855 213.98 47.9444 211.005 46.527 208.769Z" fill="#0D99FF"/>
<path d="M228.056 157.117L271.417 220.947C274.611 225.649 273.813 232.678 269.63 236.612L229.903 274.013C227.837 275.96 225.281 276.869 222.696 276.589C220.141 276.31 217.885 274.892 216.328 272.595L215.23 270.988C210.967 272.106 206.475 270.429 204 266.785L180.453 232.119L174.404 233.507C172.996 233.826 171.519 233.247 170.711 232.059L156.536 211.192C155.718 209.984 155.718 208.426 156.546 207.228L160.13 202.027C157.624 197.374 159.022 191.503 163.394 188.528L213.632 154.382C215.379 153.193 217.386 152.584 219.452 152.584C220.101 152.584 220.759 152.644 221.418 152.774C223.804 153.233 225.91 154.471 227.447 156.319C227.657 156.558 227.856 156.838 228.056 157.117ZM214.631 270.099L172.966 208.766C169.772 204.063 170.571 197.034 174.753 193.101L214.481 155.709C215.339 154.901 216.278 154.282 217.266 153.842C216.188 154.102 215.14 154.551 214.191 155.2L163.953 189.347C159.92 192.082 158.693 197.554 161.148 201.797C161.248 201.967 161.238 202.176 161.128 202.326L157.365 207.787C156.776 208.646 156.766 209.764 157.355 210.623L171.529 231.49C172.108 232.339 173.166 232.758 174.174 232.528L180.563 231.061C180.762 231.011 180.972 231.101 181.092 231.27L204.838 266.215C207.004 269.41 210.887 270.928 214.631 270.099ZM270.599 221.506L227.238 157.686C227.068 157.427 226.878 157.187 226.689 156.948C225.341 155.33 223.554 154.342 221.588 154.122C219.302 153.872 217.016 154.691 215.17 156.428L175.442 193.819C171.609 197.434 170.87 203.884 173.795 208.197L217.156 272.026C218.543 274.073 220.56 275.341 222.816 275.581C223.085 275.611 223.355 275.621 223.624 275.621C225.64 275.621 227.597 274.802 229.224 273.274L268.952 235.873C272.795 232.269 273.523 225.819 270.599 221.506Z" fill="#0D99FF"/>
<path d="M157.759 118.149L150.392 121.074C150.133 121.174 150.013 121.464 150.113 121.723C150.212 121.983 150.502 122.103 150.761 122.003L158.587 118.888C158.847 118.788 158.966 118.498 158.867 118.239L149.883 95.6245C149.803 95.4248 149.614 95.305 149.424 95.305C149.364 95.305 149.304 95.315 149.244 95.3449C148.985 95.4448 148.865 95.7343 148.965 95.9939L157.759 118.149Z" fill="#0D99FF"/>
<path d="M128.867 43.5553C128.807 43.5553 128.748 43.5653 128.688 43.5953L122.01 46.2511C121.75 46.3509 121.631 46.6405 121.73 46.9001C121.83 47.1597 122.12 47.2795 122.379 47.1796L128.598 44.7135L147.344 91.9192C147.444 92.1788 147.733 92.2986 147.992 92.1987C148.252 92.0989 148.372 91.8093 148.272 91.5497L129.346 43.8848C129.247 43.6752 129.067 43.5553 128.867 43.5553Z" fill="#0D99FF"/>
<path d="M110.176 52.0241L118.58 48.6794C118.84 48.5795 118.96 48.29 118.86 48.0304C118.78 47.8307 118.59 47.7109 118.401 47.7109C118.341 47.7109 118.281 47.7209 118.221 47.7508L109.816 51.0955C109.557 51.1954 109.437 51.4849 109.537 51.7445C109.627 51.9941 109.916 52.1239 110.176 52.0241Z" fill="#0D99FF"/>
<path d="M101.699 54.8478C101.62 54.6481 101.43 54.5283 101.24 54.5283C101.18 54.5283 101.121 54.5382 101.061 54.5682L65.5254 68.686C65.2659 68.7858 65.1462 69.0753 65.246 69.3349L65.7251 70.5331C65.8249 70.7927 66.1144 70.9125 66.3739 70.8126C66.6335 70.7128 66.7531 70.4232 66.6533 70.1636L66.3639 69.4348L101.44 55.4967C101.68 55.3969 101.799 55.1074 101.699 54.8478Z" fill="#0D99FF"/>
<path d="M152.555 132.889C152.605 133.009 152.605 133.149 152.545 133.268C152.496 133.388 152.396 133.488 152.276 133.538L105.401 152.159C105.381 152.169 105.361 152.169 105.332 152.169C105.312 152.179 105.292 152.179 105.272 152.179C105.182 152.189 105.102 152.189 105.012 152.149L82.2336 142.324C82.1537 142.284 82.0839 142.224 82.034 142.154C82.024 142.134 82.014 142.124 82.004 142.104C81.9941 142.084 81.9742 142.074 81.9642 142.045L58.9061 83.976C58.8063 83.7164 58.9261 83.4268 59.1856 83.327L69.1974 79.3533L67.4906 75.04C67.3908 74.7804 67.5104 74.4909 67.77 74.3911C67.8299 74.3711 67.8898 74.3511 67.9497 74.3511C68.1493 74.3511 68.3389 74.4709 68.4088 74.6706L70.1158 78.9838L122.351 58.2265C122.41 58.2066 122.47 58.1866 122.53 58.1866C122.73 58.1866 122.92 58.3064 122.989 58.5061L152.555 132.889ZM104.313 150.761L98.464 136.034L83.7409 141.885L94.0222 146.318L104.313 150.761ZM151.438 132.799L122.271 59.3448L70.505 79.9124L69.5767 80.2818L60.0241 84.0758L82.7128 141.216L98.5539 134.926C98.6138 134.906 98.6737 134.886 98.7335 134.886C98.8034 134.886 98.8634 134.896 98.9333 134.926C99.053 134.976 99.1528 135.075 99.2027 135.195L105.491 151.04L151.438 132.799Z" fill="#0D99FF"/>
<path d="M113.676 104.784C113.616 104.784 113.556 104.794 113.496 104.824L106.02 107.799L103.045 100.321C102.965 100.122 102.776 100.002 102.586 100.002C102.526 100.002 102.466 100.012 102.406 100.042C102.147 100.142 102.027 100.431 102.127 100.691L105.101 108.169L97.6251 111.144C97.3656 111.244 97.2458 111.534 97.3456 111.793C97.4454 112.053 97.7349 112.173 97.9944 112.073L105.471 109.097L108.445 116.576C108.545 116.835 108.835 116.955 109.094 116.855C109.354 116.755 109.474 116.466 109.374 116.206L106.399 108.728L113.876 105.753C114.135 105.653 114.255 105.363 114.155 105.104C114.065 104.904 113.875 104.784 113.676 104.784Z" fill="#0D99FF"/>
</svg>
