<svg width="91" height="83" viewBox="0 0 91 83" fill="none" xmlns="http://www.w3.org/2000/svg">
<g opacity="0.3">
<g clip-path="url(#clip0_2859_24102)">
<path d="M90.0124 67.9443C90.1327 67.7044 90.0991 67.4158 89.9268 67.2101L84.4077 60.6145C84.3291 60.5205 84.2263 60.4497 84.1103 60.4098L75.9785 57.6105C75.7248 57.5232 75.4433 57.5948 75.2621 57.7928C75.0266 58.0503 69.4945 64.1547 69.5082 69.0949C69.5219 74.0293 72.3457 77.2348 72.4659 77.3688C72.5016 77.4087 72.5418 77.4438 72.5856 77.474C72.6294 77.5041 72.6766 77.529 72.7265 77.5482C72.8947 77.6126 76.8974 79.1052 81.5111 77.3555C86.1302 75.6038 89.8561 68.2563 90.0124 67.9443ZM84.3364 69.8245L76.4766 71.276C76.2937 71.3098 76.1143 71.2663 75.9723 71.1686C75.8303 71.0708 75.7255 70.9189 75.6918 70.7359L74.7943 65.8763C74.7618 65.7006 74.8005 65.5192 74.9018 65.372C75.0031 65.2248 75.1588 65.1239 75.3345 65.0915L76.2994 64.9133C76.6652 64.8458 77.0167 65.0876 77.0842 65.4534L77.6811 68.6857L83.9135 67.5346C84.0892 67.5021 84.2707 67.5408 84.4178 67.6421C84.565 67.7434 84.666 67.899 84.6984 68.0747L84.8766 69.0396C84.9441 69.4055 84.7023 69.7569 84.3364 69.8245Z" fill="#25D12C"/>
</g>
<g clip-path="url(#clip1_2859_24102)">
<path d="M13.2759 72.7193C12.6676 73.4424 11.5784 73.5363 10.8553 72.928C10.1323 72.3197 10.0384 71.2305 10.6467 70.5074C11.2549 69.7844 12.3442 69.6905 13.0672 70.2987C13.7903 70.907 13.8842 71.9963 13.2759 72.7193ZM13.771 66.7936C11.786 66.0442 9.4607 66.5799 8.01743 68.2955C6.18709 70.4712 6.46775 73.7269 8.64344 75.5572C10.8191 77.3876 14.0748 77.1069 15.9051 74.9312C17.3484 73.2156 17.4783 70.8329 16.4002 69.0055L18.8057 66.1462L21.4349 68.3581L23.6468 65.7289L21.0176 63.517L22.1235 62.2024L19.4943 59.9905L13.771 66.7936Z" fill="#25D12C"/>
</g>
<g clip-path="url(#clip2_2859_24102)">
<path d="M45.5748 9.85236L43.6928 8.61053C43.6928 8.61053 39.3019 5.71329 36.4047 10.1041C33.5075 14.4949 37.8983 17.3922 37.8983 17.3922L39.7803 18.634L38.5385 20.516L47.3218 26.3116L55.6 13.7659L46.8166 7.97034L45.5748 9.85236ZM47.9373 16.8141L49.9924 18.1702L49.1642 19.4254L47.1091 18.0694C46.6462 18.2994 46.0771 18.2881 45.615 17.9832C44.921 17.5253 44.7312 16.592 45.188 15.8997C45.6448 15.2074 46.5775 15.0148 47.2715 15.4727C47.7336 15.7776 47.965 16.2969 47.9373 16.8141ZM44.7476 11.1059L40.6075 17.3804L38.7338 16.1442C38.2123 15.7904 35.7163 13.8781 37.6599 10.9324C39.6036 7.98667 42.3442 9.5321 42.8673 9.8652L44.7476 11.1059Z" fill="#25D12C"/>
</g>
</g>
<defs>
<clipPath id="clip0_2859_24102">
<rect width="20.6154" height="20.6154" fill="white" transform="translate(73.7375 53.8021) rotate(34.5365)"/>
</clipPath>
<clipPath id="clip1_2859_24102">
<rect width="20.6154" height="20.6154" fill="white" transform="translate(0.204468 69.5801) rotate(-49.9271)"/>
</clipPath>
<clipPath id="clip2_2859_24102">
<rect width="20.6154" height="20.6154" fill="white" transform="translate(29.6508 17.9958) rotate(-56.5815)"/>
</clipPath>
</defs>
</svg>
