<svg width="8" height="14" viewBox="0 0 8 14" fill="none" xmlns="http://www.w3.org/2000/svg">
<path d="M6.80579 5.66787C6.31783 5.66788 5.92227 6.06344 5.92227 6.55139C5.92227 7.03934 6.31783 7.43491 6.80579 7.43491L6.80579 5.66787ZM7.5444 7.17613C7.88943 6.8311 7.88943 6.27169 7.5444 5.92665L1.92173 0.303986C1.5767 -0.0410485 1.01728 -0.0410485 0.67225 0.303986C0.327216 0.649021 0.327216 1.20843 0.67225 1.55347L5.67018 6.55139L0.672251 11.5493C0.327217 11.8944 0.327217 12.4538 0.672251 12.7988C1.01729 13.1438 1.5767 13.1438 1.92173 12.7988L7.5444 7.17613ZM6.80579 7.43491L6.91966 7.43491L6.91966 5.66787L6.80579 5.66787L6.80579 7.43491Z" fill="#25D12C"/>
</svg>
