<svg width="144" height="40" viewBox="0 0 144 40" fill="none" xmlns="http://www.w3.org/2000/svg">
<path fill-rule="evenodd" clip-rule="evenodd" d="M76.3763 39.0179H96.0732C99.0164 39.0179 101.432 37.8103 103.394 35.3942C105.28 33.0548 106.262 30.2628 106.262 27.094C106.262 20.679 98.0358 16.1507 94.8648 16.1507H84.0734C83.2432 16.1507 82.5626 15.7732 82.0355 15.1701C81.5069 14.4904 81.2054 13.7361 81.2054 12.83C81.2054 11.7735 81.5069 10.8681 82.0355 10.1132C82.6394 9.35896 83.3936 8.90628 84.2997 8.90628H104.525V0.830169H83.9214C80.2233 0.830169 77.3545 1.96264 75.3167 4.15084C73.5067 6.18867 72.5998 8.90552 72.5998 12.151C72.5998 15.3205 73.5067 18.1133 75.3167 20.376C77.3545 22.8665 79.7706 24.1508 82.7138 24.1508H95.1671C95.9205 24.1508 96.5251 24.3772 96.977 24.9795C97.5057 25.5833 97.732 26.3383 97.732 27.1692C97.732 28.1505 97.3545 29.0559 96.7507 29.8109C96.0717 30.4899 95.3167 30.8674 94.3369 30.8674H74.4129L74.1113 30.3387L66.6398 6.33982L66.2623 5.58484C64.4508 1.88668 61.4325 0.0759632 57.2816 0.0759632C55.0175 0.0759632 52.9796 0.603829 51.1681 1.7363C49.2815 2.86799 48.0738 4.52833 47.3948 6.64212L37.3568 38.942L46.4887 39.0187L55.6957 10.2651C55.9221 9.35896 56.4507 8.90628 57.1297 8.90628C57.5072 8.90628 57.8087 9.05667 58.0351 9.28377C58.2614 9.5853 58.4126 9.8876 58.4877 10.2651L67.77 39.0187H76.3763V39.0179ZM8.45283 12.6037V38.942H0V9.73568C0 5.96233 0.906127 3.32067 2.86799 1.7363C4.37718 0.603829 6.64135 0 9.81087 0C12.3766 0 14.5655 0.754981 16.5274 2.18898C18.4893 3.62297 19.7721 5.58484 20.4519 8.00015L25.9608 27.3956L26.8669 30.0372C26.9421 30.5651 27.2444 30.9426 27.5459 31.2433C27.9234 31.5464 28.3002 31.6976 28.7536 31.5464C29.5086 31.4712 29.8861 31.0178 29.8861 30.3387V0.906126H38.5652V29.9613C38.5652 33.2067 37.811 35.6228 36.2259 37.3583C34.7167 39.0939 32.4525 40 29.4334 40C26.7917 40 24.6028 39.4714 22.8672 38.566C20.7542 37.5095 19.3954 35.8492 18.7916 33.6594L12.4525 11.5472L11.9998 10.1132C11.8487 9.5853 11.5472 9.20781 11.1697 8.83032C10.7922 8.52803 10.3395 8.45284 9.88683 8.52803C9.43415 8.60399 9.13262 8.83033 8.83032 9.28301C8.58219 9.69244 8.45159 10.1623 8.45283 10.641V12.6037ZM143.544 39.0179L133.733 6.33982L133.356 5.58484C131.544 1.88668 128.526 0.0759632 124.375 0.0759632C122.111 0.0759632 120.073 0.603829 118.262 1.7363C116.374 2.86799 115.168 4.52833 114.487 6.64212L104.45 38.942L113.582 39.0187L122.789 10.2651C123.015 9.35896 123.544 8.90628 124.223 8.90628C124.6 8.90628 124.902 9.05667 125.128 9.28377C125.356 9.5853 125.506 9.8876 125.583 10.2651L134.865 39.0187H143.544V39.0179Z" fill="#808B93"/>
</svg>
