<svg width="148" height="41" viewBox="0 0 148 41" fill="none" xmlns="http://www.w3.org/2000/svg">
<path d="M125.861 37.5221C127.915 37.7211 129.967 37.9349 132.015 38.1561L136.535 26.9937L140.832 39.1857C143.037 39.4619 145.241 39.7519 147.437 40.0546L139.904 18.6751L147.44 0.0659275H141.058L140.991 0.157342L136.92 10.2104L133.346 0.067402H127.045L133.55 18.5296L125.862 37.5221H125.861ZM121.095 37.0847V0.0659275H114.796V36.5652C116.897 36.7273 118.999 36.9013 121.095 37.0842M73.7765 35.0146C75.477 35.0146 77.1755 35.0273 78.8711 35.0411V21.4411H86.4383V15.6496H78.8716V5.86433H87.5869V0.0659275H72.5478V35.0195C72.9562 35.0195 73.3666 35.0131 73.7765 35.0146ZM54.2188 35.3684C56.3174 35.2937 58.4179 35.2308 60.5214 35.1797V5.86531H66.4093V0.067402H48.331V5.86531H54.2198V35.3684H54.2188ZM6.04266 39.2717V17.2169L13.5013 38.3812C15.795 38.1236 18.0921 37.8813 20.3956 37.6523V0.066419H14.3515V22.9116L6.30314 0.066419H0V40.0645H0.0378434C2.0347 39.7882 4.03843 39.5258 6.04266 39.2717ZM42.2568 5.86383V0.066419H27.2163V37.0257C32.2204 36.5937 37.2303 36.2314 42.2446 35.939V30.1362C39.337 30.3053 36.4353 30.4999 33.5406 30.7166V21.4435H41.1078V15.6486H33.5406V5.86383H42.2568ZM100.071 29.859V0.0644531H93.744V35.3896C98.7767 35.5744 103.79 35.8319 108.786 36.1563V30.35C105.886 30.1627 102.982 30.0001 100.071 29.8585" fill="#808B93"/>
</svg>
