<svg width="112" height="40" viewBox="0 0 112 40" fill="none" xmlns="http://www.w3.org/2000/svg">
<path fill-rule="evenodd" clip-rule="evenodd" d="M14.2365 1.77375C7.00435 10.267 0.0700974 20.7994 0.000564525 28.672C-0.0265167 31.6341 0.91913 34.22 3.18737 36.1786C6.45175 38.9994 10.0484 39.9941 13.6275 40C18.8579 40.0073 24.0516 37.8972 28.1182 36.2701C34.9668 33.5312 110.672 0.655364 110.672 0.655364C111.402 0.289402 111.266 -0.166585 110.351 0.061044C109.983 0.153266 27.9345 22.3884 27.9345 22.3884C26.3803 22.8279 24.7744 23.0579 23.1594 23.072C16.8539 23.1094 11.2429 19.6093 11.2883 12.2337C11.3059 9.3477 12.1893 5.8674 14.2365 1.77375Z" fill="#808B93"/>
</svg>
