<svg width="47" height="33" viewBox="0 0 47 33" fill="none" xmlns="http://www.w3.org/2000/svg">
<path d="M42.1611 0.371094H5.13962C2.81454 0.371094 0.929688 2.25594 0.929688 4.58103V28.1612C0.929688 30.4862 2.81454 32.3711 5.13962 32.3711H42.1611C44.4862 32.3711 46.371 30.4862 46.371 28.1612V4.58103C46.371 2.25594 44.4862 0.371094 42.1611 0.371094Z" fill="#526273"/>
<path d="M26.7099 10.8643H20.5859V21.8701H26.7099V10.8643Z" fill="#F16522"/>
<path d="M20.9756 16.37C20.9756 14.1376 22.0211 12.1494 23.6488 10.8676C22.4574 9.9306 20.9564 9.37109 19.3231 9.37109C15.4574 9.37109 12.3242 12.5054 12.3242 16.3711C12.3242 20.2367 15.4574 23.3711 19.3231 23.3711C20.9564 23.3711 22.4574 22.8116 23.6488 21.8746C22.0211 20.5928 20.9756 18.6046 20.9756 16.3722" fill="#E41B24"/>
<path d="M34.9769 16.3688C34.9769 20.2345 31.8437 23.3688 27.978 23.3688C26.3447 23.3688 24.8437 22.8093 23.6523 21.8723C25.28 20.5905 26.3255 18.6023 26.3255 16.37C26.3255 14.1376 25.28 12.1494 23.6523 10.8676C24.8426 9.9306 26.3447 9.37109 27.978 9.37109C31.8437 9.37109 34.9769 12.5043 34.9769 16.37M34.3089 20.707V20.482H34.3993V20.4368H34.1676V20.482H34.258V20.707H34.3078H34.3089ZM34.7576 20.707V20.4357H34.6864L34.605 20.6222L34.5237 20.4357H34.4524V20.707H34.5022V20.5024L34.579 20.6798H34.631L34.7079 20.5024V20.7081H34.7576V20.707Z" fill="#F89E1C"/>
</svg>
