<svg width="20" height="25" viewBox="0 0 20 25" fill="none" xmlns="http://www.w3.org/2000/svg">
<path d="M17.8286 9.56891V8.33436C17.8286 4.17872 14.4468 0.796875 10.2911 0.796875C6.13551 0.796875 2.75367 4.17872 2.75367 8.33436V9.56891H0.738281V24.7969H19.844V9.56891H17.8286ZM14.7563 15.7505L14.3413 16.0266L10.8662 18.341L8.34786 20.0187C8.20541 20.1136 8.04186 20.1594 7.88183 20.1594C7.62331 20.1594 7.36831 20.0398 7.20299 19.8164L6.1144 18.341L5.61144 17.6586C5.33533 17.284 5.41623 16.7582 5.78906 16.4821C6.16364 16.206 6.68947 16.2851 6.96558 16.6597L8.08055 18.1721L11.3024 16.0266L13.8207 14.3489C14.2076 14.0903 14.7299 14.1959 14.9884 14.5828C15.247 14.9697 15.1414 15.492 14.7545 15.7505H14.7563ZM15.5125 9.56891H5.06626V8.33436C5.06626 5.45372 7.40876 3.11123 10.2894 3.11123C13.17 3.11123 15.5125 5.45372 15.5125 8.33436V9.56891Z" fill="#99A2A9"/>
</svg>
