<svg width="28" height="33" viewBox="0 0 28 33" fill="none" xmlns="http://www.w3.org/2000/svg">
<path d="M8.03276 31.0291L8.58734 27.5065L7.352 27.4779H1.45312L5.55254 1.48486C5.56526 1.4064 5.60662 1.33323 5.66706 1.28127C5.7275 1.22931 5.80491 1.20068 5.8855 1.20068H15.8318C19.1338 1.20068 21.4126 1.88781 22.6023 3.24403C23.1601 3.88025 23.5153 4.54511 23.6871 5.27677C23.8674 6.04448 23.8705 6.96171 23.6945 8.0804L23.6818 8.16205V8.87887L24.2395 9.19486C24.7093 9.44405 25.0825 9.72929 25.3689 10.0559C25.846 10.5999 26.1546 11.2912 26.285 12.1109C26.4197 12.9539 26.3751 13.957 26.1546 15.0927C25.9001 16.3991 25.4887 17.5368 24.933 18.4679C24.4219 19.3257 23.7709 20.0372 22.9978 20.5886C22.2598 21.1124 21.3829 21.5101 20.3914 21.7646C19.4307 22.0148 18.3354 22.141 17.134 22.141H16.3599C15.8064 22.141 15.2688 22.3403 14.8467 22.6977C14.4236 23.0625 14.1437 23.5608 14.0578 24.1059L13.9995 24.4229L13.0197 30.6314L12.9752 30.8594C12.9635 30.9315 12.9434 30.9676 12.9137 30.992C12.8872 31.0142 12.849 31.0291 12.8119 31.0291H8.03276Z" fill="#253B80"/>
<path d="M24.7643 8.24609C24.7346 8.4359 24.7007 8.62995 24.6625 8.8293C23.3508 15.5637 18.8633 17.8902 13.132 17.8902H10.2138C9.51292 17.8902 8.92229 18.3992 8.81307 19.0906L7.319 28.5661L6.89591 31.252C6.82486 31.7059 7.17479 32.1152 7.63287 32.1152H12.8086C13.4215 32.1152 13.9421 31.6698 14.0386 31.0654L14.0895 30.8024L15.064 24.6183L15.1265 24.279C15.222 23.6724 15.7437 23.2271 16.3566 23.2271H17.1307C22.1452 23.2271 26.0707 21.1912 27.218 15.2997C27.6973 12.8386 27.4492 10.7836 26.181 9.33828C25.7971 8.90247 25.321 8.54088 24.7643 8.24609Z" fill="#179BD7"/>
<path d="M23.3916 7.69786C23.1912 7.63954 22.9844 7.58652 22.7724 7.5388C22.5592 7.49214 22.3408 7.45079 22.116 7.41474C21.3292 7.28749 20.4671 7.22705 19.5435 7.22705H11.7476C11.5557 7.22705 11.3733 7.27053 11.21 7.34899C10.8505 7.52184 10.5833 7.86222 10.5186 8.27894L8.86022 18.783L8.8125 19.0895C8.92172 18.3981 9.51235 17.8891 10.2133 17.8891H13.1314C18.8627 17.8891 23.3503 15.5616 24.6619 8.82822C24.7012 8.62887 24.734 8.43482 24.7637 8.24501C24.4318 8.06899 24.0724 7.91842 23.6853 7.79011C23.5899 7.7583 23.4913 7.72755 23.3916 7.69786Z" fill="#153167"/>
<path d="M10.5206 8.27907C10.5853 7.86234 10.8525 7.52196 11.212 7.35018C11.3763 7.27171 11.5577 7.22824 11.7496 7.22824H19.5455C20.4691 7.22824 21.3312 7.28868 22.118 7.41592C22.3428 7.45198 22.5612 7.49333 22.7743 7.53999C22.9864 7.58771 23.1932 7.64072 23.3936 7.69904C23.4933 7.72873 23.5919 7.75949 23.6884 7.79024C24.0754 7.91854 24.4349 8.07018 24.7668 8.24514C25.157 5.75644 24.7636 4.06195 23.418 2.52759C21.9345 0.838411 19.2571 0.115234 15.831 0.115234H5.88465C5.1848 0.115234 4.58781 0.624215 4.47965 1.31664L0.336764 27.5769C0.255115 28.0964 0.655937 28.5651 1.17976 28.5651H7.3204L8.86219 18.7832L10.5206 8.27907Z" fill="#264686"/>
</svg>
