<svg width="37" height="25" viewBox="0 0 37 25" fill="none" xmlns="http://www.w3.org/2000/svg">
<path d="M22.3977 8.91631C22.3977 9.02068 22.4046 9.12504 22.4081 9.2294H0.425781V6.56815C0.425781 5.03923 1.66422 3.80079 3.19314 3.80079H22.3977V8.91631ZM26.4017 15.6373L30.8719 18.0585V22.0295C30.8719 23.5584 29.6335 24.7969 28.1046 24.7969H3.19314C1.66422 24.7969 0.425781 23.5584 0.425781 22.0295V12.209H23.1473C23.8309 13.6405 24.9545 14.8528 26.4017 15.6355V15.6373ZM12.2362 20.9302H2.52174V21.9947H12.2362V20.9302ZM15.6088 19.1404H2.52174V20.2049H15.6088V19.1404ZM30.8719 0.796875L36.7371 2.99545V8.91631C36.7371 10.7635 35.7248 12.4647 34.1002 13.3448L30.8719 15.0929L27.6436 13.3448C27.1009 13.0508 26.6278 12.6629 26.2365 12.2124C25.5233 11.388 25.0867 10.3461 25.0172 9.23114C25.0102 9.12678 25.0067 9.02242 25.0067 8.91805V2.99545L30.8719 0.796875ZM30.8719 7.43088L29.0473 8.64671L28.2942 7.62569L28.1254 7.39783C27.8976 7.08822 27.461 7.02213 27.1531 7.24998C27.0227 7.34739 26.9374 7.48132 26.8974 7.62743C26.8435 7.82572 26.8748 8.04488 27.0053 8.2223L27.748 9.23114L28.3203 10.0069C28.4559 10.1913 28.6664 10.2904 28.8803 10.2904C29.0125 10.2904 29.1465 10.2522 29.2647 10.1739L30.6789 9.23288L30.8702 9.10591L34.5612 6.64816C34.8812 6.43595 34.9682 6.00285 34.7542 5.6828C34.542 5.36275 34.1089 5.27578 33.7889 5.48973L30.8685 7.43436L30.8719 7.43088Z" fill="#99A2A9"/>
</svg>
