<svg width="20" height="20" viewBox="0 0 20 20" fill="none" xmlns="http://www.w3.org/2000/svg">
<path id="Vector" fill-rule="evenodd" clip-rule="evenodd" d="M4.93709 0.0556894C4.45971 0.174166 4.03416 0.504322 3.81413 0.926939C3.63248 1.27577 3.58944 1.50284 3.58944 2.11186V2.61776H8.75897C13.7792 2.61776 13.9372 2.61999 14.2302 2.69491C14.6715 2.8078 14.9712 2.9812 15.3095 3.31956C15.6479 3.65792 15.8213 3.9576 15.9342 4.39885C16.0077 4.68643 16.0113 4.84085 16.0113 7.69588C16.0113 10.5509 16.0077 10.7053 15.9342 10.9929C15.8213 11.4342 15.6479 11.7339 15.3095 12.0722C14.9712 12.4106 14.6715 12.584 14.2302 12.6969C13.9372 12.7718 13.7792 12.774 8.75897 12.774H3.58944V15.5846C3.58944 17.493 3.60334 18.4616 3.6328 18.6022C3.77299 19.2718 4.34373 19.8316 5.01678 19.9596C5.18498 19.9915 6.72788 20.0007 10.5776 19.9924L15.9056 19.981L15.2503 19.2193C14.5396 18.3932 14.3972 18.1624 14.3236 17.7185C14.2071 17.0156 14.6272 16.1999 15.2604 15.8993L15.4644 15.8024V14.9185C15.4644 14.4324 15.4821 13.94 15.5037 13.8242C15.6321 13.1364 16.2062 12.5578 16.8945 12.4223C17.1471 12.3726 18.5754 12.3872 18.7359 12.4411L18.8238 12.4706V7.03831C18.8238 3.2094 18.811 1.54487 18.7805 1.39897C18.6419 0.737252 18.0883 0.183775 17.4254 0.044166C17.1128 -0.0216543 5.20448 -0.0106777 4.93709 0.0556894ZM0.789907 3.86171C0.397641 3.99772 0.119399 4.30733 0.0339694 4.70284C0.0039303 4.84194 -0.00552282 5.78975 0.0029928 7.81307L0.0152194 10.7232L0.124204 10.9452C0.24768 11.1966 0.436938 11.3801 0.696821 11.5003L0.874594 11.5826H7.41756H13.9605L14.1825 11.4736C14.4339 11.3501 14.6174 11.1609 14.7376 10.901C14.819 10.7251 14.8199 10.6915 14.8199 7.69588C14.8199 4.70022 14.819 4.66667 14.7376 4.49077C14.6174 4.23088 14.4339 4.04163 14.1825 3.91815L13.9605 3.80917L7.47616 3.80046C1.33108 3.79217 0.981235 3.79538 0.789907 3.86171ZM2.43397 5.39503C2.38928 5.41772 2.32338 5.48596 2.28748 5.54671C2.22877 5.64608 2.22225 5.86147 2.22225 7.69588C2.22225 9.52788 2.22885 9.74577 2.28729 9.84471C2.39788 10.0319 2.60276 10.0873 2.80252 9.98397C2.98026 9.89206 3.0035 9.78323 3.0035 9.04245C3.0035 8.2444 2.92784 8.33018 3.64803 8.31159C4.05577 8.30108 4.14475 8.28635 4.33163 8.19846C4.98159 7.89284 5.34135 7.17518 5.17338 6.51944C5.05202 6.04581 4.76967 5.70139 4.33163 5.49264L4.07772 5.37167L3.29647 5.36272C2.80741 5.35713 2.48483 5.36921 2.43397 5.39503ZM6.22057 5.38913C6.00705 5.47975 6.01131 5.43342 6.01131 7.66366C6.01131 9.17745 6.0237 9.75061 6.05799 9.82588C6.14307 10.0126 6.25963 10.0397 6.97616 10.039C7.39518 10.0385 7.72815 10.018 7.89725 9.98217C8.56202 9.84128 9.06131 9.35987 9.31635 8.61385C9.46662 8.1742 9.49491 7.42452 9.37834 6.96964C9.22291 6.36311 8.95327 5.93987 8.55127 5.67143C8.15862 5.40924 8.0185 5.37963 7.10506 5.36577C6.66463 5.35905 6.26662 5.3696 6.22057 5.38913ZM10.3772 5.46612L10.2496 5.5801V7.69588V9.81167L10.3821 9.93007C10.4972 10.0329 10.5356 10.0456 10.675 10.0269C10.7817 10.0126 10.8648 9.9712 10.9233 9.90315C11.0089 9.80366 11.0113 9.77725 11.0113 8.92417V8.04745H11.6162H12.221L12.3477 7.93424C12.4525 7.84057 12.4744 7.79276 12.4744 7.65682C12.4744 7.52088 12.4525 7.47307 12.3477 7.3794L12.221 7.2662H11.6162H11.0113V6.69979V6.13338H11.6793H12.3472L12.4801 6.00057C12.6299 5.85073 12.6496 5.71924 12.5478 5.54706C12.5121 5.48647 12.4409 5.41784 12.3897 5.39452C12.3315 5.36799 11.9617 5.35213 11.4007 5.35213H10.5048L10.3772 5.46612ZM3.01237 6.84143L3.02303 7.54944L3.47092 7.54229C3.84327 7.53635 3.94319 7.52143 4.06319 7.45401C4.45256 7.23514 4.54717 6.73975 4.26385 6.40303C4.08866 6.19483 3.90209 6.13522 3.42252 6.13424L3.00174 6.13338L3.01237 6.84143ZM6.79256 7.69135V9.25838H7.19651C7.80858 9.25838 8.08561 9.15014 8.3469 8.80897C8.54959 8.54432 8.63963 8.24538 8.65862 7.77401C8.68299 7.16948 8.57717 6.80081 8.28717 6.47979C8.04229 6.20878 7.90092 6.15971 7.31014 6.14085L6.79256 6.12432V7.69135ZM17.0074 13.6104C16.8637 13.6742 16.7334 13.8118 16.678 13.9582C16.6513 14.0287 16.6363 14.5724 16.6363 15.4719V16.8756H16.303C15.9196 16.8756 15.7596 16.9287 15.6106 17.1058C15.4771 17.2645 15.4392 17.4632 15.5086 17.641C15.5831 17.832 17.285 19.8164 17.4619 19.9185C17.63 20.0156 17.8073 20.0232 17.981 19.9408C18.1102 19.8794 19.7963 17.9531 19.9257 17.719C20.0176 17.5528 20.0108 17.3533 19.9072 17.1726C19.7743 16.9408 19.6158 16.8756 19.1858 16.8756H18.8238V15.4453C18.8238 14.036 18.8225 14.0128 18.7362 13.8593C18.5873 13.5943 18.4581 13.555 17.7414 13.5568C17.315 13.5578 17.0884 13.5744 17.0074 13.6104Z" fill="#024573"/>
</svg>
