<svg width="500" height="500" viewBox="0 0 500 500" fill="none" xmlns="http://www.w3.org/2000/svg">
<rect width="500" height="500" fill="#D9D9D9"/>
<path d="M400 112.5C406.875 112.5 412.5 118.125 412.5 125V374.844L408.594 369.766L302.344 232.266C298.828 227.656 293.281 225 287.5 225C281.719 225 276.25 227.656 272.656 232.266L207.812 316.172L183.984 282.812C180.469 277.891 174.844 275 168.75 275C162.656 275 157.031 277.891 153.516 282.891L91.0156 370.391L87.5 375.234V375V125C87.5 118.125 93.125 112.5 100 112.5H400ZM100 75C72.4219 75 50 97.4219 50 125V375C50 402.578 72.4219 425 100 425H400C427.578 425 450 402.578 450 375V125C450 97.4219 427.578 75 400 75H100ZM162.5 225C167.425 225 172.301 224.03 176.851 222.145C181.4 220.261 185.534 217.499 189.017 214.017C192.499 210.534 195.261 206.4 197.145 201.851C199.03 197.301 200 192.425 200 187.5C200 182.575 199.03 177.699 197.145 173.149C195.261 168.6 192.499 164.466 189.017 160.983C185.534 157.501 181.4 154.739 176.851 152.855C172.301 150.97 167.425 150 162.5 150C157.575 150 152.699 150.97 148.149 152.855C143.6 154.739 139.466 157.501 135.983 160.983C132.501 164.466 129.739 168.6 127.855 173.149C125.97 177.699 125 182.575 125 187.5C125 192.425 125.97 197.301 127.855 201.851C129.739 206.4 132.501 210.534 135.983 214.017C139.466 217.499 143.6 220.261 148.149 222.145C152.699 224.03 157.575 225 162.5 225Z" fill="white"/>
</svg>
