<svg width="178" height="41" viewBox="0 0 178 41" fill="none" xmlns="http://www.w3.org/2000/svg">
<path d="M24.3545 26.8263V12.2108C27.169 14.2308 30.6223 15.4245 34.349 15.4245V9.84339C32.1952 9.38628 30.3029 8.22254 28.9056 6.61967C26.654 5.15253 25.0332 2.80311 24.5202 0.0644531H19.2604L19.2505 28.8763C19.1347 32.1 16.4759 34.6929 13.2242 34.6929C11.2061 34.6929 9.42961 33.6929 8.32377 32.1778C6.40351 31.1578 5.08209 29.1477 5.08209 26.8263C5.08209 23.4948 7.78881 20.786 11.1163 20.786C11.7371 20.786 12.3379 20.8918 12.9008 21.0675V15.4345C5.76276 15.5922 0 21.4567 0 28.6527C0 32.1299 1.34937 35.2958 3.55108 37.6651C5.69489 39.1702 8.31578 40.0645 11.1283 40.0645C18.4161 40.0645 24.3545 34.12 24.3545 26.8263Z" fill="#808B93"/>
<path d="M43.5469 9.86084H65.9891L63.9311 16.2903H58.1085V40.054H50.8506V16.2903L43.5549 16.3003L43.5469 9.86084Z" fill="#808B93"/>
<path d="M102.764 9.86084H125.731L123.673 16.2903H117.337V40.054H110.069V16.2903L102.774 16.3003L102.764 9.86084Z" fill="#808B93"/>
<path d="M67.3667 19.4668H74.5567V40.0546H67.4046L67.3667 19.4668Z" fill="#808B93"/>
<path d="M77.4192 9.7832H84.6091V23.8438L91.7312 16.8414H100.309L91.2941 25.5904L101.384 40.0502H93.4659L86.731 30.0277L84.5972 32.0957V40.0482H77.4092V9.7832H77.4192Z" fill="#808B93"/>
<path d="M153.586 9.7832H160.776V23.8438L167.897 16.8414H176.474L167.459 25.5904L177.554 40.0542H169.645L162.912 30.0317L160.778 32.0997V40.0522H153.588V9.7832H153.586Z" fill="#808B93"/>
<path d="M70.9578 17.115C72.9559 17.115 74.5768 15.4922 74.5768 13.4921C74.5768 11.492 72.9559 9.86914 70.9578 9.86914C68.9597 9.86914 67.3389 11.492 67.3389 13.4921C67.3389 15.4942 68.9597 17.115 70.9578 17.115Z" fill="#808B93"/>
<path d="M137.015 33.723C133.705 33.723 131.028 31.0422 131.028 27.7307C131.028 24.4192 133.707 21.7384 137.015 21.7384C140.322 21.7384 143.001 24.4192 143.001 27.7307C143.001 31.0422 140.314 33.723 137.015 33.723ZM137.015 15.4067C130.214 15.4067 124.703 20.922 124.703 27.7307C124.703 34.5374 130.214 40.0547 137.015 40.0547C143.817 40.0547 149.329 34.5394 149.329 27.7307C149.329 20.924 143.817 15.4067 137.015 15.4067Z" fill="#808B93"/>
</svg>
