<svg xmlns="http://www.w3.org/2000/svg" version="1.0" preserveAspectRatio="xMidYMid meet" viewBox="201.22 130 593.78 761.88">

<g transform="translate(0.000000,1024.000000) scale(0.100000,-0.100000)" fill="#000000" stroke="none">
<path d="M2355 8926 c-154 -49 -273 -163 -324 -312 -20 -59 -20 -67 -18 -3444 l2 -3385 21 -57 c44 -116 150 -234 258 -287 127 -62 96 -61 1155 -61 807 0 972 -2 1020 -14 230 -59 745 -60 998 -1 55 13 209 15 1031 15 801 0 979 3 1035 15 186 39 347 189 401 374 14 49 16 312 16 2752 0 1961 -3 2712 -11 2751 -18 82 -61 156 -136 233 -37 39 -371 377 -741 753 l-674 682 -1997 -1 c-1585 0 -2004 -3 -2036 -13z m3323 -499 c8 -9 12 -184 14 -583 l3 -569 28 -57 c38 -77 137 -169 214 -198 108 -40 144 -42 828 -38 l660 3 6 -140 c9 -186 9 -1775 1 -1844 l-7 -54 -53 104 c-354 689 -930 1186 -1643 1417 -428 139 -926 155 -1369 42 -466 -118 -892 -362 -1240 -710 -218 -218 -409 -485 -546 -762 -21 -43 -42 -78 -46 -78 -8 0 -12 3463 -4 3471 2 2 711 5 1574 7 1300 2 1571 0 1580 -11z m1402 -939 c0 -5 -193 -8 -429 -8 -377 0 -431 2 -445 16 -14 14 -16 68 -16 452 l0 437 445 -445 c245 -245 445 -448 445 -452z m-1715 -1197 c218 -37 391 -96 624 -211 304 -151 617 -406 840 -685 223 -277 406 -655 470 -966 58 -282 53 -661 -13 -974 -20 -95 -66 -238 -74 -230 -8 8 -11 55 -3 55 3 0 6 19 7 43 0 23 8 92 18 152 13 84 17 172 16 371 0 295 -9 408 -46 573 -35 157 -73 260 -159 436 -119 244 -248 428 -435 617 -336 342 -753 576 -1179 663 -208 43 -263 49 -451 49 -219 0 -346 -17 -582 -78 -339 -89 -707 -294 -965 -540 -154 -147 -288 -303 -358 -417 -123 -200 -195 -333 -195 -361 0 -10 -4 -18 -10 -18 -5 0 -10 -6 -10 -13 0 -7 -9 -31 -19 -53 -42 -87 -110 -364 -125 -509 -31 -301 -5 -755 56 -967 6 -20 8 -46 5 -58 -5 -21 1 -43 26 -97 6 -13 8 -26 5 -29 -10 -9 -88 203 -118 321 -61 236 -74 348 -75 610 0 259 7 321 56 518 88 350 276 705 531 1002 163 189 307 316 518 455 304 200 583 301 1005 364 17 2 140 3 275 1 192 -2 271 -7 365 -24z m-259 -821 c682 -65 1267 -561 1393 -1182 26 -128 43 -330 36 -430 -12 -158 -60 -359 -115 -479 -12 -27 -23 -17 -1010 975 -549 550 -999 1006 -1000 1011 -6 24 264 89 430 105 126 11 147 11 266 0z m102 -1293 l1062 -1064 -29 -40 c-16 -23 -34 -43 -38 -46 -5 -3 -482 469 -1059 1050 -1200 1209 -1084 1091 -1084 1101 1 7 70 61 80 62 3 0 484 -479 1068 -1063z m-1291 71 c191 -194 644 -651 1007 -1015 414 -415 657 -666 651 -672 -16 -14 -147 -59 -256 -86 -399 -101 -863 -14 -1234 232 -345 230 -584 599 -650 1008 -19 115 -19 353 0 475 17 116 54 245 96 339 17 39 33 71 35 71 2 0 160 -159 351 -352z m-767 -639 c0 -11 -4 -18 -10 -14 -5 3 -7 12 -3 20 7 21 13 19 13 -6z m3660 -46 c-1 -28 -3 -34 -10 -22 -8 14 -3 59 6 59 2 0 4 -17 4 -37z m-3645 -44 c-3 -4 -2 -9 3 -11 4 -1 21 -43 37 -93 34 -105 128 -294 206 -415 196 -302 511 -558 853 -695 248 -99 506 -143 779 -132 492 19 917 208 1278 567 211 211 331 403 434 698 19 53 35 91 35 84 0 -7 5 -10 11 -6 17 10 4 -48 -48 -216 -83 -272 -231 -514 -425 -695 -157 -148 -158 -148 -322 -258 -72 -48 -218 -124 -301 -157 -293 -116 -628 -169 -895 -141 -470 49 -869 237 -1191 560 -150 150 -246 284 -343 478 -74 147 -139 377 -128 455 5 42 6 42 13 14 5 -16 6 -33 4 -37z m-342 -494 c-3 -9 -8 -14 -10 -11 -3 3 -2 9 2 15 9 16 15 13 8 -4z m-215 -220 c162 -324 400 -629 655 -843 62 -51 75 -67 64 -74 -9 -4 -193 -7 -409 -6 l-393 3 -3 544 c-1 300 0 543 2 540 2 -2 40 -76 84 -164z m4829 -370 c3 -356 1 -521 -7 -535 -10 -20 -20 -20 -410 -20 -334 0 -400 2 -400 14 0 7 31 39 68 70 92 75 282 271 363 376 115 147 212 299 294 462 44 86 82 155 84 153 2 -3 5 -236 8 -520z"/>
</g>
</svg>