<svg width="16" height="17" viewBox="0 0 16 17" fill="none" xmlns="http://www.w3.org/2000/svg">
<path d="M7.99992 16.1659C12.4182 16.1659 15.9998 12.5842 15.9998 8.16594C15.9998 3.7477 12.4182 0.166016 7.99992 0.166016C3.58169 0.166016 0 3.7477 0 8.16594C0 12.5842 3.58169 16.1659 7.99992 16.1659Z" fill="#25D12C"/>
<path d="M12.791 6.29963L6.81671 11.8351C6.58699 12.0481 6.2866 12.166 5.97384 12.166C5.94556 12.166 5.91552 12.1643 5.88725 12.1625C5.54622 12.1379 5.22815 11.9742 5.01258 11.7102L3.09182 9.34987C2.66067 8.82184 2.74195 8.04564 3.27206 7.61617C3.80216 7.18671 4.58142 7.26768 5.01258 7.7957L6.10106 9.13161L11.1053 4.49553C11.6053 4.03263 12.3881 4.06079 12.8529 4.55889C13.3194 5.05524 13.2911 5.83496 12.791 6.29963Z" fill="white"/>
</svg>
