<svg width="354" height="326" viewBox="0 0 354 326" fill="none" xmlns="http://www.w3.org/2000/svg">
<circle opacity="0.2" cx="251.312" cy="102.402" r="101.852" fill="#FFF5F9"/>
<circle opacity="0.1" cx="131.447" cy="194.064" r="131.416" fill="#0D99FF"/>
<path d="M123.713 179.234L124.896 174.726C123.385 174.321 121.837 173.928 120.272 173.527C104.47 169.472 86.5542 164.869 68.7474 150.445L65.823 154.07C84.4264 169.126 102.859 173.861 119.118 178.039C120.683 178.44 122.207 178.841 123.713 179.234Z" fill="#011727"/>
<path d="M29.99 136.925C29.7219 137.446 29.7494 138.061 30.0549 138.554L47.3535 165.93C47.7007 166.465 48.3339 166.778 49.0028 166.663C49.2271 166.629 49.4305 166.533 49.6254 166.411L54.7588 163.164C54.7588 163.164 54.7837 163.156 54.8087 163.147C55.5549 162.645 55.7545 161.634 55.2526 160.888C54.7548 160.154 53.7273 159.988 52.9726 160.465L49.9207 162.398C49.5558 162.633 49.0731 162.518 48.8388 162.153L32.8291 136.826C32.6784 136.585 32.4573 136.383 32.2073 136.259C31.4115 135.834 30.4192 136.142 30.0109 136.946L29.99 136.925Z" fill="#1A2E3D"/>
<path d="M14.3891 88.2579L21.9295 82.9347L12.6087 76.8283L10.2282 75.2043C8.74817 74.1918 6.77025 75.4429 7.05192 77.2211L9.26603 91.0019L14.3891 88.2579Z" fill="#A18FFE"/>
<path d="M42.8006 128.904L47.2611 122.72L22.305 83.2363C22.0873 82.8797 21.675 82.6859 21.2512 82.7459C19.8094 82.9555 16.4114 83.618 14.5719 85.1554C12.7862 86.6469 10.5885 89.0547 9.58289 90.1854C9.2643 90.5567 9.22073 91.0849 9.48432 91.4954L34.361 130.867L42.8006 128.904Z" fill="#1A2E3D"/>
<path d="M61.5134 167.766C63.1174 168.612 65.0337 168.533 66.5679 167.571C68.9232 166.081 69.6214 162.973 68.1317 160.617L65.4788 156.421L60.7419 158.049L56.9492 161.815L59.6022 166.011C60.1001 166.787 60.7594 167.383 61.5176 167.779L61.5134 167.766Z" fill="#9FF3E9"/>
<path d="M66.2509 155.911C67.0305 155.426 67.255 154.406 66.7695 153.627L47.2365 122.718L34.3364 130.865L54.7565 163.167L66.2467 155.899L66.2509 155.911Z" fill="#0FE2C9"/>
<path d="M60.8816 155.671L48.2816 135.589C47.7961 134.809 48.0288 133.773 48.8084 133.288C49.588 132.802 50.6242 133.035 51.1096 133.814L63.7096 153.897C64.195 154.676 63.9623 155.713 63.1827 156.198C63.0666 156.265 62.9505 156.332 62.8259 156.374C62.1035 156.618 61.2918 156.351 60.8691 155.675L60.8816 155.671ZM46.1169 131.852L44.1918 128.742C43.7064 127.962 43.9515 126.922 44.7311 126.436C45.5107 125.951 46.551 126.196 47.0365 126.976L48.9616 130.086C49.4471 130.865 49.2019 131.906 48.4223 132.391C48.3062 132.458 48.1983 132.509 48.0737 132.551C47.3513 132.795 46.5354 132.515 46.1169 131.852Z" fill="#CFF2F3"/>
<path d="M65.778 155.572C61.8307 157.114 57.3827 155.162 55.8408 151.215C55.8366 151.202 55.8281 151.177 55.8239 151.165C54.3069 147.209 56.2884 142.765 60.2483 141.261C64.2041 139.744 68.6481 141.725 70.1526 145.685C71.6612 149.616 69.7004 154.039 65.778 155.572Z" fill="black"/>
<path d="M59.7211 155.885C57.7345 155.016 56.1938 153.413 55.383 151.342C54.6014 149.317 54.6713 147.1 55.5528 145.11C56.4344 143.119 58.0454 141.603 60.0709 140.822C62.1007 140.052 64.3127 140.11 66.3035 140.991C68.2818 141.877 69.81 143.484 70.5916 145.509C72.1801 149.677 70.1041 154.375 65.9492 156.001C65.8247 156.043 65.7001 156.085 65.5756 156.127C63.6576 156.775 61.5868 156.684 59.7169 155.873L59.7211 155.885ZM69.7199 145.846C69.0308 144.052 67.6862 142.62 65.9245 141.841C64.1627 141.062 62.2251 140.996 60.4071 141.693C58.6139 142.382 57.181 143.727 56.4025 145.489C55.624 147.25 55.5613 149.2 56.2715 151.056C56.9731 152.845 58.3259 154.261 60.1001 155.035C61.8618 155.814 63.8326 155.856 65.6173 155.142C69.2948 153.705 71.1361 149.544 69.7241 145.858L69.7199 145.846Z" fill="#011727"/>
<path d="M262.47 232.136L267.005 231.045C261.405 207.775 249.652 192.801 239.292 179.602C238.293 178.34 237.32 177.091 236.361 175.855L232.68 178.708C233.639 179.944 234.625 181.206 235.625 182.481C245.695 195.312 257.106 209.866 262.47 232.149V232.136Z" fill="#011727"/>
<path fill-rule="evenodd" clip-rule="evenodd" d="M302 111.791C302 108.491 299.331 105.822 296.031 105.822C292.731 105.822 290.062 108.491 290.062 111.791C290.062 115.091 292.731 117.759 296.031 117.759C299.331 117.759 302 115.091 302 111.791ZM292.942 111.791C292.994 110.147 294.309 108.833 295.952 108.78C297.661 108.728 299.094 110.082 299.147 111.791C299.147 111.857 299.147 111.909 299.147 111.975C299.094 113.684 297.661 115.038 295.952 114.985C294.243 114.933 292.889 113.5 292.942 111.791Z" fill="#FEC603"/>
<path d="M266.836 66.6875V72.656H272.804V75.6403H266.836V81.6088H263.851V75.6403H257.883V72.656H263.851V66.6875H266.836Z" fill="#FEC603"/>
<path d="M262.5 161.002V166.97H268.468V169.954H262.5V175.923H259.515V169.954H253.547V166.97H259.515V161.002H262.5ZM298.784 63.796L295.497 67.0432C294.88 67.648 293.894 67.648 293.289 67.0432C293.289 67.0432 293.289 67.0432 293.276 67.0301C292.684 66.4253 292.684 65.4525 293.289 64.8609L296.576 61.6137C297.193 61.009 298.179 61.009 298.784 61.6137C298.784 61.6137 298.797 61.6269 298.81 61.64C299.402 62.2447 299.389 63.2044 298.784 63.796ZM291.08 71.3947L287.794 74.6419C287.176 75.2467 286.19 75.2467 285.585 74.6419C285.585 74.6419 285.585 74.6419 285.572 74.6288C284.98 74.024 284.98 73.0512 285.585 72.4596L288.872 69.2124C289.49 68.6077 290.476 68.6077 291.08 69.2124C291.08 69.2124 291.093 69.2256 291.107 69.2387C291.698 69.8434 291.685 70.8031 291.08 71.3947ZM298.784 74.6419C298.784 74.6419 298.797 74.6288 298.81 74.6156C299.402 74.0109 299.389 73.0512 298.784 72.4596L295.497 69.2124C294.88 68.6077 293.894 68.6077 293.289 69.2124C293.289 69.2124 293.289 69.2124 293.276 69.2256C292.684 69.8303 292.684 70.8031 293.289 71.3947L296.576 74.6419C297.193 75.2467 298.179 75.2467 298.784 74.6419ZM288.858 67.0432L285.572 63.796C285.572 63.796 285.572 63.796 285.559 63.7829C284.967 63.1782 284.967 62.2053 285.572 61.6137C286.19 61.009 287.176 61.009 287.78 61.6137L291.067 64.8609C291.067 64.8609 291.08 64.8741 291.093 64.8872C291.685 65.4919 291.672 66.4516 291.067 67.0432C290.449 67.648 289.463 67.648 288.858 67.0432Z" fill="#B078DB"/>
<path d="M249.23 263.766C249.23 267.106 246.522 269.814 243.169 269.814H95.3496C92.0104 269.814 89.2891 267.106 89.2891 263.766V108.006C89.2891 106.402 89.9332 104.864 91.0638 103.72L118.882 75.9154C120.013 74.7848 121.564 74.1406 123.168 74.1406H243.169C246.509 74.1406 249.23 76.8488 249.23 80.2012V263.766Z" fill="#0D99FF"/>
<path d="M120.42 101.249C120.42 103.484 118.619 105.285 116.384 105.285H89.2892C89.2234 104.036 117.962 74.982 120.42 74.1406V101.249ZM221.846 168.599C221.846 170.86 220.005 172.7 217.744 172.7H120.762C118.501 172.7 116.66 170.86 116.66 168.599C116.66 166.337 118.501 164.497 120.762 164.497H217.757C220.018 164.497 221.859 166.337 221.859 168.599H221.846ZM221.806 125.373C221.806 127.634 219.966 129.474 217.705 129.474H120.723C118.461 129.474 116.621 127.634 116.621 125.373C116.621 123.111 118.461 121.271 120.723 121.271H217.718C219.979 121.271 221.819 123.111 221.819 125.373H221.806ZM221.846 190.225C221.846 192.486 220.005 194.326 217.744 194.326H120.775C118.514 194.326 116.687 192.499 116.687 190.238C116.687 187.977 118.514 186.136 120.775 186.136H217.77C220.032 186.136 221.872 187.977 221.872 190.238L221.846 190.225ZM221.806 146.999C221.806 149.26 219.966 151.1 217.705 151.1H120.736C118.527 151.061 116.752 149.286 116.713 147.078C116.673 144.816 118.474 142.95 120.736 142.91H217.731C219.992 142.91 221.833 144.751 221.833 147.012L221.806 146.999ZM221.846 211.837C221.846 214.099 220.005 215.939 217.744 215.939H120.841C118.58 215.939 116.752 214.112 116.752 211.851C116.752 209.589 118.58 207.749 120.841 207.749H217.77C220.032 207.749 221.872 209.589 221.872 211.851L221.846 211.837ZM221.859 233.45C221.859 235.712 220.018 237.552 217.757 237.552H149.632C147.371 237.552 145.53 235.712 145.53 233.45C145.53 231.189 147.371 229.349 149.632 229.349H217.757C220.018 229.349 221.859 231.189 221.859 233.45Z" fill="#99D3FE"/>
<path d="M271.474 89.9297H195.487C192.772 89.9297 190.57 92.131 190.57 94.8465V134.299C190.57 137.015 192.772 139.216 195.487 139.216H271.474C274.19 139.216 276.391 137.015 276.391 134.299V94.8465C276.391 92.131 274.19 89.9297 271.474 89.9297Z" fill="#EA1A71"/>
<path d="M203.469 127.277V104.152H211.409C212.684 104.152 213.881 104.284 214.985 104.547C216.103 104.783 217.062 105.204 217.891 105.783C218.719 106.348 219.363 107.123 219.836 108.083C220.336 109.03 220.586 110.2 220.586 111.593C220.586 112.987 220.336 114.117 219.836 115.103C219.389 116.063 218.719 116.904 217.891 117.549C217.036 118.206 216.063 118.679 215.025 118.968C213.894 119.284 212.724 119.442 211.554 119.429H208.675V127.264H203.469V127.277ZM208.675 115.287H211.225C214.065 115.287 215.485 114.065 215.485 111.593C215.485 110.384 215.103 109.529 214.354 109.043C213.592 108.543 212.514 108.294 211.094 108.294H208.675V115.274V115.287ZM224.582 127.277V104.152H231.103C232.878 104.152 234.468 104.376 235.888 104.823C237.308 105.27 238.517 105.967 239.543 106.913C240.555 107.833 241.344 109.017 241.883 110.463C242.422 111.909 242.698 113.618 242.698 115.603C242.698 117.588 242.422 119.31 241.883 120.783C241.344 122.242 240.568 123.465 239.582 124.437C238.583 125.384 237.4 126.094 236.006 126.567C234.639 127.04 233.101 127.277 231.392 127.277H224.582ZM229.801 123.057H230.8C231.8 123.057 232.694 122.926 233.495 122.663C234.271 122.426 234.981 121.992 235.559 121.427C236.125 120.835 236.559 120.073 236.874 119.126C237.203 118.18 237.374 117.01 237.374 115.616C237.374 114.223 237.203 113.092 236.874 112.172C236.572 111.225 236.125 110.476 235.559 109.937C234.981 109.372 234.284 108.951 233.495 108.727C232.615 108.478 231.708 108.359 230.8 108.372H229.801V123.057ZM247.102 127.277V104.152H261.682V108.556H252.321V113.907H260.341V118.311H252.321V127.277H247.102Z" fill="white"/>
<path d="M267.995 229.866C272.057 231.062 274.397 235.321 273.201 239.384C272.005 243.446 267.745 245.786 263.683 244.59C259.621 243.393 257.281 239.134 258.477 235.072C259.673 231.009 263.933 228.669 267.995 229.866Z" fill="#011727"/>
<path d="M263.539 245.034C259.227 243.772 256.755 239.236 258.017 234.937C259.279 230.625 263.815 228.154 268.114 229.416C270.204 230.02 271.926 231.414 272.965 233.32C274.003 235.226 274.24 237.422 273.635 239.512C272.597 243.062 269.336 245.362 265.826 245.362C265.077 245.362 264.301 245.257 263.539 245.034ZM258.911 235.2C257.794 239.013 259.989 243.022 263.802 244.14C267.614 245.244 271.624 243.062 272.741 239.249C273.28 237.396 273.07 235.45 272.15 233.767C271.23 232.084 269.705 230.849 267.851 230.31C267.18 230.112 266.497 230.02 265.826 230.02C262.711 230.02 259.831 232.058 258.911 235.2Z" fill="black"/>
<path d="M177.162 182.533L157.574 178.471C156.154 178.168 154.694 179.023 154.537 180.469C152.88 194.97 176.373 199.768 179.213 185.373C179.476 184.032 178.503 182.809 177.162 182.533Z" fill="#011727"/>
<path d="M165.698 194.812C158.98 193.761 152.669 188.476 153.59 180.377C153.695 179.483 154.155 178.695 154.891 178.156C155.693 177.577 156.732 177.354 157.744 177.564L177.332 181.626C179.212 182.021 180.461 183.782 180.106 185.557C178.792 192.236 173.494 194.996 168.143 194.996C167.328 194.996 166.5 194.931 165.685 194.799L165.698 194.812ZM155.996 179.667C155.772 179.825 155.496 180.114 155.443 180.588C154.655 187.516 160.15 192.065 165.987 192.972C171.193 193.787 177.004 191.697 178.279 185.202C178.437 184.426 177.845 183.638 176.964 183.454L157.376 179.391C157.258 179.365 157.126 179.352 157.008 179.352C156.64 179.352 156.285 179.457 155.996 179.667Z" fill="#011727"/>
<path d="M134.921 178.118C150.669 178.118 163.436 165.351 163.436 149.603C163.436 133.854 150.669 121.088 134.921 121.088C119.173 121.088 106.406 133.854 106.406 149.603C106.406 165.351 119.173 178.118 134.921 178.118Z" fill="white"/>
<path d="M129.784 180.024C121.659 178.644 114.56 174.187 109.788 167.469C105.016 160.751 103.149 152.574 104.529 144.45C107.369 127.675 123.329 116.342 140.104 119.182C156.879 122.022 168.211 137.982 165.372 154.757C163.991 162.881 159.535 169.98 152.817 174.752C147.545 178.499 141.366 180.458 135.016 180.458C133.281 180.458 131.532 180.313 129.797 180.011L129.784 180.024ZM119.766 128.253C114.061 132.302 110.274 138.337 109.104 145.225C107.934 152.127 109.525 159.069 113.574 164.761C117.623 170.467 123.658 174.253 130.546 175.423C137.448 176.593 144.39 175.002 150.082 170.953C155.788 166.904 159.574 160.87 160.744 153.981C163.15 139.743 153.54 126.189 139.302 123.783C137.816 123.534 136.344 123.415 134.872 123.415C129.482 123.415 124.236 125.072 119.766 128.253Z" fill="#011727"/>
<path d="M207.452 190.461C223.201 190.461 235.967 177.695 235.967 161.946C235.967 146.198 223.201 133.432 207.452 133.432C191.704 133.432 178.938 146.198 178.938 161.946C178.938 177.695 191.704 190.461 207.452 190.461Z" fill="white"/>
<path d="M202.3 192.355C194.175 190.974 187.076 186.517 182.304 179.8C177.531 173.082 175.665 164.905 177.045 156.78C178.425 148.655 182.882 141.556 189.6 136.784C196.318 132.012 204.495 130.145 212.62 131.525C220.744 132.906 227.843 137.363 232.615 144.08C237.388 150.798 239.254 158.975 237.874 167.1C235.324 182.14 222.243 192.802 207.479 192.802C205.77 192.802 204.048 192.657 202.313 192.368L202.3 192.355ZM192.282 140.583C186.576 144.633 182.79 150.667 181.62 157.569C180.45 164.471 182.041 171.412 186.09 177.105C190.139 182.81 196.173 186.596 203.062 187.766C217.3 190.185 230.841 180.562 233.26 166.324C234.43 159.422 232.839 152.481 228.79 146.789C224.741 141.083 218.706 137.297 211.818 136.127C210.332 135.877 208.86 135.746 207.387 135.746C201.997 135.746 196.752 137.402 192.282 140.583Z" fill="#011727"/>
<path d="M163.73 154.515L162.953 159.104L178.08 161.665L178.857 157.076L163.73 154.515Z" fill="#011727"/>
<path fill-rule="evenodd" clip-rule="evenodd" d="M148.07 151.496C148.767 147.21 147.61 143.095 144.349 142.57C141.089 142.044 138.696 145.58 137.999 149.866C137.303 154.152 138.46 158.267 141.72 158.792C144.98 159.318 147.373 155.782 148.07 151.496ZM199.63 159.423C200.327 155.138 199.17 151.023 195.91 150.497C192.65 149.971 190.257 153.507 189.56 157.793C188.863 162.079 190.02 166.194 193.281 166.72C196.541 167.246 198.934 163.709 199.63 159.437V159.423Z" fill="#011727"/>
<path d="M68.2075 90.2463C68.2864 88.695 69.6142 87.5118 71.1523 87.5907L82.7213 88.2086C84.2726 88.2875 85.4557 89.6153 85.3769 91.1534C85.298 92.7047 83.9702 93.8879 82.432 93.809L70.8631 93.1911C70.495 93.178 70.1532 93.0859 69.8377 92.9413C68.8254 92.4812 68.1418 91.4295 68.2075 90.2463ZM89.5838 80.176L81.8273 71.5651C80.7887 70.4082 80.8808 68.6334 82.0376 67.6079C83.1945 66.5694 84.9693 66.6614 85.9948 67.8183L93.7512 76.4293C94.7898 77.5862 94.6978 79.361 93.5409 80.3864C92.6863 81.162 91.4769 81.3066 90.4909 80.8465C90.1491 80.6888 89.8467 80.4653 89.5838 80.176ZM101.468 71.3416L102.073 59.7726C102.152 58.2213 103.48 57.0381 105.018 57.117C106.569 57.1959 107.752 58.5237 107.673 60.0618L107.069 71.6308C106.99 73.1821 105.662 74.3653 104.124 74.2864C103.756 74.2732 103.414 74.1812 103.098 74.0366C102.086 73.5765 101.403 72.5248 101.468 71.3416Z" fill="#FEC603"/>
</svg>
