<svg width="40" height="42" viewBox="0 0 40 42" fill="none" xmlns="http://www.w3.org/2000/svg">
<path d="M38.4316 23H34.4628C31.97 23 29.6684 24.3357 28.4316 26.5V26.5C27.1949 28.6643 24.8933 30 22.4005 30H18.4628C15.97 30 13.6684 28.6643 12.4316 26.5V26.5C11.1949 24.3357 8.89326 23 6.40051 23H2.43164" stroke="#4D4D4D" stroke-width="3" stroke-linecap="round" stroke-linejoin="round"/>
<path d="M6.43164 16L5.69889 16.8793C3.58777 19.4126 2.43164 22.6059 2.43164 25.9036V25.9036C2.43164 33.6888 8.74282 40 16.528 40H24.3352C32.1205 40 38.4316 33.6888 38.4316 25.9036V25.9036C38.4316 22.6059 37.2755 19.4126 35.1644 16.8793L34.4316 16" stroke="#4D4D4D" stroke-width="3" stroke-linecap="round" stroke-linejoin="round"/>
<path d="M13.4316 11.7143L20.4316 19M20.4316 19L27.4316 11.7143M20.4316 19L20.4316 2" stroke="#4D4D4D" stroke-width="3" stroke-linecap="round" stroke-linejoin="round"/>
</svg>
