<svg width="114" height="96" viewBox="0 0 114 96" fill="none" xmlns="http://www.w3.org/2000/svg">
<path d="M14.0234 40.0401L8.71875 17.8594H22.9807" stroke="#1A2E3D" stroke-width="5" stroke-miterlimit="10"/>
<path d="M91.0234 17.8594H105.29L102.016 31.5471" stroke="#1A2E3D" stroke-width="5" stroke-miterlimit="10"/>
<path d="M88.2905 31.547L91.028 17.8593L94.0527 2.72852H19.9531L22.9737 17.8593L27.4029 40.04" stroke="#1A2E3D" stroke-width="5" stroke-miterlimit="10"/>
<path d="M76.3646 31.5469L73.8497 40.0399H3.91406L16.5159 92.7295H97.4731L110.075 31.5469H76.3646Z" stroke="#1A2E3D" stroke-width="5" stroke-miterlimit="10"/>
<path d="M50.8007 13.3476C50.1199 12.8242 49.1046 12.5645 47.6957 12.5645C46.2868 12.5645 45.3266 12.655 44.6222 12.7612C44.571 12.7691 44.5199 12.777 44.4766 12.7848V22.4149H47.0739V19.0934C47.2353 19.0934 47.4517 19.1209 47.7115 19.1209C49.0298 19.1209 50.175 18.8022 50.9581 18.1056C51.5799 17.5389 51.9144 16.6849 51.9144 15.6971C51.9144 14.7093 51.4658 13.8395 50.7968 13.3476H50.8007ZM47.6682 17.1178C47.3927 17.1178 47.2195 17.102 47.0739 17.0902V14.5951C47.2038 14.5676 47.4675 14.5361 47.8413 14.5361C48.8409 14.5361 49.321 15.028 49.321 15.7561C49.321 16.5983 48.6835 17.1178 47.6682 17.1178Z" fill="#1A2E3D"/>
<path d="M60.6606 13.7825C60.5583 13.6959 60.456 13.6132 60.3458 13.5385C59.3895 12.8694 58.201 12.5664 56.3278 12.5664C55.1668 12.5664 54.0492 12.6372 53.2109 12.7829V22.3539C53.7186 22.4405 54.5608 22.527 55.8201 22.527C57.7327 22.527 59.3423 22.165 60.4166 21.3228C60.4993 21.2559 60.578 21.1851 60.6567 21.1103C61.4831 20.3468 62.1128 19.1189 62.1128 17.2929C62.1128 15.6794 61.55 14.5341 60.6567 13.7825H60.6606ZM56.3868 20.4963C56.2136 20.4963 55.9657 20.4963 55.8358 20.4688V14.6246C55.9657 14.5971 56.2254 14.5656 56.6347 14.5656C58.201 14.5656 59.3462 15.4629 59.3462 17.3795C59.3462 19.5833 58.0829 20.5278 56.3868 20.4963Z" fill="#1A2E3D"/>
<path d="M63.5 12.6387V22.4143H65.3732H66.1249V18.6993H69.5605V16.582H66.1249V14.7835H69.7809V12.6387H65.3732H63.5Z" fill="#1A2E3D"/>
</svg>
