<svg width="41" height="43" viewBox="0 0 41 43" fill="none" xmlns="http://www.w3.org/2000/svg">
<path d="M7.61719 41.4777V3.5268C7.61719 2.83572 8.17756 2.27539 8.86868 2.27539H33.6815C34.013 2.27539 34.3329 2.40847 34.5664 2.64194L40.3172 8.39236C40.553 8.62817 40.6838 8.94569 40.6838 9.27722V41.4777C40.6838 42.1688 40.1234 42.7291 39.4323 42.7291H8.86868C8.17756 42.7291 7.61719 42.1688 7.61719 41.4777Z" fill="#67747D"/>
<path d="M5.61719 39.9308V1.97993C5.61719 1.28885 6.17756 0.728516 6.86868 0.728516H31.6815C32.013 0.728516 32.3329 0.85926 32.5664 1.09507L38.3172 6.84549C38.553 7.0813 38.6838 7.39882 38.6838 7.73035V39.9308C38.6838 40.6219 38.1234 41.1823 37.4323 41.1823H6.86868C6.17756 41.1823 5.61719 40.6219 5.61719 39.9308Z" fill="#CCD1D4"/>
<path d="M32.2477 6.33185V0.728516C32.7544 0.901285 38.6966 6.90853 38.685 7.16768H33.0836C32.6236 7.16768 32.25 6.79412 32.2477 6.33418V6.33185ZM11.2758 20.2585C11.2758 19.7915 11.6564 19.411 12.1233 19.411H32.1776C32.6446 19.411 33.0252 19.7915 33.0252 20.2585C33.0252 20.7254 32.6446 21.106 32.1776 21.106H12.1233C11.6564 21.106 11.2758 20.7254 11.2758 20.2585ZM11.2828 11.3212C11.2828 10.8542 11.661 10.4736 12.1303 10.4736H32.1846C32.6516 10.4736 33.0322 10.8542 33.0322 11.3212C33.0322 11.7881 32.6516 12.1687 32.1846 12.1687H12.1327C11.6657 12.1687 11.2851 11.7881 11.2851 11.3212H11.2828ZM11.2734 24.7271C11.2734 24.2602 11.654 23.8796 12.121 23.8796H32.1753C32.6423 23.8796 33.0229 24.2602 33.0229 24.7271C33.0229 25.1941 32.6423 25.5746 32.1753 25.5746H12.1233C11.6564 25.5746 11.2758 25.1941 11.2758 24.7271H11.2734ZM11.2828 15.7898C11.2828 15.3229 11.661 14.9423 12.1303 14.9423H32.1846C32.6516 14.9353 33.0392 15.3065 33.0462 15.7758C33.0532 16.2451 32.682 16.6303 32.2127 16.6373C32.2033 16.6373 32.194 16.6373 32.1846 16.6373H12.1303C11.6634 16.6373 11.2828 16.2591 11.2828 15.7898ZM11.2758 29.1958C11.2758 28.7288 11.6564 28.3483 12.1233 28.3483H32.1636C32.6306 28.3483 33.0112 28.7288 33.0112 29.1958C33.0112 29.6627 32.6306 30.0433 32.1636 30.0433H12.1233C11.6564 30.0433 11.2758 29.6627 11.2758 29.1958ZM11.2734 33.6644C11.2734 33.1975 11.6517 32.8169 12.121 32.8169H26.205C26.672 32.8169 27.0526 33.1975 27.0526 33.6644C27.0526 34.1314 26.672 34.512 26.205 34.512H12.121C11.654 34.512 11.2734 34.1314 11.2734 33.6644Z" fill="#67747D"/>
<path d="M16.7294 3.99219H1.01567C0.454732 3.99219 0 4.44689 0 5.00779V13.1653C0 13.7262 0.454732 14.1809 1.01567 14.1809H16.7294C17.2904 14.1809 17.7451 13.7262 17.7451 13.1653V5.00779C17.7451 4.44689 17.2904 3.99219 16.7294 3.99219Z" fill="#67747D"/>
<path d="M3.04688 11.7151V6.93359H4.69063C4.95447 6.93359 5.20197 6.96161 5.43079 7.01531C5.65961 7.06434 5.86041 7.14839 6.03085 7.27213C6.2013 7.38886 6.33672 7.54763 6.43479 7.74841C6.53752 7.94453 6.58889 8.18501 6.58889 8.47451C6.58889 8.76402 6.53752 8.99516 6.43479 9.20061C6.34373 9.39906 6.20363 9.57183 6.03085 9.70725C5.8534 9.84266 5.6526 9.94305 5.43779 10.0014C5.21364 10.0645 4.97315 10.0971 4.71865 10.0971H4.12559V11.7174H3.04688V11.7151ZM4.12559 9.23563H4.65327C5.23933 9.23563 5.53352 8.98115 5.53352 8.47218C5.53352 8.22236 5.45414 8.04726 5.2977 7.94453C5.14126 7.8418 4.91712 7.79044 4.62292 7.79044H4.12559V9.23563ZM7.41544 11.7151V6.93359H8.765C9.13158 6.93359 9.4608 6.98029 9.75499 7.07368C10.0492 7.16707 10.3014 7.30948 10.5115 7.5056C10.7216 7.69705 10.8827 7.93986 10.9948 8.23871C11.1069 8.53755 11.1629 8.89009 11.1629 9.301C11.1629 9.71191 11.1069 10.0691 10.9948 10.3703C10.8827 10.6738 10.724 10.926 10.5185 11.1244C10.313 11.3205 10.0655 11.4653 9.77834 11.5633C9.49582 11.6614 9.17827 11.7104 8.82571 11.7104H7.41777L7.41544 11.7151ZM8.49415 10.8419H8.69962C8.90509 10.8419 9.09188 10.8162 9.25766 10.7602C9.41877 10.7088 9.56353 10.6225 9.68261 10.5034C9.79935 10.382 9.89041 10.2232 9.95345 10.0271C10.0212 9.83098 10.0562 9.59051 10.0562 9.301C10.0562 9.0115 10.0212 8.78036 9.95345 8.58891C9.89041 8.3928 9.79935 8.2387 9.68261 8.12664C9.56353 8.0099 9.41877 7.92352 9.25766 7.87682C9.09188 7.82779 8.90509 7.80445 8.69962 7.80445H8.49415V10.8396V10.8419ZM12.0712 11.7151V6.93359H15.0855V7.8418H13.1499V8.94846H14.8077V9.85667H13.1499V11.7128H12.0712V11.7151Z" fill="white"/>
</svg>
