<svg width="356" height="326" viewBox="0 0 356 326" fill="none" xmlns="http://www.w3.org/2000/svg">
<g style="mix-blend-mode:multiply">
<circle cx="255.472" cy="100.882" r="99.9186" fill="#FFF5F9"/>
</g>
<g style="mix-blend-mode:multiply">
<circle cx="129.534" cy="197.041" r="128.922" fill="#E3F2FD"/>
</g>
<path d="M302.791 85.2546V279.072H129.764V55.77H273.307L302.791 85.2546Z" fill="#D1D3D4"/>
<path d="M293.24 76.4846V270.302H120.188V47H263.73L293.24 76.4846Z" fill="#F1F2F2"/>
<path d="M293.24 76.4846H263.73V47L293.24 76.4846Z" fill="#E6E7E8"/>
<path d="M272.097 94.0493H153.276V106.423H272.097V94.0493Z" fill="#E6E7E8"/>
<path d="M272.097 121.241H153.276V133.614H272.097V121.241Z" fill="#E6E7E8"/>
<path d="M272.097 148.432H153.276V160.806H272.097V148.432Z" fill="#E6E7E8"/>
<path d="M272.097 175.624H153.276V187.997H272.097V175.624Z" fill="#E6E7E8"/>
<path d="M272.097 202.815H153.276V215.189H272.097V202.815Z" fill="#E6E7E8"/>
<path d="M258.186 230.006H153.276V242.38H258.186V230.006Z" fill="#E6E7E8"/>
<path d="M253.171 122.577V286.38H106.907V97.6533H228.248L253.171 122.577Z" fill="#A7A9AC"/>
<path d="M245.082 115.168V278.971H98.8181V90.2446H220.159L245.082 115.168Z" fill="#E6E7E8"/>
<path d="M245.082 115.168H220.159V90.2446L245.082 115.168Z" fill="#BCBEC0"/>
<path d="M227.24 129.986H126.791V140.444H227.24V129.986Z" fill="#BCBEC0"/>
<path d="M227.24 152.994H126.791V163.452H227.24V152.994Z" fill="#BCBEC0"/>
<path d="M227.24 175.977H126.791V186.435H227.24V175.977Z" fill="#BCBEC0"/>
<path d="M227.24 198.959H126.791V209.418H227.24V198.959Z" fill="#BCBEC0"/>
<path d="M227.24 221.942H126.791V232.4H227.24V221.942Z" fill="#BCBEC0"/>
<path d="M215.471 244.925H126.791V255.383H215.471V244.925Z" fill="#BCBEC0"/>
<path d="M211.792 144.779V292H80.3461V122.375H189.389L211.792 144.779Z" fill="#AEDDFF"/>
<path d="M204.509 138.125V285.346H73.0631V115.722H182.106L204.509 138.125Z" fill="#28A5FF"/>
<path d="M204.509 138.125H182.106V115.722L204.509 138.125Z" fill="#AEDDFF"/>
<path d="M188.482 151.457H98.2132V160.856H188.482V151.457Z" fill="#AEDDFF"/>
<path d="M188.482 172.121H98.2132V181.52H188.482V172.121Z" fill="#AEDDFF"/>
<path d="M188.482 192.786H98.2132V202.185H188.482V192.786Z" fill="#AEDDFF"/>
<path d="M188.482 213.424H98.2132V222.824H188.482V213.424Z" fill="#AEDDFF"/>
<path d="M188.482 234.089H98.2132V243.489H188.482V234.089Z" fill="#AEDDFF"/>
<path d="M177.923 254.753H98.2132V264.153H177.923V254.753Z" fill="#AEDDFF"/>
<path d="M227.845 182.352H173.79C170.791 182.352 168.346 179.908 168.346 176.909V156.925C168.346 153.926 170.791 151.481 173.79 151.481H227.845C230.844 151.481 233.288 153.926 233.288 156.925V176.909C233.313 179.908 230.869 182.352 227.845 182.352Z" fill="#EA1A71"/>
<path d="M179.737 174.918V158.89H184.928C186.894 158.89 188.179 158.966 188.784 159.142C189.691 159.394 190.472 159.898 191.102 160.705C191.732 161.511 192.035 162.544 192.035 163.829C192.035 164.812 191.858 165.644 191.506 166.324C191.153 167.005 190.699 167.534 190.145 167.912C189.59 168.29 189.036 168.542 188.456 168.668C187.675 168.819 186.566 168.895 185.105 168.895H182.988V174.943H179.737V174.918ZM182.988 161.612V166.173H184.752C186.037 166.173 186.894 166.097 187.322 165.921C187.751 165.745 188.078 165.493 188.33 165.14C188.582 164.787 188.708 164.359 188.708 163.905C188.708 163.325 188.532 162.847 188.204 162.469C187.852 162.091 187.423 161.864 186.894 161.763C186.516 161.687 185.735 161.662 184.575 161.662H182.988V161.612Z" fill="white"/>
<path d="M194.681 158.89H200.603C201.939 158.89 202.947 158.991 203.652 159.193C204.585 159.47 205.391 159.974 206.071 160.679C206.752 161.385 207.256 162.242 207.609 163.275C207.962 164.308 208.138 165.568 208.138 167.055C208.138 168.366 207.962 169.525 207.634 170.457C207.231 171.616 206.651 172.574 205.92 173.28C205.366 173.834 204.61 174.262 203.652 174.565C202.947 174.792 201.989 174.892 200.779 174.892H194.681V158.89ZM197.907 161.612V172.246H200.326C201.233 172.246 201.888 172.196 202.291 172.095C202.821 171.969 203.249 171.742 203.602 171.415C203.955 171.087 204.232 170.583 204.459 169.878C204.685 169.172 204.786 168.189 204.786 166.929C204.786 165.694 204.685 164.737 204.459 164.081C204.232 163.426 203.929 162.897 203.526 162.519C203.123 162.141 202.644 161.889 202.039 161.763C201.586 161.662 200.704 161.612 199.393 161.612H197.907Z" fill="white"/>
<path d="M210.885 174.918V158.89H221.872V161.612H214.136V165.417H220.839V168.139H214.136V174.943H210.885V174.918Z" fill="white"/>
<path d="M145.237 47H141.457V95.9142H145.237V47Z" fill="#EA1A71"/>
<path d="M136.921 88.3794L143.347 94.7803L149.748 88.3794V93.8227L143.347 100.224L136.921 93.8227V88.3794Z" fill="#EA1A71"/>
<path d="M302.816 216.246H253.902V220.026H302.816V216.246Z" fill="#EA1A71"/>
<path d="M261.412 211.71L255.011 218.137L261.412 224.538H255.969L249.568 218.137L255.969 211.71H261.412Z" fill="#EA1A71"/>
<path d="M55.3976 144.955V139.335H49.7274V135.454H55.3976V129.834H59.1776V135.454H64.873V139.335H59.1776V144.955H55.3976Z" fill="#28A5FF"/>
<path d="M71.9543 97.0987L75.936 93.117L71.9291 89.1101L74.676 86.3633L78.6829 90.3702L82.6645 86.3885L85.3358 89.0597L81.3541 93.0414L85.3862 97.0483L82.6393 99.7952L78.6072 95.7631L74.6256 99.7448L71.9543 97.0987Z" fill="#FEC603"/>
<path d="M48.6942 110.934C43.9061 110.934 40 107.028 40 102.24C40 97.452 43.9061 93.5459 48.6942 93.5459C53.4823 93.5459 57.3884 97.452 57.3884 102.24C57.3632 107.053 53.4823 110.934 48.6942 110.934ZM48.6942 97.3512C45.9978 97.3512 43.7801 99.5436 43.7801 102.265C43.7801 104.962 45.9726 107.179 48.6942 107.179C51.3907 107.179 53.6083 104.987 53.6083 102.265C53.5831 99.5436 51.3907 97.3512 48.6942 97.3512Z" fill="#FEC603"/>
</svg>
