<svg width="354" height="326" viewBox="0 0 354 326" fill="none" xmlns="http://www.w3.org/2000/svg">
<g style="mix-blend-mode:multiply">
<ellipse cx="251.67" cy="102.42" rx="101.852" ry="101.873" fill="#E3F2FD"/>
</g>
<g style="mix-blend-mode:multiply">
<ellipse cx="131.807" cy="194.103" rx="131.416" ry="131.444" fill="#FFF5F9"/>
</g>
<path d="M264.307 92.5002V257.005H117.429V67.4668H239.273L264.307 92.5002Z" fill="#0D99FF"/>
<path d="M256.197 85.0651V249.57H109.319V60.0317H231.163L256.197 85.0651Z" fill="#AEDDFF"/>
<path d="M256.197 85.0651H231.163V60.0317L256.197 85.0651Z" fill="#0D99FF"/>
<path d="M238.259 99.9619H137.394V110.465H238.259V99.9619Z" fill="#0D99FF"/>
<path d="M238.259 123.052H137.394V133.555H238.259V123.052Z" fill="#0D99FF"/>
<path d="M238.259 146.143H137.394V156.646H238.259V146.143Z" fill="#0D99FF"/>
<path d="M238.259 169.205H137.394V179.708H238.259V169.205Z" fill="#0D99FF"/>
<path d="M238.259 192.296H137.394V202.799H238.259V192.296Z" fill="#0D99FF"/>
<path d="M226.461 215.385H137.394V225.889H226.461V215.385Z" fill="#0D99FF"/>
<path d="M282.244 134.485H221.843C218.492 134.485 215.76 131.753 215.76 128.402V106.072C215.76 102.721 218.492 99.9897 221.843 99.9897H282.244C285.595 99.9897 288.326 102.721 288.326 106.072V128.402C288.354 131.753 285.623 134.485 282.244 134.485Z" fill="#EA1A71"/>
<path d="M228.516 126.178V108.269H234.317C236.514 108.269 237.95 108.353 238.625 108.55C239.639 108.832 240.512 109.395 241.216 110.296C241.92 111.197 242.258 112.352 242.258 113.788C242.258 114.886 242.061 115.815 241.667 116.575C241.272 117.336 240.766 117.927 240.146 118.349C239.527 118.772 238.907 119.053 238.259 119.194C237.386 119.363 236.147 119.448 234.514 119.448H232.149V126.206H228.516V126.178ZM232.121 111.31V116.407H234.092C235.528 116.407 236.485 116.322 236.964 116.125C237.443 115.928 237.809 115.646 238.09 115.252C238.372 114.858 238.513 114.379 238.513 113.872C238.513 113.225 238.316 112.69 237.95 112.267C237.555 111.845 237.077 111.591 236.485 111.479C236.063 111.394 235.19 111.366 233.895 111.366H232.121V111.31Z" fill="white"/>
<path d="M245.187 108.269H251.804C253.296 108.269 254.423 108.381 255.211 108.606C256.253 108.916 257.154 109.479 257.914 110.268C258.675 111.056 259.238 112.014 259.632 113.168C260.026 114.323 260.223 115.731 260.223 117.392C260.223 118.856 260.026 120.152 259.66 121.194C259.21 122.489 258.562 123.559 257.745 124.347C257.126 124.967 256.281 125.446 255.211 125.783C254.423 126.037 253.353 126.15 252.001 126.15H245.187V108.269ZM248.819 111.31V123.193H251.522C252.536 123.193 253.268 123.137 253.719 123.024C254.31 122.883 254.789 122.63 255.183 122.264C255.577 121.898 255.887 121.334 256.14 120.546C256.394 119.757 256.506 118.659 256.506 117.251C256.506 115.871 256.394 114.801 256.14 114.069C255.887 113.337 255.549 112.746 255.098 112.323C254.648 111.901 254.113 111.619 253.437 111.479C252.93 111.366 251.945 111.31 250.48 111.31H248.819Z" fill="white"/>
<path d="M263.321 126.178V108.269H275.598V111.31H266.925V115.562H274.416V118.603H266.925V126.206H263.321V126.178Z" fill="white"/>
<path d="M166.515 41.6089L154.464 36.0703L138.378 71.071L150.428 76.6096L166.515 41.6089Z" fill="#1A2E3D"/>
<path d="M153.022 109.395L147.897 107.03L164.173 71.6336C165.609 68.5361 164.229 64.8473 161.132 63.4112L157.274 61.6372L159.639 56.5122L163.497 58.2862C166.369 59.6097 168.566 61.9751 169.664 64.9318C170.762 67.8885 170.649 71.0986 169.326 73.9708L153.022 109.395Z" fill="#1A2E3D"/>
<path d="M166.906 52.5214L145.951 42.8906L125.314 87.7928L146.268 97.4236L166.906 52.5214Z" fill="#0D99FF"/>
<path d="M146.649 96.5751L125.694 86.9443L88.6881 167.461L109.642 177.092L146.649 96.5751Z" fill="#1A2E3D"/>
<path d="M89.7767 193.337L89.298 193.112L88.6785 167.459L109.629 177.089L89.7767 193.337Z" fill="#99A2A9"/>
<path d="M246.406 230.109L234.144 239.429L255.409 267.406L267.671 258.086L246.406 230.109Z" fill="#BC0658"/>
<path d="M288.805 298.596C283.624 302.538 276.19 301.525 272.247 296.344L257.098 276.407C253.155 271.226 254.169 263.792 259.35 259.849C264.532 255.907 271.966 256.921 275.908 262.102L291.058 282.039C295.028 287.248 294.014 294.654 288.805 298.596Z" fill="#EA1A71"/>
<path d="M226.404 265.65C253.542 265.65 275.542 243.65 275.542 216.513C275.542 189.375 253.542 167.375 226.404 167.375C199.267 167.375 177.267 189.375 177.267 216.513C177.267 243.65 199.267 265.65 226.404 265.65Z" fill="#4D5D68"/>
<path d="M226.404 258.864C249.794 258.864 268.756 239.903 268.756 216.513C268.756 193.123 249.794 174.162 226.404 174.162C203.015 174.162 184.053 193.123 184.053 216.513C184.053 239.903 203.015 258.864 226.404 258.864Z" fill="#AEDDFF"/>
<path d="M221.561 212.232C220.913 212.232 220.294 211.95 219.871 211.387L206.946 194.351C206.242 193.421 206.411 192.098 207.341 191.394C208.27 190.69 209.593 190.859 210.297 191.788L223.222 208.824C223.926 209.754 223.757 211.077 222.828 211.781C222.462 212.091 222.012 212.232 221.561 212.232Z" fill="#0D99FF"/>
<path d="M210.776 207.755L220.829 209.135L222.181 199.11L225.869 203.954L224.49 213.978L214.465 212.599L210.776 207.755Z" fill="#0D99FF"/>
<path d="M244.623 242.587C243.976 242.587 243.356 242.306 242.934 241.742L230.009 224.706C229.305 223.777 229.474 222.453 230.403 221.749C231.332 221.045 232.656 221.214 233.36 222.144L246.285 239.18C246.989 240.109 246.82 241.433 245.891 242.137C245.524 242.446 245.074 242.587 244.623 242.587Z" fill="#0D99FF"/>
<path d="M242.483 225.804L232.459 224.453L231.079 234.477L227.39 229.634L228.77 219.609L238.794 220.961L242.483 225.804Z" fill="#0D99FF"/>
<path d="M233.303 213.838C232.656 213.838 232.036 213.556 231.614 212.993C230.91 212.064 231.079 210.74 232.008 210.036L249.044 197.111C249.974 196.407 251.297 196.576 252.001 197.505C252.705 198.435 252.536 199.758 251.607 200.462L234.571 213.387C234.176 213.697 233.726 213.838 233.303 213.838Z" fill="#0D99FF"/>
<path d="M235.641 200.941L234.289 210.966L244.314 212.346L239.47 216.006L229.446 214.655L230.825 204.63L235.641 200.941Z" fill="#0D99FF"/>
<path d="M202.948 236.898C202.3 236.898 201.681 236.617 201.258 236.053C200.554 235.124 200.723 233.801 201.653 233.097L218.689 220.172C219.618 219.468 220.942 219.637 221.646 220.566C222.35 221.495 222.181 222.819 221.251 223.523L204.215 236.448C203.849 236.757 203.398 236.898 202.948 236.898Z" fill="#0D99FF"/>
<path d="M217.619 232.647L218.97 222.594L208.946 221.243L213.789 217.554L223.814 218.933L222.462 228.958L217.619 232.647Z" fill="#0D99FF"/>
<path d="M88.594 96.4701V90.1907H82.2582V85.8542H88.594V79.5747H92.8178V85.8542H99.1818V90.1907H92.8178V96.4701H88.594Z" fill="#EA1A71"/>
<path d="M107.095 42.9958L111.544 38.5466L107.066 34.0693L110.136 31L114.613 35.4773L119.062 31.0282L122.047 34.013L117.598 38.4621L122.075 42.9676L119.006 46.0369L114.529 41.5315L110.079 45.9806L107.095 42.9958Z" fill="#FEC603"/>
<path d="M81.1037 58.4548C75.7535 58.4548 71.3888 54.1183 71.3888 48.7681C71.3888 43.4179 75.7535 39.0532 81.1037 39.0532C86.4539 39.0532 90.8186 43.4179 90.8186 48.7681C90.7904 54.1183 86.4539 58.4548 81.1037 58.4548ZM81.1037 43.2771C78.0907 43.2771 75.6127 45.7269 75.6127 48.7681C75.6127 51.7811 78.0625 54.2591 81.1037 54.2591C84.1449 54.2591 86.5947 51.8093 86.5947 48.7681C86.5666 45.7269 84.1167 43.2771 81.1037 43.2771Z" fill="#0D99FF"/>
</svg>
