<svg width="340" height="338" viewBox="0 0 340 338" fill="none" xmlns="http://www.w3.org/2000/svg">
<g style="mix-blend-mode:multiply">
<ellipse cx="105.893" cy="105.892" rx="105.893" ry="105.892" transform="matrix(-4.37112e-08 1 -1 1.78736e-06 340 125.364)" fill="#E3F2FD"/>
</g>
<g style="mix-blend-mode:multiply">
<ellipse cx="136.631" cy="136.63" rx="136.631" ry="136.63" transform="matrix(-4.37112e-08 1 -1 1.78736e-06 273.259 0.519531)" fill="#FFF5F9"/>
</g>
<path d="M307.454 236.973H44.3113V102.379C44.3113 94.0811 51.0385 87.354 59.3361 87.354H292.429C300.727 87.354 307.454 94.0811 307.454 102.379V236.973Z" fill="#0D99FF"/>
<path d="M294.38 223.899V100.429L57.3871 100.429L57.3871 223.899L294.38 223.899Z" fill="#E4F4FF"/>
<path d="M307.452 251.158V236.971L44.2833 236.971V251.158L307.452 251.158Z" fill="#7948A3"/>
<path d="M28.161 263.646L25.4911 257.862C24.0514 254.747 26.3287 251.161 29.7577 251.161H322.008C325.463 251.161 327.74 254.721 326.274 257.862L323.604 263.646C320.751 269.798 314.574 273.75 307.794 273.75H43.971C37.1916 273.75 31.0141 269.798 28.161 263.646Z" fill="#B078DB"/>
<path d="M219.164 262.468H132.601C126.947 262.468 121.555 260.112 117.734 255.977L113.284 251.187H238.455L234.005 255.977C230.184 260.112 224.792 262.468 219.164 262.468Z" fill="#DFC9F1"/>
<path d="M268.898 119.184H82.8417V223.886H268.898V119.184Z" fill="#AEDDFF"/>
<path d="M185.24 133.266H92.9455V141.04H185.24V133.266Z" fill="#0D99FF"/>
<path d="M185.24 147.768H92.9455V155.542H185.24V147.768Z" fill="#0D99FF"/>
<path d="M185.24 162.269H92.9455V170.043H185.24V162.269Z" fill="#0D99FF"/>
<path d="M185.24 176.796H92.9455V184.57H185.24V176.796Z" fill="#0D99FF"/>
<path d="M141.868 191.297H92.9455V199.071H141.868V191.297Z" fill="#0D99FF"/>
<path d="M254.292 133.266H194.69V141.04H254.292V133.266Z" fill="#0D99FF"/>
<path d="M254.292 147.768H194.69V155.542H254.292V147.768Z" fill="#0D99FF"/>
<path d="M224.478 162.269H194.69V170.043H224.478V162.269Z" fill="#0D99FF"/>
<path d="M254.292 176.796H194.69V184.57H254.292V176.796Z" fill="#0D99FF"/>
<path d="M224.478 191.297H194.69V199.071H224.478V191.297Z" fill="#0D99FF"/>
<path d="M254.396 166.168C271.729 166.168 285.781 152.117 285.781 134.784C285.781 117.451 271.729 103.399 254.396 103.399C237.063 103.399 223.012 117.451 223.012 134.784C223.012 152.117 237.063 166.168 254.396 166.168Z" fill="#E4F4FF"/>
<path d="M254.396 161.483C269.142 161.483 281.095 149.53 281.095 134.784C281.095 120.039 269.142 108.085 254.396 108.085C239.651 108.085 227.697 120.039 227.697 134.784C227.697 149.53 239.651 161.483 254.396 161.483Z" fill="#EA1A71"/>
<path d="M261.568 148.003H247.276C244.345 148.003 241.963 145.935 241.963 143.369V137.323C241.963 136.59 242.539 136.014 243.272 136.014C244.005 136.014 244.58 136.59 244.58 137.323V143.369C244.58 144.469 245.811 145.385 247.276 145.385H261.568C263.034 145.385 264.264 144.469 264.264 143.369V137.323C264.264 136.59 264.84 136.014 265.573 136.014C266.306 136.014 266.882 136.59 266.882 137.323V143.369C266.856 145.935 264.474 148.003 261.568 148.003Z" fill="#FAFCFF"/>
<path d="M254.475 140.595C253.768 140.595 253.166 140.019 253.166 139.286L253.009 121.225C253.009 120.492 253.585 119.916 254.318 119.916C255.024 119.916 255.626 120.492 255.626 121.225L255.784 139.286C255.784 139.993 255.208 140.569 254.475 140.595Z" fill="#FAFCFF"/>
<path d="M249.999 134.104L254.475 138.501L258.872 134.025L258.898 137.795L254.501 142.271L250.025 137.873L249.999 134.104Z" fill="#FAFCFF"/>
<path d="M29.9932 125.858V120.021H24.1037V115.99H29.9932V110.153H33.9196V115.99H39.8352V120.021H33.9196V125.858H29.9932Z" fill="#EA1A71"/>
<path d="M47.1906 76.1508L51.3264 72.015L47.1645 67.8531L50.0176 65L54.1795 69.1619L58.3152 65.0262L61.0899 67.8008L56.9541 71.9365L61.116 76.1246L58.2629 78.9777L54.101 74.7897L49.9652 78.9254L47.1906 76.1508Z" fill="#FEC603"/>
<path d="M23.0306 90.5208C18.0572 90.5208 14 86.4898 14 81.5164C14 76.5431 18.0572 72.4858 23.0306 72.4858C28.0039 72.4858 32.0611 76.5431 32.0611 81.5164C32.035 86.4898 28.0039 90.5208 23.0306 90.5208ZM23.0306 76.4122C20.2298 76.4122 17.9263 78.6894 17.9263 81.5164C17.9263 84.3172 20.2036 86.6206 23.0306 86.6206C25.8575 86.6206 28.1348 84.3434 28.1348 81.5164C28.1086 78.6894 25.8313 76.4122 23.0306 76.4122Z" fill="#0D99FF"/>
</svg>
