<svg width="32" height="27" viewBox="0 0 32 27" fill="none" xmlns="http://www.w3.org/2000/svg">
<path d="M4.69585 11.6785L3.28125 5.76367H7.08456" stroke="#1A2E3D" stroke-width="2" stroke-miterlimit="10"/>
<path d="M25.2266 5.76367H29.031L28.158 9.4137" stroke="#1A2E3D" stroke-width="2" stroke-miterlimit="10"/>
<path d="M24.4973 9.41336L25.2273 5.76334L26.0339 1.72852H6.27344L7.07896 5.76334L8.26011 11.6781" stroke="#1A2E3D" stroke-width="2" stroke-miterlimit="10"/>
<path d="M21.3207 9.41406L20.6501 11.6788H2L5.3606 25.7293H26.9498L30.3104 9.41406H21.3207Z" stroke="#1A2E3D" stroke-width="2" stroke-miterlimit="10"/>
<path d="M13.8871 4.14725C13.6386 3.95616 13.2679 3.86133 12.7535 3.86133C12.2391 3.86133 11.8885 3.89437 11.6313 3.93317C11.6126 3.93604 11.5939 3.93892 11.5781 3.94179V7.45767H12.5264V6.245C12.5854 6.245 12.6644 6.25506 12.7592 6.25506C13.2406 6.25506 13.6587 6.13867 13.9446 5.88436C14.1716 5.67746 14.2938 5.36567 14.2938 5.00503C14.2938 4.64439 14.13 4.32686 13.8857 4.14725H13.8871ZM12.7434 5.52372C12.6428 5.52372 12.5796 5.51797 12.5264 5.51366V4.60272C12.5739 4.59267 12.6701 4.58117 12.8066 4.58117C13.1716 4.58117 13.3469 4.76077 13.3469 5.02658C13.3469 5.33406 13.1141 5.52372 12.7434 5.52372Z" fill="#1A2E3D"/>
<path d="M17.4856 4.3053C17.4482 4.27369 17.4109 4.24352 17.3706 4.21622C17.0215 3.97196 16.5875 3.86133 15.9036 3.86133C15.4797 3.86133 15.0717 3.88719 14.7656 3.94035V7.43468C14.951 7.46629 15.2585 7.4979 15.7183 7.4979C16.4166 7.4979 17.0042 7.36571 17.3965 7.05823C17.4267 7.03381 17.4554 7.00794 17.4841 6.98065C17.7859 6.7019 18.0158 6.25362 18.0158 5.58694C18.0158 4.99785 17.8103 4.57973 17.4841 4.3053H17.4856ZM15.9252 6.7565C15.8619 6.7565 15.7714 6.7565 15.724 6.74645V4.61278C15.7714 4.60272 15.8662 4.59123 16.0157 4.59123C16.5875 4.59123 17.0057 4.91882 17.0057 5.61855C17.0057 6.42316 16.5444 6.768 15.9252 6.7565Z" fill="#1A2E3D"/>
<path d="M18.5156 3.88867V7.45771H19.1996H19.474V6.10136H20.7284V5.32836H19.474V4.67173H20.8088V3.88867H19.1996H18.5156Z" fill="#1A2E3D"/>
</svg>
