<svg width="18" height="19" viewBox="0 0 18 19" fill="none" xmlns="http://www.w3.org/2000/svg">
<circle cx="9" cy="9.72852" r="9" fill="#EA1A71"/>
<path fill-rule="evenodd" clip-rule="evenodd" d="M14.3423 5.20657C14.8141 5.76419 14.7446 6.59873 14.187 7.07058L5.52075 14.4039C4.96314 14.8757 4.12859 14.8062 3.65675 14.2486C3.1849 13.691 3.25443 12.8564 3.81204 12.3846L12.4783 5.05128C13.0359 4.57943 13.8704 4.64896 14.3423 5.20657Z" fill="white"/>
<path fill-rule="evenodd" clip-rule="evenodd" d="M3.65771 5.20657C3.18586 5.76419 3.25539 6.59873 3.813 7.07058L12.4792 14.4039C13.0369 14.8757 13.8714 14.8062 14.3433 14.2486C14.8151 13.691 14.7456 12.8564 14.188 12.3846L5.52171 5.05128C4.9641 4.57943 4.12956 4.64896 3.65771 5.20657Z" fill="white"/>
</svg>
