<svg width="117" height="481" viewBox="0 0 117 481" fill="none" xmlns="http://www.w3.org/2000/svg">
<g opacity="0.45">
<path d="M108.173 109.938C108.54 110.432 108.675 111.001 108.555 111.54C108.435 112.072 108.076 112.514 107.544 112.791L104.497 114.386C104.309 114.483 104.242 114.708 104.339 114.888C104.437 115.075 104.661 115.142 104.841 115.045L106.825 114.011C106.78 114.813 106.331 115.539 105.597 115.921L99.6743 119.013C99.4871 119.111 99.4197 119.335 99.517 119.515C99.6144 119.702 99.839 119.77 100.019 119.672L105.942 116.58C107.035 116.003 107.664 114.835 107.559 113.615L107.889 113.442C108.615 113.06 109.109 112.439 109.282 111.698C109.454 110.941 109.274 110.155 108.772 109.481L102.744 101.386C102.67 101.289 102.557 101.237 102.445 101.237C102.37 101.237 102.288 101.259 102.22 101.312C102.055 101.439 102.018 101.671 102.145 101.836L108.173 109.938Z" fill="#0D99FF"/>
<path d="M84.7715 102.621C84.6741 102.441 84.749 102.209 84.9287 102.119L92.2745 98.2775C91.4808 96.2408 92.3344 93.8745 94.3188 92.8412C94.9478 92.5117 95.6366 92.3395 96.333 92.3395C96.7673 92.3395 97.2091 92.4069 97.6435 92.5417C98.7517 92.8861 99.6653 93.6499 100.204 94.6833C100.803 95.8289 100.833 97.1169 100.414 98.2401L101.358 99.5131C101.485 99.6778 101.447 99.9174 101.283 100.037C101.118 100.157 100.886 100.127 100.759 99.9624L100.04 98.9964C99.6428 99.6404 99.0737 100.187 98.3624 100.561C96.3106 101.632 93.7946 100.906 92.619 98.944L85.2881 102.778C85.0934 102.875 84.8688 102.808 84.7715 102.621ZM92.9559 97.9256C93.0083 98.0754 93.0607 98.2326 93.1356 98.3749C93.1805 98.4573 93.2255 98.5246 93.2779 98.5995C93.9518 99.6853 95.1275 100.314 96.3405 100.314C96.9021 100.314 97.4712 100.18 98.0029 99.9025C98.6918 99.543 99.2085 98.9889 99.538 98.3374C99.6727 98.0679 99.7626 97.7908 99.83 97.4988C100.017 96.6901 99.9423 95.8214 99.523 95.0352C99.0737 94.1815 98.3249 93.5525 97.4039 93.2605C96.4828 92.9685 95.5093 93.0583 94.6557 93.5076C93.0533 94.3538 92.3568 96.2557 92.9559 97.9256Z" fill="#0D99FF"/>
<path d="M80.2043 105.435L83.7012 103.608C83.8884 103.511 83.9559 103.286 83.8585 103.106C83.7911 102.979 83.6638 102.904 83.529 102.904C83.4691 102.904 83.4092 102.919 83.3568 102.949L79.8598 104.776C79.6726 104.873 79.6052 105.098 79.7026 105.278C79.7999 105.457 80.0171 105.525 80.2043 105.435Z" fill="#0D99FF"/>
<path d="M95.2173 123.797L89.1595 126.964C89.0022 127.047 88.8 127.024 88.6653 126.905L87.3175 125.721C87.2051 125.624 87.0553 125.602 86.9206 125.662C85.8198 126.141 84.5168 125.684 83.9627 124.628L79.717 116.511C79.6496 116.384 79.5223 116.309 79.3875 116.309C79.3276 116.309 79.2677 116.324 79.2153 116.354C79.0281 116.451 78.9607 116.676 79.0581 116.855L83.3038 124.973C84.0002 126.305 85.5877 126.92 86.9954 126.433L88.1785 127.466C88.5454 127.788 89.0846 127.848 89.5114 127.623L95.5693 124.456C96.0036 124.224 96.2507 123.76 96.1983 123.273L96.0336 121.76L98.0928 120.682C98.28 120.585 98.3474 120.36 98.2501 120.18C98.1527 119.993 97.928 119.926 97.7483 120.023L95.457 121.221C95.3222 121.296 95.2398 121.438 95.2548 121.595L95.4495 123.355C95.472 123.542 95.3821 123.715 95.2173 123.797Z" fill="#0D99FF"/>
<path d="M78.2431 115.284C78.3405 115.471 78.5651 115.538 78.7448 115.441C78.932 115.343 78.9994 115.119 78.9021 114.939L77.2996 111.869L84.915 122.098C85.9109 123.438 87.9103 123.902 89.3779 123.131L102.168 116.444C102.355 116.347 102.422 116.122 102.325 115.942C102.227 115.755 102.003 115.688 101.823 115.785L89.0334 122.472C87.8803 123.079 86.3003 122.704 85.5215 121.648L76.7005 109.795C76.3336 109.301 76.1988 108.731 76.3186 108.192C76.4085 107.795 76.6331 107.444 76.9626 107.181C77.0749 107.092 77.1947 107.009 77.3295 106.942C77.5167 106.844 77.5842 106.62 77.4868 106.44C77.4194 106.313 77.2921 106.238 77.1573 106.238C77.0974 106.238 77.0375 106.253 76.9851 106.283C76.2662 106.657 75.7271 107.294 75.4875 108.073C75.2479 108.851 75.3153 109.675 75.6972 110.401L78.2431 115.284Z" fill="#0D99FF"/>
<path d="M95.9751 95.4558C95.99 95.4783 96.0051 95.5008 96.02 95.5232C96.1099 95.703 96.1098 95.9051 95.9751 96.3993C95.8777 96.7438 95.8403 97.0209 95.8328 97.2605C95.8253 97.5675 95.8852 97.8221 96.0125 98.0692C96.2971 98.6083 96.7239 98.7731 97.2406 98.5035C97.7573 98.2339 97.8696 97.7846 97.585 97.2455L97.4577 97.0059L97.4128 96.9235L97.293 96.9834L96.9111 97.1856L97.0983 97.545C97.2256 97.7847 97.1657 97.9344 97.0009 98.0168C96.8362 98.1066 96.6864 98.0767 96.5292 97.7772C96.4094 97.5525 96.372 97.3354 96.3869 97.0583C96.4019 96.8861 96.4319 96.6989 96.4993 96.4518C96.5217 96.3844 96.5292 96.3245 96.5442 96.2646C96.664 95.7629 96.6415 95.4409 96.4693 95.1039L96.2521 94.6921L94.7246 95.4933L94.9792 95.9725L95.9751 95.4558Z" fill="#0D99FF"/>
<path d="M27.5699 420.198C27.4801 420.198 27.3902 420.228 27.3228 420.296L19.7598 426.975C19.2955 427.379 18.7414 427.566 18.1948 427.484C17.6557 427.409 17.1839 427.087 16.8619 426.578L15.0199 423.673C14.9075 423.5 14.6754 423.448 14.5032 423.56C14.331 423.673 14.2786 423.905 14.3909 424.077L15.589 425.964C14.7877 425.986 14.0239 425.597 13.5821 424.901L10.0029 419.262C9.93548 419.15 9.80814 419.09 9.68834 419.09C9.62094 419.09 9.55353 419.105 9.48614 419.15C9.31392 419.262 9.26148 419.494 9.3738 419.667L12.9531 425.305C13.6121 426.346 14.8401 426.87 16.0382 426.668L16.2404 426.982C16.6822 427.679 17.3412 428.121 18.0975 428.225C18.8687 428.338 19.6325 428.091 20.2615 427.537L27.8245 420.857C27.9817 420.722 27.9967 420.483 27.8545 420.325C27.7721 420.243 27.6673 420.198 27.5699 420.198Z" fill="#0D99FF"/>
<path d="M24.531 402.18C24.7033 402.068 24.7557 401.836 24.6434 401.663L22.5243 398.331C22.4569 398.219 22.3296 398.159 22.2098 398.159C22.1424 398.159 22.075 398.174 22.0076 398.219C21.8353 398.331 21.783 398.563 21.8953 398.736L24.0144 402.068C24.1267 402.233 24.3588 402.285 24.531 402.18Z" fill="#0D99FF"/>
<path d="M5.03129 409.348L12.7665 421.531C12.8788 421.704 13.111 421.756 13.2832 421.644C13.4554 421.531 13.5078 421.299 13.3954 421.127L5.66026 408.944C4.96387 407.843 5.19596 406.241 6.18439 405.372L17.2593 395.585C17.7236 395.173 18.2777 394.994 18.8243 395.076C19.2287 395.136 19.5956 395.331 19.8876 395.63C19.985 395.735 20.0748 395.847 20.1572 395.975C20.2471 396.117 20.4193 396.177 20.5766 396.132C20.614 396.124 20.644 396.117 20.6739 396.094C20.8087 396.012 20.8686 395.862 20.8461 395.72C20.8387 395.675 20.8236 395.623 20.7937 395.578C20.3594 394.889 19.678 394.41 18.8843 394.237C18.6596 394.185 18.435 394.162 18.2103 394.162C17.6412 394.162 17.0796 394.327 16.5779 394.642L11.9203 397.599C11.7481 397.712 11.6956 397.944 11.808 398.116C11.9203 398.288 12.1525 398.341 12.3247 398.228L15.2526 396.371L5.69774 404.818C4.43974 405.919 4.14769 407.948 5.03129 409.348Z" fill="#0D99FF"/>
<path d="M0.560959 409.865L4.22256 415.631C4.48464 416.043 4.97888 416.252 5.45811 416.162L6.94824 415.87L8.19878 417.832C8.31111 418.004 8.54319 418.057 8.71542 417.945C8.88765 417.832 8.94008 417.6 8.82776 417.428L7.44248 415.249C7.36011 415.122 7.20285 415.054 7.05308 415.084L5.30839 415.429C5.12867 415.466 4.94897 415.384 4.85163 415.234L1.18993 409.468C1.09259 409.318 1.10009 409.116 1.20493 408.966L2.26818 407.521C2.35803 407.401 2.36555 407.252 2.29816 407.124C1.72906 406.068 2.07355 404.736 3.08445 404.092L10.8196 399.179C10.9918 399.067 11.0443 398.835 10.932 398.663C10.8646 398.55 10.7372 398.49 10.6174 398.49C10.55 398.49 10.4826 398.505 10.4152 398.55L2.68006 403.463C1.40708 404.271 0.93531 405.904 1.53436 407.267L0.605841 408.532C0.313805 408.914 0.298876 409.446 0.560959 409.865Z" fill="#0D99FF"/>
<path d="M35.6267 411.737C36.9146 413.766 36.3156 416.462 34.2863 417.75C33.193 418.439 31.9126 418.581 30.7594 418.252L29.5688 419.3C29.4191 419.435 29.1794 419.42 29.0371 419.27C28.9023 419.113 28.9173 418.881 29.0671 418.739L29.9656 417.945C29.2917 417.6 28.6927 417.084 28.2659 416.402C27.0229 414.448 27.547 411.879 29.3965 410.539L24.9636 403.56C24.8513 403.388 24.9038 403.156 25.076 403.044C25.1359 403.006 25.2107 402.984 25.2781 402.984C25.4054 402.984 25.5252 403.044 25.5926 403.156L30.0331 410.157C30.6396 409.858 31.291 409.708 31.935 409.708C33.3877 409.715 34.803 410.434 35.6267 411.737ZM34.9977 412.142C34.0168 410.599 32.0698 410.067 30.4524 410.809C30.3026 410.876 30.1529 410.936 30.0181 411.026C29.9432 411.071 29.8833 411.138 29.8084 411.191C28.3108 412.306 27.884 414.403 28.9024 416.005C29.3217 416.664 29.9133 417.136 30.5872 417.406C30.8568 417.518 31.1413 417.593 31.4334 417.638C31.6056 417.66 31.7778 417.683 31.9575 417.683C32.6165 417.683 33.2904 417.503 33.8894 417.121C35.5667 416.05 36.061 413.819 34.9977 412.142Z" fill="#0D99FF"/>
<path d="M32.5653 412.656L33.1718 413.607C33.1493 413.63 33.1269 413.637 33.1044 413.652C32.9322 413.757 32.73 413.772 32.2208 413.682C31.8689 413.615 31.5919 413.6 31.3522 413.615C31.0452 413.637 30.7981 413.712 30.5585 413.862C30.0493 414.184 29.9145 414.626 30.229 415.12C30.5435 415.614 31.0003 415.682 31.5095 415.36L31.7416 415.217L31.824 415.165L31.7565 415.053L31.5245 414.686L31.1799 414.903C30.9553 415.045 30.7981 415 30.7008 414.843C30.596 414.686 30.6109 414.536 30.9029 414.349C31.1126 414.214 31.3298 414.154 31.6068 414.146C31.779 414.146 31.9662 414.161 32.2208 414.206C32.2882 414.221 32.3481 414.221 32.408 414.236C32.9172 414.311 33.2392 414.266 33.5612 414.064L33.9581 413.817L33.0371 412.364L32.5653 412.656Z" fill="#0D99FF"/>
<path d="M171.176 373.405L203.705 421.277C206.101 424.803 205.502 430.075 202.364 433.025L172.562 461.076C171.012 462.536 169.095 463.217 167.155 463.008C165.238 462.798 163.546 461.735 162.378 460.012L161.554 458.807C158.357 459.646 154.987 458.388 153.13 455.654L135.465 429.656L130.928 430.697C129.872 430.936 128.764 430.502 128.157 429.611L117.524 413.961C116.91 413.055 116.91 411.886 117.532 410.988L120.22 407.087C118.34 403.597 119.389 399.194 122.668 396.963L160.356 371.353C161.666 370.462 163.172 370.006 164.722 370.006C165.208 370.006 165.702 370.05 166.197 370.148C167.986 370.492 169.566 371.421 170.72 372.806C170.877 372.986 171.027 373.195 171.176 373.405ZM161.105 458.14L129.849 412.141C127.453 408.614 128.052 403.343 131.19 400.392L160.992 372.349C161.636 371.743 162.34 371.279 163.082 370.949C162.273 371.144 161.487 371.481 160.775 371.967L123.088 397.577C120.062 399.628 119.141 403.732 120.984 406.914C121.058 407.042 121.051 407.199 120.969 407.311L118.146 411.407C117.704 412.051 117.696 412.89 118.138 413.534L128.771 429.184C129.205 429.82 129.999 430.135 130.756 429.963L135.548 428.862C135.698 428.825 135.855 428.892 135.945 429.019L153.759 455.228C155.384 457.624 158.297 458.762 161.105 458.14ZM203.091 421.696L170.562 373.832C170.435 373.637 170.293 373.458 170.15 373.278C169.14 372.065 167.799 371.323 166.324 371.159C164.609 370.972 162.894 371.586 161.509 372.888L131.706 400.931C128.831 403.642 128.277 408.479 130.471 411.714L162.999 459.586C164.04 461.121 165.553 462.072 167.245 462.251C167.447 462.274 167.649 462.281 167.852 462.281C169.364 462.281 170.832 461.667 172.052 460.522L201.855 432.471C204.738 429.768 205.285 424.931 203.091 421.696Z" fill="#0D99FF"/>
<path d="M12.0924 213.474C9.99576 211.467 9.68129 208.285 11.1864 205.926C11.2688 205.799 11.3511 205.679 11.441 205.559C11.4634 205.529 11.486 205.492 11.5084 205.462C11.6282 205.305 11.763 205.147 11.9052 204.998L42.262 173.36C43.5649 172.005 45.452 171.301 47.339 171.301C48.7392 171.301 50.1395 171.691 51.3001 172.492L76.7746 190.164C78.1225 191.1 78.9462 192.44 79.0959 193.938C79.2457 195.413 78.7141 196.866 77.6058 198.026L76.8795 198.782C77.9802 201.036 77.5759 203.74 75.8311 205.559L59.3873 222.699L60.8474 225.845C61.2144 226.631 61.0647 227.544 60.4656 228.166L50.5439 238.514C49.9523 239.128 49.0312 239.323 48.2375 238.994L44.9727 237.638C42.6514 239.57 39.1919 239.48 37.0054 237.376L12.0924 213.474ZM11.1714 209.011C11.2987 210.284 12.0101 211.437 13.1708 212.239L38.6453 229.911C39.6787 230.629 40.9292 230.974 42.1872 230.974C43.872 230.974 45.5567 230.345 46.7174 229.132L77.0667 197.495C78.0177 196.499 78.4744 195.256 78.3546 193.998C78.2273 192.725 77.516 191.571 76.3554 190.77L50.8808 173.098C48.4547 171.413 44.8379 171.758 42.8086 173.87L12.4593 205.507C12.4519 205.514 12.4444 205.522 12.4369 205.529C12.3246 205.649 12.2198 205.769 12.1149 205.896C12.0251 206.009 11.9502 206.121 11.8678 206.241C11.8529 206.256 11.8453 206.278 11.8304 206.293C11.3062 207.139 11.0741 208.068 11.1714 209.011ZM12.0251 212.261C12.1973 212.493 12.392 212.725 12.6092 212.935L37.5221 236.83C39.4915 238.717 42.6214 238.754 44.6507 236.919C44.7555 236.822 44.9128 236.8 45.0476 236.852L48.5296 238.297C49.0387 238.507 49.6303 238.387 50.0047 237.99L59.9264 227.642C60.3083 227.237 60.4057 226.653 60.1736 226.152L58.601 222.774C58.5336 222.632 58.5636 222.467 58.6685 222.355L75.2845 205.035C76.7447 203.507 77.1266 201.276 76.3104 199.359L47.2491 229.656C44.9802 232.022 40.9291 232.412 38.2109 230.525L12.7364 212.853C12.4818 212.673 12.2497 212.471 12.0251 212.261Z" fill="#0D99FF"/>
<path d="M25.617 51.4156C24.4788 50.3223 24.2166 48.6675 24.8232 47.3046C24.8906 47.1474 24.973 46.9902 25.0628 46.8404C25.1452 46.7056 25.2576 46.5858 25.3624 46.4585C25.4148 46.3986 25.4522 46.3312 25.5046 46.2713L43.1166 27.9105C43.9029 27.0943 45.0411 26.6674 46.1793 26.6674C47.0254 26.6674 47.8641 26.8996 48.568 27.3863L63.3495 37.645C64.1657 38.2141 64.6674 39.0303 64.7648 39.9439C64.8546 40.8499 64.5326 41.7335 63.8586 42.4374L63.5067 42.8043C64.1133 44.1521 63.8586 45.7397 62.8253 46.8105L53.3603 56.6798L54.1616 58.4095C54.4012 58.9187 54.2964 59.5252 53.907 59.9296L48.1486 65.935C47.7592 66.3469 47.1677 66.4742 46.636 66.2495L44.8314 65.5007C43.4237 66.609 41.3794 66.5341 40.0764 65.2836L25.617 51.4156ZM62.9451 43.3959L46.2466 60.8057C44.8838 62.2285 42.4353 62.4681 40.8028 61.3299L27.1969 51.8874L40.6007 64.7445C41.6789 65.7778 43.4012 65.8003 44.5244 64.7894C44.6292 64.692 44.7865 64.6696 44.9213 64.722L46.9431 65.5606C47.1827 65.658 47.4523 65.6056 47.6245 65.4184L53.3828 59.4129C53.555 59.2257 53.6 58.9561 53.4951 58.724L52.5816 56.7621C52.5142 56.6198 52.5441 56.4551 52.649 56.3428L62.2937 46.2938C63.035 45.515 63.2746 44.3993 62.9451 43.3959ZM25.3474 48.6974C25.4148 49.3938 25.8041 50.0154 26.4406 50.4572L41.2221 60.7159C41.7987 61.1127 42.4951 61.3074 43.1915 61.3074C44.1275 61.3074 45.0635 60.9555 45.7075 60.289L63.3195 41.9282C63.8437 41.3816 64.0908 40.7077 64.0235 40.0262C63.9561 39.3298 63.5666 38.7083 62.9301 38.2665L48.1486 28.0078C46.8008 27.0718 44.794 27.2665 43.6708 28.4346L26.0587 46.7955C25.9239 46.9302 25.8117 47.08 25.7143 47.2373C25.6394 47.3496 25.587 47.4694 25.5346 47.5892C25.3699 47.9411 25.31 48.3155 25.3474 48.6974Z" fill="#0D99FF"/>
<path d="M118.438 344.179L112.911 346.373C112.717 346.448 112.627 346.665 112.702 346.86C112.777 347.054 112.994 347.144 113.189 347.069L119.059 344.733C119.254 344.658 119.344 344.441 119.269 344.246L112.53 327.286C112.47 327.136 112.327 327.046 112.185 327.046C112.14 327.046 112.095 327.054 112.05 327.076C111.856 327.151 111.766 327.368 111.841 327.563L118.438 344.179Z" fill="#0D99FF"/>
<path d="M96.769 288.236C96.724 288.236 96.6791 288.243 96.6341 288.266L91.6246 290.258C91.4299 290.333 91.3401 290.55 91.4149 290.744C91.4898 290.939 91.707 291.029 91.9017 290.954L96.5668 289.104L110.629 324.508C110.704 324.703 110.921 324.793 111.116 324.718C111.311 324.643 111.401 324.426 111.326 324.231L97.1284 288.483C97.0535 288.326 96.9187 288.236 96.769 288.236Z" fill="#0D99FF"/>
<path d="M82.7419 294.586L89.0468 292.077C89.2415 292.003 89.3314 291.785 89.2565 291.591C89.1966 291.441 89.0543 291.351 88.9121 291.351C88.8671 291.351 88.8222 291.359 88.7772 291.381L82.4722 293.89C82.2775 293.964 82.1877 294.182 82.2626 294.376C82.33 294.564 82.5472 294.661 82.7419 294.586Z" fill="#0D99FF"/>
<path d="M76.3845 296.705C76.3246 296.556 76.1823 296.466 76.0401 296.466C75.9951 296.466 75.9502 296.473 75.9053 296.496L49.2476 307.084C49.0529 307.159 48.9631 307.376 49.038 307.571L49.3974 308.469C49.4723 308.664 49.6895 308.754 49.8842 308.679C50.0789 308.604 50.1686 308.387 50.0938 308.192L49.8767 307.645L76.1899 297.192C76.3696 297.117 76.4594 296.9 76.3845 296.705Z" fill="#0D99FF"/>
<path d="M114.537 355.232C114.575 355.322 114.575 355.427 114.53 355.517C114.492 355.606 114.417 355.681 114.328 355.719L79.1635 369.684C79.1485 369.691 79.1335 369.691 79.111 369.691C79.096 369.699 79.0811 369.699 79.0661 369.699C78.9987 369.706 78.9388 369.706 78.8714 369.677L61.7835 362.308C61.7236 362.278 61.6712 362.233 61.6338 362.181C61.6263 362.166 61.6188 362.158 61.6113 362.143C61.6038 362.128 61.5889 362.121 61.5814 362.099L44.2838 318.548C44.209 318.353 44.2988 318.136 44.4935 318.061L52.0041 315.081L50.7237 311.846C50.6488 311.651 50.7386 311.434 50.9333 311.359C50.9782 311.344 51.0232 311.329 51.0681 311.329C51.2179 311.329 51.3601 311.419 51.4125 311.569L52.6931 314.804L91.8783 299.236C91.9232 299.221 91.9681 299.206 92.013 299.206C92.1627 299.206 92.3051 299.296 92.3575 299.446L114.537 355.232ZM78.3472 368.636L73.9592 357.591L62.9142 361.979L70.627 365.303L78.3472 368.636ZM113.699 355.165L91.8184 300.075L52.985 315.5L52.2887 315.777L45.1225 318.623L62.143 361.477L74.0266 356.76C74.0716 356.745 74.1165 356.73 74.1614 356.73C74.2138 356.73 74.2588 356.737 74.3112 356.76C74.4011 356.797 74.4759 356.872 74.5133 356.962L79.2308 368.845L113.699 355.165Z" fill="#0D99FF"/>
<path d="M85.3705 334.153C85.3256 334.153 85.2807 334.161 85.2358 334.183L79.6272 336.414L77.3958 330.806C77.3359 330.656 77.1936 330.566 77.0513 330.566C77.0063 330.566 76.9615 330.574 76.9165 330.596C76.7219 330.671 76.632 330.888 76.7069 331.083L78.9383 336.691L73.3297 338.923C73.135 338.998 73.0451 339.215 73.12 339.41C73.1949 339.604 73.4121 339.694 73.6068 339.619L79.2153 337.388L81.4468 342.996C81.5217 343.191 81.7388 343.281 81.9335 343.206C82.1282 343.131 82.2181 342.914 82.1432 342.719L79.9118 337.111L85.5204 334.879C85.7151 334.804 85.8049 334.587 85.7301 334.393C85.6627 334.243 85.5203 334.153 85.3705 334.153Z" fill="#0D99FF"/>
<path d="M87.1761 461.847C87.1162 461.697 86.9739 461.607 86.8316 461.607C86.7867 461.607 86.7418 461.615 86.6968 461.637C86.5021 461.712 86.4123 461.929 86.4872 462.124L89.3102 469.23L87.0787 470.121C86.884 470.196 86.7942 470.413 86.869 470.608C86.9439 470.802 87.1611 470.892 87.3558 470.817L89.9392 469.792C90.1339 469.717 90.2237 469.5 90.1488 469.305L87.1761 461.847Z" fill="#0D99FF"/>
<path d="M77.9803 446.137L79.8374 445.403L85.9476 460.776C86.0225 460.97 86.2397 461.06 86.4344 460.985C86.6291 460.911 86.719 460.693 86.6441 460.499L80.399 444.774C80.3616 444.684 80.2867 444.609 80.1968 444.572C80.1519 444.549 80.0994 444.542 80.047 444.542C80.0021 444.542 79.9497 444.549 79.9123 444.572L77.7107 445.448C77.516 445.523 77.4263 445.74 77.5011 445.934C77.5685 446.122 77.7856 446.211 77.9803 446.137Z" fill="#0D99FF"/>
<path d="M73.9527 447.74L76.7234 446.64C76.9181 446.565 77.0079 446.348 76.9331 446.153C76.8731 446.003 76.7308 445.913 76.5885 445.913C76.5436 445.913 76.4987 445.921 76.4538 445.943L73.6832 447.044C73.4885 447.119 73.3987 447.336 73.4736 447.531C73.5409 447.718 73.758 447.815 73.9527 447.74Z" fill="#0D99FF"/>
<path d="M71.2784 448.399C71.2185 448.25 71.0762 448.16 70.934 448.16C70.889 448.16 70.8441 448.167 70.7991 448.19L59.0728 452.847C58.9829 452.885 58.9081 452.96 58.8707 453.049C58.8332 453.139 58.8332 453.244 58.8632 453.334L59.0204 453.731C59.0953 453.926 59.3124 454.015 59.5071 453.941C59.7018 453.866 59.7917 453.648 59.7168 453.454L59.7018 453.409L71.0762 448.886C71.2559 448.804 71.3533 448.587 71.2784 448.399Z" fill="#0D99FF"/>
<path d="M88.0524 474.135C88.1273 474.33 88.0374 474.547 87.8427 474.622L72.3798 480.762C72.3648 480.77 72.3499 480.77 72.3274 480.77C72.3124 480.77 72.2974 480.777 72.2824 480.777C72.2151 480.785 72.1551 480.785 72.0877 480.755L64.5698 477.512C64.5099 477.482 64.4574 477.437 64.4199 477.385C64.4125 477.37 64.405 477.363 64.3975 477.348C64.3901 477.333 64.3751 477.325 64.3676 477.303L56.7596 458.148C56.7222 458.058 56.7222 457.953 56.7671 457.864C56.8046 457.774 56.8795 457.699 56.9693 457.661L60.0769 456.426L59.5902 455.198C59.5153 455.003 59.6051 454.786 59.7998 454.711C59.8448 454.696 59.8896 454.681 59.9346 454.681C60.0843 454.681 60.2267 454.771 60.2791 454.921L60.7657 456.149L77.8012 449.379C77.8461 449.365 77.8911 449.35 77.936 449.35C77.9884 449.35 78.0333 449.357 78.0857 449.379C78.1756 449.417 78.2505 449.492 78.2879 449.582L88.0524 474.135ZM71.5636 479.714L69.9013 475.52L65.708 477.183L68.6357 478.448L71.5636 479.714ZM87.2213 474.06L77.7563 450.226L61.0653 456.853L60.3689 457.13L57.6058 458.223L64.9367 476.681L69.9686 474.682C70.0136 474.667 70.0585 474.652 70.1035 474.652C70.1559 474.652 70.2008 474.659 70.2532 474.682C70.3431 474.719 70.418 474.794 70.4554 474.884L72.4547 479.916L87.2213 474.06Z" fill="#0D99FF"/>
<path d="M75.0304 464.728C74.9854 464.728 74.9405 464.736 74.8955 464.758L72.6192 465.664L71.7131 463.388C71.6532 463.238 71.5109 463.148 71.3687 463.148C71.3237 463.148 71.2788 463.156 71.2338 463.178C71.0391 463.253 70.9494 463.47 71.0242 463.665L71.9303 465.941L69.6539 466.847C69.4592 466.922 69.3694 467.139 69.4443 467.334C69.5191 467.529 69.7362 467.619 69.9309 467.544L72.2073 466.638L73.1134 468.907C73.1882 469.101 73.4054 469.191 73.6001 469.116C73.7948 469.041 73.8847 468.824 73.8098 468.63L72.9038 466.361L75.1726 465.455C75.3673 465.38 75.4571 465.163 75.3823 464.968C75.3224 464.818 75.1801 464.728 75.0304 464.728Z" fill="#0D99FF"/>
</g>
</svg>
