<svg width="142" height="121" viewBox="0 0 142 121" fill="none" xmlns="http://www.w3.org/2000/svg">
<path d="M132.798 22.5L116.673 89.9279H25.3364L9.21094 22.5H132.798Z" fill="#5DBCFF"/>
<path d="M106.364 63.479H35.6543L23.6016 3.14844H118.416L106.364 63.479Z" fill="#FF8720"/>
<path opacity="0.1" d="M88.5724 30.3457L85.3473 41.2062H31.2031L35.6521 63.4793H106.361L112.98 30.3457H88.5724Z" fill="#344552"/>
<path d="M95.794 40.0195L92.5689 50.88H3.08594L19.2114 118.308H122.805L138.93 40.0195H95.794Z" fill="#FEC603"/>
<path d="M64.8776 15.281C64.1019 14.6846 62.945 14.3887 61.3398 14.3887C59.7345 14.3887 58.6404 14.4918 57.8378 14.6129C57.7795 14.6218 57.7212 14.6308 57.6719 14.6398V25.6121H60.6313V21.8276C60.8152 21.8276 61.0618 21.859 61.3577 21.859C62.8598 21.859 64.1647 21.4958 65.057 20.7021C65.7655 20.0564 66.1466 19.0834 66.1466 17.9579C66.1466 16.8324 65.6354 15.8415 64.8732 15.281H64.8776ZM61.3084 19.5766C60.9945 19.5766 60.7972 19.5587 60.6313 19.5453V16.7024C60.7793 16.671 61.0797 16.6352 61.5057 16.6352C62.6446 16.6352 63.1917 17.1956 63.1917 18.0252C63.1917 18.9848 62.4653 19.5766 61.3084 19.5766Z" fill="white"/>
<path d="M76.1054 15.7781C75.9888 15.6795 75.8722 15.5853 75.7466 15.5001C74.657 14.7378 73.3029 14.3926 71.1685 14.3926C69.8457 14.3926 68.5723 14.4733 67.6172 14.6392V25.5443C68.1956 25.6429 69.1552 25.7416 70.5901 25.7416C72.7693 25.7416 74.6032 25.329 75.8274 24.3695C75.9215 24.2932 76.0112 24.2125 76.1009 24.1273C77.0425 23.2574 77.76 21.8584 77.76 19.7778C77.76 17.9394 77.1188 16.6346 76.1009 15.7781H76.1054ZM71.2358 23.4278C71.0385 23.4278 70.756 23.4278 70.608 23.3964V16.7377C70.756 16.7063 71.0519 16.6704 71.5183 16.6704C73.3029 16.6704 74.6077 17.6928 74.6077 19.8765C74.6077 22.3875 73.1684 23.4637 71.2358 23.4278Z" fill="white"/>
<path d="M79.3516 14.4727V25.6109H81.4859H82.3424V21.378H86.2569V18.9656H82.3424V16.9164H86.508V14.4727H81.4859H79.3516Z" fill="white"/>
<path d="M125.666 104.409C124.361 104.14 123.079 104.98 122.808 106.29L120.831 115.89H21.1175L11.1539 74.2224C10.8426 72.9229 9.5378 72.121 8.24003 72.4323C6.9405 72.7436 6.13862 74.0484 6.44988 75.3479L16.8584 118.871C17.1187 119.959 18.0911 120.728 19.2113 120.728H122.803C123.951 120.728 124.939 119.921 125.171 118.797L127.545 107.268C127.814 105.96 126.974 104.68 125.664 104.411L125.666 104.409Z" fill="#344552"/>
<path d="M140.802 38.4923C140.343 37.9278 139.654 37.6007 138.927 37.6007H131.675L135.152 23.0614C135.324 22.3405 135.157 21.5826 134.698 21.0005C134.239 20.4202 133.539 20.0808 132.799 20.0808H117.495L120.783 3.62125C120.926 2.91081 120.741 2.174 120.282 1.61304C119.823 1.05208 119.136 0.728516 118.411 0.728516H50.1039C48.7674 0.728516 47.6859 1.81175 47.6859 3.14645C47.6859 4.48115 48.7692 5.56439 50.1039 5.56439H115.462L109.063 37.599H95.7914C94.7205 37.599 93.778 38.3024 93.4737 39.3293L90.7621 48.4594H35.1179L26.5488 5.56615H40.4286C41.7651 5.56615 42.8465 4.48291 42.8465 3.14821C42.8465 1.81351 41.7651 0.728516 40.4286 0.728516H23.598C22.8735 0.728516 22.1877 1.05384 21.727 1.61304C21.268 2.174 21.0834 2.91081 21.2258 3.62125L24.5142 20.0808H9.21173C8.4714 20.0808 7.77152 20.4202 7.31255 21.0005C6.85358 21.5826 6.68653 22.3405 6.85886 23.0614L12.9327 48.4594H3.08336C2.34303 48.4594 1.64315 48.7988 1.18418 49.3791C0.725215 49.9612 0.558157 50.7191 0.73049 51.4401L4.13319 65.6699C4.44444 66.9694 5.74749 67.7713 7.04702 67.46C8.34655 67.1488 9.14843 65.844 8.83717 64.5444L6.14667 53.2953H92.5628C93.6338 53.2953 94.5763 52.5919 94.8805 51.565L97.5921 42.4348H135.956L124.798 96.6124C124.529 97.9207 125.369 99.1992 126.679 99.47C126.845 99.5034 127.008 99.521 127.17 99.521C128.294 99.521 129.301 98.7332 129.537 97.5901L141.294 40.5058C141.44 39.7936 141.259 39.0532 140.8 38.4888L140.802 38.4923ZM17.9075 48.4612L12.2768 24.9184H25.4814L30.1854 48.4612H17.9075ZM126.702 37.6007H113.997L116.531 24.9184H129.736L126.704 37.6007H126.702Z" fill="#344552"/>
</svg>
