<svg width="100" height="481" viewBox="0 0 100 481" fill="none" xmlns="http://www.w3.org/2000/svg">
<g opacity="0.45">
<path d="M-7.79831 109.938C-8.16522 110.432 -8.30002 111.001 -8.18021 111.54C-8.0604 112.072 -7.70099 112.514 -7.16933 112.791L-4.12162 114.386C-3.93442 114.483 -3.86706 114.708 -3.9644 114.888C-4.06175 115.075 -4.28633 115.142 -4.46605 115.045L-6.45041 114.011C-6.40548 114.813 -5.95619 115.539 -5.22235 115.921L0.700669 119.013C0.887871 119.111 0.955326 119.335 0.857981 119.515C0.760636 119.702 0.53596 119.77 0.356246 119.672L-5.56687 116.58C-6.66013 116.003 -7.28906 114.835 -7.18423 113.615L-7.51375 113.442C-8.2401 113.06 -8.7343 112.439 -8.90653 111.698C-9.07876 110.941 -8.899 110.155 -8.3973 109.481L-2.36943 101.386C-2.29455 101.289 -2.18221 101.237 -2.06989 101.237C-1.99501 101.237 -1.9126 101.259 -1.84521 101.312C-1.68047 101.439 -1.64305 101.671 -1.77035 101.836L-7.79831 109.938Z" fill="#0D99FF"/>
<path d="M15.6035 102.621C15.7009 102.441 15.626 102.209 15.4463 102.119L8.10046 98.2775C8.8942 96.2408 8.04057 93.8745 6.05622 92.8412C5.42722 92.5117 4.73836 92.3395 4.04197 92.3395C3.60766 92.3395 3.16586 92.4069 2.73155 92.5417C1.62331 92.8861 0.70973 93.6499 0.170587 94.6833C-0.428461 95.8289 -0.458435 97.1169 -0.0391019 98.2401L-0.98261 99.5131C-1.10991 99.6778 -1.07239 99.9174 -0.907656 100.037C-0.742917 100.157 -0.510823 100.127 -0.383525 99.9624L0.335303 98.9964C0.732172 99.6404 1.30126 100.187 2.01263 100.561C4.06437 101.632 6.5804 100.906 7.75604 98.944L15.0869 102.778C15.2816 102.875 15.5062 102.808 15.6035 102.621ZM7.41911 97.9256C7.36669 98.0754 7.31428 98.2326 7.2394 98.3749C7.19447 98.4572 7.1495 98.5246 7.09708 98.5995C6.42315 99.6853 5.24754 100.314 4.03447 100.314C3.47286 100.314 2.90379 100.18 2.37214 99.9025C1.68323 99.543 1.16651 98.9889 0.837039 98.3374C0.702253 98.0679 0.612385 97.7908 0.544992 97.4988C0.357789 96.6901 0.432696 95.8214 0.852029 95.0352C1.30132 94.1815 2.05009 93.5525 2.97113 93.2605C3.89216 92.9685 4.86565 93.0583 5.71929 93.5076C7.32175 94.3538 8.01816 96.2557 7.41911 97.9256Z" fill="#0D99FF"/>
<path d="M20.1708 105.435L16.6739 103.608C16.4867 103.511 16.4193 103.286 16.5166 103.106C16.584 102.979 16.7113 102.904 16.8461 102.904C16.906 102.904 16.9659 102.919 17.0183 102.949L20.5153 104.776C20.7025 104.873 20.7699 105.098 20.6725 105.278C20.5752 105.457 20.358 105.525 20.1708 105.435Z" fill="#0D99FF"/>
<path d="M5.15766 123.797L11.2155 126.964C11.3728 127.047 11.575 127.024 11.7097 126.905L13.0575 125.721C13.1699 125.624 13.3197 125.602 13.4544 125.662C14.5552 126.141 15.8582 125.684 16.4123 124.628L20.658 116.511C20.7254 116.384 20.8527 116.309 20.9875 116.309C21.0474 116.309 21.1073 116.324 21.1597 116.354C21.3469 116.451 21.4143 116.676 21.3169 116.855L17.0712 124.973C16.3748 126.305 14.7873 126.92 13.3796 126.433L12.1965 127.466C11.8296 127.788 11.2904 127.848 10.8636 127.623L4.80574 124.456C4.37143 124.224 4.12426 123.76 4.17667 123.273L4.34139 121.76L2.28216 120.682C2.09496 120.585 2.02759 120.36 2.12494 120.18C2.22229 119.993 2.44696 119.926 2.62668 120.023L4.91799 121.221C5.05277 121.296 5.13516 121.438 5.12018 121.595L4.92548 123.355C4.90302 123.542 4.99292 123.715 5.15766 123.797Z" fill="#0D99FF"/>
<path d="M22.1319 115.282C22.0345 115.469 21.8099 115.536 21.6302 115.439C21.443 115.341 21.3756 115.117 21.4729 114.937L23.0754 111.867L15.46 122.096C14.4641 123.436 12.4647 123.9 10.9971 123.129L-1.79258 116.442C-1.97978 116.345 -2.04714 116.12 -1.9498 115.941C-1.85245 115.753 -1.62787 115.686 -1.44815 115.783L11.3416 122.47C12.4947 123.077 14.0747 122.702 14.8535 121.646L23.6745 109.793C24.0414 109.299 24.1762 108.73 24.0564 108.19C23.9665 107.793 23.7419 107.442 23.4124 107.179C23.3001 107.09 23.1803 107.007 23.0455 106.94C22.8583 106.842 22.7908 106.618 22.8882 106.438C22.9556 106.311 23.0829 106.236 23.2177 106.236C23.2776 106.236 23.3375 106.251 23.3899 106.281C24.1088 106.655 24.6479 107.292 24.8875 108.071C25.1271 108.849 25.0597 109.673 24.6778 110.399L22.1319 115.282Z" fill="#0D99FF"/>
<path d="M4.39994 95.4558C4.38496 95.4783 4.36994 95.5008 4.35496 95.5232C4.26511 95.703 4.26515 95.9051 4.39994 96.3993C4.49728 96.7438 4.53468 97.0209 4.54217 97.2605C4.54965 97.5675 4.48976 97.8221 4.36246 98.0692C4.07791 98.6083 3.65108 98.7731 3.1344 98.5035C2.61772 98.2339 2.50543 97.7846 2.78998 97.2455L2.91731 97.0059L2.96219 96.9235L3.08202 96.9834L3.46392 97.1856L3.27672 97.545C3.14942 97.7847 3.20933 97.9344 3.37407 98.0168C3.53881 98.1066 3.68857 98.0767 3.84582 97.7772C3.96563 97.5525 4.00303 97.3354 3.98805 97.0583C3.97308 96.8861 3.94311 96.6989 3.87571 96.4518C3.85325 96.3844 3.84581 96.3245 3.83083 96.2646C3.71102 95.7629 3.73347 95.4409 3.9057 95.1039L4.12288 94.6921L5.65039 95.4933L5.39582 95.9725L4.39994 95.4558Z" fill="#0D99FF"/>
<path d="M72.8051 420.198C72.8949 420.198 72.9848 420.228 73.0522 420.296L80.6152 426.975C81.0795 427.379 81.6336 427.566 82.1802 427.484C82.7193 427.409 83.1911 427.087 83.5131 426.578L85.3551 423.673C85.4675 423.5 85.6996 423.448 85.8718 423.56C86.044 423.673 86.0964 423.905 85.9841 424.077L84.786 425.964C85.5873 425.986 86.3511 425.597 86.7929 424.901L90.3721 419.262C90.4395 419.15 90.5669 419.09 90.6867 419.09C90.7541 419.09 90.8215 419.105 90.8889 419.15C91.0611 419.262 91.1135 419.494 91.0012 419.667L87.4219 425.305C86.7629 426.346 85.5349 426.87 84.3368 426.668L84.1346 426.982C83.6928 427.679 83.0338 428.121 82.2775 428.225C81.5063 428.338 80.7425 428.091 80.1135 427.537L72.5505 420.857C72.3933 420.722 72.3783 420.483 72.5205 420.325C72.6029 420.243 72.7077 420.198 72.8051 420.198Z" fill="#0D99FF"/>
<path d="M75.844 402.18C75.6717 402.068 75.6193 401.836 75.7316 401.663L77.8507 398.331C77.9181 398.219 78.0454 398.159 78.1652 398.159C78.2326 398.159 78.3 398.174 78.3674 398.219C78.5397 398.331 78.592 398.563 78.4797 398.736L76.3606 402.068C76.2483 402.233 76.0162 402.285 75.844 402.18Z" fill="#0D99FF"/>
<path d="M95.3437 409.348L87.6085 421.531C87.4962 421.704 87.264 421.756 87.0918 421.644C86.9196 421.531 86.8672 421.299 86.9796 421.127L94.7147 408.944C95.4111 407.843 95.179 406.241 94.1906 405.372L83.1157 395.585C82.6514 395.173 82.0973 394.994 81.5507 395.076C81.1463 395.136 80.7794 395.331 80.4874 395.63C80.39 395.735 80.3002 395.847 80.2178 395.975C80.1279 396.117 79.9557 396.177 79.7984 396.132C79.761 396.124 79.731 396.117 79.7011 396.094C79.5663 396.012 79.5064 395.862 79.5289 395.72C79.5363 395.675 79.5514 395.623 79.5813 395.578C80.0156 394.889 80.697 394.41 81.4907 394.237C81.7154 394.185 81.94 394.162 82.1647 394.162C82.7338 394.162 83.2954 394.327 83.7971 394.642L88.4547 397.599C88.6269 397.712 88.6794 397.944 88.567 398.116C88.4547 398.288 88.2225 398.341 88.0503 398.228L85.1224 396.371L94.6773 404.818C95.9353 405.919 96.2273 407.948 95.3437 409.348Z" fill="#0D99FF"/>
<path d="M99.814 409.865L96.1524 415.631C95.8904 416.043 95.3961 416.252 94.9169 416.162L93.4268 415.87L92.1762 417.832C92.0639 418.004 91.8318 418.057 91.6596 417.945C91.4874 417.832 91.4349 417.6 91.5472 417.428L92.9325 415.249C93.0149 415.122 93.1722 415.054 93.3219 415.084L95.0666 415.429C95.2463 415.466 95.426 415.384 95.5234 415.234L99.1851 409.468C99.2824 409.318 99.2749 409.116 99.1701 408.966L98.1068 407.521C98.017 407.401 98.0094 407.252 98.0768 407.124C98.6459 406.068 98.3014 404.736 97.2906 404.092L89.5554 399.179C89.3832 399.067 89.3307 398.835 89.443 398.663C89.5104 398.55 89.6378 398.49 89.7576 398.49C89.825 398.49 89.8924 398.505 89.9598 398.55L97.6949 403.463C98.9679 404.271 99.4397 405.904 98.8406 407.267L99.7692 408.532C100.061 408.914 100.076 409.446 99.814 409.865Z" fill="#0D99FF"/>
<path d="M64.7483 411.737C63.4604 413.766 64.0594 416.462 66.0887 417.75C67.182 418.439 68.4624 418.581 69.6156 418.252L70.8062 419.3C70.9559 419.435 71.1956 419.42 71.3379 419.27C71.4727 419.113 71.4577 418.881 71.3079 418.739L70.4094 417.945C71.0833 417.6 71.6823 417.084 72.1091 416.402C73.3521 414.448 72.828 411.879 70.9785 410.539L75.4114 403.56C75.5237 403.388 75.4712 403.156 75.299 403.044C75.2391 403.006 75.1643 402.984 75.0969 402.984C74.9696 402.984 74.8498 403.044 74.7824 403.156L70.3419 410.157C69.7354 409.858 69.084 409.708 68.44 409.708C66.9873 409.715 65.572 410.434 64.7483 411.737ZM65.3773 412.142C66.3582 410.599 68.3052 410.067 69.9226 410.809C70.0724 410.876 70.2221 410.936 70.3569 411.026C70.4318 411.071 70.4917 411.138 70.5666 411.191C72.0642 412.306 72.491 414.403 71.4726 416.005C71.0533 416.664 70.4617 417.136 69.7878 417.406C69.5182 417.518 69.2337 417.593 68.9416 417.638C68.7694 417.66 68.5972 417.683 68.4175 417.683C67.7585 417.683 67.0846 417.503 66.4856 417.121C64.8083 416.05 64.314 413.819 65.3773 412.142Z" fill="#0D99FF"/>
<path d="M67.8097 412.656L67.2032 413.607C67.2257 413.63 67.2481 413.637 67.2706 413.652C67.4428 413.757 67.645 413.772 68.1542 413.682C68.5061 413.615 68.7831 413.6 69.0228 413.615C69.3298 413.637 69.5769 413.712 69.8165 413.862C70.3257 414.184 70.4605 414.626 70.146 415.12C69.8315 415.614 69.3747 415.682 68.8655 415.36L68.6334 415.217L68.551 415.165L68.6185 415.053L68.8505 414.686L69.1951 414.903C69.4197 415.045 69.5769 415 69.6742 414.843C69.779 414.686 69.7641 414.536 69.4721 414.349C69.2624 414.214 69.0452 414.154 68.7682 414.146C68.596 414.146 68.4088 414.161 68.1542 414.206C68.0868 414.221 68.0269 414.221 67.967 414.236C67.4578 414.311 67.1358 414.266 66.8138 414.064L66.4169 413.817L67.3379 412.364L67.8097 412.656Z" fill="#0D99FF"/>
<path d="M88.2824 213.474C90.3791 211.467 90.6936 208.285 89.1885 205.926C89.1061 205.799 89.0238 205.679 88.9339 205.559C88.9114 205.529 88.8889 205.492 88.8664 205.462C88.7466 205.305 88.6119 205.147 88.4696 204.998L58.1129 173.36C56.8099 172.005 54.9229 171.301 53.0359 171.301C51.6356 171.301 50.2354 171.691 49.0748 172.492L23.6002 190.164C22.2524 191.1 21.4287 192.44 21.2789 193.938C21.1292 195.413 21.6608 196.866 22.7691 198.026L23.4954 198.782C22.3946 201.036 22.799 203.74 24.5437 205.559L40.9876 222.699L39.5274 225.845C39.1605 226.631 39.3102 227.544 39.9092 228.166L49.831 238.514C50.4225 239.128 51.3436 239.323 52.1374 238.994L55.4022 237.638C57.7235 239.57 61.183 239.48 63.3695 237.376L88.2824 213.474ZM89.2035 209.011C89.0762 210.284 88.3648 211.437 87.2041 212.239L61.7296 229.911C60.6962 230.629 59.4457 230.974 58.1877 230.974C56.5029 230.974 54.8181 230.345 53.6575 229.132L23.3082 197.495C22.3572 196.499 21.9004 195.256 22.0203 193.998C22.1476 192.725 22.8589 191.571 24.0195 190.77L49.4941 173.098C51.9202 171.414 55.537 171.758 57.5662 173.87L87.9155 205.507C87.923 205.514 87.9304 205.522 87.9379 205.529C88.0503 205.649 88.1551 205.769 88.26 205.896C88.3498 206.009 88.4247 206.121 88.507 206.241C88.522 206.256 88.5295 206.278 88.5445 206.293C89.0687 207.139 89.3008 208.068 89.2035 209.011ZM88.3498 212.261C88.1776 212.493 87.9829 212.725 87.7657 212.935L62.8528 236.83C60.8834 238.717 57.7535 238.754 55.7242 236.919C55.6194 236.822 55.4621 236.8 55.3273 236.852L51.8453 238.297C51.3361 238.507 50.7446 238.387 50.3702 237.99L40.4485 227.642C40.0666 227.237 39.9692 226.653 40.2013 226.152L41.7739 222.774C41.8413 222.632 41.8112 222.467 41.7064 222.355L25.0904 205.035C23.6302 203.507 23.2483 201.276 24.0645 199.359L53.1258 229.656C55.3947 232.022 59.4458 232.412 62.1639 230.525L87.6385 212.853C87.8931 212.673 88.1252 212.471 88.3498 212.261Z" fill="#0D99FF"/>
<path d="M74.758 51.4156C75.8962 50.3223 76.1584 48.6675 75.5518 47.3046C75.4844 47.1474 75.402 46.9902 75.3122 46.8404C75.2298 46.7056 75.1174 46.5858 75.0126 46.4585C74.9602 46.3986 74.9228 46.3312 74.8704 46.2713L57.2584 27.9105C56.4721 27.0943 55.3339 26.6674 54.1957 26.6674C53.3496 26.6674 52.5109 26.8996 51.807 27.3863L37.0255 37.645C36.2093 38.2141 35.7076 39.0303 35.6102 39.9439C35.5204 40.8499 35.8424 41.7335 36.5164 42.4374L36.8683 42.8043C36.2617 44.1521 36.5164 45.7397 37.5497 46.8105L47.0147 56.6798L46.2134 58.4095C45.9738 58.9187 46.0786 59.5252 46.468 59.9296L52.2264 65.935C52.6158 66.3469 53.2073 66.4742 53.739 66.2495L55.5436 65.5007C56.9513 66.609 58.9956 66.5341 60.2986 65.2836L74.758 51.4156ZM37.4299 43.3959L54.1284 60.8057C55.4912 62.2285 57.9397 62.4681 59.5722 61.3299L73.1781 51.8874L59.7743 64.7445C58.6961 65.7778 56.9738 65.8003 55.8506 64.7894C55.7458 64.692 55.5885 64.6696 55.4537 64.722L53.4319 65.5606C53.1923 65.658 52.9227 65.6056 52.7505 65.4184L46.9922 59.4129C46.82 59.2257 46.775 58.9561 46.8799 58.724L47.7934 56.7621C47.8608 56.6198 47.8309 56.4551 47.726 56.3428L38.0813 46.2938C37.34 45.515 37.1004 44.3993 37.4299 43.3959ZM75.0276 48.6974C74.9602 49.3938 74.5709 50.0154 73.9344 50.4572L59.1529 60.7159C58.5763 61.1127 57.8799 61.3074 57.1835 61.3074C56.2475 61.3074 55.3115 60.9555 54.6675 60.289L37.0555 41.9282C36.5313 41.3816 36.2842 40.7077 36.3515 40.0262C36.4189 39.3298 36.8084 38.7083 37.4449 38.2665L52.2264 28.0078C53.5742 27.0718 55.581 27.2665 56.7042 28.4346L74.3163 46.7955C74.4511 46.9302 74.5633 47.08 74.6607 47.2373C74.7356 47.3496 74.788 47.4694 74.8404 47.5892C75.0051 47.9411 75.065 48.3155 75.0276 48.6974Z" fill="#0D99FF"/>
<path d="M3.60604 288.236C3.65097 288.236 3.69594 288.243 3.74087 288.266L8.75036 290.258C8.94505 290.333 9.03493 290.55 8.96005 290.744C8.88517 290.939 8.668 291.029 8.47331 290.954L3.80824 289.104L-10.2544 324.508C-10.3293 324.703 -10.5464 324.793 -10.7411 324.718C-10.9358 324.643 -11.0257 324.426 -10.9508 324.231L3.24663 288.483C3.32151 288.326 3.45628 288.236 3.60604 288.236Z" fill="#0D99FF"/>
<path d="M17.6331 294.586L11.3282 292.077C11.1335 292.003 11.0436 291.785 11.1185 291.591C11.1784 291.441 11.3207 291.351 11.4629 291.351C11.5079 291.351 11.5528 291.359 11.5978 291.381L17.9028 293.89C18.0975 293.964 18.1873 294.182 18.1124 294.376C18.045 294.564 17.8278 294.661 17.6331 294.586Z" fill="#0D99FF"/>
<path d="M23.9905 296.705C24.0504 296.556 24.1927 296.466 24.335 296.466C24.3799 296.466 24.4248 296.473 24.4697 296.496L51.1274 307.084C51.3221 307.159 51.4119 307.376 51.337 307.571L50.9776 308.469C50.9027 308.664 50.6855 308.754 50.4908 308.679C50.2961 308.604 50.2064 308.387 50.2812 308.192L50.4983 307.645L24.1851 297.192C24.0054 297.117 23.9156 296.9 23.9905 296.705Z" fill="#0D99FF"/>
<path d="M-14.1624 355.232C-14.1998 355.322 -14.1998 355.427 -14.1549 355.517C-14.1174 355.606 -14.0425 355.681 -13.9527 355.719L21.2114 369.684C21.2264 369.691 21.2414 369.691 21.2639 369.691C21.2789 369.699 21.2938 369.699 21.3088 369.699C21.3761 369.706 21.4361 369.706 21.5035 369.677L38.5913 362.308C38.6513 362.278 38.7036 362.233 38.7411 362.181C38.7486 362.166 38.7561 362.158 38.7636 362.143C38.771 362.128 38.786 362.121 38.7935 362.099L56.091 318.548C56.1659 318.353 56.076 318.136 55.8813 318.061L48.3708 315.081L49.6512 311.846C49.7261 311.651 49.6363 311.434 49.4416 311.359C49.3967 311.344 49.3517 311.329 49.3068 311.329C49.157 311.329 49.0148 311.419 48.9623 311.569L47.6818 314.804L8.49663 299.236C8.4517 299.221 8.40682 299.206 8.36189 299.206C8.21213 299.206 8.0698 299.296 8.01738 299.446L-14.1624 355.232ZM22.0277 368.636L26.4157 357.591L37.4606 361.979L29.7479 365.303L22.0277 368.636ZM-13.3237 355.165L8.5565 300.075L47.3899 315.5L48.0862 315.777L55.2524 318.623L38.2318 361.477L26.3482 356.76C26.3033 356.745 26.2584 356.73 26.2135 356.73C26.1611 356.73 26.1161 356.737 26.0637 356.76C25.9738 356.797 25.899 356.872 25.8616 356.962L21.144 368.845L-13.3237 355.165Z" fill="#0D99FF"/>
<path d="M15.0045 334.153C15.0494 334.153 15.0943 334.161 15.1392 334.183L20.7478 336.414L22.9792 330.806C23.0391 330.656 23.1814 330.566 23.3237 330.566C23.3687 330.566 23.4135 330.574 23.4585 330.596C23.6531 330.671 23.743 330.888 23.6681 331.083L21.4367 336.691L27.0453 338.923C27.24 338.998 27.3299 339.215 27.255 339.41C27.1801 339.604 26.9629 339.694 26.7682 339.619L21.1597 337.388L18.9282 342.996C18.8533 343.191 18.6362 343.281 18.4415 343.206C18.2468 343.131 18.1569 342.914 18.2318 342.719L20.4632 337.111L14.8546 334.879C14.6599 334.804 14.5701 334.587 14.6449 334.393C14.7123 334.243 14.8547 334.153 15.0045 334.153Z" fill="#0D99FF"/>
<path d="M13.1989 461.847C13.2588 461.697 13.4011 461.607 13.5434 461.607C13.5883 461.607 13.6332 461.615 13.6782 461.637C13.8729 461.712 13.9627 461.929 13.8878 462.124L11.0648 469.23L13.2963 470.121C13.491 470.196 13.5808 470.413 13.506 470.608C13.4311 470.802 13.2139 470.892 13.0192 470.817L10.4358 469.792C10.2411 469.717 10.1513 469.5 10.2262 469.305L13.1989 461.847Z" fill="#0D99FF"/>
<path d="M22.3947 446.137L20.5376 445.403L14.4274 460.776C14.3525 460.97 14.1353 461.06 13.9406 460.985C13.7459 460.911 13.656 460.693 13.7309 460.499L19.976 444.774C20.0134 444.684 20.0883 444.609 20.1782 444.572C20.2231 444.549 20.2756 444.542 20.328 444.542C20.3729 444.542 20.4253 444.549 20.4627 444.572L22.6643 445.448C22.859 445.523 22.9487 445.74 22.8739 445.934C22.8065 446.122 22.5894 446.211 22.3947 446.137Z" fill="#0D99FF"/>
<path d="M26.4223 447.74L23.6516 446.64C23.4569 446.565 23.3671 446.348 23.4419 446.153C23.5019 446.003 23.6442 445.913 23.7865 445.913C23.8314 445.913 23.8763 445.921 23.9212 445.943L26.6918 447.044C26.8865 447.119 26.9763 447.336 26.9014 447.531C26.8341 447.718 26.617 447.815 26.4223 447.74Z" fill="#0D99FF"/>
<path d="M29.0966 448.399C29.1565 448.25 29.2988 448.16 29.441 448.16C29.486 448.16 29.5309 448.167 29.5759 448.19L41.3022 452.847C41.3921 452.885 41.4669 452.96 41.5043 453.049C41.5418 453.139 41.5418 453.244 41.5118 453.334L41.3546 453.731C41.2797 453.926 41.0626 454.015 40.8679 453.941C40.6732 453.866 40.5833 453.648 40.6582 453.454L40.6732 453.409L29.2988 448.886C29.1191 448.804 29.0217 448.587 29.0966 448.399Z" fill="#0D99FF"/>
<path d="M12.3226 474.135C12.2477 474.33 12.3376 474.547 12.5323 474.622L27.9952 480.762C28.0102 480.77 28.0251 480.77 28.0476 480.77C28.0626 480.77 28.0776 480.777 28.0926 480.777C28.1599 480.785 28.2199 480.785 28.2873 480.755L35.8052 477.512C35.8651 477.482 35.9176 477.437 35.9551 477.385C35.9625 477.37 35.97 477.363 35.9775 477.348C35.9849 477.333 35.9999 477.325 36.0074 477.303L43.6154 458.148C43.6528 458.058 43.6528 457.953 43.6079 457.864C43.5704 457.774 43.4955 457.699 43.4057 457.661L40.2981 456.426L40.7848 455.198C40.8597 455.003 40.7699 454.786 40.5752 454.711C40.5302 454.696 40.4854 454.681 40.4404 454.681C40.2907 454.681 40.1483 454.771 40.0959 454.921L39.6093 456.149L22.5738 449.379C22.5289 449.365 22.4839 449.35 22.439 449.35C22.3866 449.35 22.3417 449.357 22.2893 449.379C22.1994 449.417 22.1245 449.492 22.0871 449.582L12.3226 474.135ZM28.8114 479.714L30.4737 475.52L34.667 477.183L31.7393 478.448L28.8114 479.714ZM13.1537 474.06L22.6187 450.226L39.3097 456.853L40.0061 457.13L42.7692 458.223L35.4383 476.681L30.4064 474.682C30.3614 474.667 30.3165 474.652 30.2715 474.652C30.2191 474.652 30.1742 474.659 30.1218 474.682C30.0319 474.719 29.957 474.794 29.9196 474.884L27.9203 479.916L13.1537 474.06Z" fill="#0D99FF"/>
<path d="M25.3446 464.728C25.3896 464.728 25.4345 464.736 25.4795 464.758L27.7558 465.664L28.6619 463.388C28.7218 463.238 28.8641 463.148 29.0063 463.148C29.0513 463.148 29.0962 463.156 29.1412 463.178C29.3359 463.253 29.4256 463.47 29.3508 463.665L28.4447 465.941L30.7211 466.847C30.9158 466.922 31.0056 467.139 30.9307 467.334C30.8559 467.529 30.6388 467.619 30.4441 467.544L28.1677 466.638L27.2616 468.907C27.1868 469.101 26.9696 469.191 26.7749 469.116C26.5802 469.041 26.4903 468.824 26.5652 468.63L27.4712 466.361L25.2024 465.455C25.0077 465.38 24.9178 465.163 24.9927 464.968C25.0526 464.818 25.1949 464.728 25.3446 464.728Z" fill="#0D99FF"/>
</g>
</svg>
