<svg width="149" height="126" viewBox="0 0 149 126" fill="none" xmlns="http://www.w3.org/2000/svg">
<path d="M17.0869 52.4768L10.014 22.9028H29.0301" stroke="#1A2E3D" stroke-width="5" stroke-miterlimit="10"/>
<path d="M119.77 22.9028H138.791L134.427 41.153" stroke="#1A2E3D" stroke-width="5" stroke-miterlimit="10"/>
<path d="M116.12 41.1527L119.77 22.9026L123.803 2.72852H25.0026L29.0301 22.9026L34.9357 52.4766" stroke="#1A2E3D" stroke-width="5" stroke-miterlimit="10"/>
<path d="M100.219 41.1528L96.8654 52.4767H3.61731L20.4199 122.729H128.363L145.166 41.1528H100.219Z" stroke="#1A2E3D" stroke-width="5" stroke-miterlimit="10"/>
<path d="M66.1325 16.8865C65.2247 16.1886 63.8709 15.8423 61.9924 15.8423C60.1139 15.8423 58.8336 15.963 57.8943 16.1046C57.8261 16.1151 57.7579 16.1256 57.7002 16.1361V28.9761H61.1634V24.5474C61.3785 24.5474 61.6671 24.5841 62.0134 24.5841C63.7712 24.5841 65.2982 24.1591 66.3424 23.2304C67.1714 22.4748 67.6174 21.3361 67.6174 20.0191C67.6174 18.702 67.0192 17.5424 66.1272 16.8865H66.1325ZM61.9557 21.9133C61.5884 21.9133 61.3575 21.8923 61.1634 21.8766V18.5498C61.3365 18.5131 61.6881 18.4711 62.1866 18.4711C63.5194 18.4711 64.1595 19.127 64.1595 20.0978C64.1595 21.2207 63.3095 21.9133 61.9557 21.9133Z" fill="#1A2E3D"/>
<path d="M79.2712 17.4681C79.1348 17.3526 78.9984 17.2424 78.8514 17.1427C77.5764 16.2507 75.9917 15.8467 73.494 15.8467C71.9461 15.8467 70.4559 15.9411 69.3383 16.1353V28.8965C70.0151 29.0119 71.138 29.1274 72.8172 29.1274C75.3673 29.1274 77.5134 28.6446 78.9459 27.5217C79.0561 27.4325 79.161 27.3381 79.266 27.2384C80.3679 26.2204 81.2074 24.5833 81.2074 22.1486C81.2074 19.9972 80.4571 18.4703 79.266 17.4681H79.2712ZM73.5728 26.4198C73.3419 26.4198 73.0113 26.4198 72.8381 26.3831V18.591C73.0113 18.5542 73.3576 18.5123 73.9033 18.5123C75.9917 18.5123 77.5187 19.7086 77.5187 22.264C77.5187 25.2025 75.8343 26.4618 73.5728 26.4198Z" fill="#1A2E3D"/>
<path d="M83.0701 15.9404V28.9745H85.5677H86.5699V24.0211H91.1508V21.1981H86.5699V18.8002H91.4446V15.9404H85.5677H83.0701Z" fill="#1A2E3D"/>
</svg>
