<svg width="48" height="49" viewBox="0 0 48 49" fill="none" xmlns="http://www.w3.org/2000/svg">
<path d="M14.4585 34.4524C12.4865 32.507 9.31268 32.5335 7.36723 34.5055C7.36723 34.5055 7.36723 34.5055 7.36059 34.5122C6.9622 34.9172 6.63685 35.3953 6.40446 35.9198L0.382202 48.781L13.1305 42.5396C13.6484 42.3006 14.1199 41.962 14.5182 41.5569C16.4637 39.5849 16.4371 36.4111 14.4651 34.4657C14.4651 34.4657 14.4585 34.459 14.4518 34.4524H14.4585Z" fill="white"/>
<path d="M14.5249 41.5557C14.1265 41.9607 13.6551 42.2994 13.1372 42.5384L0.382202 48.7798L14.4585 34.4512C16.4371 36.39 16.4703 39.5638 14.5315 41.5424C14.5315 41.5424 14.5249 41.5491 14.5182 41.5557H14.5249Z" fill="white"/>
<path d="M45.433 14.2998C47.644 8.31738 47.644 3.21804 47.6108 1.43195C47.6108 1.23275 47.6042 1.06012 47.6042 0.947244C47.6042 0.874207 47.6042 0.814449 47.6042 0.78125C46.5352 0.880846 41.7081 0.23679 34.1255 3.18484C27.7845 5.66147 21.2112 10.887 17.0879 17.0221C11.3777 16.0992 5.76709 19.1667 3.50293 24.5914L2.58 26.8025L11.4906 28.5022L11.9819 31.364L16.1849 35.4939L17.6589 36.9414L20.5273 37.3862L22.3864 46.2636L24.5775 45.3008C29.9557 42.9371 32.9237 37.2734 31.9012 31.5831C32.7179 31.0121 33.5146 30.4012 34.2848 29.7572C39.2846 25.5741 43.3747 19.8639 45.4396 14.3131L45.433 14.2998Z" fill="white"/>
<path d="M22.134 37.6259L17.4729 40.481L8.4295 31.597L11.1983 26.8828L22.134 37.6259Z" fill="#FEC603"/>
<path d="M22.134 37.6255L17.4729 40.4806L12.9512 36.0386L16.6695 32.2539L22.134 37.6255Z" fill="#FEC603"/>
<path d="M33.7535 14.8639C31.4761 12.6263 27.7778 12.6595 25.5335 14.9369C23.2959 17.2144 23.3291 20.9127 25.6066 23.1569C27.884 25.3945 31.5823 25.3613 33.8266 23.0839C36.0642 20.8065 36.031 17.1081 33.7535 14.8639Z" fill="#FEC603"/>
<path d="M32.5783 16.0542C30.9516 14.4607 28.3156 14.4806 26.722 16.1074C25.1285 17.7341 25.1484 20.3635 26.7751 21.9636C28.4019 23.5572 31.0379 23.5373 32.6314 21.9105C34.225 20.2838 34.205 17.6478 32.5783 16.0542Z" fill="#FEC603"/>
<path d="M32.6315 21.909C31.038 23.5357 28.402 23.5557 26.7752 21.9621L32.5784 16.0527C34.2051 17.6463 34.225 20.2823 32.6315 21.909Z" fill="#FEC603"/>
</svg>
