<svg width="36" height="49" viewBox="0 0 36 49" fill="none" xmlns="http://www.w3.org/2000/svg">
<path d="M13.4457 2.31828C11.9886 3.05049 10.3778 3.43124 8.745 3.43124H2.91671C1.41571 3.43124 0.207581 4.64671 0.207581 6.14041V28.0554C0.207581 34.3085 3.48782 40.1003 8.84751 43.322L16.6088 47.9789C17.4655 48.4914 18.5418 48.4914 19.3985 47.9789L27.1598 43.322C32.5194 40.1076 35.7997 34.3085 35.7997 28.0554V6.14774C35.7997 4.64671 34.5842 3.43856 33.0832 3.43856H27.2623C25.6295 3.43856 24.0186 3.05781 22.5616 2.3256L19.2154 0.648843C18.4539 0.268094 17.5533 0.268094 16.7919 0.648843L13.4457 2.3256V2.31828Z" fill="white"/>
<path d="M25.4097 20.7774C25.6586 21.0263 25.6586 21.4364 25.4097 21.6926L16.8796 30.2229C16.6307 30.4718 16.2206 30.4718 15.9644 30.2229L10.5827 24.8411C10.3338 24.5922 10.3338 24.1821 10.5827 23.9259L12.8159 21.6926C13.0649 21.4437 13.4749 21.4437 13.7312 21.6926L15.9644 23.9259C16.2133 24.1748 16.6233 24.1748 16.8796 23.9259L22.2613 18.5441C22.5102 18.2952 22.9202 18.2952 23.1765 18.5441L25.4097 20.7774Z" fill="#0FE2C9"/>
</svg>
