<svg width="48" height="49" viewBox="0 0 48 49" fill="none" xmlns="http://www.w3.org/2000/svg">
<path d="M23.9999 48.3672C37.2549 48.3672 48.0003 37.622 48.0003 24.3672C48.0003 11.1124 37.2549 0.367188 23.9999 0.367188C10.7449 0.367188 -0.000457764 11.1124 -0.000457764 24.3672C-0.000457764 37.622 10.7449 48.3672 23.9999 48.3672Z" fill="white"/>
<path d="M24.1706 3.17619L24.874 4.67931C24.9037 4.73114 24.9555 4.77557 25.0147 4.78297L26.6067 5.02732C26.7104 5.04213 26.777 5.13839 26.7622 5.23465C26.7622 5.27167 26.74 5.3087 26.7104 5.33832L25.5479 6.53045C25.5108 6.57487 25.4886 6.63411 25.496 6.69335L25.77 8.37418C25.7848 8.47784 25.7182 8.5741 25.6145 8.58891C25.5701 8.58891 25.5331 8.58891 25.496 8.5667L24.0891 7.78922C24.0299 7.7596 23.9633 7.7596 23.9114 7.78922L22.5045 8.5667C22.4157 8.61853 22.3046 8.58151 22.2528 8.49265C22.2306 8.45563 22.2232 8.4112 22.2306 8.37418L22.5045 6.69335C22.512 6.63411 22.4971 6.57487 22.4527 6.53045L21.2902 5.33091C21.2161 5.25687 21.2161 5.13839 21.2902 5.07175C21.3198 5.04213 21.3568 5.02732 21.3938 5.01992L22.9858 4.77557C23.0451 4.76816 23.0969 4.72374 23.1265 4.67191L23.83 3.16878C23.8744 3.07993 23.9855 3.0355 24.0743 3.07993C24.1114 3.10214 24.1484 3.13176 24.1632 3.16878L24.1706 3.17619ZM24.1706 40.2433L24.874 41.7465C24.9037 41.8057 24.9555 41.8427 25.0147 41.8501L26.6067 42.0945C26.7104 42.1093 26.777 42.2055 26.7622 42.3018C26.7622 42.3388 26.74 42.3758 26.7104 42.4055L25.5479 43.5976C25.5034 43.642 25.4886 43.7013 25.496 43.7605L25.77 45.4339C25.7848 45.5376 25.7182 45.6338 25.6145 45.6487C25.5701 45.6487 25.5331 45.6487 25.496 45.6264L24.0891 44.849C24.0299 44.8193 23.9633 44.8193 23.9114 44.849L22.5045 45.6264C22.4157 45.6783 22.3046 45.6412 22.2528 45.5524C22.2306 45.5154 22.2232 45.4709 22.2306 45.4339L22.5045 43.7605C22.512 43.7013 22.4971 43.642 22.4527 43.5976L21.2828 42.3981C21.2087 42.324 21.2161 42.2055 21.2828 42.1389C21.3124 42.1093 21.3494 42.0945 21.3864 42.0871L22.9784 41.8427C23.0377 41.8353 23.0895 41.7909 23.1191 41.7391L23.8226 40.2359C23.867 40.1471 23.9781 40.1026 24.0669 40.1471C24.104 40.1693 24.141 40.1989 24.1558 40.2359L24.1706 40.2433ZM15.1369 5.68633L15.8404 7.18945C15.87 7.24869 15.9218 7.28571 15.981 7.29311L17.573 7.53746C17.6767 7.55227 17.7434 7.64853 17.7285 7.74479C17.7285 7.78181 17.7063 7.81884 17.6767 7.84846L16.5142 9.04799C16.4698 9.09242 16.4549 9.15165 16.4623 9.21089L16.7363 10.8843C16.7511 10.988 16.6845 11.0768 16.5808 11.0991C16.5364 11.0991 16.4994 11.0991 16.4623 11.0768L15.0555 10.2994C14.9962 10.2697 14.9296 10.2697 14.8778 10.2994L13.4709 11.0768C13.382 11.1287 13.2709 11.0916 13.2191 11.0028C13.1969 10.9658 13.1895 10.9213 13.1969 10.8843L13.4709 9.20349C13.4783 9.14425 13.4635 9.08501 13.419 9.04059L12.2565 7.84846C12.1825 7.77441 12.1899 7.65594 12.2565 7.5893C12.2861 7.55968 12.3231 7.54487 12.3602 7.53746L13.9522 7.29311C14.0114 7.28571 14.0632 7.24128 14.0929 7.18945L14.8037 5.68633C14.8481 5.59747 14.9592 5.55305 15.0481 5.60488C15.0851 5.61969 15.1147 5.64931 15.1295 5.68633H15.1369ZM33.6708 37.7924L34.3742 39.303C34.4038 39.3622 34.4557 39.3992 34.5149 39.4066L36.1069 39.651C36.2106 39.6658 36.2772 39.762 36.2624 39.8657C36.2624 39.9027 36.2402 39.9398 36.2106 39.9694L35.048 41.1615C35.0036 41.2059 34.9888 41.2652 34.9962 41.3244L35.2702 43.0052C35.285 43.1089 35.2183 43.2052 35.1221 43.22C35.0776 43.22 35.0332 43.22 34.9962 43.1978L33.5893 42.4203C33.5301 42.3907 33.4634 42.3907 33.4116 42.4203L32.0047 43.1978C31.9159 43.2496 31.8048 43.2126 31.753 43.1237C31.7307 43.0867 31.7233 43.0423 31.7307 43.0052L32.0047 41.3318C32.0121 41.2726 31.9973 41.2133 31.9529 41.1763L30.7829 39.9842C30.7089 39.9101 30.7163 39.7917 30.7829 39.725C30.8126 39.6954 30.8496 39.6806 30.8866 39.6732L32.4786 39.4288C32.5379 39.4214 32.5897 39.3844 32.6193 39.3252L33.3227 37.822C33.3672 37.7258 33.4782 37.6888 33.5671 37.7332C33.6041 37.748 33.6337 37.785 33.656 37.822L33.6708 37.7924ZM8.41349 12.0839L9.11693 13.587C9.14655 13.6462 9.19839 13.6832 9.25762 13.6906L10.8496 13.935C10.9533 13.9498 11.0199 14.0461 11.0051 14.1423C11.0051 14.1793 10.9829 14.2164 10.9533 14.246L9.79076 15.4381C9.75373 15.4825 9.73152 15.5418 9.73892 15.601L10.0129 17.2744C10.0277 17.3781 9.96106 17.4744 9.8574 17.4892C9.81297 17.4892 9.77595 17.4892 9.73892 17.467L8.33204 16.6895C8.2728 16.6599 8.20616 16.6599 8.15433 16.6895L6.74744 17.467C6.65859 17.5188 6.54752 17.4818 6.49569 17.3929C6.47347 17.3559 6.46607 17.3115 6.47347 17.2744L6.74744 15.601C6.75485 15.5418 6.74004 15.4825 6.69561 15.4381L5.52568 14.246C5.45163 14.1719 5.45903 14.0535 5.52568 13.9868C5.55529 13.9572 5.58491 13.9424 5.62194 13.935L7.21394 13.6906C7.27317 13.6832 7.32501 13.6388 7.35463 13.587L8.05807 12.0839C8.1025 11.995 8.21357 11.9506 8.30242 11.995C8.33944 12.0098 8.36906 12.0468 8.39128 12.0839H8.41349ZM40.5201 30.6174L41.2235 32.1206C41.2531 32.1724 41.305 32.2168 41.3642 32.2242L42.9562 32.4686C43.0599 32.4834 43.1265 32.5796 43.1117 32.6759C43.1117 32.7129 43.0895 32.7499 43.0599 32.7796L41.8973 33.9717C41.8529 34.0161 41.8381 34.0753 41.8455 34.1346L42.1195 35.808C42.1343 35.9117 42.0676 36.0079 41.9714 36.0227C41.927 36.0227 41.8825 36.0227 41.8455 36.0005L40.4386 35.2231C40.3794 35.1934 40.3127 35.1934 40.2609 35.2231L38.854 36.0005C38.7652 36.0524 38.6541 36.0227 38.6023 35.9265C38.5801 35.8895 38.5726 35.845 38.5801 35.808L38.854 34.1346C38.8614 34.0753 38.8466 34.0161 38.8022 33.9717L37.6323 32.7722C37.5582 32.6981 37.5656 32.5796 37.6323 32.513C37.6619 32.4834 37.6915 32.4686 37.7285 32.4612L39.3205 32.2168C39.3798 32.2094 39.4316 32.1724 39.4612 32.1131L40.1646 30.61C40.2091 30.5138 40.3201 30.4767 40.409 30.5212C40.446 30.536 40.483 30.573 40.4979 30.61L40.5201 30.6174ZM5.62934 21.7098L6.33278 23.2129C6.3624 23.2721 6.41423 23.3091 6.47347 23.3165L8.06547 23.5609C8.16914 23.5757 8.23578 23.672 8.22097 23.7756C8.22097 23.8127 8.19876 23.8497 8.16914 23.8793L7.00661 25.0714C6.96958 25.1159 6.94737 25.1751 6.95477 25.2343L7.22875 26.9078C7.24356 27.0114 7.17691 27.1003 7.07325 27.1225C7.02882 27.1225 6.9918 27.1225 6.95477 27.1003L5.54789 26.3228C5.48865 26.2932 5.42201 26.2932 5.37018 26.3228L3.96329 27.1003C3.87444 27.1521 3.76337 27.1151 3.71154 27.0262C3.68932 26.9892 3.68192 26.9448 3.68932 26.9078L3.96329 25.2343C3.9707 25.1751 3.95589 25.1159 3.91146 25.0714L2.74893 23.8719C2.67488 23.7978 2.68229 23.6794 2.74893 23.6127C2.77855 23.5831 2.81557 23.5683 2.8526 23.5609L4.4446 23.3165C4.50383 23.3091 4.55567 23.2647 4.58529 23.2129L5.28873 21.7098C5.33316 21.6209 5.44423 21.5765 5.53308 21.6209C5.5701 21.6431 5.59972 21.6727 5.62194 21.7098H5.62934ZM42.7044 21.7098L43.4079 23.2129C43.4375 23.2721 43.4893 23.3091 43.5486 23.3165L45.1406 23.5609C45.2442 23.5757 45.3109 23.672 45.2961 23.7682C45.2961 23.8052 45.2739 23.8423 45.2442 23.8719L44.0817 25.064C44.0447 25.1084 44.0225 25.1677 44.0299 25.2269L44.3038 26.9003C44.3187 27.004 44.252 27.1003 44.1483 27.1151C44.1039 27.1151 44.0669 27.1151 44.0299 27.0929L42.623 26.3154C42.5638 26.2858 42.4971 26.2858 42.4453 26.3154L41.0384 27.0929C40.9495 27.1447 40.8385 27.1077 40.7866 27.0188C40.7644 26.9818 40.757 26.9374 40.7644 26.9003L41.0384 25.2269C41.0458 25.1677 41.031 25.1084 40.9866 25.064L39.8166 23.8645C39.7426 23.7904 39.7426 23.672 39.8166 23.6053C39.8462 23.5757 39.8759 23.5609 39.9203 23.5535L41.5197 23.3091C41.5789 23.3017 41.6308 23.2573 41.6604 23.2055L42.3638 21.7024C42.4083 21.6135 42.5193 21.5691 42.6082 21.6135C42.6452 21.6357 42.6822 21.6653 42.697 21.7024L42.7044 21.7098ZM8.7393 30.4693L9.44274 31.9725C9.47236 32.0317 9.52419 32.0687 9.58343 32.0761L11.1754 32.3205C11.2791 32.3353 11.3457 32.4315 11.3309 32.5278C11.3309 32.5648 11.3087 32.6018 11.2791 32.6315L10.1166 33.8236C10.0721 33.868 10.0573 33.9273 10.0647 33.9865L10.3387 35.6599C10.3535 35.7636 10.2869 35.8524 10.1832 35.8747C10.1388 35.8747 10.1018 35.8747 10.0647 35.8524L8.65784 35.075C8.59861 35.0453 8.53197 35.0453 8.48013 35.075L7.07325 35.8524C6.98439 35.9043 6.87332 35.8672 6.82149 35.7784C6.79928 35.7414 6.79187 35.6969 6.79928 35.6599L7.07325 33.9865C7.08065 33.9273 7.06584 33.868 7.02142 33.8236L5.85148 32.6315C5.77743 32.5574 5.77743 32.4389 5.85148 32.3723C5.8811 32.3427 5.91812 32.3279 5.95515 32.3205L7.54715 32.0761C7.60638 32.0687 7.65822 32.0243 7.68783 31.9725L8.39128 30.4693C8.43571 30.3731 8.54678 30.3361 8.63563 30.3805C8.67265 30.3953 8.70227 30.4323 8.72449 30.4693H8.7393ZM40.8459 11.9358L41.5567 13.4389C41.5863 13.4981 41.6382 13.5351 41.6974 13.5426L43.2894 13.7869C43.3931 13.8017 43.4597 13.898 43.4449 14.0016C43.4449 14.0387 43.4227 14.0757 43.3931 14.1053L42.2305 15.2974C42.1935 15.3419 42.1713 15.4011 42.1787 15.4529L42.4527 17.1263C42.4675 17.23 42.4009 17.3263 42.2972 17.3411C42.2528 17.3411 42.2157 17.3411 42.1787 17.3189L40.7718 16.5414C40.7126 16.5118 40.646 16.5118 40.5941 16.5414L39.1872 17.3189C39.0984 17.3707 38.9873 17.3411 38.9355 17.2522C38.9133 17.2152 38.9059 17.1708 38.9133 17.1263L39.1872 15.4529C39.1946 15.3937 39.1798 15.3344 39.1354 15.29L37.9729 14.0979C37.8988 14.0238 37.8988 13.9054 37.9729 13.8387C38.0025 13.8091 38.0321 13.7943 38.0765 13.7869L39.6685 13.5426C39.7278 13.5351 39.7796 13.4907 39.8092 13.4389L40.5127 11.9358C40.5571 11.8469 40.6682 11.8025 40.757 11.8469C40.794 11.8691 40.8237 11.8987 40.8459 11.9358ZM14.8111 36.8743L15.5146 38.3774C15.5442 38.4366 15.596 38.4736 15.6552 38.4811L17.2472 38.7254C17.3509 38.7402 17.4176 38.8365 17.4027 38.9327C17.4027 38.9698 17.3805 39.0068 17.3509 39.0364L16.1884 40.2285C16.1439 40.273 16.1291 40.3322 16.1365 40.3914L16.4105 42.0649C16.4253 42.1685 16.3587 42.2574 16.255 42.2796C16.2106 42.2796 16.1736 42.2796 16.1365 42.2574L14.7297 41.4799C14.6704 41.4503 14.6038 41.4503 14.5519 41.4799L13.1377 42.2648C13.0488 42.3166 12.9377 42.2796 12.8859 42.1907C12.8637 42.1537 12.8563 42.1093 12.8637 42.0723L13.1377 40.3988C13.1451 40.3396 13.1303 40.2804 13.0858 40.2359L11.9233 39.0364C11.8492 38.9623 11.8567 38.8439 11.9233 38.7772C11.9529 38.7476 11.9899 38.7328 12.027 38.7254L13.619 38.4811C13.6782 38.4736 13.73 38.4292 13.7597 38.3774L14.4631 36.8743C14.5075 36.7854 14.6186 36.741 14.7074 36.7854C14.7445 36.8002 14.7741 36.8372 14.7963 36.8743H14.8111ZM33.3524 4.76817L34.0558 6.27129C34.0854 6.33052 34.1373 6.36755 34.1965 6.37495L35.7885 6.6193C35.8922 6.63411 35.9588 6.73037 35.944 6.82663C35.944 6.86365 35.9218 6.90067 35.8922 6.93029L34.7296 8.12242C34.6926 8.16685 34.6704 8.22609 34.6778 8.28532L34.9518 9.95875C34.9666 10.0624 34.8999 10.1587 34.7963 10.1735C34.7518 10.1735 34.7148 10.1735 34.6778 10.1513L33.2635 9.37379C33.2043 9.34417 33.1376 9.34417 33.0858 9.37379L31.6789 10.1587C31.5901 10.2105 31.479 10.1735 31.4272 10.0846C31.4049 10.0476 31.3975 10.0032 31.4049 9.96616L31.6789 8.29273C31.6863 8.23349 31.6715 8.17426 31.6271 8.12983L30.4646 6.93029C30.3905 6.85625 30.3905 6.73777 30.4646 6.67113C30.4942 6.64151 30.5312 6.62671 30.5682 6.6193L32.1602 6.37495C32.2195 6.36755 32.2713 6.32312 32.3009 6.27129L33.0043 4.76817C33.0488 4.67191 33.1598 4.63488 33.2487 4.67931C33.2857 4.69412 33.3227 4.73114 33.3376 4.76817H33.3524Z" fill="#EA1A71"/>
<path d="M15.2061 27.7513C14.7848 27.7513 14.3903 27.6844 14.0225 27.5507C13.6681 27.4169 13.3404 27.2096 13.0729 26.9489C12.792 26.668 12.578 26.3336 12.4309 25.9658C12.2771 25.5713 12.2036 25.1166 12.2036 24.6017C12.2036 24.0868 12.2838 23.6387 12.4376 23.2442C12.578 22.863 12.7987 22.522 13.0796 22.2278C13.3538 21.9536 13.6814 21.7396 14.0425 21.5992C14.4103 21.4521 14.8049 21.3785 15.1994 21.3852C15.6475 21.3852 16.0286 21.4654 16.3496 21.6326C16.6706 21.7931 16.9314 21.9803 17.132 22.1876L16.4031 23.0703C16.2493 22.9366 16.0821 22.8162 15.9016 22.7226C15.7277 22.629 15.507 22.5822 15.2396 22.5822C14.9988 22.5822 14.7848 22.629 14.5775 22.7226C14.3836 22.8095 14.2097 22.9433 14.0693 23.1105C13.9155 23.291 13.8018 23.505 13.7282 23.7324C13.6547 23.9798 13.6146 24.2539 13.6146 24.5616C13.6146 25.1968 13.755 25.6917 14.0425 26.0394C14.3301 26.3871 14.7648 26.561 15.3399 26.561C15.4669 26.561 15.5873 26.5476 15.7077 26.5142C15.8147 26.4874 15.915 26.4406 16.0019 26.3738V25.3172H14.9854V24.1871H17.2257V27.009C17.0117 27.2163 16.7308 27.3902 16.3764 27.5373C16.0019 27.6844 15.6007 27.758 15.1994 27.7513H15.2061ZM18.5029 27.6376V21.4989H20.2349C20.703 21.4989 21.131 21.559 21.5055 21.6794C21.8666 21.7864 22.2009 21.9803 22.4751 22.2344C22.7426 22.4819 22.9499 22.7962 23.097 23.1773C23.2441 23.5585 23.311 24.0132 23.311 24.5415C23.311 25.0698 23.2374 25.5245 23.0903 25.919C22.9633 26.2868 22.7493 26.6145 22.4751 26.8887C22.2009 27.1428 21.8799 27.3367 21.5255 27.4571C21.131 27.5908 20.7164 27.651 20.3018 27.6443H18.4962L18.5029 27.6376ZM19.8872 26.5142H20.1546C20.4221 26.5142 20.6562 26.4808 20.8702 26.4139C21.0775 26.347 21.2647 26.2333 21.4185 26.0862C21.5723 25.9257 21.686 25.7251 21.7663 25.471C21.8532 25.2169 21.9 24.9093 21.9 24.5415C21.9 24.1737 21.8532 23.8728 21.7663 23.6254C21.686 23.3713 21.5656 23.1773 21.4185 23.0302C21.2647 22.8764 21.0775 22.7694 20.8702 22.7092C20.6361 22.6424 20.3954 22.6156 20.1546 22.6156H19.8872V26.5142ZM24.4813 27.6376V21.4989H26.5944C26.9355 21.4989 27.2498 21.5323 27.544 21.5992C27.8382 21.6594 28.099 21.773 28.313 21.9268C28.5337 22.074 28.7076 22.2813 28.8346 22.5421C28.9684 22.7962 29.0286 23.1038 29.0286 23.4782C29.0286 23.8527 28.9617 24.147 28.8346 24.4078C28.7143 24.6619 28.5404 24.8825 28.313 25.0564C28.0857 25.2303 27.8249 25.3573 27.5507 25.4309C27.2498 25.5111 26.9422 25.5579 26.6279 25.5512H25.8655V27.6309H24.4813V27.6376ZM25.8655 24.4546H26.5409C27.2966 24.4546 27.6711 24.1269 27.6711 23.4716C27.6711 23.1506 27.5707 22.9232 27.3701 22.7962C27.1695 22.6624 26.882 22.6022 26.5008 22.6022H25.8588V24.4546H25.8655ZM30.0918 27.6376V21.4989H32.3053C32.633 21.4989 32.9339 21.5323 33.2214 21.5925C33.4889 21.646 33.7497 21.7597 33.9771 21.9135C34.1911 22.0606 34.3716 22.2612 34.4853 22.4952C34.6124 22.7427 34.6726 23.0436 34.6726 23.4114C34.6726 23.8661 34.5722 24.2406 34.3716 24.5348C34.1777 24.8224 33.9035 25.0497 33.5825 25.1835L34.9735 27.6443H33.422L32.2451 25.4309H31.4828V27.6443H30.0985L30.0918 27.6376ZM31.4761 24.3208H32.1916C32.5527 24.3208 32.8336 24.2473 33.0208 24.0935C33.2147 23.933 33.3151 23.7056 33.3151 23.4047C33.3151 23.1038 33.2147 22.8965 33.0208 22.7761C32.8336 22.6557 32.5594 22.5955 32.1916 22.5955H31.4761V24.3208Z" fill="#EA1A71"/>
</svg>
