<svg width="52" height="53" viewBox="0 0 52 53" fill="none" xmlns="http://www.w3.org/2000/svg">
<path d="M25.9999 52.373C40.3594 52.373 52 40.7324 52 26.373C52 12.0136 40.3594 0.373047 25.9999 0.373047C11.6404 0.373047 -0.000244141 12.0136 -0.000244141 26.373C-0.000244141 40.7324 11.6404 52.373 25.9999 52.373Z" fill="white"/>
<path d="M25.9998 42.2876C17.2232 42.2876 10.0847 35.1492 10.0847 26.3727C10.0847 17.5962 17.2264 10.4609 25.9998 10.4609C34.7731 10.4609 41.9148 17.5994 41.9148 26.3759C41.9148 35.1524 34.7763 42.2908 25.9998 42.2908V42.2876ZM25.9998 11.4115C17.7492 11.4115 11.0353 18.1253 11.0353 26.3759C11.0353 34.6264 17.7492 41.3403 25.9998 41.3403C34.2504 41.3403 40.9643 34.6264 40.9643 26.3759C40.9643 18.1253 34.2504 11.4115 25.9998 11.4115Z" fill="#25D12C"/>
<path d="M6.78315 21.8871L6.62473 21.2122C7.00811 21.1869 7.26476 20.9778 7.38199 20.5912C7.49605 20.2174 7.39783 20.0019 7.18871 19.9385C7.06831 19.9005 6.96059 19.9259 6.86237 20.0146C6.76098 20.1001 6.63107 20.2681 6.46948 20.5215C6.28571 20.8004 6.15581 20.9619 5.94035 21.1299C5.72173 21.2915 5.45558 21.3326 5.14508 21.2376C4.84091 21.1457 4.62545 20.9619 4.51139 20.6895C4.39416 20.4138 4.38149 20.1191 4.47654 19.815C4.64446 19.2668 5.05636 18.9215 5.60767 18.8359L5.75975 19.4981C5.42707 19.5457 5.21478 19.7199 5.12607 20.0146C5.04052 20.2902 5.12923 20.5025 5.32885 20.5627C5.43657 20.5944 5.53479 20.5786 5.62985 20.512C5.72173 20.4392 5.8453 20.2902 6.00055 20.0621L6.14947 19.853C6.18115 19.8055 6.23185 19.7389 6.29838 19.6597C6.36175 19.5773 6.41562 19.514 6.46631 19.476C6.56136 19.3936 6.72929 19.2763 6.86553 19.2478C7.00495 19.2098 7.18871 19.2098 7.38516 19.2668C7.69883 19.3619 7.91112 19.5552 8.02835 19.8403C8.14241 20.1255 8.14558 20.4487 8.03468 20.813C7.82874 21.4879 7.36615 21.8586 6.78949 21.8903L6.78315 21.8871Z" fill="#25D12C"/>
<path d="M8.68424 18.7012L5.08807 17.8901L5.4366 17.2437L8.0759 17.8964L6.11148 15.9954L6.39664 15.4694L9.06762 16.0619L7.07468 14.2147L7.42321 13.5684L10.0752 16.1284L9.69814 16.8287L7.31865 16.3059L9.06445 18.0041L8.68741 18.7044L8.68424 18.7012Z" fill="#25D12C"/>
<path d="M8.03152 12.949L8.45926 12.3945L11.2697 14.5649L10.8419 15.1194L8.03152 12.949Z" fill="#25D12C"/>
<path d="M10.8578 13.7301L11.0194 13.0552C11.3742 13.2041 11.6942 13.1344 11.9762 12.8397C12.2455 12.5578 12.255 12.3201 12.0966 12.1712C12.0047 12.0825 11.897 12.0571 11.7734 12.092C11.6435 12.1237 11.4534 12.2124 11.1936 12.3676C10.9021 12.5324 10.7152 12.618 10.4459 12.6718C10.1766 12.7162 9.91991 12.6338 9.68544 12.4088C9.45415 12.187 9.34325 11.9272 9.3686 11.6326C9.38761 11.3347 9.51118 11.0654 9.7298 10.8341C10.1259 10.4191 10.6518 10.2987 11.1809 10.4698L11.0194 11.1288C10.7025 11.0211 10.4332 11.0813 10.2209 11.3031C10.0213 11.5122 10.0055 11.7435 10.1544 11.8861C10.2336 11.9621 10.3318 11.9938 10.4459 11.9748C10.5599 11.9494 10.7374 11.8765 10.9782 11.7403L11.2063 11.6199C11.257 11.5914 11.3299 11.5565 11.4249 11.5153C11.5168 11.471 11.596 11.4393 11.6562 11.4266C11.7766 11.3949 11.9826 11.3664 12.1156 11.4013C12.255 11.4298 12.423 11.5122 12.5687 11.6516C12.8063 11.8797 12.9109 12.1459 12.8856 12.45C12.8602 12.7542 12.7145 13.0457 12.4515 13.3213C11.9635 13.8315 11.3806 13.955 10.8546 13.7237L10.8578 13.7301Z" fill="#25D12C"/>
<path d="M12.8349 11.6817L13.0916 11.0385C13.4211 11.2381 13.7506 11.2128 14.0675 10.9625C14.3748 10.7217 14.4192 10.4904 14.2829 10.3161C14.2037 10.2147 14.1023 10.1735 13.9724 10.1926C13.8393 10.2052 13.6397 10.2686 13.3609 10.3827C13.0504 10.5031 12.8508 10.5633 12.5783 10.5759C12.3058 10.5823 12.065 10.4619 11.8654 10.2084C11.669 9.95809 11.5961 9.68561 11.6626 9.39728C11.7228 9.10579 11.8844 8.85865 12.1347 8.65904C12.5846 8.30735 13.1233 8.25982 13.6239 8.50379L13.3704 9.1343C13.0726 8.98222 12.7969 9.00123 12.5529 9.1945C12.3248 9.37193 12.2773 9.59689 12.404 9.76165C12.4737 9.85036 12.5656 9.89472 12.6797 9.89155C12.7969 9.88522 12.9839 9.83452 13.2405 9.7363L13.4813 9.65075C13.5352 9.62858 13.6144 9.6064 13.7126 9.57788C13.8108 9.5462 13.8932 9.52719 13.9534 9.52402C14.077 9.51134 14.2829 9.51134 14.4096 9.56521C14.5459 9.61273 14.698 9.72046 14.8215 9.87888C15.0243 10.1387 15.0877 10.4175 15.018 10.7153C14.9483 11.0132 14.7645 11.2793 14.4667 11.5138C13.9122 11.9479 13.3197 11.9859 12.8286 11.6817H12.8349Z" fill="#25D12C"/>
<path d="M16.2409 9.22657L16.6274 8.64992C16.9063 8.9129 17.2326 8.96042 17.6001 8.78299C17.9518 8.6119 18.0437 8.39328 17.9487 8.19683C17.8948 8.08277 17.7998 8.0194 17.673 8.0099C17.5399 7.99406 17.3308 8.0099 17.0362 8.06376C16.7066 8.11762 16.5007 8.1303 16.2314 8.08594C15.9652 8.03525 15.7529 7.86732 15.6104 7.57582C15.471 7.2875 15.4583 7.00551 15.5819 6.73936C15.7023 6.46688 15.9114 6.25776 16.1997 6.11835C16.7161 5.86805 17.2484 5.93776 17.6889 6.28311L17.3086 6.84392C17.0488 6.63164 16.7763 6.59362 16.4975 6.72986C16.2377 6.8566 16.1427 7.06571 16.2314 7.25265C16.2789 7.35404 16.3613 7.41424 16.4753 7.43958C16.5894 7.45543 16.7827 7.44909 17.0552 7.40473L17.3086 7.37305C17.3657 7.36354 17.4481 7.3572 17.5526 7.35087C17.654 7.34136 17.7396 7.33819 17.7998 7.35087C17.9233 7.36354 18.1261 7.4079 18.237 7.48711C18.3574 7.56315 18.4873 7.69939 18.576 7.88316C18.7186 8.18099 18.7218 8.46615 18.5919 8.7418C18.462 9.02062 18.2243 9.23924 17.8821 9.40717C17.2484 9.7145 16.6591 9.62896 16.2441 9.22657H16.2409Z" fill="#25D12C"/>
<path d="M21.4372 8.02861L21.0507 7.47731L19.6978 7.88603L19.6788 8.55774L18.9564 8.77636L19.1243 5.02179L19.9544 4.77148L22.1691 7.80999L21.4404 8.02861H21.4372ZM19.72 7.19532L20.6515 6.9165L19.7675 5.66815L19.72 7.19532Z" fill="#25D12C"/>
<path d="M24.0924 4.67001L22.6856 4.86645L22.8028 5.69974L24.1684 5.50964L24.2603 6.17184L22.8947 6.36194L23.0848 7.71802L22.3909 7.81625L21.8998 4.29931L24.0005 4.00781L24.0924 4.67001Z" fill="#25D12C"/>
<path d="M25.5816 6.83391L27.0771 6.80856L27.0866 7.4771L24.8941 7.51195L24.837 3.96649L27.0042 3.93164L27.0137 4.60018L25.5436 4.62552L25.5563 5.37961L26.8997 5.35743L26.9092 6.01646L25.5658 6.03864L25.5784 6.83391H25.5816Z" fill="#25D12C"/>
<path d="M30.2358 4.30972L30.1503 4.97192L29.1998 4.84835L28.8259 7.70309L28.132 7.61121L28.5059 4.75647L27.5617 4.6329L27.6472 3.9707L30.2358 4.30972Z" fill="#25D12C"/>
<path d="M33.718 5.25365L31.95 6.99944L31.5666 8.33018L30.8981 8.13691L31.2815 6.80617L30.7143 4.38867L31.4747 4.60729L31.8074 6.24219L32.9576 5.03186L33.718 5.25048V5.25365Z" fill="#25D12C"/>
<path d="M34.5705 8.99468C34.4437 8.51308 34.5103 8.04733 34.7669 7.59425C35.0267 7.14116 35.3943 6.84333 35.8727 6.71343C36.3511 6.57718 36.8232 6.64372 37.2858 6.9067C37.8466 7.22671 38.1856 7.79386 38.1983 8.38952L37.5013 8.39585C37.5044 8.03149 37.3048 7.6988 36.95 7.49919C36.649 7.3281 36.3543 7.28374 36.0628 7.36612C35.7745 7.45167 35.5432 7.64177 35.3721 7.94277C35.2042 8.23743 35.1566 8.5321 35.2295 8.82676C35.3055 9.12142 35.4957 9.35271 35.7967 9.52381C36.1483 9.72342 36.5476 9.72976 36.8486 9.54599L37.2003 10.148C36.6838 10.4426 36.0248 10.4395 35.4608 10.1195C34.9982 9.85649 34.7035 9.48262 34.5768 9.00102L34.5705 8.99468Z" fill="#25D12C"/>
<path d="M37.9956 10.9363L39.1615 11.8742L38.7433 12.397L37.0323 11.0219L39.2566 8.25586L40.9454 9.61511L40.5271 10.1379L39.3802 9.21589L38.9081 9.80521L39.9536 10.648L39.5417 11.1613L38.4962 10.3185L37.9987 10.9395L37.9956 10.9363Z" fill="#25D12C"/>
<path d="M43.0143 11.7508L43.4864 12.2673L40.8661 14.6594L40.5081 14.2666L41.0847 11.6811L39.4847 13.1449L39.0126 12.6285L41.6329 10.2363L41.9909 10.6292L41.4174 13.2115L43.0143 11.7508Z" fill="#25D12C"/>
<path d="M45.4287 15.0908L44.8711 15.4615L44.3419 14.663L41.9403 16.2536L41.5537 15.6706L43.9554 14.08L43.4294 13.2848L43.9871 12.9141L45.4287 15.0908Z" fill="#25D12C"/>
<path d="M43.4927 17.6347L44.1391 18.9813L43.5371 19.2696L42.5865 17.2925L45.7835 15.7559L46.7213 17.7108L46.1193 17.9991L45.4825 16.6747L44.8013 17.001L45.3843 18.2114L44.7886 18.4965L44.2056 17.2862L43.4895 17.6316L43.4927 17.6347Z" fill="#25D12C"/>
<path d="M44.2468 21.4684L45.2132 20.4197L45.0548 19.9096L43.8761 20.2739L43.6702 19.6054L47.0604 18.5566L47.4787 19.9127C47.5769 20.2264 47.5484 20.5274 47.3963 20.8126C47.2474 21.0977 47.0129 21.291 46.7024 21.3892C46.281 21.5191 45.8121 21.3765 45.5111 21.0407L44.4655 22.1876L44.2405 21.4652L44.2468 21.4684ZM46.6454 19.4216L45.641 19.7321L45.8532 20.4197C45.9325 20.67 46.2239 20.8094 46.4996 20.7238C46.7753 20.6383 46.9337 20.3626 46.8576 20.1092L46.6454 19.4216Z" fill="#25D12C"/>
<path d="M6.49798 36.4083C6.62789 35.9267 6.91621 35.5591 7.3693 35.2962C7.81922 35.0332 8.28814 34.9603 8.76658 35.0839C9.24818 35.2075 9.62522 35.4989 9.89454 35.9584C10.2209 36.5128 10.2304 37.175 9.94206 37.6978L9.33689 37.3525C9.52383 37.0388 9.51433 36.6491 9.30838 36.3006C9.13411 36.0027 8.90282 35.8158 8.60499 35.7429C8.31349 35.6732 8.01883 35.7239 7.721 35.895C7.4295 36.0661 7.24256 36.2974 7.15702 36.5889C7.0778 36.8835 7.12533 37.1782 7.29959 37.4729C7.50554 37.8214 7.84773 38.0273 8.19943 38.0147V38.7117C7.60693 38.7086 7.03661 38.3759 6.71027 37.8182C6.44095 37.3588 6.37124 36.8899 6.50115 36.4083H6.49798Z" fill="#25D12C"/>
<path d="M9.18809 40.0882L10.1513 41.232L9.638 41.6629L8.22488 39.9836L10.9402 37.6992L12.3375 39.3595L11.8242 39.7904L10.8769 38.6656L10.3002 39.1504L11.1652 40.1769L10.6614 40.6015L9.79643 39.5749L9.18809 40.0882Z" fill="#25D12C"/>
<path d="M11.8622 43.7152L12.1315 42.3147L11.7291 41.9662L10.9212 42.8945L10.3921 42.4351L12.724 39.7578L13.795 40.6893C14.0421 40.9048 14.1783 41.1773 14.2005 41.5004C14.2227 41.8236 14.1276 42.1088 13.9154 42.3527C13.6239 42.6854 13.1518 42.8122 12.7209 42.6823L12.4357 44.2094L11.8654 43.712L11.8622 43.7152ZM12.8222 40.7115L12.1315 41.5036L12.6733 41.9757C12.8729 42.15 13.193 42.1119 13.3831 41.8933C13.5732 41.6747 13.5605 41.3579 13.364 41.1836L12.8222 40.7115Z" fill="#25D12C"/>
<path d="M17.0615 42.9852L16.7035 43.5491L15.8955 43.0359L14.3557 45.4692L13.7632 45.0953L15.303 42.662L14.4983 42.1519L14.8563 41.5879L17.0615 42.9852Z" fill="#25D12C"/>
<path d="M17.3657 43.0938L17.9931 43.4043L16.4184 46.5853L15.791 46.2748L17.3657 43.0938Z" fill="#25D12C"/>
<path d="M20.2679 45.0316L18.9371 44.5373L18.6425 45.3263L19.9352 45.8079L19.7007 46.4352L18.408 45.9536L17.9296 47.2368L17.2737 46.9928L18.5126 43.666L20.4992 44.4043L20.2647 45.0316H20.2679Z" fill="#25D12C"/>
<path d="M20.9303 44.498L21.6083 44.6723L20.718 48.1069L20.04 47.9326L20.9303 44.498Z" fill="#25D12C"/>
<path d="M22.4383 47.7772L23.918 47.999L23.8198 48.6612L21.6494 48.3348L22.1785 44.8242L24.3235 45.1474L24.2253 45.8096L22.771 45.591L22.6601 46.3387L23.9877 46.5383L23.8895 47.191L22.5619 46.9914L22.4447 47.7772H22.4383Z" fill="#25D12C"/>
<path d="M26.3101 45.184C26.798 45.1745 27.2068 45.3392 27.5363 45.6719C27.8721 46.0046 28.0432 46.4228 28.0527 46.9234C28.0622 47.424 27.9102 47.8486 27.587 48.194C27.2701 48.5393 26.8677 48.7199 26.383 48.7294L24.973 48.758L24.9033 45.2125L26.3133 45.184H26.3101ZM26.3671 48.0609C26.6776 48.0546 26.9216 47.95 27.1117 47.7409C27.2987 47.5286 27.3905 47.2625 27.3842 46.9361C27.3779 46.6066 27.2765 46.3468 27.08 46.1472C26.8836 45.9444 26.6333 45.8462 26.3228 45.8525L25.613 45.8652L25.6574 48.0736L26.3671 48.0609Z" fill="#25D12C"/>
<path d="M30.2041 47.5637L30.692 47.0726C30.917 47.3863 31.2275 47.494 31.6204 47.3895C31.9974 47.2912 32.1305 47.0948 32.0735 46.8825C32.0418 46.7589 31.9626 46.6797 31.839 46.6449C31.7123 46.6037 31.5032 46.5815 31.2022 46.5752C30.8695 46.5625 30.6635 46.5372 30.4069 46.4421C30.1566 46.3407 29.9791 46.1348 29.8968 45.8211C29.8144 45.5138 29.8587 45.2349 30.0298 44.9941C30.2009 44.7502 30.4481 44.5854 30.7554 44.5062C31.3099 44.3605 31.82 44.5315 32.1844 44.9529L31.7028 45.4314C31.4873 45.1747 31.2275 45.0829 30.9297 45.1621C30.6508 45.2349 30.5146 45.4219 30.5685 45.6247C30.597 45.7324 30.6635 45.8084 30.7712 45.8559C30.8821 45.894 31.0722 45.9225 31.3479 45.9352L31.6045 45.951C31.6616 45.951 31.744 45.9605 31.8485 45.9763C31.9499 45.9858 32.0323 46.0017 32.0925 46.0239C32.2129 46.0619 32.3998 46.1411 32.4949 46.2425C32.5994 46.3407 32.6976 46.4991 32.7483 46.6956C32.8307 47.0156 32.78 47.2944 32.5994 47.5415C32.4188 47.7887 32.1432 47.9598 31.7756 48.0548C31.0944 48.2323 30.5336 48.0358 30.2041 47.5606V47.5637Z" fill="#25D12C"/>
<path d="M34.9981 42.9727L34.7541 45.444L35.3118 46.7114L34.6749 46.9902L34.1173 45.7228L32.137 44.2273L32.8626 43.9105L34.1648 44.9561L34.2757 43.2895L35.0013 42.9727H34.9981Z" fill="#25D12C"/>
<path d="M36.4586 45.2726L36.7754 44.6548C37.0859 44.8861 37.4123 44.8924 37.7545 44.6738C38.084 44.4647 38.1473 44.2365 38.0301 44.0528C37.9636 43.9451 37.8622 43.8944 37.7323 43.9007C37.5992 43.9007 37.3933 43.9419 37.1049 44.0306C36.7849 44.1225 36.5821 44.1605 36.3096 44.1478C36.0372 44.1288 35.809 43.9862 35.6348 43.7138C35.4637 43.4444 35.4193 43.1656 35.508 42.8868C35.5968 42.6016 35.7805 42.3704 36.0498 42.1993C36.5314 41.8919 37.0701 41.8951 37.5453 42.1898L37.2317 42.7918C36.9497 42.6112 36.674 42.6048 36.4142 42.7727C36.1702 42.928 36.1005 43.1466 36.2114 43.324C36.2716 43.4191 36.3603 43.4698 36.4744 43.4825C36.5916 43.4856 36.7817 43.454 37.0479 43.3811L37.2982 43.3177C37.3521 43.3019 37.4344 43.286 37.5358 43.267C37.6372 43.2448 37.7196 43.2353 37.7798 43.2353C37.9034 43.2353 38.1093 43.2543 38.2297 43.3209C38.3596 43.3811 38.5022 43.5015 38.6099 43.6726C38.7874 43.9514 38.8222 44.2334 38.7272 44.5249C38.6289 44.8164 38.4198 45.0635 38.0998 45.2663C37.5041 45.6465 36.9117 45.6275 36.4522 45.2758L36.4586 45.2726Z" fill="#25D12C"/>
<path d="M39.2848 39.7578L39.722 40.2648L38.9965 40.8921L40.8817 43.0688L40.3525 43.5251L38.4673 41.3484L37.7481 41.9725L37.3109 41.4656L39.2848 39.7578Z" fill="#25D12C"/>
<path d="M42.1967 40.8071L43.1758 39.676L43.6827 40.1132L42.2442 41.7735L39.5606 39.4479L40.9832 37.8066L41.4901 38.2439L40.5269 39.356L41.0973 39.8503L41.9781 38.8332L42.4755 39.2641L41.5947 40.2812L42.1967 40.804V40.8071Z" fill="#25D12C"/>
<path d="M43.1377 34.334L46.2047 36.121L45.8562 36.7198L43.8664 35.5602L44.7885 37.2521L44.7473 37.3218L42.824 37.3567L44.8075 38.5131L44.4558 39.1183L41.3887 37.3313L41.7499 36.7103L43.7144 36.6754L42.7765 34.955L43.1377 34.334Z" fill="#25D12C"/>
<path d="M5.72815 25.3438H4.41642V27.1466H2.61359V28.4583H4.41642V30.2611H5.72815V28.4583H7.53099V27.1466H5.72815V25.3438Z" fill="#25D12C"/>
<path d="M48.3118 24.8613L45.3747 27.5862L44.6903 26.7655L43.6828 27.6052L45.2543 29.4904L49.2022 25.8214L48.3118 24.8613Z" fill="#25D12C"/>
<path d="M14.2989 24.1543V28.1465H13.3864V24.1543H14.2989Z" fill="#25D12C"/>
<path d="M14.7266 27.2414L15.5124 26.7852C15.655 27.1147 15.8989 27.3396 16.352 27.3396C16.8051 27.3396 16.8938 27.1685 16.8938 27.0133C16.8938 26.7693 16.6657 26.6711 16.0669 26.5063C15.4744 26.3416 14.8914 26.0564 14.8914 25.2928C14.8914 24.5293 15.5409 24.0762 16.2316 24.0762C16.9223 24.0762 17.4008 24.3898 17.6923 24.9792L16.9223 25.4291C16.7861 25.1439 16.596 24.9665 16.2316 24.9665C15.9465 24.9665 15.8039 25.1091 15.8039 25.2675C15.8039 25.4513 15.9021 25.5748 16.5231 25.7649C17.1283 25.9487 17.8063 26.1578 17.8063 27.0038C17.8063 27.7737 17.1917 28.23 16.3235 28.23C15.4554 28.23 14.9484 27.8307 14.7266 27.2446V27.2414Z" fill="#25D12C"/>
<path d="M18.063 26.1515C18.063 24.976 18.9913 24.0762 20.1383 24.0762C21.2853 24.0762 22.2136 24.9792 22.2136 26.1515C22.2136 27.3238 21.2853 28.2268 20.1383 28.2268C18.9913 28.2268 18.063 27.327 18.063 26.1515ZM21.3043 26.1515C21.3043 25.4386 20.791 24.9633 20.1415 24.9633C19.492 24.9633 18.9787 25.4354 18.9787 26.1515C18.9787 26.8675 19.492 27.3396 20.1415 27.3396C20.791 27.3396 21.3043 26.8675 21.3043 26.1515Z" fill="#25D12C"/>
<path d="M23.9372 27.4842L25.2774 26.0932C25.5119 25.8524 25.683 25.6211 25.683 25.3867C25.683 25.1364 25.5245 24.9653 25.2552 24.9653C24.9859 24.9653 24.7768 25.149 24.6691 25.3994L23.8991 24.9494C24.1558 24.3569 24.6912 24.0781 25.2457 24.0781C25.9586 24.0781 26.5986 24.547 26.5986 25.3518C26.5986 25.8303 26.342 26.2422 25.9776 26.6065L25.3154 27.2751H26.6557V28.1527H23.9403V27.4905L23.9372 27.4842Z" fill="#25D12C"/>
<path d="M29.4187 24.1543V24.9179L28.1165 28.1465H27.1469L28.4016 25.0319H26.7921V24.1543H29.4155H29.4187Z" fill="#25D12C"/>
<path d="M29.5897 26.1515C29.5897 24.919 30.1822 24.0762 31.2151 24.0762C32.248 24.0762 32.8405 24.9221 32.8405 26.1515C32.8405 27.3808 32.248 28.2268 31.2151 28.2268C30.1822 28.2268 29.5897 27.384 29.5897 26.1515ZM31.928 26.1515C31.928 25.3816 31.6936 24.9633 31.2151 24.9633C30.7367 24.9633 30.5022 25.3784 30.5022 26.1515C30.5022 26.9246 30.7367 27.3396 31.2151 27.3396C31.6936 27.3396 31.928 26.9246 31.928 26.1515Z" fill="#25D12C"/>
<path d="M33.1827 26.1515C33.1827 24.919 33.7752 24.0762 34.8081 24.0762C35.8411 24.0762 36.4335 24.9221 36.4335 26.1515C36.4335 27.3808 35.8411 28.2268 34.8081 28.2268C33.7752 28.2268 33.1827 27.384 33.1827 26.1515ZM35.521 26.1515C35.521 25.3816 35.2866 24.9633 34.8081 24.9633C34.3297 24.9633 34.0952 25.3784 34.0952 26.1515C34.0952 26.9246 34.3297 27.3396 34.8081 27.3396C35.2866 27.3396 35.521 26.9246 35.521 26.1515Z" fill="#25D12C"/>
<path d="M38.3916 24.1555V28.1477H37.4791V25.1187L36.7726 25.312L36.5508 24.5294L37.5932 24.1523H38.3916V24.1555Z" fill="#25D12C"/>
</svg>
