<svg width="66" height="49" viewBox="0 0 66 49" fill="none" xmlns="http://www.w3.org/2000/svg">
<path d="M10.2045 15.757V15.5106C10.1856 7.37816 16.7635 0.78125 24.877 0.78125C31.7582 0.78125 37.7106 5.52041 39.2271 12.2311C43.8526 9.65296 49.7102 11.3022 52.2883 15.9466C53.1982 17.5579 53.5963 19.4156 53.4825 21.2544C58.8283 23.2449 61.5581 29.1973 59.5676 34.562C58.07 38.6187 54.2029 41.2916 49.8808 41.2916H13.0101C5.8824 41.2916 0.081665 35.5098 0.081665 28.3821C0.081665 22.316 4.29004 17.065 10.2045 15.757Z" fill="#FFCFA6"/>
<path d="M55.7955 23.2459V22.9994C55.7955 14.886 49.2175 8.30802 41.1041 8.28906C34.2418 8.28906 28.2894 13.0282 26.7729 19.7199C22.1474 17.1418 16.2898 18.791 13.7117 23.4354C12.8018 25.0467 12.4037 26.9045 12.5175 28.7433C7.17169 30.7337 4.44194 36.6861 6.43239 42.0508C7.92996 46.0886 11.7971 48.7805 16.1192 48.7805H52.9899C60.1366 48.7805 65.9183 42.9987 65.9183 35.852C65.9183 29.7859 61.71 24.5349 55.7955 23.2269V23.2459Z" fill="white"/>
<path d="M43.1889 25.4277C42.9425 25.2381 42.5823 25.2571 42.3548 25.5035L42.1084 25.7689C41.843 26.0533 41.8999 26.5272 42.2032 26.7736C44.3453 28.4987 45.4069 31.2284 44.9709 33.9392C44.6676 35.9486 43.5681 37.7495 41.9188 38.9438C40.4971 39.9864 38.7531 40.4982 36.9901 40.4034L37.2934 40.0812L38.4308 38.8869L37.3692 37.8822L35.0945 40.2707L34.1087 41.2944L35.1703 42.2991L37.5588 44.5739L38.5446 43.5502L37.0091 42.0716C39.1322 42.1664 41.2174 41.5408 42.9235 40.2897C44.933 38.83 46.2599 36.65 46.639 34.2046C47.1509 30.8872 45.8429 27.5319 43.2079 25.4467L43.1889 25.4277ZM29.9003 31.5507C30.2036 29.5413 31.3031 27.7404 32.9524 26.5461C34.3741 25.5035 36.1181 24.9917 37.8811 25.0865L37.5778 25.4087L36.4404 26.603L37.5019 27.6077L39.7767 25.2192L40.7625 24.1955L39.7009 23.1908L37.3124 20.916L36.3266 21.9397L37.8621 23.4183C35.739 23.3235 33.6537 23.9491 31.9476 25.2002C29.9382 26.6599 28.6113 28.8399 28.2321 31.2853C27.7203 34.6027 29.0283 37.958 31.6633 40.0433C31.9097 40.2328 32.2699 40.2139 32.4974 39.9674L32.7438 39.7021C33.0092 39.4177 32.9524 38.9438 32.649 38.6973C30.5069 36.9723 29.4643 34.2425 29.8814 31.5317L29.9003 31.5507Z" fill="#FF8720"/>
</svg>
