<svg width="48" height="49" viewBox="0 0 48 49" fill="none" xmlns="http://www.w3.org/2000/svg">
<path d="M8.42688 47.3015V2.26817C8.42688 1.44531 9.09094 0.78125 9.9138 0.78125H39.3562C39.7532 0.78125 40.1285 0.940047 40.41 1.21433L47.2311 8.03539C47.5126 8.31689 47.6642 8.69223 47.6642 9.08922V47.2943C47.6642 48.1172 47.0001 48.7812 46.1773 48.7812H9.9138C9.09094 48.7812 8.42688 48.1172 8.42688 47.2943V47.3015Z" fill="white"/>
<path d="M40.0275 7.42907V0.78125C40.6266 0.983355 47.6787 8.11478 47.6642 8.42516H41.0164C40.4678 8.42516 40.0275 7.98486 40.0275 7.43629V7.42907ZM15.1397 23.9584C15.1397 23.4026 15.5872 22.9551 16.143 22.9551H39.9409C40.4967 22.9551 40.9442 23.4026 40.9442 23.9584C40.9442 24.5142 40.4967 24.9617 39.9409 24.9617H16.1502C15.5944 24.9617 15.1469 24.5142 15.1469 23.9584H15.1397ZM15.1469 13.3551C15.1469 12.7993 15.5944 12.3518 16.1502 12.3518H39.9481C40.5039 12.3518 40.9514 12.7993 40.9514 13.3551C40.9514 13.9109 40.5039 14.3584 39.9481 14.3584H16.1575C15.6017 14.3584 15.1541 13.9109 15.1541 13.3551H15.1469ZM15.1397 29.2637C15.1397 28.7079 15.5872 28.2603 16.143 28.2603H39.9409C40.4967 28.2603 40.9442 28.7079 40.9442 29.2637C40.9442 29.8194 40.4967 30.267 39.9409 30.267H16.1502C15.5944 30.267 15.1469 29.8194 15.1469 29.2637H15.1397ZM15.1469 18.6603C15.1469 18.1046 15.5944 17.657 16.1502 17.657H39.9481C40.5039 17.657 40.9514 18.1046 40.9514 18.6603C40.9514 19.2161 40.5039 19.6637 39.9481 19.6637H16.1575C15.6017 19.6637 15.1541 19.2161 15.1541 18.6603H15.1469ZM15.1397 34.5689C15.1397 34.0131 15.5872 33.5656 16.143 33.5656H39.9265C40.4823 33.5656 40.9298 34.0131 40.9298 34.5689C40.9298 35.1247 40.4823 35.5722 39.9265 35.5722H16.1502C15.5944 35.5722 15.1469 35.1247 15.1469 34.5689H15.1397ZM15.1397 39.8742C15.1397 39.3184 15.5872 38.8709 16.143 38.8709H32.8528C33.4086 38.8709 33.8561 39.3184 33.8561 39.8742C33.8561 40.43 33.4086 40.8775 32.8528 40.8775H16.143C15.5872 40.8775 15.1397 40.43 15.1397 39.8742Z" fill="#B078DB"/>
<path d="M21.6504 2.6582H2.98453C1.52152 2.6582 0.33551 3.84421 0.33551 5.30723V15.0011C0.33551 16.4641 1.52152 17.6501 2.98453 17.6501H21.6504C23.1134 17.6501 24.2994 16.4641 24.2994 15.0011V5.30723C24.2994 3.84421 23.1134 2.6582 21.6504 2.6582Z" fill="white"/>
<path d="M21.6504 4.10156H2.98453C2.3188 4.10156 1.77911 4.64124 1.77911 5.30698V15.0008C1.77911 15.6665 2.3188 16.2062 2.98453 16.2062H21.6504C22.3161 16.2062 22.8558 15.6665 22.8558 15.0008V5.30698C22.8558 4.64124 22.3161 4.10156 21.6504 4.10156Z" fill="#B078DB"/>
<path d="M5.39539 13.2685V7.58789H7.34426C7.66185 7.58789 7.95057 7.61676 8.22486 7.68173C8.49915 7.73947 8.73734 7.84052 8.93945 7.98488C9.14155 8.12203 9.30035 8.3097 9.41584 8.54789C9.53854 8.77887 9.59629 9.06759 9.59629 9.40684C9.59629 9.74609 9.53854 10.0276 9.41584 10.2658C9.30757 10.504 9.14155 10.7061 8.93945 10.8649C8.73012 11.0237 8.49193 11.1464 8.23208 11.2113C7.96501 11.2835 7.68351 11.3268 7.38035 11.3268H6.67298V13.2541H5.39539V13.2685ZM6.67298 10.3235H7.30095C8.0011 10.3235 8.34757 10.0204 8.34757 9.41406C8.34757 9.11812 8.25373 8.90879 8.06606 8.78609C7.87839 8.66338 7.61133 8.60563 7.26486 8.60563H6.67298V10.3235ZM10.5779 13.2685V7.58789H12.1803C12.6134 7.58789 13.0104 7.64563 13.3569 7.75391C13.7034 7.86218 14.0065 8.03541 14.2519 8.26639C14.5046 8.49015 14.6922 8.78609 14.8294 9.13977C14.9593 9.49345 15.0315 9.9121 15.0315 10.4029C15.0315 10.8938 14.9665 11.3124 14.8294 11.6733C14.7067 12.0126 14.519 12.3157 14.2664 12.5683C14.0137 12.8065 13.7178 12.987 13.3858 13.088C13.0176 13.2107 12.6351 13.2685 12.2525 13.2613H10.5779V13.2685ZM11.8555 12.2291H12.1009C12.3464 12.2291 12.5629 12.2002 12.765 12.1353C12.9599 12.0703 13.1331 11.9692 13.2703 11.8321C13.4074 11.6877 13.5157 11.5001 13.5951 11.2691C13.6745 11.0381 13.7178 10.7494 13.7178 10.4101C13.7178 10.0709 13.6745 9.78939 13.5951 9.56563C13.5229 9.33466 13.4146 9.15421 13.2703 9.01706C13.1331 8.87992 12.9527 8.77887 12.765 8.72112C12.5485 8.66338 12.3247 8.63451 12.1009 8.63451H11.8555V12.2435V12.2291ZM16.107 13.2685V7.58789H19.6871V8.6706H17.3846V9.98428H19.3551V11.067H17.3846V13.2685H16.107Z" fill="white"/>
</svg>
