<svg width="84" height="54" viewBox="0 0 84 54" fill="none" xmlns="http://www.w3.org/2000/svg">
<path d="M16.4583 48.4626C14.4975 49.5435 12.5366 50.6244 10.3259 51.8412C7.05593 45.4968 3.85661 39.2666 0.695312 33.1178C10.1738 24.8506 20.4453 21.5916 32.4006 27.2841C37.2132 29.5763 42.6069 29.4025 47.7182 30.4399C49.7497 30.8528 51.8247 31.07 53.867 31.4557C56.2896 31.9174 57.8702 33.8728 57.6258 35.9695C57.3596 38.2454 55.6215 39.8098 53.112 39.7391C47.3271 39.5762 41.5477 39.2992 35.7629 39.071C34.796 39.033 33.7803 38.7506 32.9547 39.5219C32.5962 41.0319 33.5413 41.2057 34.6222 41.3361C41.8139 42.1889 49.0273 42.6723 56.2733 42.3464C58.3808 42.2486 60.3363 41.5697 62.2102 40.6137C67.0391 38.1368 72.0743 36.1433 77.2508 34.5301C80.3415 33.5686 82.1937 34.2693 82.9379 36.4312C83.6875 38.6093 82.6717 40.4779 79.8907 41.6729C71.2704 45.3882 62.6122 48.9949 54.0082 52.7483C48.6308 55.0948 43.3456 53.601 38.0442 52.6179C30.858 51.2762 23.6935 49.8586 16.4583 48.4626Z" fill="white"/>
<path d="M55.98 0L59.9995 8.14224L68.9837 9.44586L62.4818 15.7848L64.019 24.7363L55.98 20.5104L47.9464 24.7363L49.4782 15.7848L42.9763 9.44586L51.9605 8.14224L55.98 0Z" fill="white"/>
<path d="M38.4404 12.3687L40.26 16.0568L44.3284 16.6489L41.3844 19.5169L42.0797 23.5744L38.4404 21.657L34.7956 23.5744L35.4963 19.5169L32.5469 16.6489L36.6207 16.0568L38.4404 12.3687Z" fill="white"/>
<path d="M72.6163 12.3687L74.436 16.0568L78.5098 16.6489L75.5658 19.5169L76.261 23.5744L72.6163 21.657L68.977 23.5744L69.6723 19.5169L66.7283 16.6489L70.7967 16.0568L72.6163 12.3687Z" fill="white"/>
</svg>
