<svg width="21" height="25" viewBox="0 0 21 25" fill="none" xmlns="http://www.w3.org/2000/svg">
<path fill-rule="evenodd" clip-rule="evenodd" d="M17.0073 13.5634C16.9774 10.5261 19.4857 9.0675 19.5982 8.99625C18.1884 6.93389 15.9913 6.64891 15.2114 6.61891C13.3442 6.43142 11.5669 7.72134 10.6146 7.72134C9.66224 7.72134 8.20372 6.64891 6.65521 6.67516C4.61928 6.70515 2.74082 7.86008 1.69099 9.68246C-0.423682 13.3535 1.15107 18.7943 3.21325 21.7717C4.22184 23.2303 5.42166 24.8689 7.00016 24.8089C8.51867 24.749 9.09233 23.8265 10.9295 23.8265C12.7668 23.8265 13.2842 24.8089 14.8889 24.7789C16.5237 24.749 17.5585 23.294 18.5596 21.8279C19.7182 20.1368 20.1906 18.4981 20.2206 18.4156C20.1831 18.4006 17.0336 17.1932 16.9998 13.5634H17.0036H17.0073ZM13.9853 4.64654C14.8252 3.62661 15.3914 2.2167 15.2376 0.810547C14.0303 0.859294 12.568 1.61299 11.7019 2.62918C10.9258 3.52912 10.2472 4.96527 10.4271 6.34143C11.7732 6.44642 13.1492 5.65897 13.9853 4.64279V4.64654Z" fill="#011727"/>
</svg>
